<svg xmlns="http://www.w3.org/2000/svg" xmlns:xlink="http://www.w3.org/1999/xlink" viewBox="0 0 562.6 323.78"><defs><linearGradient id="a" x1="186.58" y1="258.92" x2="496.6" y2="258.92" gradientUnits="userSpaceOnUse"><stop offset="0.02" stop-color="#cfcfd1"/><stop offset="0.02" stop-color="#cccccf"/><stop offset="0.04" stop-color="#a3a3a7"/><stop offset="0.05" stop-color="#7f7f85"/><stop offset="0.07" stop-color="#5f5f66"/><stop offset="0.09" stop-color="#43434c"/><stop offset="0.11" stop-color="#2d2d37"/><stop offset="0.14" stop-color="#1c1c27"/><stop offset="0.17" stop-color="#11111b"/><stop offset="0.22" stop-color="#0a0a15"/><stop offset="0.34" stop-color="#080813"/><stop offset="0.43" stop-color="#0a0a15"/><stop offset="0.46" stop-color="#10101c"/><stop offset="0.48" stop-color="#1b1c27"/><stop offset="0.49" stop-color="#2c2c38"/><stop offset="0.51" stop-color="#41414e"/><stop offset="0.52" stop-color="#5a5b6a"/><stop offset="0.53" stop-color="#797b8a"/><stop offset="0.55" stop-color="#9c9eae"/><stop offset="0.55" stop-color="#a5a7b8"/><stop offset="0.92" stop-color="#080813"/></linearGradient><linearGradient id="b" x1="186.58" y1="258.92" x2="481.48" y2="258.92" xlink:href="#a"/><linearGradient id="c" x1="292.22" y1="89" x2="406.18" y2="89" gradientUnits="userSpaceOnUse"><stop offset="0" stop-color="#e54040"/><stop offset="0.92" stop-color="#591919"/></linearGradient><linearGradient id="d" x1="297.41" y1="15.78" x2="391.1" y2="15.78" gradientUnits="userSpaceOnUse"><stop offset="0" stop-color="#d97a07"/><stop offset="0.92" stop-color="#593203"/></linearGradient><linearGradient id="e" x1="304.06" y1="50.54" x2="418.01" y2="50.54" gradientUnits="userSpaceOnUse"><stop offset="0" stop-color="#faa96a"/><stop offset="0.92" stop-color="#591919"/></linearGradient><linearGradient id="f" x1="303.65" y1="46.61" x2="418.01" y2="46.61" xlink:href="#e"/><linearGradient id="g" x1="325.94" y1="50.33" x2="334.61" y2="50.33" xlink:href="#e"/><linearGradient id="h" x1="389.11" y1="50.33" x2="397.78" y2="50.33" xlink:href="#e"/><linearGradient id="i" x1="347.82" y1="50.74" x2="375.38" y2="50.74" xlink:href="#e"/><linearGradient id="j" x1="321.46" y1="188.94" x2="435.41" y2="188.94" xlink:href="#e"/><linearGradient id="k" x1="237.36" y1="203.83" x2="321.8" y2="203.83" gradientTransform="translate(253.31 -141.16) rotate(49.55)" gradientUnits="userSpaceOnUse"><stop offset="0" stop-color="#a7d7db"/><stop offset="0.92" stop-color="#465a5c"/></linearGradient><linearGradient id="l" x1="250.59" y1="244.79" x2="269.61" y2="244.79" gradientTransform="matrix(1, 0, 0, 1, 0, 0)" xlink:href="#k"/><linearGradient id="m" x1="237.69" y1="229.07" x2="245.07" y2="229.07" gradientTransform="matrix(1, 0, 0, 1, 0, 0)" xlink:href="#k"/><linearGradient id="n" x1="313.83" y1="178.61" x2="321.47" y2="178.61" gradientTransform="matrix(1, 0, 0, 1, 0, 0)" xlink:href="#k"/><linearGradient id="o" x1="292.02" y1="161.42" x2="305.67" y2="161.42" gradientTransform="matrix(1, 0, 0, 1, 0, 0)" xlink:href="#k"/><linearGradient id="p" x1="228.49" y1="63.42" x2="290.64" y2="63.42" gradientTransform="matrix(1, 0, 0, 1, 0, 0)" xlink:href="#k"/><linearGradient id="q" x1="248.01" y1="223.32" x2="277.46" y2="223.32" gradientTransform="translate(262.23 -121.5) rotate(49.55)" xlink:href="#k"/><linearGradient id="r" x1="282.34" y1="183.06" x2="311.78" y2="183.06" gradientTransform="translate(243.65 -161.76) rotate(49.55)" xlink:href="#k"/><linearGradient id="s" x1="252.37" y1="65.17" x2="272.87" y2="65.17" gradientTransform="matrix(1, 0, 0, 1, 0, 0)" xlink:href="#k"/><linearGradient id="t" x1="255.73" y1="203.8" x2="321.58" y2="203.8" gradientTransform="matrix(1, 0, 0, 1, 0, 0)" xlink:href="#k"/><linearGradient id="u" x1="55.36" y1="414.56" x2="150.61" y2="414.56" gradientTransform="translate(496.12 247.5) rotate(80.93)" gradientUnits="userSpaceOnUse"><stop offset="0.02" stop-color="#080813"/><stop offset="0.23" stop-color="#0a0a15"/><stop offset="0.31" stop-color="#10101c"/><stop offset="0.37" stop-color="#1b1c27"/><stop offset="0.41" stop-color="#2c2c38"/><stop offset="0.45" stop-color="#41414e"/><stop offset="0.48" stop-color="#5a5b6a"/><stop offset="0.51" stop-color="#797b8a"/><stop offset="0.54" stop-color="#9c9eae"/><stop offset="0.55" stop-color="#a5a7b8"/><stop offset="0.92" stop-color="#080813"/></linearGradient><linearGradient id="v" x1="75.68" y1="414.56" x2="130.28" y2="414.56" gradientTransform="translate(470.19 196.33) rotate(73.23)" xlink:href="#u"/><linearGradient id="w" x1="88.78" y1="414.56" x2="117.19" y2="414.56" gradientTransform="matrix(1, 0, 0, 1, 0, 0)" xlink:href="#u"/><linearGradient id="x" x1="85.58" y1="276.15" x2="85.58" y2="276.15" gradientTransform="matrix(1, 0, 0, 1, 0, 0)" xlink:href="#u"/><linearGradient id="y" x1="58.28" y1="276.15" x2="112.88" y2="276.15" gradientTransform="matrix(1, 0, 0, 1, 0, 0)" xlink:href="#u"/><linearGradient id="z" x1="65.91" y1="275.79" x2="104.48" y2="275.79" gradientTransform="matrix(1, 0, 0, 1, 0, 0)" xlink:href="#u"/><linearGradient id="aa" x1="66.22" y1="276.2" x2="104.8" y2="276.2" gradientTransform="matrix(1, 0, 0, 1, 0, 0)" xlink:href="#u"/><linearGradient id="ab" x1="411.28" y1="414.56" x2="506.53" y2="414.56" gradientTransform="translate(794.98 -104.58) rotate(80.82)" xlink:href="#u"/><linearGradient id="ac" x1="431.61" y1="414.56" x2="486.2" y2="414.56" gradientTransform="translate(780.12 -113.9) rotate(79.2)" xlink:href="#u"/><linearGradient id="ad" x1="444.7" y1="414.56" x2="473.11" y2="414.56" gradientTransform="matrix(1, 0, 0, 1, 0, 0)" xlink:href="#u"/><linearGradient id="ae" x1="441.47" y1="276.15" x2="441.53" y2="276.15" gradientTransform="matrix(1, 0, 0, 1, 0, 0)" xlink:href="#u"/><linearGradient id="af" x1="414.2" y1="276.15" x2="468.8" y2="276.15" gradientTransform="matrix(1, 0, 0, 1, 0, 0)" xlink:href="#u"/><linearGradient id="ag" x1="421.86" y1="275.79" x2="460.38" y2="275.79" gradientTransform="matrix(1, 0, 0, 1, 0, 0)" xlink:href="#u"/><linearGradient id="ah" x1="422.12" y1="276.2" x2="460.74" y2="276.2" gradientTransform="matrix(1, 0, 0, 1, 0, 0)" xlink:href="#u"/><linearGradient id="ai" x1="40.41" y1="346.04" x2="560.71" y2="346.04" gradientUnits="userSpaceOnUse"><stop offset="0" stop-color="#595fd9"/><stop offset="1" stop-color="#1f224d"/></linearGradient><linearGradient id="aj" x1="39.91" y1="346.04" x2="561.21" y2="346.04" gradientUnits="userSpaceOnUse"><stop offset="0" stop-color="#595fd9"/><stop offset="0.56" stop-color="#3e3d4d"/><stop offset="1"/></linearGradient><linearGradient id="ak" x1="384.56" y1="392.75" x2="549.09" y2="392.75" xlink:href="#ai"/><linearGradient id="al" x1="39.16" y1="393.63" x2="193.16" y2="393.63" xlink:href="#ai"/></defs><title>car1</title><g style="isolation:isolate"><path d="M496.6,247.88H228s-19.78.32-34.27-11.08c0,0-10.64-2.09-6,4.53,4.17,6,19.65,12.6,33.25,13.61s235.31,0,235.31,0,5.94,17,20.95,26a2.79,2.79,0,0,0,4.24-2.36V256.45h14.86Z" transform="translate(-17.4 -138.41)" fill="url(#a)"/><g opacity="0.32" style="mix-blend-mode:multiply"><path d="M480.53,278.06c-15-9-20.95-26-20.95-26s-221.7,1-235.31,0-29.07-7.58-33.25-13.6a6.93,6.93,0,0,1-1-1.95c-2.53.09-4.94,1-2.29,4.83,4.17,6,19.65,12.6,33.25,13.61s235.31,0,235.31,0,5.94,17,20.95,26a2.79,2.79,0,0,0,4.24-2.36v-.18A2.72,2.72,0,0,1,480.53,278.06Z" transform="translate(-17.4 -138.41)" fill="url(#b)"/></g><rect x="292.22" y="69.8" width="113.95" height="38.4" rx="2.86" fill="url(#c)"/><path d="M313.45,246.61h12.28l-16.1-16.1v12.28A3.82,3.82,0,0,0,313.45,246.61Z" transform="translate(-17.4 -138.41)" fill="#821b1c"/><path d="M309.63,212v9.81l13.62-13.63h-9.8A3.82,3.82,0,0,0,309.63,212Z" transform="translate(-17.4 -138.41)" fill="#821b1c"/><path d="M423.58,242.79V232.57l-14,14h10.22A3.82,3.82,0,0,0,423.58,242.79Z" transform="translate(-17.4 -138.41)" fill="#821b1c"/><path d="M419.76,208.21H412l11.56,11.56V212A3.82,3.82,0,0,0,419.76,208.21Z" transform="translate(-17.4 -138.41)" fill="#821b1c"/><path d="M423.58,223.49c-4.77.16-9.53.24-14.3.36l-14.29.21c-9.53.12-19.06.11-28.59.17s-19.06,0-28.59-.17l-14.3-.21c-4.77-.12-9.53-.19-14.3-.36,4.77-.17,9.53-.25,14.3-.37l14.3-.21c9.53-.12,19.06-.11,28.59-.17s19.06,0,28.59.18l14.29.2C414.05,223.25,418.81,223.32,423.58,223.49Z" transform="translate(-17.4 -138.41)" fill="#a62223"/><rect x="314.11" y="69.39" width="8.67" height="38.81" fill="#4a1616"/><rect x="377.28" y="69.39" width="8.67" height="38.81" fill="#4a1616"/><polyline points="363.55 84.87 363.55 93.54 335.99 93.54 335.99 84.87" fill="none" stroke="#4a1616" stroke-linecap="round" stroke-linejoin="round" stroke-width="2.98"/><path d="M391.75,208.21a38.4,38.4,0,0,1-37.53,30.35H309.63v4.33a3.72,3.72,0,0,0,3.71,3.72H420.1a3.48,3.48,0,0,0,3.48-3.49V211.75a3.53,3.53,0,0,0-3.54-3.54Z" transform="translate(-17.4 -138.41)" fill="#bd2728" opacity="0.28" style="mix-blend-mode:multiply"/><rect x="297.41" width="93.68" height="31.57" rx="2.35" fill="url(#d)"/><path d="M318,170h10.1l-13.24-13.24v10.1A3.15,3.15,0,0,0,318,170Z" transform="translate(-17.4 -138.41)" fill="#a38312"/><path d="M314.81,141.55v8.06L326,138.41H318A3.14,3.14,0,0,0,314.81,141.55Z" transform="translate(-17.4 -138.41)" fill="#a38312"/><path d="M408.5,166.84v-8.41L397,170h8.4A3.15,3.15,0,0,0,408.5,166.84Z" transform="translate(-17.4 -138.41)" fill="#a38312"/><path d="M405.36,138.41H399l9.51,9.5v-6.36A3.14,3.14,0,0,0,405.36,138.41Z" transform="translate(-17.4 -138.41)" fill="#a38312"/><path d="M408.5,151c-3.92.14-7.84.19-11.75.3l-11.76.17c-7.83.1-15.67.09-23.5.14s-15.67,0-23.51-.14l-11.75-.17c-3.92-.1-7.84-.16-11.76-.3,3.92-.14,7.84-.2,11.76-.3L338,150.5c7.84-.1,15.67-.1,23.51-.15s15.67.05,23.5.15l11.76.17C400.66,150.77,404.58,150.83,408.5,151Z" transform="translate(-17.4 -138.41)" fill="#a38312"/><polyline points="356.05 12.39 356.05 19.52 333.39 19.52 333.39 12.39" fill="none" stroke="#6d4e31" stroke-linecap="round" stroke-linejoin="round" stroke-width="2.45"/><path d="M382.33,138.41a31.57,31.57,0,0,1-30.86,25H314.81v3.56a3.06,3.06,0,0,0,3.06,3.06h87.76a2.87,2.87,0,0,0,2.87-2.87v-25.8a2.9,2.9,0,0,0-2.91-2.9Z" transform="translate(-17.4 -138.41)" fill="#d6ac18" opacity="0.28" style="mix-blend-mode:multiply"/><rect x="304.06" y="31.34" width="113.95" height="38.4" rx="2.86" fill="url(#e)"/><line x1="418.01" y1="46.61" x2="303.65" y2="46.61" fill="url(#f)"/><path d="M435.41,185c-4.76.17-9.53.24-14.29.37l-14.3.2c-9.53.13-19.06.11-28.59.18s-19.06-.06-28.59-.17l-14.3-.21c-4.76-.13-9.53-.2-14.29-.37,4.76-.17,9.53-.24,14.29-.36l14.3-.21c9.53-.12,19.06-.11,28.59-.17s19.06.05,28.59.17l14.3.21C425.88,184.78,430.65,184.85,435.41,185Z" transform="translate(-17.4 -138.41)" fill="#70513a"/><rect x="325.94" y="30.93" width="8.67" height="38.81" fill="url(#g)"/><rect x="389.11" y="30.93" width="8.67" height="38.81" fill="url(#h)"/><polyline points="375.38 46.41 375.38 55.08 347.82 55.08 347.82 46.41" stroke="#4a1616" stroke-linecap="round" stroke-linejoin="round" stroke-width="2.98" fill="url(#i)"/><path d="M403.59,169.75a38.41,38.41,0,0,1-37.54,30.34H321.46v4.34a3.72,3.72,0,0,0,3.72,3.71H431.93a3.48,3.48,0,0,0,3.48-3.48V173.28a3.53,3.53,0,0,0-3.53-3.53Z" transform="translate(-17.4 -138.41)" opacity="0.28" fill="url(#j)" style="mix-blend-mode:multiply"/><rect x="231.86" y="187.75" width="95.44" height="32.16" rx="2.39" transform="translate(-74.32 145.94) rotate(-49.55)" fill="url(#k)"/><path d="M262.93,248.14l6.68-7.83-19,1.52,7.83,6.67A3.19,3.19,0,0,0,262.93,248.14Z" transform="translate(-17.4 -138.41)" fill="url(#l)"/><path d="M238.82,231.79l6.25,5.33L243.79,221l-5.33,6.25A3.19,3.19,0,0,0,238.82,231.79Z" transform="translate(-17.4 -138.41)" fill="url(#m)"/><path d="M320.34,175.87l-6.51-5.55,1.32,16.57,5.55-6.51A3.19,3.19,0,0,0,320.34,175.87Z" transform="translate(-17.4 -138.41)" fill="url(#n)"/><path d="M296.23,159.52,292,164.45l13.65-1.09-4.93-4.2A3.19,3.19,0,0,0,296.23,159.52Z" transform="translate(-17.4 -138.41)" fill="url(#o)"/><line x1="290.64" y1="26.98" x2="228.49" y2="99.87" fill="url(#p)"/><path d="M308,165.38c-2.48,3.13-5,6.21-7.54,9.31l-7.63,9.23c-5.1,6.14-10.29,12.21-15.43,18.32s-10.39,12.12-15.64,18.13l-7.9,9c-2.67,3-5.31,6-8,8.92,2.48-3.13,5-6.21,7.53-9.31l7.64-9.23c5.1-6.14,10.28-12.21,15.42-18.31s10.39-12.13,15.65-18.13l7.9-9C302.71,171.33,305.34,168.33,308,165.38Z" transform="translate(-17.4 -138.41)" fill="#4d3722"/><rect x="259.1" y="207.07" width="7.26" height="32.51" transform="translate(-95.07 139.97) rotate(-49.55)" fill="url(#q)"/><rect x="293.43" y="166.81" width="7.26" height="32.51" transform="translate(-52.37 151.95) rotate(-49.55)" fill="url(#r)"/><polyline points="267.34 54.03 272.87 58.74 257.89 76.31 252.37 71.6" stroke="#4a1616" stroke-linecap="round" stroke-linejoin="round" stroke-width="2.5" fill="url(#s)"/><path d="M281,177.37A32.14,32.14,0,0,1,280,217.78L255.73,246.2l2.76,2.36a3.12,3.12,0,0,0,4.39-.35l58-68a2.93,2.93,0,0,0-.32-4.12l-20-17.05a3,3,0,0,0-4.18.34Z" transform="translate(-17.4 -138.41)" opacity="0.28" fill="url(#t)" style="mix-blend-mode:multiply"/><path d="M398,435.39l144.89-5.91S481.56,343,435,358.51,398,435.39,398,435.39Z" transform="translate(-17.4 -138.41)" fill="#141414"/><path d="M40.26,436.13l152.88,2.5s-55.54-90.33-103-77.91S40.26,436.13,40.26,436.13Z" transform="translate(-17.4 -138.41)" fill="#141414"/><circle cx="102.98" cy="414.56" r="47.63" transform="translate(-340.03 312.49) rotate(-80.93)" fill="url(#u)"/><path d="M103,366.93a47.5,47.5,0,0,0-18.62,3.78,46,46,0,0,1,10.84-1.32,45.17,45.17,0,1,1-10.84,89A47.63,47.63,0,1,0,103,366.93Z" transform="translate(-17.4 -138.41)" fill="#343739" opacity="0.51" style="mix-blend-mode:multiply"/><circle cx="102.98" cy="414.56" r="27.3" transform="translate(-341.06 255.13) rotate(-73.23)" stroke="#90999e" stroke-miterlimit="10" stroke-width="3.15" fill="url(#v)"/><path d="M117.19,414.56A14.21,14.21,0,1,1,103,400.35,14.21,14.21,0,0,1,117.19,414.56Z" transform="translate(-17.4 -138.41)" fill="url(#w)"/><line x1="85.58" y1="248.85" x2="85.58" y2="303.45" stroke="#90999e" stroke-miterlimit="10" stroke-width="3.15" fill="url(#x)"/><line x1="58.28" y1="276.15" x2="112.88" y2="276.15" stroke="#90999e" stroke-miterlimit="10" stroke-width="3.15" fill="url(#y)"/><line x1="65.91" y1="295.07" x2="104.48" y2="256.5" stroke="#90999e" stroke-miterlimit="10" stroke-width="3.15" fill="url(#z)"/><line x1="66.22" y1="256.91" x2="104.8" y2="295.49" stroke="#90999e" stroke-miterlimit="10" stroke-width="3.15" fill="url(#aa)"/><path d="M124.45,393.8A29.87,29.87,0,0,1,78.72,432a29.88,29.88,0,1,0,45.73-38.22Z" transform="translate(-17.4 -138.41)" fill="#90999e" style="mix-blend-mode:multiply"/><g opacity="0.49"><path d="M82.91,376.91a59.69,59.69,0,0,0-9.79,8.53,52.74,52.74,0,0,0-7.52,10.4A48.4,48.4,0,0,0,61,407.78a62,62,0,0,0-1.54,12.89,40.61,40.61,0,0,1,.06-13.2A44.13,44.13,0,0,1,61.17,401a46.9,46.9,0,0,1,2.73-6.1,44,44,0,0,1,8.15-10.52A39.72,39.72,0,0,1,82.91,376.91Z" transform="translate(-17.4 -138.41)" fill="#fff"/></g><circle cx="458.91" cy="414.56" r="47.63" transform="translate(-40.93 663.07) rotate(-80.82)" fill="url(#ab)"/><path d="M458.91,366.93a47.55,47.55,0,0,0-18.63,3.78,46.1,46.1,0,0,1,10.84-1.32,45.17,45.17,0,1,1-10.84,89,47.63,47.63,0,1,0,18.63-91.47Z" transform="translate(-17.4 -138.41)" fill="#343739" opacity="0.51" style="mix-blend-mode:multiply"/><circle cx="458.91" cy="414.56" r="27.3" transform="translate(-51.71 649.24) rotate(-79.2)" stroke="#90999e" stroke-miterlimit="10" stroke-width="3.15" fill="url(#ac)"/><path d="M473.11,414.54a14.21,14.21,0,1,1-14.22-14.19A14.21,14.21,0,0,1,473.11,414.54Z" transform="translate(-17.4 -138.41)" fill="url(#ad)"/><line x1="441.47" y1="248.85" x2="441.53" y2="303.45" stroke="#90999e" stroke-miterlimit="10" stroke-width="3.15" fill="url(#ae)"/><line x1="414.2" y1="276.18" x2="468.8" y2="276.12" stroke="#90999e" stroke-miterlimit="10" stroke-width="3.15" fill="url(#af)"/><line x1="421.86" y1="295.1" x2="460.38" y2="256.48" stroke="#90999e" stroke-miterlimit="10" stroke-width="3.15" fill="url(#ag)"/><line x1="422.12" y1="256.93" x2="460.74" y2="295.46" stroke="#90999e" stroke-miterlimit="10" stroke-width="3.15" fill="url(#ah)"/><path d="M480.37,393.8A29.87,29.87,0,0,1,434.64,432a29.88,29.88,0,1,0,45.73-38.22Z" transform="translate(-17.4 -138.41)" fill="#90999e" style="mix-blend-mode:multiply"/><g opacity="0.49"><path d="M438.83,376.91a60.53,60.53,0,0,0-9.79,8.53,53.15,53.15,0,0,0-7.52,10.4,48.8,48.8,0,0,0-4.63,11.94,62.67,62.67,0,0,0-1.54,12.89,40.61,40.61,0,0,1,.06-13.2A42.94,42.94,0,0,1,417.1,401a45.54,45.54,0,0,1,2.72-6.1A44.22,44.22,0,0,1,428,384.39,39.72,39.72,0,0,1,438.83,376.91Z" transform="translate(-17.4 -138.41)" fill="#fff"/></g><path d="M43.06,392.05S25,395.38,24.49,399,42,402.31,42,402.31Z" transform="translate(-17.4 -138.41)" fill="#2e2c2b"/><polygon points="506.9 212.35 521.87 211.24 526.31 216.23 510.51 218.72 506.9 212.35" fill="#86aeba"/><path d="M539.27,349.64l-2,.15a3.65,3.65,0,0,1-2.95,4.59L527,355.54l.9,1.59,15.8-2.5Z" transform="translate(-17.4 -138.41)" fill="#86aeba" opacity="0.33" style="mix-blend-mode:multiply"/><path d="M555.35,421.53H572a26.77,26.77,0,0,1-3.88,7.58H557.94Z" transform="translate(-17.4 -138.41)" fill="#807a77"/><path d="M569.91,421.53a10.86,10.86,0,0,1-9.53,5.64h-3.1l.66,1.94H568.1a26.77,26.77,0,0,0,3.88-7.58Z" transform="translate(-17.4 -138.41)" fill="#807a77" opacity="0.32" style="mix-blend-mode:multiply"/><path d="M199.24,318.6s-3-3-11.45-1.85-93.51.37-127.88,42.5c0,0-9.24,3-15.16,21.81s-4.06,37.33-4.06,37.33S50.3,407.3,52.51,402.5s21.07-37.7,51.38-34.38,47.31,27,51,47.68,10.72,21.44,10.72,21.44H387.37s10.72,2.22,14-3.33.74-37.7,28.46-53.22,58.77-7.39,72.44,13.68,17.38,36.22,58.4,36.22c0,0,0-20-18.48-46.2,0,0-3-14.42-11.09-27s-46.94-49.9-94.61-79.1-141.19-31-207.72-8.87Z" transform="translate(-17.4 -138.41)" stroke-miterlimit="10" fill="url(#ai)" stroke="url(#aj)"/><path d="M47.73,373.32c48.35-39.1,134.51-38.09,134.51-38.09,8.53-7.25,8.57-14.12,7.08-18.64" transform="translate(-17.4 -138.41)" fill="none" stroke="#131c30" stroke-miterlimit="10" stroke-width="1.34"/><path d="M330.45,426.52l.13-77.8.14-38.9.23-38.9.63.61-42,1.09-10.5.27-5.25.13c-1.76,0-3.48.07-5.22.18A112.14,112.14,0,0,0,248,276.4a72.44,72.44,0,0,0-9.88,3.29,44.6,44.6,0,0,0-9.07,5,28.55,28.55,0,0,0-7.23,7.27c-2,2.85-4,5.75-5.85,8.7-3.79,5.88-7.38,11.88-10.89,17.94s-6.91,12.17-10.19,18.35l.05-.21-.18,44.54-.28,44.53-.28-44.53L194,336.71v-.11l.05-.11q4.86-9.33,10.08-18.46T215,300c1.88-3,3.85-5.88,5.86-8.75.48-.73,1.06-1.43,1.6-2.14s1.19-1.34,1.8-2a33.41,33.41,0,0,1,4.09-3.44,46.62,46.62,0,0,1,9.3-5.13,76.37,76.37,0,0,1,10-3.37,114,114,0,0,1,20.85-3.28c7.06-.32,14-.4,21-.59l42-1h.62v.62l-.33,38.9-.41,38.9Z" transform="translate(-17.4 -138.41)" fill="#131c30"/><path d="M439.75,280.32c.39,1.84,1.5,4.26,4.17,7.23,6.65,7.39,34.74,34,41.39,33.64,1.82-.11,3.66-1.67,5.38-3.88A470.29,470.29,0,0,0,439.75,280.32Z" transform="translate(-17.4 -138.41)" fill="#061115"/><path d="M439.75,280.32a17.1,17.1,0,0,0,4.54,7.15c2,2.07,4,4.06,6.15,6,4.19,3.93,8.41,7.83,12.72,11.62s8.67,7.53,13.25,11a34.15,34.15,0,0,0,7.24,4.45,8.57,8.57,0,0,0,1,.31,4,4,0,0,0,1,0,4.94,4.94,0,0,0,1.92-.72,14.57,14.57,0,0,0,3.16-2.87,13.06,13.06,0,0,1-3,3.16,5.28,5.28,0,0,1-2,.93,4.5,4.5,0,0,1-1.16,0,10.34,10.34,0,0,1-1.1-.26,34.94,34.94,0,0,1-7.62-4.23,151.82,151.82,0,0,1-13.53-10.81c-4.31-3.83-8.52-7.77-12.56-11.89-2-2.07-4-4.14-5.92-6.32a23.76,23.76,0,0,1-2.53-3.54A12.21,12.21,0,0,1,439.75,280.32Z" transform="translate(-17.4 -138.41)" fill="#242424"/><path d="M325.65,276.09" transform="translate(-17.4 -138.41)" fill="none" stroke="#fff" stroke-miterlimit="10" stroke-width="0.67"/><path d="M326.39,320.82V285.33s.74-8.87-10-9.24-54.33,1.11-72.81,6.66-20,13.67-26.61,24.76-9.61,17.37-3.7,20.33,102,1.85,102,1.85S327.13,331.53,326.39,320.82Z" transform="translate(-17.4 -138.41)" fill="#061115"/><path d="M286.49,277,234,329.44l4.69.12,52.88-52.88C289.91,276.76,288.21,276.86,286.49,277Z" transform="translate(-17.4 -138.41)" fill="#061115" opacity="0.45" style="mix-blend-mode:multiply"/><path d="M316.41,276.09c-1.32,0-3.14-.06-5.35,0l-53.77,53.77c4,0,8.1.05,12.14.06l52.5-52.5A12.89,12.89,0,0,0,316.41,276.09Z" transform="translate(-17.4 -138.41)" fill="#061115" opacity="0.45" style="mix-blend-mode:multiply"/><path d="M326.39,292.88l-37,37,6.31,0,30.68-30.68Z" transform="translate(-17.4 -138.41)" fill="#061115" opacity="0.45" style="mix-blend-mode:multiply"/><path d="M326.39,315.05l-14.67,14.67,3.36,0,11.31-11.31Z" transform="translate(-17.4 -138.41)" fill="#061115" opacity="0.45" style="mix-blend-mode:multiply"/><path d="M326.39,320.82V285.33s.74-8.87-10-9.24-54.33,1.11-72.81,6.66-20,13.67-26.61,24.76-9.61,17.37-3.7,20.33,102,1.85,102,1.85S327.13,331.53,326.39,320.82Z" transform="translate(-17.4 -138.41)" fill="none" stroke="#242424" stroke-miterlimit="10" stroke-width="1.34"/><path d="M363.35,276.46s35.48,3.7,54.33,14.79,22.91,20.33,21.06,28.46a15.29,15.29,0,0,1-8.5,10.72s-6.28,0-35.11-.37-49.53,0-49.53,0-9.6,0-9.6-10.35.36-38.44.36-38.44,0-5.54,8.88-5.91A105.07,105.07,0,0,1,363.35,276.46Z" transform="translate(-17.4 -138.41)" fill="#061115"/><path d="M395.4,282.54,347.92,330l4.48,0,46.44-46.44C397.7,283.19,396.55,282.86,395.4,282.54Z" transform="translate(-17.4 -138.41)" fill="#061115" opacity="0.45" style="mix-blend-mode:multiply"/><path d="M418.06,291.48l-38.44,38.44c3.4,0,7,0,10.73.08l34.28-34.28C422.67,294.34,420.5,292.92,418.06,291.48Z" transform="translate(-17.4 -138.41)" fill="#061115" opacity="0.45" style="mix-blend-mode:multiply"/><path d="M434.29,304.36l-25.87,25.86,2.47,0,24.48-24.48C435,305.3,434.68,304.83,434.29,304.36Z" transform="translate(-17.4 -138.41)" fill="#061115" opacity="0.45" style="mix-blend-mode:multiply"/><path d="M363.35,276.46s35.48,3.7,54.33,14.79,22.91,20.33,21.06,28.46a15.29,15.29,0,0,1-8.5,10.72s-6.28,0-35.11-.37-49.53,0-49.53,0-9.6,0-9.6-10.35.36-38.44.36-38.44,0-5.54,8.88-5.91A105.07,105.07,0,0,1,363.35,276.46Z" transform="translate(-17.4 -138.41)" fill="none" stroke="#242424" stroke-miterlimit="10" stroke-width="1.34"/><path d="M453.53,344.1c-1.73-.45-3.48-.85-5.23-1.17s-3.51-.69-5.28-.95l-5.29-.83-5.32-.69c-3.54-.49-7.1-.81-10.65-1.17l-5.34-.53-5.34-.4c-3.56-.25-7.12-.57-10.69-.79l-10.7-.57-5.35-.28-5.36-.18-10.71-.33c-28.58-.71-57.17-.47-85.75.37-7.14.15-14.28.51-21.43.75s-14.28.48-21.42.87l-21.41,1.15c-7.14.4-14.28.7-21.41,1.21l-21.4,1.4c-7.13.5-14.27.87-21.4,1.48l-42.77,3.25,42.72-3.9c3.56-.33,7.13-.63,10.69-.88l10.7-.79,21.39-1.58c7.13-.58,14.27-.93,21.41-1.34L239.61,337c7.14-.41,14.29-.62,21.43-.93l10.72-.44c3.58-.14,7.15-.32,10.72-.38,14.3-.28,28.6-.7,42.91-.64l10.73,0c3.57,0,7.15.09,10.73.13l10.72.17,5.37.1,5.36.22,10.72.42,5.36.22,5.35.33,10.71.67c3.57.24,7.13.59,10.7.89l5.34.47,5.33.62c3.55.41,7.11.78,10.64,1.33l5.31.77,5.29.91c1.77.28,3.51.66,5.26,1S451.8,343.63,453.53,344.1Z" transform="translate(-17.4 -138.41)" fill="#131c30"/><path d="M331.5,270.26a178.51,178.51,0,0,1,24.15.19,192.37,192.37,0,0,1,23.9,3.19A150.31,150.31,0,0,1,424.74,290a232.6,232.6,0,0,1,20.35,12.89q9.77,7,18.89,14.93c6.08,5.24,11.89,10.79,17.47,16.56a193,193,0,0,1,15.69,18.23,191.69,191.69,0,0,0-15.81-18.12c-5.62-5.72-11.46-11.22-17.57-16.42s-12.43-10.13-19-14.77a229.5,229.5,0,0,0-20.38-12.71,149,149,0,0,0-45.06-16,194.32,194.32,0,0,0-23.79-3,178.9,178.9,0,0,0-23.95,0Z" transform="translate(-17.4 -138.41)" fill="#131c30"/><path d="M441.11,306.59a18.32,18.32,0,0,1,6.46,7.24,15.87,15.87,0,0,1,1.41,4.78,15.26,15.26,0,0,1-.28,5l-.29,1.22L448,326a15.08,15.08,0,0,1-1,2.28,12.88,12.88,0,0,1-3.2,3.84,12.21,12.21,0,0,1-9.29,2.54,13.35,13.35,0,0,0,8.61-3.33,15.15,15.15,0,0,0,4.33-8,14.9,14.9,0,0,0-.78-9.08A22.23,22.23,0,0,0,441.11,306.59Z" transform="translate(-17.4 -138.41)" fill="#131c30"/><path d="M501.57,326.36a23.2,23.2,0,0,1-1.33,7.54,30.91,30.91,0,0,1-1.49,3.57c-.29.57-.59,1.15-.92,1.7l-.5.84-.4.78a8.46,8.46,0,0,0-.63,1.63,9.08,9.08,0,0,0-.2,1.73,9.55,9.55,0,0,0,.59,3.52,16.61,16.61,0,0,0,1.58,3.33,21.89,21.89,0,0,0,2.2,3.08,15.61,15.61,0,0,1-4.75-6,9.54,9.54,0,0,1-.88-3.89,9.25,9.25,0,0,1,.19-2,9.42,9.42,0,0,1,.71-1.92l.48-.9.49-.79c.33-.52.61-1.08.92-1.62.6-1.09,1.14-2.21,1.64-3.36A38.19,38.19,0,0,0,501.57,326.36Z" transform="translate(-17.4 -138.41)" fill="#131c30"/><path d="M509.86,342.76a.46.46,0,0,0,.58-.3l1.91-5.85-.74-.71-2,6.27A.47.47,0,0,0,509.86,342.76Z" transform="translate(-17.4 -138.41)" fill="#061115"/><path d="M511.71,343.87a.47.47,0,0,0,.58-.3l1.74-5.33-.74-.72-1.88,5.76A.47.47,0,0,0,511.71,343.87Z" transform="translate(-17.4 -138.41)" fill="#061115"/><path d="M513.37,345.34a.47.47,0,0,0,.59-.29l1.7-5.22-.74-.73-1.84,5.66A.45.45,0,0,0,513.37,345.34Z" transform="translate(-17.4 -138.41)" fill="#061115"/><path d="M515,346.64a.46.46,0,0,0,.58-.3l1.61-4.94-.73-.73-1.76,5.39A.46.46,0,0,0,515,346.64Z" transform="translate(-17.4 -138.41)" fill="#061115"/><path d="M518,342.2l-1.8,5.52a.46.46,0,1,0,.88.28l1.65-5.05Z" transform="translate(-17.4 -138.41)" fill="#061115"/><path d="M520.26,344.51l-.73-.76-1.83,5.63a.46.46,0,0,0,.29.58.47.47,0,0,0,.59-.29Z" transform="translate(-17.4 -138.41)" fill="#061115"/><path d="M519.66,351.26a.46.46,0,0,0,.58-.3l1.57-4.82-.72-.76-1.73,5.3A.46.46,0,0,0,519.66,351.26Z" transform="translate(-17.4 -138.41)" fill="#061115"/><path d="M211.42,327.56H211a7.62,7.62,0,0,1-7.62-7.62h0a7.63,7.63,0,0,1,7.62-7.63h.38Z" transform="translate(-17.4 -138.41)" fill="#575351"/><path d="M205.36,318.76a7.62,7.62,0,0,1,2.75-5.86A7.62,7.62,0,0,0,211,327.56h.38v-1.34A7.62,7.62,0,0,1,205.36,318.76Z" transform="translate(-17.4 -138.41)" fill="#575351" opacity="0.35" style="mix-blend-mode:multiply"/><path d="M205.94,323.23h-4.89a1.39,1.39,0,0,1-1.4-1.4h0a1.4,1.4,0,0,1,1.4-1.4h4.89a1.4,1.4,0,0,1,1.4,1.4h0A1.39,1.39,0,0,1,205.94,323.23Z" transform="translate(-17.4 -138.41)" fill="#575351"/><path d="M205.94,322h-4.89a1.39,1.39,0,0,1-1.24-.77,1.3,1.3,0,0,0-.16.62,1.39,1.39,0,0,0,1.4,1.4h4.89a1.39,1.39,0,0,0,1.4-1.4,1.3,1.3,0,0,0-.16-.62A1.39,1.39,0,0,1,205.94,322Z" transform="translate(-17.4 -138.41)" fill="#575351" opacity="0.35" style="mix-blend-mode:multiply"/><path d="M513.77,362.12h16.36a27.19,27.19,0,0,1,3.32,29.38H516.27Z" transform="translate(-17.4 -138.41)" fill="#d6ac18"/><path d="M530.13,362.12h-3a27,27,0,0,1,1,26.06H516l.29,3.32h17.18A27.19,27.19,0,0,0,530.13,362.12Z" transform="translate(-17.4 -138.41)" fill="#d6ac18" opacity="0.39" style="mix-blend-mode:multiply"/><path d="M579.19,399" transform="translate(-17.4 -138.41)" fill="none" stroke="#fff" stroke-miterlimit="10" stroke-width="2"/><path d="M54.18,365.54s-5.33,0-8.73,1.27A3.89,3.89,0,0,0,43,369.57a53.52,53.52,0,0,0-1.34,15.28,1.49,1.49,0,0,0,1.5,1.38h3.23Z" transform="translate(-17.4 -138.41)" fill="#575351"/><path d="M43.17,385.77a53.56,53.56,0,0,1,1.34-15.28,3.91,3.91,0,0,1,2.42-2.76,26.15,26.15,0,0,1,6.88-1.2l.37-1s-5.33,0-8.73,1.27A3.89,3.89,0,0,0,43,369.57a53.52,53.52,0,0,0-1.34,15.28,1.49,1.49,0,0,0,1.5,1.38h.1A1.36,1.36,0,0,1,43.17,385.77Z" transform="translate(-17.4 -138.41)" fill="#575351" opacity="0.28" style="mix-blend-mode:multiply"/><path d="M312.62,350.94h-1.85a5.83,5.83,0,0,1-5.82-5.82h0a5.82,5.82,0,0,1,5.82-5.82h1.85a5.82,5.82,0,0,1,5.82,5.82h0A5.83,5.83,0,0,1,312.62,350.94Z" transform="translate(-17.4 -138.41)" fill="#558a9a" opacity="0.39" style="mix-blend-mode:multiply"/><path d="M315.86,340.28a5.81,5.81,0,0,1,.55,2.43h0a5.83,5.83,0,0,1-5.82,5.83h-1.85a5.79,5.79,0,0,1-3.24-1,5.8,5.8,0,0,0,5.27,3.39h1.85a5.82,5.82,0,0,0,3.24-10.66Z" transform="translate(-17.4 -138.41)" fill="#558a9a" opacity="0.25" style="mix-blend-mode:multiply"/><path d="M299.77,345.9s-.83-1.24,2.64-2.22,24.25-2.77,25.64-.83.28,4.58-1.66,4.3-12.89-1.52-19.55-1.25S300.88,347.29,299.77,345.9Z" transform="translate(-17.4 -138.41)" fill="#575351"/><path d="M328.13,343c.64,1.79-.42,3.72-2.09,3.48-1.94-.28-12.89-1.53-19.54-1.25-6.05.25-6,1.18-6.81.31a.73.73,0,0,0,.08.38c1.11,1.39.42.28,7.07,0s17.61,1,19.55,1.25S329.38,344.91,328.13,343Z" transform="translate(-17.4 -138.41)" fill="#575351" opacity="0.17" style="mix-blend-mode:multiply"/><path d="M517.47,365.91c-11.09-14.42-39.55-17.37-39.55-17.37s-51.74-7.4-74.29,25.13a109.26,109.26,0,0,0-19,63.57h2.78s10.72,2.22,14-3.33.74-37.7,28.46-53.22,58.77-7.39,72.44,13.68c12.26,18.87,16.52,33,46.78,35.73C546.81,415.07,527.55,379,517.47,365.91Z" transform="translate(-17.4 -138.41)" fill="url(#ak)"/><g opacity="0.43" style="mix-blend-mode:multiply"><path d="M471.82,358s28.46,3,39.55,17.37c8.14,10.58,22.24,36.08,28.59,53.44a82.79,82.79,0,0,0,9.13,1.33c-2.28-15-21.54-51.08-31.62-64.19-11.09-14.42-39.55-17.37-39.55-17.37s-51.74-7.4-74.29,25.13c-1.78,2.57-3.39,5.15-4.86,7.73C421.91,350.83,471.82,358,471.82,358Z" transform="translate(-17.4 -138.41)" fill="#394665"/></g><path d="M540.94,406v12.1s32.67,2.5,39-3.05v-15Z" transform="translate(-17.4 -138.41)" fill="#575351"/><path d="M540.94,413.54v4.57s32.67,2.5,39-3.05v-4.57C573.61,416,540.94,413.54,540.94,413.54Z" transform="translate(-17.4 -138.41)" fill="#575351" opacity="0.26" style="mix-blend-mode:multiply"/><path d="M547,392.15s24.76.92,32.15,6.84-38.25,7-38.25,7l3.32-2.59s24.58-1.48,26.43-4.62-22.18-4.8-22.18-4.8Z" transform="translate(-17.4 -138.41)" fill="#2e2c2b"/><path d="M129.76,352.6a124.26,124.26,0,0,0-68.64,5.22c-.41.48-.82.95-1.21,1.43,0,0-7.22,3.72-15.16,21.81-8.92,20.33-4.49,55.07-4.49,55.07s14.79-31.42,17-36.22,16.31-35.11,46.62-31.79,47.31,27,51,47.68,10.72,21.44,10.72,21.44h27.55C191.63,428,179.18,362.55,129.76,352.6Z" transform="translate(-17.4 -138.41)" fill="url(#al)"/><g opacity="0.31" style="mix-blend-mode:multiply"><path d="M116.45,358.15c43.53,8.76,58.37,60.51,62.34,79.09h14.37c-1.53-9.29-14-74.69-63.4-84.64a124.26,124.26,0,0,0-68.64,5.22c-.41.48-.82.95-1.21,1.43a8.67,8.67,0,0,0-1.34.65A124.81,124.81,0,0,1,116.45,358.15Z" transform="translate(-17.4 -138.41)" fill="#394665"/></g><path d="M42.23,391.92s-15.59.6-24.83,8.36V414s15.9,5.92,24.77,0V401s-23.66-1.85-12.2-4.81S42.23,391.92,42.23,391.92Z" transform="translate(-17.4 -138.41)" fill="#575351"/><g opacity="0.31" style="mix-blend-mode:multiply"><path d="M17.4,409v5s15.9,5.92,24.77,0v-5C33.3,414.88,17.4,409,17.4,409Z" transform="translate(-17.4 -138.41)" fill="#575351"/></g><line x1="233.4" y1="142.49" x2="228.78" y2="191.65" fill="none" stroke="#242424" stroke-miterlimit="10" stroke-width="2"/><path d="M185.57,439.09s-6.28-7.39,3-12.57,197.36,0,197.36,0,7,8.5-.37,11.09S185.57,439.09,185.57,439.09Z" transform="translate(-17.4 -138.41)" fill="#061115"/><polygon points="176.82 292.18 200.2 291.81 223.57 291.57 270.33 291.33 317.08 291.39 340.46 291.53 363.84 291.81 340.46 292.18 317.08 292.41 270.33 292.66 223.57 292.6 200.2 292.46 176.82 292.18" fill="#040c0f"/><polygon points="176.82 295.87 200.2 295.5 223.57 295.27 270.33 295.02 317.08 295.08 340.46 295.22 363.84 295.5 340.46 295.88 317.08 296.11 270.33 296.36 223.57 296.29 200.2 296.15 176.82 295.87" fill="#040c0f"/><circle cx="308.29" cy="206.04" r="1.46" fill="#75706d"/><path d="M326.93,343.72a1.35,1.35,0,0,1,.08.4,1.45,1.45,0,0,1-1.45,1.46,1.42,1.42,0,0,1-1.24-.74,1.44,1.44,0,0,0,2.83-.39A1.42,1.42,0,0,0,326.93,343.72Z" transform="translate(-17.4 -138.41)" fill="#d4c8c4" opacity="0.43" style="mix-blend-mode:multiply"/><path d="M325.89,344.29l.17-.47h-.78l.13.51a.48.48,0,0,0-.22.39.49.49,0,0,0,.49.49.49.49,0,0,0,.21-.92Z" transform="translate(-17.4 -138.41)" fill="#635f5d"/><g opacity="0.33" style="mix-blend-mode:multiply"><path d="M326.05,344.43s0,.05,0,.09a.48.48,0,0,1-.86.29.47.47,0,0,0,.47.4.48.48,0,0,0,.48-.49A.49.49,0,0,0,326.05,344.43Z" transform="translate(-17.4 -138.41)" fill="#635f5d"/></g><g opacity="0.31"><path d="M178.33,321.55,155,325.74c-7.75,1.44-15.49,2.91-23.18,4.61s-15.35,3.43-22.91,5.58a161.86,161.86,0,0,0-22.26,7.8c6.7-4.26,14.15-7.23,21.65-9.79,3.75-1.32,7.58-2.35,11.4-3.44,1.91-.52,3.84-.95,5.77-1.43s3.85-.92,5.79-1.33c3.88-.84,7.77-1.56,11.67-2.27s7.81-1.29,11.74-1.78C162.54,322.65,170.42,321.84,178.33,321.55Z" transform="translate(-17.4 -138.41)" fill="#fff"/></g><rect x="226.62" y="102.67" width="7.21" height="23.84" fill="#756f6d"/><path d="M249.77,241.07v9.85c0,5.62-2.46,10.31-5.74,11.4v2.59h7.2V241.07Z" transform="translate(-17.4 -138.41)" fill="#756f6d" opacity="0.31" style="mix-blend-mode:multiply"/><rect x="380.19" y="102.67" width="7.21" height="23.84" fill="#756f6d"/><path d="M403.34,241.07v9.85c0,5.62-2.47,10.31-5.75,11.4v2.59h7.21V241.07Z" transform="translate(-17.4 -138.41)" fill="#756f6d" opacity="0.31" style="mix-blend-mode:multiply"/><path d="M408.22,249.3H237.47a1.85,1.85,0,0,1-1.85-1.85h0a1.85,1.85,0,0,1,1.85-1.85H408.22a1.85,1.85,0,0,1,1.85,1.85h0A1.85,1.85,0,0,1,408.22,249.3Z" transform="translate(-17.4 -138.41)" fill="#756f6d"/><path d="M409.14,245.85a1.85,1.85,0,0,1-1.84,1.78H236.54a1.84,1.84,0,0,1-.92-.25v.07a1.85,1.85,0,0,0,1.85,1.85H408.22a1.85,1.85,0,0,0,.92-3.45Z" transform="translate(-17.4 -138.41)" fill="#756f6d" opacity="0.26" style="mix-blend-mode:multiply"/><path d="M408.22,243.2H237.47a1.85,1.85,0,0,1-1.85-1.85h0a1.85,1.85,0,0,1,1.85-1.85H408.22a1.85,1.85,0,0,1,1.85,1.85h0A1.85,1.85,0,0,1,408.22,243.2Z" transform="translate(-17.4 -138.41)" fill="#756f6d"/><path d="M409.31,239.87a1.85,1.85,0,0,1-1.83,1.67H236.73a1.79,1.79,0,0,1-1.09-.37,1.1,1.1,0,0,0,0,.18,1.85,1.85,0,0,0,1.85,1.85H408.22a1.85,1.85,0,0,0,1.85-1.85A1.82,1.82,0,0,0,409.31,239.87Z" transform="translate(-17.4 -138.41)" fill="#756f6d" opacity="0.26" style="mix-blend-mode:multiply"/><path d="M213.4,413.36h-6.94A2.41,2.41,0,0,1,204,411h0a2.42,2.42,0,0,1,2.42-2.42h6.94a2.42,2.42,0,0,1,2.41,2.42h0A2.41,2.41,0,0,1,213.4,413.36Z" transform="translate(-17.4 -138.41)" fill="#e77c00"/><path d="M215,409.15a2.62,2.62,0,0,1,.11.69,2.42,2.42,0,0,1-2.42,2.42h-6.94a2.37,2.37,0,0,1-1.59-.62,2.41,2.41,0,0,0,2.3,1.72h6.94a2.41,2.41,0,0,0,1.6-4.21Z" transform="translate(-17.4 -138.41)" fill="#e77c00" opacity="0.34" style="mix-blend-mode:multiply"/></g></svg>