<svg xmlns="http://www.w3.org/2000/svg" xmlns:xlink="http://www.w3.org/1999/xlink" viewBox="0 0 1080 1080"><defs><clipPath id="a"><circle cx="540" cy="540" r="515" fill="none"/></clipPath><linearGradient id="b" x1="783.43" y1="1859.27" x2="783.43" y2="-81.47" gradientUnits="userSpaceOnUse"><stop offset="0.16" stop-color="#ffa829"/><stop offset="0.29" stop-color="#fda32a"/><stop offset="0.46" stop-color="#f7942d"/><stop offset="0.65" stop-color="#ed7a32"/><stop offset="0.85" stop-color="#df5838"/><stop offset="0.92" stop-color="#d9483b"/></linearGradient><linearGradient id="c" x1="783.43" y1="1859.27" x2="783.43" y2="949.07" gradientUnits="userSpaceOnUse"><stop offset="0.51" stop-color="#e75352"/><stop offset="0.6" stop-color="#e75352"/><stop offset="1" stop-color="#ea6e64"/></linearGradient><linearGradient id="d" x1="635.95" y1="819.41" x2="635.95" y2="105.55" gradientTransform="translate(513.29 -314.22) rotate(45)" gradientUnits="userSpaceOnUse"><stop offset="0.01" stop-color="#f3dc52" stop-opacity="0"/><stop offset="0.25" stop-color="#efd559" stop-opacity="0.33"/><stop offset="0.53" stop-color="#ebce61" stop-opacity="0.69"/><stop offset="0.73" stop-color="#e9ca66" stop-opacity="0.91"/><stop offset="0.83" stop-color="#e8c868"/></linearGradient><linearGradient id="e" x1="-399.24" y1="348.76" x2="953.87" y2="1948.66" gradientUnits="userSpaceOnUse"><stop offset="0.06" stop-color="#615fa3"/><stop offset="0.19" stop-color="#5e5ca1"/><stop offset="0.27" stop-color="#56549d"/><stop offset="0.33" stop-color="#484594"/><stop offset="0.38" stop-color="#3a378c"/><stop offset="0.43" stop-color="#33307a"/><stop offset="0.48" stop-color="#2e2b6d"/><stop offset="0.53" stop-color="#2c2969"/><stop offset="0.58" stop-color="#252358"/><stop offset="0.67" stop-color="#1a193f"/><stop offset="0.72" stop-color="#161535"/></linearGradient><linearGradient id="f" x1="-874.28" y1="314.83" x2="-185.38" y2="1129.38" gradientTransform="matrix(0.59, -0.14, 0.15, 0.66, 299.03, 279.19)" gradientUnits="userSpaceOnUse"><stop offset="0" stop-color="#7a2e3a"/><stop offset="0.02" stop-color="#75384f"/><stop offset="0.06" stop-color="#6e466d"/><stop offset="0.11" stop-color="#685185"/><stop offset="0.15" stop-color="#645996"/><stop offset="0.2" stop-color="#625ea0"/><stop offset="0.26" stop-color="#615fa3"/><stop offset="0.93" stop-color="#2c2969"/></linearGradient><linearGradient id="g" x1="767.85" y1="910.33" x2="770.44" y2="656.97" gradientUnits="userSpaceOnUse"><stop offset="0.01" stop-color="#f3dc52" stop-opacity="0"/><stop offset="0.08" stop-color="#eed857" stop-opacity="0.05"/><stop offset="0.2" stop-color="#dfcc65" stop-opacity="0.18"/><stop offset="0.35" stop-color="#c8ba7c" stop-opacity="0.4"/><stop offset="0.52" stop-color="#a8a09b" stop-opacity="0.7"/><stop offset="0.67" stop-color="#8987ba"/></linearGradient><linearGradient id="h" x1="920.61" y1="405.96" x2="947.75" y2="458.72" gradientTransform="translate(-7.46 11.61) rotate(-1.12)" gradientUnits="userSpaceOnUse"><stop offset="0" stop-color="#7a2e3a"/><stop offset="0.15" stop-color="#612634"/><stop offset="0.33" stop-color="#491e2f"/><stop offset="0.52" stop-color="#38182b"/><stop offset="0.74" stop-color="#2e1529"/><stop offset="1" stop-color="#2b1428"/></linearGradient><linearGradient id="i" x1="645.28" y1="477.12" x2="666.87" y2="519.1" xlink:href="#h"/><linearGradient id="j" x1="721.01" y1="321.29" x2="746.12" y2="370.09" xlink:href="#h"/><linearGradient id="k" x1="220.27" y1="261.44" x2="570.35" y2="675.37" gradientUnits="userSpaceOnUse"><stop offset="0.06" stop-color="#615fa3"/><stop offset="0.43" stop-color="#3a378c"/><stop offset="0.78" stop-color="#2c2969"/></linearGradient></defs><title>logo_final</title><g clip-path="url(#a)"><rect x="-186.93" y="-81.47" width="1940.74" height="1940.74" fill="url(#b)"/><rect x="-186.93" y="949.07" width="1940.74" height="910.2" fill="url(#c)"/><circle cx="635.95" cy="462.48" r="356.93" transform="translate(-140.76 585.14) rotate(-45)" fill="url(#d)"/><path d="M1753.8,1635,962,949.07S791.2,882.32,764,860.38s-108.69-14.45-108.69-14.45-91.76-57.68-90.51-57.81-45.34-4.7-45.34-4.7l-33.6-27.07H-186.93V1859.27H1753.8Z" fill="url(#e)"/><path d="M-13.2,762.74S54.91,912.16,103.38,943.45s316.13,104.69,316.13,104.69S290.05,874.67,223.92,830.52-13.2,762.74-13.2,762.74Z" fill="url(#f)"/><path d="M522.22,786.12c57.37,77.65,144.23,126.55,245.38,126.55S958.66,862.6,1016,785Z" opacity="0.51" fill="url(#g)"/><path d="M1001.79,436.72c-12.18-7.2-33-12.73-55.54,10.87a3.63,3.63,0,0,1-5,.21c-7.84-7-32.35-25.65-58.09-12.59a3.64,3.64,0,0,0,1.31,6.89c15.45,1.26,42.94,6.82,56.4,29.83a3.66,3.66,0,0,0,6.25.18c6.59-10.18,23.38-30.23,52.7-28.61A3.64,3.64,0,0,0,1001.79,436.72Z" fill="url(#h)"/><path d="M711.38,505.65c-9.7-5.73-26.24-10.14-44.19,8.64a2.89,2.89,0,0,1-4,.17c-6.24-5.56-25.73-20.41-46.21-10a2.9,2.9,0,0,0,1,5.49c12.29,1,34.16,5.42,44.87,23.73a2.91,2.91,0,0,0,5,.15c5.24-8.11,18.6-24.06,41.93-22.77A2.89,2.89,0,0,0,711.38,505.65Z" fill="url(#i)"/><path d="M794.5,353.18c-11.27-6.66-30.5-11.78-51.37,10.05a3.36,3.36,0,0,1-4.67.2c-7.25-6.47-29.92-23.73-53.72-11.65a3.37,3.37,0,0,0,1.21,6.38c14.28,1.16,39.71,6.3,52.16,27.58a3.38,3.38,0,0,0,5.78.17c6.09-9.42,21.62-28,48.74-26.46A3.37,3.37,0,0,0,794.5,353.18Z" fill="url(#j)"/><path d="M418.23,600.56c-.58-.46-26.42-3.67-38.44-5.85-4.32-.78-10.42-1-14.08-3.74s-2.5-8.33-2.2-12.22c.73-9.2-1.4-17.43-9.08-23.2S337.55,550.18,329,554c-7.89,3.56-15.54,10.08-24.73,7.56-8.91-2.45-15.6-10.43-21.53-17-12.84-14.31-28.48-28.57-48.35-31.12-14.94-1.91-31.7,4.33-39.77,17.09-5.15-6.62-13.24-11-21.82-10.52a23.61,23.61,0,0,0-3.26.41c5.52-24.06-4.25-51.6-26.59-64.37-15.87-9.08-35.88-10.35-53.06-4.38-17.71,6.14-31.06,19.57-37.85,36.95a71.51,71.51,0,0,0-1.67,46.46,33.74,33.74,0,0,0-27,5.32C15.84,546,10.2,554.28,5.37,562.24.14,570.87-5.16,579.3-11.79,587a77,77,0,0,1-12.68,12c-.42.31-1,.71-1.68,1.12-9,3.63-13.92,9.21-.43,9.21,55.63,0,111.26-.17,166.89-.18H366.85c16.83,0,33.87.79,50.67-.18A4.21,4.21,0,0,0,418.23,600.56Z" fill="#d9483b"/><path d="M1072.22,772.9c-6.89-.45-31.92-3.31-36.73-4.38-4.39-1-8.63-1.71-12.84-3.56-9.13-4-15.42-11.52-22.48-18.9-5.88-6.15-12.52-11.36-20.72-11.66a18.38,18.38,0,0,0-13.38,4.94c-7.38-15.22-18.26-30.16-33.88-32.83C921.56,704.7,909.4,709.18,903,719c-5.39-15.12-16.51-30.1-31.06-28.54-7,.75-12.35,5.24-16.45,11.28,1.3-35.4-11.43-71.81-38.76-90.58a67.91,67.91,0,0,0-98.35,24.14c-6.88,12.73-10.57,27.39-13.1,42-2,11.4-3.43,22.92-4.64,34.48a50.36,50.36,0,0,0-14.25-18.36c-10-7.92-22.16-9.51-33.7-5.64-11.84,4-21.58,12.39-27.3,25-3.47,7.68-5.66,16-9.32,23.62a68.19,68.19,0,0,1-12.48,17.78,65.51,65.51,0,0,1-34.77,18.64c-2,0-4.1.06-6.15.07-1.72,0-1.72,3.06,0,3.08,66.21.49,132.4,1.82,198.61,2.22s132.41.85,198.61,1.14c18.73.09,37.45.28,56.18,0s37.47-2.1,56.18-3.3C1074,775.91,1074,773,1072.22,772.9Z" fill="#d9483b"/><path d="M464.54,194.56a10,10,0,0,0,10-10h0a10,10,0,0,0-5.6-9l-61.77-40.32a21.16,21.16,0,0,0-23.16,0L322.2,175.64a10,10,0,0,0-5.6,9h0a10,10,0,0,0,10,10H331V233a14.35,14.35,0,0,0-14.35,14.35v.48a14.36,14.36,0,0,0,6.08,11.73l16.54,15.95L316.6,756.43H474.5l-22.62-480.9,16.54-15.95a14.33,14.33,0,0,0,6.08-11.73v-.48A14.35,14.35,0,0,0,460.15,233V194.56Z" fill="url(#k)"/><rect x="381.9" y="194.99" width="38.19" height="34.76" rx="1" fill="#d98e04" opacity="0.7"/></g></svg>