<?xml version="1.0" encoding="utf-8"?>
<!-- Generator: Adobe Illustrator 23.0.1, SVG Export Plug-In . SVG Version: 6.00 Build 0)  -->
<svg version="1.1" id="Layer_1" xmlns="http://www.w3.org/2000/svg" xmlns:xlink="http://www.w3.org/1999/xlink" x="0px" y="0px"
	 viewBox="0 0 1080 1080" style="enable-background:new 0 0 1080 1080;" xml:space="preserve">
<style type="text/css">
	.st0{clip-path:url(#SVGID_2_);fill:#FFFFFF;}
	.st1{clip-path:url(#SVGID_2_);fill:#76989C;stroke:#000000;stroke-miterlimit:10;}
	.st2{clip-path:url(#SVGID_2_);fill:#76989C;}
	.st3{clip-path:url(#SVGID_2_);}
	.st4{clip-path:url(#SVGID_4_);}
	.st5{fill:#D7E5F4;}
	.st6{clip-path:url(#SVGID_6_);}
	.st7{clip-path:url(#SVGID_8_);}
	.st8{clip-path:url(#SVGID_10_);}
	.st9{clip-path:url(#SVGID_12_);}
	.st10{clip-path:url(#SVGID_14_);}
	.st11{clip-path:url(#SVGID_2_);fill:#BCD7F7;}
	.st12{clip-path:url(#SVGID_2_);fill:#465A5C;}
	.st13{clip-path:url(#SVGID_2_);fill:#D93D3D;}
	.st14{clip-path:url(#SVGID_2_);fill:#FFFFFF;stroke:#FFFFFF;stroke-width:2;stroke-miterlimit:10;}
	.st15{clip-path:url(#SVGID_2_);fill:url(#SVGID_15_);}
	.st16{clip-path:url(#SVGID_2_);fill:url(#SVGID_16_);}
	.st17{clip-path:url(#SVGID_2_);fill:url(#SVGID_17_);}
	.st18{clip-path:url(#SVGID_2_);fill:#591919;}
	.st19{clip-path:url(#SVGID_2_);fill:url(#SVGID_18_);}
	.st20{clip-path:url(#SVGID_2_);fill:#4C7CD4;}
	.st21{clip-path:url(#SVGID_2_);fill:url(#SVGID_19_);}
	.st22{clip-path:url(#SVGID_2_);fill:#FFA451;}
	.st23{clip-path:url(#SVGID_2_);fill:#2F3273;}
	.st24{clip-path:url(#SVGID_2_);fill:url(#SVGID_20_);}
	.st25{clip-path:url(#SVGID_2_);fill:url(#SVGID_21_);}
	.st26{clip-path:url(#SVGID_2_);fill:url(#SVGID_22_);}
	.st27{clip-path:url(#SVGID_2_);fill:#BA7D4E;}
	.st28{clip-path:url(#SVGID_2_);fill:url(#SVGID_23_);}
	.st29{clip-path:url(#SVGID_2_);fill:url(#SVGID_24_);}
	.st30{clip-path:url(#SVGID_2_);fill:url(#SVGID_25_);}
	.st31{clip-path:url(#SVGID_2_);fill:url(#SVGID_26_);}
	.st32{clip-path:url(#SVGID_2_);fill:url(#SVGID_27_);}
	.st33{clip-path:url(#SVGID_2_);fill:url(#SVGID_28_);}
	.st34{clip-path:url(#SVGID_2_);fill:#995605;}
	.st35{clip-path:url(#SVGID_2_);fill:#BF6C06;}
</style>
<title>onboarding1</title>
<g>
	<g>
		<defs>
			<rect id="SVGID_1_" width="1080" height="1080"/>
		</defs>
		<clipPath id="SVGID_2_">
			<use xlink:href="#SVGID_1_"  style="overflow:visible;"/>
		</clipPath>
		<polygon class="st0" points="932.4,302.9 884,681.3 884,681.3 857.6,887.7 787.2,838 772,849 687.4,910.6 586.6,843.5 
			518.2,909.7 449.8,843.5 393.6,880.9 349,910.6 249.3,838 178.9,887.7 150.9,668.9 104.1,302.9 210.1,363.8 327.3,288.9 
			433.3,354.5 518.2,289.3 549.2,313.1 603.1,354.5 709.1,288.9 824.7,362.8 826.3,363.8 		"/>
		<path class="st1" d="M884,681.3l-26.4,206.4L787.2,838L772,849c4.5-16.7,19-30.6,32.2-41.8c10-8.5,20-16.9,27.6-27.6
			s12.8-22.8,17.7-34.8C858.3,722.7,866.2,698.8,884,681.3"/>
		<path class="st2" d="M195.7,477.8c-3.7-5.5-5.1-12.2-4-18.7c2.1-12.2,11-21.1,20.6-28.9c1.3-1.8,2.4-3.8,3.3-5.8
			c5.1-12.5,4.1-26.6,10.9-38.5c6.3-10.9,17.3-18.1,29.1-23c13.9-5.7,29.3-8.8,44.2-10.6c30.4-3.5,62.1,0.8,88.1,17.1
			c11.1,6.8,20.7,15.9,28.2,26.5c8,11.6,11.6,24.4,14.5,37.8c1.6,7.2,3.1,14.4,5.9,21.2c2.8,7,7.3,12.9,11.4,19.2
			c3.6,5.4,6.6,11.4,7,17.9c0.2,6.5-1.6,12.9-5.2,18.4c-7.7,12.2-20.3,19.4-33.4,25.4c-7.3,3.4-14.8,6.5-21.7,10.6
			c-6.3,3.9-12.2,8.4-17.5,13.6c-10.3,9.7-19.6,20.6-31.4,28.8c-11.9,8.1-25.8,12.8-40.2,13.7c-27.6,1.7-54.3-11.5-69.2-33.7
			c-7.5-11.2-10.8-23.9-13.5-36.8c-2.8-13.3-5.3-27.4-13.8-38.6C204.9,487.8,199.5,483.4,195.7,477.8"/>
		<path class="st1" d="M860.4,471.6c-4.9,16.2-15.9,28.9-26.1,42.3s-19.9,28.6-17.1,45.7c2.6,16.5,14,30.8,13.6,47.9
			c-0.3,16.4-9.6,30.8-20.4,43c-11.2,12.6-24.6,23.3-35.2,36.4c-5.1,6.4-9.7,13.5-12.3,21.2c-2.8,8.5-2.7,17.1-1.1,25.9
			c1.6,9,4.1,18,3.7,27.3c-0.3,7.2-2.6,14.2-6.6,20.1c-7.8,11.5-20.9,19.2-34.5,22.8c-36.8,9.8-72.4-10.5-107.2-18.6
			c-18-4.2-37.6-5.9-55.1,1c-15.2,6-26.4,18.1-41.1,24.9c-14.9,7-31.3,5.3-45.2-3c-14.4-8.6-24.6-21.6-32.8-35.5
			c-8.6-14.4-15.9-29.8-27.5-42.3c-10.5-11.2-26.9-18.3-33-32.8c-6.5-15.2,2.7-31.2,14-41.8c12.1-11.4,28.2-18,40.1-29.7
			c10.5-10.2,14.7-23.6,19-36.9c3.9-11.8,8.1-24.5,18.1-32.9c11.6-9.7,27-9.2,41.4-7.2c14.5,2,31.9,6.1,44.7-3.2
			c11.3-8.2,14.3-23.9,10.9-36.4c-4-15.2-17.2-26.8-30.7-34.7c-13.1-7.7-28-12.4-40.3-21.3c-12-8.7-18.9-21.9-13.9-36.2
			c5.4-15.4,20-25,33.2-34c6.8-4.5,13.6-9.3,19-15.3c6-6.7,9.2-14.6,10.5-23.2c1.6-10.6,0.6-21.4,0.8-32.1l53.9,41.4l106-65.6
			l115.6,73.9c-1.1,2.1-2.1,4.1-3.2,6.2c-5.8,11.7-12,25.7-3.6,37.8c7.9,11.2,22.6,15.7,32.7,24.6
			C862.6,441.9,864.9,457.1,860.4,471.6"/>
		<path class="st2" d="M393.6,880.9L349,910.6L249.3,838l-70.4,49.8l-28-218.8c3.5,0.3,6.9,0.9,10.3,1.8
			c13.2,3.5,24.8,11.4,32.8,22.5c8.5,11.6,13.8,25,22.1,36.8c4.1,6.1,9.3,11.4,15.4,15.6c6.8,4.6,14.6,7.5,22.6,9.7
			c28,7.6,65.6,7.5,81.9,34.9c8,13.4,8.6,29.2,15,43.2c6.5,14.3,19.6,24.3,31.1,35C386.1,872.3,390,876.5,393.6,880.9"/>
		<g class="st3">
			<g>
				<defs>
					<rect id="SVGID_3_" x="687.3" y="294.6" width="91.8" height="610.1"/>
				</defs>
				<clipPath id="SVGID_4_">
					<use xlink:href="#SVGID_3_"  style="overflow:visible;"/>
				</clipPath>
				<g class="st4">
					<polygon class="st5" points="687.3,904.7 709.1,294.6 779,339.3 703.5,892.9 					"/>
				</g>
			</g>
		</g>
		<g class="st3">
			<g>
				<defs>
					<rect id="SVGID_5_" x="787.1" y="355.9" width="62.6" height="503.6"/>
				</defs>
				<clipPath id="SVGID_6_">
					<use xlink:href="#SVGID_5_"  style="overflow:visible;"/>
				</clipPath>
				<g class="st6">
					<polygon class="st5" points="787.1,831.9 826.2,369.5 849.7,355.9 826.2,859.6 					"/>
				</g>
			</g>
		</g>
		<g class="st3">
			<g>
				<defs>
					<rect id="SVGID_7_" x="550.1" y="356" width="52.7" height="516"/>
				</defs>
				<clipPath id="SVGID_8_">
					<use xlink:href="#SVGID_7_"  style="overflow:visible;"/>
				</clipPath>
				<g class="st7">
					<polygon class="st5" points="602.8,360.4 586,837.2 550.1,872 597.1,356 					"/>
				</g>
			</g>
		</g>
		<g class="st3">
			<g>
				<defs>
					<rect id="SVGID_9_" x="404.9" y="347.9" width="45.5" height="519.7"/>
				</defs>
				<clipPath id="SVGID_10_">
					<use xlink:href="#SVGID_9_"  style="overflow:visible;"/>
				</clipPath>
				<g class="st8">
					<polygon class="st5" points="433.6,360.4 450.4,837.2 404.9,867.5 413.4,347.9 					"/>
				</g>
			</g>
		</g>
		<g class="st3">
			<g>
				<defs>
					<rect id="SVGID_11_" x="311" y="294.6" width="38.2" height="610.1"/>
				</defs>
				<clipPath id="SVGID_12_">
					<use xlink:href="#SVGID_11_"  style="overflow:visible;"/>
				</clipPath>
				<g class="st9">
					<polygon class="st5" points="349.2,904.7 327.4,294.6 311,305.1 318.1,882.1 					"/>
				</g>
			</g>
		</g>
		<g class="st3">
			<g>
				<defs>
					<rect id="SVGID_13_" x="172.7" y="347.9" width="76.6" height="488.4"/>
				</defs>
				<clipPath id="SVGID_14_">
					<use xlink:href="#SVGID_13_"  style="overflow:visible;"/>
				</clipPath>
				<g class="st10">
					<polygon class="st5" points="210.2,369.5 249.3,831.9 243.2,836.3 172.7,347.9 					"/>
				</g>
			</g>
		</g>
		<path class="st11" d="M424.3,478.4c-1-19.1-24.6-23.7-33.2-38.3c-3-5-3.4-10.9-3.7-16.6s-0.8-11-2.6-16.2
			c-3.6-10.1-11.3-18.7-20.5-24.6c-19.2-12.4-44.5-16.3-67.5-14.3c-0.4-0.3-0.9-0.4-1.3-0.3c-6.8,0.6-13.5,2-20,4.1
			c-0.6,0.1-1.1,0.3-1.7,0.4c-0.3,0.1-0.6,0.2-0.8,0.4c-4.2,1.6-8.3,3.7-12,6.2c-8.7,6-15.3,14.6-17.4,24.8
			c-1.3,6.2-1,12.5-1.7,18.8c-0.6,6.1-2.6,12-5.8,17.2c-5.7,9.5-13.5,18.3-14.1,29.8c-0.5,10.6,6.9,17.1,15.5,22.5
			c4,2.5,8.1,4.9,11.3,8.4c3.3,3.8,5.6,8.5,6.6,13.4c2.4,10,2,20.3,4.7,30.3c2.7,9.7,8.7,18.2,16.9,24.1c18.1,13.2,43.3,11,60-3.3
			c15.6-13.5,23.9-33,42.3-43.7c10.1-5.9,21.7-9.6,30.9-16.9C417.9,498.1,424.8,488.8,424.3,478.4 M415.8,492
			c-6.1,9.3-16.2,14.4-26.1,19.2c-9.5,4.6-18.7,9.4-26.2,16.8c-6.8,6.6-12.2,14.4-18,21.7s-12.4,14.4-21,18.8
			c-10.1,5.1-21.9,6.1-32.7,2.8c-9.6-3-17.8-9.3-23.1-17.8c-5.3-8.5-6.1-18.3-7.2-27.9c-1-9-2.2-18.5-8-25.9
			c-5.6-7.3-14.7-10.4-21.4-16.4c-8.7-7.9-6-19.2-0.7-28.2c5.6-9.5,12.8-17.6,14.4-28.7s0.1-22.5,6.5-32.5
			c5.5-8.6,14.7-14.4,24.5-17.8c23.2-6.1,49-5.5,71.4,3.2c10.3,4,20,10,26.6,18.7c3.2,4.1,5.5,8.9,6.9,13.9
			c1.3,5.3,1.2,10.7,1.7,16.1c0.5,5.1,1.5,10.1,4.2,14.6c2.1,3.3,4.7,6.2,7.7,8.6c6.3,5.4,14.1,9.5,19.6,15.7
			C421.4,474.4,421.2,483.8,415.8,492"/>
		<path class="st11" d="M325.2,394.5c-7.9-6.1-19.1-7.4-28.9-5.9c-6.7,1.1-13.1,3.5-18.7,7.3c-5.8,1.7-10.3,6.2-13,11.6
			c-4.7,9.6-2.2,20.3-0.4,30.3c1.9,10.5,1,21.7,4.9,31.8c2.9,7.6,9.4,15,18.3,16c9.2,1,17.9-4.6,22.6-11.8c5.7-8.7,6.6-19.2,8-29.1
			c0.8-5.4,1.7-10.9,4-16c2-4.5,5.1-8.3,7.4-12.6C333.6,408.3,332.5,400.1,325.2,394.5 M326.6,412.1c-1.5,3.6-3.9,6.8-6,10.2
			c-2.2,3.7-3.9,7.8-4.9,12c-3.9,15.1-1.3,38.6-19.5,45.9c-8.2,3.3-15.9-0.4-20.4-7.3c-5-7.6-5-16.9-5.7-25.6
			c-1-10.6-5.1-21.5-3.4-32.1c0.6-3.4,2-6.6,4-9.4c0.8,0.3,1.7,0.1,2.3-0.6c2.1-2.2,4.4-4.2,6.9-5.9c1.1-0.2,2.2-0.3,3.4-0.3
			c1.3,0.1,2.4-0.8,2.5-2.1c0-0.3,0-0.6-0.1-0.9c9.8-4.6,21.6-5.8,31.6-1.6C324.6,397.7,329.9,404.1,326.6,412.1"/>
		<path class="st11" d="M826.1,441.8c-6.2-8-15.3-13.1-22.5-20.1c-9-8.6-11.8-20.1-9.4-31.9c2.5-12.4,10-23.2,17.2-33.6
			c1.5-2.2-1.8-4.9-3.3-2.6c-7.1,10.3-14.4,20.9-17.5,33c-2.8,10.9-1.9,23,5,32.4c5.9,8,14.9,13.3,22.2,20c3.7,3.4,7,7.3,8.8,12
			c2.1,5.6,1.7,11.6,0.1,17.3c-3.5,11.8-12.3,21-20.7,30c-8,8.6-15.5,17.5-19,28.7c-6.6,20.9,0.7,43,2.2,64
			c0.8,10.5,0.1,21.3-4.7,30.9c-4,8-10.8,14.4-18.2,19.7c-14.7,10.5-32.3,17.5-45.1,30.4c-6.6,6.5-10.9,14.9-12.5,24
			c-1.9,11.5,0,23.3-2.4,34.8c-2,10-8.2,18.3-18.2,22.3c-9,3.6-19.3,3.8-28.7,1.6c-21.3-5-33.9-26-55.6-29.7
			c-11.5-2-22.6,2.4-31.3,9.4c-9.6,7.8-15.9,18.1-22.9,27.9c-6.8,9.5-14.5,18.6-26,23c-9.9,3.8-21.9,3.5-28.9-5.1
			c-6.4-7.8-7.4-18.5-11.1-27.5s-10.2-14.9-18.9-19.4c-8.3-4.3-17.6-7-25-12.6c-9-6.8-11.3-17.2-7.3-27.3
			c8.5-21.3,33.9-30.6,42.7-51.6c2.4-5.6,2.9-11.3,2.8-17.3c0-6.5-0.4-13,2.2-19.2c4.2-9.7,13.7-16.1,23.5-20.1
			c22.9-9.4,49.9-6.4,70.2-21.8c17.6-13.3,26.7-35.4,22-56.5c-2.4-10.6-7.6-20.3-15.2-28.1c-8.6-8.8-19.9-13.7-31-18.9
			c-10.7-5-22-11.2-27.4-21.9c-5.2-10.4-1-20.6,6.3-28.9s16.3-15,22.8-24c6.5-9.1,11-19.5,13.1-30.6c2-10.7,1.6-21.7-1.2-32.2
			c-0.7-2.6-4.7-1.1-4,1.4c5.9,22.5-0.3,47.5-16.3,65.1c-7.3,8-16.3,14.7-22.3,23.8c-5.9,8.9-6.8,19.4-1.4,28.7
			c12.4,21.6,41.9,23.2,58.5,40.5c16.2,16.8,19.6,41.8,8.2,61.9c-5.9,10.2-14.9,18.3-25.7,23c-12.2,5.3-25.7,6.7-38.7,9.3
			c-20.8,4.2-45.5,14.3-47.7,37.3c-0.6,6.7,0.4,13.5-0.7,20.2c-1.1,5.5-3.4,10.6-6.9,15c-6.8,9-16.1,15.7-24.1,23.6
			s-15.5,18.4-16.1,29.8c-0.5,9.7,4.7,18,12.9,23.3c7.9,5.2,17.1,8,25.4,12.5c4.2,2.2,8,5.2,11,8.8c3.1,4,4.9,8.8,6.4,13.6
			c2.9,9.1,5,19.1,12.8,25.8c8,6.9,19.5,7,29.2,3.7c24.2-8.2,31.5-33.6,48.6-49.5c8.8-8.2,20.5-13.7,33-10.7
			c10.9,2.7,19.6,10.3,28.3,16.7c8.3,6,16.8,11.1,27.1,13.1c9.5,1.8,19.9,1.4,28.9-2.2c8.9-3.4,15.9-10.5,19.3-19.5
			c4-11.1,2.5-23,3.3-34.5c0.7-10.2,3.8-19.3,11-27c6-6.5,13.7-11.5,21.3-16.1c15.5-9.3,33.1-17.9,42.4-33.7
			c11.4-19.2,5.8-42.2,3.1-62.8c-1.4-10.6-2.3-21.6,0.2-32.1c2.7-11.7,10.3-20.9,18.5-29.7c8.3-9,17-18.1,21.2-29.7
			C833.6,461.6,833.1,450.7,826.1,441.8"/>
		<path class="st11" d="M788.8,433.7c-8.3-13.8-22.9-24.5-27.4-40.2c-5.3-18.6,10.4-34.9,13.1-52.7c0.6-4.3,0.4-8.6-0.7-12.8
			c-0.7-2.6-4.7-1.1-4,1.4c2.4,9.1-1.1,18.2-4.7,26.6c-3.5,8.2-7.7,16.5-8.8,25.4c-2,16.7,9.3,29.5,19.5,41.8
			c5,6,10.1,12.2,12.8,19.5c3.1,8.3,1.6,16.5-2.6,24.2c-4.5,8.2-11,15.4-15.3,23.7c-4.9,9.6-5.6,20.3-6.2,30.8
			c-0.6,10.2-1.4,20.8-7.1,29.7c-5.2,7.8-13,13.7-22,16.5c-18.7,6.1-39.3-2.8-48-19.5c-9.5-18.2,0.2-38.3,3.5-56.8
			c1.6-9.1,1.7-18.7-2.3-27.2s-11.1-14.7-17.4-21.6c-3.4-3.5-6.3-7.4-8.5-11.8c-2.3-5.1-3.4-10.6-3.2-16.2
			c0.4-11.2,5.1-21.8,10.2-31.7c9.2-17.8,20.8-37.2,14.4-57.8c-1.4-4.4-3.6-8.4-6.7-11.8c-1.8-2-5.3,0.4-3.5,2.4
			c15.4,17.5,4.5,41.4-4.7,58.9c-9.9,18.8-21.1,41.6-8.3,61.8c5.3,8.4,13.4,14.6,19.4,22.5c6.2,8.2,8.2,17.5,7,27.5
			c-2.3,19.2-12.8,38.8-6.1,58.2c5.8,17.1,23.7,29.8,42.7,29.3c19.7-0.5,37.1-14,42.1-32c3-10.7,2.3-21.9,3.7-32.8
			c0.6-5.5,2.1-10.9,4.5-15.9c2.3-4.4,4.9-8.6,7.8-12.5c5.4-7.6,11.2-15.7,12.3-25.1C795.3,447.8,792.9,440.4,788.8,433.7"/>
		<path class="st11" d="M342.5,856.8c-7-6.5-16.6-10.4-22.6-17.9c-3.4-4.3-4.7-9.6-6.6-14.6c-1.6-4.3-4.3-8.2-7.6-11.3
			c-15-13.8-37.9-11-56.8-13.8c-11.1-1.7-21-5.7-27.9-14.4c-6.6-8.2-10-18.2-13.7-27.8c-4.1-10.6-8.9-21.9-18.3-29.3
			c-8.3-6.5-19.9-10-30.1-5.8c-2.6,1-1.1,4.9,1.5,3.9c9.3-3.8,19.6-0.2,26.8,5.9c8,6.7,12.2,16.7,15.8,26c3.5,9,6.6,18.2,12.1,26.3
			c5.3,8,13.2,14,22.4,16.9c18.6,5.9,39.6,1.5,57.5,10c4,1.8,7.5,4.4,10.3,7.8c3.2,4,4.6,8.7,6.3,13.4c1.5,4.5,4,8.6,7.3,12
			c3.3,3.1,6.9,5.9,10.7,8.3c4.2,2.8,8.6,5.7,12,9.5c10.2,11.4,11.2,28.3,2.6,40.9c-1.6,2.2,1.7,4.8,3.3,2.7
			C358,890.1,356,869.5,342.5,856.8"/>
		<path class="st11" d="M869.6,758.7c-1.9,17.1-17,28.4-29.9,38.7c-12.3,9.8-24.8,21.2-26.4,37.3c-0.8,8,1.3,15.7,7,21.7
			c1.9,2,4.6-1.2,2.8-3.2c-10.9-11.3-4.7-28.8,4.4-39.1c10.6-12.1,25.4-20,35.8-32.3c5.5-6.5,9.6-14,10.5-22.3
			C874.1,756.8,869.8,756,869.6,758.7"/>
		<path class="st11" d="M642.8,657.3c-3.7-8.9-9.9-16.7-16.3-24.1c-6.8-7.9-14.2-15.3-21.5-22.8c-4.1-4.1-8.5-8.3-13.5-11.4
			c-0.2-0.3-0.5-0.5-0.8-0.6l-0.5-0.2c-2.2-1.3-4.6-2.3-7.1-3.1c-6.7-2-13.6-1.3-20.1,0.7c-8.6,1.5-16.6,5.4-23.2,11.2
			c-6.3,5.6-10.9,12.9-13.4,20.9c-2.8,9.1-0.5,19.2-4.2,28c-2.9,7.1-9.5,11.8-15.7,16.1s-13.1,8.8-17.5,15.2
			c-9.4,13.5-7.7,33.1,6.8,42.8c6.5,4.5,14.5,6.3,22.4,5.1c7.2-1.3,13.1-5.2,18.2-10c11-10.3,19-25.3,35.8-27.8
			c18.6-2.7,37.4,6.7,55.7,0.3C645.4,691.7,649.1,672.5,642.8,657.3 M630.7,692c-14.9,8.7-34.1,1.4-50.1,1
			c-8.2-0.2-16.2,1.3-23.1,5.6c-5.7,3.6-10.3,8.7-14.7,13.6c-8.7,9.8-18.7,21.6-33.8,19c-7.6-1.3-14.2-5.8-18.3-12.3
			c-4.1-6.8-4.3-15.5-1.6-22.8c5.3-14.2,21-19.3,31.1-29.7c5.6-5.8,7.8-12.8,8.3-20.7c0.5-8.5,1-16.4,5.1-24.1
			c2.4-4.4,5.5-8.3,9.2-11.6c0.4,0,0.8-0.1,1.1-0.3c6.3-3.8,13-7.8,20.2-10c3.9-0.7,8-0.9,12-0.6c4,0.4,8,1.2,11.8,2.6
			c2.6,1.4,5,3.1,7.2,5c7.1,6.1,13.5,13.1,19.9,19.8s12.9,14,18.1,21.7c4.8,7.1,8.5,15.1,8.5,23.7C641.5,680,637.9,687.8,630.7,692"
			/>
		<path class="st12" d="M826.5,358.1l-117.3-75l-105.7,65.4l-85.2-65.4L433,348.5l-105.7-65.4l-117.3,75L97.8,293.6l77.1,602.9
			l74.3-52.5l99.7,72.6l100.3-66.8l69,66.8l69-66.8l100.3,66.8l99.7-72.6l74.3,52.6l77.1-602.9L826.5,358.1z M853.6,879l-60.4-42.7
			l-6.1-4.3l-6,4.4l-93.8,68.4L593,841.9l-7-4.6l-6,5.8l-61.8,59.9L456.4,843l-6-5.8l-7,4.6l-94.3,62.8l-93.8-68.4l-6-4.4l-6.1,4.3
			L182.8,879l-72.5-566.9l94.4,54.3l5.5,3.1l5.4-3.4l111.8-71.5l100.1,62l6.1,3.8l5.7-4.4l78.9-60.6l78.9,60.6l5.7,4.4l6.1-3.8
			l100.1-62L820.9,366l5.3,3.4l5.5-3.1l94.4-54.3L853.6,879z"/>
		<path class="st13" d="M677,412.1c-16.6,0-30.1,12.8-30.1,28.7c0,0-3.1,21.4,30.1,59c0,0,23.8-27.2,29.1-51.7c0,0,0-0.1,0-0.1
			c0.6-2.3,1-4.7,1-7.2C707.1,425,693.7,412.1,677,412.1 M674.3,454.3c-9.7,0-17.5-7.5-17.5-16.7s7.8-16.7,17.5-16.7
			s17.5,7.5,17.5,16.7S683.9,454.3,674.3,454.3"/>
		<path class="st13" d="M601.9,558.1c-13.6,0-24.6,10.5-24.6,23.5c0,0-2.6,17.5,24.6,48.2c0,0,19.5-22.2,23.8-42.3c0,0,0,0,0-0.1
			c0.5-1.9,0.8-3.9,0.8-5.9C626.5,568.6,615.5,558.1,601.9,558.1 M599.6,592.6c-7.9,0-14.3-6.1-14.3-13.7s6.4-13.6,14.3-13.6
			s14.3,6.1,14.3,13.6S607.5,592.6,599.6,592.6"/>
		<path class="st13" d="M280.5,405c-13.6,0-24.6,10.5-24.6,23.5c0,0-2.6,17.5,24.6,48.2c0,0,19.5-22.2,23.8-42.3c0,0,0,0,0-0.1
			c0.5-1.9,0.8-3.9,0.8-5.9C305.1,415.5,294.1,405,280.5,405 M278.2,439.5c-7.9,0-14.3-6.1-14.3-13.6s6.4-13.6,14.3-13.6
			s14.3,6.1,14.3,13.6S286.1,439.5,278.2,439.5"/>
		<path class="st14" d="M275.7,495.6h-0.2c-0.6-0.1-1-0.6-0.9-1.2c0,0,0,0,0,0c0.4-2.5,0.9-5,1.3-7.5c0.1-0.6,0.7-0.9,1.3-0.8
			c0.5,0.1,0.9,0.6,0.8,1.2c-0.5,2.5-0.9,5-1.3,7.4C276.7,495.2,276.2,495.6,275.7,495.6"/>
		<path class="st14" d="M472.8,682.4L472.8,682.4c-5.1,0-10.2-0.6-15.2-1.6c-0.6-0.1-1-0.7-0.8-1.3c0,0,0,0,0,0
			c0.1-0.6,0.7-0.9,1.3-0.8c4.8,1,9.8,1.6,14.7,1.6c0.6,0,1.1,0.5,1.1,1.1C473.9,681.9,473.4,682.4,472.8,682.4
			C472.8,682.4,472.8,682.4,472.8,682.4 M487.8,680.9c-0.5,0-0.9-0.4-1.1-0.8c-0.1-0.6,0.2-1.2,0.8-1.3c4.3-0.9,8.5-2.2,12.6-4
			l1.4-0.7c0.5-0.2,1.2,0,1.4,0.5c0.3,0.5,0,1.2-0.5,1.4c0,0,0,0,0,0c-0.5,0.2-1,0.5-1.5,0.7c-4.2,1.8-8.5,3.2-13,4.2L487.8,680.9
			 M443.6,676.1c-0.2,0-0.3,0-0.4-0.1c-4.7-2.1-9.1-4.7-13.2-7.9c-0.5-0.4-0.6-1-0.2-1.5s1-0.6,1.5-0.2c3.9,3,8.2,5.5,12.7,7.6
			c0.5,0.2,0.8,0.9,0.6,1.4C444.4,675.8,444,676.1,443.6,676.1 M515.2,668.9c-0.6,0-1.1-0.5-1.1-1.1c0-0.4,0.2-0.7,0.5-0.9
			c4.3-2.6,8.9-4.9,13.5-6.9c0.6-0.2,1.2,0.1,1.4,0.7c0.2,0.5-0.1,1.1-0.6,1.3c-4.6,1.9-9,4.2-13.3,6.8
			C515.5,668.9,515.4,668.9,515.2,668.9 M573.3,659.1c-0.6,0-1.1-0.4-1.1-1s0.4-1.1,1-1.1h0.6c4.7-0.4,9.3-1.6,13.5-3.6
			c0.6-0.3,1.2,0,1.5,0.5c0.3,0.6,0,1.2-0.5,1.5c-4.5,2.1-9.4,3.3-14.3,3.7L573.3,659.1L573.3,659.1 M558.3,658.8L558.3,658.8
			c-5-0.3-10-0.4-15-0.2c-0.6,0-1.1-0.4-1.2-1c0-0.6,0.4-1.1,1-1.2c5.1-0.2,10.1-0.2,15.2,0.2c0.6,0,1.1,0.5,1.1,1.1
			C559.4,658.3,558.9,658.8,558.3,658.8 M420,657.8c-0.3,0-0.6-0.1-0.8-0.4c-3.2-3.9-6.2-8-8.8-12.4c-0.3-0.5-0.2-1.2,0.3-1.5
			c0.5-0.3,1.2-0.2,1.5,0.3c0,0,0,0,0,0c2.6,4.3,5.5,8.3,8.6,12.1c0.4,0.4,0.3,1.1-0.1,1.5C420.5,657.7,420.2,657.8,420,657.8
			 M404,632.4c-0.4,0-0.8-0.2-1-0.6c-1.5-2.9-2.9-5.8-4.3-8.7l-2.4-4.8c-0.3-0.5-0.1-1.2,0.5-1.5c0.5-0.3,1.2-0.1,1.5,0.5l0,0
			c0.8,1.6,1.6,3.2,2.4,4.8c1.4,2.9,2.9,5.8,4.3,8.6c0.3,0.5,0.1,1.2-0.5,1.5c0,0,0,0,0,0C404.3,632.3,404.1,632.4,404,632.4
			 M390,605.8c-0.4,0-0.7-0.2-0.9-0.5c-2.5-4.3-5.3-8.4-8.3-12.4c-0.4-0.5-0.3-1.2,0.2-1.5c0.5-0.4,1.2-0.3,1.5,0.2l0,0
			c3.1,4,5.9,8.2,8.5,12.6c0.3,0.5,0.1,1.2-0.4,1.5C390.5,605.7,390.3,605.8,390,605.8 M371.5,582.2c-0.3,0-0.5-0.1-0.7-0.3
			c-3.7-3.3-7.8-6-12.2-8.2c-0.5-0.3-0.7-1-0.4-1.5c0.3-0.4,0.8-0.6,1.3-0.4c4.6,2.3,8.8,5.1,12.7,8.5c0.5,0.4,0.5,1.1,0.1,1.5
			C372.1,582.1,371.8,582.2,371.5,582.2 M344.9,568.9c-0.1,0-0.2,0-0.3,0c-4.5-1.1-9.1-2-14.7-2.9c-0.6-0.1-1-0.7-0.9-1.2
			c0.1-0.6,0.6-1,1.2-0.9c0,0,0,0,0.1,0c5.6,0.9,10.3,1.8,14.9,2.9c0.6,0.1,0.9,0.7,0.8,1.3C345.8,568.6,345.4,568.9,344.9,568.9
			 M315.2,563.4c-0.1,0-0.1,0-0.2,0c-5-0.9-9.9-2.3-14.7-4.1c-0.6-0.2-0.9-0.8-0.7-1.3c0.2-0.6,0.8-0.9,1.3-0.7c0.1,0,0.1,0,0.2,0.1
			c4.6,1.8,9.4,3.1,14.3,4c0.6,0.1,1,0.7,0.8,1.3c0,0,0,0,0,0C316.2,563.1,315.8,563.4,315.2,563.4 M287.9,551.8
			c-0.3,0-0.5-0.1-0.7-0.3c-0.5-0.5-1.1-1-1.6-1.5c-3.2-3.1-5.8-6.8-7.8-10.8c-0.3-0.5-0.1-1.2,0.5-1.5c0.5-0.3,1.2-0.1,1.5,0.5
			c1.8,3.8,4.3,7.2,7.3,10.2c0.5,0.5,1,0.9,1.5,1.4c0.4,0.4,0.5,1.1,0.1,1.5C288.4,551.6,288.1,551.7,287.9,551.8 M274.3,525.5
			c-0.5,0-1-0.4-1.1-0.9c-0.3-1.6-0.4-3.3-0.5-5s-0.1-3.2-0.1-4.8s0.1-3.6,0.2-5.5c0.1-0.6,0.6-1,1.1-1c0.6,0,1,0.5,1,1.1
			c0,0,0,0,0,0c-0.1,1.8-0.2,3.6-0.2,5.3s0,3.1,0.1,4.6s0.3,3.2,0.5,4.8c0.1,0.6-0.3,1.1-0.9,1.2L274.3,525.5"/>
		<path class="st14" d="M599.1,645.5c-0.2,0-0.4,0-0.5-0.1c-0.5-0.3-0.7-0.9-0.4-1.5c0,0,0,0,0,0c1.2-2.1,1.8-4.4,1.8-6.7
			c0-0.6,0.5-1.1,1.1-1c0.6,0,1.1,0.5,1.1,1.1c0,0,0,0,0,0c-0.1,2.7-0.8,5.4-2.1,7.7C599.8,645.3,599.4,645.5,599.1,645.5"/>
		<path class="st14" d="M600.1,551.6c-0.6,0-1-0.4-1.1-1c-0.1-2.6-0.1-5.1,0.1-7.7c0.1-0.6,0.6-1,1.1-1c0.6,0,1,0.6,1,1.2
			c-0.2,2.5-0.2,5-0.1,7.5C601.2,551.1,600.7,551.6,600.1,551.6L600.1,551.6z"/>
		<path class="st14" d="M603.1,527.6c-0.1,0-0.2,0-0.3,0c-0.6-0.2-0.9-0.8-0.7-1.3c0,0,0,0,0,0c1.6-5.4,3.7-10.7,6.4-15.7
			c0.2-0.5,0.9-0.8,1.4-0.5c0.5,0.2,0.8,0.9,0.5,1.4c0,0,0,0.1-0.1,0.1c-2.6,4.9-4.7,10-6.3,15.3C604,527.3,603.6,527.6,603.1,527.6
			 M618.8,498.2c-0.6,0-1.1-0.5-1.1-1.1c0-0.3,0.1-0.5,0.3-0.7c3.6-4.4,7.6-8.4,11.9-12c0.4-0.4,1.1-0.4,1.5,0.1s0.4,1.1-0.1,1.5
			c0,0,0,0-0.1,0c-4.2,3.5-8.1,7.5-11.6,11.8C619.4,498.1,619.1,498.2,618.8,498.2"/>
		<path class="st14" d="M644.3,476.9c-0.6,0-1.1-0.5-1-1.1c0-0.4,0.2-0.7,0.5-0.9c2.3-1.2,4.6-2.3,6.9-3.3c0.6-0.2,1.2,0,1.4,0.6
			c0.2,0.6,0,1.2-0.6,1.4c-2.3,1-4.5,2-6.7,3.2C644.7,476.9,644.5,476.9,644.3,476.9"/>
		<path class="st14" d="M703.7,472.3c-0.6,0-1.1-0.5-1-1.1c0-0.5,0.4-0.9,0.9-1c2.5-0.4,5.1-0.6,7.7-0.5c0.6,0,1.1,0.5,1.1,1.1
			c0,0.6-0.5,1.1-1.1,1.1c-0.1,0-0.2,0-0.4,0c-2.3,0-4.7,0.2-7,0.5L703.7,472.3"/>
		<path class="st14" d="M811.8,509.7c-1.7,0-3.5-0.1-5.2-0.3c-0.6-0.1-1-0.6-1-1.2c0.1-0.6,0.6-1,1.2-1c4.8,0.5,9.7,0.3,14.4-0.8
			c0.6-0.1,1.2,0.2,1.3,0.8c0.1,0.6-0.2,1.2-0.8,1.3c0,0,0,0,0,0C818.4,509.3,815.1,509.7,811.8,509.7 M792.2,506.2
			c-0.1,0-0.2,0-0.3,0c-4.7-1.6-9.3-3.5-13.8-5.8c-0.5-0.3-0.8-0.9-0.5-1.4s0.9-0.8,1.4-0.5c4.4,2.2,8.9,4.1,13.5,5.6
			c0.6,0.2,0.9,0.8,0.7,1.4C793.1,505.9,792.7,506.2,792.2,506.2 M835,503.1c-0.4,0-0.7-0.2-0.9-0.5c-0.3-0.5-0.2-1.2,0.3-1.5
			c0,0,0,0,0,0c4.1-2.6,7.9-5.7,11.2-9.2c0.4-0.5,1.1-0.5,1.5-0.1c0.5,0.4,0.5,1.1,0.1,1.5c0,0-0.1,0.1-0.1,0.1
			c-3.5,3.6-7.4,6.9-11.6,9.5C835.4,503,835.2,503.1,835,503.1 M765.6,493.4c-0.2,0-0.4-0.1-0.5-0.1l-1.8-1.1
			c-3.5-2.1-7.2-4.3-10.9-6.4c-0.5-0.3-0.7-1-0.4-1.5c0.3-0.5,0.9-0.7,1.5-0.4c0,0,0,0,0,0c3.7,2.1,7.4,4.3,10.9,6.5l1.8,1.1
			c0.5,0.3,0.7,1,0.4,1.5C766.3,493.2,765.9,493.4,765.6,493.4 M855.8,482.2c-0.2,0-0.4-0.1-0.6-0.2c-0.5-0.3-0.6-1-0.3-1.5
			c0,0,0,0,0,0l0.6-0.8c2.2-3.2,4.4-6.5,6.5-9.7l1.2-1.8c0.3-0.5,1-0.6,1.5-0.3s0.6,1,0.3,1.5l-1.2,1.8c-2.1,3.2-4.3,6.5-6.5,9.7
			l-0.6,0.9C856.5,482.1,856.2,482.2,855.8,482.2 M739.7,479c-0.2,0-0.3,0-0.5-0.1c-4.4-2.1-9-3.8-13.7-5.1c-0.6-0.1-1-0.7-0.9-1.3
			c0.1-0.6,0.7-1,1.3-0.9c0.1,0,0.1,0,0.2,0c4.8,1.3,9.5,3.1,14,5.2c0.5,0.3,0.8,0.9,0.5,1.4C740.4,478.8,740,479,739.7,479
			 M872.4,457.7c-0.2,0-0.5-0.1-0.7-0.2c-0.5-0.4-0.6-1-0.2-1.5c2.6-3.5,5.6-6.9,8.7-10c0.4-0.4,0.8-0.8,1.3-1.2
			c0.4-0.4,1.1-0.4,1.5,0.1c0.4,0.4,0.4,1.1-0.1,1.5l0,0c-0.4,0.4-0.8,0.8-1.2,1.2c-3.1,3-5.9,6.3-8.5,9.7
			C873.1,457.6,872.8,457.7,872.4,457.7 M894,437.7c-0.6,0-1.1-0.5-1.1-1.1c0-0.4,0.2-0.7,0.5-0.9c3.7-2.4,8-4.8,13-7.4
			c0.5-0.3,1.2-0.1,1.5,0.5c0.3,0.5,0.1,1.2-0.5,1.5c-4.9,2.5-9.1,4.9-12.8,7.3C894.5,437.7,894.3,437.7,894,437.7 M920.2,423.9
			c-0.6,0-1.1-0.5-1.1-1.1c0-0.4,0.2-0.8,0.6-1c4.1-2,8.8-4.2,13.3-6.5c0.5-0.3,1.2-0.1,1.5,0.5c0.3,0.5,0.1,1.2-0.5,1.5l0,0
			c-4.5,2.4-9.2,4.6-13.3,6.5C920.6,423.8,920.4,423.9,920.2,423.9 M946.3,409.9c-0.6,0-1.1-0.5-1.1-1.1c0-0.4,0.2-0.7,0.5-0.9
			c2.3-1.5,4.5-3.1,6.5-4.6c1.7-1.4,3.4-2.8,5.1-4.3c0.4-0.4,1.1-0.5,1.5-0.1c0.4,0.4,0.5,1.1,0.1,1.5c0,0-0.1,0.1-0.1,0.1
			c-1.7,1.6-3.4,3.1-5.2,4.5c-2,1.6-4.3,3.2-6.6,4.7C946.8,409.9,946.6,409.9,946.3,409.9 M967.8,389.8c-0.2,0-0.5-0.1-0.6-0.2
			c-0.5-0.4-0.6-1-0.2-1.5c0,0,0,0,0,0c2.9-3.9,5.4-8.1,7.5-12.5c0.2-0.6,0.9-0.8,1.4-0.6c0.6,0.2,0.8,0.9,0.6,1.4
			c0,0,0,0.1-0.1,0.1c-2.2,4.5-4.8,8.8-7.8,12.8C968.5,389.6,968.2,389.8,967.8,389.8 M980.7,363.3c-0.1,0-0.2,0-0.3,0
			c-0.6-0.2-0.9-0.8-0.8-1.3c1.3-4.7,2.2-9.5,2.6-14.4c0-0.6,0.6-1,1.2-1c0.6,0,1,0.6,1,1.2c0,0,0,0,0,0c-0.4,5-1.3,9.9-2.7,14.8
			C981.7,363,981.3,363.3,980.7,363.3 M983.2,334c-0.6,0-1-0.4-1.1-1c-0.1-0.9-0.2-1.8-0.4-2.6c-0.6-3.9-1.5-7.8-2.8-11.6
			c-0.3-0.5-0.1-1.2,0.4-1.5c0.5-0.3,1.2-0.1,1.5,0.4c0.1,0.1,0.1,0.3,0.1,0.4c1.3,3.9,2.2,7.9,2.8,11.9c0.2,0.9,0.3,1.8,0.4,2.7
			C984.2,333.3,983.8,333.9,983.2,334C983.2,333.9,983.2,333.9,983.2,334l-0.1,0 M791.8,306.8h-4.6c-2.6,0-5.1-0.1-7.6,0
			c-0.6,0-1.1-0.5-1.1-1.1c0-0.6,0.5-1.1,1.1-1.1c2.5,0,5.1,0,7.7,0c1.5,0,3,0,4.6,0c0.8,0,1.7,0,2.5,0c0.5-0.1,1,0.3,1.1,0.9
			c0,0.1,0,0.1,0,0.2c0,0.6-0.5,1.1-1.1,1.1c0,0,0,0,0,0C793.6,306.8,792.7,306.8,791.8,306.8 M974,305.9c-0.4,0-0.7-0.2-0.9-0.5
			c-2.4-4.3-5.1-8.3-8.2-12.1c-0.4-0.5-0.3-1.1,0.2-1.5c0.5-0.4,1.1-0.3,1.5,0.2c3.2,3.9,6,8,8.4,12.4c0.3,0.5,0.1,1.2-0.4,1.5
			c0,0,0,0,0,0C974.4,305.9,974.2,305.9,974,305.9 M809.1,304.9c-0.6,0-1.1-0.5-1.1-1.1c0-0.5,0.3-0.9,0.8-1c4.6-1.4,9-3.5,13.1-6.2
			c0.5-0.3,1.2-0.2,1.5,0.3s0.2,1.2-0.3,1.5c-4.2,2.8-8.8,5-13.6,6.4C809.3,304.9,809.2,304.9,809.1,304.9 M834.3,289.7
			c-0.3,0-0.6-0.1-0.8-0.4c-0.4-0.5-0.3-1.1,0.1-1.5c0,0,0,0,0,0l2.7-2.2c2.9-2.4,5.8-4.9,8.9-7.2c0.5-0.4,1.2-0.3,1.5,0.2
			c0.4,0.5,0.3,1.2-0.2,1.5c-3,2.3-5.9,4.7-8.8,7.1l-2.7,2.2C834.8,289.6,834.5,289.7,834.3,289.7 M955.4,283
			c-0.3,0-0.5-0.1-0.7-0.3c-3.7-3.2-7.6-6.1-11.8-8.6c-0.5-0.3-0.7-1-0.4-1.5s1-0.7,1.5-0.4c4.3,2.6,8.4,5.5,12.1,8.8
			c0.4,0.4,0.5,1.1,0.1,1.5C956,282.9,955.7,283,955.4,283 M858.2,272.4c-0.4,0-0.8-0.2-1-0.6c-0.3-0.5-0.1-1.2,0.5-1.5
			c4.4-2.3,9.1-4.2,13.9-5.7c0.6-0.2,1.2,0.1,1.4,0.7c0.2,0.6-0.1,1.2-0.7,1.4l0,0c-4.7,1.5-9.2,3.3-13.5,5.6
			C858.5,272.4,858.3,272.4,858.2,272.4 M930.1,268c-0.1,0-0.3,0-0.4-0.1c-4.6-1.7-9.3-3-14.1-3.9c-0.6-0.1-1-0.7-0.9-1.3
			c0.1-0.6,0.7-1,1.2-0.9c0,0,0,0,0,0c4.9,0.9,9.8,2.2,14.5,4c0.6,0.2,0.8,0.8,0.6,1.4C930.9,267.7,930.5,268,930.1,268
			 M886.3,263.5c-0.6,0-1.1-0.5-1.1-1.1c0-0.5,0.4-1,0.9-1.1c4.9-0.7,9.9-1,14.9-0.9c0.6,0,1.1,0.5,1.1,1.1c0,0,0,0,0,0
			c0,0.6-0.4,1-0.9,1.1c-0.1,0-0.1,0-0.2,0c-4.9-0.1-9.8,0.2-14.6,0.9L886.3,263.5"/>
		<path class="st14" d="M758.2,312.5c-0.3,0-0.7-0.2-0.9-0.5c-0.3-0.5-0.3-1.1,0.2-1.5c0,0,0,0,0,0c2.1-1.6,4.5-2.8,7-3.6
			c0.6-0.2,1.2,0.1,1.4,0.6c0,0,0,0,0,0c0.2,0.6-0.1,1.2-0.7,1.4c0,0,0,0,0,0c-2.3,0.8-4.4,1.9-6.4,3.3
			C758.7,312.4,758.5,312.5,758.2,312.5"/>
		<path class="st0" d="M116.7,484.8c-0.2,0-0.4-0.1-0.6-0.2c-0.5-0.3-0.6-1-0.3-1.5c1.4-2.1,2.8-4.3,4-6.3c0.3-0.5,0.9-0.8,1.4-0.5
			c0.5,0.3,0.8,0.9,0.5,1.4c0,0,0,0.1-0.1,0.1c-1.2,2.1-2.6,4.3-4,6.5C117.4,484.6,117.1,484.8,116.7,484.8"/>
		<path class="st14" d="M134.3,779.3c-0.2,0-0.4,0-0.5-0.1c-4.6-2.6-8.8-5.7-12.6-9.3c-0.4-0.4-0.4-1.1,0-1.5c0.4-0.4,1-0.4,1.5-0.1
			c3.7,3.5,7.8,6.5,12.2,9c0.5,0.3,0.7,1,0.4,1.5C135,779.1,134.6,779.3,134.3,779.3 M112,758.3c-0.4,0-0.7-0.2-0.9-0.5
			c-2.8-4.4-5.1-9.2-6.6-14.2c-0.2-0.6,0.2-1.2,0.7-1.3c0.6-0.2,1.2,0.2,1.3,0.7c1.5,4.8,3.6,9.4,6.3,13.7c0.3,0.5,0.2,1.2-0.3,1.5
			c0,0,0,0,0,0C112.4,758.3,112.2,758.3,112,758.3 M103.1,729.2c-0.6,0-1-0.4-1.1-1c-0.1-1.4-0.1-2.9-0.1-4.3
			c0-3.4,0.2-7.1,0.5-11.3c0-0.6,0.6-1,1.2-1c0.6,0,1,0.5,1,1.1c0,0,0,0,0,0c-0.4,4.1-0.5,7.7-0.5,11.1c0,1.4,0,2.8,0.1,4.2
			C104.2,728.7,103.8,729.2,103.1,729.2L103.1,729.2 M105.3,698.5h-0.1c-0.6-0.1-1-0.6-0.9-1.2c0,0,0,0,0,0
			c0.6-4.9,1.2-10.1,1.5-15.3c0-0.6,0.4-1,1-1c0.1,0,0.1,0,0.1,0c0.6,0,1,0.5,1,1.1c0,0,0,0,0,0c-0.3,5.2-0.9,10.5-1.5,15.4
			C106.4,698.1,105.9,698.5,105.3,698.5 M106.6,667.8c-0.6,0-1-0.4-1.1-1c-0.4-4.1-1.3-8.2-2.7-12.2c-0.3-0.8-0.6-1.7-0.9-2.5
			c-0.2-0.6,0.1-1.2,0.7-1.4c0.5-0.2,1.1,0.1,1.3,0.6c0.3,0.9,0.7,1.7,1,2.6c1.4,4.1,2.3,8.3,2.8,12.6c0.1,0.6-0.4,1.1-0.9,1.2
			c0,0,0,0,0,0L106.6,667.8 M95.4,639.2c-0.4,0-0.7-0.2-0.9-0.5c-3-4.5-6.4-8.6-9.3-12.1c-0.4-0.4-0.4-1.1,0-1.5s1.1-0.4,1.5,0
			c0,0,0.1,0.1,0.1,0.2c3,3.5,6.4,7.8,9.5,12.3c0.3,0.5,0.2,1.2-0.3,1.5C95.9,639.2,95.6,639.2,95.4,639.2 M76.1,615.2
			c-0.3,0-0.6-0.1-0.8-0.4c-3.3-4-6.4-8.2-9.2-12.6c-0.3-0.5-0.2-1.2,0.3-1.5c0.5-0.3,1.2-0.2,1.5,0.3c0,0,0,0.1,0.1,0.1
			c2.7,4.3,5.7,8.4,9,12.3c0.4,0.5,0.3,1.1-0.2,1.5C76.6,615.1,76.3,615.2,76.1,615.2 M60.5,588.8c-0.5,0-0.9-0.3-1-0.8
			c-0.5-1.5-0.8-3-1.2-4.6c-0.6-3-0.9-6-0.9-9c0-0.7,0-1.4,0-2.1c0.1-0.6,0.6-1,1.1-1c0.6,0,1,0.5,1,1.1c0,0.7,0,1.3,0,2
			c0,2.9,0.3,5.7,0.8,8.5c0.3,1.4,0.7,2.9,1.1,4.3c0.2,0.6-0.2,1.2-0.7,1.3C60.7,588.8,60.6,588.8,60.5,588.8 M61.5,558.4
			c-0.1,0-0.2,0-0.3-0.1c-0.6-0.2-0.9-0.8-0.7-1.3c0,0,0,0,0,0c1.7-4.9,3.8-9.7,6.4-14.2c0.3-0.5,0.9-0.8,1.4-0.5
			c0.5,0.3,0.8,0.9,0.5,1.4c0,0,0,0.1-0.1,0.1c-2.5,4.4-4.6,9-6.3,13.8C62.4,558.1,62,558.4,61.5,558.4 M76.5,531.6
			c-0.6,0-1.1-0.5-1.1-1.1c0-0.2,0.1-0.5,0.2-0.7c1.2-1.5,2.4-3,3.6-4.5c1.9-2.3,4-4.7,6.4-7.4c0.4-0.4,1.1-0.5,1.5-0.1
			c0.4,0.4,0.5,1.1,0.1,1.5c-2.4,2.7-4.5,5.1-6.4,7.3c-1.2,1.4-2.4,2.9-3.5,4.4C77.1,531.4,76.8,531.6,76.5,531.6 M96.9,508.5
			c-0.3,0-0.5-0.1-0.7-0.3c-0.4-0.4-0.4-1.1,0-1.5c0,0,0,0,0,0c3.3-3.6,6.9-7.4,10.3-11.4c0.4-0.5,1.1-0.5,1.5-0.1
			c0.5,0.4,0.5,1.1,0.1,1.5c-3.4,4-7,7.9-10.4,11.5C97.5,508.4,97.3,508.5,96.9,508.5"/>
		<path class="st0" d="M156,786.7h-0.1c-2.5-0.4-5.1-0.9-7.5-1.6c-0.6-0.2-0.9-0.8-0.7-1.3c0.2-0.6,0.7-0.9,1.3-0.7
			c2.4,0.7,4.8,1.2,7.3,1.5c0.6,0.1,1,0.6,0.9,1.2C157,786.4,156.5,786.8,156,786.7"/>
		<path class="st14" d="M915,569c-0.3,0-0.6-0.1-0.8-0.4l-5-5.6c-0.4-0.4-0.4-1.1,0.1-1.5c0.4-0.4,1.1-0.4,1.5,0.1l5,5.6
			c0.4,0.4,0.4,1.1-0.1,1.5C915.5,568.9,915.3,569,915,569"/>
		<path class="st14" d="M907.5,788c-0.6,0-1.1-0.5-1-1.1c0-0.4,0.2-0.7,0.5-0.9c4.5-2.4,8.8-5.4,12.7-8.7c0.5-0.4,1.1-0.3,1.5,0.1
			c0.4,0.5,0.3,1.1-0.1,1.5c-4,3.5-8.4,6.5-13.1,9C907.8,788,907.7,788,907.5,788 M931,767.7c-0.2,0-0.5-0.1-0.6-0.2
			c-0.5-0.4-0.6-1-0.2-1.5c0.6-0.8,1.1-1.5,1.6-2.3c2.3-3.5,4.3-7.2,5.9-11.1c0.2-0.6,0.9-0.8,1.4-0.6c0.6,0.2,0.8,0.9,0.6,1.4
			c-1.7,4-3.7,7.8-6.1,11.5c-0.5,0.8-1.1,1.6-1.7,2.4C931.7,767.5,931.4,767.7,931,767.7 M942.9,739h-0.2c-0.6-0.1-1-0.6-0.9-1.2
			c0.5-3.4,0.8-6.8,0.8-10.3c0-1.7-0.1-3.4-0.2-5.1c-0.1-0.6,0.4-1.1,1-1.2c0,0,0,0,0,0c0.6,0,1.1,0.4,1.2,1
			c0.1,1.8,0.2,3.5,0.2,5.3c0,3.5-0.3,7.1-0.8,10.6C943.9,738.6,943.4,739,942.9,739 M940.4,708c-0.5,0-0.9-0.3-1-0.7
			c-1-3.1-2.2-6.3-3.4-9.4c-0.7-1.8-1.4-3.5-2-5.3c-0.1-0.6,0.3-1.2,0.9-1.3c0.5-0.1,0.9,0.1,1.1,0.5c0.6,1.8,1.3,3.5,2,5.3
			c1.2,3.1,2.4,6.3,3.5,9.5c0.2,0.6-0.1,1.2-0.7,1.4C940.6,708,940.5,708,940.4,708 M931,678.2c-0.6,0-1-0.4-1.1-1
			c-0.2-1.4-0.3-2.9-0.3-4.3c0-1.4,0.1-2.8,0.3-4.1c0.3-2.5,0.9-5,1.8-7.4c0.1-0.6,0.6-1,1.2-0.9s1,0.6,0.9,1.2
			c0,0.1-0.1,0.3-0.1,0.4c-0.8,2.3-1.4,4.6-1.7,7c-0.2,1.3-0.2,2.6-0.2,3.8c0,1.4,0.1,2.7,0.3,4.1
			C932.1,677.6,931.7,678.1,931,678.2L931,678.2 M939.6,648.7c-0.2,0-0.4,0-0.5-0.1c-0.5-0.3-0.7-1-0.4-1.5c0,0,0,0,0,0l0.9-1.6
			c2.4-3.9,4.5-7.9,6.4-12.1c0.2-0.5,0.9-0.8,1.4-0.6c0.5,0.2,0.8,0.9,0.6,1.4c-1.9,4.2-4.1,8.3-6.5,12.3l-0.9,1.6
			C940.4,648.5,940,648.7,939.6,648.7 M950,619.7c-0.6,0-1-0.4-1.1-1c-0.4-5.1-2.1-9.9-4.7-14.3c-0.3-0.5-0.1-1.2,0.4-1.5
			c0,0,0,0,0,0c0.5-0.3,1.2-0.1,1.5,0.4c0,0,0,0,0,0c2.8,4.6,4.6,9.8,5,15.2C951.2,619.2,950.7,619.7,950,619.7
			C950.1,619.7,950.1,619.7,950,619.7L950,619.7 M935.8,592.4c-0.3,0-0.6-0.1-0.8-0.4c-1.1-1.3-2.2-2.5-3.3-3.7l-7.1-8
			c-0.4-0.4-0.4-1.1,0.1-1.5c0,0,0,0,0,0c0.4-0.4,1.1-0.4,1.5,0.1c0,0,0,0,0,0l7.1,8c1.1,1.2,2.2,2.5,3.3,3.8
			c0.4,0.5,0.3,1.1-0.1,1.5C936.3,592.3,936.1,592.4,935.8,592.4"/>
		<path class="st14" d="M885.5,795.7c-0.6,0-1.1-0.5-1.1-1.1c0-0.5,0.4-0.9,0.9-1c2.4-0.4,4.9-1,7.3-1.7c0.6-0.2,1.2,0.1,1.4,0.6
			c0.2,0.6-0.1,1.2-0.6,1.4c0,0-0.1,0-0.1,0c-2.5,0.7-5,1.3-7.5,1.7L885.5,795.7"/>
		
			<linearGradient id="SVGID_15_" gradientUnits="userSpaceOnUse" x1="470.64" y1="333.28" x2="589.33" y2="333.28" gradientTransform="matrix(1 0 0 -1 0 1080)">
			<stop  offset="0" style="stop-color:#591919"/>
			<stop  offset="1" style="stop-color:#D93D3D"/>
		</linearGradient>
		<path class="st15" d="M589.3,931h-44.4l-43.8-197.1l-30.5-68.5l0,0l0-0.1l21.4-84.9l33.7-17.9c9.5,36.7,30.5,119.1,38.3,163.2
			C574.3,783.6,589.3,931,589.3,931"/>
		
			<linearGradient id="SVGID_16_" gradientUnits="userSpaceOnUse" x1="327.33" y1="346.14" x2="525.51" y2="346.14" gradientTransform="matrix(1 0 0 -1 0 1080)">
			<stop  offset="0" style="stop-color:#591919"/>
			<stop  offset="1" style="stop-color:#D93D3D"/>
		</linearGradient>
		<path class="st16" d="M525.5,561.3l-40.9,4.2c0,0-4.3,51.4-14,99.8l0,0.1l0,0c-2.2,11.3-4.8,22.4-7.6,32.6
			c-15,54.3-83.3,230.2-83.3,230.2l-4.6-1.6l-42.7-15l-5.1-1.8l59.6-213l-3.6-157.2c2.4,0.8,4.9,1.2,7.5,1.3
			c13.4,1.3,26.3,5.8,39.4,9.1s27,5.2,39.9,1.3c8.1-2.5,15.7-7.2,24.1-8c4.5-0.4,8.9,0.3,13.4,0.8s9,0.9,13.3-0.3
			c0,0,1.8,6.5,4.6,17.3"/>
		
			<linearGradient id="SVGID_17_" gradientUnits="userSpaceOnUse" x1="544.3" y1="122.98" x2="668.7642" y2="122.98" gradientTransform="matrix(1 0 0 -1 0 1080)">
			<stop  offset="0" style="stop-color:#000000"/>
			<stop  offset="2.000000e-02" style="stop-color:#050302"/>
			<stop  offset="0.15" style="stop-color:#291B11"/>
			<stop  offset="0.29" style="stop-color:#462F1D"/>
			<stop  offset="0.43" style="stop-color:#5D3F27"/>
			<stop  offset="0.59" style="stop-color:#6D492E"/>
			<stop  offset="0.77" style="stop-color:#775032"/>
			<stop  offset="1" style="stop-color:#7A5233"/>
		</linearGradient>
		<path class="st17" d="M620.8,947.8c49.4-13,48,35.2,48,35.2l-124.5-10l4-42h41L620.8,947.8z"/>
		<path class="st18" d="M525.8,562.4L492,580.3l-21.4,84.9c9.6-48.4,14-99.8,14-99.8l40.9-4.2C525.6,561.7,525.7,562,525.8,562.4"/>
		
			<linearGradient id="SVGID_18_" gradientUnits="userSpaceOnUse" x1="316.12" y1="123.13" x2="434.2" y2="123.13" gradientTransform="matrix(1 0 0 -1 0 1080)">
			<stop  offset="0" style="stop-color:#000000"/>
			<stop  offset="2.000000e-02" style="stop-color:#050302"/>
			<stop  offset="0.15" style="stop-color:#291B11"/>
			<stop  offset="0.29" style="stop-color:#462F1D"/>
			<stop  offset="0.43" style="stop-color:#5D3F27"/>
			<stop  offset="0.59" style="stop-color:#6D492E"/>
			<stop  offset="0.77" style="stop-color:#775032"/>
			<stop  offset="1" style="stop-color:#7A5233"/>
		</linearGradient>
		<path class="st19" d="M434.2,999.8l-59.6,2.3l-58.5-47.5l16.4-43l42.7,15l10.2,33.6C428,960.5,434.2,999.9,434.2,999.8"/>
		<path class="st18" d="M406.5,627c-1.3-24.7-2.7-49.4-4.2-74.1c-0.2-3.2-0.4-6.3-0.6-9.4c-0.1-0.6-0.6-1-1.2-0.9
			c-0.6,0.1-1,0.6-0.9,1.1c1.6,24.6,3,49.1,4.3,73.7c1.3,24.3,3.3,48.8,0.6,73.1c-2.6,23.7-10.2,46.5-17.6,69
			c-7.7,23.3-15.5,46.7-23.2,70c-7.8,23.4-15.6,46.9-23.4,70.3l-2.9,8.7c-0.4,1.3,1.5,2.2,2,0.9c7.8-23.6,15.6-47.1,23.5-70.7
			l23.4-70.7c7.5-22.5,15.4-45,19.2-68.5C409.1,675.5,407.7,651.1,406.5,627"/>
		<path class="st18" d="M540.8,870.3c-2.9-18.9-6.1-37.7-9.7-56.4c-3.6-18.5-7.6-37-12.4-55.2s-10.2-36.5-16.5-54.3
			c-6.3-17.8-13.6-35.3-21.9-52.3c-1-2.1-2.1-4.2-3.2-6.3c-0.6-1.2-2.6-0.5-2,0.8c8.5,16.8,16,34.1,22.6,51.8
			c6.5,17.7,12.2,35.7,17.1,53.8c4.9,18.2,9.2,36.9,12.9,55.5s7,37.4,9.9,56.1s5.7,37.5,8.3,56.3l1,7c0.2,1.4,2.3,1.2,2.2-0.2
			C546.5,908,543.8,889.2,540.8,870.3"/>
		<path class="st3" d="M529.6,470.3v0.5c-20.8,10.2-45.9,1.6-56.1-19.2c-0.2-0.4-0.4-0.8-0.5-1.1c3.2-2.2,6.4-4.3,9.6-6.5
			c4.5,7.5,8,12.5,9.4,13.9C496.3,462,512.9,470.1,529.6,470.3"/>
		<path class="st20" d="M534.2,353.2c-0.5,0.2-1,0.5-1.4,0.8c-0.5-2-1-4.1-1.5-6.2C532.2,349.5,533.2,351.4,534.2,353.2"/>
		
			<linearGradient id="SVGID_19_" gradientUnits="userSpaceOnUse" x1="378.2341" y1="677.131" x2="606.2928" y2="677.131" gradientTransform="matrix(1 0 0 -1 0 1080)">
			<stop  offset="0" style="stop-color:#2F3273"/>
			<stop  offset="1" style="stop-color:#595FD9"/>
		</linearGradient>
		<path class="st21" d="M596.5,409.5c-11.7,9.6-21.6,33.9-41.8,52.2c-2.9,2.6-6.2,4.6-9.8,6c-4.2,1.5-8.6,2.4-13,2.5
			c0,0.2,0,0.4,0,0.6c-0.6,14.1-1.6,28.4-3.3,38.2c4.6,1.5,1.2,12-2.3,15.4c4.2,1.6,6,7,4.5,11.2s-5.6,7.1-9.9,8.3
			s-8.9,0.8-13.4,0.3s-8.9-1.3-13.4-0.8c-8.5,0.8-16,5.5-24.1,8c-12.9,3.9-26.8,2-39.9-1.3s-25.9-7.8-39.4-9.1
			c-2.5-0.1-5.1-0.5-7.5-1.3c-2.4-0.9-4.5-2.9-4.9-5.4s1.5-5.3,4.1-5.2c-3.1,0-4.8-3.9-4.1-6.9s2.7-5.5,4-8.3
			c0.7-1.5,1.2-3.1,1.4-4.8c-3.1-14.8-1.5-30.2,1.6-44.9c1.2-5.6,2.5-11.1,4-16.7c0.7-2.9,1.5-5.7,2.3-8.5
			c2.4-8.9,4.8-17.8,7.3-26.7c4.9-17.6,10-35.2,15.6-52.6c5.4-16.9,11.2-33.7,18.2-50c5.7-13.4,12.4-26.4,21.4-37.9
			c-0.1,0-0.1-0.1-0.2-0.1c6.3-14.2,25.8-19.5,25.8-19.5l2.8,4.7l25.2,42.1c1.5,1.2,2.9,2.6,4.1,4.1c0.1,0.1,0.2,0.2,0.3,0.3
			l0.1,0.2c0.2,0.1,0.3,0.3,0.4,0.5c2.5,3.2,4.6,6.6,6.5,10.1c1.7,2.8,3.4,5.6,5,8.5c7.6,13.8,13.8,28.3,18.5,43.3
			c1.8,5.6,3.3,11.2,4.7,16.9c1.4-1.9,3-4.1,4.8-6.7c1.3-2,2.8-4.3,4.3-6.9c2-3.6,4.9-6.7,8.3-9c5.2-3.4,11.5-4.5,17.5-3l2,2
			l17.2,17c0.1,0.1,0.3,0.2,0.4,0.2C608.8,380.9,608,400.1,596.5,409.5"/>
		<path class="st22" d="M564.6,360.2c-3.4,2.3-6.2,5.4-8.3,9c-1.5,2.6-2.9,4.8-4.3,6.9c-2.6-3.4-2.9-7.9-0.9-11.6
			c0.5,0.4,1.2,0.6,1.8,0.6c1.8-0.1,3.4-0.9,4.5-2.2c2.3-2.4,3.8-5.5,4.1-8.8L564.6,360.2z"/>
		<path class="st23" d="M445.7,351.3c2.8,25.6,17.5,58.1,29.8,80.5c-3.4,1.6-6.8,3.1-10.2,4.6c-9.9-27.5-16.6-56.1-20-85.1
			L445.7,351.3z"/>
		<path class="st3" d="M657.3,297.9c-6.4,5.8-12.7,11.7-19.1,17.5c-4.7,1.3-9.2,3-13.6,5c-0.3-0.2-0.5-0.4-0.8-0.5l19.7-19.4
			c2-1.9,4-3.9,6.7-4.8S656,295.4,657.3,297.9"/>
		
			<linearGradient id="SVGID_20_" gradientUnits="userSpaceOnUse" x1="584.16" y1="735.2024" x2="654.3503" y2="735.2024" gradientTransform="matrix(1 0 0 -1 0 1080)">
			<stop  offset="0" style="stop-color:#BA7D4E"/>
			<stop  offset="0.23" style="stop-color:#D38E59"/>
			<stop  offset="0.5" style="stop-color:#E99D62"/>
			<stop  offset="0.76" style="stop-color:#F6A668"/>
			<stop  offset="1" style="stop-color:#FAA96A"/>
		</linearGradient>
		<path class="st24" d="M638.2,315.3c3-0.8,6-1.5,9-2c2.8-0.5,6.8,0,7.1,2.9c0.1,1.5-1,2.9-2.1,3.9c-3.8,3.7-8.2,6.6-13,8.8
			c-0.4,0.1-0.7,0.3-1.1,0.5c0.4-0.1,0.7-0.3,1.1-0.5c1.8-0.3,3.6,0.9,4.1,2.7c0.5,2.2-0.8,4.4-2.6,5.7c-1.9,1.2-4,1.9-6.2,2.3
			c2.9,1.7,3.9,5.3,2.2,8.2c-1,1.7-2.8,2.8-4.8,3c2.6-0.4,4.4,3.1,3.4,5.5s-3.5,3.9-5.8,5.1c-9.3,4.9-18.6,9.9-27.8,14.9l-0.4-0.2
			l-17.2-17c4.9-10.4,10.9-20.2,17.8-29.4c2.9-3.8,6-7.6,10.3-9.8c3.6-1.8,8.1-2,11.5-0.2c0.3,0.1,0.6,0.3,0.8,0.5
			C629,318.3,633.6,316.6,638.2,315.3"/>
		<path class="st22" d="M551.2,364.5c-1.6-1.3-2.5-3.3-2.2-5.4c0.2-1.3,0.7-2.6,1.4-3.7c-1.2-2.4-2.4-4.8-3.8-7.1
			c1.8-0.5,3.5-0.9,5.3-1.3c2.8-0.6,6.1-0.8,8.1,1.2c1.5,1.5,1.8,3.9,1.5,6c-0.4,3.3-1.8,6.4-4.1,8.8c-1.1,1.4-2.8,2.2-4.5,2.2
			C552.3,365.1,551.7,364.9,551.2,364.5"/>
		<path class="st23" d="M535.8,397.8c-7.5,8.1-13,17.9-16.2,28.5c-4.4-10.6,0.6-22.7,11.2-27.1C532.4,398.5,534.1,398.1,535.8,397.8
			"/>
		<path class="st23" d="M528.6,470.5c-8.4,2.5-17.5,0-24.8-4.5c-7.7-4.9-13.6-12-19.4-18.9c-0.9-1.1-2.6,0.2-1.8,1.3
			c6.1,7.4,12.4,14.8,20.6,19.9c7.7,4.8,17.2,7,26.1,4.4C530.6,472.1,529.9,470.1,528.6,470.5"/>
		<path class="st23" d="M535.2,385.3c-0.5-0.2-1.2,0-1.4,0.5l-5.6,8.8c-0.3,0.5,0,1.2,0.5,1.4c0,0,0,0,0,0c0.5,0.2,1.2,0,1.4-0.5
			l5.6-8.8C536,386.1,535.8,385.5,535.2,385.3"/>
		<path class="st23" d="M530.4,381.2c-0.5-0.2-1.2,0-1.4,0.5c-1,3.1-2.1,6.1-3.1,9.2c-0.2,0.5,0,1.2,0.5,1.4c0.5,0.3,1.2,0,1.4-0.5
			c1-3.1,2.1-6.2,3.1-9.2C531.1,382.1,530.9,381.5,530.4,381.2"/>
		<path class="st23" d="M524,378c-0.5-0.2-1.2,0-1.4,0.5c-0.9,2.4-1.9,4.8-2.8,7.2c-0.2,0.5,0,1.2,0.5,1.4c0.5,0.3,1.2,0,1.4-0.5
			l2.8-7.2C524.7,378.9,524.5,378.3,524,378"/>
		<path class="st23" d="M592.2,370.5c-0.5-0.4-1.1-0.3-1.5,0.1l-3.6,4.8c-0.4,0.5-0.3,1.1,0.1,1.5c0.5,0.4,1.1,0.3,1.5-0.1l3.6-4.8
			C592.7,371.6,592.7,370.9,592.2,370.5"/>
		<path class="st23" d="M587.3,367.2c-0.4-0.5-1-0.6-1.5-0.3l-4,3.6c-0.2,0.2-0.4,0.4-0.4,0.7c0,0.3,0,0.6,0.2,0.8
			c0.4,0.5,1,0.6,1.5,0.3l4-3.6c0.2-0.2,0.4-0.4,0.4-0.7C587.5,367.7,587.4,367.4,587.3,367.2"/>
		<path class="st23" d="M581.8,361.9c-0.2-0.6-0.8-0.8-1.4-0.6l-4.8,2.4c-0.5,0.2-0.8,0.8-0.6,1.4c0.2,0.6,0.8,0.8,1.4,0.6l4.8-2.4
			C581.7,363,582,362.4,581.8,361.9"/>
		<path class="st23" d="M596.1,376.3c-0.6-0.1-1.1,0.3-1.3,0.9c0,0.4-0.1,0.8-0.2,1.2c0,0.2,0,0.1,0,0c0,0,0,0.1,0,0.1l-0.1,0.3
			c-0.1,0.2-0.2,0.4-0.3,0.6c0,0.1-0.1,0.2-0.1,0.2v0.1l0,0c-0.1,0.2-0.2,0.3-0.4,0.5c-0.1,0.2-0.3,0.3-0.4,0.4l-0.1,0.1l0,0
			c0,0-0.2,0.1-0.2,0.2c-0.5,0.4-0.6,1-0.3,1.5c0.4,0.5,1,0.6,1.5,0.3c1.6-1.3,2.6-3.1,2.8-5.1C597.2,377,596.8,376.4,596.1,376.3"
			/>
		<path class="st23" d="M602.9,380.8c-0.5-0.2-1.2,0-1.4,0.5l-2,4.8c-0.2,0.5,0,1.2,0.5,1.4c0.5,0.2,1.2,0,1.4-0.5
			c0.7-1.6,1.3-3.2,2-4.8C603.7,381.7,603.4,381.1,602.9,380.8"/>
		<path class="st23" d="M494.7,287.1c-7.6-9.3-15.2-18.7-22.8-28.1c-0.9-1.1-2.6,0.2-1.8,1.3l22.8,28
			C493.8,289.4,495.6,288.2,494.7,287.1"/>
		<path class="st23" d="M487.7,286.5l-8-7.3c-0.5-0.4-1.1-0.3-1.5,0.1c-0.4,0.5-0.3,1.1,0.1,1.5l0,0l8,7.3c0.5,0.4,1.1,0.3,1.5-0.1
			C488.2,287.6,488.2,286.9,487.7,286.5"/>
		<path class="st23" d="M519.5,512.5l-20.4,8.4c-1.3,0.5-0.5,2.6,0.8,2l20.4-8.4C521.5,514,520.8,511.9,519.5,512.5"/>
		<path class="st23" d="M519,522.7l-14.8,0.7c-1.4,0.1-1.2,2.2,0.2,2.2l14.8-0.7C520.6,524.7,520.4,522.6,519,522.7"/>
		<path class="st23" d="M402.8,518.8l-13.3-4.3c-0.6-0.1-1.1,0.3-1.3,0.9c-0.1,0.6,0.3,1.1,0.9,1.3l13.3,4.3
			c0.6,0.1,1.1-0.3,1.3-0.9C403.7,519.5,403.4,518.9,402.8,518.8"/>
		<path class="st23" d="M400.4,526.8l-9.2-0.7c-0.6-0.1-1.1,0.3-1.3,0.9c-0.1,0.6,0.3,1.1,0.9,1.3l9.2,0.7c0.6,0.1,1.1-0.3,1.3-0.9
			C401.3,527.5,401,526.9,400.4,526.8"/>
		<path class="st23" d="M546.9,384.1c-1-1.6-2.6-2.7-4.4-3.2c-2.2-0.5-4.5-0.1-6.3,1.2c-0.4-2.5-1-5-3-6.7s-5.1-2.4-7.4-0.8
			c-1.1,0.8,0.1,2.6,1.3,1.8c1.7-1.3,4-0.3,5.3,1.2c1.5,1.9,1.7,4.5,1.9,6.8c0.1,0.6,0.6,1,1.2,1c0.3,0,0.5-0.2,0.7-0.4
			c1.9-2.4,5.4-2.9,7.8-1c1,0.8,1.7,1.9,2,3.1C546.2,388.4,548,386,546.9,384.1"/>
		<path class="st3" d="M440.9,448.1c-0.1-0.6-0.7-1-1.3-0.9c-0.5,0.1-0.9,0.5-0.9,1.1c0.7,8,1.3,16,1.9,24c0.1,0.6,0.6,1,1.2,0.9
			c0.6-0.1,1-0.6,0.9-1.1L440.9,448.1z"/>
		
			<linearGradient id="SVGID_21_" gradientUnits="userSpaceOnUse" x1="493.1509" y1="842.8394" x2="599.3467" y2="901.0815" gradientTransform="matrix(1 0 0 -1 0 1080)">
			<stop  offset="0" style="stop-color:#3B2719"/>
			<stop  offset="0.66" style="stop-color:#511D19"/>
			<stop  offset="0.87" style="stop-color:#591919"/>
		</linearGradient>
		<path class="st25" d="M537.7,234.3c0.5-3.8,1.1-14.3-9-13.7c-12.3,0.8-11.2,17.6-11.2,17.6c-7.3-4.8-17.2,3.2-17.2,3.2l-3.2,2.8
			c0.4-2.9,0.5-5.8,0.2-8.8c-0.6-3.5-2.3-6.7-3.7-10s-2.3-7-1.3-10.4s3.7-5.7,6.1-8.3c4.8-5.2,8.4-11.3,10.5-18
			c1-3.3,1.7-6.7,3.2-9.8c1.4-3.1,3.8-6,7.1-7.1c3.9-1.3,8.1,0.2,12.2,0c7.5-0.3,14.4-5.9,21.7-4.7c6.6,1.1,11,7.4,17.3,9.7
			c4.1,1.6,8.6,1.3,13,1.6s9,1.3,11.9,4.6c4.5,5.2,2.8,13.9,7.7,18.7c4.2,4.2,12.2,4.3,14.3,9.8c1.2,3.1-0.1,6.7-2.4,9.1
			s-5.4,3.8-8.4,5.1c-5.9,2.5-12.8,5.1-18.4,2.1c-0.5-0.3-1-0.6-1.5-1l0,0c-3-2.2-5.4-5.6-9.1-6.4c-6.3-1.4-11.8,5.2-18.2,5
			c-4.4-0.1-8.8-3.4-12.9-1.6S541.3,231.9,537.7,234.3"/>
		
			<linearGradient id="SVGID_22_" gradientUnits="userSpaceOnUse" x1="482.5" y1="817.8704" x2="586.46" y2="817.8704" gradientTransform="matrix(1 0 0 -1 0 1080)">
			<stop  offset="0" style="stop-color:#BA7D4E"/>
			<stop  offset="1" style="stop-color:#FAA96A"/>
		</linearGradient>
		<path class="st26" d="M586.5,227L586.5,227c-1.3,7.4-3,14.8-5.1,22.1c-2.2,8.1-5.1,15.9-8.7,23.5c-4.8,9.9-10.9,18.3-18.6,21.9
			c-12.3,5.8-24-1.8-32.6-10.8c-5.4-5.7-10-12.1-13.8-19l7,34.6l-1.6,3.7l-0.5,1c-1.5-1.8-3.1-3.5-4.9-5l-25.1-42.1l14.5-12.6
			l3.2-2.8c0,0,9.9-8,17.2-3.2c0,0-1.1-16.8,11.2-17.6c10.1-0.6,9.5,9.9,9,13.7c3.6-2.4,4.4-8.6,8.6-10.4s8.5,1.5,12.9,1.6
			c6.4,0.1,12-6.5,18.2-5C581,221.4,583.4,224.7,586.5,227"/>
		<path class="st27" d="M586.6,268.3c0.9,1.3,2,2.8,1.5,4.3s-2.2,1.9-3.7,2.1c-4,0.5-8.1-0.3-11.7-2.1c3.6-7.6,6.5-15.4,8.7-23.5
			C580.9,255.9,582.7,262.7,586.6,268.3"/>
		
			<linearGradient id="SVGID_23_" gradientUnits="userSpaceOnUse" x1="507.66" y1="797.99" x2="521.51" y2="797.99" gradientTransform="matrix(1 0 0 -1 0 1080)">
			<stop  offset="0" style="stop-color:#3B2719"/>
			<stop  offset="0.66" style="stop-color:#511D19"/>
			<stop  offset="0.87" style="stop-color:#591919"/>
		</linearGradient>
		<path class="st28" d="M521.5,283.7l-6.8,15.7l-7-34.6C511.5,271.6,516.2,277.9,521.5,283.7"/>
		
			<linearGradient id="SVGID_24_" gradientUnits="userSpaceOnUse" x1="548.6475" y1="800.8086" x2="559.7974" y2="800.8086" gradientTransform="matrix(1 0 0 -1 0 1080)">
			<stop  offset="0" style="stop-color:#3B2719"/>
			<stop  offset="0.66" style="stop-color:#511D19"/>
			<stop  offset="0.87" style="stop-color:#591919"/>
		</linearGradient>
		<path class="st29" d="M559.4,285.1c-4.4-3-7.4-7.5-8.5-12.7c-0.1-0.6-0.6-1-1.2-1c-0.6,0.1-1,0.6-1,1.2c1.2,5.8,4.5,10.8,9.3,14.2
			C559.1,287.5,560.5,285.9,559.4,285.1"/>
		
			<linearGradient id="SVGID_25_" gradientUnits="userSpaceOnUse" x1="565.4872" y1="834.2581" x2="575.4573" y2="834.2581" gradientTransform="matrix(1 0 0 -1 0 1080)">
			<stop  offset="0" style="stop-color:#3B2719"/>
			<stop  offset="0.66" style="stop-color:#511D19"/>
			<stop  offset="0.87" style="stop-color:#591919"/>
		</linearGradient>
		<path class="st30" d="M575,246.3c-0.5,1.6-1.5,3-2.8,4.1c-1.4,1.2-3.4,1.4-4.9,0.4c-0.2-0.1-0.3-0.3-0.5-0.4
			c-0.4-0.3-0.7-0.7-0.9-1.1c-0.6-1.6-0.4-3.3,0.5-4.7c0.9-1.6,2.1-2.9,3.7-3.8c1.6-0.9,3.5-0.5,4.6,0.9
			C575.7,242.9,575.5,244.7,575,246.3"/>
		
			<linearGradient id="SVGID_26_" gradientUnits="userSpaceOnUse" x1="522.47" y1="849.0505" x2="532.3204" y2="849.0505" gradientTransform="matrix(1 0 0 -1 0 1080)">
			<stop  offset="0" style="stop-color:#3B2719"/>
			<stop  offset="0.66" style="stop-color:#511D19"/>
			<stop  offset="0.87" style="stop-color:#591919"/>
		</linearGradient>
		<path class="st31" d="M529.4,223.7c-2.8-0.9-5.3,1.1-6.6,3.4c-0.3,0.5,0,1.2,0.5,1.4c0.5,0.2,1.2,0,1.4-0.5
			c0.7-1.2,1.9-2.5,3.5-2.4s2.1,1.5,2,2.9c-0.2,1.6-0.7,3.2-1.7,4.5c-0.4,0.7-1,1.3-1.5,1.8c-0.3,0.3-0.6,0.5-0.9,0.7
			c-0.3,0.2-0.7,0.6-1.1,0.6s-0.4-0.7-0.3-1c0.3-0.8,1.3-1.2,2-1.6c0.5-0.3,0.7-1,0.4-1.5c-0.3-0.5-1-0.7-1.5-0.4
			c-0.1,0-0.1,0.1-0.1,0.1c-1.1,0.5-2,1.3-2.6,2.4c-0.5,1-0.4,2.2,0.2,3.1c1.7,2.5,4.8,0,6.1-1.5c1.6-1.7,2.7-3.9,3.1-6.3
			C532.6,227.2,531.9,224.5,529.4,223.7"/>
		
			<linearGradient id="SVGID_27_" gradientUnits="userSpaceOnUse" x1="567.94" y1="843.4727" x2="581.2628" y2="843.4727" gradientTransform="matrix(1 0 0 -1 0 1080)">
			<stop  offset="0" style="stop-color:#3B2719"/>
			<stop  offset="0.66" style="stop-color:#511D19"/>
			<stop  offset="0.87" style="stop-color:#591919"/>
		</linearGradient>
		<path class="st32" d="M580.5,236.1c-3.1-2.1-6.8-3.2-10.6-3c-1.2,0.1-2.1,1.1-2,2.3c0,0,0,0,0,0c0.1,1.2,1.1,2.1,2.3,2
			c0.4,0,0.8,0,1.2,0l0,0c0.2,0,0.4,0,0.6,0.1c0.7,0.1,1.5,0.2,2.2,0.4c0.2,0,0.3,0.1,0.5,0.1l0.3,0.1c0.3,0.1,0.7,0.3,1,0.4
			s0.7,0.3,1,0.5l0.5,0.3l0.2,0.1l0,0l0.1,0.1h-0.1c0.4,0.3,1,0.5,1.5,0.5c1.2-0.1,2.1-1.1,2-2.3C581.2,237,580.9,236.5,580.5,236.1
			"/>
		
			<linearGradient id="SVGID_28_" gradientUnits="userSpaceOnUse" x1="342.1715" y1="666.819" x2="535.0916" y2="772.609" gradientTransform="matrix(1 0 0 -1 0 1080)">
			<stop  offset="0" style="stop-color:#BF6C06"/>
			<stop  offset="0.2" style="stop-color:#CA7206"/>
			<stop  offset="0.52" style="stop-color:#D57807"/>
			<stop  offset="0.87" style="stop-color:#D97A07"/>
		</linearGradient>
		<path class="st33" d="M534.2,353.2c-1-1.8-1.9-3.7-3-5.5c0.6,2.1,1.1,4.2,1.5,6.2c3.3,14,4.9,25.6,5.1,27.6
			c-0.9-0.6-2.1-0.3-3.8,1.5c0,0,0-9.3-5.7-8.7c0,0-7.3-53-29.1-64.9c0,0-23.8-15.1-42.3,4.1c-3.9,1.2-7.8,2.8-11.4,4.7
			c-11.8,44.3-17.4,90.2-26.1,135.3c15.6-4.9,30.8-10.7,45.8-17.2c3.4-1.5,6.8-3,10.2-4.6c2.5,4.5,4.8,8.6,7,12.2
			c-3.2,2.2-6.4,4.4-9.6,6.5c-20.6,13.9-41.6,27.2-63,39.9c-0.9,1.5-2.1,2.8-3.4,4c-4.7,4.1-11.1,4.8-17.5,4.5
			c-1.8-0.1-3.6-0.2-5.3-0.4l-1.3-0.1l0,0c-8.9-1-17.9-2-26.4-4.9s-16.5-8.1-21.1-15.8c-2.1-3.5-3.6-7.3-4.3-11.3
			c-1.4-7-1.3-14.4-0.8-21.6c0.6-10.4,1.6-20.8,2.9-31.2c3.1-24.6,8.6-48.8,16.4-72.2c4.6-13.8,10.3-27.2,16.9-40.1
			c7-13.8,15.9-27.7,30-34.1c12.2-5.5,25.6-4.3,38.9-1c3.2,0.8,6.4,1.8,9.6,2.7c2,0.6,4.1,1.3,6.1,2l0,0c1.2-0.2,2.5,0.1,3.5,0.8
			c1.6,1,2.8,2.7,3.2,4.6c0.7,3.4-0.5,6.8-1.6,10c-0.8,2.1-1.5,4.3-2.2,6.4c33.6-6.1,66.3,14.3,75.6,47.1h0.1
			c-3.9-13.4-9.3-26.9-16.4-35.6l0.5-1l0.5,0.2c13,13.4,24.2,28.6,33.1,45c1.3,2.4,2.5,4.7,3.8,7.1c-0.7,1.1-1.2,2.4-1.5,3.7
			c-0.3,2.1,0.5,4.1,2.2,5.4c-2.1,3.7-1.7,8.3,0.9,11.6c-1.9,2.8-3.6,5.1-5,7C543.6,372.8,539.3,362.8,534.2,353.2"/>
		<path class="st34" d="M363.8,417.1c-1.1,17-2.3,34.1-3.4,51.1v0.6c-10.1,0.3-20.1-0.6-30-2.5c-1.4-7-1.3-14.4-0.8-21.6
			c0.6-10.4,1.6-20.8,2.9-31.2l1.2,0.1C343.8,413.4,354,414.6,363.8,417.1"/>
		<path class="st35" d="M434.6,266.1c-8.7,6-14.7,15.2-19.4,24.7c-4.8,9.7-8.3,20-13.5,29.5s-12.1,18.5-21.8,23.3
			s-22.3,4.9-30.5-2.1l-0.6-0.2c4.6-13.8,10.3-27.2,16.9-40.1c7-13.8,15.9-27.7,30-34.1C407.9,261.6,421.4,262.8,434.6,266.1"/>
		<path class="st35" d="M383.7,498.4l-1.3-0.1c-0.5-80.7,20.9-160,61.9-229.5c2,0.6,4.1,1.3,6.1,2c-0.2,0-0.5,0.1-0.7,0.2
			c0,0-38.6,67.1-50.3,129.1c-6.1,32.6-9.6,65.6-10.4,98.7C387.2,498.8,385.4,498.6,383.7,498.4"/>
		<path class="st34" d="M362.2,425.2c-10.1-1.4-20.2-2.5-30.4-3.2c-1.3-0.1-1.6,2-0.4,2.1c10.2,0.7,20.3,1.7,30.4,3.2
			C363.1,427.5,363.5,425.4,362.2,425.2"/>
		<path class="st34" d="M441.6,271.1c-16,26.1-29,53.9-38.7,82.9c-9.7,29-16.1,58.9-19.2,89.3c-1.7,17-2.3,34-1.8,51.1
			c0,1.4,2.2,1.2,2.1-0.2c-0.8-30.4,1.8-60.8,7.8-90.6c6-29.8,15.3-58.7,27.8-86.4c7-15.5,15-30.6,23.9-45.1
			C444.3,270.8,442.4,269.9,441.6,271.1"/>
		<path class="st34" d="M425.7,452.1c-0.1-0.6-0.6-1-1.2-0.9c-0.6,0.1-1,0.6-0.9,1.1c0.8,9.6,1.6,19.2,2.5,28.8
			c0.1,0.6,0.6,1,1.2,0.9c0.6-0.1,1-0.6,0.9-1.1C427.4,471.3,426.6,461.7,425.7,452.1"/>
		<path class="st34" d="M452.2,293.5l-7,25.3c-0.4,1.3,1.8,1.7,2.1,0.4l7-25.3C454.7,292.5,452.6,292.1,452.2,293.5"/>
		<path class="st34" d="M465.8,292.5l-7.4,21.1c-0.5,1.3,1.5,2.2,2,0.9c2.5-7,4.9-14.1,7.4-21.1
			C468.2,292.1,466.3,291.2,465.8,292.5"/>
		<path class="st34" d="M464.3,452.4c-0.4-0.5-1-0.6-1.5-0.3l-6,3.2c-0.5,0.3-0.6,1-0.3,1.5c0.4,0.5,1,0.6,1.5,0.3l6-3.2
			C464.6,453.6,464.7,452.9,464.3,452.4"/>
		<path class="st34" d="M476,446.2c-0.2-0.6-0.8-0.8-1.4-0.6l-6,2.8c-0.5,0.3-0.7,0.9-0.4,1.5c0.2,0.4,0.7,0.6,1.2,0.5l6-2.8
			C475.9,447.3,476.2,446.7,476,446.2"/>
		<path class="st34" d="M470.4,442.9c-0.4-0.5-1-0.6-1.5-0.3l-6,4.1c-0.5,0.3-0.6,1-0.3,1.5c0.4,0.5,1,0.6,1.5,0.3l6-4.1
			C470.6,444,470.7,443.4,470.4,442.9"/>
		<path class="st34" d="M345.9,369.1c-0.6-0.1-1.1,0.3-1.3,0.9l-2.8,9.2c-0.1,0.6,0.3,1.1,0.9,1.3c0.6,0.1,1.1-0.3,1.3-0.9l2.8-9.2
			C346.9,369.8,346.5,369.2,345.9,369.1"/>
		<path class="st34" d="M343,384.8c-0.5-0.2-1.2,0-1.4,0.5c-1.3,3.2-1.6,6.7-1,10.2c0.1,0.6,0.6,1,1.2,1c0.6,0,1-0.6,1-1.2
			c0,0,0,0,0,0c-0.6-3-0.3-6.2,0.8-9C343.7,385.7,343.5,385.1,343,384.8"/>
		<path class="st34" d="M350.3,378.7c-0.6-0.1-1.1,0.3-1.3,0.9l-1.2,7.6c-0.1,0.6,0.3,1.1,0.9,1.3c0.6,0.1,1.1-0.3,1.3-0.9l1.2-7.6
			C351.3,379.4,350.9,378.8,350.3,378.7"/>
		<path class="st34" d="M432.9,340.3c-0.6-0.1-1.1,0.3-1.3,0.9l-3.2,10.4c-0.1,0.6,0.3,1.1,0.9,1.3c0.6,0.1,1.1-0.3,1.3-0.9
			l3.2-10.4C433.8,341,433.4,340.4,432.9,340.3"/>
		<path class="st34" d="M426.7,362l-2.5,12.4c-0.1,0.6,0.3,1.2,0.9,1.3s1.2-0.3,1.3-0.9l2.5-12.4c0.1-0.6-0.3-1.2-0.9-1.3
			S426.8,361.4,426.7,362"/>
		<path class="st34" d="M423.1,352.8l-2.4,10.4c-0.3,1.4,1.8,1.7,2.1,0.4l2.4-10.4C425.6,351.8,423.4,351.4,423.1,352.8"/>
		<path class="st0" d="M378.1,932.5c-8.2-0.5-16.2,2.5-22.1,8.2c-0.7,0.9-0.6,2.2,0.3,3c0.9,0.7,2.2,0.6,3-0.3
			c4.8-4.7,11.3-7.1,18-6.8c1.2,0.2,2.3-0.6,2.5-1.7C380.1,933.8,379.3,932.7,378.1,932.5"/>
		<path class="st0" d="M382.6,946.5c-6.8-0.6-13.5,1.4-18.9,5.5c-2.2,1.7,0.3,5.2,2.5,3.5c4.5-3.4,10-5.1,15.6-4.7
			c1.2,0.2,2.3-0.6,2.5-1.7C384.5,947.9,383.7,946.8,382.6,946.5"/>
		<path class="st0" d="M600.4,937.5c-0.4-1.1-1.7-1.7-2.8-1.3c-7.2,2.2-13.1,7.5-16,14.5c-0.5,1.1,0,2.3,1,2.9
			c1.1,0.5,2.3,0.1,2.9-1c0.3-0.8,0.7-1.5,1.1-2.3c0.2-0.3,0.4-0.7,0.6-1l0.1-0.1l0.1-0.1l0.4-0.5c0.5-0.7,1-1.3,1.5-1.9
			c0.3-0.3,0.6-0.7,0.9-1l0.4-0.4l0.2-0.2l0,0c1.2-1.1,2.6-2.1,4-2.9l0.3-0.2l0.4-0.2c0.4-0.2,0.7-0.3,1.1-0.5
			c0.8-0.3,1.6-0.6,2.5-0.9C600.1,939.9,600.7,938.7,600.4,937.5"/>
		<path class="st0" d="M610,944.3c-0.4-1.1-1.7-1.7-2.8-1.3c-4.8,2.3-8.9,5.8-11.8,10.2c-0.3,0.4-0.5,1-0.5,1.6
			c0.1,1.2,1.1,2.1,2.3,2c0.6,0,1.1-0.3,1.5-0.8c0.6-1,1.4-1.9,2.1-2.8c0.4-0.5,0.8-0.9,1.2-1.3l0.6-0.6c0,0,0.5-0.4,0.1-0.1
			l0.3-0.3c0.9-0.8,1.8-1.5,2.8-2.2c0.5-0.3,1-0.6,1.5-0.9l0.4-0.2l0.3-0.1l0.2-0.1c0.2-0.1,0.3-0.2,0.5-0.2
			C609.8,946.6,610.4,945.4,610,944.3"/>
		<path class="st0" d="M426.4,991.6l-48,0.5c-0.4,0-0.9,0.2-1.2,0.5l-54.4-44c-2.2-1.8-4.9,1.5-2.8,3.3l55.8,45.1
			c0.9,0.7,2.2,0.6,2.9-0.3c0.1-0.1,0.1-0.2,0.2-0.3l47.9-0.5C429.6,996,429.2,991.6,426.4,991.6"/>
		<path class="st0" d="M659.6,972.4l-106.5-9.2c-2.7-0.2-3.5,4-0.8,4.3l106.5,9.2C661.6,976.8,662.4,972.6,659.6,972.4"/>
	</g>
</g>
</svg>
