<svg xmlns="http://www.w3.org/2000/svg" xmlns:xlink="http://www.w3.org/1999/xlink" viewBox="0 0 1080 1080"><defs><clipPath id="a"><rect width="1080" height="1080" fill="none"/></clipPath><clipPath id="g"><rect x="687.3" y="294.6" width="91.8" height="610.1" fill="none"/></clipPath><clipPath id="i"><rect x="787.1" y="355.9" width="62.6" height="503.6" fill="none"/></clipPath><clipPath id="k"><rect x="550.1" y="356" width="52.7" height="516" fill="none"/></clipPath><clipPath id="m"><rect x="404.9" y="347.9" width="45.5" height="519.7" fill="none"/></clipPath><clipPath id="o"><rect x="311" y="294.6" width="38.2" height="610.1" fill="none"/></clipPath><clipPath id="q"><rect x="172.7" y="347.9" width="76.6" height="488.4" fill="none"/></clipPath><linearGradient id="as" x1="470.6" y1="266.75" x2="589.3" y2="266.75" gradientTransform="translate(0 480)" gradientUnits="userSpaceOnUse"><stop offset="0" stop-color="#591919"/><stop offset="1" stop-color="#d93d3d"/></linearGradient><linearGradient id="au" x1="327.3" y1="253.9" x2="525.5" y2="253.9" xlink:href="#as"/><linearGradient id="aw" x1="544.3" y1="477" x2="668.8" y2="477" gradientTransform="translate(0 480)" gradientUnits="userSpaceOnUse"><stop offset="0"/><stop offset="0.02" stop-color="#050302"/><stop offset="0.15" stop-color="#291b11"/><stop offset="0.29" stop-color="#462f1d"/><stop offset="0.43" stop-color="#5d3f27"/><stop offset="0.59" stop-color="#6d492e"/><stop offset="0.77" stop-color="#775032"/><stop offset="1" stop-color="#7a5233"/></linearGradient><linearGradient id="az" x1="316.1" y1="476.85" x2="434.2" y2="476.85" xlink:href="#aw"/><linearGradient id="bf" x1="378.14" y1="-77.11" x2="606.28" y2="-77.11" gradientTransform="translate(0 480)" gradientUnits="userSpaceOnUse"><stop offset="0" stop-color="#2f3273"/><stop offset="1" stop-color="#595fd9"/></linearGradient><linearGradient id="bk" x1="584.1" y1="-135.28" x2="654.31" y2="-135.28" gradientTransform="translate(0 480)" gradientUnits="userSpaceOnUse"><stop offset="0" stop-color="#ba7d4e"/><stop offset="0.23" stop-color="#d38e59"/><stop offset="0.5" stop-color="#e99d62"/><stop offset="0.76" stop-color="#f6a668"/><stop offset="1" stop-color="#faa96a"/></linearGradient><linearGradient id="cf" x1="493.17" y1="-242.96" x2="599.42" y2="-301.24" gradientTransform="translate(0 480)" gradientUnits="userSpaceOnUse"><stop offset="0" stop-color="#3b2719"/><stop offset="0.66" stop-color="#511d19"/><stop offset="0.87" stop-color="#591919"/></linearGradient><linearGradient id="ch" x1="482.6" y1="-217.81" x2="586.5" y2="-217.81" gradientTransform="translate(0 480)" gradientUnits="userSpaceOnUse"><stop offset="0" stop-color="#ba7d4e"/><stop offset="1" stop-color="#faa96a"/></linearGradient><linearGradient id="ck" x1="507.66" y1="-197.9" x2="521.51" y2="-197.9" xlink:href="#cf"/><linearGradient id="cm" x1="548.65" y1="-200.81" x2="559.8" y2="-200.81" xlink:href="#cf"/><linearGradient id="co" x1="565.49" y1="-234.12" x2="575.46" y2="-234.12" xlink:href="#cf"/><linearGradient id="cq" x1="522.47" y1="-249.13" x2="532.32" y2="-249.13" xlink:href="#cf"/><linearGradient id="cs" x1="567.94" y1="-243.46" x2="581.26" y2="-243.46" xlink:href="#cf"/><linearGradient id="cu" x1="342.17" y1="-66.81" x2="535.09" y2="-172.6" gradientTransform="translate(0 480)" gradientUnits="userSpaceOnUse"><stop offset="0" stop-color="#bf6c06"/><stop offset="0.2" stop-color="#ca7206"/><stop offset="0.52" stop-color="#d57807"/><stop offset="0.87" stop-color="#d97a07"/></linearGradient></defs><title>onboarding1</title><g clip-path="url(#a)"><polygon points="932.4 302.9 884 681.3 884 681.3 857.6 887.7 787.2 838 772 849 687.4 910.6 586.6 843.5 518.2 909.7 449.8 843.5 393.6 880.9 349 910.6 249.3 838 178.9 887.7 150.9 668.9 104.1 302.9 210.1 363.8 327.3 288.9 433.3 354.5 518.2 289.3 549.2 313.1 603.1 354.5 709.1 288.9 824.7 362.8 826.3 363.8 932.4 302.9" fill="#fff"/></g><g clip-path="url(#a)"><path d="M884,681.3,857.6,887.7,787.2,838,772,849c4.5-16.7,19-30.6,32.2-41.8,10-8.5,20-16.9,27.6-27.6s12.8-22.8,17.7-34.8c8.8-22.1,16.7-46,34.5-63.5" fill="#76989c" stroke="#000" stroke-miterlimit="10"/></g><g clip-path="url(#a)"><path d="M195.7,477.8a25.78,25.78,0,0,1-4-18.7c2.1-12.2,11-21.1,20.6-28.9a33.32,33.32,0,0,0,3.3-5.8c5.1-12.5,4.1-26.6,10.9-38.5,6.3-10.9,17.3-18.1,29.1-23,13.9-5.7,29.3-8.8,44.2-10.6,30.4-3.5,62.1.8,88.1,17.1a96.34,96.34,0,0,1,28.2,26.5c8,11.6,11.6,24.4,14.5,37.8,1.6,7.2,3.1,14.4,5.9,21.2,2.8,7,7.3,12.9,11.4,19.2,3.6,5.4,6.6,11.4,7,17.9a31.76,31.76,0,0,1-5.2,18.4c-7.7,12.2-20.3,19.4-33.4,25.4-7.3,3.4-14.8,6.5-21.7,10.6A100.14,100.14,0,0,0,377.1,560c-10.3,9.7-19.6,20.6-31.4,28.8a80.32,80.32,0,0,1-40.2,13.7c-27.6,1.7-54.3-11.5-69.2-33.7-7.5-11.2-10.8-23.9-13.5-36.8-2.8-13.3-5.3-27.4-13.8-38.6-4.1-5.6-9.5-10-13.3-15.6" fill="#76989c"/></g><g clip-path="url(#a)"><path d="M860.4,471.6c-4.9,16.2-15.9,28.9-26.1,42.3s-19.9,28.6-17.1,45.7c2.6,16.5,14,30.8,13.6,47.9-.3,16.4-9.6,30.8-20.4,43-11.2,12.6-24.6,23.3-35.2,36.4-5.1,6.4-9.7,13.5-12.3,21.2-2.8,8.5-2.7,17.1-1.1,25.9,1.6,9,4.1,18,3.7,27.3a38.78,38.78,0,0,1-6.6,20.1c-7.8,11.5-20.9,19.2-34.5,22.8-36.8,9.8-72.4-10.5-107.2-18.6-18-4.2-37.6-5.9-55.1,1-15.2,6-26.4,18.1-41.1,24.9-14.9,7-31.3,5.3-45.2-3-14.4-8.6-24.6-21.6-32.8-35.5-8.6-14.4-15.9-29.8-27.5-42.3-10.5-11.2-26.9-18.3-33-32.8-6.5-15.2,2.7-31.2,14-41.8,12.1-11.4,28.2-18,40.1-29.7,10.5-10.2,14.7-23.6,19-36.9,3.9-11.8,8.1-24.5,18.1-32.9,11.6-9.7,27-9.2,41.4-7.2s31.9,6.1,44.7-3.2c11.3-8.2,14.3-23.9,10.9-36.4-4-15.2-17.2-26.8-30.7-34.7-13.1-7.7-28-12.4-40.3-21.3-12-8.7-18.9-21.9-13.9-36.2,5.4-15.4,20-25,33.2-34,6.8-4.5,13.6-9.3,19-15.3a43.62,43.62,0,0,0,10.5-23.2c1.6-10.6.6-21.4.8-32.1l53.9,41.4,106-65.6,115.6,73.9c-1.1,2.1-2.1,4.1-3.2,6.2-5.8,11.7-12,25.7-3.6,37.8,7.9,11.2,22.6,15.7,32.7,24.6,11.9,10.6,14.2,25.8,9.7,40.3" fill="#76989c" stroke="#000" stroke-miterlimit="10"/></g><g clip-path="url(#a)"><path d="M393.6,880.9,349,910.6,249.3,838l-70.4,49.8L150.9,669a60,60,0,0,1,10.3,1.8A59,59,0,0,1,194,693.3c8.5,11.6,13.8,25,22.1,36.8a58.59,58.59,0,0,0,15.4,15.6c6.8,4.6,14.6,7.5,22.6,9.7,28,7.6,65.6,7.5,81.9,34.9,8,13.4,8.6,29.2,15,43.2,6.5,14.3,19.6,24.3,31.1,35a136.07,136.07,0,0,1,11.5,12.4" fill="#76989c"/></g><g clip-path="url(#a)"><g clip-path="url(#g)"><polygon points="687.3 904.7 709.1 294.6 779 339.3 703.5 892.9 687.3 904.7" fill="#d7e5f4"/></g></g><g clip-path="url(#a)"><g clip-path="url(#i)"><polygon points="787.1 831.9 826.2 369.5 849.7 355.9 826.2 859.6 787.1 831.9" fill="#d7e5f4"/></g></g><g clip-path="url(#a)"><g clip-path="url(#k)"><polygon points="602.8 360.4 586 837.2 550.1 872 597.1 356 602.8 360.4" fill="#d7e5f4"/></g></g><g clip-path="url(#a)"><g clip-path="url(#m)"><polygon points="433.6 360.4 450.4 837.2 404.9 867.5 413.4 347.9 433.6 360.4" fill="#d7e5f4"/></g></g><g clip-path="url(#a)"><g clip-path="url(#o)"><polygon points="349.2 904.7 327.4 294.6 311 305.1 318.1 882.1 349.2 904.7" fill="#d7e5f4"/></g></g><g clip-path="url(#a)"><g clip-path="url(#q)"><polygon points="210.2 369.5 249.3 831.9 243.2 836.3 172.7 347.9 210.2 369.5" fill="#d7e5f4"/></g></g><g clip-path="url(#a)"><path d="M424.3,478.4c-1-19.1-24.6-23.7-33.2-38.3-3-5-3.4-10.9-3.7-16.6s-.8-11-2.6-16.2c-3.6-10.1-11.3-18.7-20.5-24.6-19.2-12.4-44.5-16.3-67.5-14.3a1.59,1.59,0,0,0-1.3-.3,91.11,91.11,0,0,0-20,4.1c-.6.1-1.1.3-1.7.4a2,2,0,0,0-.8.4,59.29,59.29,0,0,0-12,6.2c-8.7,6-15.3,14.6-17.4,24.8-1.3,6.2-1,12.5-1.7,18.8a40.43,40.43,0,0,1-5.8,17.2c-5.7,9.5-13.5,18.3-14.1,29.8-.5,10.6,6.9,17.1,15.5,22.5,4,2.5,8.1,4.9,11.3,8.4a29.65,29.65,0,0,1,6.6,13.4c2.4,10,2,20.3,4.7,30.3A44.46,44.46,0,0,0,277,568.5c18.1,13.2,43.3,11,60-3.3,15.6-13.5,23.9-33,42.3-43.7,10.1-5.9,21.7-9.6,30.9-16.9,7.7-6.5,14.6-15.8,14.1-26.2M415.8,492c-6.1,9.3-16.2,14.4-26.1,19.2-9.5,4.6-18.7,9.4-26.2,16.8-6.8,6.6-12.2,14.4-18,21.7s-12.4,14.4-21,18.8a44.18,44.18,0,0,1-32.7,2.8,41.92,41.92,0,0,1-23.1-17.8c-5.3-8.5-6.1-18.3-7.2-27.9-1-9-2.2-18.5-8-25.9-5.6-7.3-14.7-10.4-21.4-16.4-8.7-7.9-6-19.2-.7-28.2,5.6-9.5,12.8-17.6,14.4-28.7s.1-22.5,6.5-32.5c5.5-8.6,14.7-14.4,24.5-17.8,23.2-6.1,49-5.5,71.4,3.2,10.3,4,20,10,26.6,18.7a40.27,40.27,0,0,1,6.9,13.9c1.3,5.3,1.2,10.7,1.7,16.1.5,5.1,1.5,10.1,4.2,14.6a35.19,35.19,0,0,0,7.7,8.6c6.3,5.4,14.1,9.5,19.6,15.7,6.5,7.5,6.3,16.9.9,25.1" fill="#bcd7f7"/></g><g clip-path="url(#a)"><path d="M325.2,394.5c-7.9-6.1-19.1-7.4-28.9-5.9a46.63,46.63,0,0,0-18.7,7.3c-5.8,1.7-10.3,6.2-13,11.6-4.7,9.6-2.2,20.3-.4,30.3,1.9,10.5,1,21.7,4.9,31.8,2.9,7.6,9.4,15,18.3,16,9.2,1,17.9-4.6,22.6-11.8,5.7-8.7,6.6-19.2,8-29.1.8-5.4,1.7-10.9,4-16,2-4.5,5.1-8.3,7.4-12.6,4.2-7.8,3.1-16-4.2-21.6m1.4,17.6c-1.5,3.6-3.9,6.8-6,10.2a43.32,43.32,0,0,0-4.9,12c-3.9,15.1-1.3,38.6-19.5,45.9-8.2,3.3-15.9-.4-20.4-7.3-5-7.6-5-16.9-5.7-25.6-1-10.6-5.1-21.5-3.4-32.1a23.12,23.12,0,0,1,4-9.4,2,2,0,0,0,2.3-.6,43,43,0,0,1,6.9-5.9,18.7,18.7,0,0,1,3.4-.3,2.27,2.27,0,0,0,2.5-2.1,2.77,2.77,0,0,0-.1-.9c9.8-4.6,21.6-5.8,31.6-1.6,7.3,3.3,12.6,9.7,9.3,17.7" fill="#bcd7f7"/></g><g clip-path="url(#a)"><path d="M826.1,441.8c-6.2-8-15.3-13.1-22.5-20.1-9-8.6-11.8-20.1-9.4-31.9,2.5-12.4,10-23.2,17.2-33.6,1.5-2.2-1.8-4.9-3.3-2.6-7.1,10.3-14.4,20.9-17.5,33-2.8,10.9-1.9,23,5,32.4,5.9,8,14.9,13.3,22.2,20,3.7,3.4,7,7.3,8.8,12,2.1,5.6,1.7,11.6.1,17.3-3.5,11.8-12.3,21-20.7,30-8,8.6-15.5,17.5-19,28.7-6.6,20.9.7,43,2.2,64,.8,10.5.1,21.3-4.7,30.9-4,8-10.8,14.4-18.2,19.7-14.7,10.5-32.3,17.5-45.1,30.4a44.37,44.37,0,0,0-12.5,24c-1.9,11.5,0,23.3-2.4,34.8-2,10-8.2,18.3-18.2,22.3-9,3.6-19.3,3.8-28.7,1.6-21.3-5-33.9-26-55.6-29.7-11.5-2-22.6,2.4-31.3,9.4-9.6,7.8-15.9,18.1-22.9,27.9-6.8,9.5-14.5,18.6-26,23-9.9,3.8-21.9,3.5-28.9-5.1-6.4-7.8-7.4-18.5-11.1-27.5s-10.2-14.9-18.9-19.4c-8.3-4.3-17.6-7-25-12.6-9-6.8-11.3-17.2-7.3-27.3,8.5-21.3,33.9-30.6,42.7-51.6,2.4-5.6,2.9-11.3,2.8-17.3,0-6.5-.4-13,2.2-19.2,4.2-9.7,13.7-16.1,23.5-20.1,22.9-9.4,49.9-6.4,70.2-21.8,17.6-13.3,26.7-35.4,22-56.5a58.71,58.71,0,0,0-15.2-28.1c-8.6-8.8-19.9-13.7-31-18.9-10.7-5-22-11.2-27.4-21.9-5.2-10.4-1-20.6,6.3-28.9s16.3-15,22.8-24a77.34,77.34,0,0,0,13.1-30.6,72.94,72.94,0,0,0-1.2-32.2c-.7-2.6-4.7-1.1-4,1.4,5.9,22.5-.3,47.5-16.3,65.1-7.3,8-16.3,14.7-22.3,23.8-5.9,8.9-6.8,19.4-1.4,28.7,12.4,21.6,41.9,23.2,58.5,40.5,16.2,16.8,19.6,41.8,8.2,61.9a55.21,55.21,0,0,1-25.7,23c-12.2,5.3-25.7,6.7-38.7,9.3-20.8,4.2-45.5,14.3-47.7,37.3-.6,6.7.4,13.5-.7,20.2a34.91,34.91,0,0,1-6.9,15c-6.8,9-16.1,15.7-24.1,23.6s-15.5,18.4-16.1,29.8c-.5,9.7,4.7,18,12.9,23.3,7.9,5.2,17.1,8,25.4,12.5a36.24,36.24,0,0,1,11,8.8c3.1,4,4.9,8.8,6.4,13.6,2.9,9.1,5,19.1,12.8,25.8,8,6.9,19.5,7,29.2,3.7,24.2-8.2,31.5-33.6,48.6-49.5,8.8-8.2,20.5-13.7,33-10.7,10.9,2.7,19.6,10.3,28.3,16.7,8.3,6,16.8,11.1,27.1,13.1,9.5,1.8,19.9,1.4,28.9-2.2a33.44,33.44,0,0,0,19.3-19.5c4-11.1,2.5-23,3.3-34.5.7-10.2,3.8-19.3,11-27,6-6.5,13.7-11.5,21.3-16.1,15.5-9.3,33.1-17.9,42.4-33.7,11.4-19.2,5.8-42.2,3.1-62.8-1.4-10.6-2.3-21.6.2-32.1,2.7-11.7,10.3-20.9,18.5-29.7,8.3-9,17-18.1,21.2-29.7,3.7-10.3,3.2-21.2-3.8-30.1" fill="#bcd7f7"/></g><g clip-path="url(#a)"><path d="M788.8,433.7c-8.3-13.8-22.9-24.5-27.4-40.2-5.3-18.6,10.4-34.9,13.1-52.7a32.49,32.49,0,0,0-.7-12.8c-.7-2.6-4.7-1.1-4,1.4,2.4,9.1-1.1,18.2-4.7,26.6-3.5,8.2-7.7,16.5-8.8,25.4-2,16.7,9.3,29.5,19.5,41.8,5,6,10.1,12.2,12.8,19.5,3.1,8.3,1.6,16.5-2.6,24.2-4.5,8.2-11,15.4-15.3,23.7-4.9,9.6-5.6,20.3-6.2,30.8-.6,10.2-1.4,20.8-7.1,29.7a41.32,41.32,0,0,1-22,16.5,40.62,40.62,0,0,1-48-19.5c-9.5-18.2.2-38.3,3.5-56.8,1.6-9.1,1.7-18.7-2.3-27.2s-11.1-14.7-17.4-21.6a47.29,47.29,0,0,1-8.5-11.8,36.13,36.13,0,0,1-3.2-16.2c.4-11.2,5.1-21.8,10.2-31.7,9.2-17.8,20.8-37.2,14.4-57.8a31.49,31.49,0,0,0-6.7-11.8c-1.8-2-5.3.4-3.5,2.4,15.4,17.5,4.5,41.4-4.7,58.9-9.9,18.8-21.1,41.6-8.3,61.8,5.3,8.4,13.4,14.6,19.4,22.5,6.2,8.2,8.2,17.5,7,27.5-2.3,19.2-12.8,38.8-6.1,58.2,5.8,17.1,23.7,29.8,42.7,29.3,19.7-.5,37.1-14,42.1-32,3-10.7,2.3-21.9,3.7-32.8a49.07,49.07,0,0,1,4.5-15.9,93.67,93.67,0,0,1,7.8-12.5c5.4-7.6,11.2-15.7,12.3-25.1,1-7.7-1.4-15.1-5.5-21.8" fill="#bcd7f7"/></g><g clip-path="url(#a)"><path d="M342.5,856.8c-7-6.5-16.6-10.4-22.6-17.9-3.4-4.3-4.7-9.6-6.6-14.6a30.1,30.1,0,0,0-7.6-11.3c-15-13.8-37.9-11-56.8-13.8-11.1-1.7-21-5.7-27.9-14.4-6.6-8.2-10-18.2-13.7-27.8-4.1-10.6-8.9-21.9-18.3-29.3-8.3-6.5-19.9-10-30.1-5.8a2.09,2.09,0,1,0,1.5,3.9c9.3-3.8,19.6-.2,26.8,5.9,8,6.7,12.2,16.7,15.8,26,3.5,9,6.6,18.2,12.1,26.3a42.08,42.08,0,0,0,22.4,16.9c18.6,5.9,39.6,1.5,57.5,10a28.2,28.2,0,0,1,10.3,7.8c3.2,4,4.6,8.7,6.3,13.4a31.57,31.57,0,0,0,7.3,12,71.27,71.27,0,0,0,10.7,8.3c4.2,2.8,8.6,5.7,12,9.5a33.25,33.25,0,0,1,2.6,40.9c-1.6,2.2,1.7,4.8,3.3,2.7a37.61,37.61,0,0,0-5-48.7" fill="#bcd7f7"/></g><g clip-path="url(#a)"><path d="M869.6,758.7c-1.9,17.1-17,28.4-29.9,38.7-12.3,9.8-24.8,21.2-26.4,37.3-.8,8,1.3,15.7,7,21.7,1.9,2,4.6-1.2,2.8-3.2-10.9-11.3-4.7-28.8,4.4-39.1,10.6-12.1,25.4-20,35.8-32.3,5.5-6.5,9.6-14,10.5-22.3.3-2.7-4-3.5-4.2-.8" fill="#bcd7f7"/></g><g clip-path="url(#a)"><path d="M642.8,657.3c-3.7-8.9-9.9-16.7-16.3-24.1-6.8-7.9-14.2-15.3-21.5-22.8-4.1-4.1-8.5-8.3-13.5-11.4a1.56,1.56,0,0,0-.8-.6l-.5-.2a34.7,34.7,0,0,0-7.1-3.1c-6.7-2-13.6-1.3-20.1.7A47.54,47.54,0,0,0,539.8,607a46.56,46.56,0,0,0-13.4,20.9c-2.8,9.1-.5,19.2-4.2,28-2.9,7.1-9.5,11.8-15.7,16.1s-13.1,8.8-17.5,15.2c-9.4,13.5-7.7,33.1,6.8,42.8a31.08,31.08,0,0,0,22.4,5.1c7.2-1.3,13.1-5.2,18.2-10,11-10.3,19-25.3,35.8-27.8,18.6-2.7,37.4,6.7,55.7.3,17.5-5.9,21.2-25.1,14.9-40.3M630.7,692c-14.9,8.7-34.1,1.4-50.1,1-8.2-.2-16.2,1.3-23.1,5.6-5.7,3.6-10.3,8.7-14.7,13.6-8.7,9.8-18.7,21.6-33.8,19a27,27,0,0,1-18.3-12.3c-4.1-6.8-4.3-15.5-1.6-22.8,5.3-14.2,21-19.3,31.1-29.7,5.6-5.8,7.8-12.8,8.3-20.7.5-8.5,1-16.4,5.1-24.1a43.25,43.25,0,0,1,9.2-11.6,2,2,0,0,0,1.1-.3c6.3-3.8,13-7.8,20.2-10a45.29,45.29,0,0,1,23.8,2,40.21,40.21,0,0,1,7.2,5c7.1,6.1,13.5,13.1,19.9,19.8a170.69,170.69,0,0,1,18.1,21.7c4.8,7.1,8.5,15.1,8.5,23.7-.1,8.1-3.7,15.9-10.9,20.1" fill="#bcd7f7"/></g><g clip-path="url(#a)"><path d="M826.5,358.1l-117.3-75L603.5,348.5l-85.2-65.4L433,348.5,327.3,283.1,210,358.1,97.8,293.6l77.1,602.9L249.2,844l99.7,72.6,100.3-66.8,69,66.8,69-66.8,100.3,66.8L787.2,844l74.3,52.6,77.1-602.9ZM853.6,879l-60.4-42.7-6.1-4.3-6,4.4-93.8,68.4L593,841.9l-7-4.6-6,5.8L518.2,903l-61.8-60-6-5.8-7,4.6-94.3,62.8-93.8-68.4-6-4.4-6.1,4.3L182.8,879,110.3,312.1l94.4,54.3,5.5,3.1,5.4-3.4,111.8-71.5,100.1,62,6.1,3.8,5.7-4.4,78.9-60.6L597.1,356l5.7,4.4,6.1-3.8,100.1-62L820.9,366l5.3,3.4,5.5-3.1L926.1,312Z" fill="#465a5c"/></g><g clip-path="url(#a)"><path d="M677,412.1c-16.6,0-30.1,12.8-30.1,28.7,0,0-3.1,21.4,30.1,59,0,0,23.8-27.2,29.1-51.7V448a28.44,28.44,0,0,0,1-7.2c0-15.8-13.4-28.7-30.1-28.7m-2.7,42.2c-9.7,0-17.5-7.5-17.5-16.7s7.8-16.7,17.5-16.7,17.5,7.5,17.5,16.7-7.9,16.7-17.5,16.7" fill="#d93d3d"/></g><g clip-path="url(#a)"><path d="M601.9,558.1c-13.6,0-24.6,10.5-24.6,23.5,0,0-2.6,17.5,24.6,48.2,0,0,19.5-22.2,23.8-42.3v-.1a23.31,23.31,0,0,0,.8-5.9c0-12.9-11-23.4-24.6-23.4m-2.3,34.5c-7.9,0-14.3-6.1-14.3-13.7s6.4-13.6,14.3-13.6,14.3,6.1,14.3,13.6-6.4,13.7-14.3,13.7" fill="#d93d3d"/></g><g clip-path="url(#a)"><path d="M280.5,405c-13.6,0-24.6,10.5-24.6,23.5,0,0-2.6,17.5,24.6,48.2,0,0,19.5-22.2,23.8-42.3v-.1a23.31,23.31,0,0,0,.8-5.9c0-12.9-11-23.4-24.6-23.4m-2.3,34.5c-7.9,0-14.3-6.1-14.3-13.6s6.4-13.6,14.3-13.6,14.3,6.1,14.3,13.6-6.4,13.6-14.3,13.6" fill="#d93d3d"/></g><g clip-path="url(#a)"><path d="M275.7,495.6h-.2a1,1,0,0,1-.9-1.2h0c.4-2.5.9-5,1.3-7.5a1.07,1.07,0,0,1,1.3-.8,1,1,0,0,1,.8,1.2c-.5,2.5-.9,5-1.3,7.4a1,1,0,0,1-1,.9" fill="#fff" stroke="#fff" stroke-miterlimit="10" stroke-width="2"/></g><g clip-path="url(#a)"><path d="M472.8,682.4h0a77.67,77.67,0,0,1-15.2-1.6,1,1,0,0,1-.8-1.3h0a1.07,1.07,0,0,1,1.3-.8,72.71,72.71,0,0,0,14.7,1.6,1.11,1.11,0,0,1,1.1,1.1,1.1,1.1,0,0,1-1.1,1h0m15-1.5a1.33,1.33,0,0,1-1.1-.8,1.07,1.07,0,0,1,.8-1.3,63.6,63.6,0,0,0,12.6-4l1.4-.7a1.11,1.11,0,0,1,1.4.5,1,1,0,0,1-.5,1.4h0c-.5.2-1,.5-1.5.7a73.05,73.05,0,0,1-13,4.2h-.1m-44.2-4.8c-.2,0-.3,0-.4-.1a63.24,63.24,0,0,1-13.2-7.9,1.07,1.07,0,0,1,1.3-1.7A67.79,67.79,0,0,0,444,674a1.16,1.16,0,0,1,.6,1.4,1.2,1.2,0,0,1-1,.7m71.6-7.2a1.11,1.11,0,0,1-1.1-1.1,1.05,1.05,0,0,1,.5-.9,114.35,114.35,0,0,1,13.5-6.9,1.08,1.08,0,0,1,1.4.7,1,1,0,0,1-.6,1.3,98,98,0,0,0-13.3,6.8c-.1.1-.2.1-.4.1m58.1-9.8a1.05,1.05,0,0,1-.1-2.1h.6a39.17,39.17,0,0,0,13.5-3.6,1.12,1.12,0,1,1,1,2,42,42,0,0,1-14.3,3.7h-.7m-15-.3h0c-5-.3-10-.4-15-.2a1.1,1.1,0,1,1-.2-2.2,128.5,128.5,0,0,1,15.2.2,1.1,1.1,0,1,1,0,2.2m-138.3-1a.91.91,0,0,1-.8-.4,99.12,99.12,0,0,1-8.8-12.4,1.08,1.08,0,0,1,1.8-1.2h0a105.48,105.48,0,0,0,8.6,12.1,1.09,1.09,0,0,1-.1,1.5.87.87,0,0,1-.7.4m-16-25.4a1.1,1.1,0,0,1-1-.6c-1.5-2.9-2.9-5.8-4.3-8.7l-2.4-4.8a1.12,1.12,0,1,1,2-1h0l2.4,4.8c1.4,2.9,2.9,5.8,4.3,8.6a1.08,1.08,0,0,1-.5,1.5h0a1.69,1.69,0,0,1-.5.2m-14-26.6a1.05,1.05,0,0,1-.9-.5,127.55,127.55,0,0,0-8.3-12.4,1.07,1.07,0,0,1,1.7-1.3h0a120.78,120.78,0,0,1,8.5,12.6,1.13,1.13,0,0,1-.4,1.5,3.54,3.54,0,0,1-.6.1m-18.5-23.6a.91.91,0,0,1-.7-.3,55.5,55.5,0,0,0-12.2-8.2,1.13,1.13,0,0,1-.4-1.5,1.09,1.09,0,0,1,1.3-.4,60,60,0,0,1,12.7,8.5,1,1,0,0,1,.1,1.5.91.91,0,0,1-.8.4m-26.6-13.3h-.3c-4.5-1.1-9.1-2-14.7-2.9a1.09,1.09,0,0,1-.9-1.2,1,1,0,0,1,1.2-.9h.1c5.6.9,10.3,1.8,14.9,2.9a1.07,1.07,0,0,1,.8,1.3,1.17,1.17,0,0,1-1.1.8m-29.7-5.5H315a84.5,84.5,0,0,1-14.7-4.1,1,1,0,0,1,.6-2c.1,0,.1,0,.2.1a77.74,77.74,0,0,0,14.3,4,1,1,0,0,1,.8,1.3h0c0,.4-.4.7-1,.7m-27.3-11.6a.91.91,0,0,1-.7-.3c-.5-.5-1.1-1-1.6-1.5a39.73,39.73,0,0,1-7.8-10.8,1.12,1.12,0,1,1,2-1,36.65,36.65,0,0,0,7.3,10.2c.5.5,1,.9,1.5,1.4a1.09,1.09,0,0,1,.1,1.5,2.51,2.51,0,0,1-.8.5m-13.6-26.3a1.17,1.17,0,0,1-1.1-.9,40.31,40.31,0,0,1-.5-5c-.1-1.7-.1-3.2-.1-4.8s.1-3.6.2-5.5a1.16,1.16,0,0,1,1.1-1,1,1,0,0,1,1,1.1h0c-.1,1.8-.2,3.6-.2,5.3s0,3.1.1,4.6.3,3.2.5,4.8a1,1,0,0,1-.9,1.2l-.1.2" fill="#fff" stroke="#fff" stroke-miterlimit="10" stroke-width="2"/></g><g clip-path="url(#a)"><path d="M599.1,645.5a.75.75,0,0,1-.5-.1,1.1,1.1,0,0,1-.4-1.5h0a13.48,13.48,0,0,0,1.8-6.7,1,1,0,0,1,1.1-1,1.11,1.11,0,0,1,1.1,1.1h0a17,17,0,0,1-2.1,7.7,1.59,1.59,0,0,1-1,.5" fill="#fff" stroke="#fff" stroke-miterlimit="10" stroke-width="2"/></g><g clip-path="url(#a)"><path d="M600.1,551.6a1.09,1.09,0,0,1-1.1-1,66,66,0,0,1,.1-7.7,1.16,1.16,0,0,1,1.1-1,1.12,1.12,0,0,1,1,1.2,62.57,62.57,0,0,0-.1,7.5.94.94,0,0,1-1,1Z" fill="#fff" stroke="#fff" stroke-miterlimit="10" stroke-width="2"/></g><g clip-path="url(#a)"><path d="M603.1,527.6h-.3a1,1,0,0,1-.7-1.3h0a82.14,82.14,0,0,1,6.4-15.7,1.05,1.05,0,1,1,1.9.9.1.1,0,0,1-.1.1,84.94,84.94,0,0,0-6.3,15.3.81.81,0,0,1-.9.7m15.7-29.4a1.11,1.11,0,0,1-1.1-1.1.91.91,0,0,1,.3-.7,90,90,0,0,1,11.9-12,1.06,1.06,0,1,1,1.4,1.6h-.1a86.3,86.3,0,0,0-11.6,11.8.91.91,0,0,1-.8.4" fill="#fff" stroke="#fff" stroke-miterlimit="10" stroke-width="2"/></g><g clip-path="url(#a)"><path d="M644.3,476.9a1,1,0,0,1-1-1.1,1.05,1.05,0,0,1,.5-.9q3.45-1.8,6.9-3.3a1.08,1.08,0,0,1,.8,2c-2.3,1-4.5,2-6.7,3.2a.75.75,0,0,1-.5.1" fill="#fff" stroke="#fff" stroke-miterlimit="10" stroke-width="2"/></g><g clip-path="url(#a)"><path d="M703.7,472.3a1,1,0,0,1-1-1.1,1.06,1.06,0,0,1,.9-1,39.36,39.36,0,0,1,7.7-.5,1.1,1.1,0,0,1,0,2.2h-.4a54.92,54.92,0,0,0-7,.5l-.2-.1" fill="#fff" stroke="#fff" stroke-miterlimit="10" stroke-width="2"/></g><g clip-path="url(#a)"><path d="M811.8,509.7a45.33,45.33,0,0,1-5.2-.3,1.1,1.1,0,0,1,.2-2.2,43.55,43.55,0,0,0,14.4-.8,1.08,1.08,0,0,1,.5,2.1h0a41.89,41.89,0,0,1-9.9,1.2m-19.6-3.5h-.3a103.47,103.47,0,0,1-13.8-5.8,1.05,1.05,0,1,1,.9-1.9,98.59,98.59,0,0,0,13.5,5.6,1.08,1.08,0,0,1,.7,1.4,1,1,0,0,1-1,.7m42.8-3.1a1.05,1.05,0,0,1-.9-.5,1.1,1.1,0,0,1,.3-1.5h0a58.42,58.42,0,0,0,11.2-9.2,1.06,1.06,0,1,1,1.6,1.4l-.1.1a61.79,61.79,0,0,1-11.6,9.5.76.76,0,0,1-.5.2m-69.4-9.7a4.33,4.33,0,0,1-.5-.1l-1.8-1.1c-3.5-2.1-7.2-4.3-10.9-6.4a1.13,1.13,0,0,1-.4-1.5,1.1,1.1,0,0,1,1.5-.4h0c3.7,2.1,7.4,4.3,10.9,6.5l1.8,1.1a1.13,1.13,0,0,1,.4,1.5,2.11,2.11,0,0,1-1,.4m90.2-11.2a1.42,1.42,0,0,1-.6-.2,1.1,1.1,0,0,1-.3-1.5h0l.6-.8c2.2-3.2,4.4-6.5,6.5-9.7l1.2-1.8a1.08,1.08,0,0,1,1.8,1.2l-1.2,1.8c-2.1,3.2-4.3,6.5-6.5,9.7l-.6.9a1,1,0,0,1-.9.4M739.7,479a.9.9,0,0,1-.5-.1,83.53,83.53,0,0,0-13.7-5.1,1.12,1.12,0,0,1,.4-2.2h.2a87.18,87.18,0,0,1,14,5.2,1.05,1.05,0,0,1,.5,1.4,1,1,0,0,1-.9.8m132.7-21.3a1.85,1.85,0,0,1-.7-.2,1,1,0,0,1-.2-1.5,91.66,91.66,0,0,1,8.7-10,15.38,15.38,0,0,1,1.3-1.2,1.06,1.06,0,0,1,1.4,1.6h0l-1.2,1.2a86.8,86.8,0,0,0-8.5,9.7c-.1.3-.4.4-.8.4m21.6-20a1.11,1.11,0,0,1-1.1-1.1,1.05,1.05,0,0,1,.5-.9c3.7-2.4,8-4.8,13-7.4a1.12,1.12,0,1,1,1,2,142.23,142.23,0,0,0-12.8,7.3c-.1.1-.3.1-.6.1m26.2-13.8a1.11,1.11,0,0,1-.5-2.1c4.1-2,8.8-4.2,13.3-6.5a1.12,1.12,0,1,1,1,2h0c-4.5,2.4-9.2,4.6-13.3,6.5a4.33,4.33,0,0,1-.5.1m26.1-14a1.11,1.11,0,0,1-1.1-1.1,1.05,1.05,0,0,1,.5-.9c2.3-1.5,4.5-3.1,6.5-4.6,1.7-1.4,3.4-2.8,5.1-4.3a1.06,1.06,0,0,1,1.6,1.4l-.1.1c-1.7,1.6-3.4,3.1-5.2,4.5-2,1.6-4.3,3.2-6.6,4.7a.84.84,0,0,1-.7.2m21.5-20.1a1.07,1.07,0,0,1-.6-.2,1,1,0,0,1-.2-1.5h0a75.27,75.27,0,0,0,7.5-12.5,1.08,1.08,0,0,1,2,.8.1.1,0,0,1-.1.1,79.57,79.57,0,0,1-7.8,12.8.79.79,0,0,1-.8.5m12.9-26.5h-.3a1.17,1.17,0,0,1-.8-1.3,77.65,77.65,0,0,0,2.6-14.4,1.1,1.1,0,0,1,2.2.2h0a75.5,75.5,0,0,1-2.7,14.8c0,.4-.4.7-1,.7m2.5-29.3a1.09,1.09,0,0,1-1.1-1,20.24,20.24,0,0,0-.4-2.6,67.56,67.56,0,0,0-2.8-11.6,1.1,1.1,0,0,1,1.9-1.1.6.6,0,0,1,.1.4,70.86,70.86,0,0,1,2.8,11.9,25.12,25.12,0,0,1,.4,2.7,1.13,1.13,0,0,1-.9,1.3h-.1M791.8,306.8h-4.6c-2.6,0-5.1-.1-7.6,0a1.1,1.1,0,1,1,0-2.2h14.8a1,1,0,0,1,1.1.9v.2a1.11,1.11,0,0,1-1.1,1.1h-2.6m182.2-.9a1.05,1.05,0,0,1-.9-.5,83,83,0,0,0-8.2-12.1,1.07,1.07,0,0,1,1.7-1.3,79.49,79.49,0,0,1,8.4,12.4,1.13,1.13,0,0,1-.4,1.5H974m-164.9-1a1.11,1.11,0,0,1-1.1-1.1,1,1,0,0,1,.8-1,50.67,50.67,0,0,0,13.1-6.2,1.08,1.08,0,0,1,1.2,1.8,49.76,49.76,0,0,1-13.6,6.4.76.76,0,0,1-.4.1m25.2-15.2a.91.91,0,0,1-.8-.4,1.09,1.09,0,0,1,.1-1.5h0l2.7-2.2c2.9-2.4,5.8-4.9,8.9-7.2a1.07,1.07,0,1,1,1.3,1.7c-3,2.3-5.9,4.7-8.8,7.1l-2.7,2.2a1.08,1.08,0,0,1-.7.3M955.4,283a.91.91,0,0,1-.7-.3,82.78,82.78,0,0,0-11.8-8.6,1.1,1.1,0,0,1,1.1-1.9,81.36,81.36,0,0,1,12.1,8.8,1.09,1.09,0,0,1,.1,1.5.82.82,0,0,1-.8.5m-97.2-10.6a1.1,1.1,0,0,1-1-.6,1.08,1.08,0,0,1,.5-1.5,84.51,84.51,0,0,1,13.9-5.7,1.11,1.11,0,1,1,.7,2.1h0a80,80,0,0,0-13.5,5.6,1.76,1.76,0,0,1-.6.1m71.9-4.4a.6.6,0,0,1-.4-.1,86.69,86.69,0,0,0-14.1-3.9,1.13,1.13,0,0,1-.9-1.3,1.09,1.09,0,0,1,1.2-.9h0a82.08,82.08,0,0,1,14.5,4,1,1,0,0,1,.6,1.4,1,1,0,0,1-.9.8m-43.8-4.5a1.11,1.11,0,0,1-1.1-1.1,1.17,1.17,0,0,1,.9-1.1,92.46,92.46,0,0,1,14.9-.9,1.11,1.11,0,0,1,1.1,1.1h0a1.09,1.09,0,0,1-.9,1.1H901a88.79,88.79,0,0,0-14.6.9h-.1" fill="#fff" stroke="#fff" stroke-miterlimit="10" stroke-width="2"/></g><g clip-path="url(#a)"><path d="M758.2,312.5a1.19,1.19,0,0,1-.9-.5,1.1,1.1,0,0,1,.2-1.5h0a23.26,23.26,0,0,1,7-3.6,1.11,1.11,0,0,1,1.4.6h0a1.08,1.08,0,0,1-.7,1.4h0a25.89,25.89,0,0,0-6.4,3.3.6.6,0,0,1-.6.3" fill="#fff" stroke="#fff" stroke-miterlimit="10" stroke-width="2"/></g><g clip-path="url(#a)"><path d="M116.7,484.8a1.42,1.42,0,0,1-.6-.2,1.1,1.1,0,0,1-.3-1.5c1.4-2.1,2.8-4.3,4-6.3a1.05,1.05,0,1,1,1.9.9.1.1,0,0,1-.1.1c-1.2,2.1-2.6,4.3-4,6.5a1.05,1.05,0,0,1-.9.5" fill="#fff"/></g><g clip-path="url(#a)"><path d="M134.3,779.3a.75.75,0,0,1-.5-.1,64.12,64.12,0,0,1-12.6-9.3,1.09,1.09,0,0,1,0-1.5,1.2,1.2,0,0,1,1.5-.1,63,63,0,0,0,12.2,9,1.13,1.13,0,0,1,.4,1.5,1.59,1.59,0,0,1-1,.5m-22.3-21a1.05,1.05,0,0,1-.9-.5,57.35,57.35,0,0,1-6.6-14.2,1,1,0,0,1,2-.6,58.58,58.58,0,0,0,6.3,13.7,1.1,1.1,0,0,1-.3,1.5h0a.75.75,0,0,1-.5.1m-8.9-29.1a1.09,1.09,0,0,1-1.1-1c-.1-1.4-.1-2.9-.1-4.3,0-3.4.2-7.1.5-11.3a1.12,1.12,0,0,1,1.2-1,1,1,0,0,1,1,1.1h0c-.4,4.1-.5,7.7-.5,11.1,0,1.4,0,2.8.1,4.2a1.08,1.08,0,0,1-1.1,1.2h0m2.2-30.7h-.1a1,1,0,0,1-.9-1.2h0c.6-4.9,1.2-10.1,1.5-15.3a.94.94,0,0,1,1-1h.1a1,1,0,0,1,1,1.1h0c-.3,5.2-.9,10.5-1.5,15.4a1,1,0,0,1-1.1,1m1.3-30.7a1.09,1.09,0,0,1-1.1-1,52.33,52.33,0,0,0-2.7-12.2c-.3-.8-.6-1.7-.9-2.5a1.08,1.08,0,0,1,.7-1.4,1,1,0,0,1,1.3.6c.3.9.7,1.7,1,2.6a60.41,60.41,0,0,1,2.8,12.6,1.11,1.11,0,0,1-.9,1.2h0l-.2.1M95.4,639.2a1.05,1.05,0,0,1-.9-.5,146.29,146.29,0,0,0-9.3-12.1,1.06,1.06,0,0,1,1.5-1.5.35.35,0,0,1,.1.2,151.15,151.15,0,0,1,9.5,12.3,1.1,1.1,0,0,1-.3,1.5c-.1.1-.4.1-.6.1m-19.3-24a.91.91,0,0,1-.8-.4,127,127,0,0,1-9.2-12.6,1.08,1.08,0,0,1,1.8-1.2.1.1,0,0,0,.1.1,107.61,107.61,0,0,0,9,12.3,1,1,0,0,1-.2,1.5,1.08,1.08,0,0,1-.7.3M60.5,588.8a1,1,0,0,1-1-.8c-.5-1.5-.8-3-1.2-4.6a45.79,45.79,0,0,1-.9-9v-2.1a1.16,1.16,0,0,1,1.1-1,1,1,0,0,1,1,1.1v2a48,48,0,0,0,.8,8.5c.3,1.4.7,2.9,1.1,4.3a1,1,0,0,1-.7,1.3c0,.3-.1.3-.2.3m1-30.4a.37.37,0,0,1-.3-.1,1,1,0,0,1-.7-1.3h0a82.29,82.29,0,0,1,6.4-14.2,1.05,1.05,0,1,1,1.9.9.1.1,0,0,1-.1.1,86,86,0,0,0-6.3,13.8.82.82,0,0,1-.9.8m15-26.8a1.11,1.11,0,0,1-1.1-1.1,1.85,1.85,0,0,1,.2-.7l3.6-4.5c1.9-2.3,4-4.7,6.4-7.4a1.06,1.06,0,1,1,1.6,1.4c-2.4,2.7-4.5,5.1-6.4,7.3-1.2,1.4-2.4,2.9-3.5,4.4a.94.94,0,0,1-.8.6m20.4-23.1a.91.91,0,0,1-.7-.3,1.09,1.09,0,0,1,0-1.5h0c3.3-3.6,6.9-7.4,10.3-11.4a1.06,1.06,0,1,1,1.6,1.4c-3.4,4-7,7.9-10.4,11.5a1,1,0,0,1-.8.3" fill="#fff" stroke="#fff" stroke-miterlimit="10" stroke-width="2"/></g><g clip-path="url(#a)"><path d="M156,786.7h-.1a62.44,62.44,0,0,1-7.5-1.6,1,1,0,0,1-.7-1.3,1,1,0,0,1,1.3-.7,45,45,0,0,0,7.3,1.5,1,1,0,0,1,.9,1.2,1.15,1.15,0,0,1-1.2.9" fill="#fff"/></g><g clip-path="url(#a)"><path d="M915,569a.91.91,0,0,1-.8-.4l-5-5.6a1.06,1.06,0,0,1,1.6-1.4l5,5.6a1,1,0,0,1-.1,1.5.91.91,0,0,1-.7.3" fill="#fff" stroke="#fff" stroke-miterlimit="10" stroke-width="2"/></g><g clip-path="url(#a)"><path d="M907.5,788a1,1,0,0,1-1-1.1,1.05,1.05,0,0,1,.5-.9,73.24,73.24,0,0,0,12.7-8.7,1.06,1.06,0,0,1,1.4,1.6,69.21,69.21,0,0,1-13.1,9,.9.9,0,0,1-.5.1M931,767.7a1.07,1.07,0,0,1-.6-.2,1,1,0,0,1-.2-1.5c.6-.8,1.1-1.5,1.6-2.3a65.51,65.51,0,0,0,5.9-11.1,1.08,1.08,0,1,1,2,.8,74.57,74.57,0,0,1-6.1,11.5c-.5.8-1.1,1.6-1.7,2.4a1.27,1.27,0,0,1-.9.4M942.9,739h-.2a1,1,0,0,1-.9-1.2,70.37,70.37,0,0,0,.8-10.3c0-1.7-.1-3.4-.2-5.1a1.11,1.11,0,0,1,1-1.2h0a1.19,1.19,0,0,1,1.2,1c.1,1.8.2,3.5.2,5.3a75.64,75.64,0,0,1-.8,10.6,1.17,1.17,0,0,1-1.1.9m-2.5-31a1,1,0,0,1-1-.7c-1-3.1-2.2-6.3-3.4-9.4-.7-1.8-1.4-3.5-2-5.3a1.13,1.13,0,0,1,.9-1.3,1,1,0,0,1,1.1.5c.6,1.8,1.3,3.5,2,5.3,1.2,3.1,2.4,6.3,3.5,9.5a1.08,1.08,0,0,1-.7,1.4h-.4M931,678.2a1.09,1.09,0,0,1-1.1-1,31.08,31.08,0,0,1-.3-4.3,27.28,27.28,0,0,1,.3-4.1,32,32,0,0,1,1.8-7.4,1.06,1.06,0,1,1,2.1.3c0,.1-.1.3-.1.4a34,34,0,0,0-1.7,7,24.84,24.84,0,0,0-.2,3.8,28.28,28.28,0,0,0,.3,4.1,1.19,1.19,0,0,1-1.1,1.2h0m8.6-29.5a.75.75,0,0,1-.5-.1,1.13,1.13,0,0,1-.4-1.5h0l.9-1.6a107.38,107.38,0,0,0,6.4-12.1,1.08,1.08,0,0,1,2,.8,120.57,120.57,0,0,1-6.5,12.3l-.9,1.6a1.1,1.1,0,0,1-1,.6m10.4-29a1.09,1.09,0,0,1-1.1-1,33.15,33.15,0,0,0-4.7-14.3,1.13,1.13,0,0,1,.4-1.5h0a1.13,1.13,0,0,1,1.5.4h0a34.21,34.21,0,0,1,5,15.2,1,1,0,0,1-1.1,1.2h0m-14.2-27.3a.91.91,0,0,1-.8-.4c-1.1-1.3-2.2-2.5-3.3-3.7l-7.1-8a1,1,0,0,1,.1-1.5h0a1,1,0,0,1,1.5.1h0l7.1,8c1.1,1.2,2.2,2.5,3.3,3.8a1.09,1.09,0,0,1-.1,1.5,1.45,1.45,0,0,1-.7.2" fill="#fff" stroke="#fff" stroke-miterlimit="10" stroke-width="2"/></g><g clip-path="url(#a)"><path d="M885.5,795.7a1.11,1.11,0,0,1-1.1-1.1,1.06,1.06,0,0,1,.9-1,64.14,64.14,0,0,0,7.3-1.7,1.08,1.08,0,1,1,.8,2h-.1a67.43,67.43,0,0,1-7.5,1.7l-.3.1" fill="#fff" stroke="#fff" stroke-miterlimit="10" stroke-width="2"/></g><g clip-path="url(#a)"><path d="M589.3,931H544.9L501.1,733.9l-30.5-68.5h0v-.1L492,580.4l33.7-17.9c9.5,36.7,30.5,119.1,38.3,163.2C574.3,783.6,589.3,931,589.3,931" fill="url(#as)"/></g><g clip-path="url(#a)"><path d="M525.5,561.3l-40.9,4.2s-4.3,51.4-14,99.8v.1h0c-2.2,11.3-4.8,22.4-7.6,32.6-15,54.3-83.3,230.2-83.3,230.2l-4.6-1.6-42.7-15-5.1-1.8,59.6-213-3.6-157.2a26.81,26.81,0,0,0,7.5,1.3c13.4,1.3,26.3,5.8,39.4,9.1s27,5.2,39.9,1.3c8.1-2.5,15.7-7.2,24.1-8,4.5-.4,8.9.3,13.4.8s9,.9,13.3-.3c0,0,1.8,6.5,4.6,17.3" fill="url(#au)"/></g><g clip-path="url(#a)"><path d="M620.8,947.8c49.4-13,48,35.2,48,35.2L544.3,973l4-42h41Z" fill="url(#aw)"/></g><g clip-path="url(#a)"><path d="M525.8,562.4,492,580.3l-21.4,84.9c9.6-48.4,14-99.8,14-99.8l40.9-4.2c.1.5.2.8.3,1.2" fill="#591919"/></g><g clip-path="url(#a)"><path d="M434.2,999.8l-59.6,2.3-58.5-47.5,16.4-43,42.7,15,10.2,33.6c42.6.3,48.8,39.7,48.8,39.6" fill="url(#az)"/></g><g clip-path="url(#a)"><path d="M406.5,627q-2-37.05-4.2-74.1c-.2-3.2-.4-6.3-.6-9.4a1,1,0,0,0-1.2-.9,1,1,0,0,0-.9,1.1c1.6,24.6,3,49.1,4.3,73.7,1.3,24.3,3.3,48.8.6,73.1-2.6,23.7-10.2,46.5-17.6,69-7.7,23.3-15.5,46.7-23.2,70s-15.6,46.9-23.4,70.3l-2.9,8.7c-.4,1.3,1.5,2.2,2,.9,7.8-23.6,15.6-47.1,23.5-70.7L386.3,768c7.5-22.5,15.4-45,19.2-68.5,3.6-24,2.2-48.4,1-72.5" fill="#591919"/></g><g clip-path="url(#a)"><path d="M540.8,870.3q-4.35-28.35-9.7-56.4c-3.6-18.5-7.6-37-12.4-55.2s-10.2-36.5-16.5-54.3a498,498,0,0,0-21.9-52.3c-1-2.1-2.1-4.2-3.2-6.3-.6-1.2-2.6-.5-2,.8a507,507,0,0,1,22.6,51.8c6.5,17.7,12.2,35.7,17.1,53.8s9.2,36.9,12.9,55.5,7,37.4,9.9,56.1,5.7,37.5,8.3,56.3l1,7a1.11,1.11,0,0,0,2.2-.2c-2.6-18.9-5.3-37.7-8.3-56.6" fill="#591919"/></g><g clip-path="url(#a)"><path d="M529.6,470.3v.5a41.91,41.91,0,0,1-56.1-19.2,9.74,9.74,0,0,1-.5-1.1c3.2-2.2,6.4-4.3,9.6-6.5,4.5,7.5,8,12.5,9.4,13.9,4.3,4.1,20.9,12.2,37.6,12.4"/></g><g clip-path="url(#a)"><path d="M534.2,353.2a6.38,6.38,0,0,0-1.4.8c-.5-2-1-4.1-1.5-6.2.9,1.7,1.9,3.6,2.9,5.4" fill="#4c7cd4"/></g><g clip-path="url(#a)"><path d="M596.5,409.5c-11.7,9.6-21.6,33.9-41.8,52.2a32,32,0,0,1-9.8,6,41.62,41.62,0,0,1-13,2.5v.6c-.6,14.1-1.6,28.4-3.3,38.2,4.6,1.5,1.2,12-2.3,15.4,4.2,1.6,6,7,4.5,11.2s-5.6,7.1-9.9,8.3-8.9.8-13.4.3-8.9-1.3-13.4-.8c-8.5.8-16,5.5-24.1,8-12.9,3.9-26.8,2-39.9-1.3s-25.9-7.8-39.4-9.1a27.46,27.46,0,0,1-7.5-1.3,7.41,7.41,0,0,1-4.9-5.4c-.4-2.5,1.5-5.3,4.1-5.2-3.1,0-4.8-3.9-4.1-6.9s2.7-5.5,4-8.3a15.65,15.65,0,0,0,1.4-4.8c-3.1-14.8-1.5-30.2,1.6-44.9,1.2-5.6,2.5-11.1,4-16.7.7-2.9,1.5-5.7,2.3-8.5,2.4-8.9,4.8-17.8,7.3-26.7,4.9-17.6,10-35.2,15.6-52.6,5.4-16.9,11.2-33.7,18.2-50,5.7-13.4,12.4-26.4,21.4-37.9-.1,0-.1-.1-.2-.1,6.3-14.2,25.8-19.5,25.8-19.5l2.8,4.7L507.7,299a26.49,26.49,0,0,1,4.1,4.1l.3.3.1.2a1,1,0,0,1,.4.5,72.23,72.23,0,0,1,6.5,10.1c1.7,2.8,3.4,5.6,5,8.5A236.08,236.08,0,0,1,542.6,366c1.8,5.6,3.3,11.2,4.7,16.9,1.4-1.9,3-4.1,4.8-6.7,1.3-2,2.8-4.3,4.3-6.9a26.51,26.51,0,0,1,8.3-9,22.1,22.1,0,0,1,17.5-3l2,2,17.2,17a.76.76,0,0,0,.4.2c7,4.4,6.2,23.6-5.3,33" fill="url(#bf)"/></g><g clip-path="url(#a)"><path d="M564.6,360.2a27.54,27.54,0,0,0-8.3,9c-1.5,2.6-2.9,4.8-4.3,6.9a10.65,10.65,0,0,1-.9-11.6,3,3,0,0,0,1.8.6,6.29,6.29,0,0,0,4.5-2.2,14.74,14.74,0,0,0,4.1-8.8Z" fill="#ffa451"/></g><g clip-path="url(#a)"><path d="M445.7,351.3c2.8,25.6,17.5,58.1,29.8,80.5-3.4,1.6-6.8,3.1-10.2,4.6a383.12,383.12,0,0,1-20-85.1Z" fill="#2f3273"/></g><g clip-path="url(#a)"><path d="M657.3,297.9c-6.4,5.8-12.7,11.7-19.1,17.5a92.17,92.17,0,0,0-13.6,5,3.51,3.51,0,0,0-.8-.5l19.7-19.4c2-1.9,4-3.9,6.7-4.8s5.8-.3,7.1,2.2"/></g><g clip-path="url(#a)"><path d="M638.2,315.3c3-.8,6-1.5,9-2,2.8-.5,6.8,0,7.1,2.9.1,1.5-1,2.9-2.1,3.9a45.91,45.91,0,0,1-13,8.8,5.36,5.36,0,0,0-1.1.5,5.36,5.36,0,0,0,1.1-.5,3.72,3.72,0,0,1,4.1,2.7c.5,2.2-.8,4.4-2.6,5.7a17.22,17.22,0,0,1-6.2,2.3,6,6,0,0,1,2.2,8.2,6.26,6.26,0,0,1-4.8,3c2.6-.4,4.4,3.1,3.4,5.5s-3.5,3.9-5.8,5.1c-9.3,4.9-18.6,9.9-27.8,14.9l-.4-.2-17.2-17a169.25,169.25,0,0,1,17.8-29.4c2.9-3.8,6-7.6,10.3-9.8a12.93,12.93,0,0,1,11.5-.2,2.18,2.18,0,0,1,.8.5,118,118,0,0,1,13.7-4.9" fill="url(#bk)"/></g><g clip-path="url(#a)"><path d="M551.2,364.5a5.88,5.88,0,0,1-2.2-5.4,9.79,9.79,0,0,1,1.4-3.7c-1.2-2.4-2.4-4.8-3.8-7.1,1.8-.5,3.5-.9,5.3-1.3,2.8-.6,6.1-.8,8.1,1.2,1.5,1.5,1.8,3.9,1.5,6a15.34,15.34,0,0,1-4.1,8.8,5.78,5.78,0,0,1-4.5,2.2,3.63,3.63,0,0,1-1.7-.7" fill="#ffa451"/></g><g clip-path="url(#a)"><path d="M535.8,397.8a73,73,0,0,0-16.2,28.5,20.7,20.7,0,0,1,11.2-27.1,21.88,21.88,0,0,1,5-1.4" fill="#2f3273"/></g><g clip-path="url(#a)"><path d="M528.6,470.5c-8.4,2.5-17.5,0-24.8-4.5-7.7-4.9-13.6-12-19.4-18.9-.9-1.1-2.6.2-1.8,1.3,6.1,7.4,12.4,14.8,20.6,19.9,7.7,4.8,17.2,7,26.1,4.4,1.3-.6.6-2.6-.7-2.2" fill="#2f3273"/></g><g clip-path="url(#a)"><path d="M535.2,385.3a1.11,1.11,0,0,0-1.4.5l-5.6,8.8a1,1,0,0,0,.5,1.4h0a1.11,1.11,0,0,0,1.4-.5l5.6-8.8a.93.93,0,0,0-.5-1.4" fill="#2f3273"/></g><g clip-path="url(#a)"><path d="M530.4,381.2a1.11,1.11,0,0,0-1.4.5c-1,3.1-2.1,6.1-3.1,9.2a1.11,1.11,0,0,0,.5,1.4,1,1,0,0,0,1.4-.5c1-3.1,2.1-6.2,3.1-9.2a1.15,1.15,0,0,0-.5-1.4" fill="#2f3273"/></g><g clip-path="url(#a)"><path d="M524,378a1.11,1.11,0,0,0-1.4.5c-.9,2.4-1.9,4.8-2.8,7.2a1.11,1.11,0,0,0,.5,1.4,1,1,0,0,0,1.4-.5l2.8-7.2a1.15,1.15,0,0,0-.5-1.4" fill="#2f3273"/></g><g clip-path="url(#a)"><path d="M592.2,370.5a1.09,1.09,0,0,0-1.5.1l-3.6,4.8a1.06,1.06,0,1,0,1.6,1.4l3.6-4.8a1,1,0,0,0-.1-1.5" fill="#2f3273"/></g><g clip-path="url(#a)"><path d="M587.3,367.2a1.12,1.12,0,0,0-1.5-.3l-4,3.6a1,1,0,0,0-.4.7,1.08,1.08,0,0,0,.2.8,1.12,1.12,0,0,0,1.5.3l4-3.6a1,1,0,0,0,.4-.7,1.88,1.88,0,0,0-.2-.8" fill="#2f3273"/></g><g clip-path="url(#a)"><path d="M581.8,361.9a1,1,0,0,0-1.4-.6l-4.8,2.4a1.11,1.11,0,0,0-.6,1.4,1,1,0,0,0,1.4.6l4.8-2.4a1.2,1.2,0,0,0,.6-1.4" fill="#2f3273"/></g><g clip-path="url(#a)"><path d="M596.1,376.3a1.19,1.19,0,0,0-1.3.9,5,5,0,0,1-.2,1.2h0v.1l-.1.3-.3.6a.35.35,0,0,1-.1.2v.1h0a1.76,1.76,0,0,1-.4.5c-.1.2-.3.3-.4.4l-.1.1h0s-.2.1-.2.2a1.08,1.08,0,1,0,1.2,1.8,7.51,7.51,0,0,0,2.8-5.1,1,1,0,0,0-.9-1.3" fill="#2f3273"/></g><g clip-path="url(#a)"><path d="M602.9,380.8a1.11,1.11,0,0,0-1.4.5l-2,4.8a1.05,1.05,0,0,0,1.9.9c.7-1.6,1.3-3.2,2-4.8a1.05,1.05,0,0,0-.5-1.4" fill="#2f3273"/></g><g clip-path="url(#a)"><path d="M494.7,287.1c-7.6-9.3-15.2-18.7-22.8-28.1-.9-1.1-2.6.2-1.8,1.3l22.8,28c.9,1.1,2.7-.1,1.8-1.2" fill="#2f3273"/></g><g clip-path="url(#a)"><path d="M487.7,286.5l-8-7.3a1.06,1.06,0,0,0-1.4,1.6h0l8,7.3a1.09,1.09,0,0,0,1.5-.1,1,1,0,0,0-.1-1.5" fill="#2f3273"/></g><g clip-path="url(#a)"><path d="M519.5,512.5l-20.4,8.4c-1.3.5-.5,2.6.8,2l20.4-8.4c1.2-.5.5-2.6-.8-2" fill="#2f3273"/></g><g clip-path="url(#a)"><path d="M519,522.7l-14.8.7c-1.4.1-1.2,2.2.2,2.2l14.8-.7a1.11,1.11,0,0,0-.2-2.2" fill="#2f3273"/></g><g clip-path="url(#a)"><path d="M402.8,518.8l-13.3-4.3a1.12,1.12,0,1,0-.4,2.2l13.3,4.3a1.19,1.19,0,0,0,1.3-.9,1.22,1.22,0,0,0-.9-1.3" fill="#2f3273"/></g><g clip-path="url(#a)"><path d="M400.4,526.8l-9.2-.7a1.12,1.12,0,0,0-.4,2.2l9.2.7a1.19,1.19,0,0,0,1.3-.9,1.22,1.22,0,0,0-.9-1.3" fill="#2f3273"/></g><g clip-path="url(#a)"><path d="M546.9,384.1a7.51,7.51,0,0,0-4.4-3.2,7.78,7.78,0,0,0-6.3,1.2c-.4-2.5-1-5-3-6.7s-5.1-2.4-7.4-.8a1.11,1.11,0,0,0,1.3,1.8c1.7-1.3,4-.3,5.3,1.2,1.5,1.9,1.7,4.5,1.9,6.8a1.19,1.19,0,0,0,1.2,1,1,1,0,0,0,.7-.4,5.57,5.57,0,0,1,7.8-1,5.79,5.79,0,0,1,2,3.1c.2,1.3,2-1.1.9-3" fill="#2f3273"/></g><g clip-path="url(#a)"><path d="M440.9,448.1a1.13,1.13,0,0,0-1.3-.9,1.09,1.09,0,0,0-.9,1.1c.7,8,1.3,16,1.9,24a1,1,0,0,0,1.2.9,1,1,0,0,0,.9-1.1Z"/></g><g clip-path="url(#a)"><path d="M537.7,234.3c.5-3.8,1.1-14.3-9-13.7-12.3.8-11.2,17.6-11.2,17.6-7.3-4.8-17.2,3.2-17.2,3.2l-3.2,2.8a36.92,36.92,0,0,0,.2-8.8c-.6-3.5-2.3-6.7-3.7-10s-2.3-7-1.3-10.4,3.7-5.7,6.1-8.3a47.45,47.45,0,0,0,10.5-18c1-3.3,1.7-6.7,3.2-9.8s3.8-6,7.1-7.1c3.9-1.3,8.1.2,12.2,0,7.5-.3,14.4-5.9,21.7-4.7,6.6,1.1,11,7.4,17.3,9.7,4.1,1.6,8.6,1.3,13,1.6s9,1.3,11.9,4.6c4.5,5.2,2.8,13.9,7.7,18.7,4.2,4.2,12.2,4.3,14.3,9.8,1.2,3.1-.1,6.7-2.4,9.1s-5.4,3.8-8.4,5.1c-5.9,2.5-12.8,5.1-18.4,2.1a13,13,0,0,1-1.5-1h0c-3-2.2-5.4-5.6-9.1-6.4-6.3-1.4-11.8,5.2-18.2,5-4.4-.1-8.8-3.4-12.9-1.6s-5.1,8.1-8.7,10.5" fill="url(#cf)"/></g><g clip-path="url(#a)"><path d="M586.5,227h0a214,214,0,0,1-5.1,22.1,141.09,141.09,0,0,1-8.7,23.5c-4.8,9.9-10.9,18.3-18.6,21.9-12.3,5.8-24-1.8-32.6-10.8a92.29,92.29,0,0,1-13.8-19l7,34.6-1.6,3.7-.5,1a38.59,38.59,0,0,0-4.9-5l-25.1-42.1,14.5-12.6,3.2-2.8s9.9-8,17.2-3.2c0,0-1.1-16.8,11.2-17.6,10.1-.6,9.5,9.9,9,13.7,3.6-2.4,4.4-8.6,8.6-10.4s8.5,1.5,12.9,1.6c6.4.1,12-6.5,18.2-5,3.6.8,6,4.1,9.1,6.4" fill="url(#ch)"/></g><g clip-path="url(#a)"><path d="M586.6,268.3c.9,1.3,2,2.8,1.5,4.3s-2.2,1.9-3.7,2.1a20.61,20.61,0,0,1-11.7-2.1,141.09,141.09,0,0,0,8.7-23.5,29.77,29.77,0,0,0,5.2,19.2" fill="#ba7d4e"/></g><g clip-path="url(#a)"><path d="M521.5,283.7l-6.8,15.7-7-34.6a101.69,101.69,0,0,0,13.8,18.9" fill="url(#ck)"/></g><g clip-path="url(#a)"><path d="M559.4,285.1a20.37,20.37,0,0,1-8.5-12.7,1.1,1.1,0,0,0-2.2.2,23,23,0,0,0,9.3,14.2c1.1.7,2.5-.9,1.4-1.7" fill="url(#cm)"/></g><g clip-path="url(#a)"><path d="M575,246.3a8.89,8.89,0,0,1-2.8,4.1,4.07,4.07,0,0,1-4.9.4c-.2-.1-.3-.3-.5-.4a3.13,3.13,0,0,1-.9-1.1,5.21,5.21,0,0,1,.5-4.7,9.66,9.66,0,0,1,3.7-3.8,3.55,3.55,0,0,1,4.6.9c1,1.2.8,3,.3,4.6" fill="url(#co)"/></g><g clip-path="url(#a)"><path d="M529.4,223.7c-2.8-.9-5.3,1.1-6.6,3.4a1,1,0,0,0,.5,1.4,1.11,1.11,0,0,0,1.4-.5c.7-1.2,1.9-2.5,3.5-2.4s2.1,1.5,2,2.9a9.19,9.19,0,0,1-1.7,4.5,9,9,0,0,1-1.5,1.8,5.5,5.5,0,0,1-.9.7c-.3.2-.7.6-1.1.6s-.4-.7-.3-1c.3-.8,1.3-1.2,2-1.6a1.1,1.1,0,0,0-1.1-1.9.1.1,0,0,0-.1.1,5.5,5.5,0,0,0-2.6,2.4,3.12,3.12,0,0,0,.2,3.1c1.7,2.5,4.8,0,6.1-1.5a12.12,12.12,0,0,0,3.1-6.3c.3-2.2-.4-4.9-2.9-5.7" fill="url(#cq)"/></g><g clip-path="url(#a)"><path d="M580.5,236.1a17.28,17.28,0,0,0-10.6-3,2.14,2.14,0,0,0-2,2.3h0a2.14,2.14,0,0,0,2.3,2h1.2a1.27,1.27,0,0,1,.6.1,17,17,0,0,1,2.2.4c.2,0,.3.1.5.1l.3.1c.3.1.7.3,1,.4a4.67,4.67,0,0,1,1,.5l.5.3.2.1h0l.1.1h-.1a2.69,2.69,0,0,0,1.5.5,2.14,2.14,0,0,0,2-2.3,2.18,2.18,0,0,0-.7-1.6" fill="url(#cs)"/></g><g clip-path="url(#a)"><path d="M534.2,353.2c-1-1.8-1.9-3.7-3-5.5.6,2.1,1.1,4.2,1.5,6.2a269.73,269.73,0,0,1,5.1,27.6c-.9-.6-2.1-.3-3.8,1.5,0,0,0-9.3-5.7-8.7,0,0-7.3-53-29.1-64.9,0,0-23.8-15.1-42.3,4.1a66.7,66.7,0,0,0-11.4,4.7c-11.8,44.3-17.4,90.2-26.1,135.3a467.21,467.21,0,0,0,45.8-17.2c3.4-1.5,6.8-3,10.2-4.6,2.5,4.5,4.8,8.6,7,12.2-3.2,2.2-6.4,4.4-9.6,6.5q-30.9,20.85-63,39.9a18.5,18.5,0,0,1-3.4,4c-4.7,4.1-11.1,4.8-17.5,4.5-1.8-.1-3.6-.2-5.3-.4l-1.3-.1h0c-8.9-1-17.9-2-26.4-4.9s-16.5-8.1-21.1-15.8a33.06,33.06,0,0,1-4.3-11.3c-1.4-7-1.3-14.4-.8-21.6.6-10.4,1.6-20.8,2.9-31.2A377.74,377.74,0,0,1,349,341.3a288.3,288.3,0,0,1,16.9-40.1c7-13.8,15.9-27.7,30-34.1,12.2-5.5,25.6-4.3,38.9-1,3.2.8,6.4,1.8,9.6,2.7,2,.6,4.1,1.3,6.1,2h0a4.83,4.83,0,0,1,3.5.8,7.26,7.26,0,0,1,3.2,4.6c.7,3.4-.5,6.8-1.6,10-.8,2.1-1.5,4.3-2.2,6.4A66.26,66.26,0,0,1,529,339.7h.1c-3.9-13.4-9.3-26.9-16.4-35.6l.5-1,.5.2a205.7,205.7,0,0,1,33.1,45c1.3,2.4,2.5,4.7,3.8,7.1a12,12,0,0,0-1.5,3.7,5.67,5.67,0,0,0,2.2,5.4,10.45,10.45,0,0,0,.9,11.6c-1.9,2.8-3.6,5.1-5,7a214.45,214.45,0,0,0-13-29.9" fill="url(#cu)"/></g><g clip-path="url(#a)"><path d="M363.8,417.1c-1.1,17-2.3,34.1-3.4,51.1v.6a137.16,137.16,0,0,1-30-2.5c-1.4-7-1.3-14.4-.8-21.6.6-10.4,1.6-20.8,2.9-31.2l1.2.1a113.18,113.18,0,0,1,30.1,3.5" fill="#995605"/></g><g clip-path="url(#a)"><path d="M434.6,266.1c-8.7,6-14.7,15.2-19.4,24.7-4.8,9.7-8.3,20-13.5,29.5s-12.1,18.5-21.8,23.3-22.3,4.9-30.5-2.1l-.6-.2a288.3,288.3,0,0,1,16.9-40.1c7-13.8,15.9-27.7,30-34.1,12.2-5.5,25.7-4.3,38.9-1" fill="#bf6c06"/></g><g clip-path="url(#a)"><path d="M383.7,498.4l-1.3-.1a446.21,446.21,0,0,1,61.9-229.5c2,.6,4.1,1.3,6.1,2a1.85,1.85,0,0,0-.7.2s-38.6,67.1-50.3,129.1A617.78,617.78,0,0,0,389,498.8a45.53,45.53,0,0,1-5.3-.4" fill="#bf6c06"/></g><g clip-path="url(#a)"><path d="M362.2,425.2c-10.1-1.4-20.2-2.5-30.4-3.2-1.3-.1-1.6,2-.4,2.1,10.2.7,20.3,1.7,30.4,3.2,1.3.2,1.7-1.9.4-2.1" fill="#995605"/></g><g clip-path="url(#a)"><path d="M441.6,271.1A403.59,403.59,0,0,0,402.9,354a413.47,413.47,0,0,0-19.2,89.3,396.15,396.15,0,0,0-1.8,51.1c0,1.4,2.2,1.2,2.1-.2a403.64,403.64,0,0,1,59.5-222.1c.8-1.3-1.1-2.2-1.9-1" fill="#995605"/></g><g clip-path="url(#a)"><path d="M425.7,452.1a1,1,0,0,0-1.2-.9,1,1,0,0,0-.9,1.1c.8,9.6,1.6,19.2,2.5,28.8a1,1,0,0,0,1.2.9,1,1,0,0,0,.9-1.1c-.8-9.6-1.6-19.2-2.5-28.8" fill="#995605"/></g><g clip-path="url(#a)"><path d="M452.2,293.5l-7,25.3c-.4,1.3,1.8,1.7,2.1.4l7-25.3c.4-1.4-1.7-1.8-2.1-.4" fill="#995605"/></g><g clip-path="url(#a)"><path d="M465.8,292.5l-7.4,21.1c-.5,1.3,1.5,2.2,2,.9,2.5-7,4.9-14.1,7.4-21.1.4-1.3-1.5-2.2-2-.9" fill="#995605"/></g><g clip-path="url(#a)"><path d="M464.3,452.4a1.12,1.12,0,0,0-1.5-.3l-6,3.2a1.1,1.1,0,0,0-.3,1.5,1.12,1.12,0,0,0,1.5.3l6-3.2a1,1,0,0,0,.3-1.5" fill="#995605"/></g><g clip-path="url(#a)"><path d="M476,446.2a1,1,0,0,0-1.4-.6l-6,2.8a1.1,1.1,0,0,0-.4,1.5,1.08,1.08,0,0,0,1.2.5l6-2.8a1.2,1.2,0,0,0,.6-1.4" fill="#995605"/></g><g clip-path="url(#a)"><path d="M470.4,442.9a1.12,1.12,0,0,0-1.5-.3l-6,4.1a1.1,1.1,0,0,0-.3,1.5,1.12,1.12,0,0,0,1.5.3l6-4.1a1.12,1.12,0,0,0,.3-1.5" fill="#995605"/></g><g clip-path="url(#a)"><path d="M345.9,369.1a1.19,1.19,0,0,0-1.3.9l-2.8,9.2a1.12,1.12,0,1,0,2.2.4l2.8-9.2a1.13,1.13,0,0,0-.9-1.3" fill="#995605"/></g><g clip-path="url(#a)"><path d="M343,384.8a1.11,1.11,0,0,0-1.4.5,18.59,18.59,0,0,0-1,10.2,1.19,1.19,0,0,0,1.2,1,1.12,1.12,0,0,0,1-1.2h0a16.23,16.23,0,0,1,.8-9,1.43,1.43,0,0,0-.6-1.5" fill="#995605"/></g><g clip-path="url(#a)"><path d="M350.3,378.7a1.19,1.19,0,0,0-1.3.9l-1.2,7.6a1.12,1.12,0,1,0,2.2.4l1.2-7.6a1.13,1.13,0,0,0-.9-1.3" fill="#995605"/></g><g clip-path="url(#a)"><path d="M432.9,340.3a1.19,1.19,0,0,0-1.3.9l-3.2,10.4a1.12,1.12,0,1,0,2.2.4l3.2-10.4a1.32,1.32,0,0,0-.9-1.3" fill="#995605"/></g><g clip-path="url(#a)"><path d="M426.7,362l-2.5,12.4a1.12,1.12,0,0,0,2.2.4l2.5-12.4a1.12,1.12,0,1,0-2.2-.4" fill="#995605"/></g><g clip-path="url(#a)"><path d="M423.1,352.8l-2.4,10.4c-.3,1.4,1.8,1.7,2.1.4l2.4-10.4c.4-1.4-1.8-1.8-2.1-.4" fill="#995605"/></g><g clip-path="url(#a)"><path d="M378.1,932.5a29.25,29.25,0,0,0-22.1,8.2,2.13,2.13,0,0,0,3.3,2.7,24.08,24.08,0,0,1,18-6.8,2.17,2.17,0,0,0,2.5-1.7,2,2,0,0,0-1.7-2.4" fill="#fff"/></g><g clip-path="url(#a)"><path d="M382.6,946.5a27.26,27.26,0,0,0-18.9,5.5c-2.2,1.7.3,5.2,2.5,3.5a23.11,23.11,0,0,1,15.6-4.7,2.17,2.17,0,0,0,2.5-1.7,2.33,2.33,0,0,0-1.7-2.6" fill="#fff"/></g><g clip-path="url(#a)"><path d="M600.4,937.5a2.23,2.23,0,0,0-2.8-1.3,25.33,25.33,0,0,0-16,14.5,2.28,2.28,0,0,0,1,2.9,2.19,2.19,0,0,0,2.9-1,24,24,0,0,1,1.1-2.3c.2-.3.4-.7.6-1l.1-.1.1-.1.4-.5c.5-.7,1-1.3,1.5-1.9.3-.3.6-.7.9-1l.4-.4.2-.2h0a22.65,22.65,0,0,1,4-2.9l.3-.2.4-.2c.4-.2.7-.3,1.1-.5.8-.3,1.6-.6,2.5-.9a2.56,2.56,0,0,0,1.3-2.9" fill="#fff"/></g><g clip-path="url(#a)"><path d="M610,944.3a2.23,2.23,0,0,0-2.8-1.3,29.17,29.17,0,0,0-11.8,10.2,2.77,2.77,0,0,0-.5,1.6,2.14,2.14,0,0,0,2.3,2,1.9,1.9,0,0,0,1.5-.8,29.19,29.19,0,0,1,2.1-2.8,15.38,15.38,0,0,1,1.2-1.3l.6-.6s.5-.4.1-.1l.3-.3a30.13,30.13,0,0,1,2.8-2.2l1.5-.9.4-.2.3-.1.2-.1c.2-.1.3-.2.5-.2a2.43,2.43,0,0,0,1.3-2.9" fill="#fff"/></g><g clip-path="url(#a)"><path d="M426.4,991.6l-48,.5a1.85,1.85,0,0,0-1.2.5l-54.4-44a2.16,2.16,0,0,0-2.8,3.3L375.8,997a2.06,2.06,0,0,0,2.9-.3c.1-.1.1-.2.2-.3l47.9-.5c2.8.1,2.4-4.3-.4-4.3" fill="#fff"/></g><g clip-path="url(#a)"><path d="M659.6,972.4l-106.5-9.2c-2.7-.2-3.5,4-.8,4.3l106.5,9.2c2.8.1,3.6-4.1.8-4.3" fill="#fff"/></g></svg>