<svg xmlns="http://www.w3.org/2000/svg" xmlns:xlink="http://www.w3.org/1999/xlink" viewBox="0 0 1080 1080"><defs><clipPath id="a"><rect width="1080" height="1080" fill="none"/></clipPath><clipPath id="b"><rect x="687.25" y="294.6" width="91.76" height="610.08" fill="none"/></clipPath><clipPath id="c"><rect x="787.14" y="355.93" width="62.61" height="503.64" fill="none"/></clipPath><clipPath id="d"><rect x="550.13" y="356.01" width="52.67" height="515.96" fill="none"/></clipPath><clipPath id="e"><rect x="404.88" y="347.88" width="45.52" height="519.67" fill="none"/></clipPath><clipPath id="f"><rect x="310.96" y="294.59" width="38.2" height="610.09" fill="none"/></clipPath><clipPath id="g"><rect x="172.67" y="347.88" width="76.63" height="488.38" fill="none"/></clipPath><linearGradient id="h" x1="470.64" y1="746.7" x2="589.33" y2="746.7" gradientUnits="userSpaceOnUse"><stop offset="0" stop-color="#591919"/><stop offset="1" stop-color="#d93d3d"/></linearGradient><linearGradient id="i" x1="327.33" y1="733.91" x2="525.51" y2="733.91" xlink:href="#h"/><linearGradient id="j" x1="544.3" y1="957.02" x2="668.8" y2="957.02" gradientUnits="userSpaceOnUse"><stop offset="0"/><stop offset="0.02" stop-color="#050302"/><stop offset="0.15" stop-color="#291b11"/><stop offset="0.29" stop-color="#462f1d"/><stop offset="0.43" stop-color="#5d3f27"/><stop offset="0.59" stop-color="#6d492e"/><stop offset="0.77" stop-color="#775032"/><stop offset="1" stop-color="#7a5233"/></linearGradient><linearGradient id="k" x1="316.12" y1="956.86" x2="434.2" y2="956.86" xlink:href="#j"/><linearGradient id="l" x1="378.23" y1="402.85" x2="606.28" y2="402.85" gradientUnits="userSpaceOnUse"><stop offset="0" stop-color="#2f3273"/><stop offset="1" stop-color="#595fd9"/></linearGradient><linearGradient id="m" x1="584.11" y1="344.81" x2="654.34" y2="344.81" gradientUnits="userSpaceOnUse"><stop offset="0" stop-color="#ba7d4e"/><stop offset="0.23" stop-color="#d38e59"/><stop offset="0.5" stop-color="#e99d62"/><stop offset="0.76" stop-color="#f6a668"/><stop offset="1" stop-color="#faa96a"/></linearGradient><linearGradient id="n" x1="493.08" y1="237.1" x2="599.29" y2="178.85" gradientUnits="userSpaceOnUse"><stop offset="0" stop-color="#3b2719"/><stop offset="0.66" stop-color="#511d19"/><stop offset="0.87" stop-color="#591919"/></linearGradient><linearGradient id="o" x1="482.52" y1="262.22" x2="586.46" y2="262.22" gradientUnits="userSpaceOnUse"><stop offset="0" stop-color="#ba7d4e"/><stop offset="1" stop-color="#faa96a"/></linearGradient><linearGradient id="p" x1="507.66" y1="282.01" x2="521.51" y2="282.01" xlink:href="#n"/><linearGradient id="q" x1="548.65" y1="279.2" x2="559.8" y2="279.2" xlink:href="#n"/><linearGradient id="r" x1="565.48" y1="245.75" x2="575.45" y2="245.75" xlink:href="#n"/><linearGradient id="s" x1="522.47" y1="230.94" x2="532.32" y2="230.94" xlink:href="#n"/><linearGradient id="t" x1="567.94" y1="236.53" x2="581.26" y2="236.53" xlink:href="#n"/><linearGradient id="u" x1="342.16" y1="413.16" x2="535.08" y2="307.37" gradientUnits="userSpaceOnUse"><stop offset="0" stop-color="#bf6c06"/><stop offset="0.2" stop-color="#ca7206"/><stop offset="0.52" stop-color="#d57807"/><stop offset="0.87" stop-color="#d97a07"/></linearGradient></defs><title>onboarding1</title><g style="isolation:isolate"><g clip-path="url(#a)"><polygon points="932.37 302.86 883.96 681.28 883.96 681.31 857.56 887.74 787.17 837.97 772.02 849 687.39 910.62 586.62 843.49 518.2 909.73 449.8 843.49 393.63 880.92 349.01 910.62 249.25 837.97 178.86 887.74 150.88 668.93 104.06 302.86 210.1 363.76 327.33 288.85 433.31 354.46 518.2 289.25 549.21 313.07 603.11 354.46 709.1 288.85 824.74 362.75 826.33 363.76 932.37 302.86" fill="#fff"/><path d="M884,681.31l-26.4,206.43L787.17,838,772,849c4.49-16.68,19-30.6,32.15-41.75,10-8.51,20-16.92,27.63-27.57s12.83-22.78,17.65-34.8c8.87-22.21,16.81-46.1,34.51-63.57" fill="#76989c" stroke="#000" stroke-miterlimit="10"/><path d="M195.73,477.76a25.65,25.65,0,0,1-4-18.72c2.07-12.21,11-21.15,20.58-28.87a30,30,0,0,0,3.25-5.84c5.12-12.47,4.08-26.56,10.94-38.5,6.25-10.92,17.32-18.13,29.07-23,13.89-5.72,29.27-8.84,44.24-10.58,30.43-3.48,62.15.82,88.06,17.09a95.82,95.82,0,0,1,28.19,26.54c8,11.56,11.57,24.37,14.5,37.78,1.56,7.16,3.12,14.35,5.85,21.2,2.77,7,7.26,12.9,11.39,19.2,3.56,5.43,6.61,11.35,7,17.86a31.91,31.91,0,0,1-5.17,18.41c-7.66,12.23-20.27,19.4-33.35,25.45-7.31,3.39-14.75,6.54-21.66,10.63A98.76,98.76,0,0,0,377.07,560c-10.34,9.71-19.59,20.62-31.41,28.79a79.49,79.49,0,0,1-40.19,13.66c-27.58,1.65-54.33-11.52-69.2-33.7-7.54-11.2-10.8-23.91-13.52-36.82-2.82-13.29-5.34-27.35-13.79-38.65-4.08-5.43-9.5-9.83-13.23-15.5" fill="#76989c"/><path d="M860.44,471.58c-4.94,16.2-15.89,28.92-26.07,42.3s-19.89,28.58-17.14,45.74c2.62,16.49,14,30.81,13.58,47.9-.32,16.37-9.63,30.79-20.37,43-11.19,12.62-24.63,23.27-35.19,36.41-5.14,6.42-9.65,13.49-12.25,21.23-2.85,8.53-2.65,17.13-1.14,25.91,1.59,9,4.06,18,3.66,27.27a38.65,38.65,0,0,1-6.63,20.14c-7.77,11.52-20.9,19.19-34.52,22.82C687.54,814.1,652,793.79,617.2,785.67c-18-4.19-37.59-5.94-55.08,1-15.15,6-26.42,18.09-41.07,24.92-14.9,7-31.29,5.31-45.21-3C461.42,800,451.26,787,443,773.1c-8.57-14.43-15.88-29.83-27.55-42.33C405,719.57,388.59,712.5,382.41,698c-6.45-15.17,2.7-31.2,14-41.77,12.11-11.37,28.19-18.05,40.09-29.66,10.49-10.22,14.67-23.63,19-36.92,3.85-11.82,8.06-24.47,18.12-32.93,11.6-9.68,27-9.2,41.37-7.21,14.55,2,31.9,6.11,44.7-3.19,11.3-8.2,14.25-23.89,10.94-36.44-4-15.24-17.19-26.77-30.73-34.73-13.06-7.69-28-12.36-40.29-21.25-12-8.67-18.9-21.94-13.94-36.22,5.4-15.4,20-25,33.23-34,6.78-4.54,13.59-9.26,19-15.29,6-6.66,9.2-14.56,10.46-23.22,1.57-10.6.56-21.41.81-32.11l53.9,41.39,106-65.61,115.64,73.9c-1.06,2.07-2.14,4.11-3.15,6.16-5.85,11.68-12,25.74-3.58,37.75,7.87,11.21,22.61,15.67,32.7,24.64,11.95,10.62,14.17,25.77,9.73,40.28" fill="#76989c" stroke="#000" stroke-miterlimit="10"/><path d="M393.63,880.92,349,910.62,249.25,838l-70.39,49.77-28-218.81a68.64,68.64,0,0,1,10.26,1.8,58.73,58.73,0,0,1,32.75,22.47c8.54,11.59,13.84,25,22.06,36.78a59,59,0,0,0,15.4,15.64c6.76,4.57,14.65,7.53,22.56,9.69,28,7.64,65.6,7.48,81.91,34.9,8,13.39,8.63,29.18,14.95,43.16,6.48,14.35,19.59,24.35,31.06,35a110.81,110.81,0,0,1,11.8,12.55" fill="#76989c"/><g style="mix-blend-mode:multiply"><g clip-path="url(#b)"><polygon points="687.25 904.68 709.06 294.6 779.01 339.3 703.48 892.86 687.25 904.68" fill="#d7e5f4"/></g></g><g style="mix-blend-mode:multiply"><g clip-path="url(#c)"><polygon points="787.14 831.94 826.19 369.46 849.74 355.93 826.19 859.57 787.14 831.94" fill="#d7e5f4"/></g></g><g style="mix-blend-mode:multiply"><g clip-path="url(#d)"><polygon points="602.8 360.38 586.02 837.23 550.13 871.97 597.11 356.01 602.8 360.38" fill="#d7e5f4"/></g></g><g style="mix-blend-mode:multiply"><g clip-path="url(#e)"><polygon points="433.62 360.38 450.41 837.23 404.88 867.55 413.43 347.88 433.62 360.38" fill="#d7e5f4"/></g></g><g style="mix-blend-mode:multiply"><g clip-path="url(#f)"><polygon points="349.16 904.69 327.38 294.59 310.96 305.08 318.14 882.09 349.16 904.69" fill="#d7e5f4"/></g></g><g style="mix-blend-mode:multiply"><g clip-path="url(#g)"><polygon points="210.22 369.46 249.3 831.93 243.2 836.26 172.67 347.88 210.22 369.46" fill="#d7e5f4"/></g></g><path d="M424.28,478.42c-.95-19.1-24.6-23.68-33.22-38.27-3-5-3.38-10.93-3.74-16.57s-.75-11-2.61-16.24c-3.57-10.14-11.3-18.69-20.5-24.63-19.2-12.39-44.51-16.32-67.46-14.31a2,2,0,0,0-1.33-.32,89.78,89.78,0,0,0-20,4.09c-.56.14-1.13.28-1.69.44a2,2,0,0,0-.83.42,56.2,56.2,0,0,0-12,6.21c-8.68,6-15.29,14.65-17.4,24.76-1.29,6.2-1,12.55-1.69,18.82A40.47,40.47,0,0,1,236,440c-5.72,9.51-13.54,18.32-14.06,29.78-.49,10.64,6.89,17.07,15.49,22.46,4,2.48,8.12,4.92,11.26,8.36A30.06,30.06,0,0,1,255.28,514c2.43,10,2,20.33,4.67,30.26a44.39,44.39,0,0,0,16.86,24.13c18.13,13.16,43.34,11,59.95-3.31,15.58-13.45,23.94-33,42.31-43.72,10.09-5.89,21.69-9.64,30.87-16.91,8-6.35,14.85-15.69,14.34-26M415.84,492c-6.07,9.28-16.21,14.44-26.15,19.23-9.55,4.61-18.7,9.38-26.23,16.77-6.75,6.64-12.16,14.36-18,21.66s-12.37,14.37-21,18.77a44.46,44.46,0,0,1-32.73,2.82,42.09,42.09,0,0,1-23.12-17.75c-5.34-8.49-6.15-18.3-7.19-27.91-1-9-2.23-18.48-8-25.93-5.63-7.25-14.71-10.38-21.44-16.44-8.74-7.87-6-19.23-.7-28.19,5.56-9.45,12.75-17.65,14.45-28.71s.06-22.45,6.52-32.48c5.54-8.62,14.65-14.43,24.49-17.8,23.23-6.13,49-5.45,71.43,3.19,10.33,4,20,10,26.56,18.66a38.86,38.86,0,0,1,6.88,13.92c1.32,5.26,1.22,10.73,1.71,16.09.47,5.09,1.53,10.11,4.22,14.59a36.08,36.08,0,0,0,7.67,8.61c6.32,5.41,14.09,9.46,19.56,15.74,6.6,7.56,6.45,16.95,1.08,25.16" fill="#bcd7f7"/><path d="M325.2,394.48c-7.87-6.1-19.12-7.44-28.87-5.89a47.46,47.46,0,0,0-18.73,7.27c-5.76,1.72-10.33,6.2-13,11.62-4.7,9.58-2.19,20.32-.35,30.26,1.92,10.46,1,21.73,4.92,31.79,2.94,7.64,9.39,15,18.34,16,9.2,1,17.87-4.57,22.6-11.77,5.73-8.72,6.57-19.21,8-29.15.77-5.41,1.73-10.89,4-15.95,2-4.46,5.07-8.3,7.35-12.6,4.09-7.74,3-16-4.22-21.59m1.34,17.68c-1.52,3.62-3.93,6.81-6,10.16a44.31,44.31,0,0,0-4.94,12c-3.85,15.08-1.29,38.6-19.54,45.89-8.18,3.27-15.91-.43-20.39-7.26-5-7.59-4.95-16.94-5.74-25.56-1-10.58-5.13-21.48-3.39-32.15a22.53,22.53,0,0,1,4-9.37,2.1,2.1,0,0,0,2.3-.57,39.13,39.13,0,0,1,6.93-5.9,12.81,12.81,0,0,1,3.36-.25,2.28,2.28,0,0,0,2.35-3c9.82-4.64,21.57-5.82,31.59-1.63,7.53,3.16,12.82,9.62,9.47,17.58" fill="#bcd7f7"/><path d="M826.09,441.82c-6.18-7.95-15.28-13.13-22.54-20.07-9-8.63-11.83-20.09-9.43-31.93,2.5-12.41,10-23.24,17.15-33.63,1.51-2.19-1.78-4.86-3.31-2.64-7.11,10.31-14.41,20.9-17.52,33-2.8,10.91-1.9,23,5,32.41,5.93,8,14.88,13.29,22.22,20,3.72,3.41,7,7.33,8.78,12,2.11,5.58,1.74,11.62.07,17.25-3.51,11.84-12.34,21-20.67,30-8,8.59-15.52,17.52-19,28.67-6.57,20.88.68,42.95,2.19,64,.76,10.49.13,21.32-4.73,30.94-4,8-10.78,14.37-18.18,19.67-14.69,10.51-32.33,17.5-45.07,30.4a44.15,44.15,0,0,0-12.46,24c-1.9,11.51,0,23.3-2.36,34.76-2,10-8.18,18.3-18.17,22.34-9,3.63-19.25,3.8-28.65,1.59-21.26-5-33.91-26-55.61-29.74-11.5-2-22.57,2.38-31.25,9.43-9.58,7.78-15.93,18.06-22.93,27.87-6.78,9.5-14.45,18.64-26,23-9.92,3.75-21.88,3.52-28.93-5.11-6.42-7.85-7.38-18.47-11.14-27.5s-10.21-14.91-18.93-19.43c-8.26-4.27-17.58-7-25-12.64-9-6.78-11.3-17.19-7.25-27.29,8.55-21.3,33.85-30.58,42.73-51.56,2.35-5.57,2.87-11.35,2.83-17.3,0-6.46-.42-13,2.22-19.15,4.19-9.65,13.72-16.11,23.49-20.11,22.85-9.38,49.91-6.41,70.23-21.79,17.59-13.31,26.66-35.43,22-56.51a58.55,58.55,0,0,0-15.18-28.12c-8.59-8.82-19.87-13.69-31-18.88-10.7-5-22-11.18-27.36-21.87-5.2-10.42-1-20.58,6.33-28.88S545,394,551.48,385a76.22,76.22,0,0,0,13.06-30.56,73.46,73.46,0,0,0-1.23-32.21c-.67-2.57-4.72-1.12-4,1.43,5.93,22.51-.29,47.51-16.25,65.05-7.31,8-16.32,14.7-22.31,23.78-5.87,8.9-6.78,19.37-1.43,28.72,12.36,21.64,41.87,23.23,58.48,40.47,16.19,16.79,19.63,41.82,8.15,61.85a55.42,55.42,0,0,1-25.68,23c-12.22,5.33-25.71,6.74-38.74,9.3C500.73,580,476,590.13,473.84,613.15c-.63,6.7.42,13.5-.71,20.17a34.85,34.85,0,0,1-6.85,15c-6.78,9-16.12,15.7-24.12,23.62s-15.46,18.42-16.11,29.82c-.55,9.68,4.69,18,12.88,23.35,7.89,5.18,17.09,8,25.36,12.55a34.86,34.86,0,0,1,11,8.84c3.12,4,4.88,8.83,6.4,13.58,2.9,9.08,5,19.14,12.78,25.76,8,6.86,19.51,7,29.22,3.73,24.21-8.21,31.51-33.59,48.57-49.48,8.8-8.2,20.5-13.72,33-10.69,10.86,2.65,19.64,10.32,28.33,16.65,8.26,6,16.81,11.06,27.12,13.08,9.51,1.85,19.87,1.41,28.88-2.23a33.25,33.25,0,0,0,19.25-19.51c4-11.11,2.5-23,3.32-34.53.72-10.16,3.84-19.28,11-27,6-6.52,13.67-11.45,21.31-16.06,15.47-9.32,33.07-17.91,42.4-33.66,11.36-19.18,5.76-42.21,3.11-62.78-1.38-10.63-2.3-21.56.18-32.12,2.74-11.7,10.34-20.93,18.48-29.74,8.34-9,17-18.09,21.24-29.68,3.72-10.25,3.19-21.17-3.74-30.07" fill="#bcd7f7"/><path d="M788.83,433.7c-8.27-13.76-22.9-24.46-27.42-40.16-5.35-18.59,10.43-34.93,13.07-52.67a31.61,31.61,0,0,0-.67-12.77c-.67-2.57-4.72-1.11-4,1.44,2.38,9.1-1.08,18.22-4.68,26.58-3.53,8.2-7.71,16.48-8.78,25.39-2,16.69,9.35,29.51,19.51,41.76,5,6,10.06,12.23,12.75,19.5,3.07,8.3,1.6,16.54-2.6,24.22-4.5,8.24-11,15.36-15.25,23.72-4.94,9.65-5.58,20.29-6.21,30.83-.6,10.15-1.36,20.79-7.07,29.68a41.49,41.49,0,0,1-22,16.52c-18.71,6.1-39.31-2.84-48-19.55-9.55-18.24.24-38.27,3.47-56.8,1.59-9.09,1.71-18.68-2.35-27.24s-11.14-14.74-17.39-21.6a49.77,49.77,0,0,1-8.5-11.76,34.46,34.46,0,0,1-3.15-16.2c.41-11.22,5.07-21.75,10.2-31.68,9.22-17.84,20.78-37.19,14.44-57.75a32.2,32.2,0,0,0-6.65-11.82c-1.77-2-5.32.35-3.52,2.38,15.44,17.48,4.52,41.38-4.72,58.86-9.94,18.8-21.06,41.64-8.35,61.81,5.29,8.38,13.39,14.64,19.39,22.5,6.24,8.18,8.15,17.51,7,27.47-2.25,19.24-12.84,38.78-6.09,58.23C687.08,561.7,705,574.36,724,573.88c19.7-.5,37.11-14,42.13-32,3-10.71,2.26-21.92,3.67-32.83a49.93,49.93,0,0,1,4.46-15.89,95.32,95.32,0,0,1,7.84-12.52c5.37-7.65,11.21-15.68,12.3-25.08.91-7.78-1.55-15.16-5.58-21.86" fill="#bcd7f7"/><path d="M342.54,856.76c-7-6.53-16.63-10.39-22.62-17.93-3.44-4.34-4.67-9.63-6.65-14.64a30.21,30.21,0,0,0-7.63-11.35c-15-13.79-37.91-11-56.78-13.77-11.05-1.66-21-5.74-27.93-14.37-6.62-8.23-10-18.21-13.72-27.82-4.09-10.62-8.89-21.86-18.29-29.25-8.29-6.53-19.86-10-30.14-5.84-2.55,1-1.07,4.9,1.5,3.86,9.29-3.76,19.56-.2,26.79,5.88,8,6.74,12.16,16.65,15.78,26,3.48,9,6.64,18.16,12.12,26.26A42.22,42.22,0,0,0,237.4,800.7c18.65,5.94,39.56,1.48,57.49,10a29.22,29.22,0,0,1,10.28,7.75c3.22,4,4.58,8.73,6.29,13.4a32.48,32.48,0,0,0,7.31,12,69.68,69.68,0,0,0,10.67,8.31c4.22,2.85,8.64,5.71,12,9.48A33.21,33.21,0,0,1,344,902.53c-1.56,2.17,1.74,4.84,3.31,2.65a37.22,37.22,0,0,0-4.72-48.42" fill="#bcd7f7"/><path d="M869.63,758.69c-1.9,17.09-17,28.39-29.88,38.66-12.29,9.81-24.8,21.21-26.39,37.3-.78,8,1.28,15.71,7,21.67,1.88,1.95,4.64-1.23,2.77-3.15-10.92-11.29-4.65-28.78,4.38-39.07,10.61-12.09,25.43-20,35.81-32.33,5.45-6.47,9.58-14,10.51-22.34.29-2.62-4-3.38-4.25-.74" fill="#bcd7f7"/><path d="M642.79,657.31c-3.69-8.93-9.93-16.72-16.28-24.06-6.82-7.88-14.18-15.33-21.54-22.75-4.1-4.13-8.46-8.27-13.49-11.38a2,2,0,0,0-.84-.62l-.5-.17a33.56,33.56,0,0,0-7.1-3.07c-6.71-2-13.61-1.3-20.14.68a47.73,47.73,0,0,0-23.2,11.21,46.06,46.06,0,0,0-13.38,20.94c-2.78,9.12-.53,19.17-4.19,28-2.91,7.07-9.52,11.79-15.73,16.12s-13.07,8.84-17.49,15.18c-9.43,13.53-7.66,33.14,6.8,42.82a31.13,31.13,0,0,0,22.38,5.1c7.15-1.26,13.13-5.23,18.24-10,11-10.32,19-25.34,35.77-27.77,18.59-2.71,37.38,6.73,55.71.33,17.62-6.15,21.27-25.41,15-40.6m-12.1,34.75c-14.88,8.7-34.14,1.41-50.13,1-8.16-.22-16.21,1.28-23.09,5.62-5.74,3.62-10.34,8.66-14.74,13.64-8.67,9.8-18.67,21.62-33.8,19A26.79,26.79,0,0,1,490.68,719c-4.09-6.84-4.34-15.5-1.59-22.83,5.32-14.18,21-19.26,31.07-29.66,5.64-5.85,7.8-12.85,8.3-20.67.54-8.49,1-16.39,5.08-24.12a41.82,41.82,0,0,1,9.24-11.62,2.11,2.11,0,0,0,1.13-.3c6.29-3.82,13-7.79,20.18-10a44.89,44.89,0,0,1,11.95-.59,45.73,45.73,0,0,1,11.82,2.64,43.19,43.19,0,0,1,7.19,5c7.12,6.06,13.51,13.08,19.88,19.83s12.87,14,18.14,21.74c4.8,7.07,8.55,15.09,8.46,23.66-.07,7.93-3.6,15.68-10.84,19.92" fill="#bcd7f7"/><path d="M826.48,358.07l-117.33-75L603.44,348.52,518.2,283.08,433,348.52,327.28,283.08,210,358.07,97.81,293.65,174.9,896.54,249.2,844l99.68,72.61L449.2,849.76l69,66.82,69-66.82,100.29,66.82L787.23,844l74.29,52.57,77.1-602.89ZM853.61,879l-60.38-42.71-6.08-4.33-6,4.4-93.84,68.36L593,841.88l-7-4.63L580,843,518.2,902.88,456.38,843l-6-5.76-7,4.63-94.27,62.81-93.83-68.36-6-4.4-6.1,4.33L182.82,879,110.31,312.06l94.44,54.25,5.47,3.15,5.35-3.41,111.81-71.46,100.11,62,6.13,3.79,5.69-4.37,78.89-60.57L597.11,356l5.7,4.35,6.13-3.79,100.11-62,111.81,71.46,5.34,3.41,5.47-3.15,94.44-54.25Z" fill="#465a5c"/><path d="M677,412.09c-16.61,0-30.08,12.84-30.08,28.68,0,0-3.13,21.38,30.08,59,0,0,23.85-27.18,29.13-51.7a.47.47,0,0,1,0-.09,27.79,27.79,0,0,0,1-7.16c0-15.84-13.47-28.68-30.11-28.68m-2.77,42.18c-9.66,0-17.51-7.47-17.51-16.69s7.85-16.67,17.51-16.67,17.5,7.46,17.5,16.67-7.84,16.69-17.5,16.69" fill="#d93d3d"/><path d="M601.87,558.09c-13.59,0-24.61,10.5-24.61,23.46,0,0-2.56,17.49,24.61,48.23,0,0,19.52-22.24,23.83-42.3a.21.21,0,0,1,0-.07,22.75,22.75,0,0,0,.77-5.86c0-13-11-23.46-24.63-23.46m-2.27,34.5c-7.9,0-14.32-6.1-14.32-13.65s6.42-13.64,14.32-13.64,14.32,6.11,14.32,13.64-6.42,13.65-14.32,13.65" fill="#d93d3d"/><path d="M280.46,405c-13.59,0-24.61,10.5-24.61,23.46,0,0-2.56,17.49,24.61,48.23,0,0,19.51-22.24,23.83-42.3a.21.21,0,0,1,0-.07,22.75,22.75,0,0,0,.77-5.86c0-13-11-23.46-24.63-23.46m-2.27,34.5c-7.9,0-14.32-6.1-14.32-13.65s6.42-13.64,14.32-13.64,14.32,6.11,14.32,13.64-6.42,13.65-14.32,13.65" fill="#d93d3d"/><path d="M275.7,495.57l-.18,0a1.07,1.07,0,0,1-.88-1.24c.42-2.49.88-5,1.34-7.46a1.08,1.08,0,0,1,2.12.39c-.45,2.47-.91,4.95-1.33,7.43a1.08,1.08,0,0,1-1.07.9"/><path d="M472.77,682.38h0a74.23,74.23,0,0,1-15.16-1.64,1.08,1.08,0,0,1-.83-1.29,1.09,1.09,0,0,1,1.28-.83,71.43,71.43,0,0,0,14.72,1.6,1.08,1.08,0,1,1,0,2.16m15-1.51a1.09,1.09,0,0,1-1.06-.85,1.08,1.08,0,0,1,.83-1.28,63.84,63.84,0,0,0,12.59-4l1.42-.65a1.09,1.09,0,0,1,1.44.52,1.07,1.07,0,0,1-.52,1.43c-.48.23-1,.46-1.46.67a66.21,66.21,0,0,1-13,4.19l-.22,0m-44.18-4.78a1,1,0,0,1-.44-.1A65.54,65.54,0,0,1,430,668.16a1.08,1.08,0,1,1,1.32-1.71A63.22,63.22,0,0,0,444,674a1.08,1.08,0,0,1-.45,2.07m71.63-7.2a1.08,1.08,0,0,1-.54-2A106.87,106.87,0,0,1,528.18,660a1.08,1.08,0,0,1,.8,2,106.57,106.57,0,0,0-13.27,6.76,1.08,1.08,0,0,1-.54.15m58.11-9.83a1.08,1.08,0,0,1-.07-2.16l.56,0a39,39,0,0,0,13.54-3.58,1.08,1.08,0,1,1,.93,2A41.28,41.28,0,0,1,573.93,659l-.58,0h-.07m-15-.17h-.06a131.56,131.56,0,0,0-14.91-.16,1.12,1.12,0,0,1-1.16-1,1.08,1.08,0,0,1,1-1.15,133.59,133.59,0,0,1,15.17.15,1.08,1.08,0,0,1,0,2.16m-138.37-1a1.1,1.1,0,0,1-.83-.38,102.47,102.47,0,0,1-8.8-12.39,1.08,1.08,0,1,1,1.84-1.13,100.39,100.39,0,0,0,8.62,12.13,1.07,1.07,0,0,1-.83,1.77m-16-25.42a1.09,1.09,0,0,1-1-.59c-1.47-2.88-2.9-5.77-4.33-8.66l-2.4-4.82a1.08,1.08,0,1,1,1.93-1c.81,1.6,1.61,3.22,2.4,4.83,1.43,2.88,2.86,5.77,4.32,8.63a1.08,1.08,0,0,1-.46,1.46,1.11,1.11,0,0,1-.49.12M390,605.75a1.08,1.08,0,0,1-.93-.53,116.46,116.46,0,0,0-8.28-12.4,1.08,1.08,0,1,1,1.71-1.32A117.57,117.57,0,0,1,391,604.12a1.08,1.08,0,0,1-.93,1.63m-18.59-23.52a1.09,1.09,0,0,1-.71-.27,57.07,57.07,0,0,0-12.22-8.22,1.08,1.08,0,0,1,.95-1.93,59.14,59.14,0,0,1,12.69,8.52,1.08,1.08,0,0,1-.71,1.9m-26.62-13.37a1.09,1.09,0,0,1-.26,0c-4.52-1.12-9.15-2-14.69-2.88a1.08,1.08,0,0,1-.89-1.24,1.05,1.05,0,0,1,1.24-.89c5.6.92,10.27,1.77,14.86,2.91a1.08,1.08,0,0,1-.26,2.13m-29.62-5.47a.75.75,0,0,1-.21,0,86.09,86.09,0,0,1-14.66-4.12,1.08,1.08,0,1,1,.79-2,83.75,83.75,0,0,0,14.3,4,1.08,1.08,0,0,1,.84,1.28,1.07,1.07,0,0,1-1.06.86m-27.37-11.65a1.05,1.05,0,0,1-.71-.27c-.54-.46-1.07-1-1.59-1.45a39.21,39.21,0,0,1-7.76-10.76,1.08,1.08,0,0,1,1.94-1A36.89,36.89,0,0,0,287,548.47c.49.47,1,.93,1.5,1.37a1.08,1.08,0,0,1,.11,1.52,1.06,1.06,0,0,1-.81.38m-13.49-26.22a1.07,1.07,0,0,1-1.06-.92c-.25-1.64-.44-3.33-.55-5s-.15-3.16-.15-4.79.06-3.58.17-5.45a1.1,1.1,0,0,1,1.15-1,1.07,1.07,0,0,1,1,1.14c-.12,1.83-.17,3.62-.17,5.32s0,3.14.15,4.64.28,3.24.52,4.83a1.08,1.08,0,0,1-.9,1.23h-.17"/><path d="M599.08,645.53a1.06,1.06,0,0,1-.52-.13,1.08,1.08,0,0,1-.42-1.47,14.49,14.49,0,0,0,1.85-6.72,1.09,1.09,0,0,1,1.1-1.05,1.08,1.08,0,0,1,1.06,1.1A16.69,16.69,0,0,1,600,645a1.1,1.1,0,0,1-.95.55"/><path d="M600.07,551.58a1.08,1.08,0,0,1-1.08-1,72.66,72.66,0,0,1,.12-7.67,1.13,1.13,0,0,1,1.14-1,1.08,1.08,0,0,1,1,1.15,71.23,71.23,0,0,0-.11,7.45,1.09,1.09,0,0,1-1,1.12Z"/><path d="M603.14,527.56a1,1,0,0,1-.3,0,1.07,1.07,0,0,1-.73-1.34,83.22,83.22,0,0,1,6.41-15.68,1.08,1.08,0,1,1,1.91,1,81.27,81.27,0,0,0-6.25,15.28,1.08,1.08,0,0,1-1,.77m15.58-29.4a1.07,1.07,0,0,1-.83-1.76,87.45,87.45,0,0,1,11.9-12,1.08,1.08,0,1,1,1.38,1.66,85.39,85.39,0,0,0-11.61,11.75,1.08,1.08,0,0,1-.84.4"/><path d="M644.34,476.88a1.08,1.08,0,0,1-.51-2c2.25-1.21,4.57-2.32,6.91-3.31a1.08,1.08,0,0,1,.84,2c-2.27,1-4.54,2.05-6.72,3.22a1.08,1.08,0,0,1-.52.13"/><path d="M703.65,472.32a1.08,1.08,0,0,1-.16-2.14,47.82,47.82,0,0,1,7.7-.55,1.08,1.08,0,0,1,0,2.16,1.14,1.14,0,0,1-.37,0,46.43,46.43,0,0,0-7,.52h-.16"/><path d="M811.76,509.71c-1.71,0-3.46-.09-5.22-.26a1.08,1.08,0,0,1,.22-2.15,45.71,45.71,0,0,0,14.39-.75,1.08,1.08,0,1,1,.46,2.11,45.6,45.6,0,0,1-9.85,1m-19.55-3.47a1.4,1.4,0,0,1-.34-.05,109.77,109.77,0,0,1-13.79-5.76,1.08,1.08,0,0,1,.95-1.94,106.5,106.5,0,0,0,13.53,5.65,1.08,1.08,0,0,1-.35,2.1M835,503.07a1.06,1.06,0,0,1-.91-.51,1.07,1.07,0,0,1,.34-1.48,59.64,59.64,0,0,0,11.21-9.22,1.08,1.08,0,1,1,1.55,1.5,61.82,61.82,0,0,1-11.62,9.55,1,1,0,0,1-.57.16m-69.44-9.64a1.08,1.08,0,0,1-.55-.15l-1.83-1.09c-3.55-2.14-7.21-4.34-10.91-6.44a1.09,1.09,0,0,1-.4-1.48,1.07,1.07,0,0,1,1.47-.4c3.72,2.12,7.39,4.32,10.94,6.46l1.83,1.09a1.08,1.08,0,0,1-.55,2m90.25-11.19a1,1,0,0,1-.63-.2,1.06,1.06,0,0,1-.25-1.5l.59-.84c2.21-3.16,4.37-6.47,6.45-9.66l1.16-1.78a1.08,1.08,0,1,1,1.81,1.18l-1.16,1.78c-2.09,3.21-4.25,6.53-6.49,9.72l-.6.85a1.09,1.09,0,0,1-.88.45m-116.14-3.19a1,1,0,0,1-.45-.1,88.63,88.63,0,0,0-13.7-5.08,1.08,1.08,0,1,1,.56-2.08,89.51,89.51,0,0,1,14,5.2,1.08,1.08,0,0,1-.45,2.06m132.77-21.32a1.09,1.09,0,0,1-.66-.22,1.08,1.08,0,0,1-.2-1.51,87.26,87.26,0,0,1,8.7-10c.42-.41.84-.81,1.27-1.2A1.08,1.08,0,1,1,883,446.4c-.42.39-.83.77-1.23,1.17a84.74,84.74,0,0,0-8.49,9.73,1.06,1.06,0,0,1-.86.43m21.58-20a1.08,1.08,0,0,1-.59-2c3.72-2.41,8-4.82,13-7.39a1.08,1.08,0,1,1,1,1.92c-4.93,2.54-9.11,4.92-12.77,7.28a1,1,0,0,1-.58.18m26.17-13.84a1.08,1.08,0,0,1-.47-2.06c4.11-2,8.77-4.17,13.27-6.51a1.08,1.08,0,0,1,1,1.92c-4.53,2.35-9.2,4.58-13.33,6.54a1.11,1.11,0,0,1-.46.11m26.11-13.94a1.08,1.08,0,0,1-.59-2c2.3-1.51,4.48-3.07,6.47-4.64,1.74-1.37,3.44-2.83,5.06-4.34a1.08,1.08,0,1,1,1.47,1.57c-1.66,1.56-3.41,3.06-5.19,4.47-2,1.6-4.27,3.2-6.62,4.74a1.11,1.11,0,0,1-.6.18m21.49-20.16a1.11,1.11,0,0,1-.64-.21,1.08,1.08,0,0,1-.23-1.51,81.49,81.49,0,0,0,7.55-12.49,1.08,1.08,0,1,1,1.94.94,83,83,0,0,1-7.75,12.83,1.07,1.07,0,0,1-.87.44m12.9-26.49a1,1,0,0,1-.29,0,1.09,1.09,0,0,1-.75-1.33,77.2,77.2,0,0,0,2.59-14.36,1.09,1.09,0,0,1,1.16-1,1.08,1.08,0,0,1,1,1.16,79,79,0,0,1-2.66,14.76,1.07,1.07,0,0,1-1,.79m2.4-29.34a1.08,1.08,0,0,1-1.07-1q-.15-1.32-.36-2.64a72.81,72.81,0,0,0-2.79-11.58,1.08,1.08,0,1,1,2-.68A74.09,74.09,0,0,1,983.79,330c.15.91.27,1.82.38,2.73a1.09,1.09,0,0,1-1,1.2h-.12m-191.21-27.1-4.62,0c-2.56,0-5.11-.06-7.61,0a1.08,1.08,0,1,1,0-2.16c2.53-.05,5.1,0,7.68,0,1.53,0,3,0,4.59,0,.85,0,1.7,0,2.55,0a1,1,0,0,1,1.1,1.06,1.08,1.08,0,0,1-1.07,1.1c-.85,0-1.71,0-2.57,0M974,305.93a1.08,1.08,0,0,1-.94-.55,82.08,82.08,0,0,0-8.19-12.09,1.08,1.08,0,0,1,1.68-1.37,84.28,84.28,0,0,1,8.4,12.41,1.08,1.08,0,0,1-.42,1.47,1.12,1.12,0,0,1-.53.13m-164.88-1a1.08,1.08,0,0,1-.3-2.11,49.27,49.27,0,0,0,13.07-6.16,1.08,1.08,0,0,1,1.17,1.82,51.31,51.31,0,0,1-13.64,6.41,1,1,0,0,1-.3,0m25.17-15.2a1.09,1.09,0,0,1-.83-.39,1.07,1.07,0,0,1,.14-1.52l2.65-2.21c2.87-2.41,5.84-4.89,8.86-7.19a1.08,1.08,0,1,1,1.31,1.72c-3,2.27-5.93,4.74-8.79,7.12l-2.65,2.22a1.09,1.09,0,0,1-.69.25m121.12-6.67a1.09,1.09,0,0,1-.71-.27,82.92,82.92,0,0,0-11.83-8.56,1.08,1.08,0,0,1,1.11-1.86,86,86,0,0,1,12.14,8.79,1.08,1.08,0,0,1,.11,1.52,1.09,1.09,0,0,1-.82.38M858.2,272.42a1.08,1.08,0,0,1-1-.58,1.09,1.09,0,0,1,.46-1.46,88.05,88.05,0,0,1,13.86-5.7,1.08,1.08,0,0,1,.65,2.06,85,85,0,0,0-13.51,5.56,1.11,1.11,0,0,1-.5.12M930.06,268a1,1,0,0,1-.38-.07A83.35,83.35,0,0,0,915.6,264a1.1,1.1,0,0,1-.87-1.26,1.07,1.07,0,0,1,1.26-.86,84.92,84.92,0,0,1,14.45,4,1.08,1.08,0,0,1-.38,2.09m-43.75-4.47a1.08,1.08,0,0,1-.15-2.15,93.41,93.41,0,0,1,14.94-.94,1.08,1.08,0,0,1,1.06,1.1,1,1,0,0,1-1.1,1.06,91.56,91.56,0,0,0-14.6.92h-.15"/><path d="M758.2,312.47a1.08,1.08,0,0,1-.87-.45,1.06,1.06,0,0,1,.24-1.5,26.32,26.32,0,0,1,7-3.62,1.07,1.07,0,0,1,1.37.66,1.08,1.08,0,0,1-.66,1.38,24.5,24.5,0,0,0-6.41,3.33,1.18,1.18,0,0,1-.64.2"/><path d="M116.65,484.82a1.14,1.14,0,0,1-.61-.18,1.08,1.08,0,0,1-.28-1.5c1.43-2.12,2.76-4.25,4-6.34a1.08,1.08,0,1,1,1.87,1.07c-1.22,2.14-2.58,4.32-4,6.48a1.06,1.06,0,0,1-.89.47"/><path d="M134.26,779.27a1,1,0,0,1-.53-.14,65.88,65.88,0,0,1-12.62-9.26,1.08,1.08,0,0,1,1.47-1.58,63.83,63.83,0,0,0,12.21,9,1.08,1.08,0,0,1,.41,1.47,1.09,1.09,0,0,1-.94.55M112,758.34a1.09,1.09,0,0,1-.91-.49,57.08,57.08,0,0,1-6.59-14.23,1.09,1.09,0,0,1,.73-1.35,1.08,1.08,0,0,1,1.34.72,54.72,54.72,0,0,0,6.34,13.69,1.07,1.07,0,0,1-.33,1.49,1,1,0,0,1-.58.17m-8.93-29.15a1.07,1.07,0,0,1-1.08-1c-.07-1.43-.1-2.87-.1-4.3,0-3.4.18-7.08.54-11.26a1.09,1.09,0,0,1,1.17-1,1.07,1.07,0,0,1,1,1.17c-.36,4.11-.53,7.73-.53,11.07,0,1.4,0,2.8.1,4.2a1.09,1.09,0,0,1-1,1.13h0m2.18-30.75h-.13a1.07,1.07,0,0,1-.94-1.2c.6-4.9,1.21-10.12,1.52-15.29a1,1,0,0,1,1.14-1,1.07,1.07,0,0,1,1,1.14c-.31,5.23-.93,10.49-1.53,15.42a1.08,1.08,0,0,1-1.07,1m1.27-30.77a1.08,1.08,0,0,1-1.08-1,55.65,55.65,0,0,0-2.67-12.16q-.44-1.26-.93-2.49a1.08,1.08,0,0,1,2-.81c.34.86.66,1.72,1,2.6a58,58,0,0,1,2.77,12.62,1.08,1.08,0,0,1-.95,1.2h-.12M95.43,639.23a1.08,1.08,0,0,1-.9-.47c-3-4.45-6.44-8.64-9.35-12.14a1.08,1.08,0,1,1,1.65-1.38c3,3.54,6.39,7.78,9.49,12.3a1.09,1.09,0,0,1-.29,1.51,1.11,1.11,0,0,1-.6.18M76.1,615.16a1,1,0,0,1-.84-.4,121.85,121.85,0,0,1-9.16-12.57,1.08,1.08,0,1,1,1.83-1.14,122,122,0,0,0,9,12.35,1.08,1.08,0,0,1-.84,1.76M60.5,588.77a1.08,1.08,0,0,1-1-.77c-.46-1.51-.84-3-1.15-4.56a46.16,46.16,0,0,1-.87-9c0-.69,0-1.37,0-2.06a1.18,1.18,0,0,1,1.13-1,1.08,1.08,0,0,1,1,1.13c0,.65,0,1.31,0,2a44.18,44.18,0,0,0,.83,8.55c.29,1.44.66,2.91,1.1,4.35a1.09,1.09,0,0,1-.72,1.35,1.13,1.13,0,0,1-.32,0m1-30.34a1,1,0,0,1-.34-.06,1.07,1.07,0,0,1-.69-1.36,79.82,79.82,0,0,1,6.45-14.24,1.08,1.08,0,1,1,1.87,1.07,78.2,78.2,0,0,0-6.27,13.85,1.08,1.08,0,0,1-1,.74m14.94-26.86a1.08,1.08,0,0,1-.86-1.74q1.76-2.28,3.59-4.47c1.9-2.27,4-4.67,6.45-7.36a1.09,1.09,0,0,1,1.53-.07,1.08,1.08,0,0,1,.07,1.52c-2.42,2.67-4.51,5.06-6.39,7.3q-1.8,2.14-3.54,4.4a1.06,1.06,0,0,1-.85.42M96.9,508.51a1.09,1.09,0,0,1-.73-.29,1.08,1.08,0,0,1,0-1.53c3.33-3.57,6.89-7.42,10.3-11.42a1.08,1.08,0,0,1,1.52-.13,1.09,1.09,0,0,1,.12,1.53c-3.43,4-7,7.91-10.37,11.49a1.07,1.07,0,0,1-.79.35"/><path d="M156,786.73l-.15,0a60.08,60.08,0,0,1-7.54-1.56,1.08,1.08,0,0,1,.58-2.08,60.94,60.94,0,0,0,7.27,1.51,1.08,1.08,0,0,1-.16,2.15"/><path d="M915,569a1.12,1.12,0,0,1-.81-.36l-5-5.63a1.08,1.08,0,1,1,1.61-1.44l5,5.63a1.08,1.08,0,0,1-.08,1.52,1.06,1.06,0,0,1-.72.28"/><path d="M907.48,788a1.08,1.08,0,0,1-.51-2,72,72,0,0,0,12.7-8.73,1.08,1.08,0,0,1,1.41,1.64,74.52,74.52,0,0,1-13.08,9,1.08,1.08,0,0,1-.52.13M931,767.65a1.07,1.07,0,0,1-.64-.21,1.09,1.09,0,0,1-.24-1.51c.56-.77,1.11-1.54,1.63-2.33a64.16,64.16,0,0,0,5.91-11.07,1.08,1.08,0,1,1,2,.82,66.07,66.07,0,0,1-6.1,11.45c-.54.81-1.1,1.62-1.68,2.41a1.07,1.07,0,0,1-.87.44M942.91,739h-.17a1.09,1.09,0,0,1-.91-1.24,65.19,65.19,0,0,0,.82-10.25c0-1.69-.07-3.41-.2-5.11a1.06,1.06,0,0,1,1-1.16,1.1,1.1,0,0,1,1.16,1c.14,1.77.21,3.55.21,5.29a67.21,67.21,0,0,1-.84,10.59,1.07,1.07,0,0,1-1.06.91M940.39,708a1.09,1.09,0,0,1-1-.74c-1-3.14-2.23-6.31-3.41-9.38-.68-1.76-1.36-3.52-2-5.29a1.08,1.08,0,0,1,2-.74c.64,1.75,1.31,3.51,2,5.26,1.19,3.09,2.42,6.29,3.46,9.48a1.09,1.09,0,0,1-.7,1.36,1,1,0,0,1-.33,0M931,678.22a1.08,1.08,0,0,1-1.07-1,38.27,38.27,0,0,1-.26-4.35,32.9,32.9,0,0,1,.26-4.12,35.4,35.4,0,0,1,1.78-7.43,1.08,1.08,0,1,1,2,.71,34,34,0,0,0-1.68,7,30.5,30.5,0,0,0-.24,3.85,33.9,33.9,0,0,0,.25,4.1,1.09,1.09,0,0,1-.95,1.2H931m8.63-29.48a1,1,0,0,1-.54-.14,1.08,1.08,0,0,1-.4-1.48l.94-1.61A114.83,114.83,0,0,0,946,633.42a1.1,1.1,0,0,1,1.43-.57,1.08,1.08,0,0,1,.56,1.42,117.9,117.9,0,0,1-6.5,12.32l-.94,1.61a1.07,1.07,0,0,1-.93.54m10.43-29a1.07,1.07,0,0,1-1.07-1,32.42,32.42,0,0,0-4.73-14.27,1.08,1.08,0,0,1,.4-1.48,1.07,1.07,0,0,1,1.47.39,34.4,34.4,0,0,1,5,15.22,1.06,1.06,0,0,1-1,1.14H950M935.85,592.4A1.12,1.12,0,0,1,935,592q-1.63-1.89-3.29-3.73l-7.13-7.95a1.08,1.08,0,0,1,.09-1.53,1.07,1.07,0,0,1,1.52.09l7.13,8c1.1,1.23,2.22,2.48,3.32,3.75a1.09,1.09,0,0,1-.11,1.53,1.13,1.13,0,0,1-.71.26"/><path d="M885.55,795.66a1.08,1.08,0,0,1-.18-2.14,69.87,69.87,0,0,0,7.25-1.69,1.08,1.08,0,1,1,.6,2.07,71.54,71.54,0,0,1-7.47,1.74l-.2,0"/><path d="M589.33,931H544.9L501.12,733.93l-30.48-68.52v0l.05-.13,21.36-84.93,33.74-17.93c9.54,36.67,30.54,119.06,38.32,163.23,10.21,58,25.22,205.37,25.22,205.37" fill="url(#h)"/><path d="M525.51,561.3l-40.87,4.21s-4.32,51.38-13.95,99.75l-.05.13v0c-2.24,11.25-4.77,22.36-7.6,32.59-15,54.26-83.27,230.19-83.27,230.19l-4.6-1.62-42.7-15-5.14-1.82,59.63-213-3.65-157.18a26.65,26.65,0,0,0,7.48,1.32c13.43,1.3,26.28,5.85,39.37,9.09s27,5.21,39.92,1.32c8.14-2.46,15.68-7.17,24.13-8,4.47-.41,8.94.33,13.39.84s9,.87,13.35-.28c0,0,1.75,6.55,4.56,17.33" fill="url(#i)"/><path d="M620.76,947.81c49.42-13,48,35.23,48,35.23L544.3,973l4-42h41Z" fill="url(#j)"/><path d="M525.79,562.4l-33.74,17.93-21.36,84.93c9.63-48.37,13.95-99.75,13.95-99.75l40.87-4.21c.08.37.19.73.28,1.1" fill="#591919"/><path d="M434.2,999.84l-59.63,2.29-58.45-47.52,16.35-43,42.7,15,10.2,33.64c42.63.21,48.83,39.63,48.83,39.63" fill="url(#k)"/><path d="M406.45,627q-1.89-37.05-4.19-74.08-.28-4.73-.59-9.44a1.08,1.08,0,0,0-2.15.19q2.34,36.84,4.27,73.72c1.27,24.26,3.28,48.83.57,73.07-2.64,23.71-10.17,46.48-17.65,69q-11.62,35-23.24,70-11.69,35.17-23.36,70.35l-2.88,8.66c-.43,1.3,1.52,2.24,2,.92q11.73-35.34,23.47-70.69L386.13,768c7.46-22.48,15.41-45,19.18-68.49,3.84-24,2.36-48.38,1.14-72.54" fill="#591919"/><path d="M540.85,870.35c-2.92-18.86-6.08-37.69-9.71-56.43-3.59-18.52-7.63-37-12.36-55.22s-10.17-36.47-16.51-54.31a499.14,499.14,0,0,0-21.9-52.33c-1-2.12-2.1-4.24-3.17-6.34-.62-1.23-2.65-.49-2,.75a490.41,490.41,0,0,1,22.57,51.8c6.54,17.67,12.16,35.66,17.07,53.85S524,789,527.71,807.62s7,37.36,9.93,56.13,5.66,37.54,8.32,56.34l1,7c.2,1.37,2.35,1.19,2.15-.19-2.66-18.87-5.33-37.74-8.25-56.58" fill="#591919"/><path d="M529.57,470.3v.52a41.95,41.95,0,0,1-56.68-20.33q4.8-3.24,9.57-6.55c4.49,7.48,8,12.53,9.41,13.89,4.41,4.19,21,12.27,37.7,12.47"/><path d="M534.19,353.18c-.48.24-1,.5-1.43.78-.49-2-1-4.13-1.55-6.24,1,1.79,2,3.63,3,5.46" fill="#4c7cd4"/><path d="M596.53,409.49c-11.71,9.62-21.6,33.94-41.76,52.23a30.83,30.83,0,0,1-9.85,6,40.81,40.81,0,0,1-13,2.51c0,.21,0,.41,0,.62-.56,14.13-1.62,28.38-3.3,38.17,4.6,1.45,1.16,12-2.25,15.42,4.19,1.58,6,7,4.51,11.23s-5.61,7.11-9.93,8.25-8.9.83-13.35.29-8.92-1.26-13.39-.85c-8.45.78-16,5.49-24.13,8-12.89,3.89-26.83,1.95-39.92-1.32s-25.94-7.79-39.37-9.09a26.65,26.65,0,0,1-7.48-1.32c-2.35-.93-4.49-2.87-4.88-5.38s1.54-5.33,4.08-5.2c-3.06,0-4.79-3.87-4.14-6.87s2.72-5.49,4-8.27a17.66,17.66,0,0,0,1.43-4.78c-3.11-14.79-1.45-30.24,1.62-44.92,1.17-5.6,2.55-11.15,4-16.68.73-2.85,1.51-5.68,2.27-8.53,2.41-8.9,4.81-17.82,7.27-26.72,4.89-17.63,10-35.19,15.56-52.6,5.44-16.87,11.23-33.71,18.16-50,5.68-13.35,12.42-26.4,21.36-37.85-.06,0-.1-.1-.17-.15,6.33-14.21,25.84-19.46,25.84-19.46l2.78,4.69L507.66,299a33.83,33.83,0,0,1,4.11,4.1,1.24,1.24,0,0,1,.28.28l.13.2a4.79,4.79,0,0,1,.43.47,62.7,62.7,0,0,1,6.48,10.13c1.71,2.79,3.37,5.62,4.95,8.47a232.24,232.24,0,0,1,18.55,43.27q2.65,8.35,4.65,16.91c1.42-1.86,3-4.06,4.79-6.72,1.34-2,2.77-4.3,4.28-6.87a27.06,27.06,0,0,1,8.27-9,22.46,22.46,0,0,1,17.54-3l2,1.95,17.23,17a3.37,3.37,0,0,1,.37.24c7.11,4.49,6.33,23.65-5.18,33.09" fill="url(#l)"/><path d="M564.58,360.24a27.2,27.2,0,0,0-8.27,9c-1.51,2.57-2.94,4.84-4.28,6.87a10.64,10.64,0,0,1-.86-11.62,3.57,3.57,0,0,0,1.83.65,6.08,6.08,0,0,0,4.52-2.23,15.15,15.15,0,0,0,4.14-8.79Z" fill="#ffa451"/><path d="M445.74,351.26c2.76,25.62,17.54,58.12,29.76,80.52-3.39,1.58-6.78,3.14-10.21,4.63a381.43,381.43,0,0,1-20-85.11Z" fill="#2f3273"/><path d="M657.31,297.86c-6.37,5.81-12.72,11.67-19.1,17.48a89,89,0,0,0-13.64,5,5.5,5.5,0,0,0-.83-.52l19.66-19.42c2-1.94,4-3.93,6.65-4.79s5.94-.16,7.26,2.26"/><path d="M638.21,315.34c3-.8,6-1.47,9-2,2.85-.45,6.85.05,7.13,2.92.13,1.53-1,2.85-2.1,3.93a46.29,46.29,0,0,1-13,8.81,2.59,2.59,0,0,0-1.06.5,7.9,7.9,0,0,0,1.06-.5,3.74,3.74,0,0,1,4.1,2.66c.54,2.16-.75,4.43-2.56,5.72a16.6,16.6,0,0,1-6.2,2.27A6,6,0,0,1,632,350.83c2.59-.41,4.36,3.11,3.39,5.55s-3.45,3.87-5.79,5.12c-9.26,4.94-18.57,9.93-27.84,14.9l-.36-.24-17.24-17a169.61,169.61,0,0,1,17.79-29.42c2.88-3.83,6.05-7.65,10.33-9.77,3.59-1.77,8.12-2.05,11.51-.19a5.5,5.5,0,0,1,.83.52,89,89,0,0,1,13.64-5" fill="url(#m)"/><path d="M551.17,364.5a5.81,5.81,0,0,1-2.18-5.4,9.9,9.9,0,0,1,1.44-3.74c-1.21-2.42-2.44-4.79-3.76-7.15,1.75-.49,3.52-.93,5.32-1.27,2.81-.58,6.11-.82,8.12,1.19,1.51,1.51,1.81,3.89,1.55,6a15.12,15.12,0,0,1-4.14,8.79,6.08,6.08,0,0,1-4.52,2.23,3.57,3.57,0,0,1-1.83-.65" fill="#ffa451"/><path d="M535.83,397.81a71.87,71.87,0,0,0-16.16,28.53,20.76,20.76,0,0,1,16.16-28.53" fill="#2f3273"/><path d="M528.56,470.47c-8.43,2.54-17.53,0-24.78-4.55-7.69-4.87-13.65-12-19.37-18.92-.88-1.06-2.65.18-1.77,1.25,6.07,7.37,12.38,14.81,20.6,19.86,7.71,4.75,17.23,7.05,26.07,4.38,1.33-.4.57-2.42-.75-2" fill="#2f3273"/><path d="M535.23,385.25a1.1,1.1,0,0,0-1.44.51l-5.61,8.8a1.08,1.08,0,0,0,.52,1.44,1.09,1.09,0,0,0,1.43-.51l5.61-8.81a1.08,1.08,0,0,0-.51-1.43" fill="#2f3273"/><path d="M530.37,381.2a1.09,1.09,0,0,0-1.44.52q-1.57,4.61-3.14,9.22a1.12,1.12,0,0,0,.51,1.44,1.09,1.09,0,0,0,1.44-.51q1.57-4.62,3.14-9.23a1.11,1.11,0,0,0-.51-1.44" fill="#2f3273"/><path d="M524,378a1.09,1.09,0,0,0-1.44.52q-1.41,3.6-2.8,7.2a1.11,1.11,0,0,0,.51,1.44,1.09,1.09,0,0,0,1.44-.51l2.8-7.21A1.11,1.11,0,0,0,524,378" fill="#2f3273"/><path d="M592.23,370.53a1.09,1.09,0,0,0-1.52.14l-3.61,4.8a1.1,1.1,0,0,0,.13,1.52,1.11,1.11,0,0,0,1.53-.13l3.6-4.8a1.11,1.11,0,0,0-.13-1.53" fill="#2f3273"/><path d="M587.27,367.2a1.1,1.1,0,0,0-1.51-.26l-4,3.59a1.16,1.16,0,0,0-.44.68,1.13,1.13,0,0,0,.18.82,1.1,1.1,0,0,0,1.51.26l4-3.58a1.22,1.22,0,0,0,.44-.69,1.09,1.09,0,0,0-.18-.82" fill="#2f3273"/><path d="M581.78,361.87a1.09,1.09,0,0,0-1.39-.63l-4.81,2.37a1.11,1.11,0,0,0-.64,1.39,1.09,1.09,0,0,0,1.39.64l4.82-2.38a1.11,1.11,0,0,0,.63-1.39" fill="#2f3273"/><path d="M596.12,376.3a1.1,1.1,0,0,0-1.26.87,7,7,0,0,1-.23,1.19c0,.16,0,.06,0,0a.65.65,0,0,0,0,.13l-.12.29a5.94,5.94,0,0,1-.27.57c0,.08-.08.16-.13.24l0,.07,0,0a4.29,4.29,0,0,1-.37.5,5.34,5.34,0,0,1-.39.44l-.13.12s0,0,0,0-.19.15-.21.17a1.11,1.11,0,0,0-.26,1.51,1.1,1.1,0,0,0,1.51.26,7.73,7.73,0,0,0,2.82-5.11,1.12,1.12,0,0,0-.87-1.26" fill="#2f3273"/><path d="M602.91,380.84a1.1,1.1,0,0,0-1.44.51l-2,4.8a1.1,1.1,0,0,0,.52,1.44,1.12,1.12,0,0,0,1.44-.52c.67-1.6,1.35-3.2,2-4.79a1.1,1.1,0,0,0-.51-1.44" fill="#2f3273"/><path d="M494.7,287.11q-11.4-14-22.78-28.06c-.88-1.07-2.65.17-1.77,1.25l22.78,28.05c.87,1.08,2.65-.16,1.77-1.24" fill="#2f3273"/><path d="M487.71,286.51l-8-7.26a1.08,1.08,0,0,0-1.39,1.66l8,7.25a1.08,1.08,0,0,0,1.52-.13,1.1,1.1,0,0,0-.13-1.52" fill="#2f3273"/><path d="M519.51,512.49l-20.42,8.4c-1.28.53-.53,2.56.76,2l20.41-8.41c1.29-.53.54-2.55-.75-2" fill="#2f3273"/><path d="M519,522.66l-14.81.73c-1.39.07-1.2,2.22.19,2.15l14.81-.73c1.39-.07,1.2-2.22-.19-2.15" fill="#2f3273"/><path d="M402.78,518.82l-13.26-4.26a1.09,1.09,0,0,0-1.26.86,1.12,1.12,0,0,0,.87,1.26l13.26,4.26a1.09,1.09,0,0,0,1.26-.87,1.11,1.11,0,0,0-.87-1.25" fill="#2f3273"/><path d="M400.38,526.8l-9.21-.71a1.11,1.11,0,0,0-1.26.87,1.09,1.09,0,0,0,.86,1.26l9.22.71a1.12,1.12,0,0,0,1.26-.87,1.1,1.1,0,0,0-.87-1.26" fill="#2f3273"/><path d="M546.9,384.08a7.59,7.59,0,0,0-4.43-3.21,7.69,7.69,0,0,0-6.31,1.23c-.36-2.5-1-5-2.95-6.74s-5.12-2.42-7.37-.75c-1.11.83.13,2.6,1.25,1.77,1.72-1.28,4-.32,5.26,1.22,1.48,1.9,1.69,4.52,1.92,6.83a1.09,1.09,0,0,0,1.9.6,5.55,5.55,0,0,1,9.8,2.13c.26,1.19,2-1.16,1-3.16" fill="#2f3273"/><path d="M440.92,448.12a1.09,1.09,0,0,0-2.16.19q1,12,1.91,24a1.08,1.08,0,0,0,2.15-.19Z"/><path d="M537.71,234.34c.52-3.78,1.1-14.34-9-13.7-12.31.8-11.21,17.63-11.21,17.63-7.3-4.82-17.21,3.2-17.21,3.2l-3.24,2.8a35.65,35.65,0,0,0,.23-8.76c-.56-3.53-2.33-6.74-3.67-10s-2.31-7-1.25-10.45,3.74-5.71,6.09-8.25a47.88,47.88,0,0,0,10.5-18c1-3.28,1.73-6.7,3.17-9.81s3.83-6,7.09-7.1c3.86-1.3,8.08.19,12.16,0,7.47-.26,14.36-5.94,21.73-4.69,6.56,1.1,11,7.35,17.26,9.7,4.08,1.56,8.59,1.34,13,1.62s9,1.32,11.9,4.65c4.47,5.16,2.85,13.88,7.67,18.74,4.19,4.19,12.16,4.3,14.34,9.79,1.23,3.07-.13,6.69-2.42,9.05s-5.4,3.78-8.42,5.12C600.52,228.42,593.65,231,588,228a15.19,15.19,0,0,1-1.53-1v0c-3-2.21-5.44-5.58-9.11-6.44-6.25-1.45-11.82,5.16-18.21,5-4.41-.11-8.84-3.43-12.88-1.64s-5,8-8.55,10.39" fill="url(#n)"/><path d="M586.46,227v0a225.59,225.59,0,0,1-5.09,22.07,144.07,144.07,0,0,1-8.69,23.48c-4.77,9.85-10.89,18.28-18.57,21.9-12.32,5.82-24-1.81-32.6-10.82a97.16,97.16,0,0,1-13.84-19l7,34.64-1.62,3.7-.46,1a34.88,34.88,0,0,0-4.94-5.05l-25.15-42.14,14.5-12.6,3.24-2.8s9.91-8,17.21-3.2c0,0-1.1-16.83,11.21-17.63,10.13-.64,9.55,9.92,9,13.7,3.59-2.38,4.41-8.55,8.56-10.39s8.46,1.53,12.87,1.64c6.39.15,12-6.46,18.21-5,3.67.86,6.07,4.23,9.11,6.44" fill="url(#o)"/><path d="M586.63,268.29c.93,1.3,2,2.83,1.45,4.32s-2.2,1.93-3.67,2.12a20.37,20.37,0,0,1-11.73-2.14,144.07,144.07,0,0,0,8.69-23.48,29.52,29.52,0,0,0,5.26,19.18" fill="#ba7d4e"/><path d="M521.51,283.67l-6.83,15.66-7-34.64a97,97,0,0,0,13.85,19" fill="url(#p)"/><path d="M559.37,285.11a20.65,20.65,0,0,1-8.55-12.69,1.12,1.12,0,0,0-1.17-1,1.1,1.1,0,0,0-1,1.17A22.81,22.81,0,0,0,558,286.76c1.14.78,2.54-.87,1.39-1.65" fill="url(#q)"/><path d="M575,246.26a8.49,8.49,0,0,1-2.85,4.06,4.09,4.09,0,0,1-4.93.36,2,2,0,0,1-.45-.41,3.37,3.37,0,0,1-.91-1.12,4.93,4.93,0,0,1,.52-4.71,9.75,9.75,0,0,1,3.72-3.84,3.67,3.67,0,0,1,4.62.9c1,1.36.8,3.24.28,4.76" fill="url(#r)"/><path d="M529.36,223.72c-2.82-.87-5.27,1.08-6.61,3.38a1.09,1.09,0,0,0,.51,1.44,1.1,1.1,0,0,0,1.44-.51c.72-1.24,1.94-2.46,3.48-2.35s2.08,1.53,2,2.9a9.5,9.5,0,0,1-1.65,4.49A11.29,11.29,0,0,1,527,234.9a8.75,8.75,0,0,1-.89.72c-.27.19-.74.62-1.09.59s-.41-.71-.28-1c.33-.77,1.28-1.22,1.95-1.61a1.08,1.08,0,1,0-1.24-1.76,6.11,6.11,0,0,0-2.62,2.36,3.19,3.19,0,0,0,.16,3.11c1.68,2.54,4.75,0,6.14-1.49a12.24,12.24,0,0,0,3.13-6.29c.37-2.37-.35-5-2.87-5.79" fill="url(#s)"/><path d="M580.5,236.11a17.35,17.35,0,0,0-10.58-3,2.17,2.17,0,0,0-2,2.34,2.2,2.2,0,0,0,2.34,2c.41,0,.81,0,1.22,0h0c.2,0,.41,0,.61.06a14.94,14.94,0,0,1,2.18.41,4,4,0,0,1,.46.13l.25.09c.33.12.66.26,1,.4s.65.31,1,.48l.54.3.17.11h0l.08.05-.06,0a2.35,2.35,0,0,0,1.55.48,2.16,2.16,0,0,0,1.2-3.81" fill="url(#t)"/><path d="M534.19,353.18c-1-1.83-1.94-3.67-3-5.46.56,2.11,1.06,4.21,1.55,6.24,3.29,14,4.89,25.57,5.14,27.58-.86-.6-2.09-.32-3.82,1.54,0,0,0-9.31-5.7-8.71,0,0-7.34-53-29.12-64.86,0,0-23.8-15.06-42.25,4.1a60.76,60.76,0,0,0-11.38,4.73c-11.79,44.26-17.37,90.16-26.11,135.3a445.55,445.55,0,0,0,45.77-17.23c3.43-1.49,6.82-3.05,10.21-4.63,2.46,4.52,4.82,8.62,7,12.16q-4.77,3.31-9.57,6.55-30.88,20.92-63,39.85a17.23,17.23,0,0,1-3.39,4c-4.73,4.06-11.1,4.77-17.5,4.51-1.79-.08-3.58-.24-5.33-.41l-1.32-.15h0c-8.92-1-17.93-2-26.4-4.92s-16.46-8.13-21.14-15.77a35.13,35.13,0,0,1-4.34-11.3c-1.43-6.95-1.26-14.43-.83-21.58q.92-15.64,2.9-31.21A372,372,0,0,1,349,341.28a304,304,0,0,1,16.85-40.15c7-13.76,15.92-27.74,30-34.09,12.16-5.49,25.64-4.28,38.86-1,3.21.8,6.43,1.75,9.61,2.74,2.05.65,4.1,1.32,6.13,2h0a4.93,4.93,0,0,1,3.5.8,7.45,7.45,0,0,1,3.22,4.56c.71,3.35-.5,6.78-1.64,10-.76,2.12-1.49,4.26-2.2,6.39a66.31,66.31,0,0,1,75.6,47.07l.1,0c-3.93-13.35-9.31-26.87-16.37-35.6l.45-1,.48.21a207.61,207.61,0,0,1,33.13,45c1.32,2.36,2.55,4.73,3.76,7.15A9.9,9.9,0,0,0,549,359.1a5.81,5.81,0,0,0,2.18,5.4,10.62,10.62,0,0,0,.86,11.62c-1.86,2.81-3.56,5.12-5,7a200.12,200.12,0,0,0-12.81-30" fill="url(#u)"/><path d="M363.81,417.14c-1.12,17-2.29,34.06-3.41,51.08l0,.56a136.54,136.54,0,0,1-30-2.48c-1.43-6.95-1.26-14.43-.83-21.58q.92-15.64,2.9-31.21l1.23.15a109.34,109.34,0,0,1,30.09,3.48" fill="#995605"/><path d="M434.64,266.09c-8.71,6-14.74,15.19-19.38,24.69-4.75,9.7-8.32,20-13.46,29.46S389.66,338.69,380,343.57s-22.25,4.88-30.5-2.1l-.58-.19a304,304,0,0,1,16.85-40.15c7-13.76,15.92-27.74,30-34.09,12.16-5.49,25.64-4.28,38.86-1" fill="#bf6c06"/><path d="M383.66,498.44l-1.32-.15a446.15,446.15,0,0,1,61.91-229.46c2.05.65,4.1,1.32,6.13,2a4.11,4.11,0,0,0-.73.2S411,338.13,399.38,400.18A612.24,612.24,0,0,0,389,498.85c-1.79-.08-3.58-.24-5.33-.41" fill="#bf6c06"/><path d="M362.22,425.17Q347.07,423,331.81,422c-1.25-.08-1.61,2-.36,2.12q15.26,1,30.42,3.21c1.24.18,1.6-1.95.35-2.13" fill="#995605"/><path d="M441.65,271.07A402.89,402.89,0,0,0,402.92,354a408.34,408.34,0,0,0-19.18,89.3,399.44,399.44,0,0,0-1.8,51.07c0,1.39,2.19,1.2,2.15-.19a400.34,400.34,0,0,1,7.81-90.65,405.46,405.46,0,0,1,27.79-86.42A399.91,399.91,0,0,1,443.6,272c.73-1.19-1.23-2.1-2-.93" fill="#995605"/><path d="M425.74,452.12a1.08,1.08,0,0,0-2.15.19q1.21,14.42,2.45,28.82a1.08,1.08,0,0,0,2.15-.19q-1.23-14.4-2.45-28.82" fill="#995605"/><path d="M452.21,293.46l-7,25.29c-.37,1.34,1.75,1.72,2.12.39l7-25.29c.37-1.34-1.76-1.72-2.12-.39" fill="#995605"/><path d="M465.81,292.49l-7.4,21.15c-.46,1.3,1.49,2.23,1.95.92q3.7-10.56,7.4-21.14c.46-1.31-1.49-2.24-1.95-.93" fill="#995605"/><path d="M464.33,452.43a1.12,1.12,0,0,0-1.51-.26l-6,3.2a1.09,1.09,0,0,0-.26,1.51,1.13,1.13,0,0,0,1.51.26l6-3.2a1.09,1.09,0,0,0,.26-1.51" fill="#995605"/><path d="M476,446.17a1.1,1.1,0,0,0-1.39-.64l-6,2.76a1.08,1.08,0,0,0,.76,2l6-2.76a1.09,1.09,0,0,0,.64-1.38" fill="#995605"/><path d="M470.38,442.88a1.11,1.11,0,0,0-1.51-.26l-6,4.07a1.09,1.09,0,0,0-.26,1.5,1.11,1.11,0,0,0,1.51.26l6-4.07a1.09,1.09,0,0,0,.26-1.5" fill="#995605"/><path d="M345.94,369.1a1.11,1.11,0,0,0-1.26.86l-2.8,9.21a1.09,1.09,0,0,0,.86,1.26,1.11,1.11,0,0,0,1.26-.87l2.8-9.2a1.09,1.09,0,0,0-.86-1.26" fill="#995605"/><path d="M343,384.8a1.08,1.08,0,0,0-1.43.52,18.94,18.94,0,0,0-1,10.16,1.11,1.11,0,0,0,1.17,1,1.08,1.08,0,0,0,1-1.17,16.92,16.92,0,0,1,.76-9.05,1.12,1.12,0,0,0-.52-1.44" fill="#995605"/><path d="M350.34,378.71a1.09,1.09,0,0,0-1.26.86l-1.2,7.61a1.11,1.11,0,0,0,.87,1.26,1.1,1.1,0,0,0,1.26-.87l1.2-7.61a1.1,1.1,0,0,0-.87-1.25" fill="#995605"/><path d="M432.85,340.29a1.12,1.12,0,0,0-1.26.87l-3.21,10.4a1.09,1.09,0,0,0,.87,1.26,1.11,1.11,0,0,0,1.26-.87l3.21-10.4a1.09,1.09,0,0,0-.87-1.26" fill="#995605"/><path d="M426.72,362l-2.46,12.39a1.08,1.08,0,0,0,2.13.39l2.46-12.39a1.08,1.08,0,0,0-2.13-.39" fill="#995605"/><path d="M423.13,352.75l-2.41,10.41c-.31,1.35,1.82,1.74,2.13.39l2.4-10.41c.32-1.36-1.81-1.74-2.12-.39" fill="#995605"/><path d="M378.15,932.54a28.78,28.78,0,0,0-22.09,8.24,2.17,2.17,0,0,0,.27,3,2.21,2.21,0,0,0,3-.27,24.11,24.11,0,0,1,18-6.76,2.24,2.24,0,0,0,2.52-1.74,2.18,2.18,0,0,0-1.74-2.51" fill="#fff"/><path d="M382.56,946.5A27.44,27.44,0,0,0,363.64,952c-2.2,1.68.28,5.22,2.49,3.52a23,23,0,0,1,15.65-4.73,2.21,2.21,0,0,0,2.51-1.73,2.17,2.17,0,0,0-1.73-2.52" fill="#fff"/><path d="M600.39,937.54a2.21,2.21,0,0,0-2.78-1.28,25.18,25.18,0,0,0-16,14.5,2.21,2.21,0,0,0,1,2.87,2.17,2.17,0,0,0,2.87-1,23.66,23.66,0,0,1,1.07-2.28q.28-.52.6-1.05l.08-.14.09-.13.37-.54a23,23,0,0,1,1.5-1.89c.29-.33.59-.66.9-1l.39-.38.21-.21,0,0a23.19,23.19,0,0,1,4-2.89l.35-.2.41-.2c.36-.18.73-.35,1.1-.5a21.52,21.52,0,0,1,2.48-.89,2.18,2.18,0,0,0,1.27-2.77" fill="#fff"/><path d="M610,944.25a2.19,2.19,0,0,0-2.78-1.27,29.1,29.1,0,0,0-11.8,10.19,2.32,2.32,0,0,0-.49,1.57,2.15,2.15,0,0,0,3.8,1.2,26.62,26.62,0,0,1,2.12-2.82c.38-.45.78-.89,1.19-1.31l.63-.62c.05,0,.49-.43.12-.1l.33-.3a28.07,28.07,0,0,1,2.8-2.15c.49-.32,1-.63,1.51-.93l.38-.21.26-.14.18-.09c.16-.09.32-.16.48-.24a2.2,2.2,0,0,0,1.27-2.78" fill="#fff"/><path d="M426.42,991.63l-48.05.5a1.76,1.76,0,0,0-1.2.45l-54.4-44c-2.16-1.75-4.94,1.55-2.78,3.31L375.75,997a2.08,2.08,0,0,0,3.13-.55l47.91-.5c2.78,0,2.39-4.33-.37-4.3" fill="#fff"/><path d="M659.62,972.36,553.1,963.13c-2.74-.24-3.54,4-.78,4.25l106.52,9.23c2.75.24,3.55-4,.78-4.25" fill="#fff"/></g></g></svg>