<?xml version="1.0" encoding="utf-8"?>
<!-- Generator: Adobe Illustrator 23.0.1, SVG Export Plug-In . SVG Version: 6.00 Build 0)  -->
<svg version="1.1" id="Layer_1" xmlns="http://www.w3.org/2000/svg" xmlns:xlink="http://www.w3.org/1999/xlink" x="0px" y="0px"
	 viewBox="0 0 1080 1080" style="enable-background:new 0 0 1080 1080;" xml:space="preserve">
<style type="text/css">
	.st0{clip-path:url(#SVGID_2_);}
	.st1{fill:#FFFFFF;}
	.st2{clip-path:url(#SVGID_4_);}
	.st3{fill:#76989C;stroke:#000000;stroke-miterlimit:10;}
	.st4{clip-path:url(#SVGID_6_);}
	.st5{fill:#76989C;}
	.st6{clip-path:url(#SVGID_8_);}
	.st7{clip-path:url(#SVGID_10_);}
	.st8{clip-path:url(#SVGID_12_);}
	.st9{clip-path:url(#SVGID_14_);}
	.st10{fill:#D7E5F4;}
	.st11{clip-path:url(#SVGID_16_);}
	.st12{clip-path:url(#SVGID_18_);}
	.st13{clip-path:url(#SVGID_20_);}
	.st14{clip-path:url(#SVGID_22_);}
	.st15{clip-path:url(#SVGID_24_);}
	.st16{clip-path:url(#SVGID_26_);}
	.st17{clip-path:url(#SVGID_28_);}
	.st18{clip-path:url(#SVGID_30_);}
	.st19{clip-path:url(#SVGID_32_);}
	.st20{clip-path:url(#SVGID_34_);}
	.st21{clip-path:url(#SVGID_36_);}
	.st22{fill:#BCD7F7;}
	.st23{clip-path:url(#SVGID_38_);}
	.st24{clip-path:url(#SVGID_40_);}
	.st25{clip-path:url(#SVGID_42_);}
	.st26{clip-path:url(#SVGID_44_);}
	.st27{clip-path:url(#SVGID_46_);}
	.st28{clip-path:url(#SVGID_48_);}
	.st29{clip-path:url(#SVGID_50_);}
	.st30{fill:#465A5C;}
	.st31{clip-path:url(#SVGID_52_);}
	.st32{fill:#D93D3D;}
	.st33{clip-path:url(#SVGID_54_);}
	.st34{clip-path:url(#SVGID_56_);}
	.st35{clip-path:url(#SVGID_58_);}
	.st36{fill:#FFFFFF;stroke:#FFFFFF;stroke-width:2;stroke-miterlimit:10;}
	.st37{clip-path:url(#SVGID_60_);}
	.st38{clip-path:url(#SVGID_62_);}
	.st39{clip-path:url(#SVGID_64_);}
	.st40{clip-path:url(#SVGID_66_);}
	.st41{clip-path:url(#SVGID_68_);}
	.st42{clip-path:url(#SVGID_70_);}
	.st43{clip-path:url(#SVGID_72_);}
	.st44{clip-path:url(#SVGID_74_);}
	.st45{clip-path:url(#SVGID_76_);}
	.st46{clip-path:url(#SVGID_78_);}
	.st47{clip-path:url(#SVGID_80_);}
	.st48{clip-path:url(#SVGID_82_);}
	.st49{clip-path:url(#SVGID_84_);}
	.st50{clip-path:url(#SVGID_86_);}
	.st51{clip-path:url(#SVGID_88_);}
	.st52{fill:url(#SVGID_89_);}
	.st53{clip-path:url(#SVGID_91_);}
	.st54{fill:url(#SVGID_92_);}
	.st55{clip-path:url(#SVGID_94_);}
	.st56{fill:url(#SVGID_95_);}
	.st57{clip-path:url(#SVGID_97_);}
	.st58{fill:#591919;}
	.st59{clip-path:url(#SVGID_99_);}
	.st60{fill:url(#SVGID_100_);}
	.st61{clip-path:url(#SVGID_102_);}
	.st62{clip-path:url(#SVGID_104_);}
	.st63{clip-path:url(#SVGID_106_);}
	.st64{clip-path:url(#SVGID_108_);}
	.st65{fill:#4C7CD4;}
	.st66{clip-path:url(#SVGID_110_);}
	.st67{fill:url(#SVGID_111_);}
	.st68{clip-path:url(#SVGID_113_);}
	.st69{fill:#FFA451;}
	.st70{clip-path:url(#SVGID_115_);}
	.st71{fill:#2F3273;}
	.st72{clip-path:url(#SVGID_117_);}
	.st73{clip-path:url(#SVGID_119_);}
	.st74{fill:url(#SVGID_120_);}
	.st75{clip-path:url(#SVGID_122_);}
	.st76{clip-path:url(#SVGID_124_);}
	.st77{clip-path:url(#SVGID_126_);}
	.st78{clip-path:url(#SVGID_128_);}
	.st79{clip-path:url(#SVGID_130_);}
	.st80{clip-path:url(#SVGID_132_);}
	.st81{clip-path:url(#SVGID_134_);}
	.st82{clip-path:url(#SVGID_136_);}
	.st83{clip-path:url(#SVGID_138_);}
	.st84{clip-path:url(#SVGID_140_);}
	.st85{clip-path:url(#SVGID_142_);}
	.st86{clip-path:url(#SVGID_144_);}
	.st87{clip-path:url(#SVGID_146_);}
	.st88{clip-path:url(#SVGID_148_);}
	.st89{clip-path:url(#SVGID_150_);}
	.st90{clip-path:url(#SVGID_152_);}
	.st91{clip-path:url(#SVGID_154_);}
	.st92{clip-path:url(#SVGID_156_);}
	.st93{clip-path:url(#SVGID_158_);}
	.st94{clip-path:url(#SVGID_160_);}
	.st95{fill:url(#SVGID_161_);}
	.st96{clip-path:url(#SVGID_163_);}
	.st97{fill:url(#SVGID_164_);}
	.st98{clip-path:url(#SVGID_166_);}
	.st99{fill:#BA7D4E;}
	.st100{clip-path:url(#SVGID_168_);}
	.st101{fill:url(#SVGID_169_);}
	.st102{clip-path:url(#SVGID_171_);}
	.st103{fill:url(#SVGID_172_);}
	.st104{clip-path:url(#SVGID_174_);}
	.st105{fill:url(#SVGID_175_);}
	.st106{clip-path:url(#SVGID_177_);}
	.st107{fill:url(#SVGID_178_);}
	.st108{clip-path:url(#SVGID_180_);}
	.st109{fill:url(#SVGID_181_);}
	.st110{clip-path:url(#SVGID_183_);}
	.st111{fill:url(#SVGID_184_);}
	.st112{clip-path:url(#SVGID_186_);}
	.st113{fill:#995605;}
	.st114{clip-path:url(#SVGID_188_);}
	.st115{fill:#BF6C06;}
	.st116{clip-path:url(#SVGID_190_);}
	.st117{clip-path:url(#SVGID_192_);}
	.st118{clip-path:url(#SVGID_194_);}
	.st119{clip-path:url(#SVGID_196_);}
	.st120{clip-path:url(#SVGID_198_);}
	.st121{clip-path:url(#SVGID_200_);}
	.st122{clip-path:url(#SVGID_202_);}
	.st123{clip-path:url(#SVGID_204_);}
	.st124{clip-path:url(#SVGID_206_);}
	.st125{clip-path:url(#SVGID_208_);}
	.st126{clip-path:url(#SVGID_210_);}
	.st127{clip-path:url(#SVGID_212_);}
	.st128{clip-path:url(#SVGID_214_);}
	.st129{clip-path:url(#SVGID_216_);}
	.st130{clip-path:url(#SVGID_218_);}
	.st131{clip-path:url(#SVGID_220_);}
	.st132{clip-path:url(#SVGID_222_);}
	.st133{clip-path:url(#SVGID_224_);}
	.st134{clip-path:url(#SVGID_226_);}
	.st135{clip-path:url(#SVGID_228_);}
	.st136{clip-path:url(#SVGID_230_);}
</style>
<title>onboarding0</title>
<g>
	<defs>
		<rect id="SVGID_1_" x="-36.1" y="-36.1" width="1152.3" height="1152.3"/>
	</defs>
	<clipPath id="SVGID_2_">
		<use xlink:href="#SVGID_1_"  style="overflow:visible;"/>
	</clipPath>
	<g class="st0">
		<polygon class="st1" points="958.7,287 907,690.8 907,690.8 878.8,911 803.7,857.9 787.5,869.7 697.3,935.4 589.7,863.8 
			516.7,934.4 443.8,863.8 383.8,903.7 336.2,935.4 229.9,857.9 154.7,911 124.9,677.5 74.9,287 188,352 313.1,272.1 426.2,342.1 
			516.7,272.5 549.8,297.9 607.3,342.1 720.4,272.1 843.7,350.9 845.5,352 		"/>
	</g>
</g>
<g>
	<defs>
		<rect id="SVGID_3_" x="-36.1" y="-36.1" width="1152.3" height="1152.3"/>
	</defs>
	<clipPath id="SVGID_4_">
		<use xlink:href="#SVGID_3_"  style="overflow:visible;"/>
	</clipPath>
	<g class="st2">
		<path class="st3" d="M907,690.8L878.8,911l-75.1-53l-16.2,11.7c4.8-17.8,20.3-32.6,34.4-44.6c10.7-9.1,21.3-18,29.4-29.4
			c8.1-11.4,13.7-24.3,18.9-37.1C879.6,734.9,888,709.4,907,690.8"/>
	</g>
</g>
<g>
	<defs>
		<rect id="SVGID_5_" x="-36.1" y="-36.1" width="1152.3" height="1152.3"/>
	</defs>
	<clipPath id="SVGID_6_">
		<use xlink:href="#SVGID_5_"  style="overflow:visible;"/>
	</clipPath>
	<g class="st4">
		<path class="st5" d="M172.7,473.6c-3.9-5.9-5.5-13-4.3-20c2.2-13,11.7-22.5,22-30.8c1.4-1.9,2.6-4,3.5-6.2
			c5.4-13.3,4.4-28.4,11.6-41.1c6.7-11.6,18.5-19.3,31-24.5c14.8-6.1,31.3-9.4,47.2-11.3c32.4-3.7,66.3,0.9,94,18.2
			c11.8,7.3,22.1,16.9,30.1,28.3c8.5,12.4,12.4,26,15.5,40.3c1.7,7.7,3.3,15.4,6.3,22.6c3,7.5,7.8,13.8,12.2,20.5
			c3.8,5.8,7,12.2,7.5,19.1c0.2,7-1.7,13.8-5.5,19.6c-8.2,13-21.7,20.7-35.6,27.1c-7.8,3.6-15.8,6.9-23.2,11.3
			c-6.7,4.1-13,9-18.7,14.5c-11,10.3-20.9,22-33.5,30.7c-12.7,8.6-27.5,13.7-42.9,14.6c-29.4,1.8-57.9-12.3-73.8-36
			c-8-11.9-11.5-25.5-14.4-39.3c-3-14.2-5.7-29.2-14.7-41.2C182.5,484.3,176.7,479.6,172.7,473.6"/>
	</g>
</g>
<g>
	<defs>
		<rect id="SVGID_7_" x="-36.1" y="-36.1" width="1152.3" height="1152.3"/>
	</defs>
	<clipPath id="SVGID_8_">
		<use xlink:href="#SVGID_7_"  style="overflow:visible;"/>
	</clipPath>
	<g class="st6">
		<path class="st3" d="M881.8,467c-5.2,17.3-17,30.8-27.8,45.1c-10.9,14.3-21.2,30.5-18.2,48.8c2.8,17.6,14.9,32.9,14.5,51.1
			c-0.3,17.5-10.2,32.9-21.8,45.9c-11.9,13.4-26.2,24.9-37.6,38.8c-5.4,6.8-10.3,14.4-13.1,22.6c-3,9.1-2.9,18.2-1.2,27.6
			c1.7,9.6,4.4,19.2,3.9,29.1c-0.3,7.7-2.8,15.1-7,21.4c-8.3,12.3-22.3,20.5-36.8,24.3c-39.3,10.5-77.2-11.2-114.4-19.8
			c-19.2-4.5-40.1-6.3-58.8,1.1c-16.2,6.4-28.2,19.3-43.8,26.6c-15.9,7.5-33.4,5.7-48.2-3.2c-15.4-9.2-26.2-23-35-37.9
			c-9.2-15.4-17-31.8-29.3-45.1c-11.2-11.9-28.7-19.5-35.2-35c-6.9-16.2,2.9-33.3,14.9-44.6c12.9-12.2,30.1-19.2,42.8-31.7
			c11.2-10.9,15.7-25.2,20.3-39.4c4.2-12.6,8.6-26.1,19.3-35.1c12.4-10.3,28.8-9.8,44.2-7.7s34,6.5,47.7-3.4
			c12.1-8.7,15.3-25.5,11.6-38.8c-4.3-16.2-18.4-28.6-32.8-37c-14-8.2-29.9-13.2-43-22.7c-12.8-9.3-20.2-23.4-14.8-38.6
			c5.8-16.4,21.3-26.7,35.4-36.3c7.3-4.8,14.5-9.9,20.3-16.3c6.1-7,10-15.6,11.2-24.8c1.7-11.3,0.6-22.8,0.9-34.2l57.5,44.2
			l113.1-70l123.3,78.8c-1.2,2.2-2.2,4.4-3.4,6.6c-6.2,12.5-12.8,27.4-3.8,40.3c8.4,11.9,24.1,16.8,34.9,26.2
			C884.2,435.3,886.6,451.6,881.8,467"/>
	</g>
</g>
<g>
	<defs>
		<rect id="SVGID_9_" x="-36.1" y="-36.1" width="1152.3" height="1152.3"/>
	</defs>
	<clipPath id="SVGID_10_">
		<use xlink:href="#SVGID_9_"  style="overflow:visible;"/>
	</clipPath>
	<g class="st7">
		<path class="st5" d="M383.8,903.7l-47.6,31.7l-106.4-77.5l-75.1,53.1l-29.9-233.4c3.7,0.3,7.4,1,11,1.9c14.1,3.7,26.5,12.2,35,24
			c9.1,12.4,14.7,26.7,23.6,39.3c4.4,6.5,10,12.2,16.4,16.6c7.3,4.9,15.6,8,24.1,10.3c29.9,8.1,70,8,87.4,37.2
			c8.5,14.3,9.2,31.2,16,46.1c6.9,15.3,20.9,25.9,33.2,37.3C375.9,894.6,380,899,383.8,903.7"/>
	</g>
</g>
<g>
	<defs>
		<rect id="SVGID_11_" x="-36.1" y="-36.1" width="1152.3" height="1152.3"/>
	</defs>
	<clipPath id="SVGID_12_">
		<use xlink:href="#SVGID_11_"  style="overflow:visible;"/>
	</clipPath>
	<g class="st8">
		<g>
			<defs>
				<rect id="SVGID_13_" x="697.2" y="278.2" width="97.9" height="650.9"/>
			</defs>
			<clipPath id="SVGID_14_">
				<use xlink:href="#SVGID_13_"  style="overflow:visible;"/>
			</clipPath>
			<g class="st9">
				<polygon class="st10" points="697.2,929.1 720.4,278.2 795,325.9 714.4,916.5 				"/>
			</g>
		</g>
	</g>
</g>
<g>
	<defs>
		<rect id="SVGID_15_" x="-36.1" y="-36.1" width="1152.3" height="1152.3"/>
	</defs>
	<clipPath id="SVGID_16_">
		<use xlink:href="#SVGID_15_"  style="overflow:visible;"/>
	</clipPath>
	<g class="st11">
		<defs>
			<rect id="SVGID_17_" x="803.6" y="343.6" width="66.8" height="537.3"/>
		</defs>
		<clipPath id="SVGID_18_">
			<use xlink:href="#SVGID_17_"  style="overflow:visible;"/>
		</clipPath>
		<g class="st12">
			<polygon class="st10" points="803.6,851.4 845.3,358.1 870.4,343.6 845.3,881 			"/>
		</g>
	</g>
</g>
<g>
	<defs>
		<rect id="SVGID_19_" x="-36.1" y="-36.1" width="1152.3" height="1152.3"/>
	</defs>
	<clipPath id="SVGID_20_">
		<use xlink:href="#SVGID_19_"  style="overflow:visible;"/>
	</clipPath>
	<g class="st13">
		<g>
			<defs>
				<rect id="SVGID_21_" x="550.8" y="343.7" width="56.2" height="550.5"/>
			</defs>
			<clipPath id="SVGID_22_">
				<use xlink:href="#SVGID_21_"  style="overflow:visible;"/>
			</clipPath>
			<g class="st14">
				<polygon class="st10" points="607,348.4 589.1,857.1 550.8,894.2 600.9,343.7 				"/>
			</g>
		</g>
	</g>
</g>
<g>
	<defs>
		<rect id="SVGID_23_" x="-36.1" y="-36.1" width="1152.3" height="1152.3"/>
	</defs>
	<clipPath id="SVGID_24_">
		<use xlink:href="#SVGID_23_"  style="overflow:visible;"/>
	</clipPath>
	<g class="st15">
		<g>
			<defs>
				<rect id="SVGID_25_" x="395.9" y="335" width="48.5" height="554.5"/>
			</defs>
			<clipPath id="SVGID_26_">
				<use xlink:href="#SVGID_25_"  style="overflow:visible;"/>
			</clipPath>
			<g class="st16">
				<polygon class="st10" points="426.5,348.4 444.4,857.1 395.9,889.4 404.9,335 				"/>
			</g>
		</g>
	</g>
</g>
<g>
	<defs>
		<rect id="SVGID_27_" x="-36.1" y="-36.1" width="1152.3" height="1152.3"/>
	</defs>
	<clipPath id="SVGID_28_">
		<use xlink:href="#SVGID_27_"  style="overflow:visible;"/>
	</clipPath>
	<g class="st17">
		<g>
			<defs>
				<rect id="SVGID_29_" x="295.7" y="278.2" width="40.8" height="650.9"/>
			</defs>
			<clipPath id="SVGID_30_">
				<use xlink:href="#SVGID_29_"  style="overflow:visible;"/>
			</clipPath>
			<g class="st18">
				<polygon class="st10" points="336.4,929.1 313.2,278.2 295.7,289.4 303.3,905 				"/>
			</g>
		</g>
	</g>
</g>
<g>
	<defs>
		<rect id="SVGID_31_" x="-36.1" y="-36.1" width="1152.3" height="1152.3"/>
	</defs>
	<clipPath id="SVGID_32_">
		<use xlink:href="#SVGID_31_"  style="overflow:visible;"/>
	</clipPath>
	<g class="st19">
		<g>
			<defs>
				<rect id="SVGID_33_" x="148.1" y="335" width="81.7" height="521.1"/>
			</defs>
			<clipPath id="SVGID_34_">
				<use xlink:href="#SVGID_33_"  style="overflow:visible;"/>
			</clipPath>
			<g class="st20">
				<polygon class="st10" points="188.1,358.1 229.9,851.4 223.3,856.1 148.1,335 				"/>
			</g>
		</g>
	</g>
</g>
<g>
	<defs>
		<rect id="SVGID_35_" x="-36.1" y="-36.1" width="1152.3" height="1152.3"/>
	</defs>
	<clipPath id="SVGID_36_">
		<use xlink:href="#SVGID_35_"  style="overflow:visible;"/>
	</clipPath>
	<g class="st21">
		<path class="st22" d="M416.6,474.3c-1.1-20.4-26.2-25.3-35.4-40.9c-3.2-5.3-3.6-11.6-3.9-17.7c-0.3-6.1-0.9-11.7-2.8-17.3
			c-3.8-10.8-12.1-20-21.9-26.2c-20.5-13.2-47.5-17.4-72-15.3c-0.4-0.3-0.9-0.4-1.4-0.3c-7.3,0.7-14.4,2.1-21.3,4.4
			c-0.6,0.1-1.2,0.3-1.8,0.4c-0.3,0.1-0.6,0.2-0.9,0.4c-4.5,1.7-8.8,3.9-12.8,6.6c-9.3,6.4-16.3,15.6-18.6,26.5
			c-1.4,6.6-1.1,13.3-1.8,20.1c-0.6,6.5-2.8,12.8-6.2,18.4c-6.1,10.1-14.4,19.5-15,31.8c-0.5,11.3,7.4,18.2,16.5,24
			c4.3,2.7,8.6,5.2,12.1,9c3.5,4.1,6,9,7,14.3c2.6,10.7,2.1,21.7,5,32.3c2.9,10.4,9.3,19.4,18,25.7c19.3,14.1,46.2,11.7,64-3.5
			c16.6-14.4,25.5-35.2,45.1-46.6c10.8-6.3,23.2-10.2,33-18C409.7,495.3,417.1,485.4,416.6,474.3 M407.5,488.8
			c-6.5,9.9-17.3,15.4-27.8,20.5c-10.1,4.9-20,10-28,17.9c-7.3,7-13,15.4-19.2,23.2c-6.2,7.8-13.2,15.4-22.4,20.1
			c-10.8,5.4-23.3,6.5-34.9,3c-10.2-3.2-19-9.9-24.6-19c-5.7-9.1-6.5-19.5-7.7-29.8c-1.1-9.6-2.3-19.7-8.5-27.6
			c-6-7.8-15.7-11.1-22.8-17.5c-9.3-8.4-6.4-20.5-0.7-30.1c6-10.1,13.7-18.8,15.4-30.6c1.7-11.8,0.1-24,6.9-34.7
			c5.9-9.2,15.7-15.4,26.1-19c24.8-6.5,52.3-5.9,76.2,3.4c11,4.3,21.3,10.7,28.4,20c3.4,4.4,5.9,9.5,7.4,14.8
			c1.4,5.7,1.3,11.4,1.8,17.2c0.5,5.4,1.6,10.8,4.5,15.6c2.2,3.5,5,6.6,8.2,9.2c6.7,5.8,15,10.1,20.9,16.8
			C413.5,470,413.3,480,407.5,488.8"/>
	</g>
</g>
<g>
	<defs>
		<rect id="SVGID_37_" x="-36.1" y="-36.1" width="1152.3" height="1152.3"/>
	</defs>
	<clipPath id="SVGID_38_">
		<use xlink:href="#SVGID_37_"  style="overflow:visible;"/>
	</clipPath>
	<g class="st23">
		<path class="st22" d="M310.8,384.8c-8.4-6.5-20.4-7.9-30.8-6.3c-7.1,1.1-13.9,3.8-20,7.8c-6.2,1.8-11,6.6-13.9,12.4
			c-5,10.2-2.3,21.7-0.4,32.3c2,11.2,1.1,23.2,5.2,33.9c3.1,8.1,10,16,19.5,17.1c9.8,1.1,19.1-4.9,24.1-12.6c6.1-9.3,7-20.5,8.5-31
			c0.9-5.8,1.8-11.6,4.3-17.1c2.1-4.8,5.4-8.9,7.9-13.4C319.8,399.5,318.6,390.7,310.8,384.8 M312.3,403.5
			c-1.6,3.8-4.2,7.3-6.4,10.9c-2.4,4-4.1,8.3-5.2,12.8c-4.2,16.1-1.4,41.2-20.8,49c-8.7,3.5-17-0.4-21.8-7.8
			c-5.3-8.1-5.3-18-6.1-27.3c-1.1-11.3-5.4-22.9-3.6-34.2c0.7-3.6,2.1-7,4.3-10c0.9,0.3,1.9,0.1,2.5-0.6c2.2-2.4,4.7-4.5,7.4-6.3
			c1.2-0.2,2.4-0.3,3.6-0.3c1.3,0.1,2.5-0.8,2.7-2.2c0,0,0-0.1,0-0.1c0-0.3,0-0.6-0.1-1c10.5-4.9,23-6.2,33.7-1.7
			C310.2,388.2,315.8,395,312.3,403.5"/>
	</g>
</g>
<g>
	<defs>
		<rect id="SVGID_39_" x="-36.1" y="-36.1" width="1152.3" height="1152.3"/>
	</defs>
	<clipPath id="SVGID_40_">
		<use xlink:href="#SVGID_39_"  style="overflow:visible;"/>
	</clipPath>
	<g class="st24">
		<path class="st22" d="M845.2,435.2c-6.6-8.5-16.3-14-24-21.4c-9.6-9.2-12.6-21.4-10-34c2.7-13.2,10.7-24.8,18.4-35.8
			c1.6-2.3-1.9-5.2-3.5-2.8c-7.6,11-15.4,22.3-18.7,35.2c-3,11.6-2,24.5,5.3,34.6c6.3,8.5,15.9,14.2,23.7,21.3
			c3.9,3.6,7.5,7.8,9.4,12.8c2.2,6,1.8,12.4,0.1,18.5c-3.7,12.6-13.1,22.4-22.1,32c-8.5,9.2-16.5,18.7-20.3,30.6
			c-7,22.3,0.7,45.9,2.3,68.3c0.9,11.2,0.1,22.7-5,33c-4.3,8.5-11.5,15.4-19.4,21c-15.7,11.2-34.5,18.7-48.1,32.4
			c-7,6.9-11.7,15.9-13.3,25.6c-2,12.3,0,24.9-2.6,37.1c-2.1,10.7-8.7,19.5-19.4,23.8c-9.6,3.8-20.6,4.1-30.6,1.7
			c-22.7-5.3-36.2-27.7-59.3-31.7c-12.3-2.1-24.1,2.6-33.4,10c-10.2,8.3-17,19.3-24.4,29.8c-7.3,10.1-15.5,19.8-27.7,24.5
			c-10.6,4.1-23.4,3.7-30.8-5.4c-6.8-8.3-7.9-19.7-11.8-29.3c-3.9-9.6-10.9-15.9-20.2-20.7c-8.9-4.6-18.8-7.5-26.7-13.4
			c-9.6-7.3-12.1-18.4-7.8-29.1c9.1-22.7,36.2-32.6,45.6-55.1c2.6-6,3.1-12.1,3-18.5c0-6.9-0.4-13.9,2.3-20.5
			c4.5-10.3,14.6-17.2,25.1-21.4c24.4-10,53.2-6.8,74.9-23.3c18.8-14.2,28.5-37.8,23.5-60.3c-2.5-11.3-8.1-21.7-16.2-30
			c-9.2-9.4-21.2-14.6-33.1-20.2c-11.4-5.3-23.5-11.9-29.2-23.4c-5.5-11.1-1.1-22,6.7-30.8c7.8-8.9,17.4-16,24.3-25.6
			c7-9.7,11.7-20.9,14-32.6c2.1-11.4,1.7-23.1-1.3-34.4c-0.7-2.8-5-1.2-4.3,1.5c6.3,24-0.3,50.7-17.4,69.5
			c-7.8,8.5-17.4,15.7-23.8,25.4c-6.3,9.5-7.3,20.7-1.5,30.6c13.2,23,44.7,24.8,62.4,43.2c17.3,17.9,20.9,44.6,8.7,66
			c-6.3,10.9-15.9,19.5-27.4,24.5c-13,5.7-27.4,7.1-41.3,9.9c-22.2,4.5-48.5,15.3-50.9,39.8c-0.6,7.1,0.4,14.4-0.7,21.6
			c-1.1,5.8-3.7,11.3-7.4,16c-7.3,9.6-17.2,16.8-25.7,25.2c-8.5,8.4-16.5,19.6-17.2,31.8c-0.5,10.3,5,19.2,13.8,24.9
			c8.4,5.5,18.2,8.5,27.1,13.3c4.5,2.3,8.5,5.5,11.7,9.4c3.3,4.3,5.2,9.4,6.8,14.5c3.1,9.7,5.3,20.4,13.7,27.5
			c8.5,7.4,20.8,7.5,31.2,3.9c25.8-8.7,33.6-35.8,51.9-52.8c9.4-8.7,21.9-14.6,35.2-11.4c11.6,2.9,20.9,11,30.2,17.8
			c8.9,6.4,17.9,11.8,28.9,14c10.1,1.9,21.2,1.5,30.8-2.3c9.5-3.7,17-11.2,20.6-20.8c4.3-11.8,2.7-24.5,3.5-36.8
			c0.7-10.9,4.1-20.6,11.7-28.8c6.4-6.9,14.6-12.3,22.7-17.2c16.5-9.9,35.3-19.1,45.2-36c12.2-20.5,6.2-45,3.3-67
			c-1.5-11.3-2.5-23,0.2-34.2c2.9-12.5,11-22.3,19.7-31.7c8.9-9.6,18.1-19.3,22.6-31.7C853.2,456.4,852.7,444.7,845.2,435.2"/>
	</g>
</g>
<g>
	<defs>
		<rect id="SVGID_41_" x="-36.1" y="-36.1" width="1152.3" height="1152.3"/>
	</defs>
	<clipPath id="SVGID_42_">
		<use xlink:href="#SVGID_41_"  style="overflow:visible;"/>
	</clipPath>
	<g class="st25">
		<path class="st22" d="M805.4,426.6c-8.9-14.7-24.4-26.1-29.2-42.9c-5.7-19.8,11.1-37.2,14-56.2c0.7-4.6,0.4-9.2-0.7-13.7
			c-0.7-2.8-5-1.2-4.3,1.5c2.6,9.7-1.2,19.4-5,28.4c-3.7,8.7-8.2,17.6-9.4,27.1c-2.1,17.8,9.9,31.5,20.8,44.6
			c5.3,6.4,10.8,13,13.7,20.8c3.3,8.9,1.7,17.6-2.8,25.8c-4.8,8.7-11.7,16.4-16.3,25.3c-5.2,10.2-6,21.7-6.6,32.9
			c-0.6,10.9-1.5,22.2-7.6,31.7c-5.6,8.4-13.9,14.6-23.5,17.6c-19.9,6.3-41.4-2.5-51.2-20.8c-10.1-19.4,0.2-40.9,3.7-60.6
			c1.7-9.7,1.8-20-2.5-29c-4.3-9.1-11.8-15.7-18.6-23c-3.7-3.7-6.7-8-9.1-12.6c-2.5-5.4-3.6-11.3-3.4-17.3
			c0.4-11.9,5.4-23.3,10.9-33.8c9.8-19,22.2-39.7,15.4-61.7c-1.4-4.7-3.9-9-7.1-12.6c-1.9-2.1-5.7,0.4-3.7,2.6
			c16.4,18.7,4.8,44.2-5,62.8c-10.6,20.1-22.5,44.4-8.9,65.9c5.7,9,14.3,15.6,20.7,24c6.6,8.7,8.7,18.7,7.5,29.3
			c-2.5,20.5-13.7,41.4-6.5,62.1c6.2,18.2,25.3,31.8,45.6,31.3c21-0.5,39.6-14.9,44.9-34.1c3.2-11.4,2.5-23.4,3.9-35
			c0.6-5.9,2.3-11.6,4.8-17c2.4-4.7,5.2-9.1,8.3-13.3c5.8-8.1,11.9-16.8,13.1-26.8C812.4,441.6,809.8,433.7,805.4,426.6"/>
	</g>
</g>
<g>
	<defs>
		<rect id="SVGID_43_" x="-36.1" y="-36.1" width="1152.3" height="1152.3"/>
	</defs>
	<clipPath id="SVGID_44_">
		<use xlink:href="#SVGID_43_"  style="overflow:visible;"/>
	</clipPath>
	<g class="st26">
		<path class="st22" d="M329.3,878c-7.5-6.9-17.7-11.1-24.1-19.1c-3.6-4.6-5-10.2-7-15.6c-1.7-4.6-4.5-8.7-8.1-12.1
			c-16-14.7-40.4-11.7-60.6-14.7c-11.8-1.8-22.4-6.1-29.8-15.4c-7-8.7-10.7-19.4-14.6-29.7c-4.4-11.3-9.5-23.4-19.5-31.3
			c-8.9-6.9-21.2-10.7-32.1-6.2c-1.2,0.4-1.8,1.7-1.4,2.8c0.4,1.2,1.7,1.8,2.8,1.4c0,0,0.1,0,0.1,0c9.9-4.1,20.9-0.2,28.6,6.3
			c8.5,7.1,13,17.8,16.9,27.7c3.7,9.6,7,19.4,12.9,28.1c5.7,8.6,14.1,14.9,23.9,18c19.8,6.3,42.2,1.6,61.3,10.7
			c4.3,1.9,8,4.7,11,8.3c3.4,4.3,4.9,9.3,6.7,14.3c1.6,4.8,4.3,9.2,7.8,12.8c3.5,3.3,7.3,6.3,11.4,8.9c4.5,3,9.2,6.1,12.8,10.1
			c10.8,12.2,12,30.2,2.8,43.6c-1.7,2.3,1.8,5.1,3.5,2.9C345.9,913.7,343.6,891.6,329.3,878"/>
	</g>
</g>
<g>
	<defs>
		<rect id="SVGID_45_" x="-36.1" y="-36.1" width="1152.3" height="1152.3"/>
	</defs>
	<clipPath id="SVGID_46_">
		<use xlink:href="#SVGID_45_"  style="overflow:visible;"/>
	</clipPath>
	<g class="st27">
		<path class="st22" d="M891.7,773.3c-2,18.2-18.1,30.3-31.9,41.3c-13.1,10.5-26.5,22.6-28.2,39.8c-0.9,8.5,1.4,16.8,7.5,23.2
			c2,2.1,4.9-1.3,3-3.4c-11.6-12.1-5-30.7,4.7-41.7c11.3-12.9,27.1-21.3,38.2-34.5c5.9-6.9,10.2-14.9,11.2-23.8
			C896.5,771.3,891.9,770.5,891.7,773.3"/>
	</g>
</g>
<g>
	<defs>
		<rect id="SVGID_47_" x="-196.8" y="-196.8" width="1473.7" height="1473.7"/>
	</defs>
	<clipPath id="SVGID_48_">
		<use xlink:href="#SVGID_47_"  style="overflow:visible;"/>
	</clipPath>
	<g class="st28">
		<path class="st22" d="M680.3,700.1c-5-12.1-13.5-22.8-22.2-32.9c-9.3-10.8-19.4-20.9-29.3-31.1c-5.6-5.6-11.6-11.3-18.4-15.6
			c-0.3-0.4-0.6-0.7-1.1-0.8l-0.7-0.3c-3.1-1.8-6.3-3.2-9.7-4.2c-9.1-2.7-18.6-1.8-27.4,1c-11.8,2.1-22.7,7.4-31.7,15.3
			c-8.6,7.7-14.9,17.5-18.3,28.5c-3.8,12.4-0.7,26.2-5.7,38.2c-4,9.7-13,16.1-21.4,22c-8.5,5.9-17.9,12-23.9,20.7
			c-12.8,18.4-10.5,45.2,9.3,58.4c8.9,6.1,19.9,8.6,30.6,7c9.8-1.8,17.9-7.1,24.8-13.6c15-14.1,25.9-34.5,48.8-37.9
			c25.4-3.7,51,9.1,76,0.4C683.8,747,688.9,720.8,680.3,700.1 M663.8,747.4c-20.3,11.9-46.5,1.9-68.4,1.4
			c-11.2-0.3-22.1,1.8-31.5,7.6c-7.8,4.9-14.1,11.9-20.1,18.6c-11.9,13.4-25.5,29.5-46.1,25.9c-10.3-1.8-19.4-7.9-25-16.8
			c-5.6-9.3-5.9-21.1-2.2-31.1c7.2-19.4,28.7-26.3,42.4-40.5c7.6-7.9,10.6-17.5,11.3-28.2c0.7-11.6,1.4-22.4,7-32.9
			c3.2-6,7.5-11.3,12.6-15.8c0.5,0,1.1-0.1,1.5-0.4c8.6-5.2,17.7-10.6,27.6-13.6c10.9-2,22.1-1.1,32.5,2.7c3.5,1.9,6.8,4.2,9.8,6.8
			c9.7,8.3,18.4,17.9,27.2,27c9,9.2,17.3,19.1,24.7,29.6c6.5,9.7,11.6,20.6,11.6,32.3C678.5,731,673.6,741.7,663.8,747.4"/>
	</g>
</g>
<g>
	<defs>
		<rect id="SVGID_49_" x="-36.1" y="-36.1" width="1152.3" height="1152.3"/>
	</defs>
	<clipPath id="SVGID_50_">
		<use xlink:href="#SVGID_49_"  style="overflow:visible;"/>
	</clipPath>
	<g class="st29">
		<path class="st30" d="M845.7,345.9l-125.1-80l-112.8,69.8l-90.9-69.8l-91,69.8l-112.8-69.8l-125.1,80L68.2,277.1l82.3,643.2
			l79.3-56l106.4,77.5l107-71.3l73.6,71.3l73.6-71.3l107,71.3l106.4-77.5l79.3,56.1l82.3-643.2L845.7,345.9z M874.6,901.7
			l-64.4-45.6l-6.5-4.6l-6.4,4.7l-100.1,73l-100.6-67.1l-7.5-4.9l-6.4,6.2l-65.9,63.9l-65.9-64l-6.4-6.2l-7.5,4.9l-100.6,67
			l-100.1-73l-6.4-4.7l-6.5,4.6l-64.4,45.8L81.6,296.9l100.7,57.9l5.9,3.3l5.8-3.6l119.3-76.3L420,344.3l6.5,4.1l6.1-4.7l84.2-64.7
			l84.2,64.7l6.1,4.7l6.5-4.1l106.8-66.1l119.4,76.2l5.7,3.6l5.9-3.3l100.7-57.9L874.6,901.7z"/>
	</g>
</g>
<g>
	<defs>
		<rect id="SVGID_51_" x="-36.1" y="-36.1" width="1152.3" height="1152.3"/>
	</defs>
	<clipPath id="SVGID_52_">
		<use xlink:href="#SVGID_51_"  style="overflow:visible;"/>
	</clipPath>
	<g class="st31">
		<path class="st32" d="M686.2,403.5c-17.7,0-32.1,13.7-32.1,30.6c0,0-3.3,22.8,32.1,62.9c0,0,25.4-29,31-55.2v-0.1
			c0.7-2.5,1-5.1,1.1-7.7C718.3,417.3,704,403.5,686.2,403.5 M683.3,448.6c-10.3,0-18.7-8-18.7-17.8c0-9.8,8.3-17.8,18.7-17.8
			c10.3,0,18.7,8,18.7,17.8C702,440.6,693.5,448.6,683.3,448.6"/>
	</g>
</g>
<g>
	<defs>
		<rect id="SVGID_53_" x="-36.1" y="-36.1" width="1152.3" height="1152.3"/>
	</defs>
	<clipPath id="SVGID_54_">
		<use xlink:href="#SVGID_53_"  style="overflow:visible;"/>
	</clipPath>
	<g class="st33">
		<path class="st32" d="M606,559.3c-14.5,0-26.2,11.2-26.2,25.1c0,0-2.8,18.7,26.2,51.4c0,0,20.8-23.7,25.4-45.1v-0.1
			c0.6-2.1,0.8-4.2,0.9-6.3C632.3,570.5,620.6,559.3,606,559.3 M603.6,596.1c-8.4,0-15.3-6.5-15.3-14.6c0-8.1,6.8-14.5,15.3-14.5
			c8.4,0,15.3,6.5,15.3,14.5C618.8,589.5,612,596.1,603.6,596.1"/>
	</g>
</g>
<g>
	<defs>
		<rect id="SVGID_55_" x="-36.1" y="-36.1" width="1152.3" height="1152.3"/>
	</defs>
	<clipPath id="SVGID_56_">
		<use xlink:href="#SVGID_55_"  style="overflow:visible;"/>
	</clipPath>
	<g class="st34">
		<path class="st32" d="M263.1,396c-14.5,0-26.2,11.2-26.2,25.1c0,0-2.8,18.7,26.2,51.4c0,0,20.8-23.7,25.4-45.1v-0.1
			c0.6-2.1,0.8-4.2,0.9-6.3C289.4,407.2,277.6,396,263.1,396 M260.7,432.8c-8.4,0-15.3-6.5-15.3-14.5c0-8,6.8-14.5,15.3-14.5
			c8.4,0,15.3,6.5,15.3,14.5C275.9,426.3,269.1,432.8,260.7,432.8"/>
	</g>
</g>
<g>
	<defs>
		<rect id="SVGID_57_" x="-36.1" y="-36.1" width="1152.3" height="1152.3"/>
	</defs>
	<clipPath id="SVGID_58_">
		<use xlink:href="#SVGID_57_"  style="overflow:visible;"/>
	</clipPath>
	<g class="st35">
		<path class="st36" d="M258,492.6h-0.2c-0.6,0-1-0.6-1-1.1c0,0,0-0.1,0-0.1l0,0c0.4-2.7,1-5.3,1.4-8c0.1-0.6,0.8-1,1.4-0.9
			c0,0,0,0,0,0c0.6,0.1,1,0.7,0.9,1.2c0,0,0,0,0,0c-0.5,2.7-1,5.3-1.4,7.9C259,492.2,258.6,492.6,258,492.6"/>
	</g>
</g>
<g>
	<defs>
		<rect id="SVGID_59_" x="-36.1" y="-36.1" width="1152.3" height="1152.3"/>
	</defs>
	<clipPath id="SVGID_60_">
		<use xlink:href="#SVGID_59_"  style="overflow:visible;"/>
	</clipPath>
	<g class="st37">
		<path class="st36" d="M468.3,691.9L468.3,691.9c-5.4,0-10.9-0.6-16.2-1.7c-0.6-0.1-1-0.6-0.9-1.2c0-0.1,0-0.1,0-0.2l0,0
			c0.1-0.6,0.8-1,1.4-0.9c0,0,0,0,0,0c5.2,1.1,10.4,1.7,15.7,1.7c0.6,0,1.2,0.5,1.2,1.2C469.4,691.5,468.9,691.9,468.3,691.9
			L468.3,691.9 M484.3,690.3c-0.5,0-1-0.4-1.2-0.9c-0.2-0.6,0.2-1.2,0.8-1.4c0,0,0,0,0,0c4.6-1,9.1-2.4,13.4-4.3l1.5-0.7
			c0.6-0.2,1.2,0,1.5,0.5c0.3,0.5,0.1,1.2-0.4,1.4c0,0-0.1,0-0.1,0l0,0c-0.5,0.2-1.1,0.5-1.6,0.7c-4.5,1.9-9.1,3.4-13.9,4.5
			L484.3,690.3 M437.2,685.2c-0.2,0-0.3,0-0.4-0.1c-5-2.2-9.7-5.1-14.1-8.4c-0.5-0.4-0.6-1.1-0.2-1.6s1.1-0.6,1.6-0.2l0,0
			c4.2,3.2,8.8,5.9,13.5,8.1c0.6,0.3,0.8,0.9,0.6,1.5C438,684.9,437.6,685.2,437.2,685.2 M513.5,677.5c-0.6,0-1.2-0.5-1.2-1.2
			c0-0.4,0.2-0.8,0.5-1c4.6-2.8,9.4-5.2,14.4-7.4c0.6-0.2,1.3,0.1,1.5,0.7c0,0,0,0,0,0.1c0.2,0.6-0.1,1.2-0.6,1.4c0,0,0,0,0,0
			c-4.9,2.1-9.7,4.5-14.2,7.3C513.9,677.5,513.8,677.5,513.5,677.5 M575.5,667.1c-0.6,0-1.1-0.4-1.2-1.1c0-0.6,0.4-1.1,1.1-1.2l0,0
			h0.6c5-0.4,9.9-1.7,14.4-3.8c0.6-0.3,1.3-0.1,1.6,0.4c0.3,0.6,0.1,1.3-0.4,1.6c0,0-0.1,0-0.1,0.1c-4.8,2.2-10,3.5-15.3,3.9
			L575.5,667.1 M559.5,666.7L559.5,666.7c-5.3-0.3-10.7-0.4-16-0.2c-0.6,0.1-1.2-0.4-1.3-1.1c-0.1-0.6,0.4-1.2,1.1-1.3
			c5.4-0.2,10.8-0.2,16.2,0.2c0.6,0,1.2,0.5,1.2,1.2C560.7,666.2,560.2,666.7,559.5,666.7 M412,665.7c-0.3,0-0.7-0.1-0.9-0.4
			c-3.5-4.2-6.6-8.6-9.4-13.2c-0.4-0.5-0.2-1.2,0.3-1.6c0.5-0.4,1.2-0.2,1.6,0.3l0,0l0,0c2.8,4.5,5.8,8.8,9.2,12.9
			c0.4,0.5,0.3,1.2-0.1,1.6C412.6,665.5,412.3,665.7,412,665.7 M394.9,638.6c-0.4,0-0.9-0.2-1.1-0.6c-1.6-3.1-3.1-6.2-4.6-9.3
			l-2.6-5.1c-0.3-0.6-0.1-1.3,0.4-1.6c0.6-0.3,1.3-0.1,1.6,0.4c0,0,0,0.1,0.1,0.1l0,0l2.6,5.1c1.5,3.1,3.1,6.2,4.6,9.2
			c0.3,0.6,0.1,1.3-0.5,1.6c0,0,0,0-0.1,0l0,0C395.3,638.5,395.1,638.5,394.9,638.6 M380,610.2c-0.4,0-0.8-0.2-1-0.5
			c-2.7-4.6-5.6-9-8.9-13.2c-0.4-0.5-0.3-1.2,0.2-1.6c0.5-0.4,1.2-0.3,1.6,0.2l0,0c3.3,4.3,6.3,8.8,9.1,13.4
			c0.3,0.6,0.1,1.3-0.4,1.6C380.4,610.1,380.2,610.2,380,610.2 M360.2,585c-0.3,0-0.6-0.1-0.7-0.3c-3.9-3.5-8.3-6.4-13-8.7
			c-0.5-0.3-0.7-1-0.4-1.6c0.3-0.4,0.9-0.6,1.4-0.4c4.9,2.4,9.4,5.5,13.5,9.1c0.5,0.4,0.6,1,0.2,1.5c0,0-0.1,0.1-0.1,0.1
			C360.9,584.9,360.6,585,360.2,585 M331.8,570.8h-0.3c-4.8-1.2-9.7-2.1-15.7-3.1c-0.6-0.1-1-0.7-1-1.3c0-0.6,0.6-1,1.1-1
			c0,0,0.1,0,0.1,0h0.1c6,1,11,1.9,15.9,3.1c0.6,0.1,1,0.8,0.9,1.4c0,0,0,0,0,0C332.9,570.5,332.4,570.8,331.8,570.8 M300.2,565
			h-0.2c-5.3-1-10.6-2.4-15.7-4.4c-0.6-0.2-0.9-0.8-0.7-1.4c0.2-0.6,0.8-0.9,1.4-0.7c0.1,0,0.1,0,0.2,0.1c4.9,1.9,10,3.3,15.3,4.3
			c0.6,0.1,1,0.6,0.9,1.2c0,0.1,0,0.1,0,0.2l0,0C301.2,564.6,300.8,565,300.2,565 M271,552.6c-0.3,0-0.6-0.1-0.7-0.3
			c-0.5-0.5-1.2-1.1-1.7-1.6c-3.4-3.3-6.2-7.2-8.3-11.5c-0.3-0.6-0.1-1.3,0.4-1.6c0.6-0.3,1.3-0.1,1.6,0.4c0,0,0,0.1,0.1,0.1
			c2,4,4.6,7.7,7.8,10.9c0.5,0.5,1.1,1,1.6,1.5c0.5,0.4,0.5,1.1,0.1,1.6C271.6,552.3,271.3,552.5,271,552.6 M256.5,524.5
			c-0.6,0-1-0.4-1.2-1c-0.3-1.8-0.5-3.5-0.5-5.3c-0.1-1.8-0.1-3.4-0.1-5.1s0.1-3.8,0.2-5.9c0.1-0.6,0.6-1,1.2-1.1
			c0.6,0,1.1,0.5,1.1,1.1c0,0,0,0.1,0,0.1l0,0c-0.1,1.9-0.2,3.8-0.2,5.7c0,1.8,0,3.3,0.1,4.9c0.1,1.6,0.3,3.4,0.5,5.1
			c0.1,0.6-0.3,1.1-0.8,1.3c0,0-0.1,0-0.1,0L256.5,524.5"/>
	</g>
</g>
<g>
	<defs>
		<rect id="SVGID_61_" x="-36.1" y="-36.1" width="1152.3" height="1152.3"/>
	</defs>
	<clipPath id="SVGID_62_">
		<use xlink:href="#SVGID_61_"  style="overflow:visible;"/>
	</clipPath>
	<g class="st38">
		<path class="st36" d="M603.1,652.6c-0.2,0-0.4,0-0.5-0.1c-0.6-0.3-0.7-1-0.4-1.6l0,0c1.3-2.2,1.9-4.6,1.9-7.1
			c0-0.6,0.5-1.1,1.1-1.1c0,0,0.1,0,0.1,0c0.6,0,1.2,0.5,1.2,1.2l0,0c-0.1,2.9-0.9,5.7-2.2,8.2C603.8,652.3,603.5,652.5,603.1,652.6
			"/>
	</g>
</g>
<g>
	<defs>
		<rect id="SVGID_63_" x="-36.1" y="-36.1" width="1152.3" height="1152.3"/>
	</defs>
	<clipPath id="SVGID_64_">
		<use xlink:href="#SVGID_63_"  style="overflow:visible;"/>
	</clipPath>
	<g class="st39">
		<path class="st36" d="M604.1,552.4c-0.6,0-1.1-0.5-1.2-1.1c-0.1-2.7-0.1-5.5,0.1-8.2c0.1-0.6,0.6-1,1.2-1.1
			c0.6,0.1,1.1,0.6,1.1,1.3c-0.2,2.7-0.2,5.3-0.1,8c0,0.6-0.4,1-0.9,1.1C604.2,552.4,604.2,552.4,604.1,552.4z"/>
	</g>
</g>
<g>
	<defs>
		<rect id="SVGID_65_" x="-36.1" y="-36.1" width="1152.3" height="1152.3"/>
	</defs>
	<clipPath id="SVGID_66_">
		<use xlink:href="#SVGID_65_"  style="overflow:visible;"/>
	</clipPath>
	<g class="st40">
		<path class="st36" d="M607.3,526.8H607c-0.6-0.1-0.9-0.7-0.8-1.3c0,0,0-0.1,0-0.1l0,0c1.7-5.8,4-11.4,6.8-16.8
			c0.3-0.6,0.9-0.8,1.5-0.5c0.6,0.3,0.8,0.9,0.5,1.5c0,0.1,0,0.1-0.1,0.1c-2.8,5.2-5,10.7-6.7,16.3
			C608.2,526.5,607.8,526.8,607.3,526.8 M624.1,495.4c-0.6,0-1.2-0.5-1.2-1.2c0-0.3,0.1-0.6,0.3-0.7c3.8-4.7,8.1-8.9,12.7-12.8
			c0.5-0.4,1.2-0.4,1.6,0.1c0.4,0.5,0.4,1.2-0.1,1.6l0,0h-0.1c-4.5,3.8-8.7,8-12.4,12.6C624.7,495.3,624.4,495.4,624.1,495.4"/>
	</g>
</g>
<g>
	<defs>
		<rect id="SVGID_67_" x="-36.1" y="-36.1" width="1152.3" height="1152.3"/>
	</defs>
	<clipPath id="SVGID_68_">
		<use xlink:href="#SVGID_67_"  style="overflow:visible;"/>
	</clipPath>
	<g class="st41">
		<path class="st36" d="M651.3,472.7c-0.6,0-1.1-0.5-1.1-1.1c0,0,0-0.1,0-0.1c0-0.4,0.2-0.8,0.5-1c2.5-1.3,4.9-2.5,7.4-3.5
			c0.6-0.2,1.3,0.1,1.4,0.8c0.2,0.5-0.1,1.1-0.6,1.4c-2.5,1.1-4.8,2.1-7.1,3.4C651.7,472.7,651.5,472.7,651.3,472.7"/>
	</g>
</g>
<g>
	<defs>
		<rect id="SVGID_69_" x="-36.1" y="-36.1" width="1152.3" height="1152.3"/>
	</defs>
	<clipPath id="SVGID_70_">
		<use xlink:href="#SVGID_69_"  style="overflow:visible;"/>
	</clipPath>
	<g class="st42">
		<path class="st36" d="M714.7,467.8c-0.6,0-1.1-0.5-1.1-1.1c0,0,0-0.1,0-0.1c0-0.5,0.4-1,1-1.1c2.7-0.4,5.5-0.6,8.2-0.5
			c0.6,0,1.2,0.5,1.2,1.2c0,0.6-0.5,1.2-1.2,1.2h-0.4c-2.5,0-5,0.2-7.5,0.5L714.7,467.8"/>
	</g>
</g>
<g>
	<defs>
		<rect id="SVGID_71_" x="-36.1" y="-36.1" width="1152.3" height="1152.3"/>
	</defs>
	<clipPath id="SVGID_72_">
		<use xlink:href="#SVGID_71_"  style="overflow:visible;"/>
	</clipPath>
	<g class="st43">
		<path class="st36" d="M830,507.7c-1.9,0-3.7-0.1-5.5-0.3c-0.6-0.1-1.1-0.6-1.1-1.3c0.1-0.6,0.6-1.1,1.3-1.1l0,0
			c5.1,0.6,10.3,0.3,15.4-0.9c0.6-0.1,1.2,0.3,1.4,0.9c0.1,0.6-0.2,1.2-0.8,1.3l0,0C837.1,507.2,833.5,507.7,830,507.7 M809.1,503.9
			h-0.3c-5.1-1.7-10-3.8-14.7-6.2c-0.6-0.3-0.8-0.9-0.5-1.5c0.3-0.6,0.9-0.8,1.5-0.5l0,0c4.6,2.3,9.5,4.3,14.4,6
			c0.6,0.2,1,0.8,0.8,1.4c0,0,0,0,0,0.1C810,503.7,809.6,504,809.1,503.9 M854.7,500.6c-0.4,0-0.8-0.2-1-0.5
			c-0.3-0.5-0.2-1.2,0.3-1.6l0,0c4.4-2.8,8.4-6.1,11.9-9.8c0.4-0.5,1.1-0.5,1.6-0.1c0.5,0.4,0.5,1.1,0.1,1.6l0,0l-0.1,0.1
			c-3.7,3.9-7.9,7.3-12.4,10.1C855.1,500.6,854.9,500.6,854.7,500.6 M780.7,490.3c-0.2,0-0.4-0.1-0.5-0.1l-1.9-1.2
			c-3.7-2.2-7.7-4.6-11.6-6.8c-0.5-0.3-0.7-1-0.4-1.6c0.3-0.6,1-0.7,1.6-0.4l0,0c3.9,2.2,7.9,4.6,11.6,6.9l1.9,1.2
			c0.5,0.3,0.7,1,0.4,1.6C781.4,490.1,781.1,490.2,780.7,490.3 M876.9,478.3c-0.2,0-0.4-0.1-0.6-0.2c-0.5-0.4-0.7-1.1-0.3-1.6l0,0
			l0.6-0.9c2.3-3.4,4.7-6.9,6.9-10.3l1.3-1.9c0.4-0.5,1.1-0.7,1.6-0.3c0.5,0.4,0.7,1.1,0.3,1.6l0,0l-1.3,1.9
			c-2.2,3.4-4.6,6.9-6.9,10.3l-0.6,1C877.7,478.2,877.3,478.4,876.9,478.3 M753.1,474.9c-0.2,0-0.4,0-0.5-0.1
			c-4.7-2.2-9.6-4.1-14.6-5.4c-0.6-0.2-1-0.8-0.9-1.4c0.1-0.6,0.7-1,1.3-0.9h0.2c5.1,1.4,10.1,3.3,14.9,5.5c0.6,0.3,0.8,0.9,0.5,1.5
			c0,0,0,0,0,0C753.9,474.5,753.5,474.9,753.1,474.9 M894.6,452.2c-0.3,0-0.5-0.1-0.7-0.2c-0.5-0.3-0.6-1-0.3-1.5
			c0,0,0.1-0.1,0.1-0.1c2.8-3.8,5.9-7.3,9.3-10.7c0.4-0.5,0.9-0.9,1.4-1.3c0.5-0.4,1.2-0.4,1.6,0.1s0.4,1.2-0.1,1.6l0,0l-1.3,1.3
			c-3.3,3.2-6.3,6.7-9.1,10.3C895.4,452.1,895.1,452.2,894.6,452.2 M917.7,430.9c-0.6,0-1.2-0.5-1.2-1.2c0-0.4,0.2-0.8,0.5-1
			c3.9-2.6,8.5-5.1,13.9-7.9c0.6-0.3,1.3-0.1,1.6,0.4c0.3,0.6,0.1,1.3-0.4,1.6c0,0-0.1,0-0.1,0.1c-4.7,2.4-9.2,5-13.7,7.8
			C918.2,430.9,918,430.9,917.7,430.9 M945.6,416.1c-0.7,0-1.2-0.5-1.2-1.2c0-0.4,0.3-0.9,0.6-1.1c4.4-2.1,9.4-4.5,14.2-6.9
			c0.6-0.3,1.3-0.1,1.6,0.4c0.3,0.6,0.1,1.3-0.4,1.6c0,0-0.1,0-0.1,0.1l0,0c-4.8,2.6-9.8,4.9-14.2,6.9
			C946,416.1,945.8,416.1,945.6,416.1 M973.5,401.2c-0.6,0-1.2-0.5-1.2-1.2c0-0.4,0.2-0.8,0.5-1c2.5-1.6,4.8-3.3,6.9-4.9
			c1.8-1.5,3.6-3,5.4-4.6c0.4-0.5,1.1-0.5,1.6-0.1s0.5,1.1,0.1,1.6l0,0l-0.1,0.1c-1.8,1.7-3.6,3.3-5.5,4.8c-2.1,1.7-4.6,3.4-7,5
			C974,401.2,973.8,401.2,973.5,401.2 M996.4,379.8c-0.2,0-0.5-0.1-0.6-0.2c-0.5-0.3-0.6-1-0.3-1.5c0,0,0.1-0.1,0.1-0.1l0,0
			c3.1-4.2,5.8-8.6,8-13.3c0.3-0.6,1-0.8,1.5-0.5c0.5,0.3,0.8,0.8,0.6,1.4c0,0.1,0,0.1-0.1,0.1c-2.3,4.8-5.1,9.4-8.3,13.7
			C997.1,379.6,996.8,379.8,996.4,379.8 M1010.2,351.5h-0.3c-0.6-0.2-1-0.8-0.9-1.4c1.4-5,2.3-10.2,2.8-15.4
			c0.1-0.6,0.6-1.1,1.3-1.1s1.1,0.6,1.1,1.3l0,0l0,0c-0.4,5.3-1.4,10.6-2.9,15.8C1011.3,351.2,1010.8,351.5,1010.2,351.5
			 M1012.9,320.2c-0.6,0-1.1-0.5-1.2-1.1c-0.1-0.9-0.2-1.9-0.4-2.8c-0.6-4.2-1.6-8.3-3-12.4c-0.3-0.6-0.1-1.3,0.5-1.6
			c0.5-0.3,1.2-0.1,1.5,0.4c0.1,0.1,0.1,0.3,0.1,0.4c1.4,4.1,2.4,8.4,3,12.7c0.2,1,0.3,1.9,0.4,2.9
			C1013.9,319.5,1013.5,320.1,1012.9,320.2l-0.1,0 M808.6,291.2h-4.9c-2.8,0-5.4-0.1-8.1,0c-0.6,0-1.2-0.5-1.2-1.2s0.5-1.2,1.2-1.2
			h15.8c0.6-0.1,1.1,0.4,1.2,0.9c0,0,0,0,0,0v0.2c0,0.6-0.5,1.2-1.2,1.2H808.6 M1003,290.2c-0.4,0-0.8-0.2-1-0.5
			c-2.5-4.6-5.5-8.9-8.7-12.9c-0.4-0.5-0.3-1.2,0.2-1.6c0.5-0.4,1.2-0.3,1.6,0.2c3.4,4.1,6.4,8.5,9,13.2c0.3,0.6,0.1,1.3-0.4,1.6
			H1003 M827.1,289.2c-0.6,0-1.2-0.5-1.2-1.2c0-0.5,0.3-1,0.9-1.1c5-1.5,9.7-3.8,14-6.6c0.5-0.4,1.2-0.2,1.6,0.3
			c0.4,0.5,0.2,1.2-0.3,1.6l0,0c-4.5,3-9.4,5.3-14.5,6.8C827.4,289.1,827.3,289.2,827.1,289.2 M854,273c-0.3,0-0.7-0.1-0.9-0.4
			c-0.4-0.5-0.3-1.2,0.1-1.6l0,0l2.9-2.3c3.1-2.6,6.2-5.2,9.5-7.7c0.5-0.4,1.2-0.3,1.6,0.2c0.4,0.5,0.3,1.2-0.2,1.6
			c-3.2,2.5-6.3,5-9.4,7.6l-2.9,2.3C854.5,272.8,854.3,272.9,854,273 M983.2,265.8c-0.3,0-0.6-0.1-0.7-0.3
			c-3.9-3.4-8.1-6.5-12.6-9.2c-0.5-0.4-0.7-1.1-0.3-1.6c0.3-0.5,1-0.7,1.5-0.4c4.6,2.7,8.9,5.9,12.9,9.4c0.5,0.4,0.5,1.1,0.1,1.6
			C983.9,265.6,983.6,265.8,983.2,265.8 M879.5,254.5c-0.4,0-0.9-0.2-1.1-0.6c-0.3-0.6-0.1-1.3,0.5-1.6c0,0,0,0,0.1,0
			c4.8-2.5,9.7-4.5,14.8-6.1c0.6-0.3,1.3,0,1.6,0.6c0.3,0.6,0,1.3-0.6,1.6c-0.1,0-0.1,0-0.2,0.1l0,0c-5,1.5-9.8,3.5-14.4,6
			C879.9,254.5,879.7,254.5,879.5,254.5 M956.2,249.8c-0.2,0-0.3,0-0.4-0.1c-4.9-1.8-9.9-3.2-15-4.2c-0.6-0.1-1.1-0.7-1-1.4
			c0.1-0.6,0.7-1,1.3-1l0,0c5.3,0.9,10.5,2.4,15.5,4.3c0.6,0.2,0.9,0.8,0.7,1.3c0,0.1,0,0.1-0.1,0.2
			C957.1,249.4,956.7,249.8,956.2,249.8 M909.5,245c-0.6,0-1.2-0.5-1.2-1.2c0-0.6,0.4-1,1-1.2c5.3-0.7,10.6-1.1,15.9-1
			c0.6,0,1.2,0.5,1.2,1.2l0,0c0,0.6-0.4,1.1-1,1.2h-0.2c-5.2-0.1-10.4,0.2-15.6,1H909.5"/>
	</g>
</g>
<g>
	<defs>
		<rect id="SVGID_73_" x="-36.1" y="-36.1" width="1152.3" height="1152.3"/>
	</defs>
	<clipPath id="SVGID_74_">
		<use xlink:href="#SVGID_73_"  style="overflow:visible;"/>
	</clipPath>
	<g class="st44">
		<path class="st36" d="M772.8,297.3c-0.4,0-0.7-0.2-1-0.5c-0.4-0.5-0.3-1.2,0.2-1.6l0,0c2.3-1.7,4.8-3,7.5-3.8
			c0.6-0.2,1.2,0.1,1.5,0.6l0,0c0.2,0.6-0.1,1.3-0.7,1.5c0,0,0,0-0.1,0l0,0c-2.4,0.8-4.7,2-6.8,3.5
			C773.3,297.2,773.1,297.3,772.8,297.3"/>
	</g>
</g>
<g>
	<defs>
		<rect id="SVGID_75_" x="-36.1" y="-36.1" width="1152.3" height="1152.3"/>
	</defs>
	<clipPath id="SVGID_76_">
		<use xlink:href="#SVGID_75_"  style="overflow:visible;"/>
	</clipPath>
	<g class="st45">
		<path class="st1" d="M88.4,481.1c-0.2,0-0.4-0.1-0.6-0.2c-0.5-0.4-0.7-1.1-0.3-1.6c1.5-2.2,3-4.6,4.3-6.7c0.3-0.6,0.9-0.8,1.5-0.5
			c0.6,0.3,0.8,0.9,0.5,1.5l0,0c0,0.1,0,0.1-0.1,0.1c0,0,0,0,0,0c-1.3,2.2-2.8,4.6-4.3,6.9C89.1,480.9,88.8,481.1,88.4,481.1"/>
	</g>
</g>
<g>
	<defs>
		<rect id="SVGID_77_" x="-36.1" y="-36.1" width="1152.3" height="1152.3"/>
	</defs>
	<clipPath id="SVGID_78_">
		<use xlink:href="#SVGID_77_"  style="overflow:visible;"/>
	</clipPath>
	<g class="st46">
		<path class="st36" d="M107.2,795.3c-0.2,0-0.4,0-0.5-0.1c-4.9-2.7-9.4-6.1-13.4-9.9c-0.4-0.4-0.4-1.2,0-1.6
			c0.4-0.4,1.1-0.5,1.6-0.1c3.9,3.7,8.3,6.9,13,9.6c0.5,0.3,0.7,1,0.4,1.6C107.9,795.1,107.6,795.3,107.2,795.3 M83.4,772.9
			c-0.4,0-0.8-0.2-1-0.5c-3-4.7-5.4-9.8-7-15.2c-0.2-0.6,0.2-1.2,0.7-1.4c0.6-0.2,1.2,0.2,1.4,0.7c1.6,5.1,3.9,10.1,6.7,14.6
			c0.3,0.5,0.2,1.2-0.3,1.6l0,0C83.7,772.9,83.5,772.9,83.4,772.9 M73.9,741.9c-0.6,0-1.1-0.5-1.2-1.1c-0.1-1.5-0.1-3.1-0.1-4.6
			c0-3.6,0.2-7.6,0.5-12.1c0.1-0.6,0.6-1.1,1.3-1.1c0.6,0,1.1,0.5,1.1,1.1c0,0,0,0.1,0,0.1l0,0c-0.4,4.4-0.5,8.2-0.5,11.8
			c0,1.5,0,3,0.1,4.5c0.1,0.6-0.4,1.2-1,1.3C74,741.9,73.9,741.9,73.9,741.9L73.9,741.9 M76.2,709.1h-0.1c-0.6,0-1-0.6-1-1.1
			c0,0,0-0.1,0-0.1l0,0c0.6-5.2,1.3-10.8,1.6-16.3c0-0.6,0.4-1,0.9-1.1c0,0,0.1,0,0.1,0h0.1c0.6,0,1.1,0.5,1.1,1.1c0,0,0,0.1,0,0.1
			l0,0c-0.3,5.5-1,11.2-1.6,16.4c0,0.6-0.5,1.1-1.1,1.1C76.3,709.1,76.3,709.1,76.2,709.1 M77.6,676.4c-0.6,0-1.1-0.5-1.2-1.1
			c-0.4-4.4-1.4-8.8-2.9-13c-0.3-0.9-0.6-1.8-1-2.7c-0.2-0.6,0.1-1.3,0.7-1.5c0,0,0,0,0.1,0c0.6-0.2,1.2,0.1,1.4,0.6c0,0,0,0,0,0
			c0.3,1,0.7,1.8,1.1,2.8c1.5,4.4,2.5,8.9,3,13.4c0.1,0.6-0.4,1.2-1,1.3l0,0L77.6,676.4 M65.7,645.8c-0.4,0-0.8-0.2-1-0.5
			c-3.1-4.5-6.4-8.8-9.9-12.9c-0.4-0.4-0.4-1.2,0-1.6s1.2-0.4,1.6,0c0.1,0.1,0.1,0.1,0.1,0.2c3.6,4.2,7,8.6,10.1,13.1
			c0.3,0.5,0.2,1.2-0.3,1.6C66.2,645.8,65.9,645.8,65.7,645.8 M45.1,620.2c-0.3,0-0.7-0.1-0.9-0.4c-3.5-4.3-6.8-8.8-9.8-13.4
			c-0.4-0.5-0.2-1.2,0.3-1.6s1.2-0.2,1.6,0.3c0,0.1,0,0.1,0.1,0.1c2.9,4.6,6.1,9,9.6,13.1c0.4,0.4,0.4,1.1-0.1,1.5
			c0,0-0.1,0.1-0.1,0.1C45.6,620.1,45.3,620.2,45.1,620.2 M28.4,592.1c-0.5,0-1-0.3-1.1-0.9c-0.5-1.6-0.9-3.2-1.3-4.9
			c-0.6-3.2-1-6.4-1-9.6v-2.2c0.1-0.6,0.6-1,1.2-1.1c0.6,0,1.1,0.5,1.1,1.1c0,0,0,0.1,0,0.1v2.1c0,3,0.3,6.1,0.9,9.1
			c0.3,1.5,0.7,3.1,1.2,4.6c0.2,0.6-0.1,1.2-0.7,1.4c0,0-0.1,0-0.1,0C28.6,592.1,28.5,592.1,28.4,592.1 M29.5,559.6
			c-0.1,0-0.2,0-0.3-0.1c-0.6-0.1-0.9-0.7-0.8-1.3c0,0,0-0.1,0-0.1l0,0c1.8-5.3,4.1-10.3,6.8-15.2c0.3-0.6,0.9-0.8,1.5-0.5
			c0.6,0.3,0.8,0.9,0.5,1.5c0,0.1,0,0.1-0.1,0.1c-2.7,4.7-4.9,9.6-6.7,14.7C30.4,559.3,30,559.6,29.5,559.6
			C29.5,559.6,29.5,559.6,29.5,559.6 M45.5,531c-0.6,0-1.2-0.5-1.2-1.2c0-0.3,0.1-0.5,0.2-0.7l3.8-4.8c2-2.5,4.3-5,6.8-7.9
			c0.4-0.5,1.1-0.5,1.6-0.1c0.5,0.4,0.5,1.1,0.1,1.6l0,0c-2.6,2.9-4.8,5.4-6.8,7.8c-1.3,1.5-2.6,3.1-3.7,4.7
			C46.2,530.8,45.9,531,45.5,531 M67.3,506.4c-0.3,0-0.6-0.1-0.7-0.3c-0.4-0.4-0.4-1.2,0-1.6l0,0c3.5-3.8,7.4-7.9,11-12.2
			c0.4-0.5,1.1-0.5,1.6-0.1c0.5,0.4,0.5,1.1,0.1,1.6l0,0c-3.6,4.3-7.5,8.4-11.1,12.3C67.9,506.3,67.6,506.4,67.3,506.4"/>
	</g>
</g>
<g>
	<defs>
		<rect id="SVGID_79_" x="-36.1" y="-36.1" width="1152.3" height="1152.3"/>
	</defs>
	<clipPath id="SVGID_80_">
		<use xlink:href="#SVGID_79_"  style="overflow:visible;"/>
	</clipPath>
	<g class="st47">
		<path class="st1" d="M130.3,803.2h-0.1c-2.7-0.4-5.4-1-8-1.7c-0.6-0.1-0.9-0.7-0.8-1.3c0,0,0-0.1,0-0.1c0.1-0.6,0.7-0.9,1.3-0.8
			c0,0,0.1,0,0.1,0c2.5,0.7,5.2,1.3,7.8,1.6c0.6,0,1,0.6,1,1.1c0,0,0,0.1,0,0.1C131.5,802.8,130.9,803.2,130.3,803.2"/>
	</g>
</g>
<g>
	<defs>
		<rect id="SVGID_81_" x="-36.1" y="-36.1" width="1152.3" height="1152.3"/>
	</defs>
	<clipPath id="SVGID_82_">
		<use xlink:href="#SVGID_81_"  style="overflow:visible;"/>
	</clipPath>
	<g class="st48">
		<path class="st36" d="M940.1,570.9c-0.3,0-0.7-0.1-0.9-0.4l-5.3-6c-0.4-0.5-0.4-1.2,0.1-1.6c0.5-0.4,1.2-0.4,1.6,0.1l0,0l5.3,6
			c0.4,0.4,0.4,1.1,0,1.5c0,0-0.1,0.1-0.1,0.1C940.6,570.8,940.4,570.9,940.1,570.9"/>
	</g>
</g>
<g>
	<defs>
		<rect id="SVGID_83_" x="-36.1" y="-36.1" width="1152.3" height="1152.3"/>
	</defs>
	<clipPath id="SVGID_84_">
		<use xlink:href="#SVGID_83_"  style="overflow:visible;"/>
	</clipPath>
	<g class="st49">
		<path class="st36" d="M932.1,804.6c-0.6,0-1.1-0.5-1.1-1.1c0,0,0-0.1,0-0.1c0-0.4,0.2-0.8,0.5-1c4.8-2.6,9.4-5.7,13.5-9.3
			c0.5-0.4,1.2-0.4,1.6,0.1c0.4,0.5,0.4,1.2-0.1,1.6l0,0c-4.3,3.7-9,6.9-14,9.6C932.5,804.6,932.3,804.6,932.1,804.6 M957.2,782.9
			c-0.2,0-0.5-0.1-0.6-0.2c-0.5-0.3-0.6-1-0.3-1.5c0,0,0.1-0.1,0.1-0.1c0.6-0.9,1.2-1.6,1.7-2.5c2.5-3.7,4.6-7.7,6.3-11.8
			c0.2-0.6,0.8-0.9,1.4-0.8c0.6,0.2,0.9,0.8,0.8,1.4c0,0.1,0,0.1-0.1,0.2c-1.8,4.3-4,8.4-6.5,12.3c-0.5,0.9-1.2,1.7-1.8,2.6
			C957.9,782.8,957.5,782.9,957.2,782.9 M969.9,752.3h-0.2c-0.6,0-1-0.6-1-1.1c0,0,0-0.1,0-0.1c0.6-3.6,0.8-7.3,0.9-11
			c0-1.8-0.1-3.6-0.2-5.4c-0.1-0.6,0.4-1.2,1.1-1.3l0,0c0.6,0,1.2,0.4,1.3,1.1c0.1,1.9,0.2,3.7,0.2,5.7c0,3.8-0.3,7.6-0.9,11.3
			C970.9,751.9,970.4,752.3,969.9,752.3 M967.2,719.2c-0.5,0-0.9-0.3-1.1-0.7c-1.1-3.3-2.3-6.7-3.6-10c-0.7-1.9-1.5-3.7-2.1-5.7
			c-0.1-0.6,0.3-1.3,1-1.4c0.5-0.1,0.9,0.1,1.2,0.5c0.6,1.9,1.4,3.7,2.1,5.7c1.3,3.3,2.6,6.7,3.7,10.1c0.2,0.6-0.1,1.3-0.7,1.5
			c0,0,0,0-0.1,0H967.2 M957.2,687.4c-0.6,0-1.1-0.5-1.2-1.1c-0.2-1.5-0.3-3.1-0.3-4.6c0-1.5,0.1-2.9,0.3-4.4c0.3-2.7,1-5.3,1.9-7.9
			c0.1-0.6,0.7-1,1.3-1c0.6,0.1,1,0.7,1,1.3l0,0c0,0.1-0.1,0.3-0.1,0.4c-0.9,2.4-1.5,4.9-1.8,7.5c-0.2,1.3-0.2,2.7-0.2,4.1
			c0,1.5,0.1,2.9,0.3,4.4C958.3,686.8,957.8,687.4,957.2,687.4L957.2,687.4 M966.3,656c-0.2,0-0.4,0-0.5-0.1c-0.5-0.3-0.7-1-0.4-1.6
			l0,0l1-1.7c2.5-4.2,4.8-8.5,6.8-12.9c0.3-0.6,1-0.8,1.5-0.5c0.5,0.3,0.8,0.8,0.6,1.4c-2.1,4.5-4.4,8.9-6.9,13.1l-1,1.7
			C967.2,655.7,966.8,656,966.3,656 M977.4,625c-0.6,0-1.1-0.5-1.2-1.1c-0.5-5.4-2.2-10.6-5-15.3c-0.3-0.6-0.1-1.3,0.4-1.6l0,0
			c0.6-0.3,1.3-0.1,1.6,0.4l0,0c3,4.9,4.9,10.5,5.3,16.2c0.1,0.6-0.2,1.1-0.8,1.3C977.7,625,977.5,625,977.4,625L977.4,625
			 M962.3,595.9c-0.3,0-0.7-0.1-0.9-0.4c-1.2-1.4-2.3-2.7-3.5-3.9l-7.6-8.5c-0.4-0.4-0.4-1.1,0-1.5c0,0,0.1-0.1,0.1-0.1l0,0
			c0.4-0.4,1.1-0.4,1.5,0c0,0,0.1,0.1,0.1,0.1l0,0l7.6,8.5c1.2,1.3,2.3,2.7,3.5,4.1c0.4,0.5,0.3,1.2-0.1,1.6
			C962.8,595.8,962.5,595.9,962.3,595.9"/>
	</g>
</g>
<g>
	<defs>
		<rect id="SVGID_85_" x="-36.1" y="-36.1" width="1152.3" height="1152.3"/>
	</defs>
	<clipPath id="SVGID_86_">
		<use xlink:href="#SVGID_85_"  style="overflow:visible;"/>
	</clipPath>
	<g class="st50">
		<path class="st36" d="M908.6,812.8c-0.6,0-1.2-0.5-1.2-1.2c0-0.5,0.4-1,1-1.1c2.6-0.5,5.2-1.1,7.8-1.8c0.6-0.3,1.3,0,1.5,0.5
			c0.3,0.6,0,1.3-0.5,1.5c-0.1,0-0.1,0-0.2,0.1h-0.1c-2.6,0.8-5.3,1.4-8,1.8L908.6,812.8"/>
	</g>
</g>
<g>
	<defs>
		<rect id="SVGID_87_" x="-36.1" y="-36.1" width="1152.3" height="1152.3"/>
	</defs>
	<clipPath id="SVGID_88_">
		<use xlink:href="#SVGID_87_"  style="overflow:visible;"/>
	</clipPath>
	<g class="st51">
		
			<linearGradient id="SVGID_89_" gradientUnits="userSpaceOnUse" x1="465.9568" y1="799.4175" x2="592.5984" y2="799.4175" gradientTransform="matrix(1 0 0 -1 0 1560)">
			<stop  offset="0" style="stop-color:#591919"/>
			<stop  offset="1" style="stop-color:#D93D3D"/>
		</linearGradient>
		<path class="st52" d="M592.6,957.2h-47.4l-46.7-210.3L466,673.8l0,0v-0.1l22.8-90.6l36-19.1c10.1,39.2,32.5,127.1,40.9,174.1
			C576.6,799.9,592.6,957.2,592.6,957.2"/>
	</g>
</g>
<g>
	<defs>
		<rect id="SVGID_90_" x="-36.1" y="-36.1" width="1152.3" height="1152.3"/>
	</defs>
	<clipPath id="SVGID_91_">
		<use xlink:href="#SVGID_90_"  style="overflow:visible;"/>
	</clipPath>
	<g class="st53">
		
			<linearGradient id="SVGID_92_" gradientUnits="userSpaceOnUse" x1="313.0694" y1="813.1273" x2="524.5299" y2="813.1273" gradientTransform="matrix(1 0 0 -1 0 1560)">
			<stop  offset="0" style="stop-color:#591919"/>
			<stop  offset="1" style="stop-color:#D93D3D"/>
		</linearGradient>
		<path class="st54" d="M524.5,562.7l-43.6,4.5c0,0-4.6,54.8-14.9,106.5v0.1l0,0c-2.3,12.1-5.1,23.9-8.1,34.8
			c-16,57.9-88.9,245.6-88.9,245.6l-4.9-1.7l-45.6-16l-5.4-1.9l63.6-227.3l-3.8-167.7c2.6,0.8,5.3,1.3,8,1.4
			c14.3,1.4,28.1,6.2,42,9.7c14,3.5,28.8,5.5,42.6,1.4c8.6-2.7,16.8-7.7,25.7-8.5c4.8-0.4,9.5,0.3,14.3,0.9c4.8,0.5,9.6,1,14.2-0.3
			c0,0,1.9,6.9,4.9,18.5"/>
	</g>
</g>
<g>
	<defs>
		<rect id="SVGID_93_" x="-36.1" y="-36.1" width="1152.3" height="1152.3"/>
	</defs>
	<clipPath id="SVGID_94_">
		<use xlink:href="#SVGID_93_"  style="overflow:visible;"/>
	</clipPath>
	<g class="st55">
		
			<linearGradient id="SVGID_95_" gradientUnits="userSpaceOnUse" x1="544.5876" y1="575.1009" x2="677.4216" y2="575.1009" gradientTransform="matrix(1 0 0 -1 0 1560)">
			<stop  offset="0" style="stop-color:#000000"/>
			<stop  offset="2.000000e-02" style="stop-color:#050302"/>
			<stop  offset="0.15" style="stop-color:#291B11"/>
			<stop  offset="0.29" style="stop-color:#462F1D"/>
			<stop  offset="0.43" style="stop-color:#5D3F27"/>
			<stop  offset="0.59" style="stop-color:#6D492E"/>
			<stop  offset="0.77" style="stop-color:#775032"/>
			<stop  offset="1" style="stop-color:#7A5233"/>
		</linearGradient>
		<path class="st56" d="M626.2,975.1c52.7-13.9,51.2,37.6,51.2,37.6L544.6,1002l4.3-44.8h43.7L626.2,975.1z"/>
	</g>
</g>
<g>
	<defs>
		<rect id="SVGID_96_" x="-36.1" y="-36.1" width="1152.3" height="1152.3"/>
	</defs>
	<clipPath id="SVGID_97_">
		<use xlink:href="#SVGID_96_"  style="overflow:visible;"/>
	</clipPath>
	<g class="st57">
		<path class="st58" d="M524.8,563.9L488.8,583L466,673.6c10.2-51.6,14.9-106.5,14.9-106.5l43.6-4.5
			C524.6,563.2,524.7,563.5,524.8,563.9"/>
	</g>
</g>
<g>
	<defs>
		<rect id="SVGID_98_" x="-36.1" y="-36.1" width="1152.3" height="1152.3"/>
	</defs>
	<clipPath id="SVGID_99_">
		<use xlink:href="#SVGID_98_"  style="overflow:visible;"/>
	</clipPath>
	<g class="st59">
		
			<linearGradient id="SVGID_100_" gradientUnits="userSpaceOnUse" x1="301.1201" y1="575.261" x2="427.1215" y2="575.261" gradientTransform="matrix(1 0 0 -1 0 1560)">
			<stop  offset="0" style="stop-color:#000000"/>
			<stop  offset="2.000000e-02" style="stop-color:#050302"/>
			<stop  offset="0.15" style="stop-color:#291B11"/>
			<stop  offset="0.29" style="stop-color:#462F1D"/>
			<stop  offset="0.43" style="stop-color:#5D3F27"/>
			<stop  offset="0.59" style="stop-color:#6D492E"/>
			<stop  offset="0.77" style="stop-color:#775032"/>
			<stop  offset="1" style="stop-color:#7A5233"/>
		</linearGradient>
		<path class="st60" d="M427.1,1030.6l-63.6,2.5l-62.4-50.7l17.5-45.9l45.6,16l10.9,35.8C420.5,988.6,427.1,1030.7,427.1,1030.6"/>
	</g>
</g>
<g>
	<defs>
		<rect id="SVGID_101_" x="-36.1" y="-36.1" width="1152.3" height="1152.3"/>
	</defs>
	<clipPath id="SVGID_102_">
		<use xlink:href="#SVGID_101_"  style="overflow:visible;"/>
	</clipPath>
	<g class="st61">
		<path class="st58" d="M397.6,632.8c-1.4-26.4-2.9-52.7-4.5-79.1c-0.2-3.4-0.4-6.7-0.6-10c0-0.6-0.6-1-1.1-1c0,0-0.1,0-0.1,0
			c-0.6,0.1-1,0.6-1,1.2c0,0,0,0,0,0c1.7,26.2,3.2,52.4,4.6,78.6c1.4,25.9,3.5,52.1,0.6,78c-2.8,25.3-10.9,49.6-18.8,73.6
			c-8.2,24.9-16.5,49.8-24.8,74.7c-8.2,24.9-16.6,50-25,75l-3.1,9.3c-0.4,1.4,1.6,2.3,2.1,1c8.3-25.2,16.6-50.3,25.1-75.4l25-75.4
			c8-24,16.4-48,20.5-73.1C400.3,684.6,398.8,658.5,397.6,632.8"/>
	</g>
</g>
<g>
	<defs>
		<rect id="SVGID_103_" x="-36.1" y="-36.1" width="1152.3" height="1152.3"/>
	</defs>
	<clipPath id="SVGID_104_">
		<use xlink:href="#SVGID_103_"  style="overflow:visible;"/>
	</clipPath>
	<g class="st62">
		<path class="st58" d="M540.9,892.4c-3.1-20.2-6.5-40.2-10.3-60.2c-3.8-19.7-8.1-39.5-13.2-58.9c-5.1-19.4-10.9-38.9-17.6-57.9
			c-6.7-19-14.5-37.7-23.4-55.8c-1.1-2.2-2.2-4.5-3.4-6.7c-0.6-1.3-2.8-0.5-2.1,0.9c9.1,18,17.1,36.4,24.1,55.3
			c6.9,18.9,13,38.1,18.2,57.4c5.2,19.3,9.8,39.4,13.8,59.2c3.9,19.8,7.5,39.9,10.6,59.9c3.1,20,6.1,40,8.9,60.1l1.1,7.5
			c0.1,0.6,0.7,1.1,1.4,0.9c0.6-0.1,1-0.6,1-1.2C546.9,932.6,544.1,912.6,540.9,892.4"/>
	</g>
</g>
<g>
	<defs>
		<rect id="SVGID_105_" x="-36.1" y="-36.1" width="1152.3" height="1152.3"/>
	</defs>
	<clipPath id="SVGID_106_">
		<use xlink:href="#SVGID_105_"  style="overflow:visible;"/>
	</clipPath>
	<g class="st63">
		<path d="M528.9,465.6v0.5c-22.2,10.9-49,1.7-59.8-20.5c0,0,0,0,0,0c-0.2-0.4-0.4-0.8-0.5-1.2c3.4-2.3,6.8-4.6,10.2-6.9
			c4.8,8,8.5,13.3,10,14.8C493.4,456.8,511.1,465.4,528.9,465.6"/>
	</g>
</g>
<g>
	<defs>
		<rect id="SVGID_107_" x="-36.1" y="-36.1" width="1152.3" height="1152.3"/>
	</defs>
	<clipPath id="SVGID_108_">
		<use xlink:href="#SVGID_107_"  style="overflow:visible;"/>
	</clipPath>
	<g class="st64">
		<path class="st65" d="M533.8,340.7c-0.5,0.2-1,0.5-1.5,0.9c-0.5-2.1-1.1-4.4-1.6-6.6C531.7,336.8,532.7,338.8,533.8,340.7"/>
	</g>
</g>
<g>
	<defs>
		<rect id="SVGID_109_" x="-36.1" y="-36.1" width="1152.3" height="1152.3"/>
	</defs>
	<clipPath id="SVGID_110_">
		<use xlink:href="#SVGID_109_"  style="overflow:visible;"/>
	</clipPath>
	<g class="st66">
		
			<linearGradient id="SVGID_111_" gradientUnits="userSpaceOnUse" x1="367.3148" y1="1166.2844" x2="610.712" y2="1166.2844" gradientTransform="matrix(1 0 0 -1 0 1560)">
			<stop  offset="0" style="stop-color:#2F3273"/>
			<stop  offset="1" style="stop-color:#595FD9"/>
		</linearGradient>
		<path class="st67" d="M600.3,400.8c-12.5,10.2-23,36.2-44.6,55.7c-3.1,2.7-6.6,4.9-10.5,6.4c-4.5,1.6-9.1,2.5-13.9,2.7v0.6
			c-0.6,15-1.7,30.3-3.5,40.8c4.9,1.6,1.3,12.8-2.5,16.4c4.5,1.7,6.4,7.5,4.8,11.9c-1.6,4.5-6,7.6-10.6,8.9
			c-4.6,1.3-9.5,0.9-14.3,0.3c-4.8-0.5-9.5-1.4-14.3-0.9c-9.1,0.9-17.1,5.9-25.7,8.5c-13.8,4.2-28.6,2.1-42.6-1.4
			c-14-3.5-27.6-8.3-42-9.7c-2.7-0.1-5.4-0.6-8-1.4c-2.6-0.9-4.6-3.1-5.2-5.8c-0.4-2.7,1.6-5.7,4.4-5.5c-3.3,0-5.1-4.2-4.4-7.4
			c0.7-3.2,2.9-5.9,4.3-8.9c0.8-1.6,1.3-3.3,1.5-5.1c-3.3-15.8-1.6-32.2,1.7-47.9c1.3-6,2.7-11.8,4.3-17.8c0.7-3.1,1.6-6.1,2.5-9.1
			c2.6-9.5,5.1-19,7.8-28.5c5.2-18.8,10.7-37.6,16.6-56.1c5.8-18,11.9-36,19.4-53.3c6.1-14.3,13.2-28.2,22.8-40.4
			c-0.1,0-0.1-0.1-0.2-0.1c6.7-15.2,27.5-20.8,27.5-20.8l3,5l26.9,44.9c1.6,1.3,3.1,2.8,4.4,4.4l0.3,0.3l0.1,0.2
			c0.2,0.1,0.3,0.3,0.4,0.5c2.6,3.4,4.9,7,6.9,10.8c1.8,3,3.6,6,5.3,9.1c8.1,14.7,14.7,30.2,19.7,46.2c1.9,6,3.5,11.9,5,18
			c1.5-2,3.2-4.4,5.1-7.1c1.4-2.1,3-4.6,4.6-7.4c2.2-3.8,5.2-7.1,8.9-9.6c5.5-3.6,12.3-4.8,18.7-3.2l2.1,2.1l18.4,18.1
			c0.1,0.1,0.3,0.2,0.4,0.2C613.4,370.3,612.5,390.7,600.3,400.8"/>
	</g>
</g>
<g>
	<defs>
		<rect id="SVGID_112_" x="-36.1" y="-36.1" width="1152.3" height="1152.3"/>
	</defs>
	<clipPath id="SVGID_113_">
		<use xlink:href="#SVGID_112_"  style="overflow:visible;"/>
	</clipPath>
	<g class="st68">
		<path class="st69" d="M566.2,348.2c-3.6,2.5-6.7,5.8-8.9,9.6c-1.6,2.8-3.1,5.1-4.6,7.4c-2.7-3.6-3.1-8.4-1-12.4
			c0.6,0.4,1.2,0.6,1.9,0.6c1.9-0.1,3.6-0.9,4.8-2.3c2.5-2.5,4-5.9,4.4-9.4L566.2,348.2z"/>
	</g>
</g>
<g>
	<defs>
		<rect id="SVGID_114_" x="-36.1" y="-36.1" width="1152.3" height="1152.3"/>
	</defs>
	<clipPath id="SVGID_115_">
		<use xlink:href="#SVGID_114_"  style="overflow:visible;"/>
	</clipPath>
	<g class="st70">
		<path class="st71" d="M439.4,338.7c3,27.3,18.7,62,31.8,85.9c-3.6,1.7-7.3,3.3-10.9,4.9c-10.6-29.4-17.7-59.8-21.3-90.8H439.4z"/>
	</g>
</g>
<g>
	<defs>
		<rect id="SVGID_116_" x="-36.1" y="-36.1" width="1152.3" height="1152.3"/>
	</defs>
	<clipPath id="SVGID_117_">
		<use xlink:href="#SVGID_116_"  style="overflow:visible;"/>
	</clipPath>
	<g class="st72">
		<path d="M665.1,281.7c-6.8,6.2-13.5,12.5-20.4,18.7c-5,1.4-9.8,3.2-14.5,5.3c-0.3-0.2-0.5-0.4-0.9-0.5l21-20.7
			c2.1-2,4.3-4.2,7.1-5.1S663.8,279,665.1,281.7"/>
	</g>
</g>
<g>
	<defs>
		<rect id="SVGID_118_" x="-36.1" y="-36.1" width="1152.3" height="1152.3"/>
	</defs>
	<clipPath id="SVGID_119_">
		<use xlink:href="#SVGID_118_"  style="overflow:visible;"/>
	</clipPath>
	<g class="st73">
		
			<linearGradient id="SVGID_120_" gradientUnits="userSpaceOnUse" x1="587.0505" y1="1228.3503" x2="661.9539" y2="1228.3503" gradientTransform="matrix(1 0 0 -1 0 1560)">
			<stop  offset="0" style="stop-color:#BA7D4E"/>
			<stop  offset="0.23" style="stop-color:#D38E59"/>
			<stop  offset="0.5" style="stop-color:#E99D62"/>
			<stop  offset="0.76" style="stop-color:#F6A668"/>
			<stop  offset="1" style="stop-color:#FAA96A"/>
		</linearGradient>
		<path class="st74" d="M644.8,300.3c3.2-0.9,6.4-1.6,9.6-2.1c3-0.5,7.3,0,7.6,3.1c0.1,1.6-1.1,3.1-2.2,4.2c-4,3.9-8.7,7.1-13.9,9.4
			c-0.4,0.1-0.8,0.3-1.2,0.5c0.4-0.1,0.8-0.3,1.2-0.5c2-0.3,3.8,1,4.4,2.9c0.5,2.3-0.9,4.7-2.8,6.1c-2,1.2-4.3,2.1-6.6,2.5
			c3.1,1.8,4.1,5.7,2.4,8.7c0,0,0,0,0,0c-1.1,1.8-3,3-5.1,3.2c2.8-0.4,4.7,3.3,3.6,5.9c-1.1,2.6-3.7,4.2-6.2,5.4
			c-9.9,5.2-19.8,10.6-29.7,15.9l-0.4-0.2L587.1,347c5.2-11.1,11.6-21.6,19-31.4c3.1-4.1,6.4-8.1,11-10.5c3.8-2,8.4-2.1,12.3-0.2
			c0.3,0.1,0.6,0.3,0.9,0.5C634.9,303.5,639.8,301.7,644.8,300.3"/>
	</g>
</g>
<g>
	<defs>
		<rect id="SVGID_121_" x="-36.1" y="-36.1" width="1152.3" height="1152.3"/>
	</defs>
	<clipPath id="SVGID_122_">
		<use xlink:href="#SVGID_121_"  style="overflow:visible;"/>
	</clipPath>
	<g class="st75">
		<path class="st69" d="M551.9,352.8c-1.7-1.4-2.6-3.6-2.3-5.8c0.2-1.4,0.7-2.7,1.5-3.9c-1.3-2.6-2.6-5.1-4.1-7.6
			c1.9-0.5,3.7-1,5.7-1.4c3-0.6,6.5-0.9,8.6,1.3c1.6,1.6,1.9,4.2,1.6,6.4c-0.4,3.5-1.9,6.8-4.4,9.4c-1.2,1.5-2.9,2.3-4.8,2.3
			C553.1,353.4,552.5,353.2,551.9,352.8"/>
	</g>
</g>
<g>
	<defs>
		<rect id="SVGID_123_" x="-36.1" y="-36.1" width="1152.3" height="1152.3"/>
	</defs>
	<clipPath id="SVGID_124_">
		<use xlink:href="#SVGID_123_"  style="overflow:visible;"/>
	</clipPath>
	<g class="st76">
		<path class="st71" d="M535.5,388.3c-8,8.7-13.9,19.1-17.3,30.4c-4.7-11.3,0.6-24.2,11.9-28.9c0,0,0,0,0.1,0
			C531.9,389.1,533.7,388.6,535.5,388.3"/>
	</g>
</g>
<g>
	<defs>
		<rect id="SVGID_125_" x="-36.1" y="-36.1" width="1152.3" height="1152.3"/>
	</defs>
	<clipPath id="SVGID_126_">
		<use xlink:href="#SVGID_125_"  style="overflow:visible;"/>
	</clipPath>
	<g class="st77">
		<path class="st71" d="M527.8,465.9c-9,2.7-18.7,0-26.5-4.8c-8.2-5.2-14.5-12.8-20.7-20.2c-1-1.2-2.8,0.2-1.9,1.4
			c6.5,7.9,13.2,15.8,22,21.2c8.2,5.1,18.4,7.5,27.8,4.7C530,467.6,529.2,465.4,527.8,465.9"/>
	</g>
</g>
<g>
	<defs>
		<rect id="SVGID_127_" x="-36.1" y="-36.1" width="1152.3" height="1152.3"/>
	</defs>
	<clipPath id="SVGID_128_">
		<use xlink:href="#SVGID_127_"  style="overflow:visible;"/>
	</clipPath>
	<g class="st78">
		<path class="st71" d="M534.9,374.9c-0.6-0.2-1.2,0-1.5,0.5l-6,9.4c-0.3,0.5-0.1,1.2,0.4,1.4c0,0,0.1,0,0.1,0l0,0
			c0.6,0.2,1.2,0,1.5-0.5l6-9.4c0.3-0.5,0.2-1.1-0.3-1.4C535.1,375,535,375,534.9,374.9"/>
	</g>
</g>
<g>
	<defs>
		<rect id="SVGID_129_" x="-36.1" y="-36.1" width="1152.3" height="1152.3"/>
	</defs>
	<clipPath id="SVGID_130_">
		<use xlink:href="#SVGID_129_"  style="overflow:visible;"/>
	</clipPath>
	<g class="st79">
		<path class="st71" d="M529.8,370.6c-0.6-0.2-1.2,0-1.5,0.5c-1.1,3.3-2.2,6.5-3.3,9.8c-0.2,0.6,0,1.2,0.5,1.5
			c0.5,0.3,1.2,0.1,1.4-0.4c0,0,0-0.1,0-0.1c1.1-3.3,2.2-6.6,3.3-9.8C530.5,371.5,530.3,370.9,529.8,370.6"/>
	</g>
</g>
<g>
	<defs>
		<rect id="SVGID_131_" x="-36.1" y="-36.1" width="1152.3" height="1152.3"/>
	</defs>
	<clipPath id="SVGID_132_">
		<use xlink:href="#SVGID_131_"  style="overflow:visible;"/>
	</clipPath>
	<g class="st80">
		<path class="st71" d="M522.9,367.2c-0.6-0.2-1.2,0-1.5,0.5c-1,2.6-2,5.1-3,7.7c-0.2,0.6,0,1.2,0.5,1.5c0.5,0.3,1.2,0.1,1.4-0.4
			c0,0,0-0.1,0-0.1l3-7.7C523.7,368.1,523.4,367.5,522.9,367.2"/>
	</g>
</g>
<g>
	<defs>
		<rect id="SVGID_133_" x="-36.1" y="-36.1" width="1152.3" height="1152.3"/>
	</defs>
	<clipPath id="SVGID_134_">
		<use xlink:href="#SVGID_133_"  style="overflow:visible;"/>
	</clipPath>
	<g class="st81">
		<path class="st71" d="M595.7,359.2c-0.5-0.4-1.2-0.3-1.6,0.1l-3.8,5.1c-0.4,0.5-0.4,1.2,0.1,1.6c0.5,0.4,1.2,0.4,1.6-0.1l3.8-5.1
			c0.4-0.4,0.4-1.1,0-1.5C595.8,359.2,595.7,359.2,595.7,359.2"/>
	</g>
</g>
<g>
	<defs>
		<rect id="SVGID_135_" x="-36.1" y="-36.1" width="1152.3" height="1152.3"/>
	</defs>
	<clipPath id="SVGID_136_">
		<use xlink:href="#SVGID_135_"  style="overflow:visible;"/>
	</clipPath>
	<g class="st82">
		<path class="st71" d="M590.5,355.6c-0.4-0.5-1.1-0.7-1.6-0.3l-4.3,3.8c-0.2,0.2-0.4,0.4-0.4,0.7c0,0.3,0,0.6,0.2,0.9
			c0.4,0.5,1.1,0.7,1.6,0.3l4.3-3.8c0.2-0.2,0.4-0.4,0.4-0.7C590.7,356.2,590.6,355.9,590.5,355.6"/>
	</g>
</g>
<g>
	<defs>
		<rect id="SVGID_137_" x="-36.1" y="-36.1" width="1152.3" height="1152.3"/>
	</defs>
	<clipPath id="SVGID_138_">
		<use xlink:href="#SVGID_137_"  style="overflow:visible;"/>
	</clipPath>
	<g class="st83">
		<path class="st71" d="M584.6,350c-0.2-0.6-0.8-0.9-1.3-0.7c-0.1,0-0.1,0-0.2,0.1l-5.1,2.6c-0.6,0.2-0.9,0.9-0.6,1.5
			c0.2,0.6,0.8,0.9,1.3,0.7c0.1,0,0.1,0,0.2-0.1l5.1-2.6C584.5,351.2,584.8,350.6,584.6,350"/>
	</g>
</g>
<g>
	<defs>
		<rect id="SVGID_139_" x="-36.1" y="-36.1" width="1152.3" height="1152.3"/>
	</defs>
	<clipPath id="SVGID_140_">
		<use xlink:href="#SVGID_139_"  style="overflow:visible;"/>
	</clipPath>
	<g class="st84">
		<path class="st71" d="M599.9,365.3c-0.6-0.1-1.2,0.3-1.4,1c0,0.4-0.1,0.9-0.2,1.3l0,0v0.1l-0.1,0.3l-0.3,0.6c0,0.1,0,0.2-0.1,0.2
			v0.1l0,0c-0.1,0.2-0.3,0.4-0.4,0.5c-0.1,0.2-0.3,0.3-0.4,0.4l-0.1,0.1l0,0c0,0-0.2,0.1-0.2,0.2c-0.5,0.4-0.7,1.1-0.3,1.6
			c0.4,0.5,1.1,0.7,1.6,0.3c1.7-1.3,2.8-3.3,3-5.4c0.2-0.6-0.1-1.2-0.7-1.3C600,365.4,599.9,365.4,599.9,365.3"/>
	</g>
</g>
<g>
	<defs>
		<rect id="SVGID_141_" x="-36.1" y="-36.1" width="1152.3" height="1152.3"/>
	</defs>
	<clipPath id="SVGID_142_">
		<use xlink:href="#SVGID_141_"  style="overflow:visible;"/>
	</clipPath>
	<g class="st85">
		<path class="st71" d="M607.1,370.1c-0.6-0.2-1.2,0-1.5,0.5l-2.1,5.1c-0.3,0.6,0,1.2,0.5,1.5c0.6,0.3,1.2,0,1.5-0.5
			c0.7-1.7,1.4-3.4,2.1-5.1C607.9,371.1,607.7,370.4,607.1,370.1C607.1,370.1,607.1,370.1,607.1,370.1"/>
	</g>
</g>
<g>
	<defs>
		<rect id="SVGID_143_" x="-36.1" y="-36.1" width="1152.3" height="1152.3"/>
	</defs>
	<clipPath id="SVGID_144_">
		<use xlink:href="#SVGID_143_"  style="overflow:visible;"/>
	</clipPath>
	<g class="st86">
		<path class="st71" d="M491.7,270.2c-8.1-9.9-16.2-20-24.3-30c-1-1.2-2.8,0.2-1.9,1.4l24.3,29.9
			C490.7,272.6,492.6,271.4,491.7,270.2"/>
	</g>
</g>
<g>
	<defs>
		<rect id="SVGID_145_" x="-36.1" y="-36.1" width="1152.3" height="1152.3"/>
	</defs>
	<clipPath id="SVGID_146_">
		<use xlink:href="#SVGID_145_"  style="overflow:visible;"/>
	</clipPath>
	<g class="st87">
		<path class="st71" d="M484.2,269.5l-8.5-7.8c-0.5-0.4-1.2-0.4-1.6,0.1c-0.4,0.5-0.4,1.2,0.1,1.6l0,0l0,0l8.5,7.8
			c0.5,0.4,1.2,0.3,1.6-0.1c0.4-0.4,0.4-1.1,0-1.5C484.3,269.6,484.2,269.6,484.2,269.5"/>
	</g>
</g>
<g>
	<defs>
		<rect id="SVGID_147_" x="-36.1" y="-36.1" width="1152.3" height="1152.3"/>
	</defs>
	<clipPath id="SVGID_148_">
		<use xlink:href="#SVGID_147_"  style="overflow:visible;"/>
	</clipPath>
	<g class="st88">
		<path class="st71" d="M518.1,510.7l-21.8,9c-1.4,0.5-0.5,2.8,0.9,2.1l21.8-9C520.3,512.3,519.5,510,518.1,510.7"/>
	</g>
</g>
<g>
	<defs>
		<rect id="SVGID_149_" x="-36.1" y="-36.1" width="1152.3" height="1152.3"/>
	</defs>
	<clipPath id="SVGID_150_">
		<use xlink:href="#SVGID_149_"  style="overflow:visible;"/>
	</clipPath>
	<g class="st89">
		<path class="st71" d="M517.6,521.5l-15.8,0.7c-1.5,0.1-1.3,2.3,0.2,2.3l15.8-0.7c0.6-0.1,1.1-0.7,0.9-1.4
			C518.6,521.9,518.2,521.5,517.6,521.5"/>
	</g>
</g>
<g>
	<defs>
		<rect id="SVGID_151_" x="-36.1" y="-36.1" width="1152.3" height="1152.3"/>
	</defs>
	<clipPath id="SVGID_152_">
		<use xlink:href="#SVGID_151_"  style="overflow:visible;"/>
	</clipPath>
	<g class="st90">
		<path class="st71" d="M393.6,517.4l-14.2-4.6c-0.6-0.2-1.3,0.2-1.4,0.9c-0.2,0.6,0.2,1.3,0.9,1.4c0,0,0.1,0,0.1,0l14.2,4.6
			c0.6,0.1,1.2-0.3,1.4-1C394.6,518.1,394.2,517.5,393.6,517.4"/>
	</g>
</g>
<g>
	<defs>
		<rect id="SVGID_153_" x="-36.1" y="-36.1" width="1152.3" height="1152.3"/>
	</defs>
	<clipPath id="SVGID_154_">
		<use xlink:href="#SVGID_153_"  style="overflow:visible;"/>
	</clipPath>
	<g class="st91">
		<path class="st71" d="M391.1,525.9l-9.8-0.7c-0.7-0.1-1.3,0.4-1.3,1c-0.1,0.6,0.3,1.2,0.9,1.3l9.8,0.7c0.6,0.1,1.2-0.3,1.4-1
			C392.1,526.7,391.7,526.1,391.1,525.9"/>
	</g>
</g>
<g>
	<defs>
		<rect id="SVGID_155_" x="-36.1" y="-36.1" width="1152.3" height="1152.3"/>
	</defs>
	<clipPath id="SVGID_156_">
		<use xlink:href="#SVGID_155_"  style="overflow:visible;"/>
	</clipPath>
	<g class="st92">
		<path class="st71" d="M547.4,373.7c-1.1-1.7-2.8-2.9-4.7-3.4c-2.3-0.6-4.8-0.1-6.7,1.3c-0.4-2.7-1.1-5.3-3.2-7.1s-5.4-2.6-7.9-0.9
			c-0.5,0.4-0.6,1.1-0.3,1.7c0.4,0.5,1.1,0.6,1.7,0.3c1.8-1.4,4.3-0.3,5.7,1.3c1.6,2,1.8,4.8,2,7.3c0.1,0.6,0.6,1.1,1.3,1.1
			c0.3,0,0.6-0.2,0.7-0.4c2-2.6,5.7-3.1,8.3-1.1c1.1,0.8,1.8,2,2.1,3.3C546.6,378.3,548.5,375.7,547.4,373.7"/>
	</g>
</g>
<g>
	<defs>
		<rect id="SVGID_157_" x="-36.1" y="-36.1" width="1152.3" height="1152.3"/>
	</defs>
	<clipPath id="SVGID_158_">
		<use xlink:href="#SVGID_157_"  style="overflow:visible;"/>
	</clipPath>
	<g class="st93">
		<path d="M434.3,442c-0.1-0.6-0.7-1.1-1.4-1c-0.6,0.1-1,0.6-1,1.2c0.7,8.5,1.4,17.1,2,25.6c0,0.6,0.6,1,1.1,1c0,0,0.1,0,0.1,0
			c0.6-0.1,1-0.6,1-1.2c0,0,0,0,0,0L434.3,442z"/>
	</g>
</g>
<g>
	<defs>
		<rect id="SVGID_159_" x="-36.1" y="-36.1" width="1152.3" height="1152.3"/>
	</defs>
	<clipPath id="SVGID_160_">
		<use xlink:href="#SVGID_159_"  style="overflow:visible;"/>
	</clipPath>
	<g class="st94">
		
			<linearGradient id="SVGID_161_" gradientUnits="userSpaceOnUse" x1="490.0405" y1="1343.2278" x2="603.3927" y2="1405.4036" gradientTransform="matrix(1 0 0 -1 0 1560)">
			<stop  offset="0" style="stop-color:#3B2719"/>
			<stop  offset="0.66" style="stop-color:#511D19"/>
			<stop  offset="0.87" style="stop-color:#591919"/>
		</linearGradient>
		<path class="st95" d="M537.5,213.8c0.5-4.1,1.2-15.3-9.6-14.6C514.8,200.1,516,218,516,218c-7.8-5.1-18.4,3.4-18.4,3.4l-3.4,3
			c0.4-3.1,0.5-6.3,0.2-9.4c-0.6-3.7-2.5-7.1-3.9-10.7c-1.5-3.5-2.5-7.5-1.4-11.1c1.1-3.6,3.9-6.1,6.5-8.9
			c5.1-5.5,8.9-12.1,11.2-19.2c1.1-3.5,1.8-7.1,3.4-10.5c1.6-3.3,4.1-6.4,7.6-7.6c4.2-1.4,8.6,0.2,13,0c8-0.3,15.4-6.3,23.2-5
			c7,1.2,11.7,7.9,18.5,10.3c4.4,1.7,9.2,1.4,13.9,1.7c4.7,0.3,9.6,1.4,12.7,4.9c4.8,5.5,3,14.8,8.2,20c4.5,4.5,13,4.6,15.3,10.5
			c1.3,3.3-0.1,7.1-2.6,9.7c-2.5,2.6-5.8,4.1-9,5.4c-6.3,2.7-13.7,5.4-19.6,2.2c-0.6-0.3-1.1-0.7-1.6-1.1l0,0
			c-3.2-2.3-5.8-6-9.7-6.8c-6.7-1.5-12.6,5.5-19.4,5.3c-4.7-0.1-9.4-3.6-13.8-1.7C542.5,204.6,541.4,211.3,537.5,213.8"/>
	</g>
</g>
<g>
	<defs>
		<rect id="SVGID_162_" x="-36.1" y="-36.1" width="1152.3" height="1152.3"/>
	</defs>
	<clipPath id="SVGID_163_">
		<use xlink:href="#SVGID_162_"  style="overflow:visible;"/>
	</clipPath>
	<g class="st96">
		
			<linearGradient id="SVGID_164_" gradientUnits="userSpaceOnUse" x1="478.7598" y1="1316.3977" x2="589.6112" y2="1316.3977" gradientTransform="matrix(1 0 0 -1 0 1560)">
			<stop  offset="0" style="stop-color:#BA7D4E"/>
			<stop  offset="1" style="stop-color:#FAA96A"/>
		</linearGradient>
		<path class="st97" d="M589.6,206.1L589.6,206.1c-1.4,8-3.2,15.8-5.4,23.6c-2.3,8.6-5.5,17-9.3,25.1c-5.1,10.6-11.6,19.5-19.8,23.4
			c-13.1,6.2-25.6-1.9-34.8-11.5c-5.8-6.1-10.7-12.9-14.7-20.3l7.5,36.9l-1.7,3.9l-0.5,1.1c-1.6-1.9-3.3-3.7-5.2-5.3L478.8,238
			l15.5-13.4l3.4-3c0,0,10.6-8.5,18.4-3.4c0,0-1.2-17.9,11.9-18.8c10.8-0.6,10.1,10.6,9.6,14.6c3.8-2.6,4.7-9.2,9.2-11.1
			c4.5-1.9,9.1,1.6,13.8,1.7c6.8,0.1,12.8-6.9,19.4-5.3C583.7,200.1,586.3,203.6,589.6,206.1"/>
	</g>
</g>
<g>
	<defs>
		<rect id="SVGID_165_" x="-36.1" y="-36.1" width="1152.3" height="1152.3"/>
	</defs>
	<clipPath id="SVGID_166_">
		<use xlink:href="#SVGID_165_"  style="overflow:visible;"/>
	</clipPath>
	<g class="st98">
		<path class="st99" d="M589.7,250.1c1,1.4,2.1,3,1.6,4.6s-2.3,2-3.9,2.2c-4.3,0.5-8.6-0.3-12.5-2.2c3.8-8.1,6.9-16.5,9.3-25.1
			C583.6,236.9,585.6,244.1,589.7,250.1"/>
	</g>
</g>
<g>
	<defs>
		<rect id="SVGID_167_" x="-36.1" y="-36.1" width="1152.3" height="1152.3"/>
	</defs>
	<clipPath id="SVGID_168_">
		<use xlink:href="#SVGID_167_"  style="overflow:visible;"/>
	</clipPath>
	<g class="st100">
		
			<linearGradient id="SVGID_169_" gradientUnits="userSpaceOnUse" x1="505.4963" y1="1295.1545" x2="520.2729" y2="1295.1545" gradientTransform="matrix(1 0 0 -1 0 1560)">
			<stop  offset="0" style="stop-color:#3B2719"/>
			<stop  offset="0.66" style="stop-color:#511D19"/>
			<stop  offset="0.87" style="stop-color:#591919"/>
		</linearGradient>
		<path class="st101" d="M520.3,266.6l-7.3,16.8l-7.5-36.9C509.7,253.7,514.6,260.4,520.3,266.6"/>
	</g>
</g>
<g>
	<defs>
		<rect id="SVGID_170_" x="-36.1" y="-36.1" width="1152.3" height="1152.3"/>
	</defs>
	<clipPath id="SVGID_171_">
		<use xlink:href="#SVGID_170_"  style="overflow:visible;"/>
	</clipPath>
	<g class="st102">
		
			<linearGradient id="SVGID_172_" gradientUnits="userSpaceOnUse" x1="549.2288" y1="1298.2656" x2="561.1247" y2="1298.2656" gradientTransform="matrix(1 0 0 -1 0 1560)">
			<stop  offset="0" style="stop-color:#3B2719"/>
			<stop  offset="0.66" style="stop-color:#511D19"/>
			<stop  offset="0.87" style="stop-color:#591919"/>
		</linearGradient>
		<path class="st103" d="M560.7,268c-4.7-3.2-7.9-8-9.1-13.5c-0.1-0.6-0.6-1.1-1.3-1.1s-1.1,0.6-1.1,1.3l0,0
			c1.3,6.1,4.8,11.5,9.9,15.2C560.4,270.6,561.9,268.9,560.7,268"/>
	</g>
</g>
<g>
	<defs>
		<rect id="SVGID_173_" x="-36.1" y="-36.1" width="1152.3" height="1152.3"/>
	</defs>
	<clipPath id="SVGID_174_">
		<use xlink:href="#SVGID_173_"  style="overflow:visible;"/>
	</clipPath>
	<g class="st104">
		
			<linearGradient id="SVGID_175_" gradientUnits="userSpaceOnUse" x1="567.1954" y1="1333.8013" x2="577.8325" y2="1333.8013" gradientTransform="matrix(1 0 0 -1 0 1560)">
			<stop  offset="0" style="stop-color:#3B2719"/>
			<stop  offset="0.66" style="stop-color:#511D19"/>
			<stop  offset="0.87" style="stop-color:#591919"/>
		</linearGradient>
		<path class="st105" d="M577.3,226.7c-0.6,1.7-1.6,3.2-3,4.4c-1.5,1.3-3.6,1.5-5.2,0.4c-0.2-0.1-0.3-0.3-0.5-0.4
			c-0.4-0.3-0.7-0.7-1-1.2c-0.6-1.7-0.4-3.5,0.5-5c0.9-1.7,2.3-3.1,3.9-4.1c1.6-1,3.7-0.5,4.9,1C578.1,223,577.9,224.9,577.3,226.7"
			/>
	</g>
</g>
<g>
	<defs>
		<rect id="SVGID_176_" x="-36.1" y="-36.1" width="1152.3" height="1152.3"/>
	</defs>
	<clipPath id="SVGID_177_">
		<use xlink:href="#SVGID_176_"  style="overflow:visible;"/>
	</clipPath>
	<g class="st106">
		
			<linearGradient id="SVGID_178_" gradientUnits="userSpaceOnUse" x1="521.2971" y1="1349.811" x2="531.8062" y2="1349.811" gradientTransform="matrix(1 0 0 -1 0 1560)">
			<stop  offset="0" style="stop-color:#3B2719"/>
			<stop  offset="0.66" style="stop-color:#511D19"/>
			<stop  offset="0.87" style="stop-color:#591919"/>
		</linearGradient>
		<path class="st107" d="M528.7,202.5c-3-1-5.7,1.2-7,3.6c-0.3,0.5-0.1,1.2,0.4,1.4c0,0,0.1,0,0.1,0c0.6,0.2,1.2,0,1.5-0.5
			c0.7-1.3,2-2.7,3.7-2.6c1.7,0.1,2.2,1.6,2.1,3.1c-0.2,1.7-0.8,3.4-1.8,4.8c-0.4,0.7-1,1.4-1.6,1.9c-0.3,0.3-0.6,0.5-1,0.7
			c-0.3,0.2-0.7,0.6-1.2,0.6c-0.4,0-0.4-0.7-0.3-1.1c0.3-0.9,1.4-1.3,2.1-1.7c0.5-0.4,0.7-1.1,0.3-1.6c-0.3-0.5-1-0.7-1.5-0.4
			c-0.1,0-0.1,0-0.1,0.1c-1.2,0.5-2.2,1.4-2.8,2.6c-0.5,1.1-0.4,2.3,0.2,3.3c1.8,2.7,5.1,0,6.5-1.6c1.7-1.9,2.9-4.2,3.3-6.7
			C532.1,206.3,531.4,203.4,528.7,202.5"/>
	</g>
</g>
<g>
	<defs>
		<rect id="SVGID_179_" x="-36.1" y="-36.1" width="1152.3" height="1152.3"/>
	</defs>
	<clipPath id="SVGID_180_">
		<use xlink:href="#SVGID_179_"  style="overflow:visible;"/>
	</clipPath>
	<g class="st108">
		
			<linearGradient id="SVGID_181_" gradientUnits="userSpaceOnUse" x1="569.8093" y1="1343.7629" x2="584.0128" y2="1343.7629" gradientTransform="matrix(1 0 0 -1 0 1560)">
			<stop  offset="0" style="stop-color:#3B2719"/>
			<stop  offset="0.66" style="stop-color:#511D19"/>
			<stop  offset="0.87" style="stop-color:#591919"/>
		</linearGradient>
		<path class="st109" d="M583.2,215.8c-3.3-2.3-7.3-3.4-11.3-3.2c-1.3,0.1-2.2,1.2-2.1,2.4c0,0,0,0,0,0l0,0c0.1,1.3,1.2,2.2,2.4,2.1
			c0,0,0,0,0,0h1.3c0.2,0,0.4,0,0.6,0.1c0.8,0.1,1.6,0.2,2.3,0.4c0.2,0,0.3,0.1,0.5,0.1l0.3,0.1c0.3,0.1,0.7,0.3,1.1,0.4
			c0.4,0.1,0.7,0.3,1.1,0.5l0.5,0.3l0.2,0.1l0,0l0.1,0.1h-0.1c0.5,0.3,1,0.5,1.6,0.5c1.3-0.1,2.2-1.2,2.1-2.4c0,0,0,0,0,0
			C584,216.8,583.7,216.2,583.2,215.8"/>
	</g>
</g>
<g>
	<defs>
		<rect id="SVGID_182_" x="-36.1" y="-36.1" width="1152.3" height="1152.3"/>
	</defs>
	<clipPath id="SVGID_183_">
		<use xlink:href="#SVGID_182_"  style="overflow:visible;"/>
	</clipPath>
	<g class="st110">
		
			<linearGradient id="SVGID_184_" gradientUnits="userSpaceOnUse" x1="328.9333" y1="1155.2961" x2="534.7604" y2="1268.1639" gradientTransform="matrix(1 0 0 -1 0 1560)">
			<stop  offset="0" style="stop-color:#BF6C06"/>
			<stop  offset="0.2" style="stop-color:#CA7206"/>
			<stop  offset="0.52" style="stop-color:#D57807"/>
			<stop  offset="0.87" style="stop-color:#D97A07"/>
		</linearGradient>
		<path class="st111" d="M533.8,340.7c-1.1-1.9-2-3.9-3.2-5.9c0.6,2.2,1.2,4.5,1.6,6.6c2.3,9.7,4.1,19.5,5.4,29.4
			c-1-0.6-2.2-0.3-4.1,1.6c0,0,0-9.9-6.1-9.3c0,0-7.8-56.5-31-69.2c0,0-25.4-16.1-45.1,4.4c-4.2,1.3-8.3,3-12.2,5
			c-12.6,47.3-18.6,96.2-27.8,144.4c16.6-5.3,32.9-11.4,48.9-18.4c3.6-1.6,7.3-3.2,10.9-4.9c2.7,4.8,5.1,9.2,7.5,13
			c-3.4,2.3-6.8,4.7-10.2,6.9c-22,14.8-44.4,29-67.2,42.6c-1,1.6-2.2,3-3.6,4.3c-5,4.4-11.8,5.1-18.7,4.8c-1.9-0.1-3.8-0.2-5.7-0.4
			l-1.4-0.1l0,0c-9.5-1.1-19.1-2.1-28.2-5.2s-17.6-8.6-22.5-16.9c-2.3-3.7-3.8-7.8-4.6-12.1c-1.5-7.5-1.4-15.4-0.9-23
			c0.6-11.1,1.7-22.2,3.1-33.3c3.3-26.2,9.2-52,17.5-77c4.9-14.7,11-29,18-42.8c7.5-14.7,17-29.6,32-36.4c13-5.9,27.3-4.6,41.5-1.1
			c3.4,0.9,6.8,1.9,10.2,2.9c2.1,0.6,4.4,1.4,6.5,2.1l0,0c1.3-0.2,2.6,0.1,3.7,0.9c1.7,1.1,3,2.9,3.4,4.9c0.7,3.6-0.5,7.3-1.7,10.7
			c-0.9,2.2-1.6,4.6-2.3,6.8c35.8-6.5,70.7,15.2,80.7,50.3h0.1c-4.2-14.3-9.9-28.7-17.5-38l0.5-1.1l0.5,0.2
			c13.9,14.3,25.8,30.5,35.3,48c1.4,2.6,2.7,5,4.1,7.6c-0.8,1.2-1.3,2.6-1.6,3.9c-0.3,2.2,0.6,4.4,2.3,5.8c-2.2,3.9-1.8,8.8,1,12.4
			c-2,3-3.8,5.4-5.3,7.5C543.9,361.6,539.2,351,533.8,340.7"/>
	</g>
</g>
<g>
	<defs>
		<rect id="SVGID_185_" x="-36.1" y="-36.1" width="1152.3" height="1152.3"/>
	</defs>
	<clipPath id="SVGID_186_">
		<use xlink:href="#SVGID_185_"  style="overflow:visible;"/>
	</clipPath>
	<g class="st112">
		<path class="st113" d="M352,408.9c-1.2,18.1-2.5,36.4-3.6,54.5v0.6c-10.7,0.3-21.5-0.6-32-2.7c-1.5-7.5-1.4-15.4-0.9-23
			c0.6-11.1,1.7-22.2,3.1-33.3l1.3,0.1C330.7,404.9,341.5,406.2,352,408.9"/>
	</g>
</g>
<g>
	<defs>
		<rect id="SVGID_187_" x="-36.1" y="-36.1" width="1152.3" height="1152.3"/>
	</defs>
	<clipPath id="SVGID_188_">
		<use xlink:href="#SVGID_187_"  style="overflow:visible;"/>
	</clipPath>
	<g class="st114">
		<path class="st115" d="M427.5,247.8c-9.3,6.4-15.7,16.2-20.7,26.4c-5.1,10.3-8.9,21.3-14.4,31.5s-12.9,19.7-23.3,24.9
			c-10.3,5.1-23.8,5.2-32.5-2.2L336,328c4.9-14.7,11-29,18-42.8c7.5-14.7,17-29.6,32-36.4C399.1,243,413.5,244.3,427.5,247.8"/>
	</g>
</g>
<g>
	<defs>
		<rect id="SVGID_189_" x="-36.1" y="-36.1" width="1152.3" height="1152.3"/>
	</defs>
	<clipPath id="SVGID_190_">
		<use xlink:href="#SVGID_189_"  style="overflow:visible;"/>
	</clipPath>
	<g class="st116">
		<path class="st115" d="M373.2,495.6l-1.4-0.1c-0.5-86.1,22.3-170.7,66-244.9c2.1,0.6,4.4,1.4,6.5,2.1c-0.3,0-0.5,0.1-0.7,0.2
			c0,0-41.2,71.6-53.7,137.7c-6.5,34.7-10.2,70-11.1,105.3C377,496,375.1,495.9,373.2,495.6"/>
	</g>
</g>
<g>
	<defs>
		<rect id="SVGID_191_" x="-36.1" y="-36.1" width="1152.3" height="1152.3"/>
	</defs>
	<clipPath id="SVGID_192_">
		<use xlink:href="#SVGID_191_"  style="overflow:visible;"/>
	</clipPath>
	<g class="st117">
		<path class="st113" d="M350.3,417.5c-10.8-1.5-21.6-2.7-32.4-3.4c-1.4-0.1-1.7,2.1-0.4,2.2c10.9,0.7,21.7,1.8,32.4,3.4
			C351.3,420,351.7,417.7,350.3,417.5"/>
	</g>
</g>
<g>
	<defs>
		<rect id="SVGID_193_" x="-36.1" y="-36.1" width="1152.3" height="1152.3"/>
	</defs>
	<clipPath id="SVGID_194_">
		<use xlink:href="#SVGID_193_"  style="overflow:visible;"/>
	</clipPath>
	<g class="st118">
		<path class="st113" d="M435,253.1c-17.1,27.8-30.9,57.5-41.3,88.4c-10.3,30.9-17.2,62.9-20.5,95.3c-1.8,18.1-2.5,36.3-1.9,54.5
			c0,1.5,2.3,1.3,2.2-0.2c-2.3-83.5,19.8-165.8,63.5-237C437.9,252.8,435.9,251.8,435,253.1"/>
	</g>
</g>
<g>
	<defs>
		<rect id="SVGID_195_" x="-36.1" y="-36.1" width="1152.3" height="1152.3"/>
	</defs>
	<clipPath id="SVGID_196_">
		<use xlink:href="#SVGID_195_"  style="overflow:visible;"/>
	</clipPath>
	<g class="st119">
		<path class="st113" d="M418.1,446.2c0-0.6-0.6-1-1.1-1c0,0-0.1,0-0.1,0c-0.6,0.1-1,0.6-1,1.2c0,0,0,0,0,0
			c0.9,10.2,1.7,20.5,2.7,30.7c0,0.6,0.6,1,1.1,1c0,0,0.1,0,0.1,0c0.6-0.1,1-0.6,1-1.2c0,0,0,0,0,0
			C419.9,466.7,419,456.5,418.1,446.2"/>
	</g>
</g>
<g>
	<defs>
		<rect id="SVGID_197_" x="-36.1" y="-36.1" width="1152.3" height="1152.3"/>
	</defs>
	<clipPath id="SVGID_198_">
		<use xlink:href="#SVGID_197_"  style="overflow:visible;"/>
	</clipPath>
	<g class="st120">
		<path class="st113" d="M446.3,277l-7.5,27c-0.4,1.4,1.9,1.8,2.2,0.4l7.5-27C449,275.9,446.8,275.5,446.3,277"/>
	</g>
</g>
<g>
	<defs>
		<rect id="SVGID_199_" x="-36.1" y="-36.1" width="1152.3" height="1152.3"/>
	</defs>
	<clipPath id="SVGID_200_">
		<use xlink:href="#SVGID_199_"  style="overflow:visible;"/>
	</clipPath>
	<g class="st121">
		<path class="st113" d="M460.8,275.9l-7.9,22.5c-0.5,1.4,1.6,2.3,2.1,1c2.7-7.5,5.2-15,7.9-22.5
			C463.4,275.5,461.4,274.6,460.8,275.9"/>
	</g>
</g>
<g>
	<defs>
		<rect id="SVGID_201_" x="-36.1" y="-36.1" width="1152.3" height="1152.3"/>
	</defs>
	<clipPath id="SVGID_202_">
		<use xlink:href="#SVGID_201_"  style="overflow:visible;"/>
	</clipPath>
	<g class="st122">
		<path class="st113" d="M459.2,446.5c-0.4-0.5-1.1-0.7-1.6-0.3l-6.4,3.4c-0.5,0.4-0.7,1.1-0.3,1.6c0.4,0.5,1.1,0.7,1.6,0.3l6.4-3.4
			c0.5-0.3,0.7-0.9,0.4-1.4C459.3,446.6,459.3,446.6,459.2,446.5"/>
	</g>
</g>
<g>
	<defs>
		<rect id="SVGID_203_" x="-36.1" y="-36.1" width="1152.3" height="1152.3"/>
	</defs>
	<clipPath id="SVGID_204_">
		<use xlink:href="#SVGID_203_"  style="overflow:visible;"/>
	</clipPath>
	<g class="st123">
		<path class="st113" d="M471.7,439.9c-0.2-0.6-0.8-0.9-1.3-0.7c-0.1,0-0.1,0-0.2,0.1l-6.4,3c-0.6,0.3-0.7,1-0.4,1.6
			c0.3,0.4,0.8,0.7,1.3,0.5l6.4-3C471.6,441.1,471.9,440.5,471.7,439.9"/>
	</g>
</g>
<g>
	<defs>
		<rect id="SVGID_205_" x="-36.1" y="-36.1" width="1152.3" height="1152.3"/>
	</defs>
	<clipPath id="SVGID_206_">
		<use xlink:href="#SVGID_205_"  style="overflow:visible;"/>
	</clipPath>
	<g class="st124">
		<path class="st113" d="M465.7,436.4c-0.4-0.5-1.1-0.7-1.6-0.3l-6.4,4.4c-0.5,0.4-0.7,1.1-0.3,1.6c0.4,0.5,1.1,0.7,1.6,0.3l6.4-4.4
			C465.9,437.6,466.1,436.9,465.7,436.4"/>
	</g>
</g>
<g>
	<defs>
		<rect id="SVGID_207_" x="-36.1" y="-36.1" width="1152.3" height="1152.3"/>
	</defs>
	<clipPath id="SVGID_208_">
		<use xlink:href="#SVGID_207_"  style="overflow:visible;"/>
	</clipPath>
	<g class="st125">
		<path class="st113" d="M332.9,357.7c-0.6-0.1-1.2,0.3-1.4,1l-3,9.8c-0.2,0.6,0.2,1.3,0.9,1.4s1.3-0.2,1.4-0.9c0,0,0-0.1,0-0.1
			l3-9.8C334,358.4,333.6,357.8,332.9,357.7"/>
	</g>
</g>
<g>
	<defs>
		<rect id="SVGID_209_" x="-36.1" y="-36.1" width="1152.3" height="1152.3"/>
	</defs>
	<clipPath id="SVGID_210_">
		<use xlink:href="#SVGID_209_"  style="overflow:visible;"/>
	</clipPath>
	<g class="st126">
		<path class="st113" d="M329.8,374.4c-0.6-0.2-1.2,0-1.5,0.5c-1.4,3.5-1.7,7.2-1.1,10.9c0.1,0.6,0.6,1.1,1.3,1.1
			c0.6-0.1,1.1-0.6,1.1-1.3l0,0c-0.6-3.2-0.3-6.5,0.9-9.6C330.6,375.4,330.3,374.8,329.8,374.4"/>
	</g>
</g>
<g>
	<defs>
		<rect id="SVGID_211_" x="-36.1" y="-36.1" width="1152.3" height="1152.3"/>
	</defs>
	<clipPath id="SVGID_212_">
		<use xlink:href="#SVGID_211_"  style="overflow:visible;"/>
	</clipPath>
	<g class="st127">
		<path class="st113" d="M337.6,367.9c-0.6-0.1-1.2,0.3-1.4,1l-1.3,8.1c-0.2,0.6,0.2,1.3,0.9,1.4s1.3-0.2,1.4-0.9c0,0,0-0.1,0-0.1
			l1.3-8.1C338.7,368.6,338.3,368,337.6,367.9"/>
	</g>
</g>
<g>
	<defs>
		<rect id="SVGID_213_" x="-36.1" y="-36.1" width="1152.3" height="1152.3"/>
	</defs>
	<clipPath id="SVGID_214_">
		<use xlink:href="#SVGID_213_"  style="overflow:visible;"/>
	</clipPath>
	<g class="st128">
		<path class="st113" d="M425.7,326.9c-0.6-0.1-1.2,0.3-1.4,1l-3.4,11.1c-0.2,0.6,0.2,1.3,0.9,1.4s1.3-0.2,1.4-0.9c0,0,0-0.1,0-0.1
			l3.4-11.1C426.7,327.7,426.3,327.1,425.7,326.9"/>
	</g>
</g>
<g>
	<defs>
		<rect id="SVGID_215_" x="-36.1" y="-36.1" width="1152.3" height="1152.3"/>
	</defs>
	<clipPath id="SVGID_216_">
		<use xlink:href="#SVGID_215_"  style="overflow:visible;"/>
	</clipPath>
	<g class="st129">
		<path class="st113" d="M419.1,350.1l-2.7,13.2c-0.1,0.7,0.4,1.3,1,1.3c0.6,0.1,1.2-0.3,1.3-0.9l2.7-13.2c0.2-0.6-0.2-1.3-0.9-1.4
			s-1.3,0.2-1.4,0.9C419.1,350,419.1,350,419.1,350.1"/>
	</g>
</g>
<g>
	<defs>
		<rect id="SVGID_217_" x="-36.1" y="-36.1" width="1152.3" height="1152.3"/>
	</defs>
	<clipPath id="SVGID_218_">
		<use xlink:href="#SVGID_217_"  style="overflow:visible;"/>
	</clipPath>
	<g class="st130">
		<path class="st113" d="M415.3,340.3l-2.6,11.1c-0.3,1.5,1.9,1.8,2.2,0.4l2.6-11.1C417.9,339.2,415.6,338.8,415.3,340.3"/>
	</g>
</g>
<g>
	<defs>
		<rect id="SVGID_219_" x="-36.1" y="-36.1" width="1152.3" height="1152.3"/>
	</defs>
	<clipPath id="SVGID_220_">
		<use xlink:href="#SVGID_219_"  style="overflow:visible;"/>
	</clipPath>
	<g class="st131">
		<path class="st1" d="M367.3,958.8c-8.7-0.5-17.3,2.7-23.6,8.7c-0.8,1-0.7,2.4,0.3,3.2c1,0.8,2.4,0.7,3.2-0.3l0,0
			c5.1-5,12.1-7.6,19.2-7.3c1.2,0.2,2.4-0.6,2.7-1.8c0.2-1.2-0.5-2.3-1.6-2.5C367.4,958.8,367.3,958.8,367.3,958.8"/>
	</g>
</g>
<g>
	<defs>
		<rect id="SVGID_221_" x="-36.1" y="-36.1" width="1152.3" height="1152.3"/>
	</defs>
	<clipPath id="SVGID_222_">
		<use xlink:href="#SVGID_221_"  style="overflow:visible;"/>
	</clipPath>
	<g class="st132">
		<path class="st1" d="M372.1,973.7c-7.2-0.6-14.4,1.5-20.2,5.9c-2.3,1.8,0.3,5.5,2.7,3.7c4.8-3.6,10.7-5.4,16.6-5
			c1.2,0.2,2.4-0.6,2.7-1.8C374.1,975.2,373.3,974,372.1,973.7"/>
	</g>
</g>
<g>
	<defs>
		<rect id="SVGID_223_" x="-36.1" y="-36.1" width="1152.3" height="1152.3"/>
	</defs>
	<clipPath id="SVGID_224_">
		<use xlink:href="#SVGID_223_"  style="overflow:visible;"/>
	</clipPath>
	<g class="st133">
		<path class="st1" d="M604.4,964.1c-0.5-1.2-1.8-1.8-3-1.4c-7.7,2.4-14,8-17.1,15.5c-0.5,1.2,0,2.5,1.1,3.1
			c1.1,0.5,2.5,0.1,3.1-1.1c0.3-0.8,0.7-1.7,1.2-2.5c0.2-0.3,0.4-0.7,0.6-1.1l0.1-0.1l0.1-0.1l0.4-0.5c0.5-0.7,1.1-1.4,1.6-2
			c0.3-0.3,0.6-0.7,1-1.1l0.4-0.4l0.2-0.2l0,0c1.3-1.2,2.7-2.2,4.3-3.1l0.3-0.2l0.4-0.2c0.4-0.2,0.7-0.3,1.2-0.5
			c0.9-0.3,1.7-0.6,2.7-1C604.2,966.6,604.8,965.3,604.4,964.1"/>
	</g>
</g>
<g>
	<defs>
		<rect id="SVGID_225_" x="-36.1" y="-36.1" width="1152.3" height="1152.3"/>
	</defs>
	<clipPath id="SVGID_226_">
		<use xlink:href="#SVGID_225_"  style="overflow:visible;"/>
	</clipPath>
	<g class="st134">
		<path class="st1" d="M614.7,971.3c-0.5-1.2-1.8-1.8-3-1.4c-5.1,2.4-9.5,6.2-12.6,10.9c-0.3,0.5-0.5,1.1-0.5,1.7
			c0.1,1.3,1.2,2.2,2.4,2.1c0,0,0,0,0,0c0.6,0,1.2-0.3,1.6-0.9c0.7-1,1.4-2,2.2-3c0.4-0.5,0.8-0.9,1.3-1.4l0.6-0.6
			c0,0,0.5-0.4,0.1-0.1l0.3-0.3c0.9-0.8,1.9-1.6,3-2.3l1.6-1l0.4-0.2l0.3-0.1l0.2-0.1c0.2-0.1,0.3-0.2,0.5-0.2
			C614.5,973.9,615.1,972.6,614.7,971.3"/>
	</g>
</g>
<g>
	<defs>
		<rect id="SVGID_227_" x="-36.1" y="-36.1" width="1152.3" height="1152.3"/>
	</defs>
	<clipPath id="SVGID_228_">
		<use xlink:href="#SVGID_227_"  style="overflow:visible;"/>
	</clipPath>
	<g class="st135">
		<path class="st1" d="M418.8,1021.8l-51.2,0.5c-0.5,0-0.9,0.2-1.3,0.5l-58-46.9c-1-0.8-2.4-0.7-3.3,0.3s-0.7,2.4,0.3,3.3l59.5,48.1
			c0.9,0.8,2.3,0.6,3.1-0.3c0,0,0,0,0,0c0.1-0.1,0.1-0.2,0.2-0.3l51.1-0.5C422.2,1026.5,421.8,1021.8,418.8,1021.8"/>
	</g>
</g>
<g>
	<defs>
		<rect id="SVGID_229_" x="-36.1" y="-36.1" width="1152.3" height="1152.3"/>
	</defs>
	<clipPath id="SVGID_230_">
		<use xlink:href="#SVGID_229_"  style="overflow:visible;"/>
	</clipPath>
	<g class="st136">
		<path class="st1" d="M667.6,1001.3L554,991.5c-2.9-0.2-3.7,4.3-0.9,4.6l113.6,9.8C669.7,1006,670.6,1001.5,667.6,1001.3"/>
	</g>
</g>
</svg>
