<svg xmlns="http://www.w3.org/2000/svg" xmlns:xlink="http://www.w3.org/1999/xlink" viewBox="0 0 1080 1080"><defs><linearGradient id="a" x1="545.96" y1="728.18" x2="1084.9" y2="714.88" gradientUnits="userSpaceOnUse"><stop offset="0" stop-color="#a7d7db"/><stop offset="0.65" stop-color="#84abaf"/><stop offset="0.99" stop-color="#76989c"/></linearGradient><linearGradient id="b" x1="702.3" y1="704.38" x2="1000.36" y2="697.03" gradientUnits="userSpaceOnUse"><stop offset="0" stop-color="#faa96a"/><stop offset="0.29" stop-color="#f39c49"/><stop offset="0.76" stop-color="#e9881a"/><stop offset="0.99" stop-color="#e58107"/></linearGradient><linearGradient id="c" x1="697.63" y1="702.54" x2="995.35" y2="702.54" gradientUnits="userSpaceOnUse"><stop offset="0" stop-color="#591919"/><stop offset="0.44" stop-color="#675759"/><stop offset="0.81" stop-color="#728689"/><stop offset="0.99" stop-color="#76989c"/></linearGradient><linearGradient id="d" x1="845.38" y1="390.52" x2="905.79" y2="390.52" gradientUnits="userSpaceOnUse"><stop offset="0" stop-color="#fff"/><stop offset="0.61" stop-color="#dadce6"/><stop offset="0.99" stop-color="#c7cbd9"/></linearGradient><linearGradient id="e" x1="857.21" y1="369.91" x2="892.95" y2="369.91" xlink:href="#a"/><linearGradient id="f" x1="797.14" y1="401.74" x2="839.17" y2="401.74" xlink:href="#d"/><linearGradient id="g" x1="805.75" y1="386.68" x2="831.13" y2="386.68" xlink:href="#a"/><linearGradient id="h" x1="872.94" y1="427.82" x2="931.74" y2="427.82" xlink:href="#d"/><linearGradient id="i" x1="897.21" y1="420.67" x2="922.53" y2="420.67" xlink:href="#a"/><clipPath id="j"><rect x="112.07" y="-2" width="768.2" height="1080" fill="none"/></clipPath><linearGradient id="k" x1="435.12" y1="657.59" x2="746.58" y2="657.59" xlink:href="#a"/><linearGradient id="l" x1="433.11" y1="657.59" x2="748.57" y2="657.59" xlink:href="#a"/><linearGradient id="m" x1="297.02" y1="260.62" x2="520.11" y2="260.62" gradientUnits="userSpaceOnUse"><stop offset="0" stop-color="#ba7d4e"/><stop offset="0.65" stop-color="#8d5e3b"/><stop offset="0.99" stop-color="#7a5233"/></linearGradient><linearGradient id="n" x1="343.5" y1="110.82" x2="371.48" y2="139.65" xlink:href="#m"/><linearGradient id="o" x1="380.98" y1="395.32" x2="519.51" y2="395.32" gradientUnits="userSpaceOnUse"><stop offset="0" stop-color="#e54040"/><stop offset="0.47" stop-color="#9c2c2c"/><stop offset="0.82" stop-color="#6c1e1e"/><stop offset="0.99" stop-color="#591919"/></linearGradient><linearGradient id="p" x1="339.77" y1="52.13" x2="355.37" y2="52.13" xlink:href="#m"/><linearGradient id="q" x1="354.73" y1="46.36" x2="372.96" y2="46.36" xlink:href="#m"/><linearGradient id="r" x1="406.77" y1="528.72" x2="558.03" y2="528.72" xlink:href="#a"/><linearGradient id="s" x1="464.63" y1="1098.2" x2="497.9" y2="835.79" gradientUnits="userSpaceOnUse"><stop offset="0" stop-color="#3a3e8c" stop-opacity="0"/><stop offset="0.07" stop-color="#3a3e8c" stop-opacity="0.26"/><stop offset="0.16" stop-color="#3a3e8c" stop-opacity="0.58"/><stop offset="0.24" stop-color="#3a3e8c" stop-opacity="0.81"/><stop offset="0.31" stop-color="#3a3e8c" stop-opacity="0.95"/><stop offset="0.36" stop-color="#3a3e8c"/><stop offset="0.77" stop-color="#272a60"/><stop offset="0.99" stop-color="#1f224d"/></linearGradient><linearGradient id="t" x1="347.8" y1="819.55" x2="596.92" y2="819.55" gradientUnits="userSpaceOnUse"><stop offset="0.36" stop-color="#3a3e8c"/><stop offset="0.53" stop-color="#383c88"/><stop offset="0.68" stop-color="#34377d"/><stop offset="0.83" stop-color="#2b2f6a"/><stop offset="0.98" stop-color="#202350"/><stop offset="0.99" stop-color="#1f224d"/></linearGradient><linearGradient id="u" x1="540.16" y1="962.54" x2="597.81" y2="900.13" gradientUnits="userSpaceOnUse"><stop offset="0.12" stop-color="#3a3e8c"/><stop offset="0.19" stop-color="#34387e"/><stop offset="0.35" stop-color="#2b2e69"/><stop offset="0.52" stop-color="#242759"/><stop offset="0.71" stop-color="#202350"/><stop offset="0.99" stop-color="#1f224d"/></linearGradient><linearGradient id="v" x1="414" y1="983" x2="471.16" y2="983" xlink:href="#u"/><linearGradient id="w" x1="322.64" y1="598.35" x2="757.61" y2="598.35" xlink:href="#o"/><linearGradient id="x" x1="589.17" y1="643.14" x2="729.63" y2="531.76" xlink:href="#a"/><linearGradient id="y" x1="600.23" y1="365.56" x2="680.32" y2="365.56" xlink:href="#m"/><linearGradient id="z" x1="590.06" y1="232.3" x2="742.54" y2="232.3" xlink:href="#m"/><linearGradient id="aa" x1="580.48" y1="196.09" x2="760.34" y2="196.09" gradientUnits="userSpaceOnUse"><stop offset="0.12" stop-color="#4d433c"/><stop offset="0.72" stop-color="#27221e"/></linearGradient><linearGradient id="ab" x1="612.29" y1="248.84" x2="637.21" y2="248.84" xlink:href="#aa"/><linearGradient id="ac" x1="621.27" y1="288.26" x2="656.47" y2="288.26" xlink:href="#aa"/><linearGradient id="ad" x1="663.64" y1="221.67" x2="682.77" y2="221.67" xlink:href="#aa"/><linearGradient id="ae" x1="611.28" y1="198.36" x2="632.01" y2="198.36" xlink:href="#aa"/><linearGradient id="af" x1="452.37" y1="67.8" x2="528.17" y2="67.8" xlink:href="#m"/><linearGradient id="ag" x1="466.52" y1="94.46" x2="517.83" y2="28.32" xlink:href="#m"/><linearGradient id="ah" x1="480.36" y1="104.86" x2="515.43" y2="46.01" xlink:href="#m"/><linearGradient id="ai" x1="426.74" y1="300.82" x2="756.96" y2="300.82" xlink:href="#m"/><linearGradient id="aj" x1="509.26" y1="220.18" x2="557.88" y2="220.18" gradientUnits="userSpaceOnUse"><stop offset="0" stop-color="#3a3e8c"/><stop offset="0.65" stop-color="#272a60"/><stop offset="0.99" stop-color="#1f224d"/></linearGradient><linearGradient id="ak" x1="623.09" y1="432.59" x2="755.46" y2="432.59" xlink:href="#o"/><linearGradient id="al" x1="370.22" y1="66.45" x2="461.5" y2="64.2" xlink:href="#a"/><linearGradient id="am" x1="371.88" y1="40.11" x2="389.79" y2="40.11" xlink:href="#m"/><linearGradient id="an" x1="387" y1="37.1" x2="405.26" y2="37.1" gradientTransform="translate(-0.79 9.78) rotate(-1.41)" xlink:href="#m"/><linearGradient id="ao" x1="468.44" y1="130.79" x2="525.48" y2="98.38" gradientUnits="userSpaceOnUse"><stop offset="0" stop-color="#ba7d4e"/><stop offset="0.6" stop-color="#91613d"/><stop offset="0.99" stop-color="#7a5233"/></linearGradient><linearGradient id="ap" x1="442.36" y1="619.63" x2="529.29" y2="653.33" gradientUnits="userSpaceOnUse"><stop offset="0" stop-color="#e54040"/><stop offset="0.16" stop-color="#d53c3c"/><stop offset="0.46" stop-color="#ad3030"/><stop offset="0.88" stop-color="#6c1e1e"/><stop offset="0.99" stop-color="#591919"/></linearGradient><linearGradient id="aq" x1="538.92" y1="401.23" x2="615.47" y2="401.23" xlink:href="#ap"/><linearGradient id="ar" x1="550.19" y1="457.23" x2="560" y2="457.23" xlink:href="#ap"/><linearGradient id="as" x1="561.58" y1="430.24" x2="571.08" y2="430.24" xlink:href="#ap"/><linearGradient id="at" x1="105.41" y1="449.29" x2="285.83" y2="449.29" xlink:href="#o"/><linearGradient id="au" x1="726.97" y1="660.31" x2="883.81" y2="660.31" xlink:href="#aj"/><linearGradient id="av" x1="687.73" y1="862.54" x2="1014.18" y2="862.54" gradientUnits="userSpaceOnUse"><stop offset="0" stop-color="#6393f2"/><stop offset="0.31" stop-color="#557dce"/><stop offset="0.77" stop-color="#41609f"/><stop offset="0.99" stop-color="#3a558c"/></linearGradient><linearGradient id="aw" x1="685.73" y1="862.54" x2="1016.18" y2="862.54" gradientUnits="userSpaceOnUse"><stop offset="0" stop-color="#6393f2"/><stop offset="0.2" stop-color="#6794de"/><stop offset="0.73" stop-color="#7297af"/><stop offset="0.99" stop-color="#76989c"/></linearGradient><linearGradient id="ax" x1="919.66" y1="893.24" x2="1014.18" y2="893.24" xlink:href="#o"/><linearGradient id="ay" x1="687.73" y1="860.48" x2="829.27" y2="860.48" xlink:href="#o"/><linearGradient id="az" x1="9.79" y1="768.16" x2="295.66" y2="768.16" xlink:href="#aj"/><linearGradient id="ba" x1="36.14" y1="811.92" x2="125.24" y2="811.92" gradientUnits="userSpaceOnUse"><stop offset="0" stop-color="#3a3e8c"/><stop offset="0.23" stop-color="#33367b"/><stop offset="0.72" stop-color="#24285a"/><stop offset="0.99" stop-color="#1f224d"/></linearGradient><linearGradient id="bb" x1="51.65" y1="795.78" x2="94.78" y2="795.78" xlink:href="#ba"/><linearGradient id="bc" x1="59.13" y1="795.78" x2="87.31" y2="795.78" xlink:href="#ba"/><linearGradient id="bd" x1="55.51" y1="780.8" x2="77.05" y2="780.8" xlink:href="#ba"/><linearGradient id="be" x1="181.75" y1="723.46" x2="270.85" y2="723.46" gradientUnits="userSpaceOnUse"><stop offset="0" stop-color="#3a3e8c"/><stop offset="0.25" stop-color="#383c88"/><stop offset="0.5" stop-color="#33377c"/><stop offset="0.76" stop-color="#2a2e67"/><stop offset="0.99" stop-color="#1f224d"/></linearGradient><linearGradient id="bf" x1="197.26" y1="707.32" x2="240.39" y2="707.32" xlink:href="#be"/><linearGradient id="bg" x1="204.73" y1="707.32" x2="232.91" y2="707.32" xlink:href="#be"/><linearGradient id="bh" x1="201.11" y1="692.35" x2="222.66" y2="692.35" xlink:href="#be"/><linearGradient id="bi" x1="966.92" y1="625.25" x2="1080" y2="625.25" xlink:href="#d"/><linearGradient id="bj" x1="964.94" y1="625.25" x2="1081.98" y2="625.25" xlink:href="#d"/><linearGradient id="bk" x1="977.19" y1="625.25" x2="1069.73" y2="625.25" gradientTransform="translate(1413.47 -508.9) rotate(77.56)" xlink:href="#o"/><linearGradient id="bl" x1="997.08" y1="625.25" x2="1049.84" y2="625.25" gradientTransform="translate(1324.16 -535.78) rotate(73.1)" xlink:href="#d"/></defs><title>onboarding2</title><g style="isolation:isolate"><path d="M815.43,1030a238.54,238.54,0,0,1-97.83-21.17C650.78,979,598,921.21,569.05,846.12a347.2,347.2,0,0,1-4.6-236.59c1.72-5.06,3.51-9.92,5.46-14.86,19.58-49.74,50.42-92.72,89.18-124.29A260.66,260.66,0,0,1,722.85,432a243.66,243.66,0,0,1,23.09-8.36,235.06,235.06,0,0,1,115.71-5.94,245.16,245.16,0,0,1,51.75,16.59,264.58,264.58,0,0,1,83,58.75,301.81,301.81,0,0,1,46.74,63.67c27.81,50.44,42.25,108.46,41.76,167.81a347.83,347.83,0,0,1-18.43,109c-2.8,8.25-6,16.44-9.34,24.34-20.83,48.54-52.63,90.06-92,120.08C920.61,1012,868.82,1030,815.43,1030Z" fill="url(#a)"/><path d="M815.54,414.08a234.35,234.35,0,0,1,45.92,4.56A244,244,0,0,1,913,435.16a264.27,264.27,0,0,1,82.73,58.53,300.82,300.82,0,0,1,46.58,63.47c27.35,49.59,42.13,107.69,41.64,167.31a346.52,346.52,0,0,1-18.38,108.7q-4.23,12.47-9.31,24.27c-21.4,49.86-53.42,90.5-91.64,119.68C920.8,1010.57,868.85,1029,815.43,1029A238.1,238.1,0,0,1,718,1007.89c-68.88-30.73-120.36-90.41-148-162.13a347.62,347.62,0,0,1-4.59-235.91c1.72-5,3.53-9.94,5.45-14.81,20.16-51.22,51.27-93.25,88.89-123.88a259.41,259.41,0,0,1,63.51-38.28,242.89,242.89,0,0,1,23-8.33,235.86,235.86,0,0,1,69.31-10.47m0-2v0a238.21,238.21,0,0,0-69.9,10.56,245.62,245.62,0,0,0-23.18,8.4,261.82,261.82,0,0,0-64,38.57C619.56,501.28,588.62,544.4,569,594.3c-2,5-3.75,9.84-5.48,14.9a349.57,349.57,0,0,0,4.62,237.28c14.13,36.63,34,69.28,58.94,97,25.88,28.78,56.21,51.05,90.14,66.18a237.4,237.4,0,0,0,177.08,7.77,258.15,258.15,0,0,0,71.54-38.77c39.47-30.13,71.37-71.79,92.27-120.48,3.4-7.93,6.55-16.14,9.37-24.42a349,349,0,0,0,18.48-109.33c.49-59.51-14-117.71-41.89-168.29a302.89,302.89,0,0,0-46.89-63.89,265.56,265.56,0,0,0-83.36-59,246.3,246.3,0,0,0-51.95-16.66,236.82,236.82,0,0,0-46.31-4.6Z" fill="#465a5c"/><path d="M973.37,837.21c-6.4,7-15.94,8.43-24.8,9.44S930.21,849,923.77,856c-7.39,8-9,21.78-17.56,28.14-8.75,6.58-21.4,2.62-29.89,9.62-7.16,5.9-9,17.65-15.79,24-12.7,11.84-34.23-1.32-47.21,10.19-3.66,3.25-6.17,8.24-10.38,10.6-4.64,2.65-10.22,1.36-15.17-.36s-10.08-4-15.2-3.1c-6.49,1.1-12.71,9.49-6.66,16.64a7.74,7.74,0,0,1,1.16,8c-2.24,4.89-7.5,1.16-11.48,2.25-4.26,1.2-5.7,7.28-5.72,12.27,0,5.54.42,11.89-3.8,15.29-3.59,2.88-8.46,1.68-11.5-1.94-4.62-5.52-4.52-13.49-3.49-20.67,5.65-39,32.68-68.29,54-99.26,8.24-12,16.07-28.36,9.51-41.63-3.1-6.28-8.8-10.24-13-15.6-8.72-11.09-10.29-27.07-11.46-41.93C768,741,766.69,710,782.51,689.15A59.9,59.9,0,0,1,802,672.94c4.64-2.48,4.26-10.37-.69-11.85l-.11,0c-6.59-1.94-13.63-.91-20.24-2.73s-13.27-8.23-12.25-15.91c.82-6,6.09-11.35,4.37-17.08-2.92-9.82-19.91-3.41-22.77-13.23-1.41-4.87,2.23-9.73,2.67-14.81.79-9.57-9.23-15.25-17.54-16.65s-18.3-2.59-22.08-11.17c-2.65-6-1-13.26,1.32-19.44s5.15-12.49,4.81-19.19-5.7-13.58-11.34-11.79c-2.73.85-5.2,3.54-8.13,1.27a7.06,7.06,0,0,1-2.28-6.4c3.67-29.35,16.48-57.07,35.55-77.1,3.37-3.53,7.69-7.8,12.61-12.46C799.15,408,857.29,410.28,912.6,435a264.28,264.28,0,0,1,82.75,58.56c-4.73,2.65-9.38,5.26-11.8,10.42-2.86,6.1-1.73,14.46-9.91,17.09a15,15,0,0,1-13.56-2.78c-6.85-5.2-18.93-13.21-25.8-5.59-2.11,2.33-3.13,5.67-5.13,8.08-6.85,8.33-19.51,1.53-26.86-5a28.78,28.78,0,0,0-10.41-6.09c-15.45-4.86-16.38,9.08-23.58,14.93-7.76,6.32-20.68,1.93-26.29,10.73-2.92,4.59-2.38,10.87-3,16.51s-4.24,12.07-9.13,11.16c-4.22-.78-6.22-6.5-6.36-11.39s.68-10-1.15-14.48c-2.49-6-8.92-8.29-14.7-8.46s-11.65,1.15-17.28-.37c-10-2.68-18.34-14-30.22-1.32a34.8,34.8,0,0,0-5.28,7.74c-4.38,8.35-11,18.57-5.35,28.78A16.29,16.29,0,0,0,760,571.39c7.77,1.85,15-1,21.94-4.68,2.8-1.51,6.17.79,6.17,4.34,0,9.66-6.45,19.46-15,20.81l.24.14c9.4,5.66,15.92,16.19,17.23,28.26,0,.3.08.6.13.9,1,5.92,4.42,10.87,7.88,15.38,1.61,2.09,3.27,4.11,4.93,6.13,6.35,7.52,16,9.15,24.5,5.21a15.41,15.41,0,0,1,1.63-.61c7.23-2.5,15.6.24,20.6,6.68,6.17,7.89,8.32,21.19,17.26,23.77,5.4,1.55,11.34-1.76,16.58.44,8.87,3.75,8.07,18.66,13.84,27.24,6.77,10.09,21.56,9.8,27.52,20.53,6.61,11.88-2.12,29,4,41.2,5.22,10.39,18.81,12.12,23.86,22.65,3,6.15,2.73,14.9,8,18.57s13-.35,16,10.84C979,825.53,977.54,832.62,973.37,837.21Z" fill="url(#b)"/><path d="M815.17,414.9a236.59,236.59,0,0,1,97,21,262.32,262.32,0,0,1,81.53,57.41c-4.38,2.47-8.73,5.2-11.09,10.23a32.42,32.42,0,0,0-1.91,6c-1.17,4.76-2.18,8.86-7.39,10.53a12.28,12.28,0,0,1-3.71.57,14.83,14.83,0,0,1-9-3.19c-5-3.83-12.53-8.93-19.22-8.93a10.24,10.24,0,0,0-7.92,3.47,21.47,21.47,0,0,0-2.87,4.44,22.52,22.52,0,0,1-2.29,3.68,9.35,9.35,0,0,1-7.54,3.49c-6,0-13.2-4.44-17.88-8.59a29.89,29.89,0,0,0-10.78-6.3,20.65,20.65,0,0,0-6.13-1.05c-7,0-10.18,4.9-13.22,9.64a26.73,26.73,0,0,1-5.16,6.52c-3.25,2.65-7.63,3.33-11.87,4-5.55.85-11.28,1.74-14.64,7-2.3,3.62-2.57,8.15-2.84,12.53-.08,1.46-.17,3-.34,4.39-.61,5-3.54,10.36-7.2,10.36A3.81,3.81,0,0,1,830,562c-3.62-.67-5.41-5.87-5.54-10.44,0-1.32,0-2.71,0-4.05.08-3.62.16-7.37-1.24-10.77-2.27-5.46-8.1-8.86-15.59-9.08h-1.12c-1.66,0-3.34.1-5,.19s-3.23.19-4.81.19a23.24,23.24,0,0,1-6.15-.7,38.68,38.68,0,0,1-7.56-3.31c-3.7-1.94-7.53-3.95-11.67-3.95s-8.07,2-12,6.22a35.62,35.62,0,0,0-5.44,7.95c-.4.76-.81,1.54-1.24,2.32-4.22,7.87-9.49,17.66-4.09,27.41a17.18,17.18,0,0,0,11.09,8.36,22.76,22.76,0,0,0,5.21.61c6.5,0,12.46-2.72,17.44-5.38a2.75,2.75,0,0,1,1.35-.35,3.12,3.12,0,0,1,2.21,1,4,4,0,0,1,1.13,2.84c0,9.71-6.39,18.6-14.16,19.83l-2.73.43,2.38,1.41.13.09.1.06c9.22,5.55,15.49,15.84,16.76,27.51,0,.32.08.64.13,1,1.05,6.25,4.72,11.45,8.08,15.82,1.63,2.13,3.32,4.18,5,6.17A20.85,20.85,0,0,0,818.84,651a22.52,22.52,0,0,0,9.56-2.17,15.34,15.34,0,0,1,1.54-.58,15.8,15.8,0,0,1,5.17-.86,18.37,18.37,0,0,1,14.31,7.21,53.48,53.48,0,0,1,5.44,9.59c3,6.27,6.15,12.74,12.33,14.53a13.27,13.27,0,0,0,3.64.47,35.25,35.25,0,0,0,4.6-.4,34.38,34.38,0,0,1,4.3-.37,9.86,9.86,0,0,1,3.93.7c4.93,2.08,6.67,8.14,8.51,14.55,1.24,4.33,2.53,8.81,4.89,12.33,3.42,5.1,8.76,7.64,13.91,10.1,5.47,2.62,10.64,5.08,13.56,10.35,3.21,5.77,2.64,12.8,2,20.25-.58,7.21-1.18,14.66,2,20.92,2.71,5.39,7.55,8.54,12.23,11.58s9.2,6,11.63,11.05a39.37,39.37,0,0,1,2.31,7.15c1.15,4.55,2.35,9.26,6,11.81a15,15,0,0,0,6.23,2.11c4,.72,7.54,1.34,9.38,8.17,1.63,6.1.17,12.8-3.72,17.09-6,6.56-14.84,8.05-24.17,9.12-7.79.89-18.46,2.12-25.43,9.68-3.43,3.72-5.66,8.62-7.81,13.36-2.64,5.82-5.13,11.31-9.62,14.67-4.07,3.06-9,3.72-14.24,4.41-5.47.73-11.12,1.48-15.68,5.23-3.86,3.19-6.22,8-8.5,12.63-2,4.16-4.17,8.47-7.33,11.42-4.85,4.51-11.17,5.12-16.72,5.12-2,0-4.17-.09-6.22-.18s-4.24-.18-6.33-.18c-5.85,0-12.54.64-17.92,5.41a39.17,39.17,0,0,0-4.15,4.58c-1.91,2.35-3.71,4.57-6.07,5.9a11,11,0,0,1-5.6,1.38,27.32,27.32,0,0,1-8.73-1.82c-.56-.19-1.11-.4-1.67-.6-3.71-1.35-7.54-2.75-11.46-2.75a15.58,15.58,0,0,0-2.58.21,12.69,12.69,0,0,0-9.32,7.88,10.2,10.2,0,0,0,2.07,10.4,6.71,6.71,0,0,1,1,6.93,3.11,3.11,0,0,1-3.23,2,17.55,17.55,0,0,1-2.58-.27,21.74,21.74,0,0,0-3-.29,7.78,7.78,0,0,0-2,.24c-4.73,1.34-6.43,7.71-6.45,13.23v1.65c0,5,0,10.11-3.43,12.87a6.13,6.13,0,0,1-3.88,1.39,8.42,8.42,0,0,1-6.22-3.19c-4.68-5.6-4.11-14-3.27-19.89,4.51-31.12,23-56.38,40.93-80.82,4.31-5.88,8.77-12,12.93-18,11.66-17,15-31.74,9.59-42.65-2-4.09-5.12-7.24-8.1-10.28a65.09,65.09,0,0,1-5-5.48c-8.21-10.46-9.95-24.94-11.25-41.4-2.27-28.71-3.2-58.43,12.14-78.71a58.49,58.49,0,0,1,19.13-15.92,7.65,7.65,0,0,0,3.75-7.63,6.77,6.77,0,0,0-4.6-6.06.68.68,0,0,0-.22,0,47.21,47.21,0,0,0-10.48-1.44,47.83,47.83,0,0,1-9.69-1.27c-6.4-1.76-12.46-7.78-11.53-14.82a25.28,25.28,0,0,1,2.3-6.67c1.57-3.45,3.18-7,2-10.82-1.64-5.51-7.24-6.47-12.19-7.32-4.79-.82-9.32-1.6-10.57-5.91-.77-2.65.16-5.4,1.15-8.3a26.28,26.28,0,0,0,1.54-6.15c.82-9.91-8.94-16.13-18.36-17.72L734,579.4c-7.7-1.29-16.42-2.76-19.76-10.32-2.07-4.68-1.64-10.62,1.34-18.69.34-.93.7-1.86,1-2.79,2-5.35,4.13-10.89,3.83-16.79-.31-6.16-4.7-13-10.5-13a7,7,0,0,0-2.13.34,14.69,14.69,0,0,0-2.36,1,7.45,7.45,0,0,1-3.07,1.07,2.83,2.83,0,0,1-1.8-.69,6.05,6.05,0,0,1-1.9-5.48c3.67-29.3,16.2-56.48,35.28-76.53,3.41-3.57,7.7-7.81,12.41-12.27a235.11,235.11,0,0,1,68.79-10.36m0-1a235.86,235.86,0,0,0-69.31,10.48c-4.92,4.66-9.24,8.93-12.61,12.46-19.07,20-31.88,47.75-35.55,77.1a7.06,7.06,0,0,0,2.28,6.4,3.86,3.86,0,0,0,2.41.89c2,0,3.77-1.55,5.72-2.16a6.25,6.25,0,0,1,1.84-.29c4.91,0,9.2,6.11,9.5,12.08.34,6.7-2.55,13-4.81,19.19s-4,13.43-1.32,19.44c3.78,8.58,13.78,9.73,22.08,11.17s18.33,7.08,17.54,16.65c-.44,5.08-4.08,9.94-2.67,14.81,2.86,9.82,19.85,3.41,22.77,13.23,1.72,5.73-3.55,11.07-4.37,17.08-1,7.68,5.65,14.1,12.25,15.91s13.65.79,20.24,2.73l.11,0c5,1.48,5.33,9.37.69,11.85a59.9,59.9,0,0,0-19.45,16.21C766.69,710,768,741,770.17,768.54c1.17,14.86,2.74,30.84,11.46,41.93,4.19,5.36,9.89,9.32,13,15.6,6.56,13.27-1.27,29.63-9.51,41.63-21.35,31-48.38,60.31-54,99.26-1,7.18-1.13,15.15,3.49,20.67a9.37,9.37,0,0,0,7,3.55,7.15,7.15,0,0,0,4.51-1.61c4.22-3.4,3.76-9.75,3.8-15.29,0-5,1.46-11.07,5.72-12.27a6.61,6.61,0,0,1,1.73-.21c1.86,0,3.85.56,5.61.56a4.09,4.09,0,0,0,4.14-2.6,7.74,7.74,0,0,0-1.16-8c-6-7.15.17-15.54,6.66-16.64a14,14,0,0,1,2.41-.2c4.31,0,8.6,1.8,12.79,3.3a28.4,28.4,0,0,0,9.07,1.87,12.08,12.08,0,0,0,6.1-1.51c4.21-2.36,6.72-7.35,10.38-10.6,4.86-4.31,10.92-5.16,17.26-5.16,4.15,0,8.42.36,12.55.36,6.44,0,12.56-.88,17.4-5.39,6.83-6.36,8.63-18.11,15.79-24,8.49-7,21.14-3,29.89-9.62,8.51-6.36,10.17-20.14,17.56-28.14,6.44-7,16-8.35,24.8-9.37s18.4-2.4,24.8-9.44c4.17-4.59,5.64-11.68,3.94-18-3-11.19-10.77-7.2-16-10.84s-5-12.42-8-18.57c-5-10.53-18.64-12.26-23.86-22.65-6.15-12.19,2.58-29.32-4-41.2-6-10.73-20.75-10.44-27.52-20.53-5.77-8.58-5-23.49-13.84-27.24a10.91,10.91,0,0,0-4.32-.78c-2.92,0-6,.77-8.9.77a12.3,12.3,0,0,1-3.36-.43c-8.94-2.58-11.09-15.88-17.26-23.77a19.33,19.33,0,0,0-15.1-7.6,16.8,16.8,0,0,0-5.5.92,15.41,15.41,0,0,0-1.63.61,21.63,21.63,0,0,1-9.14,2.08,19.87,19.87,0,0,1-15.36-7.29c-1.66-2-3.32-4-4.93-6.13-3.46-4.51-6.89-9.46-7.88-15.38,0-.3-.09-.6-.13-.9-1.31-12.07-7.83-22.6-17.23-28.26l-.24-.14c8.55-1.35,15-11.15,15-20.81a4.59,4.59,0,0,0-4.34-4.81,3.75,3.75,0,0,0-1.83.47c-5.42,2.89-11,5.26-17,5.26a21.41,21.41,0,0,1-5-.58,16.29,16.29,0,0,1-10.45-7.87c-5.64-10.21,1-20.43,5.35-28.78a34.8,34.8,0,0,1,5.28-7.74c4.1-4.38,7.78-5.9,11.26-5.9,6.6,0,12.45,5.47,19,7.22a24.45,24.45,0,0,0,6.42.74c3.24,0,6.51-.38,9.77-.38h1.09c5.78.17,12.21,2.49,14.7,8.46,1.83,4.44,1,9.61,1.15,14.48s2.14,10.61,6.36,11.39a4.87,4.87,0,0,0,.93.08c4.41,0,7.55-6,8.2-11.24.65-5.64.11-11.92,3-16.51,5.61-8.8,18.53-4.41,26.29-10.73,6.16-5,7.73-15.94,17.75-15.94a19.51,19.51,0,0,1,5.83,1,28.78,28.78,0,0,1,10.41,6.09c4.92,4.35,12.21,8.84,18.55,8.84a10.28,10.28,0,0,0,8.31-3.86c2-2.41,3-5.75,5.13-8.08a9.26,9.26,0,0,1,7.18-3.14c6.37,0,13.79,5.07,18.62,8.73a15.93,15.93,0,0,0,9.55,3.39,13.51,13.51,0,0,0,4-.61c8.18-2.63,7.05-11,9.91-17.09,2.42-5.16,7.07-7.77,11.8-10.42A264.28,264.28,0,0,0,912.6,435a238.11,238.11,0,0,0-97.43-21.08Z" fill="url(#c)"/><path d="M685.65,763c-6.4,7-15.94,8.44-24.8,9.45s-18.35,2.37-24.81,9.36c-7.38,8-9,21.79-17.55,28.15-8.75,6.58-21.39,2.61-29.89,9.62-7.16,5.91-9,17.65-15.79,24a16.27,16.27,0,0,1-2.84,2.14,347.68,347.68,0,0,1-4.57-235.93c1.71-5,3.52-9.94,5.44-14.8,2.25,4,4.89,7.35,8.9,8.51,5.41,1.56,11.36-1.76,16.61.44,8.86,3.76,8.06,18.67,13.83,27.25,6.77,10.09,21.57,9.79,27.5,20.52,6.62,11.87-2.1,29,4,41.2,5.22,10.39,18.81,12.14,23.88,22.65,2.94,6.16,2.71,14.91,8,18.58s13-.36,16,10.83C691.3,751.36,689.84,758.45,685.65,763Z" fill="none" stroke="#ffbe00" stroke-miterlimit="10" stroke-width="2"/><path d="M854.25,447.38a3.64,3.64,0,0,1-3.48-3.41c-2.54-21.21-8-72.09-3.93-86.49,4-14.24,15.57-23.81,28.69-23.81a26.84,26.84,0,0,1,9.37,1.7c15.83,5.88,24.54,25.35,19.42,43.39-4.08,14.41-34.61,51.92-47.54,67.37A3.26,3.26,0,0,1,854.25,447.38Z" fill="url(#d)"/><path d="M875.53,334.17a26.41,26.41,0,0,1,9.2,1.67c15.61,5.8,24.16,25,19.11,42.78-4.11,14.52-35.81,53.29-47.45,67.19a2.78,2.78,0,0,1-2.15,1.07,3.15,3.15,0,0,1-3-3c-2.28-19.09-8-71.78-3.94-86.3,4.07-14.33,15.69-23.44,28.21-23.44m0-1h0c-13.35,0-25.07,9.71-29.17,24.17s1.37,65.45,3.91,86.69a4.13,4.13,0,0,0,4,3.85,3.8,3.8,0,0,0,2.92-1.42c13-15.49,43.53-53.06,47.64-67.56,5.19-18.29-3.66-38-19.72-44a27.19,27.19,0,0,0-9.55-1.74Z" fill="#001e0e"/><path d="M875.11,390.19a15.82,15.82,0,0,1-5.58-1c-9.33-3.46-14.47-14.91-11.47-25.5,2.38-8.4,9.21-14.05,17-14.05a15.81,15.81,0,0,1,5.57,1c9.33,3.46,14.47,14.91,11.47,25.51C889.71,384.54,882.88,390.19,875.11,390.19Z" fill="url(#e)"/><path d="M875.05,350.62a15,15,0,0,1,5.22.95c8.87,3.3,13.73,14.18,10.86,24.3-2.31,8.14-8.92,13.32-16,13.32a15,15,0,0,1-5.23-.95c-8.87-3.3-13.73-14.18-10.86-24.3,2.31-8.14,8.92-13.32,16-13.32m0-2h0c-8.23,0-15.45,5.94-17.95,14.77-3.14,11.09,2.28,23.08,12.08,26.72a16.85,16.85,0,0,0,5.93,1.08c8.22,0,15.44-5.94,17.94-14.77,3.14-11.09-2.28-23.08-12.08-26.72a16.84,16.84,0,0,0-5.92-1.08Z" fill="#465a5c"/><path d="M827.58,442.08a2.45,2.45,0,0,1-2.06-1.17c-7.81-11.84-26.18-40.49-28-50.81-2.26-13,5.17-25.63,16.55-28.23a18.47,18.47,0,0,1,4.17-.48c10,0,18.68,8.12,20.63,19.32,1.8,10.31-5.55,44.83-8.8,59.2A2.61,2.61,0,0,1,827.58,442.08Z" fill="url(#f)"/><path d="M818.26,361.89c9.61,0,18.2,7.73,20.14,18.9,1.81,10.37-5.88,46.09-8.8,59a2.13,2.13,0,0,1-2,1.78,2,2,0,0,1-1.65-.94c-7-10.65-26.1-40.26-27.91-50.62-2.21-12.73,5-25.12,16.17-27.67a18.26,18.26,0,0,1,4.06-.46m0-1h0a19.38,19.38,0,0,0-4.28.49C802.34,364,794.74,377,797.05,390.19c1.81,10.41,20.22,39.13,28.05,51a3,3,0,0,0,2.49,1.39,3.14,3.14,0,0,0,3-2.56c3.25-14.39,10.62-49,8.81-59.4-2-11.43-10.88-19.73-21.13-19.73Z" fill="#001e0e"/><path d="M818.42,401c-6,0-11.26-4.87-12.43-11.57-1.35-7.73,3.12-15.29,10-16.86a11.34,11.34,0,0,1,2.53-.28c6,0,11.25,4.86,12.42,11.56,1.35,7.74-3.11,15.3-9.94,16.86A11.49,11.49,0,0,1,818.42,401Z" fill="url(#g)"/><path d="M818.47,373.33c5.45,0,10.33,4.39,11.44,10.73,1.26,7.23-2.86,14.27-9.19,15.72a10.67,10.67,0,0,1-2.3.26c-5.46,0-10.34-4.39-11.44-10.74-1.26-7.23,2.85-14.26,9.18-15.71a10.17,10.17,0,0,1,2.31-.26m0-2h0a12.29,12.29,0,0,0-2.76.31c-7.34,1.68-12.14,9.75-10.7,18,1.25,7.18,6.89,12.39,13.41,12.39a12.81,12.81,0,0,0,2.75-.31c7.34-1.68,12.14-9.76,10.71-18-1.26-7.18-6.89-12.39-13.41-12.39Z" fill="#465a5c"/><path d="M875.51,459.9a2.47,2.47,0,0,1-2-1.09,3.12,3.12,0,0,1-.38-2.82c4.74-13.81,16.5-46.71,23.25-53.86a19.58,19.58,0,0,1,14.27-6.39,20.09,20.09,0,0,1,15.53,7.78c7.85,9.73,7.34,24.94-1.13,33.92-6.77,7.15-36.35,18-48.75,22.33a2.36,2.36,0,0,1-.78.13Z" fill="url(#h)"/><path d="M910.64,396.24a19.48,19.48,0,0,1,15.14,7.59c7.71,9.56,7.22,24.45-1.11,33.26-6.78,7.18-37.4,18.31-48.54,22.2a1.73,1.73,0,0,1-.62.11,2.36,2.36,0,0,1-1.92-3.25c4.26-12.42,16.36-46.5,23.14-53.67a19,19,0,0,1,13.91-6.24m0-1A20.07,20.07,0,0,0,896,401.79c-6.82,7.22-18.61,40.19-23.37,54a3.63,3.63,0,0,0,.46,3.28,3,3,0,0,0,2.41,1.29,2.87,2.87,0,0,0,1-.16c12.43-4.34,42.1-15.22,48.94-22.46,8.64-9.15,9.16-24.66,1.15-34.58a20.55,20.55,0,0,0-15.91-8Z" fill="#001e0e"/><path d="M909.9,435a12.11,12.11,0,0,1-9.37-4.68,15.81,15.81,0,0,1,.68-20.21,11.83,11.83,0,0,1,8.62-3.85,12.1,12.1,0,0,1,9.38,4.68,15.83,15.83,0,0,1-.68,20.21A11.85,11.85,0,0,1,909.9,435Z" fill="url(#i)"/><path d="M909.83,407.3a11,11,0,0,1,8.6,4.31,14.77,14.77,0,0,1-.63,18.89,10.83,10.83,0,0,1-7.9,3.54,11,11,0,0,1-8.59-4.31,14.75,14.75,0,0,1,.62-18.89,10.83,10.83,0,0,1,7.9-3.54m0-2a12.84,12.84,0,0,0-9.35,4.16,16.86,16.86,0,0,0-.73,21.53A13.1,13.1,0,0,0,909.9,436a12.82,12.82,0,0,0,9.36-4.17,16.85,16.85,0,0,0,.73-21.52,13.13,13.13,0,0,0-10.16-5.05Z" fill="#465a5c"/><path d="M905.6,333.56c15.82-1.39,32,8.77,39.42,24.8s5.83,37-4,51.3" fill="none" stroke="#31c9c6" stroke-linecap="round" stroke-linejoin="round" stroke-width="2" stroke-dasharray="5"/><path d="M865.89,318.8c-12.1-11.76-30.37-14.4-44.63-6.45s-23.71,26.06-23.08,44.21" fill="none" stroke="#31c9c6" stroke-linecap="round" stroke-linejoin="round" stroke-width="2" stroke-dasharray="5"/><g clip-path="url(#j)"><path d="M744.7,489.9c-3.4,20.92-6.82,41.84-10.4,62.73q-3.72,21.92-7.79,43.79c-11.42,61.54-25.17,122.42-45.14,181-9.9,29-22.45,58.93-45.24,75.93-16,12-35.81,16.28-54.94,15.09s-37.74-7.55-55.59-15.48c-23-10.23-45.72-23.67-62-44.95-26.58-34.84-31.73-85.22-26.87-131.16,5.59-52.86,23.18-104.64,53.42-145.08S563.71,462.9,610,457.84L738.9,446.59C748.81,456.82,747.16,474.84,744.7,489.9Z" fill="url(#k)"/><path d="M738.9,446.59c9.91,10.23,8.26,28.25,5.8,43.31-3.4,20.92-6.82,41.84-10.4,62.73q-3.72,21.92-7.79,43.79c-11.42,61.54-25.17,122.42-45.14,181-9.9,29-22.45,58.93-45.24,75.93-14.34,10.7-31.64,15.28-48.81,15.28-2.05,0-4.09-.07-6.13-.19-19.13-1.2-37.74-7.55-55.59-15.48-23-10.23-45.72-23.67-62-44.95-26.58-34.84-31.73-85.22-26.87-131.16,5.59-52.86,23.18-104.64,53.42-145.08S563.71,462.9,610,457.84L738.9,446.59m0-2h-.17L609.82,455.85c-45.26,4.95-89.44,32.17-121.24,74.69-14.82,19.82-27,42.83-36.23,68.4a331.62,331.62,0,0,0-17.58,77.67c-2.67,25.24-2.11,48.9,1.66,70.3,4.37,24.79,13,45.74,25.61,62.28,18.32,24,44.59,37.5,62.74,45.57,21.67,9.62,39.55,14.6,56.29,15.64,2.08.13,4.18.2,6.25.2,19,0,36.26-5.42,50-15.68,23.2-17.31,35.79-47.18,45.94-76.89,17.32-50.78,31.68-108.37,45.21-181.24,2.59-13.89,5.21-28.63,7.79-43.82,3.39-19.75,6.61-39.37,10.41-62.75,2.65-16.28,4-34.36-6.34-45a2,2,0,0,0-1.44-.61Z" fill="url(#l)"/><path d="M709.34,639.68l-22.4-7.53a1.31,1.31,0,1,0-2.53-.69q-7.14,25.92-14.27,51.82L663,709.19c-2.15,7.82-4.67,16-3.62,24.33.81,6.42,4.34,12.55,9.69,15.08,5,2.37,10.34.3,13.67-4.42,3.61-5.1,5-11.72,6.53-17.91q3.22-13,6.46-26.1l14.52-58.65A1.57,1.57,0,0,0,709.34,639.68Z" fill="#ffbe00"/><path d="M734.3,553.46q-3.72,21.9-7.79,43.79-16.5-4.32-33-8.59a366.14,366.14,0,0,0,4.71-47.26A160.89,160.89,0,0,0,734.3,553.46Z" fill="#ffbe00"/><path d="M697.61,502.41c2-12.18,3.32-26.77-4.71-35.09l-104.44,9.14c-37.5,4.09-72.57,27.1-97.07,59.87S452.64,611,448.11,653.86c-3.93,37.21.23,78,21.77,106.26,13.17,17.25,31.56,28.13,50.21,36.42,14.47,6.43,29.55,11.58,45,12.55s31.51-2.52,44.51-12.22c18.47-13.79,28.63-38,36.65-61.54C671.78,660.63,684.76,581.25,697.61,502.41Z" fill="#355bb7"/><path d="M422.62,429.59l-41.93-30.25-57.42-41.45c-14-10.15-23.06-26.73-24.78-45.5-4.75-52.11,2.76-104.56,11.46-165.29l0-.19c-.7-2.11-9.57-30.79,9.18-68.72.46-1,11.41-25,20.27-32.93l.15-.13L400,47.64l-.09.56C396.32,70,386.68,87.29,370.41,101l3,5.33c1.28-2.66,5.6-10.12,13.9-10.12a17.41,17.41,0,0,1,6.5,1.37,2.09,2.09,0,0,1,.86.67,10.24,10.24,0,0,1,2,6.11,10.12,10.12,0,0,1-2.34,6.61L373.6,135.18c-.51.64-12.78,15.87-21.05,15.87h-.22l-.72,42.36a279.1,279.1,0,0,0,3.52,49.42L361,279c12.58,13,30.18,26.08,48.3,35.92a175.8,175.8,0,0,0,33.46,14.15c11.78,3.47,21.56,4.4,30.19,5.22,15.4,1.46,28.7,2.72,46.88,17.38l.29.23L472,476.11Z" fill="url(#m)"/><path d="M339.76,45.63l59.62,2.49c-3.37,20.65-12.6,38.55-29.61,52.8l3.74,6.55s4-10.73,13.84-10.73a16.79,16.79,0,0,1,6.31,1.33,1.55,1.55,0,0,1,.65.51,10,10,0,0,1-.36,12.09l-20.73,24.19s-12.55,15.69-20.67,15.69a5.53,5.53,0,0,1-.71,0l-.73,42.89a279.71,279.71,0,0,0,3.53,49.51l5.88,36.36c12.49,12.93,29.9,26,48.53,36.13a177,177,0,0,0,33.56,14.19c32.62,9.61,48.57-.33,76.9,22.51l-47.7,123.13-48.85-46-42-30.29-57.42-41.46c-13.77-10-22.87-26.57-24.57-45.13-4.76-52.14,2.8-104.73,11.5-165.49,0,0-10.4-29,9.12-68.45,0,0,11.27-24.82,20.15-32.78m-.36-1-.3.27c-8.94,8-19.93,32.08-20.4,33.1-10.16,20.55-12.12,38.24-12,49.46S309,145.57,309.47,147V147c-8.71,60.77-16.22,113.25-11.47,165.42,1.74,18.91,10.84,35.62,25,45.85l57.43,41.46L422.32,430l48.8,46,1.08,1,.54-1.39,47.7-123.13.26-.68-.56-.46c-18.3-14.75-31.67-16-47.16-17.49-8.6-.82-18.36-1.75-30.08-5.2a175.21,175.21,0,0,1-33.37-14.11c-18-9.78-35.53-22.79-48.08-35.72l-5.83-36.05a279,279,0,0,1-3.51-49.33l.71-41.87c8.5-.32,20.66-15.42,21.18-16.07l20.71-24.16a11,11,0,0,0,.4-13.34,2.58,2.58,0,0,0-1.09-.84,17.83,17.83,0,0,0-6.67-1.4c-7.92,0-12.24,6.32-13.94,9.55l-2.36-4.15c16.17-13.77,25.76-31.07,29.32-52.86l.18-1.12-1.13,0-59.61-2.49Z" fill="#591919"/><path d="M373.51,107.47s-24.57-7.62-40.18,27.14" fill="url(#n)"/><path d="M519.51,352.1l-47.7,123.13-48.85-46-42-30.29,28.07-83.54a177,177,0,0,0,33.56,14.19C475.23,339.2,491.18,329.26,519.51,352.1Z" fill="url(#o)"/><path d="M497.92,409.28c-1.36-1.55-4.24-1.93-5.55,0a287.54,287.54,0,0,0-39.57,87.14q-3.54,13.23-5.83,26.82c-.41,2.38.58,4.85,2.73,5.52a3.92,3.92,0,0,0,4.83-3.13,285.92,285.92,0,0,1,30.2-88.23c4.07-7.5,8.46-14.79,13.19-21.77A5.16,5.16,0,0,0,497.92,409.28Z" fill="#ff604d" style="mix-blend-mode:screen"/><path d="M339.77,45.64l7.69-9.8,6.61.87,1.29,27.49a3.67,3.67,0,0,1-2.21,3.7c-3.54,1.27-9.79,1.41-9.48-13.69Z" fill="url(#p)"/><path d="M358.9,30.92c-1.75,6.41-4.65,18.82-4.1,28.72.21,3.67,2.19,7.09,5.3,8,2.67.79,5.95-.28,8.39-7.73l4.32-24.69a9.52,9.52,0,0,0-1-6.33,7.49,7.49,0,0,0-5.18-4C363.13,24.38,359.94,27.11,358.9,30.92Z" fill="url(#q)"/><path d="M432.91,749.16a1,1,0,0,1-.93-.74c-23.47-86-30.45-160.26-21.36-227,5-36.86,19.13-83,36.82-120.48,15.65-33.12,41.6-75.72,76.41-90.59a25.89,25.89,0,0,1,10-2,24.31,24.31,0,0,1,21.47,12.1,18,18,0,0,1,2.48,11.83c-1,5.82-5.54,9.86-9.18,13.11C472,413.87,428.78,525.49,436,636.61c.5,7.77,1.24,15.75,1.95,23.47,2.77,29.77,5.62,60.55-4,88.41a1,1,0,0,1-.95.67Z" fill="url(#r)"/><path d="M533.88,309.28a23.48,23.48,0,0,1,20.6,11.59A17.13,17.13,0,0,1,556.84,332c-.94,5.39-5.07,9.15-8.86,12.54-76.33,68.23-120.16,181.5-113,292.1,2.42,37.45,10.07,76.58-2,111.48C413,675,401.3,597.25,411.61,521.5c9-66.27,51.39-184.12,112.64-210.28a24.58,24.58,0,0,1,9.63-1.94m0-2a26.72,26.72,0,0,0-10.42,2.1c-35.1,15-61.2,57.81-76.92,91.08C428.8,438,414.66,484.28,409.63,521.23c-9.11,66.93-2.12,141.33,21.38,227.45a2,2,0,0,0,1.86,1.48h.07a2,2,0,0,0,1.89-1.35c9.73-28.06,6.86-58.95,4.09-88.82-.72-7.71-1.46-15.69-2-23.44-7-109.15,37.05-223.17,112.36-290.48,3.75-3.36,8.42-7.53,9.49-13.68a19,19,0,0,0-2.59-12.51,25.31,25.31,0,0,0-22.34-12.6Z" fill="#465a5c"/><path d="M236.78,1232.65H346.92s34.69-178.89,69.38-235.93c3.23-11.91,14.39-18.3,26.88-15.33,43.8,37.31,76.16,144,108.4,251.26H663.45l-34-119.45a215.1,215.1,0,0,1-7.88-46.84c-2.67-47.36-10.44-157.61-28.32-242.69l-259.3-46C272.83,892.21,246.27,1072.21,236.78,1232.65Z" fill="url(#s)"/><path d="M594.06,869.4q-17.71-3-35.26-7,2-9.15,4-18.31c.49-2.27-.65-5-2.74-5.52a4,4,0,0,0-4.83,3.13l-4.12,18.86q-18-4.42-35.79-10c.76-2.67,1.56-5.32,2.43-7.94.35-1.05.71-2.1,1.07-3.14l.48-1.35c.11-.29.22-.59.32-.89-.12.33-.09.24.1-.26q1.15-3.11,2.42-6.17c.87-2.12.58-4.94-1.41-6.14a3.7,3.7,0,0,0-5.36,1.61,210.31,210.31,0,0,0-7.6,21.89c-3.89-1.27-7.76-2.56-11.62-3.92q-19.43-6.81-38.44-15a66.35,66.35,0,0,1,7.91-24.84,4.9,4.9,0,0,0-1.41-6.14,3.74,3.74,0,0,0-5.36,1.61,75.1,75.1,0,0,0-8.6,26.11q-12-5.34-23.79-11.21a164.44,164.44,0,0,0,11.3-27.68c.68-2.22-.78-5-2.74-5.52-2.19-.57-4.1.76-4.83,3.14a150.93,150.93,0,0,1-10.92,26.37c-5.41-2.78-10.8-5.62-16.14-8.58-3.05-1.68-6.06-3.43-9.08-5.17a240.36,240.36,0,0,1,11.82-29.61,5,5,0,0,0-1.4-6.14,3.7,3.7,0,0,0-5.37,1.61,252.8,252.8,0,0,0-12.05,30.05c-6.74-4-13.39-8.15-20-12.4,1-1.88,2-3.73,3.11-5.49.18-.29.37-.57.55-.85l.13-.19,0-.06c.4-.59.82-1.17,1.24-1.74.87-1.18,1.78-2.32,2.71-3.43a5,5,0,0,0,0-6.35,3.62,3.62,0,0,0-5.54,0,72.9,72.9,0,0,0-9,13.64c-2.21-1.46-4.44-2.86-6.62-4.35-4.35-3-8.3,4.8-4,7.75a632.88,632.88,0,0,0,90.59,51.3,604.25,604.25,0,0,0,67.16,26.31,3.46,3.46,0,0,0,1.72,1.17,3.78,3.78,0,0,0,1.86,0q12.53,4,25.17,7.39,27.65,7.46,55.79,12.13a4,4,0,0,0,4.83-3.14C597.3,872.81,596.17,869.75,594.06,869.4Z" fill="url(#t)"/><path d="M602.4,962.55c-12,1.71-23.69-2.2-33.93-9.2C557.72,946,549,935.46,541.29,924.29c-4.42-6.39-8.5-13.08-12.6-19.75-1.22-2-3.43-2.9-5.37-1.61a4.91,4.91,0,0,0-1.4,6.15c15.19,24.72,32,51,58.53,60.13a47.34,47.34,0,0,0,21.95,2.32,4.37,4.37,0,0,0,3.92-4.49C606.32,964.85,604.52,962.25,602.4,962.55Z" fill="url(#u)"/><path d="M464.17,996.47a200.72,200.72,0,0,0-34.41-37.34q-5.42-4.54-11.12-8.66a3,3,0,0,0-4.23,1.24,3.72,3.72,0,0,0,1.11,4.69A246.11,246.11,0,0,1,455,993c2.81,3.3,16,23,16,23C472.29,1014.56,465.21,997.93,464.17,996.47Z" fill="url(#v)"/><path d="M322.64,767.54s31.22,60.09,78.05,62.49L431,794.92l7,54a462.23,462.23,0,0,0,68.45-10.14,128.29,128.29,0,0,1,90.89,12.59l1.35.73s19.69-54.09,33.56-100l24.3-119.53c5.31-26.13,26.46-50.76,40.42-72.3,9.2-14.2,20.68-30.08,33.28-43.43,0,0,78.91-85.37-31.22-135.68L548,344.58s-49.73,37.7-67.73,85.94l-57,152.77C378,649.86,337.72,714.25,322.64,767.54Z" stroke="#591919" stroke-miterlimit="10" fill="url(#w)"/><path d="M629.74,816.92a.92.92,0,0,1-.36-.07,1,1,0,0,1-.57-.57C596.72,734,582.19,661.2,584.4,593.65c1.22-37.28,10.51-85,24.25-124.58,12.15-35,33.57-80.76,66.61-100.18a26.1,26.1,0,0,1,13.24-3.59,23.29,23.29,0,0,1,19.09,9.39,17.58,17.58,0,0,1,3.67,11.44c-.41,5.9-4.49,10.52-7.76,14.23-38.82,44-53.85,121.28-59.62,178.39-6.69,66.2-4.62,141.66,5.56,201.85a1.15,1.15,0,0,1,0,.19c0,1.1-.94,27-19.27,36A1,1,0,0,1,629.74,816.92Z" fill="url(#x)"/><path d="M688.5,366.3a22.31,22.31,0,0,1,18.28,9,16.76,16.76,0,0,1,3.49,10.78c-.39,5.48-4.11,9.77-7.52,13.63-68.84,78-72.7,272.2-54.3,381.07,0,0-.71,26.33-18.71,35.16-27.3-70-46.84-145.63-44.34-222.24,2.19-67,32.21-189.75,90.37-223.93a25.23,25.23,0,0,1,12.73-3.45m0-2A27.16,27.16,0,0,0,674.75,368c-33.3,19.57-54.84,65.57-67,100.71-13.78,39.66-23.09,87.5-24.31,124.87-2.21,67.69,12.34,140.65,44.48,223a2,2,0,0,0,1.14,1.13,1.81,1.81,0,0,0,.72.14,2,2,0,0,0,.88-.2c18.87-9.26,19.8-35.78,19.83-36.9a2.56,2.56,0,0,0,0-.39c-10.16-60.11-12.23-135.46-5.55-201.58,5.76-57,20.74-134,59.38-177.83,3.37-3.83,7.57-8.58,8-14.82a18.57,18.57,0,0,0-3.87-12.1,24.26,24.26,0,0,0-19.89-9.8Z" fill="#465a5c"/><path d="M629,416.27a23,23,0,0,1-3.49-.25c-7.93-1.14-15.17-6.07-19.86-13.52A36.64,36.64,0,0,1,602,372l.14-.52.32-.78.43-1.4,3.18-9.27,10.59-37c.28-.81,1.42-.9,2.25-.9,5.35,0,20.31,4.42,22.07,4.94l14.85-4.65,22.58-7.11,1.91-.46-2.2,6.58-11.68,44.92-2.66,10.79-3.19,12.16c-3.48,13.44-13.55,23.79-25.65,26.39A32.54,32.54,0,0,1,629,416.27Z" fill="url(#y)"/><path d="M679.56,315.54l-1.91,5.72-11.7,45L663.29,377l-3.18,12.16c-3.45,13.3-13.29,23.45-25.27,26a31.76,31.76,0,0,1-5.84.58,22.76,22.76,0,0,1-3.42-.25C608.19,413,596,392.65,602.48,372.1l.15-.54.3-.72.44-1.45,3.17-9.25,10.6-37c.13-.38.78-.54,1.77-.54,5.56,0,22.07,5,22.07,5l15-4.71,22.58-7.1,1-.24m1.52-1.39-1.75.42-1,.23h-.07l-22.58,7.11L641,326.54c-2.33-.69-16.78-4.92-22.07-4.92-.62,0-2.29,0-2.71,1.21v.06l-10.59,36.95-3.17,9.23L602,370.5l-.28.68,0,.06,0,.06-.15.54a37.12,37.12,0,0,0,3.71,30.93c4.78,7.57,12.15,12.58,20.22,13.74a23.84,23.84,0,0,0,3.56.26,32.47,32.47,0,0,0,6-.6c12.31-2.64,22.53-13.14,26.05-26.75l3.19-12.15,2.66-10.82,11.69-44.9,1.9-5.7.57-1.7Z" fill="#591919"/><path d="M623.31,345.36a77.77,77.77,0,0,1-11.1-.74l-.53-.08,5-21.49a7.62,7.62,0,0,1,5.53-5.2l.17,0L641,327.05l14.8-4.64,8.61-1.8-.18.77c-5.07,20.87-27.83,24-41,24Z" fill="#591919"/><path d="M622.28,318.34l18.7,9.25,15-4.71,7.79-1.62c-4.94,20.33-26.87,23.6-40.46,23.6a77.27,77.27,0,0,1-11-.73l4.85-21a7.14,7.14,0,0,1,5.14-4.82m.13-1-.33.07a8.06,8.06,0,0,0-5.88,5.47l0,.05v.06l-4.85,21-.25,1.05,1.06.17a78,78,0,0,0,11.18.74c13.26,0,36.28-3.16,41.43-24.36l.38-1.54-1.55.32-7.8,1.63h-.09l-14.61,4.58-18.35-9.07-.31-.15Z" fill="#591919"/><path d="M602.45,195.81c2.67-16.78,15.16-33.4,24.22-43.57A72.19,72.19,0,0,1,648.6,135c48.84-23.86,82,21.67,82,21.67,25.6,23.08,2.15,76.27,2.15,76.27-.94,3.09-1.89,6-2.83,8.91a11.85,11.85,0,0,1,5.27,2.24c7.93,6.19,8.14,21.64.48,34.51-7.13,11.95-18.5,17.34-26.44,13.09-13.06,22.17-32.89,38.35-56,43.58-1.38.31-2.72.58-4,.8A34.85,34.85,0,0,1,638,336c-28.92-4.63-49.35-35.18-47.91-68.59C591.14,244,595.65,220,602.45,195.81Z" fill="url(#z)"/><path d="M752.1,267.48c-4.55,5.09-11.29,10-10.3,17.18-3.16.15-5.44-3.83-5.49-7.45s1.28-7.06,2-10.63.5-7.75-2-10.05c-3.55-3.39-9.22,0-11.45,4.61s-2.5,10.23-4.41,15.05c-3.64,9.19-13.65,14.34-22.06,11.32,6.09-3.42,10.43-10.63,11-18.38C707,275,701.63,279,696,279.15s-11.19-3.62-13.8-9.33a30.81,30.81,0,0,0,14-13.68,6.43,6.43,0,0,1-6.06-2.52c7.94.63,15-9.51,12.62-18.25-2.2-8.09-9.88-12.1-15.26-17.93-7.82-8.5-10.85-22.3-7.48-34a80.73,80.73,0,0,1-31,29.54c4.7-5,6.79-12.57,7-19.91s-1.36-14.57-2.9-21.7a46.87,46.87,0,0,1-12.26,29.28c2.74-4.25.68-10.57-2.77-14s-8-5.24-11.79-8.17c-3.58-2.76-6.72-7.34-6.25-12.1-3.5,22.54-20.93,40.83-21.33,63.79-3.63-7-3.55-16.11-.39-23.32-4.78,4.88-11.65,7.12-17.88,5.27,5.65-.15,10.62-6.26,10.36-12.69-.24-6-4.13-10.78-6-16.34-3.56-10.66,1-23.08,8.34-30.77s17-11.71,26.4-15.51A17.15,17.15,0,0,1,609,128.93c10.11,3.38,21-.57,30.34-6.11s18-12.75,28-16.58,28.8-5.32,36,12.21c2.74.57,5.46,1.2,8.18,2,14.16,3.92,27.7,12.12,37.06,24.93s14,30.47,10.61,46.73c-1.54,7.42-4.73,14.51-4.7,22.17,0,9.1,4.52,17.39,5.64,26.43C761.3,250.36,758.24,260.66,752.1,267.48Z" fill="url(#aa)"/><path d="M613.93,256.33c6.05-11.25,12.87-22,19.29-33,1.5-2.56,5.14-.12,3.62,2.47l-15.6,26.68c-1.94,3.33-6.72,8.72-3.73,12.65,2.74,3.6,7.71,5.09,11.69,5.5,2.68.28,2.71,5.11,0,4.83C621,274.59,607.61,268.09,613.93,256.33Z" fill="url(#ab)"/><path d="M623.87,289.15c10.23,2.9,21.13.08,29.4-7.35.9-.82,2.35-.19,2.89.83a2.68,2.68,0,0,1-.72,3.31,34.68,34.68,0,0,1-32.65,7.88C620.16,293.07,621.23,288.39,623.87,289.15Z" fill="url(#ac)"/><path d="M660.69,250.49a3,3,0,0,1-1.07-.2c-2.52-1-3.43-5.35-2-9.68,1.16-3.59,3.68-6.19,6-6.19a2.93,2.93,0,0,1,1.06.2c2.52,1,3.42,5.35,2,9.68C665.49,247.89,663,250.49,660.69,250.49Z"/><path d="M663.59,234.92h0a2.41,2.41,0,0,1,.88.16c2.24.9,3,5,1.72,9.07-1.11,3.38-3.42,5.84-5.5,5.84a2.24,2.24,0,0,1-.89-.17c-2.24-.89-3-5-1.72-9.06,1.1-3.38,3.42-5.84,5.51-5.84m0-1c-2.49,0-5.19,2.62-6.46,6.53-1.49,4.59-.46,9.2,2.3,10.3a3.44,3.44,0,0,0,1.26.24c2.48,0,5.17-2.62,6.45-6.53,1.49-4.58.46-9.2-2.3-10.3a3.23,3.23,0,0,0-1.25-.24Z"/><path d="M615.11,234.25a2.79,2.79,0,0,1-1.07-.2c-2.52-1-3.43-5.35-2-9.68,1.16-3.59,3.68-6.19,6-6.19a2.93,2.93,0,0,1,1.06.2c2.52,1,3.42,5.36,2,9.69C619.91,231.65,617.4,234.25,615.11,234.25Z"/><path d="M618,218.68h0a2.42,2.42,0,0,1,.88.17c2.24.9,3,5.05,1.72,9.06-1.11,3.39-3.42,5.84-5.5,5.84a2.42,2.42,0,0,1-.89-.16c-2.24-.9-3-5.05-1.72-9.07,1.1-3.38,3.42-5.84,5.51-5.84m0-1c-2.49,0-5.19,2.63-6.46,6.53-1.49,4.59-.46,9.2,2.3,10.3a3.24,3.24,0,0,0,1.26.24c2.48,0,5.17-2.62,6.45-6.53,1.49-4.58.46-9.19-2.3-10.3a3.43,3.43,0,0,0-1.25-.24Z"/><path d="M682.09,233.46h0a1.82,1.82,0,0,1,.64.1c-.48-9.26-5.3-18.2-12.5-22.55a6.59,6.59,0,0,0-3.66-1.21,3.18,3.18,0,0,0-2.9,2.43c-.33,1.59.64,3.13,1.68,4.25a37.11,37.11,0,0,0,7.33,5.64,26.46,26.46,0,0,1,7,6.08A13.58,13.58,0,0,1,682.09,233.46Z" fill="url(#ad)"/><path d="M630.94,195.71a5.3,5.3,0,0,0-2.79-1.72c-6.52-2-13.21,1.85-16.87,9.25a7.7,7.7,0,0,1,2.52-2.12,1.09,1.09,0,0,1,.17-.05,6.81,6.81,0,0,1,1.72-.78c2.18-.59,4.49-.12,6.76.44a20.28,20.28,0,0,0,6.79,1,2.79,2.79,0,0,0,2.66-2.05A4.9,4.9,0,0,0,630.94,195.71Z" fill="url(#ae)"/><path d="M528.17,98.23V91.34a14.47,14.47,0,0,0-4.91-11.09L493.05,54.83,458,33.14a3.58,3.58,0,0,0-5.31,2.21c-1.47,4.67.78,13.41,25.58,25.19L516.68,103h11.49Z" fill="url(#af)"/><path d="M524.27,99.77,522.75,88.6l-36-28.06-44.23-14.9s-9.76,13.79,14.09,22.16L479,74.69,504.54,103Z" fill="url(#ag)"/><path d="M519.28,103,494.06,71.47H470.93L450.77,91.08S453.88,103,474,87.23l16.3,0,6,15.79Z" fill="url(#ah)"/><path d="M709.53,511.51c-12.68,0-24.63-5.75-33.65-16.2l-52.17-60.4-21.62-25.05a219.46,219.46,0,0,1-30.25-45.72c-14.22-28.63-34.16-70.8-48.38-109.08-6.25-16.78-10.86-31.46-13.69-43.65,0-.19-.1-.42-.15-.62v0C508,208.87,484,180.42,475.17,165a34,34,0,0,1-2.84-5.93,113.87,113.87,0,0,1-5.21-23.79c-1.26-1.62-15.79-19.92-33.55-27.06a11.12,11.12,0,0,1-6.82-10.75c.16-3.34,1.93-7.33,9.47-7.33q.76,0,1.62.06a31.22,31.22,0,0,1,14,4.53l32.14,18.83,10.86-15h34.85l2.63,83.06,3.85,5.17,23.16,31.13L622.69,303a333.3,333.3,0,0,0,48,52.3,270.16,270.16,0,0,0,46.57,33,92.41,92.41,0,0,1,13,8.6c17.54,14,27.53,37.47,26.72,62.9l-.08,1.81C755.16,494,731.21,511.51,709.53,511.51Z" fill="url(#ai)"/><path d="M436.22,90.62q.75,0,1.59.06a30.84,30.84,0,0,1,13.72,4.46l32.54,19.07,11-15.21h34.11l2.61,82.73,4,5.3,23.16,31.13,63.4,85.18a334.71,334.71,0,0,0,48.07,52.38,270.22,270.22,0,0,0,46.65,33,93.2,93.2,0,0,1,12.89,8.56c17.64,14,27.31,37.93,26.53,62.5,0,.6,0,1.2-.08,1.79-1.57,30.31-23.79,49.4-46.81,49.4-11.77,0-23.74-5-33.27-16l-52.17-60.4-21.62-25.06a218.46,218.46,0,0,1-30.19-45.61c-13.3-26.79-33.84-70-48.35-109a366.25,366.25,0,0,1-13.67-43.58c-.08-.27-.13-.54-.18-.78,0,0-25.3-29.75-34.48-45.79a33,33,0,0,1-2.79-5.84,110.43,110.43,0,0,1-5.2-23.82s-15-19.76-33.85-27.33a10.64,10.64,0,0,1-6.51-10.27c.17-3.56,2.16-6.85,9-6.85m0-1c-7.93,0-9.8,4.25-10,7.81a11.64,11.64,0,0,0,7.14,11.24c17.3,7,31.53,24.59,33.25,26.78a114,114,0,0,0,5.22,23.76,33.22,33.22,0,0,0,2.88,6c8.73,15.26,32.22,43.15,34.41,45.75,0,.18.09.38.14.57A366,366,0,0,0,523,255.23c14.23,38.3,34.17,80.49,48.4,109.13a219.49,219.49,0,0,0,30.33,45.83l21.61,25.05,52.17,60.4c9.12,10.56,21.2,16.37,34,16.37a45.56,45.56,0,0,0,32.15-13.62c9.35-9.28,14.91-22.32,15.66-36.72l0-1.27,0-.54A85.8,85.8,0,0,0,751,424.23a69.63,69.63,0,0,0-20.48-27.69,92,92,0,0,0-13-8.65A270.39,270.39,0,0,1,671,355a332.86,332.86,0,0,1-47.92-52.23l-63.41-85.18-23.16-31.13-3.76-5.05L530.16,99l0-1H494.54l-.3.41-10.45,14.47L452,94.28a31.78,31.78,0,0,0-14.17-4.6c-.56,0-1.12-.06-1.65-.06Z" fill="#591919"/><path d="M557.88,217.38c-5.7,12.21-14.74,22.3-24.89,30a105.23,105.23,0,0,1-10.06,6.76,366.25,366.25,0,0,1-13.67-43.58,94.69,94.69,0,0,0,25.46-24.27Z" fill="url(#aj)"/><path d="M755.42,459c0,.6,0,1.2-.08,1.8-2.38,45.79-51.91,66-80.08,33.37l-52.17-60.4,46.26-78.87A270.22,270.22,0,0,0,716,388a93.2,93.2,0,0,1,12.89,8.56C746.53,410.58,756.2,434.47,755.42,459Z" fill="url(#ak)"/><path d="M379.08,45.44l-.89,52.9c-.05,3.2,2.24,5.76,4.93,5.51l78.61-7.32c2.38-.22,4.22-2.57,4.22-5.4V32.2c0-3.3-2.48-5.84-5.24-5.37L383,40.18C380.79,40.56,379.13,42.79,379.08,45.44Z" fill="#93bec2"/><path d="M376.55,103.56a5.27,5.27,0,0,1-3.74-1.62A6.62,6.62,0,0,1,371,97.2l.9-51.1a6,6,0,0,1,4.75-6.05l77.71-12.9a5.93,5.93,0,0,1,.83-.07c3.07,0,5.57,2.8,5.57,6.25V90.25c0,3.23-2.25,6-5.13,6.22L377,103.54Z" fill="url(#al)"/><path d="M455.17,28.08c2.48,0,4.57,2.31,4.57,5.25V90.25a5,5,0,0,1-4.22,5.22l-78.6,7.07-.37,0c-2.53,0-4.62-2.39-4.56-5.35l.89-51.09A5,5,0,0,1,376.8,41l77.71-12.89a3.68,3.68,0,0,1,.66-.06m0-2a5.52,5.52,0,0,0-1,.09L376.47,39.06a7,7,0,0,0-5.59,7L370,97.18a7.62,7.62,0,0,0,2.1,5.46,6.25,6.25,0,0,0,4.46,1.92l.55,0,78.6-7.07a7,7,0,0,0,6-7.22V33.33c0-4-2.95-7.25-6.57-7.25Z" fill="#465a5c"/><path d="M374,33.44c-.68,3.41-1.53,8.11-2.07,12.78-.45,3.88,1.94,7.45,5.32,8.08h0a6.13,6.13,0,0,0,6.53-3.52,80.73,80.73,0,0,0,5.59-13.38,10.42,10.42,0,0,0-1.22-8.57A6.73,6.73,0,0,0,380.84,26C377.46,26.64,374.78,29.62,374,33.44Z" fill="url(#am)"/><path d="M390.58,24.79l-3.18,25c-.52,4.1,2.09,7.88,5.69,8.24h0c2.8.28,5.39-1.63,6.36-4.65,1.81-5.66,4.44-15.07,4.86-23.28,2.35-10.25-2.05-15.24-7.53-13.69C393.43,17.37,391.08,20.86,390.58,24.79Z" fill="url(#an)"/><path d="M513.43,149.28s17.56-45.93-5.21-55.37l-21.9-4.46s-23.41-5-30.78,6.2c0,0-10,8.44,26.34,8.44l5.53,1,8.89,17.13s-10.84,17.87-6.07,34" fill="url(#ao)"/><path d="M524.53,489a3,3,0,0,0-4.62,1.54q-19.84,53.77-37.32,109-17.4,55-32.34,111.3-8.42,31.67-16,63.69c-1.31,5.53,5.13,8,6.44,2.48q13.45-56.53,29.37-112t34.21-109.44q10.32-30.46,21.41-60.46C526.45,493,526.17,490.33,524.53,489Z" fill="url(#ap)"/><path d="M611.51,427.85a4.26,4.26,0,0,0-3.92,4.49,5.62,5.62,0,0,1,0,.71v0l-.07.15,0,0h0l0,0v0c.29-.22-.32.31-.41.4.48-.49-.29.19-.43.28l-.22.15-.28.07-.65.17h-.84c-.1,0-.11,0-.1,0a1.11,1.11,0,0,0-.2-.13,10.74,10.74,0,0,1-1.36-.85,12.79,12.79,0,0,1-1.59-1.87,33.43,33.43,0,0,1-2.75-5.52c-4.37-10.31-8.63-20.68-12.95-31a3.67,3.67,0,0,0-4.65-2,4.17,4.17,0,0,0-3.66-2.95l-26.74-1.77A155,155,0,0,1,570,366.91c1.65-1.52,1.38-4.77,0-6.35-1.63-1.87-3.89-1.53-5.55,0a162.08,162.08,0,0,0-24.86,29.34c-2,2.92.76,6.58,3.38,6.75l34.58,2.3a2.87,2.87,0,0,0,1.3-.24,5.93,5.93,0,0,0,.24.71L587,418.25c2.36,5.65,4.38,11.81,7.43,17,2.81,4.8,7,8.62,12.32,7.81,4.59-.7,9.27-4.94,8.73-10.74C615.2,429.93,613.79,427.85,611.51,427.85Z" fill="url(#aq)"/><path d="M560,456.09c-.05-.47-.09-.95-.17-1.41a4.58,4.58,0,0,0-.14-.53,3.59,3.59,0,0,0-.7-1.53,3.31,3.31,0,0,0-1.1-1.16l-.94-.45a2.6,2.6,0,0,0-1.56-.08,1.68,1.68,0,0,0-1,.31,1,1,0,0,0-.18.1,2,2,0,0,0-.49.05,1.79,1.79,0,0,0-1,.3,1.91,1.91,0,0,0-.86.58,2.09,2.09,0,0,0-.7.8,3.72,3.72,0,0,0-.71,1.53,3.89,3.89,0,0,0-.09.47,12.31,12.31,0,0,0-.16,1.65,14.58,14.58,0,0,0,.17,1.62,2.78,2.78,0,0,0,.11.5,2,2,0,0,0,.07.23c.15.41.29.84.46,1.24a2.74,2.74,0,0,0,.21.42c.23.37.48.73.73,1.08l.14.18a8.64,8.64,0,0,0,1.09,1l.94.45a2.6,2.6,0,0,0,1.56.08,1.71,1.71,0,0,0,1-.31,2.9,2.9,0,0,0,1.26-.92,11.06,11.06,0,0,0,.91-1.28.2.2,0,0,1,0-.08c.14-.22.29-.43.43-.64a5,5,0,0,0,.48-1.73v0a2.17,2.17,0,0,0,0-.25c.06-.47.13-.94.17-1.41a4.69,4.69,0,0,0,0-.53A2.45,2.45,0,0,0,560,456.09Z" fill="url(#ar)"/><path d="M571.08,430.06v0l-.14-1.19v0l0-.14s0,0,0,0-.33-.92-.39-1.08l0-.06a4.11,4.11,0,0,0-.74-1.09l0,0c-.11-.11-.69-.62-.8-.71l0,0-.09-.06,0,0c-.23-.11-.72-.36-1-.46h0l-.11,0h-.08l-1.05-.17h-.21c-.36,0-.73.11-1.09.17h-.06a.86.86,0,0,0-.21.07c-.27.12-.68.32-1,.46h0l-.05,0-.11.08a8,8,0,0,0-.87.78l-.08.09c-.11.15-.28.42-.32.47s-.23.32-.32.48l0,.06,0,.05c-.07.18-.19.53-.2.56s-.15.38-.21.56l0,.13a8.46,8.46,0,0,0-.15,1.33,3.72,3.72,0,0,0,.34,1.73s0,.07,0,.11v0a4.78,4.78,0,0,0,1,2,7.22,7.22,0,0,0,.88.79l.1.06c.23.13.71.36.95.46h0l.05,0h.08l1,.17h.14a6.38,6.38,0,0,0,1.15-.17l.11,0,.06,0,0,0c.26-.11.7-.33.95-.46l.23-.14c.26-.22.57-.5.82-.73l0,0,.09-.11a11.44,11.44,0,0,0,.67-1,.54.54,0,0,0,.07-.13c.08-.18.16-.42.22-.59s.15-.39.22-.59a.5.5,0,0,0,0-.12v0c0-.18.13-1,.14-1.2v-.14Z" fill="url(#as)"/></g><polygon points="285.83 408.36 195.61 385.71 206.95 417.43 105.41 465.04 122.51 512.86 224.05 465.25 235.93 498.48 285.83 408.36" stroke="#591919" stroke-miterlimit="10" fill="url(#at)"/><path d="M813.44,750.62l-83.86-38.93a4.94,4.94,0,0,1-2.12-6.55L790.9,562.68a4.75,4.75,0,0,1,6.23-2.68L881,598.93c5.37,2.49,7.58,9.34,4.93,15.28L828,744.37C825.32,750.32,818.82,753.12,813.44,750.62Z" fill="#ffbe00"/><path d="M810.5,759.44l-81.06-47.33a5.56,5.56,0,0,1-2-7L790.9,562.68a4.27,4.27,0,0,1,6.09-2.27l81,47.33c5.2,3,7.26,10.32,4.61,16.27L824.7,754.16C822.05,760.11,815.69,762.47,810.5,759.44Z" fill="url(#au)"/><polygon points="1014.18 879.37 983.03 922.09 980.54 925.52 978.58 925.25 923.53 917.49 920.44 917.04 919.87 918 919.22 919.06 895.57 958.57 894.06 961.06 890.95 960.92 835.62 958.78 832.11 958.61 831.29 959.94 807.28 998.46 806.3 1000.05 803.06 1000.13 740.1 1001.3 711.98 916.35 687.73 843.17 742.77 854.08 747.07 854.95 747.69 854.09 782.99 803.25 782.99 803.2 784.02 801.75 787.43 802.43 829.27 810.55 832.63 811.18 835.32 811.71 837.4 809.07 871.21 766.16 873.29 763.52 875.22 763.9 922.81 773.35 926.84 774.13 928.03 772.32 959.55 723.78 1007.75 860.96 1014.18 879.37" fill="url(#av)"/><path d="M959.55,723.78,1007.74,861l6.44,18.41L983,922.09l-2.49,3.43-2-.27-55.05-7.76-3.09-.45-.57,1-.65,1.06-23.65,39.51-1.51,2.49-3.11-.14-55.33-2.14-3.51-.17-.82,1.33-24,38.52-1,1.59-3.24.08-63,1.17L712,916.35l-24.25-73.18,55,10.91,4.3.87.62-.86L783,803.25v0l1-1.45,3.41.68,41.84,8.12,3.36.63,2.69.53,2.08-2.64,33.81-42.91,2.08-2.64,1.93.38,47.59,9.45,4,.78,1.2-1.81,31.51-48.54m0-2a2,2,0,0,0-1.68.91l-31.51,48.54-.45.68-2.72-.53-47.58-9.44-1.94-.38a2.58,2.58,0,0,0-.38,0,2,2,0,0,0-1.57.77l-2.08,2.63-33.81,42.91-1.32,1.68-1.5-.29-3.37-.63-41.83-8.12-3.4-.68a2.58,2.58,0,0,0-.39,0,2,2,0,0,0-1.63.84l-1,1.45a2.07,2.07,0,0,0-.19.32l-35,50.37-3-.61-55-10.92a2.56,2.56,0,0,0-.39,0,2,2,0,0,0-1.5.67,2,2,0,0,0-.4,2L710.08,917l28.12,84.95a2,2,0,0,0,1.9,1.37h0l63-1.17,3.24-.08a2,2,0,0,0,1.66-.95l1-1.59L833,961l.2-.33,2.34.1,55.34,2.15,3.1.14h.09a2,2,0,0,0,1.71-1l1.51-2.49,23.66-39.52.53-.88,1.77.26,55.06,7.76,2,.27.27,0a2,2,0,0,0,1.62-.83l2.49-3.42,31.15-42.72a2,2,0,0,0,.27-1.84l-6.44-18.41-48.2-137.19a2,2,0,0,0-1.65-1.32Z" fill="url(#aw)"/><path d="M1014.18,879.37,983,922.09l-2.49,3.43-2-.27-55.05-7.76-3.09-.45-.57,1a28.86,28.86,0,0,1,.22-8.5c.1-.62.25-1.19.35-1.81a61.51,61.51,0,0,1,4-10.54q4.11-9.21,8.3-18.42c2.22-5,4.69-10.24,9-13a11.57,11.57,0,0,1,12.43-.05,16.21,16.21,0,0,1,3.87,3.54,76.45,76.45,0,0,1,5.45,8.32,25.11,25.11,0,0,0,5.64,6.67,9.91,9.91,0,0,0,5.41,2.37,10.46,10.46,0,0,0,6.51-1.93,18.64,18.64,0,0,0,3.1-2.66,58.16,58.16,0,0,0,4.49-5.64c.83-1.18,1.7-2.36,2.61-3.49a38.27,38.27,0,0,1,16.5-11.87Z" fill="url(#ax)"/><path d="M829.27,810.55a37.1,37.1,0,0,1-7.44,17c-5.81,7.62-13.31,12.77-21.54,16.54-1.34.65-2.73,1.26-4.12,1.81a155.78,155.78,0,0,1-20.92,6.34c-5,1.25-10.42,2.8-13.22,7.62-2.93,5.09-2.1,12.45-4.81,17.32a10.57,10.57,0,0,1-1.62,2.14,11.86,11.86,0,0,1-1.83,1.4c-4.62,2.56-11.16,1.28-14.51,5.94-3.55,5-.45,12.48-1.17,18.94-1,8.86-9.8,14.35-17.57,13.47a23.09,23.09,0,0,1-8.54-2.76l-24.25-73.18,55,10.91,4.3.87.62-.86L783,803.25v0l1-1.45,3.41.68Z" fill="url(#ay)"/><path d="M992.19,855.83c-13.21,3.9-23-12.73-31.55-21.26-4.32-4.31-9.41-8.21-15.19-9.2a19.34,19.34,0,0,0-15.33,4.27c-10.73,8.46-13.6,23.46-14,37.5-.21,7.24,1.48,17-2.85,23-4.48,6.26-11.45.56-17.15.88-12,.67-10.15,17.93-15.9,25.94a17.41,17.41,0,0,1-13.6,7.43c-6,.12-10.71-4.21-15.64-7.49-4.33-2.88-9.19-5-14.2-3.23-4,1.37-6.95,5-9.29,8.73-5.06,8.17-9.32,21.23-20.18,16.7-6.56-2.73-11.83-7.19-19.08-7.41-6.65-.2-13.26,2.55-18.77,6.68-12.41,9.31-18.52,25.62-24,40.71-1.09,3,2.85,5.31,3.95,2.29,5-13.77,10.42-29,21.45-37.94,5-4,11-6.8,17.24-6.69,6.56.12,11.58,4.49,17.5,7,4.61,2,9.52,2,13.74-1.1,3.45-2.58,5.8-6.68,8-10.59s4.26-8.54,7.55-11.53c4.39-4,9.36-2.26,13.81.66,4.73,3.11,9.23,7.13,14.79,8A20.23,20.23,0,0,0,877.62,926,23.48,23.48,0,0,0,887,913.41c1.56-4.84,2-11.59,5.35-15.36,4.31-4.83,11.36.59,16.49.15,5.54-.48,9.32-5.61,10.79-11.4,1.87-7.39.64-15.67,1.07-23.27s1.72-15.44,5.37-21.88c3.56-6.29,9.47-11.46,16.24-11.49s12.56,5.1,17.3,10.16c9.36,10,19.55,24.59,34,20.32C996.38,859.82,994.94,855,992.19,855.83Z" fill="#fff"/><polygon points="807.28 998.46 806.3 1000.05 803.06 1000.13 777.85 939.06 775.97 934.46 764.31 906.3 753.77 880.76 742.77 854.08 747.07 854.95 747.69 854.09 757.22 877.22 768.88 905.48 780.19 932.85 782.12 937.49 807.28 998.46" fill="#355bb7"/><polygon points="895.57 958.57 894.06 961.06 890.95 960.92 877.38 926.09 875.59 921.49 861.1 884.32 851.64 860.02 832.63 811.18 835.32 811.71 837.4 809.07 856.36 857.82 865.41 881.08 879.64 917.64 881.59 922.59 881.6 922.64 895.57 958.57" fill="#355bb7"/><polygon points="983.03 922.09 980.54 925.52 978.58 925.25 958.03 869.19 943.71 830.24 943.71 830.19 941.85 825.19 932.61 799.96 932.56 799.91 929.91 792.67 929.91 792.62 922.81 773.35 926.84 774.13 928.03 772.32 947.75 825.94 947.75 826 950.08 832.34 969.12 884.18 983.03 922.09" fill="#355bb7"/><polygon points="923.53 917.49 920.44 917.04 919.87 918 919.22 919.06 912.33 897.17 910.84 892.4 899.19 855.29 871.21 766.16 873.29 763.52 875.22 763.9 902.23 849.8 914.35 888.29 916.11 893.97 916.12 894.01 920.44 907.69 923.53 917.49" fill="#355bb7"/><polygon points="835.62 958.78 832.11 958.61 831.29 959.94 824.27 937.15 822.45 931.33 796.17 845.94 782.99 803.25 782.99 803.2 784.02 801.75 787.43 802.43 800.29 844.13 805.87 862.19 808.23 869.86 825.49 925.88 827.36 931.9 827.36 931.96 835.62 958.78" fill="#355bb7"/><path d="M878.58,831.53l-2.12-1.28q1.24-2.81,2.48-5.59a2.74,2.74,0,0,0-1-3.41,2.12,2.12,0,0,0-3,1.12l-2.44,5.5-3.44-2.09a2.11,2.11,0,0,0-3,1.12,2.78,2.78,0,0,0,1,3.41l3.43,2.08c-.44,1-.89,2-1.33,3a2.75,2.75,0,0,0,1,3.4,2.13,2.13,0,0,0,3-1.11l1.29-2.92,2.13,1.29a2.11,2.11,0,0,0,3-1.12A2.78,2.78,0,0,0,878.58,831.53Z" fill="#fff"/><path d="M777.51,982.3c-.46-.38-1-.64-1.42-1l.54-1.09a2.73,2.73,0,0,0-1-3.4,2.13,2.13,0,0,0-3,1.11l-.41.83a31.2,31.2,0,0,0-4.7-2.16c-1.11-.39-2.44.69-2.63,2a2.64,2.64,0,0,0,1.71,3l.58.21.18.06a11.5,11.5,0,0,1,1.14.49c.52.24,1,.52,1.53.79l-1.23,2.46a2.75,2.75,0,0,0,1,3.41,2.14,2.14,0,0,0,3-1.12l1.14-2.28.13.1.49.41a2.24,2.24,0,0,0,1.6.63,2.19,2.19,0,0,0,1.53-.85A2.84,2.84,0,0,0,777.51,982.3Z" fill="#fff"/><path d="M781,875.51a19.31,19.31,0,0,0-2-1.8l1.17-2.48a2.75,2.75,0,0,0-1-3.41,2.14,2.14,0,0,0-3,1.12l-1.17,2.5a16.15,16.15,0,0,0-3.46-1.09,2.27,2.27,0,0,0-2.63,1.95c-.19,1.3.49,2.79,1.71,3a14.48,14.48,0,0,1,2.24.59h.05l-1.22,2.6a2.75,2.75,0,0,0,1,3.41,2.14,2.14,0,0,0,3-1.12c.4-.87.81-1.74,1.22-2.61a2.75,2.75,0,0,0,.26.22c.32.29.63.59.94.89a2,2,0,0,0,3.12-.21A2.85,2.85,0,0,0,781,875.51Z" fill="#fff"/><path d="M989.55,876.78c-.73-.32-1.43-.74-2.15-1.11q1-2.64,2-5.28a2.78,2.78,0,0,0-1-3.41,2.12,2.12,0,0,0-3,1.12l-2,5.25c-.75-.49-1.52-1-2.25-1.5a2,2,0,0,0-1.72-.14,2.42,2.42,0,0,0-1.26,1.26,2.87,2.87,0,0,0-.12,2,2.93,2.93,0,0,0,1.1,1.45c.81.6,1.66,1.12,2.5,1.67l-1.3,3.46a2.78,2.78,0,0,0,1,3.41,2.12,2.12,0,0,0,3-1.12l1.29-3.47c.63.32,1.25.69,1.89,1a2.15,2.15,0,0,0,1.72.14,2.35,2.35,0,0,0,1.26-1.26C991,879,990.71,877.3,989.55,876.78Z" fill="#fff"/><path d="M835.65,844.2c-1.66-1.39-3.39-2.8-5.45-3.27a6.21,6.21,0,0,0-6.08,1.94A19.44,19.44,0,0,0,821,848.1a37.06,37.06,0,0,0-1.69,4.63c-.57-.41-1.12-.84-1.69-1.23a5.78,5.78,0,0,0-3.7-1.22,5.59,5.59,0,0,0-3.6,2,19.23,19.23,0,0,0-3.63,6.93,31.19,31.19,0,0,0-1.48,8.5,2.37,2.37,0,0,0,2.35,2.38c1.3-.09,2-1.32,2.07-2.69.15-3.81,1.4-8.52,3.64-11.34a2.5,2.5,0,0,1,.69-.62l.18-.06.15,0a6,6,0,0,1,2.18,1.3l5.84,4.27c1,.74,2.47,0,3-1.12a2.78,2.78,0,0,0-1-3.41l-1.2-.87a1,1,0,0,1,0-.1,29.17,29.17,0,0,1,1.59-4.52,19.22,19.22,0,0,1,2.14-4l.3-.36.09-.12,0,0,.44-.35.09-.05.31-.13.4-.07h.35l.32,0a5.12,5.12,0,0,1,.56.15l.23.07c-.15-.06-.15-.05,0,0a9.58,9.58,0,0,1,1,.55,14.32,14.32,0,0,1,1.77,1.35,2.06,2.06,0,0,0,3.12-.22A2.83,2.83,0,0,0,835.65,844.2Z" fill="#355bb7"/><path d="M934.7,795.7c-1.66-1.39-3.39-2.8-5.45-3.27a6.21,6.21,0,0,0-6.08,1.94A19.44,19.44,0,0,0,920,799.6a37.06,37.06,0,0,0-1.69,4.63c-.57-.41-1.12-.84-1.69-1.23a5.78,5.78,0,0,0-3.7-1.22,5.59,5.59,0,0,0-3.6,2,19.23,19.23,0,0,0-3.63,6.93,31.19,31.19,0,0,0-1.48,8.5,2.37,2.37,0,0,0,2.35,2.38c1.3-.09,2-1.32,2.07-2.69.15-3.81,1.4-8.52,3.64-11.34a2.5,2.5,0,0,1,.69-.62l.18-.06.15,0a6,6,0,0,1,2.18,1.3l5.84,4.27c1,.74,2.47,0,3-1.12a2.79,2.79,0,0,0-1-3.41l-1.2-.87a1,1,0,0,1,0-.1,29.17,29.17,0,0,1,1.59-4.52,19.22,19.22,0,0,1,2.14-4l.3-.36.09-.12,0,0,.44-.35.09-.05.31-.13.4-.07h.35l.32,0a5.12,5.12,0,0,1,.56.15l.23.07c-.15-.06-.15-.05,0,0a9.58,9.58,0,0,1,1,.55,14.32,14.32,0,0,1,1.77,1.35,2.06,2.06,0,0,0,3.12-.22A2.83,2.83,0,0,0,934.7,795.7Z" fill="#355bb7"/><path d="M737.85,926.37a23.77,23.77,0,0,1,2-4.77" fill="none" stroke="#355bb7" stroke-linecap="round" stroke-linejoin="round" stroke-width="2"/><path d="M746,914.26a32.75,32.75,0,0,1,9.11-5.38c7.53-2.94,15.57-3.48,23.43-4.87a51.34,51.34,0,0,0,14.21-4.38" fill="none" stroke="#355bb7" stroke-linecap="round" stroke-linejoin="round" stroke-width="2" stroke-dasharray="2.88 2.88"/><path d="M796.64,897.27a27.46,27.46,0,0,0,3.73-3.14" fill="none" stroke="#355bb7" stroke-linecap="round" stroke-linejoin="round" stroke-width="2"/><path d="M839.69,881.29a18.89,18.89,0,0,0,3.85,2.92" fill="none" stroke="#355bb7" stroke-linecap="round" stroke-linejoin="round" stroke-width="2"/><path d="M852.75,886.68a17.16,17.16,0,0,0,4.81-.74c6.14-1.89,11.33-7.4,13.44-14.27.9-2.94,1.34-6.24,3.23-8.48,3-3.51,7.92-2.79,12.19-2.79,5.39,0,11.21-2,14.26-7.07,2-3.33,2.53-7.47,3.3-11.4s2-8.06,4.82-10.46c2.27-1.93,5.18-2.42,8-3.08" fill="none" stroke="#355bb7" stroke-linecap="round" stroke-linejoin="round" stroke-width="2" stroke-dasharray="3.09 3.09"/><path d="M921.29,826.74a8.08,8.08,0,0,0,3.4-3.49" fill="none" stroke="#355bb7" stroke-linecap="round" stroke-linejoin="round" stroke-width="2"/><path d="M837.63,867.06a6.67,6.67,0,0,0,4.34,1.59" fill="none" stroke="#355bb7" stroke-linecap="round" stroke-linejoin="round" stroke-width="2"/><path d="M849.45,862.92a13.63,13.63,0,0,1,2.86-3.49c2.66-2.09,6.15-1.78,9.36-2.08l.27,0" fill="none" stroke="#355bb7" stroke-linecap="round" stroke-linejoin="round" stroke-width="2" stroke-dasharray="3.05 3.05"/><path d="M866.44,855.82a6,6,0,0,0,2.84-4" fill="none" stroke="#355bb7" stroke-linecap="round" stroke-linejoin="round" stroke-width="2"/><path d="M270.72,775.59,91.93,884.21c-13.89,8.44-31.13,2.38-38.5-13.53L3.33,762.53c-7.37-15.91-2.09-35.66,11.81-44.1L193.93,609.82c13.89-8.45,31.13-2.39,38.5,13.52L282.54,731.5C289.91,747.41,284.62,767.15,270.72,775.59Z" fill="#1f224d"/><path d="M280.52,796.74,101.73,905.35c-13.9,8.44-31.14,2.39-38.51-13.53L13.12,783.67C5.75,767.76,11,748,24.93,739.58L203.72,631c13.9-8.44,31.14-2.39,38.51,13.53l50.1,108.15C299.7,768.55,294.41,788.29,280.52,796.74Z" fill="url(#az)"/><path d="M123.84,627.17c-7.06-5.57-16-6.53-24.43-3.74-16.14,5.38-29.41,21.9-30.23,41-.45,10.53,2.73,21.06,9.16,28.57,3.69,4.3,9.94-2.26,6.24-6.58-9-10.46-9.07-27.22-1.3-39.44,7.13-11.23,22.65-20.5,34.14-13,7.5,4.88,11.46,14,15.23,22.39,2.4,5.35,9.92.81,7.51-4.55C136,642.54,131.53,633.24,123.84,627.17Z" fill="#1f224d"/><polygon points="125.25 891.07 112.94 898.54 36.14 732.77 48.45 725.29 125.25 891.07" fill="url(#ba)"/><polygon points="94.78 803.36 66.6 820.48 51.65 788.2 79.83 771.08 94.78 803.36" fill="url(#bb)"/><line x1="59.13" y1="804.34" x2="87.31" y2="787.22" fill="url(#bc)"/><polygon points="77.05 787.03 64.74 794.51 55.51 774.57 67.82 767.09 77.05 787.03" fill="url(#bd)"/><polygon points="270.85 802.61 258.54 810.09 181.75 644.31 194.06 636.83 270.85 802.61" fill="url(#be)"/><polygon points="240.39 714.9 212.21 732.02 197.26 699.75 225.44 682.63 240.39 714.9" fill="url(#bf)"/><line x1="204.73" y1="715.88" x2="232.91" y2="698.76" fill="url(#bg)"/><polygon points="222.66 698.58 210.35 706.06 201.11 686.12 213.42 678.64 222.66 698.58" fill="url(#bh)"/><ellipse cx="1023.46" cy="625.25" rx="56.53" ry="64.73" fill="url(#bi)"/><path d="M1023.46,560.51a50,50,0,0,1,19.11,3.82c29.38,12.09,44.64,49.16,34.09,82.81-8.29,26.41-30,42.86-53.2,42.86a50,50,0,0,1-19.11-3.83C975,674.09,959.71,637,970.26,603.37c8.29-26.41,30-42.86,53.2-42.86m0-2v0c-24.65,0-46.8,17.79-55.11,44.26-10.84,34.56,5,72.8,35.24,85.25a52,52,0,0,0,19.87,4c24.65,0,46.8-17.79,55.1-44.26,10.84-34.56-5-72.8-35.23-85.26a52,52,0,0,0-19.87-4Z" fill="url(#bj)"/><ellipse cx="1023.46" cy="625.25" rx="64.09" ry="45.21" transform="translate(192.34 1489.92) rotate(-77.56)" fill="url(#bk)"/><ellipse cx="1023.46" cy="625.25" rx="63.87" ry="19.59" transform="translate(127.67 1422.73) rotate(-73.1)" fill="url(#bl)"/></g></svg>