<svg xmlns="http://www.w3.org/2000/svg" xmlns:xlink="http://www.w3.org/1999/xlink" viewBox="0 0 1080 1080"><defs><clipPath id="a"><rect x="-36.13" y="-36.13" width="1152.26" height="1152.26" fill="none"/></clipPath><clipPath id="g"><rect x="697.15" y="278.18" width="97.94" height="650.92" fill="none"/></clipPath><clipPath id="i"><rect x="803.63" y="343.58" width="66.79" height="537.29" fill="none"/></clipPath><clipPath id="k"><rect x="550.78" y="343.69" width="56.23" height="550.52" fill="none"/></clipPath><clipPath id="m"><rect x="395.86" y="335.05" width="48.54" height="554.47" fill="none"/></clipPath><clipPath id="o"><rect x="295.68" y="278.18" width="40.76" height="650.92" fill="none"/></clipPath><clipPath id="q"><rect x="148.13" y="335.05" width="81.72" height="521.08" fill="none"/></clipPath><clipPath id="x"><rect x="-196.83" y="-196.83" width="1473.66" height="1473.66" fill="none"/></clipPath><linearGradient id="as" x1="465.96" y1="799.42" x2="592.6" y2="799.42" gradientTransform="matrix(1, 0, 0, -1, 0, 1560)" gradientUnits="userSpaceOnUse"><stop offset="0" stop-color="#591919"/><stop offset="1" stop-color="#d93d3d"/></linearGradient><linearGradient id="au" x1="313.07" y1="813.13" x2="524.53" y2="813.13" xlink:href="#as"/><linearGradient id="aw" x1="544.59" y1="575.1" x2="677.42" y2="575.1" gradientTransform="matrix(1, 0, 0, -1, 0, 1560)" gradientUnits="userSpaceOnUse"><stop offset="0"/><stop offset="0.02" stop-color="#050302"/><stop offset="0.15" stop-color="#291b11"/><stop offset="0.29" stop-color="#462f1d"/><stop offset="0.43" stop-color="#5d3f27"/><stop offset="0.59" stop-color="#6d492e"/><stop offset="0.77" stop-color="#775032"/><stop offset="1" stop-color="#7a5233"/></linearGradient><linearGradient id="az" x1="301.12" y1="575.26" x2="427.12" y2="575.26" xlink:href="#aw"/><linearGradient id="bf" x1="367.31" y1="1166.28" x2="610.71" y2="1166.28" gradientTransform="matrix(1, 0, 0, -1, 0, 1560)" gradientUnits="userSpaceOnUse"><stop offset="0" stop-color="#2f3273"/><stop offset="1" stop-color="#595fd9"/></linearGradient><linearGradient id="bk" x1="587.05" y1="1228.35" x2="661.95" y2="1228.35" gradientTransform="matrix(1, 0, 0, -1, 0, 1560)" gradientUnits="userSpaceOnUse"><stop offset="0" stop-color="#ba7d4e"/><stop offset="0.23" stop-color="#d38e59"/><stop offset="0.5" stop-color="#e99d62"/><stop offset="0.76" stop-color="#f6a668"/><stop offset="1" stop-color="#faa96a"/></linearGradient><linearGradient id="cf" x1="490.04" y1="1343.23" x2="603.39" y2="1405.4" gradientTransform="matrix(1, 0, 0, -1, 0, 1560)" gradientUnits="userSpaceOnUse"><stop offset="0" stop-color="#3b2719"/><stop offset="0.66" stop-color="#511d19"/><stop offset="0.87" stop-color="#591919"/></linearGradient><linearGradient id="ch" x1="478.76" y1="1316.4" x2="589.61" y2="1316.4" gradientTransform="matrix(1, 0, 0, -1, 0, 1560)" gradientUnits="userSpaceOnUse"><stop offset="0" stop-color="#ba7d4e"/><stop offset="1" stop-color="#faa96a"/></linearGradient><linearGradient id="ck" x1="505.5" y1="1295.15" x2="520.27" y2="1295.15" xlink:href="#cf"/><linearGradient id="cm" x1="549.23" y1="1298.27" x2="561.12" y2="1298.27" xlink:href="#cf"/><linearGradient id="co" x1="567.2" y1="1333.8" x2="577.83" y2="1333.8" xlink:href="#cf"/><linearGradient id="cq" x1="521.3" y1="1349.81" x2="531.81" y2="1349.81" xlink:href="#cf"/><linearGradient id="cs" x1="569.81" y1="1343.76" x2="584.01" y2="1343.76" xlink:href="#cf"/><linearGradient id="cu" x1="328.93" y1="1155.3" x2="534.76" y2="1268.16" gradientTransform="matrix(1, 0, 0, -1, 0, 1560)" gradientUnits="userSpaceOnUse"><stop offset="0" stop-color="#bf6c06"/><stop offset="0.2" stop-color="#ca7206"/><stop offset="0.52" stop-color="#d57807"/><stop offset="0.87" stop-color="#d97a07"/></linearGradient></defs><title>onboarding0</title><g clip-path="url(#a)"><polygon points="958.65 287.04 907.01 690.75 907.01 690.75 878.85 910.96 803.74 857.94 787.52 869.67 697.26 935.39 589.72 863.8 516.74 934.43 443.76 863.8 383.81 903.71 336.22 935.39 229.85 857.94 154.74 910.96 124.87 677.52 74.94 287.04 188.03 352.01 313.07 272.1 426.16 342.09 516.74 272.53 549.82 297.92 607.32 342.09 720.41 272.1 843.75 350.94 845.46 352.01 958.65 287.04" fill="#fff"/></g><g clip-path="url(#a)"><path d="M907,690.75,878.85,911l-75.11-53-16.22,11.73c4.8-17.81,20.27-32.64,34.36-44.59,10.67-9.07,21.33-18,29.44-29.45S865,771.3,870.21,758.5C879.6,734.92,888,709.42,907,690.75" fill="#76989c" stroke="#000" stroke-miterlimit="10"/></g><g clip-path="url(#a)"><path d="M172.66,473.64a27.53,27.53,0,0,1-4.26-19.95c2.24-13,11.73-22.51,22-30.84a36.63,36.63,0,0,0,3.52-6.18c5.44-13.34,4.37-28.38,11.63-41.08,6.72-11.63,18.45-19.31,31-24.54,14.83-6.08,31.26-9.39,47.16-11.31,32.43-3.73,66.25.86,94,18.25a102.72,102.72,0,0,1,30.09,28.27c8.54,12.38,12.38,26,15.47,40.33,1.71,7.68,3.31,15.36,6.3,22.62,3,7.46,7.78,13.76,12.16,20.48,3.84,5.76,7,12.16,7.47,19.1a33.91,33.91,0,0,1-5.55,19.63c-8.22,13-21.66,20.7-35.64,27.1-7.78,3.63-15.79,6.93-23.15,11.31a107.05,107.05,0,0,0-18.67,14.51c-11,10.35-20.91,22-33.5,30.72a85.58,85.58,0,0,1-42.89,14.62c-29.45,1.82-57.93-12.27-73.83-35.95-8-12-11.52-25.5-14.4-39.27-3-14.19-5.66-29.23-14.73-41.18-4.37-6-10.13-10.67-14.19-16.64" fill="#76989c"/></g><g clip-path="url(#a)"><path d="M881.84,467c-5.23,17.29-17,30.84-27.85,45.13s-21.23,30.52-18.24,48.76c2.77,17.61,14.93,32.86,14.51,51.11-.32,17.49-10.25,32.86-21.77,45.87-12,13.45-26.24,24.86-37.55,38.84-5.45,6.83-10.35,14.4-13.13,22.62-3,9.07-2.88,18.24-1.17,27.63,1.71,9.6,4.37,19.2,4,29.13a41.51,41.51,0,0,1-7,21.44c-8.33,12.27-22.3,20.49-36.81,24.33-39.26,10.45-77.25-11.21-114.37-19.85-19.21-4.48-40.12-6.29-58.79,1.07-16.22,6.4-28.17,19.31-43.85,26.56-15.9,7.47-33.4,5.66-48.23-3.2-15.36-9.17-26.24-23-35-37.87-9.17-15.36-17-31.79-29.34-45.13-11.2-12-28.7-19.53-35.21-35-6.93-16.21,2.88-33.28,14.94-44.59,12.91-12.16,30.09-19.21,42.78-31.69C440.88,621.3,445.37,607,450,592.81c4.16-12.59,8.65-26.14,19.31-35.1,12.38-10.35,28.81-9.81,44.17-7.68s34,6.51,47.69-3.42c12.06-8.74,15.26-25.49,11.63-38.83-4.26-16.22-18.35-28.59-32.75-37-14-8.22-29.87-13.23-43-22.73-12.8-9.28-20.16-23.36-14.83-38.62,5.77-16.43,21.34-26.67,35.43-36.27,7.25-4.8,14.51-9.93,20.27-16.33a46.55,46.55,0,0,0,11.2-24.75c1.71-11.31.64-22.83.85-34.25L607.43,342l113.09-70,123.33,78.85c-1.17,2.24-2.24,4.37-3.41,6.61-6.19,12.49-12.8,27.42-3.84,40.33,8.43,12,24.11,16.75,34.89,26.25,12.69,11.31,15.15,27.52,10.35,43" fill="#76989c" stroke="#000" stroke-miterlimit="10"/></g><g clip-path="url(#a)"><path d="M383.81,903.71l-47.59,31.68L229.85,857.94l-75.11,53.13L124.87,677.63a64,64,0,0,1,11,1.92,62.94,62.94,0,0,1,35,24c9.07,12.37,14.72,26.67,23.58,39.26a62.37,62.37,0,0,0,16.43,16.64c7.25,4.91,15.58,8,24.11,10.35,29.88,8.11,70,8,87.38,37.24,8.54,14.29,9.18,31.15,16,46.09,6.93,15.25,20.91,25.92,33.18,37.34a146.26,146.26,0,0,1,12.27,13.23" fill="#76989c"/></g><g clip-path="url(#a)"><g clip-path="url(#g)"><polygon points="697.15 929.1 720.41 278.18 794.99 325.87 714.44 916.51 697.15 929.1" fill="#d7e5f4"/></g></g><g clip-path="url(#a)"><g clip-path="url(#i)"><polygon points="803.63 851.43 845.35 358.09 870.42 343.58 845.35 880.98 803.63 851.43" fill="#d7e5f4"/></g></g><g clip-path="url(#a)"><g clip-path="url(#k)"><polygon points="607 348.38 589.08 857.08 550.78 894.21 600.92 343.69 607 348.38" fill="#d7e5f4"/></g></g><g clip-path="url(#a)"><g clip-path="url(#m)"><polygon points="426.48 348.38 444.4 857.08 395.86 889.41 404.93 335.05 426.48 348.38" fill="#d7e5f4"/></g></g><g clip-path="url(#a)"><g clip-path="url(#o)"><polygon points="336.44 929.1 313.18 278.18 295.68 289.38 303.25 904.99 336.44 929.1" fill="#d7e5f4"/></g></g><g clip-path="url(#a)"><g clip-path="url(#q)"><polygon points="188.13 358.09 229.85 851.43 223.34 856.12 148.13 335.05 188.13 358.09" fill="#d7e5f4"/></g></g><g clip-path="url(#a)"><path d="M416.56,474.28c-1.07-20.38-26.25-25.29-35.42-40.86-3.2-5.34-3.63-11.63-3.95-17.71s-.85-11.74-2.77-17.29c-3.84-10.77-12.06-19.95-21.88-26.24-20.48-13.23-47.47-17.39-72-15.26a1.69,1.69,0,0,0-1.39-.32A97.24,97.24,0,0,0,257.8,361c-.64.11-1.17.32-1.81.43a2.14,2.14,0,0,0-.85.43,63.67,63.67,0,0,0-12.81,6.61c-9.28,6.4-16.32,15.58-18.56,26.46-1.39,6.62-1.07,13.34-1.81,20.06a43.29,43.29,0,0,1-6.19,18.35c-6.08,10.14-14.41,19.52-15.05,31.79-.53,11.31,7.37,18.25,16.54,24,4.27,2.67,8.64,5.23,12.06,9a31.65,31.65,0,0,1,7,14.3c2.56,10.67,2.13,21.66,5,32.32a47.51,47.51,0,0,0,18,25.72c19.32,14.08,46.2,11.73,64-3.52,16.64-14.41,25.5-35.21,45.13-46.63,10.77-6.29,23.15-10.24,33-18,8.21-6.93,15.57-16.86,15-28m-9.07,14.51c-6.51,9.92-17.28,15.36-27.85,20.48-10.13,4.91-19.95,10-27.95,17.93-7.25,7-13,15.36-19.2,23.15s-13.23,15.36-22.41,20.06a47.13,47.13,0,0,1-34.89,3,44.68,44.68,0,0,1-24.64-19c-5.66-9.07-6.51-19.52-7.68-29.76-1.07-9.61-2.35-19.74-8.54-27.64-6-7.78-15.68-11.09-22.83-17.49-9.28-8.43-6.4-20.49-.75-30.09,6-10.14,13.66-18.78,15.37-30.62s.1-24,6.93-34.67c5.87-9.18,15.69-15.37,26.14-19,24.75-6.5,52.28-5.86,76.18,3.42,11,4.27,21.34,10.67,28.38,19.95a43.05,43.05,0,0,1,7.36,14.83c1.39,5.65,1.28,11.42,1.81,17.18.54,5.44,1.6,10.77,4.48,15.57a37.67,37.67,0,0,0,8.22,9.18c6.72,5.76,15,10.13,20.91,16.75,6.94,8,6.72,18,1,26.78" fill="#bcd7f7"/></g><g clip-path="url(#a)"><path d="M310.83,384.77c-8.43-6.51-20.38-7.9-30.83-6.3a49.9,49.9,0,0,0-20,7.79c-6.18,1.81-11,6.61-13.87,12.38-5,10.24-2.34,21.65-.42,32.32,2,11.2,1.06,23.15,5.23,33.93,3.09,8.11,10,16,19.52,17.07,9.82,1.07,19.1-4.91,24.11-12.59,6.08-9.28,7-20.48,8.54-31.05.85-5.76,1.81-11.63,4.26-17.07,2.14-4.8,5.45-8.85,7.9-13.44,4.48-8.32,3.31-17.07-4.48-23m1.49,18.77c-1.6,3.84-4.16,7.26-6.4,10.89a46.26,46.26,0,0,0-5.23,12.8c-4.16,16.11-1.38,41.18-20.8,49-8.75,3.52-17-.43-21.77-7.79-5.33-8.11-5.33-18-6.08-27.31-1.06-11.31-5.44-22.94-3.62-34.25a24.58,24.58,0,0,1,4.26-10,2.14,2.14,0,0,0,2.46-.64,45.56,45.56,0,0,1,7.36-6.29,19.22,19.22,0,0,1,3.63-.32,2.42,2.42,0,0,0,2.66-2.16v-.08a3.08,3.08,0,0,0-.1-1c10.45-4.91,23-6.19,33.71-1.71,7.79,3.52,13.44,10.35,9.92,18.88" fill="#bcd7f7"/></g><g clip-path="url(#a)"><path d="M845.24,435.23c-6.61-8.54-16.32-14-24-21.44-9.61-9.18-12.59-21.45-10-34,2.66-13.23,10.67-24.75,18.35-35.85,1.6-2.34-1.92-5.22-3.52-2.77-7.58,11-15.37,22.3-18.67,35.21-3,11.63-2,24.54,5.33,34.56,6.3,8.54,15.9,14.19,23.69,21.34,3.94,3.63,7.46,7.79,9.38,12.81,2.25,6,1.82,12.37.11,18.45-3.73,12.59-13.12,22.41-22.08,32-8.54,9.18-16.54,18.67-20.27,30.62-7,22.3.74,45.88,2.34,68.28.86,11.2.11,22.73-5,33-4.27,8.53-11.52,15.36-19.42,21-15.68,11.2-34.46,18.67-48.12,32.43A47.35,47.35,0,0,0,720,706.44c-2,12.27,0,24.86-2.56,37.13-2.14,10.66-8.75,19.52-19.42,23.79-9.6,3.84-20.59,4-30.62,1.7-22.73-5.33-36.17-27.74-59.32-31.68-12.27-2.14-24.11,2.56-33.4,10-10.24,8.32-17,19.31-24.43,29.76C543,787.31,534.77,797,522.5,801.71c-10.56,4.06-23.36,3.74-30.83-5.44-6.83-8.32-7.9-19.74-11.84-29.34s-10.89-15.9-20.17-20.7c-8.85-4.59-18.78-7.47-26.67-13.44-9.6-7.26-12.06-18.35-7.79-29.13,9.07-22.72,36.17-32.64,45.56-55,2.56-6,3.09-12.06,3-18.46,0-6.93-.43-13.87,2.34-20.48,4.48-10.35,14.62-17.18,25.07-21.45,24.44-10,53.24-6.82,74.9-23.25,18.78-14.19,28.49-37.77,23.47-60.28a62.64,62.64,0,0,0-16.21-30c-9.18-9.39-21.24-14.62-33.08-20.17-11.41-5.33-23.47-12-29.23-23.36-5.55-11.1-1.07-22,6.72-30.84s17.39-16,24.33-25.6a82.5,82.5,0,0,0,14-32.65,77.83,77.83,0,0,0-1.28-34.35c-.74-2.78-5-1.18-4.27,1.49,6.3,24-.32,50.68-17.39,69.45-7.78,8.54-17.39,15.69-23.79,25.4-6.29,9.49-7.25,20.69-1.49,30.62,13.23,23,44.7,24.75,62.41,43.21,17.29,17.92,20.91,44.59,8.75,66a58.9,58.9,0,0,1-27.42,24.54c-13,5.65-27.42,7.14-41.29,9.92-22.19,4.48-48.54,15.26-50.89,39.79-.64,7.15.43,14.41-.75,21.56a37.26,37.26,0,0,1-7.36,16c-7.25,9.6-17.17,16.75-25.71,25.18S419,700.57,418.37,712.73c-.53,10.35,5,19.21,13.77,24.86,8.42,5.55,18.24,8.54,27.1,13.34A38.67,38.67,0,0,1,471,760.32c3.31,4.26,5.23,9.38,6.83,14.51,3.09,9.7,5.33,20.37,13.66,27.52,8.53,7.36,20.8,7.47,31.15,3.95,25.82-8.75,33.61-35.85,51.85-52.81,9.39-8.75,21.87-14.62,35.21-11.42,11.63,2.88,20.91,11,30.19,17.82,8.86,6.4,17.93,11.84,28.92,14,10.13,1.92,21.23,1.49,30.83-2.35a35.69,35.69,0,0,0,20.59-20.81c4.27-11.84,2.67-24.54,3.52-36.8.75-10.89,4-20.6,11.74-28.81,6.4-6.94,14.61-12.27,22.72-17.18,16.54-9.92,35.32-19.1,45.24-35.95,12.16-20.49,6.19-45,3.31-67-1.5-11.31-2.46-23.05.21-34.25,2.88-12.48,11-22.3,19.74-31.69,8.85-9.6,18.13-19.31,22.62-31.69,3.94-11,3.41-22.61-4.06-32.11" fill="#bcd7f7"/></g><g clip-path="url(#a)"><path d="M805.45,426.59c-8.86-14.73-24.44-26.14-29.24-42.89-5.65-19.85,11.1-37.24,14-56.23a34.52,34.52,0,0,0-.75-13.65c-.74-2.78-5-1.18-4.27,1.49,2.57,9.71-1.17,19.42-5,28.38-3.73,8.75-8.22,17.6-9.39,27.1-2.13,17.82,9.92,31.47,20.81,44.6,5.33,6.4,10.77,13,13.65,20.8,3.31,8.86,1.71,17.6-2.77,25.82-4.8,8.75-11.74,16.43-16.33,25.28-5.22,10.25-6,21.66-6.61,32.87-.64,10.88-1.49,22.19-7.58,31.68a44.05,44.05,0,0,1-23.47,17.61,43.34,43.34,0,0,1-51.21-20.81c-10.13-19.42.22-40.86,3.74-60.6,1.7-9.71,1.81-20-2.46-29S686.7,443.34,680,436a50.26,50.26,0,0,1-9.07-12.59,38.41,38.41,0,0,1-3.41-17.29c.42-12,5.44-23.25,10.88-33.82,9.81-19,22.19-39.69,15.36-61.66A33.52,33.52,0,0,0,686.59,298c-1.92-2.14-5.65.42-3.73,2.56,16.43,18.67,4.8,44.17-5,62.84-10.56,20.06-22.51,44.38-8.85,65.93,5.65,9,14.3,15.58,20.7,24,6.61,8.75,8.75,18.67,7.46,29.34-2.45,20.48-13.65,41.39-6.5,62.09,6.18,18.25,25.28,31.79,45.55,31.26,21-.53,39.59-14.94,44.92-34.14,3.2-11.42,2.45-23.36,4-35a52.28,52.28,0,0,1,4.8-17,100.34,100.34,0,0,1,8.32-13.33c5.76-8.11,11.95-16.75,13.12-26.78,1.07-8.22-1.49-16.11-5.86-23.26" fill="#bcd7f7"/></g><g clip-path="url(#a)"><path d="M329.29,878c-7.47-6.94-17.71-11.1-24.12-19.1-3.62-4.59-5-10.24-7-15.58A32.11,32.11,0,0,0,290,831.26c-16-14.72-40.43-11.73-60.6-14.72-11.84-1.81-22.4-6.08-29.76-15.36-7-8.75-10.67-19.42-14.62-29.66-4.37-11.31-9.49-23.37-19.52-31.26-8.86-6.94-21.23-10.67-32.12-6.19a2.23,2.23,0,0,0,1.49,4.2l.11,0c9.93-4.05,20.91-.21,28.6,6.3,8.53,7.14,13,17.81,16.85,27.74,3.74,9.6,7,19.41,12.91,28.05a44.93,44.93,0,0,0,23.9,18c19.85,6.29,42.25,1.6,61.35,10.66a30.1,30.1,0,0,1,11,8.33c3.41,4.26,4.91,9.28,6.72,14.29a33.62,33.62,0,0,0,7.79,12.81,76.37,76.37,0,0,0,11.41,8.85c4.48,3,9.18,6.08,12.81,10.14a35.48,35.48,0,0,1,2.77,43.63c-1.71,2.35,1.81,5.12,3.52,2.88a40.11,40.11,0,0,0-5.33-52" fill="#bcd7f7"/></g><g clip-path="url(#a)"><path d="M891.65,773.33c-2,18.25-18.14,30.3-31.9,41.29-13.12,10.46-26.46,22.62-28.17,39.8-.85,8.53,1.39,16.75,7.47,23.15,2,2.13,4.91-1.28,3-3.42-11.63-12-5-30.72,4.69-41.71,11.31-12.91,27.1-21.34,38.2-34.46,5.87-6.94,10.24-14.94,11.2-23.79.32-2.89-4.27-3.74-4.48-.86" fill="#bcd7f7"/></g><g clip-path="url(#x)"><path d="M680.27,700.06c-5-12.15-13.51-22.79-22.24-32.89-9.28-10.78-19.38-20.88-29.34-31.11-5.59-5.59-11.6-11.32-18.42-15.55a2.07,2.07,0,0,0-1.09-.82l-.68-.28a48,48,0,0,0-9.69-4.23c-9.14-2.73-18.56-1.77-27.43,1a64.83,64.83,0,0,0-31.65,15.28,63.48,63.48,0,0,0-18.29,28.52c-3.82,12.42-.68,26.2-5.73,38.21-4,9.68-13,16.1-21.42,22s-17.88,12-23.88,20.74c-12.83,18.43-10.51,45.17,9.28,58.4a42.38,42.38,0,0,0,30.56,7c9.83-1.77,17.88-7.09,24.84-13.64,15-14.06,25.92-34.52,48.85-37.93,25.38-3.69,51,9.14,76,.41,23.88-8.06,28.93-34.25,20.33-55M663.76,747.4c-20.33,11.88-46.53,1.91-68.36,1.37-11.19-.27-22.11,1.77-31.52,7.64-7.78,4.91-14.06,11.87-20.06,18.56C532,788.34,518.3,804.44,497.7,800.89a36.84,36.84,0,0,1-25-16.78c-5.59-9.28-5.87-21.15-2.18-31.11,7.23-19.38,28.65-26.34,42.43-40.53,7.64-7.91,10.65-17.46,11.33-28.24.68-11.6,1.36-22.38,7-32.89a59,59,0,0,1,12.55-15.83,2.73,2.73,0,0,0,1.5-.4c8.6-5.19,17.74-10.65,27.56-13.65a61.83,61.83,0,0,1,32.48,2.73,55,55,0,0,1,9.82,6.82c9.69,8.33,18.42,17.88,27.16,27A232.25,232.25,0,0,1,667,687.64c6.55,9.69,11.6,20.6,11.6,32.34-.13,11-5,21.69-14.87,27.42" fill="#bcd7f7"/></g><g clip-path="url(#a)"><path d="M845.67,345.93l-125.15-80L607.75,335.69l-90.9-69.78-91,69.78L313.07,265.91l-125.15,80L68.21,277.11l82.26,643.24,79.27-56L336.11,941.8l107-71.27,73.61,71.27,73.62-71.27,107,71.27,106.37-77.46L883,920.46l82.26-643.24Zm28.91,555.75-64.44-45.56-6.51-4.58-6.4,4.69-100.08,73L596.55,862.1l-7.47-4.91-6.4,6.19-65.94,63.91-65.93-64-6.4-6.19L436.94,862,336.33,929,236.25,856l-6.4-4.7-6.51,4.59L158.9,901.68,81.55,296.85l100.72,57.94,5.86,3.3,5.77-3.62,119.28-76.29L420,344.33l6.51,4.05,6.08-4.69L516.74,279l84.18,64.65,6.08,4.69,6.51-4.05,106.8-66.15,119.38,76.18,5.66,3.63,5.87-3.31,100.71-57.93Z" fill="#465a5c"/></g><g clip-path="url(#a)"><path d="M686.17,403.54c-17.71,0-32.12,13.66-32.12,30.62,0,0-3.31,22.83,32.12,62.95,0,0,25.39-29,31-55.16v-.11a30.15,30.15,0,0,0,1.07-7.68c0-16.85-14.3-30.62-32.11-30.62m-2.88,45c-10.35,0-18.68-8-18.68-17.82s8.33-17.82,18.68-17.82,18.67,8,18.67,17.82-8.43,17.82-18.67,17.82" fill="#d93d3d"/></g><g clip-path="url(#a)"><path d="M606,559.31c-14.51,0-26.24,11.2-26.24,25.07,0,0-2.78,18.67,26.24,51.43,0,0,20.81-23.69,25.39-45.13v-.11a24.78,24.78,0,0,0,.86-6.29c0-13.77-11.74-25-26.25-25m-2.45,36.81c-8.43,0-15.26-6.51-15.26-14.62S595.16,567,603.59,567s15.25,6.51,15.25,14.51-6.82,14.62-15.25,14.62" fill="#d93d3d"/></g><g clip-path="url(#a)"><path d="M263.14,396c-14.51,0-26.25,11.2-26.25,25.07,0,0-2.77,18.67,26.25,51.42,0,0,20.8-23.68,25.39-45.13v-.1a24.78,24.78,0,0,0,.85-6.3c0-13.76-11.73-25-26.24-25m-2.46,36.81c-8.42,0-15.25-6.51-15.25-14.51s6.83-14.51,15.25-14.51,15.26,6.5,15.26,14.51-6.83,14.51-15.26,14.51" fill="#d93d3d"/></g><g clip-path="url(#a)"><path d="M258,492.63h-.22a1.08,1.08,0,0,1-1-1.15s0-.09,0-.13h0c.43-2.67,1-5.34,1.39-8a1.14,1.14,0,0,1,1.37-.86h0a1.07,1.07,0,0,1,.86,1.24v0c-.53,2.67-1,5.34-1.39,7.9a1.06,1.06,0,0,1-1.06,1" fill="#fff" stroke="#fff" stroke-miterlimit="10" stroke-width="2"/></g><g clip-path="url(#a)"><path d="M468.3,691.93h0a83.3,83.3,0,0,1-16.21-1.71,1.06,1.06,0,0,1-.9-1.21c0-.06,0-.12,0-.18h0a1.14,1.14,0,0,1,1.37-.85h0a78,78,0,0,0,15.68,1.71,1.12,1.12,0,1,1,0,2.24h0m16-1.6a1.44,1.44,0,0,1-1.18-.86,1.15,1.15,0,0,1,.84-1.38h0a68.9,68.9,0,0,0,13.44-4.27l1.49-.75a1.19,1.19,0,0,1,1.5.54,1.07,1.07,0,0,1-.43,1.44l-.11.05h0c-.53.21-1.06.53-1.6.75a78.2,78.2,0,0,1-13.87,4.48h-.1m-47.16-5.12c-.21,0-.32,0-.43-.11a67.62,67.62,0,0,1-14.08-8.43,1.14,1.14,0,1,1,1.39-1.81h0A72,72,0,0,0,437.58,683a1.23,1.23,0,0,1,.64,1.49,1.31,1.31,0,0,1-1.07.75m76.39-7.69a1.17,1.17,0,0,1-1.17-1.17,1.14,1.14,0,0,1,.53-1A122,122,0,0,1,527.3,668a1.15,1.15,0,0,1,1.48.69l0,.06a1.06,1.06,0,0,1-.62,1.37h0A104.77,104.77,0,0,0,514,677.42c-.11.1-.22.1-.43.1m62-10.45a1.12,1.12,0,1,1-.11-2.24h.64a41.92,41.92,0,0,0,14.4-3.84,1.2,1.2,0,1,1,1.2,2.07l-.13.06a44.87,44.87,0,0,1-15.26,4h-.74m-16-.32h0c-5.33-.32-10.66-.43-16-.22a1.17,1.17,0,1,1-.21-2.34,137,137,0,0,1,16.21.21,1.18,1.18,0,1,1,0,2.35M412,665.68a.94.94,0,0,1-.85-.43A104.84,104.84,0,0,1,401.73,652a1.15,1.15,0,0,1,1.92-1.28h0a111.36,111.36,0,0,0,9.18,12.91,1.18,1.18,0,0,1-.11,1.6.92.92,0,0,1-.75.43m-17.07-27.1a1.18,1.18,0,0,1-1.07-.64c-1.6-3.09-3.09-6.19-4.58-9.28l-2.56-5.12a1.19,1.19,0,1,1,2.07-1.19l.06.12h0l2.56,5.12c1.49,3.1,3.09,6.19,4.59,9.18a1.15,1.15,0,0,1-.46,1.56l-.08,0h0a1.63,1.63,0,0,1-.53.21M380,610.2a1.14,1.14,0,0,1-1-.53,134.85,134.85,0,0,0-8.85-13.23,1.14,1.14,0,1,1,1.81-1.39h0A129.75,129.75,0,0,1,381,608.5a1.2,1.2,0,0,1-.43,1.6,3.41,3.41,0,0,1-.64.1M360.23,585a1,1,0,0,1-.75-.32,59.29,59.29,0,0,0-13-8.75,1.2,1.2,0,0,1-.42-1.6,1.16,1.16,0,0,1,1.38-.42A63.66,63.66,0,0,1,361,583a1.06,1.06,0,0,1,.2,1.49l-.09.11a1,1,0,0,1-.85.42m-28.38-14.19h-.32c-4.8-1.17-9.71-2.13-15.69-3.09a1.16,1.16,0,0,1-1-1.28,1.07,1.07,0,0,1,1.15-1l.13,0h.11c6,1,11,1.92,15.9,3.09A1.15,1.15,0,0,1,333,570v0a1.23,1.23,0,0,1-1.17.85M300.16,565H300a90.88,90.88,0,0,1-15.69-4.38,1.11,1.11,0,0,1-.74-1.39,1.1,1.1,0,0,1,1.38-.74c.11,0,.11,0,.22.1a82.21,82.21,0,0,0,15.25,4.27,1.07,1.07,0,0,1,.9,1.22,1,1,0,0,1,0,.17h0c0,.43-.43.75-1.07.75M271,552.59a1,1,0,0,1-.74-.32c-.54-.53-1.18-1.07-1.71-1.6a42.41,42.41,0,0,1-8.32-11.52,1.2,1.2,0,1,1,2.07-1.2l.06.13A39,39,0,0,0,270.18,549c.53.54,1.07,1,1.6,1.5a1.17,1.17,0,0,1,.11,1.6,2.63,2.63,0,0,1-.86.53m-14.51-28.06a1.25,1.25,0,0,1-1.17-1,41.65,41.65,0,0,1-.53-5.33c-.11-1.82-.11-3.42-.11-5.13s.11-3.84.21-5.86a1.24,1.24,0,0,1,1.18-1.07,1.06,1.06,0,0,1,1.07,1.06.37.37,0,0,1,0,.11h0c-.1,1.92-.21,3.84-.21,5.66s0,3.3.11,4.91.32,3.41.53,5.12a1.07,1.07,0,0,1-.83,1.26l-.13,0-.11.21" fill="#fff" stroke="#fff" stroke-miterlimit="10" stroke-width="2"/></g><g clip-path="url(#a)"><path d="M603.05,652.56a.77.77,0,0,1-.53-.11,1.17,1.17,0,0,1-.43-1.6h0A14.24,14.24,0,0,0,604,643.7a1.07,1.07,0,0,1,1.07-1.07h.11a1.17,1.17,0,0,1,1.17,1.17h0a18,18,0,0,1-2.24,8.21,1.65,1.65,0,0,1-1.07.54" fill="#fff" stroke="#fff" stroke-miterlimit="10" stroke-width="2"/></g><g clip-path="url(#a)"><path d="M604.12,552.38a1.17,1.17,0,0,1-1.17-1.07,70.46,70.46,0,0,1,.1-8.22,1.24,1.24,0,0,1,1.18-1.06,1.18,1.18,0,0,1,1.06,1.28,66.72,66.72,0,0,0-.1,8,1,1,0,0,1-.94,1.07Z" fill="#fff" stroke="#fff" stroke-miterlimit="10" stroke-width="2"/></g><g clip-path="url(#a)"><path d="M607.32,526.77H607a1.05,1.05,0,0,1-.77-1.29.3.3,0,0,1,0-.1h0a89,89,0,0,1,6.83-16.75,1.12,1.12,0,0,1,1.5-.53,1.11,1.11,0,0,1,.53,1.49.11.11,0,0,1-.11.11A91.73,91.73,0,0,0,608.28,526a.86.86,0,0,1-1,.75m16.75-31.37a1.17,1.17,0,0,1-1.17-1.17,1,1,0,0,1,.32-.75,96.53,96.53,0,0,1,12.69-12.8,1.15,1.15,0,0,1,1.61.11,1.14,1.14,0,0,1-.11,1.6h-.11A91.43,91.43,0,0,0,624.93,495a1,1,0,0,1-.86.42" fill="#fff" stroke="#fff" stroke-miterlimit="10" stroke-width="2"/></g><g clip-path="url(#a)"><path d="M651.28,472.68a1.06,1.06,0,0,1-1.07-1.06v-.12a1.14,1.14,0,0,1,.53-1c2.46-1.28,4.91-2.45,7.37-3.52a1.15,1.15,0,0,1,.85,2.14c-2.45,1.06-4.8,2.13-7.15,3.41a.77.77,0,0,1-.53.11" fill="#fff" stroke="#fff" stroke-miterlimit="10" stroke-width="2"/></g><g clip-path="url(#a)"><path d="M714.65,467.77a1.06,1.06,0,0,1-1.07-1.06.37.37,0,0,1,0-.11,1.12,1.12,0,0,1,1-1.07,41,41,0,0,1,8.21-.53,1.17,1.17,0,0,1,0,2.34h-.43a58.22,58.22,0,0,0-7.46.54l-.22-.11" fill="#fff" stroke="#fff" stroke-miterlimit="10" stroke-width="2"/></g><g clip-path="url(#a)"><path d="M830,507.67a46.65,46.65,0,0,1-5.54-.32,1.17,1.17,0,1,1,.21-2.34h0a46.38,46.38,0,0,0,15.36-.86,1.15,1.15,0,0,1,.54,2.24h0A44.31,44.31,0,0,1,830,507.67m-20.91-3.73h-.32A110.42,110.42,0,0,1,794,497.75a1.11,1.11,0,0,1-.53-1.49,1.12,1.12,0,0,1,1.49-.54h0a104.56,104.56,0,0,0,14.4,6,1.16,1.16,0,0,1,.77,1.44l0,.05a1.07,1.07,0,0,1-1.07.75m45.67-3.31a1.12,1.12,0,0,1-1-.53,1.17,1.17,0,0,1,.32-1.6h0a62.58,62.58,0,0,0,11.95-9.82,1.13,1.13,0,1,1,1.7,1.5h0l-.1.1a66.25,66.25,0,0,1-12.38,10.14.82.82,0,0,1-.53.21m-74-10.35a4.94,4.94,0,0,1-.53-.1L778.24,489c-3.73-2.24-7.68-4.59-11.63-6.83a1.21,1.21,0,0,1-.43-1.6,1.16,1.16,0,0,1,1.6-.42h0c4,2.24,7.9,4.58,11.63,6.93l1.92,1.18a1.19,1.19,0,0,1,.43,1.6,2.27,2.27,0,0,1-1.07.42m96.24-11.95a1.43,1.43,0,0,1-.64-.21,1.18,1.18,0,0,1-.32-1.6h0l.64-.85c2.35-3.42,4.69-6.94,6.93-10.35l1.28-1.92a1.15,1.15,0,0,1,1.92,1.28h0l-1.28,1.92c-2.24,3.41-4.58,6.93-6.93,10.35l-.64,1a1.05,1.05,0,0,1-1,.42m-123.87-3.41a.89.89,0,0,1-.53-.11,88.9,88.9,0,0,0-14.62-5.44,1.2,1.2,0,0,1,.43-2.35h.21a93.39,93.39,0,0,1,14.94,5.55,1.11,1.11,0,0,1,.53,1.49h0a1.06,1.06,0,0,1-1,.85m141.58-22.73a2,2,0,0,1-.75-.21,1.07,1.07,0,0,1-.31-1.48l.1-.12A97.06,97.06,0,0,1,903,439.71a16.86,16.86,0,0,1,1.39-1.28,1.13,1.13,0,1,1,1.49,1.71h0l-1.28,1.28a92.94,92.94,0,0,0-9.07,10.35c-.1.32-.42.42-.85.42m23-21.33a1.19,1.19,0,0,1-1.17-1.18,1.14,1.14,0,0,1,.53-1c4-2.56,8.54-5.12,13.87-7.89a1.2,1.2,0,1,1,1.2,2.07L932,423a153.57,153.57,0,0,0-13.66,7.79c-.1.11-.32.11-.64.11m28-14.73a1.18,1.18,0,0,1-1.19-1.18,1.22,1.22,0,0,1,.65-1.06c4.38-2.13,9.39-4.48,14.19-6.93a1.2,1.2,0,1,1,1.2,2.07l-.13.06h0c-4.8,2.56-9.82,4.91-14.19,6.94a4.94,4.94,0,0,1-.53.1m27.84-14.93a1.19,1.19,0,0,1-1.17-1.18,1.14,1.14,0,0,1,.53-1c2.46-1.6,4.8-3.31,6.94-4.91,1.81-1.49,3.63-3,5.44-4.58a1.13,1.13,0,1,1,1.71,1.49h0l-.11.11c-1.81,1.7-3.63,3.3-5.55,4.8-2.13,1.7-4.59,3.41-7,5a.93.93,0,0,1-.75.22m22.94-21.45a1.14,1.14,0,0,1-.64-.21,1.08,1.08,0,0,1-.31-1.48l.1-.12h0a80.85,80.85,0,0,0,8-13.34,1.15,1.15,0,0,1,2.13.85.1.1,0,0,1-.1.11,85.76,85.76,0,0,1-8.32,13.66.86.86,0,0,1-.86.53m13.76-28.27h-.32a1.26,1.26,0,0,1-.85-1.39,82.66,82.66,0,0,0,2.78-15.36,1.17,1.17,0,1,1,2.34.21h0a79.81,79.81,0,0,1-2.88,15.79c0,.43-.43.75-1.07.75m2.67-31.26a1.16,1.16,0,0,1-1.17-1.07,21.55,21.55,0,0,0-.43-2.77,72.05,72.05,0,0,0-3-12.38,1.17,1.17,0,0,1,2-1.17.62.62,0,0,1,.11.42,75.85,75.85,0,0,1,3,12.7,27.75,27.75,0,0,1,.42,2.88,1.21,1.21,0,0,1-1,1.39h-.1m-204.1-29h-4.91c-2.78,0-5.44-.11-8.11,0a1.18,1.18,0,0,1,0-2.35h15.79a1.06,1.06,0,0,1,1.17.95h0V290a1.18,1.18,0,0,1-1.17,1.18h-2.77m194.39-1a1.11,1.11,0,0,1-1-.54,88.76,88.76,0,0,0-8.75-12.91,1.14,1.14,0,1,1,1.81-1.38,84.49,84.49,0,0,1,9,13.23,1.2,1.2,0,0,1-.42,1.6H1003M827.1,289.17a1.19,1.19,0,0,1-1.17-1.17,1.07,1.07,0,0,1,.85-1.07,54,54,0,0,0,14-6.61,1.15,1.15,0,1,1,1.28,1.92h0a52.93,52.93,0,0,1-14.51,6.82.73.73,0,0,1-.43.11M854,273a1,1,0,0,1-.85-.42,1.17,1.17,0,0,1,.1-1.6h0l2.88-2.35c3.1-2.56,6.19-5.23,9.5-7.68a1.14,1.14,0,0,1,1.39,1.81c-3.2,2.46-6.3,5-9.39,7.58l-2.88,2.34a1.13,1.13,0,0,1-.75.32m129.2-7.14a1,1,0,0,1-.74-.32,88.3,88.3,0,0,0-12.59-9.18,1.17,1.17,0,0,1,1.17-2,87.38,87.38,0,0,1,12.91,9.39,1.17,1.17,0,0,1,.11,1.6.89.89,0,0,1-.86.54M879.49,254.5a1.2,1.2,0,0,1-1.07-.64,1.16,1.16,0,0,1,.46-1.57l.08,0a89.93,89.93,0,0,1,14.83-6.09,1.19,1.19,0,1,1,.91,2.19l-.17.06h0a84.55,84.55,0,0,0-14.4,6,2,2,0,0,1-.64.11m76.71-4.7a.66.66,0,0,1-.43-.1,93.39,93.39,0,0,0-15-4.17,1.2,1.2,0,0,1-1-1.38,1.16,1.16,0,0,1,1.28-1h0a87.32,87.32,0,0,1,15.47,4.26,1.07,1.07,0,0,1,.7,1.34,1,1,0,0,1-.06.16,1.06,1.06,0,0,1-1,.85M909.47,245a1.17,1.17,0,0,1-1.17-1.17,1.24,1.24,0,0,1,1-1.18,99.37,99.37,0,0,1,15.89-1,1.2,1.2,0,0,1,1.18,1.18h0a1.17,1.17,0,0,1-1,1.17h-.22a94.26,94.26,0,0,0-15.57,1h-.11" fill="#fff" stroke="#fff" stroke-miterlimit="10" stroke-width="2"/></g><g clip-path="url(#a)"><path d="M772.8,297.28a1.26,1.26,0,0,1-1-.53,1.17,1.17,0,0,1,.21-1.6h0a24.78,24.78,0,0,1,7.47-3.85,1.19,1.19,0,0,1,1.49.64h0a1.15,1.15,0,0,1-.69,1.48l-.05,0h0a27.47,27.47,0,0,0-6.83,3.52.64.64,0,0,1-.64.32" fill="#fff" stroke="#fff" stroke-miterlimit="10" stroke-width="2"/></g><g clip-path="url(#a)"><path d="M88.38,481.11a1.57,1.57,0,0,1-.64-.22,1.17,1.17,0,0,1-.32-1.6c1.49-2.24,3-4.58,4.27-6.72a1.12,1.12,0,1,1,2,1h0a.1.1,0,0,1-.1.11h0c-1.28,2.24-2.78,4.59-4.27,6.93a1.12,1.12,0,0,1-1,.54" fill="#fff"/></g><g clip-path="url(#a)"><path d="M107.16,795.31a.78.78,0,0,1-.54-.11,68,68,0,0,1-13.44-9.92,1.17,1.17,0,0,1,0-1.6,1.28,1.28,0,0,1,1.6-.11,67.28,67.28,0,0,0,13,9.61,1.2,1.2,0,0,1,.42,1.6,1.67,1.67,0,0,1-1.06.53m-23.8-22.4a1.12,1.12,0,0,1-1-.54,61.64,61.64,0,0,1-7-15.15,1.12,1.12,0,0,1,2.14-.64,62.48,62.48,0,0,0,6.72,14.62,1.18,1.18,0,0,1-.32,1.6h0a.84.84,0,0,1-.54.11m-9.49-31a1.16,1.16,0,0,1-1.17-1.07c-.11-1.49-.11-3.09-.11-4.59,0-3.62.21-7.57.53-12.05a1.2,1.2,0,0,1,1.28-1.07,1.08,1.08,0,0,1,1.08,1.06s0,.08,0,.11h0a118.21,118.21,0,0,0-.53,11.85c0,1.49,0,3,.1,4.48a1.15,1.15,0,0,1-1,1.27h-.16m2.35-32.76h-.11a1.06,1.06,0,0,1-1-1.14.68.68,0,0,1,0-.14h0c.64-5.22,1.28-10.77,1.6-16.32a1,1,0,0,1,.93-1.07h.24A1.09,1.09,0,0,1,79,691.5s0,.07,0,.11h0c-.32,5.55-1,11.2-1.6,16.43a1.06,1.06,0,0,1-1.06,1.07h-.11m1.38-32.75a1.16,1.16,0,0,1-1.17-1.07,55.88,55.88,0,0,0-2.88-13c-.32-.86-.64-1.82-1-2.67a1.15,1.15,0,0,1,.69-1.48h.06a1.06,1.06,0,0,1,1.37.61v0c.32,1,.75,1.81,1.07,2.77a65.13,65.13,0,0,1,3,13.44,1.19,1.19,0,0,1-1,1.28h0l-.22.11M65.65,645.84a1.12,1.12,0,0,1-1-.54,156.77,156.77,0,0,0-9.92-12.91,1.13,1.13,0,1,1,1.6-1.6.39.39,0,0,1,.11.22,159.05,159.05,0,0,1,10.13,13.12,1.16,1.16,0,0,1-.32,1.6c-.1.11-.42.11-.64.11M45.06,620.23a.94.94,0,0,1-.85-.43,136.37,136.37,0,0,1-9.82-13.44,1.15,1.15,0,0,1,1.92-1.28.11.11,0,0,0,.11.11A116.36,116.36,0,0,0,46,618.31a1.07,1.07,0,0,1-.09,1.51l-.12.09a1.16,1.16,0,0,1-.75.32M28.42,592.06a1.05,1.05,0,0,1-1.07-.85c-.53-1.6-.85-3.2-1.28-4.91a49.07,49.07,0,0,1-1-9.6v-2.24a1.25,1.25,0,0,1,1.18-1.07,1.08,1.08,0,0,1,1.07,1.07.45.45,0,0,1,0,.11v2.13a51.12,51.12,0,0,0,.86,9.07c.32,1.49.74,3.09,1.17,4.59a1.08,1.08,0,0,1-.66,1.36l-.09,0c0,.32-.1.32-.21.32m1.07-32.43a.35.35,0,0,1-.32-.11,1.06,1.06,0,0,1-.78-1.29l0-.09h0A87.37,87.37,0,0,1,35.25,543a1.12,1.12,0,1,1,2,1,.09.09,0,0,1-.1.1,91.43,91.43,0,0,0-6.72,14.73.89.89,0,0,1-.9.86h-.06m16-28.59a1.18,1.18,0,0,1-1.17-1.18,1.91,1.91,0,0,1,.21-.74l3.84-4.8c2-2.46,4.27-5,6.83-7.9a1.14,1.14,0,0,1,1.6-.11,1.15,1.15,0,0,1,.11,1.61h0c-2.56,2.88-4.81,5.44-6.83,7.78-1.28,1.5-2.56,3.1-3.74,4.7a1,1,0,0,1-.85.64m21.76-24.65a1,1,0,0,1-.74-.32,1.15,1.15,0,0,1,0-1.6h0c3.52-3.84,7.36-7.89,11-12.16a1.13,1.13,0,1,1,1.7,1.49h0c-3.62,4.27-7.46,8.43-11.09,12.27a1.06,1.06,0,0,1-.86.32" fill="#fff" stroke="#fff" stroke-miterlimit="10" stroke-width="2"/></g><g clip-path="url(#a)"><path d="M130.31,803.21h-.11a68.16,68.16,0,0,1-8-1.71,1.07,1.07,0,0,1-.77-1.3.29.29,0,0,1,0-.09,1.07,1.07,0,0,1,1.3-.77l.09,0a47,47,0,0,0,7.79,1.6,1.08,1.08,0,0,1,1,1.15s0,.09,0,.14a1.23,1.23,0,0,1-1.28,1" fill="#fff"/></g><g clip-path="url(#a)"><path d="M940.09,570.94a.94.94,0,0,1-.85-.43l-5.34-6a1.13,1.13,0,1,1,1.71-1.49h0l5.33,6a1.06,1.06,0,0,1,0,1.51l-.1.09a1,1,0,0,1-.75.32" fill="#fff" stroke="#fff" stroke-miterlimit="10" stroke-width="2"/></g><g clip-path="url(#a)"><path d="M932.09,804.59a1.06,1.06,0,0,1-1.07-1.06.41.41,0,0,1,0-.11,1.12,1.12,0,0,1,.53-1,77.94,77.94,0,0,0,13.55-9.28,1.13,1.13,0,1,1,1.5,1.7h0a74.3,74.3,0,0,1-14,9.61,1,1,0,0,1-.53.1m25.07-21.66a1.14,1.14,0,0,1-.64-.21,1.07,1.07,0,0,1-.31-1.48l.1-.12c.64-.85,1.17-1.6,1.7-2.45a70.07,70.07,0,0,0,6.3-11.85,1.15,1.15,0,0,1,2.2.7,1.11,1.11,0,0,1-.07.16A79.6,79.6,0,0,1,959.93,780c-.53.85-1.17,1.7-1.81,2.56a1.35,1.35,0,0,1-1,.42m12.7-30.62h-.22a1.07,1.07,0,0,1-1-1.14s0-.09,0-.14a74.8,74.8,0,0,0,.86-11c0-1.81-.11-3.62-.22-5.44a1.2,1.2,0,0,1,1.07-1.28h0a1.27,1.27,0,0,1,1.28,1.07c.11,1.92.21,3.73.21,5.65a80.66,80.66,0,0,1-.85,11.31,1.24,1.24,0,0,1-1.17,1m-2.67-33.07a1.07,1.07,0,0,1-1.07-.75c-1.07-3.3-2.35-6.72-3.63-10-.74-1.92-1.49-3.73-2.13-5.65a1.21,1.21,0,0,1,1-1.39,1.07,1.07,0,0,1,1.17.54c.64,1.92,1.39,3.73,2.14,5.65,1.28,3.31,2.56,6.72,3.73,10.14a1.14,1.14,0,0,1-.69,1.47l0,0h-.43m-10-31.79a1.17,1.17,0,0,1-1.17-1.07,32,32,0,0,1-.32-4.59,27.85,27.85,0,0,1,.32-4.37,33.64,33.64,0,0,1,1.92-7.9,1.13,1.13,0,1,1,2.24.32h0c0,.11-.11.32-.11.43a35.56,35.56,0,0,0-1.81,7.47,26.12,26.12,0,0,0-.22,4,30.52,30.52,0,0,0,.32,4.38,1.26,1.26,0,0,1-1.17,1.28h0M966.33,656a.82.82,0,0,1-.53-.1,1.22,1.22,0,0,1-.43-1.6h0l1-1.71a115.34,115.34,0,0,0,6.83-12.91,1.15,1.15,0,0,1,2.14.85,129.49,129.49,0,0,1-6.94,13.13l-1,1.7a1.17,1.17,0,0,1-1.07.64M977.43,625a1.16,1.16,0,0,1-1.17-1.06,35.34,35.34,0,0,0-5-15.26,1.21,1.21,0,0,1,.43-1.6h0a1.2,1.2,0,0,1,1.6.43h0a36.36,36.36,0,0,1,5.33,16.21,1.06,1.06,0,0,1-.82,1.27,1,1,0,0,1-.35,0h0m-15.15-29.12a1,1,0,0,1-.85-.43c-1.18-1.39-2.35-2.67-3.52-4L950.33,583a1.08,1.08,0,0,1,0-1.51.44.44,0,0,1,.11-.09h0a1.06,1.06,0,0,1,1.51,0l.09.1h0l7.57,8.54c1.18,1.28,2.35,2.67,3.52,4.05a1.17,1.17,0,0,1-.1,1.6,1.55,1.55,0,0,1-.75.22" fill="#fff" stroke="#fff" stroke-miterlimit="10" stroke-width="2"/></g><g clip-path="url(#a)"><path d="M908.62,812.81a1.2,1.2,0,0,1-1.18-1.18,1.13,1.13,0,0,1,1-1.06,69.3,69.3,0,0,0,7.79-1.82,1.15,1.15,0,1,1,1,2.07l-.16.07h-.1a72.86,72.86,0,0,1-8,1.81l-.32.11" fill="#fff" stroke="#fff" stroke-miterlimit="10" stroke-width="2"/></g><g clip-path="url(#a)"><path d="M592.6,957.16H545.23L498.5,746.87,466,673.79h0v-.11l22.83-90.58L524.74,564c10.14,39.15,32.54,127.06,40.87,174.11,11,61.78,27,219,27,219" fill="url(#as)"/></g><g clip-path="url(#a)"><path d="M524.53,562.73l-43.64,4.48S476.31,622,466,673.68v.11h0c-2.35,12.06-5.12,23.9-8.11,34.78-16,57.93-88.87,245.6-88.87,245.6l-4.91-1.7-45.56-16-5.44-1.92,63.59-227.25-3.84-167.72a28.59,28.59,0,0,0,8,1.39c14.29,1.39,28.06,6.19,42,9.71s28.81,5.55,42.57,1.39c8.65-2.67,16.75-7.69,25.72-8.54,4.8-.43,9.49.32,14.29.85s9.6,1,14.19-.32c0,0,1.92,6.94,4.91,18.46" fill="url(#au)"/></g><g clip-path="url(#a)"><path d="M626.21,975.08c52.7-13.87,51.21,37.56,51.21,37.56L544.59,1002l4.27-44.81H592.6Z" fill="url(#aw)"/></g><g clip-path="url(#a)"><path d="M524.85,563.9,488.79,583,466,673.58c10.24-51.64,14.93-106.48,14.93-106.48l43.64-4.48c.11.53.21.85.32,1.28" fill="#591919"/></g><g clip-path="url(#a)"><path d="M427.12,1030.56,363.53,1033l-62.41-50.68,17.5-45.88,45.55,16,10.89,35.84c45.45.32,52.06,42.36,52.06,42.25" fill="url(#az)"/></g><g clip-path="url(#a)"><path d="M397.57,632.82q-2.13-39.52-4.48-79.06c-.22-3.41-.43-6.72-.64-10a1.06,1.06,0,0,0-1.15-1h-.13a1.07,1.07,0,0,0-1,1.17h0c1.7,26.24,3.2,52.38,4.58,78.63,1.39,25.92,3.53,52.06.64,78-2.77,25.28-10.88,49.61-18.77,73.62C368.44,799,360.12,824,351.9,848.87s-16.64,50-25,75l-3.09,9.28c-.43,1.39,1.6,2.35,2.13,1,8.32-25.17,16.64-50.25,25.07-75.43l25-75.43c8-24,16.43-48,20.48-73.08,3.84-25.6,2.35-51.64,1.07-77.35" fill="#591919"/></g><g clip-path="url(#a)"><path d="M540.85,892.4q-4.64-30.25-10.35-60.17c-3.84-19.74-8.1-39.48-13.23-58.9s-10.88-38.94-17.6-57.93a530.94,530.94,0,0,0-23.36-55.8c-1.07-2.24-2.24-4.48-3.42-6.72-.64-1.28-2.77-.53-2.13.85A539.57,539.57,0,0,1,494.87,709c6.93,18.88,13,38.09,18.24,57.4s9.82,39.37,13.77,59.21,7.47,39.9,10.56,59.85,6.08,40,8.85,60.07l1.07,7.47a1.19,1.19,0,0,0,2.35-.21c-2.78-20.17-5.66-40.23-8.86-60.39" fill="#591919"/></g><g clip-path="url(#a)"><path d="M528.9,465.64v.53a44.7,44.7,0,0,1-59.83-20.45l0,0a10.38,10.38,0,0,1-.53-1.18c3.41-2.35,6.83-4.59,10.24-6.93,4.8,8,8.53,13.33,10,14.83,4.59,4.37,22.3,13,40.11,13.23"/></g><g clip-path="url(#a)"><path d="M533.81,340.7a6.71,6.71,0,0,0-1.49.86c-.54-2.14-1.07-4.38-1.6-6.62,1,1.81,2,3.84,3.09,5.76" fill="#4c7cd4"/></g><g clip-path="url(#a)"><path d="M600.28,400.77c-12.48,10.24-23,36.17-44.6,55.69a34,34,0,0,1-10.45,6.4,44.15,44.15,0,0,1-13.87,2.67v.64c-.64,15-1.71,30.3-3.52,40.76,4.91,1.6,1.28,12.8-2.46,16.43,4.48,1.7,6.4,7.46,4.8,11.95s-6,7.57-10.56,8.85-9.49.85-14.29.32-9.5-1.39-14.3-.85c-9.07.85-17.07,5.87-25.71,8.53-13.77,4.16-28.6,2.14-42.57-1.38s-27.64-8.33-42-9.71a29.39,29.39,0,0,1-8-1.39,7.91,7.91,0,0,1-5.23-5.76c-.43-2.67,1.6-5.66,4.38-5.55-3.31,0-5.13-4.16-4.38-7.36s2.88-5.87,4.27-8.86a16.57,16.57,0,0,0,1.49-5.12c-3.3-15.79-1.6-32.22,1.71-47.9,1.28-6,2.67-11.84,4.27-17.82.74-3.09,1.6-6.08,2.45-9.07,2.56-9.49,5.12-19,7.79-28.48,5.23-18.78,10.67-37.56,16.64-56.12,5.76-18,11.95-36,19.42-53.35,6.08-14.29,13.23-28.16,22.83-40.43-.1,0-.1-.11-.21-.11,6.72-15.15,27.53-20.81,27.53-20.81l3,5,26.89,44.92a28.22,28.22,0,0,1,4.37,4.37l.32.32.11.21a1.09,1.09,0,0,1,.43.54,77.44,77.44,0,0,1,6.93,10.77c1.82,3,3.63,6,5.34,9.07a251.67,251.67,0,0,1,19.73,46.2c1.92,6,3.52,11.95,5,18,1.49-2,3.2-4.37,5.12-7.15,1.39-2.13,3-4.59,4.59-7.36a28.17,28.17,0,0,1,8.85-9.6,23.59,23.59,0,0,1,18.67-3.2l2.14,2.13,18.35,18.14a.84.84,0,0,0,.42.21c7.47,4.7,6.62,25.18-5.65,35.21" fill="url(#bf)"/></g><g clip-path="url(#a)"><path d="M566.25,348.17a29.38,29.38,0,0,0-8.86,9.6c-1.6,2.78-3.09,5.12-4.59,7.36a11.36,11.36,0,0,1-1-12.37,3.26,3.26,0,0,0,1.92.64,6.73,6.73,0,0,0,4.8-2.35,15.71,15.71,0,0,0,4.38-9.39Z" fill="#ffa451"/></g><g clip-path="url(#a)"><path d="M439.39,338.68c3,27.31,18.67,62,31.79,85.88-3.62,1.71-7.25,3.31-10.88,4.91A409.29,409.29,0,0,1,439,338.68Z" fill="#2f3273"/></g><g clip-path="url(#a)"><path d="M665.15,281.7c-6.83,6.19-13.55,12.49-20.38,18.67a98.54,98.54,0,0,0-14.51,5.34,3.82,3.82,0,0,0-.85-.54l21-20.69c2.14-2,4.27-4.16,7.15-5.12s6.19-.32,7.58,2.34"/></g><g clip-path="url(#a)"><path d="M644.77,300.27c3.2-.86,6.4-1.6,9.6-2.14,3-.53,7.26,0,7.58,3.1.1,1.6-1.07,3.09-2.24,4.16a49.15,49.15,0,0,1-13.87,9.39,5.68,5.68,0,0,0-1.18.53,5.68,5.68,0,0,0,1.18-.53,4,4,0,0,1,4.37,2.88c.53,2.34-.85,4.69-2.77,6.08a18.27,18.27,0,0,1-6.62,2.45,6.39,6.39,0,0,1,2.35,8.74h0a6.68,6.68,0,0,1-5.12,3.2c2.77-.43,4.69,3.31,3.63,5.87s-3.74,4.16-6.19,5.44c-9.92,5.23-19.85,10.56-29.66,15.9l-.43-.22L587.05,347a180.09,180.09,0,0,1,19-31.37c3.1-4.05,6.4-8.11,11-10.46A13.82,13.82,0,0,1,629.3,305a2.35,2.35,0,0,1,.85.53,125.83,125.83,0,0,1,14.62-5.22" fill="url(#bk)"/></g><g clip-path="url(#a)"><path d="M552,352.76A6.27,6.27,0,0,1,549.6,347a10.38,10.38,0,0,1,1.5-3.95c-1.28-2.56-2.56-5.12-4.06-7.58,1.92-.53,3.74-1,5.66-1.38,3-.64,6.5-.86,8.64,1.28,1.6,1.6,1.92,4.16,1.6,6.4a16.35,16.35,0,0,1-4.38,9.39,6.18,6.18,0,0,1-4.8,2.35,3.87,3.87,0,0,1-1.81-.75" fill="#ffa451"/></g><g clip-path="url(#a)"><path d="M535.52,388.29a77.86,77.86,0,0,0-17.28,30.4,22.07,22.07,0,0,1,11.88-28.88l.06,0a23.17,23.17,0,0,1,5.34-1.49" fill="#2f3273"/></g><g clip-path="url(#a)"><path d="M527.84,465.85c-9,2.67-18.67,0-26.46-4.8-8.22-5.23-14.51-12.8-20.7-20.17-1-1.17-2.77.22-1.92,1.39,6.51,7.9,13.23,15.79,22,21.23,8.21,5.12,18.35,7.47,27.84,4.7,1.39-.64.64-2.78-.74-2.35" fill="#2f3273"/></g><g clip-path="url(#a)"><path d="M534.88,375a1.18,1.18,0,0,0-1.49.53l-6,9.39a1.07,1.07,0,0,0,.43,1.45l.1.05h0a1.19,1.19,0,0,0,1.5-.54l6-9.39a1,1,0,0,0-.28-1.37,1.15,1.15,0,0,0-.25-.12" fill="#2f3273"/></g><g clip-path="url(#a)"><path d="M529.76,370.58a1.18,1.18,0,0,0-1.5.53c-1.06,3.31-2.24,6.51-3.3,9.81a1.19,1.19,0,0,0,.53,1.5,1.08,1.08,0,0,0,1.45-.43s0-.07,0-.11c1.07-3.3,2.24-6.61,3.31-9.81a1.22,1.22,0,0,0-.53-1.49" fill="#2f3273"/></g><g clip-path="url(#a)"><path d="M522.93,367.16a1.18,1.18,0,0,0-1.49.53c-1,2.57-2,5.13-3,7.69a1.18,1.18,0,0,0,.53,1.49,1.07,1.07,0,0,0,1.45-.43s0-.07.05-.1l3-7.68a1.23,1.23,0,0,0-.53-1.5" fill="#2f3273"/></g><g clip-path="url(#a)"><path d="M595.69,359.16a1.16,1.16,0,0,0-1.6.11l-3.84,5.12a1.13,1.13,0,0,0,1.71,1.49l3.84-5.12a1.07,1.07,0,0,0,0-1.51l-.11-.09" fill="#2f3273"/></g><g clip-path="url(#a)"><path d="M590.46,355.64a1.19,1.19,0,0,0-1.6-.32l-4.26,3.84a1.08,1.08,0,0,0-.43.75,1.16,1.16,0,0,0,.21.85,1.2,1.2,0,0,0,1.6.32l4.27-3.84a1.08,1.08,0,0,0,.43-.75,2,2,0,0,0-.22-.85" fill="#2f3273"/></g><g clip-path="url(#a)"><path d="M584.6,350a1.08,1.08,0,0,0-1.34-.7l-.16.06L578,351.9a1.2,1.2,0,0,0-.64,1.5,1.07,1.07,0,0,0,1.34.7l.16-.06,5.12-2.56a1.29,1.29,0,0,0,.64-1.5" fill="#2f3273"/></g><g clip-path="url(#a)"><path d="M599.85,365.35a1.25,1.25,0,0,0-1.38,1,5.13,5.13,0,0,1-.22,1.28h0v.1l-.1.33-.32.64a.43.43,0,0,1-.11.21V369h0a1.82,1.82,0,0,1-.43.53c-.1.21-.32.32-.42.43l-.11.1h0s-.21.11-.21.22a1.15,1.15,0,0,0,1.28,1.92,8,8,0,0,0,3-5.45,1.05,1.05,0,0,0-.69-1.33.86.86,0,0,0-.27,0" fill="#2f3273"/></g><g clip-path="url(#a)"><path d="M607.11,370.15a1.2,1.2,0,0,0-1.5.53l-2.13,5.12a1.12,1.12,0,1,0,2,1c.74-1.7,1.38-3.41,2.13-5.12a1.11,1.11,0,0,0-.53-1.49h0" fill="#2f3273"/></g><g clip-path="url(#a)"><path d="M491.67,270.18c-8.11-9.92-16.22-20-24.33-30a1.19,1.19,0,0,0-1.92,1.39l24.33,29.87c1,1.17,2.88-.11,1.92-1.28" fill="#2f3273"/></g><g clip-path="url(#a)"><path d="M484.2,269.54l-8.53-7.79a1.14,1.14,0,0,0-1.5,1.71h0l8.54,7.79a1.17,1.17,0,0,0,1.6-.11,1.08,1.08,0,0,0,0-1.51l-.11-.09" fill="#2f3273"/></g><g clip-path="url(#a)"><path d="M518.13,510.66l-21.77,9c-1.38.54-.53,2.78.86,2.14l21.76-9c1.28-.53.54-2.77-.85-2.13" fill="#2f3273"/></g><g clip-path="url(#a)"><path d="M517.6,521.54l-15.8.75c-1.49.11-1.28,2.35.22,2.35l15.79-.75a1.19,1.19,0,0,0-.21-2.35" fill="#2f3273"/></g><g clip-path="url(#a)"><path d="M393.62,517.38l-14.19-4.59a1.2,1.2,0,0,0-.56,2.33l.13,0,14.19,4.59a1.27,1.27,0,0,0,1.39-1,1.31,1.31,0,0,0-1-1.39" fill="#2f3273"/></g><g clip-path="url(#a)"><path d="M391.06,525.92l-9.82-.75a1.2,1.2,0,0,0-.42,2.35l9.81.74a1.26,1.26,0,0,0,1.39-1,1.29,1.29,0,0,0-1-1.38" fill="#2f3273"/></g><g clip-path="url(#a)"><path d="M547.36,373.67a8,8,0,0,0-4.69-3.41,8.27,8.27,0,0,0-6.72,1.28c-.43-2.67-1.07-5.34-3.2-7.15s-5.45-2.56-7.9-.86a1.19,1.19,0,1,0,1.39,1.92c1.81-1.38,4.26-.32,5.65,1.28,1.6,2,1.82,4.81,2,7.26a1.28,1.28,0,0,0,1.28,1.07,1.08,1.08,0,0,0,.75-.43,5.94,5.94,0,0,1,8.32-1.07,6.17,6.17,0,0,1,2.13,3.31c.21,1.39,2.14-1.17,1-3.2" fill="#2f3273"/></g><g clip-path="url(#a)"><path d="M434.27,442a1.21,1.21,0,0,0-1.39-1,1.17,1.17,0,0,0-1,1.17c.75,8.54,1.39,17.08,2,25.61a1.07,1.07,0,0,0,1.15,1l.13,0a1.06,1.06,0,0,0,1-1.16h0Z"/></g><g clip-path="url(#a)"><path d="M537.55,213.85c.53-4.06,1.17-15.26-9.61-14.62-13.12.85-12,18.78-12,18.78-7.78-5.12-18.35,3.41-18.35,3.41l-3.41,3a38.82,38.82,0,0,0,.21-9.39c-.64-3.73-2.45-7.15-3.94-10.67s-2.46-7.47-1.39-11.09,3.95-6.09,6.51-8.86a50.68,50.68,0,0,0,11.2-19.2c1.07-3.52,1.81-7.15,3.41-10.46s4.06-6.4,7.58-7.57c4.16-1.39,8.64.21,13,0,8-.32,15.37-6.3,23.16-5,7,1.17,11.73,7.9,18.45,10.35,4.38,1.71,9.18,1.39,13.87,1.71s9.61,1.38,12.7,4.91c4.8,5.54,3,14.83,8.21,19.95,4.49,4.48,13,4.58,15.26,10.45,1.28,3.31-.1,7.15-2.56,9.71s-5.76,4.06-9,5.44c-6.3,2.67-13.66,5.44-19.63,2.24a14.3,14.3,0,0,1-1.6-1.06h0c-3.2-2.35-5.76-6-9.71-6.83-6.72-1.5-12.59,5.55-19.42,5.33-4.69-.1-9.39-3.63-13.76-1.71s-5.44,8.65-9.28,11.21" fill="url(#cf)"/></g><g clip-path="url(#a)"><path d="M589.61,206.06h0a226.82,226.82,0,0,1-5.44,23.58,150.61,150.61,0,0,1-9.28,25.07c-5.12,10.56-11.63,19.52-19.85,23.36-13.12,6.19-25.6-1.92-34.78-11.52a98.14,98.14,0,0,1-14.72-20.27L513,283.2l-1.71,3.94-.53,1.07a41.16,41.16,0,0,0-5.23-5.33L478.76,238l15.47-13.44,3.41-3S508.21,213,516,218.11c0,0-1.17-17.92,12-18.77,10.78-.64,10.14,10.56,9.61,14.61,3.84-2.56,4.69-9.17,9.17-11.09s9.07,1.6,13.76,1.71c6.83.1,12.81-6.94,19.42-5.34,3.84.85,6.4,4.38,9.71,6.83" fill="url(#ch)"/></g><g clip-path="url(#a)"><path d="M589.72,250.12c1,1.39,2.13,3,1.6,4.59s-2.35,2-4,2.24a21.91,21.91,0,0,1-12.48-2.24,150.61,150.61,0,0,0,9.28-25.07,31.74,31.74,0,0,0,5.55,20.48" fill="#ba7d4e"/></g><g clip-path="url(#a)"><path d="M520.26,266.55,513,283.3l-7.47-36.91a108.19,108.19,0,0,0,14.72,20.16" fill="url(#ck)"/></g><g clip-path="url(#a)"><path d="M560.7,268.05a21.73,21.73,0,0,1-9.07-13.55,1.18,1.18,0,0,0-2.35.21h0a24.59,24.59,0,0,0,9.92,15.15c1.18.75,2.67-1,1.5-1.81" fill="url(#cm)"/></g><g clip-path="url(#a)"><path d="M577.34,226.65a9.4,9.4,0,0,1-3,4.37,4.32,4.32,0,0,1-5.22.43c-.22-.11-.32-.32-.54-.43a3.41,3.41,0,0,1-1-1.17,5.56,5.56,0,0,1,.54-5,10.32,10.32,0,0,1,3.94-4.06,3.79,3.79,0,0,1,4.91,1c1.07,1.28.86,3.2.32,4.91" fill="url(#co)"/></g><g clip-path="url(#a)"><path d="M528.69,202.54c-3-1-5.65,1.17-7,3.63a1.06,1.06,0,0,0,.43,1.44l.1,0a1.2,1.2,0,0,0,1.5-.53c.74-1.28,2-2.67,3.73-2.56s2.24,1.6,2.13,3.09a9.73,9.73,0,0,1-1.81,4.8,9.5,9.5,0,0,1-1.6,1.92,5.89,5.89,0,0,1-1,.75c-.32.21-.75.64-1.17.64s-.43-.75-.32-1.07c.32-.85,1.38-1.28,2.13-1.71a1.17,1.17,0,0,0-1.17-2,.1.1,0,0,0-.11.1,5.89,5.89,0,0,0-2.77,2.56,3.32,3.32,0,0,0,.21,3.31c1.81,2.67,5.12,0,6.51-1.6a12.86,12.86,0,0,0,3.3-6.72c.33-2.35-.42-5.23-3.09-6.08" fill="url(#cq)"/></g><g clip-path="url(#a)"><path d="M583.21,215.77a18.42,18.42,0,0,0-11.31-3.2,2.29,2.29,0,0,0-2.14,2.42v0h0a2.28,2.28,0,0,0,2.42,2.14h1.31a1.4,1.4,0,0,1,.64.11,17,17,0,0,1,2.35.43c.21,0,.32.1.53.1l.32.11c.32.11.75.32,1.07.43a5.08,5.08,0,0,1,1.07.53l.53.32.21.11h0l.11.11h-.11a2.89,2.89,0,0,0,1.6.53,2.28,2.28,0,0,0,2.14-2.42v0a2.31,2.31,0,0,0-.75-1.7" fill="url(#cs)"/></g><g clip-path="url(#a)"><path d="M533.81,340.7c-1.06-1.92-2-3.95-3.2-5.87.64,2.24,1.17,4.49,1.6,6.62a285.14,285.14,0,0,1,5.44,29.45c-1-.64-2.24-.32-4,1.6,0,0,0-9.93-6.08-9.29,0,0-7.79-56.54-31-69.24,0,0-25.39-16.11-45.13,4.38a71.2,71.2,0,0,0-12.16,5c-12.59,47.26-18.57,96.24-27.85,144.35a497.83,497.83,0,0,0,48.87-18.35c3.62-1.6,7.25-3.2,10.88-4.91,2.67,4.81,5.12,9.18,7.47,13-3.42,2.35-6.83,4.69-10.25,6.94q-33,22.24-67.21,42.56a19.52,19.52,0,0,1-3.63,4.27c-5,4.38-11.84,5.12-18.67,4.8-1.92-.1-3.84-.21-5.65-.42l-1.39-.11h0c-9.5-1.07-19.1-2.13-28.17-5.23s-17.6-8.64-22.51-16.85a35.37,35.37,0,0,1-4.59-12.06c-1.49-7.47-1.38-15.36-.85-23.05.64-11.09,1.71-22.19,3.09-33.28a403.32,403.32,0,0,1,17.5-77,308.27,308.27,0,0,1,18-42.79c7.47-14.72,17-29.55,32-36.38,13-5.87,27.31-4.59,41.5-1.07,3.42.86,6.83,1.93,10.24,2.89,2.14.64,4.38,1.38,6.51,2.13h0a5.16,5.16,0,0,1,3.74.85,7.77,7.77,0,0,1,3.41,4.91c.75,3.63-.53,7.26-1.71,10.67-.85,2.24-1.6,4.59-2.34,6.83a70.67,70.67,0,0,1,80.65,50.25h.11c-4.16-14.3-9.92-28.7-17.5-38l.54-1.07.53.21a219.6,219.6,0,0,1,35.31,48c1.39,2.57,2.67,5,4.06,7.58a12.82,12.82,0,0,0-1.6,3.95,6,6,0,0,0,2.35,5.76,11.13,11.13,0,0,0,1,12.37c-2,3-3.84,5.45-5.34,7.47a228.88,228.88,0,0,0-13.87-31.9" fill="url(#cu)"/></g><g clip-path="url(#a)"><path d="M352,408.88c-1.17,18.13-2.45,36.38-3.63,54.52V464a146.84,146.84,0,0,1-32-2.67c-1.5-7.47-1.39-15.36-.86-23.05.64-11.09,1.71-22.19,3.1-33.28l1.28.1A120.71,120.71,0,0,1,352,408.88" fill="#995605"/></g><g clip-path="url(#a)"><path d="M427.55,247.77c-9.28,6.41-15.69,16.22-20.7,26.36-5.12,10.35-8.85,21.34-14.4,31.47s-12.91,19.74-23.26,24.86-23.79,5.23-32.54-2.24L336,328a307.06,307.06,0,0,1,18-42.79c7.47-14.72,17-29.55,32-36.38,13-5.87,27.42-4.59,41.5-1.07" fill="#bf6c06"/></g><g clip-path="url(#a)"><path d="M373.24,495.62l-1.38-.11a476,476,0,0,1,66-244.85c2.13.64,4.37,1.38,6.51,2.13a1.91,1.91,0,0,0-.75.21S402.48,324.59,390,390.74A660.06,660.06,0,0,0,378.9,496a48.82,48.82,0,0,1-5.66-.42" fill="#bf6c06"/></g><g clip-path="url(#a)"><path d="M350.3,417.52c-10.77-1.49-21.55-2.67-32.43-3.41-1.39-.11-1.71,2.13-.43,2.24,10.89.74,21.66,1.81,32.44,3.41,1.38.21,1.81-2,.42-2.24" fill="#995605"/></g><g clip-path="url(#a)"><path d="M435,253.11a430.11,430.11,0,0,0-41.29,88.45,440.85,440.85,0,0,0-20.49,95.27,424.08,424.08,0,0,0-1.92,54.52c0,1.49,2.35,1.28,2.24-.21a430.69,430.69,0,0,1,63.48-237c.86-1.39-1.17-2.35-2-1.07" fill="#995605"/></g><g clip-path="url(#a)"><path d="M418.05,446.22a1.06,1.06,0,0,0-1.15-1l-.13,0a1.07,1.07,0,0,0-1,1.16h0c.86,10.24,1.71,20.49,2.67,30.73a1.07,1.07,0,0,0,1.15,1l.13,0a1.06,1.06,0,0,0,1-1.16h0c-.85-10.25-1.71-20.49-2.67-30.73" fill="#995605"/></g><g clip-path="url(#a)"><path d="M446.33,277l-7.47,27c-.43,1.39,1.92,1.81,2.24.43l7.47-27c.42-1.49-1.82-1.92-2.24-.42" fill="#995605"/></g><g clip-path="url(#a)"><path d="M460.84,275.94l-7.9,22.51c-.53,1.39,1.6,2.35,2.13,1,2.67-7.47,5.23-15,7.9-22.51.43-1.39-1.6-2.35-2.13-1" fill="#995605"/></g><g clip-path="url(#a)"><path d="M459.24,446.54a1.21,1.21,0,0,0-1.61-.32l-6.4,3.41a1.18,1.18,0,0,0-.32,1.6,1.2,1.2,0,0,0,1.6.32l6.41-3.41a1.07,1.07,0,0,0,.42-1.45l-.1-.15" fill="#995605"/></g><g clip-path="url(#a)"><path d="M471.72,439.92a1.08,1.08,0,0,0-1.34-.7l-.16.06-6.4,3a1.16,1.16,0,0,0,.86,2.14l6.4-3a1.29,1.29,0,0,0,.64-1.5" fill="#995605"/></g><g clip-path="url(#a)"><path d="M465.74,436.4a1.19,1.19,0,0,0-1.6-.32l-6.4,4.38a1.18,1.18,0,0,0-.32,1.6,1.2,1.2,0,0,0,1.6.32l6.4-4.38a1.19,1.19,0,0,0,.32-1.6" fill="#995605"/></g><g clip-path="url(#a)"><path d="M332.91,357.67a1.25,1.25,0,0,0-1.38,1l-3,9.81a1.19,1.19,0,1,0,2.32.57l0-.14,3-9.82a1.2,1.2,0,0,0-1-1.38" fill="#995605"/></g><g clip-path="url(#a)"><path d="M329.82,374.42a1.18,1.18,0,0,0-1.49.53,19.83,19.83,0,0,0-1.07,10.88,1.27,1.27,0,0,0,1.28,1.07,1.2,1.2,0,0,0,1.07-1.28h0a17.28,17.28,0,0,1,.85-9.6,1.52,1.52,0,0,0-.64-1.6" fill="#995605"/></g><g clip-path="url(#a)"><path d="M337.61,367.91a1.26,1.26,0,0,0-1.39,1L334.94,377a1.19,1.19,0,1,0,2.32.56l0-.14,1.28-8.1a1.21,1.21,0,0,0-1-1.39" fill="#995605"/></g><g clip-path="url(#a)"><path d="M425.73,326.94a1.26,1.26,0,0,0-1.38,1L420.93,339a1.2,1.2,0,0,0,2.33.56.59.59,0,0,0,0-.14l3.41-11.09a1.39,1.39,0,0,0-1-1.39" fill="#995605"/></g><g clip-path="url(#a)"><path d="M419.12,350.09l-2.67,13.23a1.2,1.2,0,0,0,2.35.43l2.67-13.23a1.21,1.21,0,0,0-.88-1.45,1.2,1.2,0,0,0-1.44.88.7.7,0,0,0,0,.14" fill="#995605"/></g><g clip-path="url(#a)"><path d="M415.28,340.28l-2.56,11.09c-.32,1.49,1.92,1.82,2.24.43l2.56-11.1c.43-1.49-1.92-1.92-2.24-.42" fill="#995605"/></g><g clip-path="url(#a)"><path d="M367.27,958.76a31.18,31.18,0,0,0-23.58,8.75,2.27,2.27,0,0,0,3.52,2.88h0a25.72,25.72,0,0,1,19.2-7.26,2.3,2.3,0,0,0,2.67-1.81,2.13,2.13,0,0,0-1.64-2.53l-.17,0" fill="#fff"/></g><g clip-path="url(#a)"><path d="M372.07,973.7a29.11,29.11,0,0,0-20.17,5.86c-2.34,1.82.32,5.55,2.67,3.74a24.68,24.68,0,0,1,16.65-5,2.3,2.3,0,0,0,2.66-1.81,2.48,2.48,0,0,0-1.81-2.77" fill="#fff"/></g><g clip-path="url(#a)"><path d="M604.44,964.09a2.38,2.38,0,0,0-3-1.38,27,27,0,0,0-17.07,15.47,2.43,2.43,0,0,0,1.07,3.09,2.33,2.33,0,0,0,3.09-1.07,26.21,26.21,0,0,1,1.18-2.45c.21-.32.42-.75.64-1.07l.1-.1.11-.11.43-.53c.53-.75,1.06-1.39,1.6-2,.32-.32.64-.75,1-1.07l.43-.42.21-.22h0a24.06,24.06,0,0,1,4.27-3.09l.32-.21.42-.22c.43-.21.75-.32,1.18-.53.85-.32,1.7-.64,2.66-1a2.74,2.74,0,0,0,1.39-3.1" fill="#fff"/></g><g clip-path="url(#a)"><path d="M614.68,971.35a2.38,2.38,0,0,0-3-1.39,31.13,31.13,0,0,0-12.59,10.88,3,3,0,0,0-.54,1.71,2.29,2.29,0,0,0,2.42,2.14h0a2,2,0,0,0,1.6-.86,29.48,29.48,0,0,1,2.24-3,18.5,18.5,0,0,1,1.28-1.38l.64-.64s.53-.43.1-.11l.32-.32a34,34,0,0,1,3-2.35l1.6-1,.43-.21.32-.11.21-.1c.22-.11.32-.22.54-.22a2.59,2.59,0,0,0,1.38-3.09" fill="#fff"/></g><g clip-path="url(#a)"><path d="M418.8,1021.81l-51.21.54a1.92,1.92,0,0,0-1.28.53l-58-46.94a2.31,2.31,0,1,0-3,3.52l59.53,48.12a2.21,2.21,0,0,0,3.1-.32h0c.11-.11.11-.22.21-.32l51.11-.54c3,.11,2.56-4.59-.43-4.59" fill="#fff"/></g><g clip-path="url(#a)"><path d="M667.6,1001.33,554,991.51c-2.88-.21-3.74,4.27-.86,4.59l113.63,9.82c3,.1,3.84-4.38.85-4.59" fill="#fff"/></g></svg>