<svg xmlns="http://www.w3.org/2000/svg" xmlns:xlink="http://www.w3.org/1999/xlink" viewBox="0 0 500 500"><defs><linearGradient id="a" x1="258.31" y1="465.5" x2="310.94" y2="465.5" gradientUnits="userSpaceOnUse"><stop offset="0" stop-color="#7391ee"/><stop offset="0.17" stop-color="#718ee8"/><stop offset="0.39" stop-color="#6985d9"/><stop offset="0.63" stop-color="#5e76bf"/><stop offset="0.88" stop-color="#4d619b"/><stop offset="1" stop-color="#455688"/></linearGradient><linearGradient id="b" x1="318.53" y1="466.19" x2="361.83" y2="466.19" xlink:href="#a"/><linearGradient id="c" x1="313.6" y1="361.52" x2="371.05" y2="361.52" gradientUnits="userSpaceOnUse"><stop offset="0" stop-color="#3e4088"/><stop offset="0.24" stop-color="#3c3e82"/><stop offset="0.54" stop-color="#353773"/><stop offset="0.87" stop-color="#2a2c59"/><stop offset="1" stop-color="#25274d"/></linearGradient><linearGradient id="d" x1="285.18" y1="362.29" x2="345.26" y2="362.29" xlink:href="#c"/><linearGradient id="e" x1="357.18" y1="363.19" x2="361.69" y2="363.19" xlink:href="#c"/><linearGradient id="f" x1="306.72" y1="385.17" x2="322.79" y2="385.17" xlink:href="#c"/><linearGradient id="g" x1="196.32" y1="181.42" x2="246.67" y2="181.42" gradientUnits="userSpaceOnUse"><stop offset="0" stop-color="#cc9561"/><stop offset="1" stop-color="#a97c52"/></linearGradient><linearGradient id="h" x1="158.69" y1="165.98" x2="199" y2="165.98" xlink:href="#g"/><linearGradient id="i" x1="166.4" y1="166.97" x2="184.66" y2="166.97" xlink:href="#g"/><linearGradient id="j" x1="171.03" y1="172.63" x2="189.66" y2="172.63" xlink:href="#g"/><linearGradient id="k" x1="158.77" y1="162.12" x2="181.77" y2="162.12" xlink:href="#g"/><linearGradient id="l" x1="171.22" y1="169.12" x2="181.77" y2="169.12" xlink:href="#g"/><linearGradient id="m" x1="172.62" y1="167.84" x2="177.4" y2="167.84" xlink:href="#g"/><linearGradient id="n" x1="168.26" y1="166.87" x2="173.14" y2="166.87" xlink:href="#g"/><linearGradient id="o" x1="299.13" y1="215.89" x2="352.54" y2="215.89" gradientUnits="userSpaceOnUse"><stop offset="0" stop-color="#7391ee"/><stop offset="1" stop-color="#455688"/></linearGradient><linearGradient id="p" x1="317.35" y1="144.62" x2="343.06" y2="144.62" xlink:href="#g"/><linearGradient id="q" x1="310.11" y1="112.85" x2="345.69" y2="112.85" xlink:href="#g"/><linearGradient id="r" x1="344.3" y1="138.44" x2="327.19" y2="104.31" gradientUnits="userSpaceOnUse"><stop offset="0" stop-color="#ba625a" stop-opacity="0"/><stop offset="0.12" stop-color="#b96059" stop-opacity="0.04"/><stop offset="0.29" stop-color="#b75b55" stop-opacity="0.16"/><stop offset="0.49" stop-color="#b4534f" stop-opacity="0.35"/><stop offset="0.72" stop-color="#af4847" stop-opacity="0.62"/><stop offset="0.97" stop-color="#a93a3c" stop-opacity="0.96"/><stop offset="1" stop-color="#a8383b"/></linearGradient><linearGradient id="s" x1="325.89" y1="136.82" x2="301.93" y2="112.28" gradientUnits="userSpaceOnUse"><stop offset="0" stop-color="#ba625a" stop-opacity="0"/><stop offset="1" stop-color="#a8383b"/></linearGradient><linearGradient id="t" x1="285.35" y1="223.02" x2="317.47" y2="223.02" gradientUnits="userSpaceOnUse"><stop offset="0" stop-color="#e5a66d"/><stop offset="1" stop-color="#cd8021"/></linearGradient><linearGradient id="u" x1="330.21" y1="221.39" x2="378.71" y2="221.39" xlink:href="#t"/><linearGradient id="v" x1="333.57" y1="149.91" x2="352.54" y2="149.91" gradientUnits="userSpaceOnUse"><stop offset="0" stop-color="#cc9561"/><stop offset="1" stop-color="#cd8021"/></linearGradient><linearGradient id="w" x1="311.64" y1="152.8" x2="320.4" y2="152.8" xlink:href="#v"/><linearGradient id="x" x1="259.14" y1="178.06" x2="300.94" y2="178.06" xlink:href="#t"/><linearGradient id="y" x1="218.45" y1="183.87" x2="263.06" y2="183.87" xlink:href="#t"/><linearGradient id="z" x1="333.57" y1="154.69" x2="354.46" y2="154.69" xlink:href="#v"/><linearGradient id="aa" x1="335.01" y1="228.53" x2="338.27" y2="228.53" xlink:href="#v"/><linearGradient id="ab" x1="371.6" y1="345.53" x2="418.93" y2="345.53" gradientUnits="userSpaceOnUse"><stop offset="0" stop-color="#5b5fd4"/><stop offset="0.2" stop-color="#595dce"/><stop offset="0.46" stop-color="#5356bf"/><stop offset="0.74" stop-color="#494ca5"/><stop offset="0.99" stop-color="#3e4088"/></linearGradient><linearGradient id="ac" x1="393.39" y1="345.03" x2="443.68" y2="345.03" xlink:href="#ab"/><linearGradient id="ad" x1="389" y1="471.2" x2="433.31" y2="471.2" gradientUnits="userSpaceOnUse"><stop offset="0" stop-color="#c54242"/><stop offset="1" stop-color="#832f2f"/></linearGradient><linearGradient id="ae" x1="346.82" y1="471.2" x2="391.13" y2="471.2" xlink:href="#ad"/><linearGradient id="af" x1="383.38" y1="206.77" x2="420.26" y2="206.77" xlink:href="#ad"/><linearGradient id="ag" x1="394.43" y1="163.8" x2="413.74" y2="163.8" gradientUnits="userSpaceOnUse"><stop offset="0" stop-color="#efcaa7"/><stop offset="1" stop-color="#cc9561"/></linearGradient><linearGradient id="ah" x1="366.69" y1="231.38" x2="395.25" y2="231.38" gradientUnits="userSpaceOnUse"><stop offset="0" stop-color="#7391ee"/><stop offset="1" stop-color="#5065a1"/></linearGradient><linearGradient id="ai" x1="407.77" y1="228.2" x2="446.8" y2="228.2" xlink:href="#ah"/><linearGradient id="aj" x1="417.05" y1="189.66" x2="445.92" y2="189.66" xlink:href="#o"/><linearGradient id="ak" x1="421.52" y1="228.83" x2="441.6" y2="228.83" xlink:href="#ag"/><linearGradient id="al" x1="435.36" y1="230.93" x2="421.36" y2="217.68" xlink:href="#ag"/><linearGradient id="am" x1="406.77" y1="229.76" x2="438.52" y2="229.76" xlink:href="#ag"/><linearGradient id="an" x1="383" y1="207.92" x2="411.88" y2="207.92" xlink:href="#ag"/><linearGradient id="ao" x1="383" y1="201.02" x2="398.6" y2="201.02" xlink:href="#ag"/><linearGradient id="ap" x1="383.71" y1="205.28" x2="398.93" y2="205.28" xlink:href="#ag"/><linearGradient id="aq" x1="421.52" y1="224.89" x2="434.47" y2="224.89" xlink:href="#ag"/><linearGradient id="ar" x1="380.62" y1="138.18" x2="416.46" y2="138.18" xlink:href="#ag"/><linearGradient id="as" x1="421.58" y1="160.91" x2="393.49" y2="132.14" gradientUnits="userSpaceOnUse"><stop offset="0" stop-color="#fba186" stop-opacity="0"/><stop offset="1" stop-color="#bb3f3f"/></linearGradient><linearGradient id="at" x1="369.89" y1="165.71" x2="394.91" y2="131.5" xlink:href="#as"/><linearGradient id="au" x1="405.44" y1="286.24" x2="455.28" y2="286.24" gradientUnits="userSpaceOnUse"><stop offset="0" stop-color="#ebedfd"/><stop offset="1" stop-color="#c6c9d6"/></linearGradient><linearGradient id="av" x1="423.8" y1="417.89" x2="486.76" y2="417.89" xlink:href="#ad"/><linearGradient id="aw" x1="443.68" y1="478.21" x2="465.12" y2="478.21" xlink:href="#ad"/><linearGradient id="ax" x1="10.74" y1="423.43" x2="100.04" y2="423.43" xlink:href="#a"/><linearGradient id="ay" x1="35.68" y1="463.12" x2="217.12" y2="463.12" xlink:href="#t"/></defs><title>plan</title><g style="isolation:isolate"><rect x="32.69" y="33.06" width="434.61" height="417.24" fill="#fffcf8"/><rect x="39.95" y="40.05" width="420.09" height="403.26" fill="#f5dbc5"/><path d="M459.55,40.55V442.81H40.45V40.55h419.1m1-1H39.45V443.81h421.1V39.55Z" fill="#f5dbc5"/><path d="M464.57,324.76c-34,2.27-68.52,4.06-102.62,5.37a23.18,23.18,0,0,0,4.37-6c2.82-5.55,3.78-11.69,4.59-18,4.36-34.06,3.86-68.58,2.48-102.42a2.93,2.93,0,0,0,.38-.91c11.27-5.34,24.53-5.32,37.37-5.31,3.12,0,6.33,0,9.48-.07a228.55,228.55,0,0,0-1.48,29.24c.07,4.69.35,9.63,2.86,13.92,3.93,6.71,12.1,10.1,24.3,10.1h.41a124,124,0,0,0,16.78-1.24,2.5,2.5,0,1,0-.7-4.95,119,119,0,0,1-16.12,1.19h-.38c-10.29,0-17-2.56-20-7.62-1.9-3.25-2.12-7.45-2.18-11.48a221.41,221.41,0,0,1,1.54-29.35,171.18,171.18,0,0,0,38.06-6.34,2.5,2.5,0,0,0-1.38-4.81,166.06,166.06,0,0,1-41.31,6.34c-3.26.08-6.64.08-9.9.07-12.87,0-26.13,0-38,5.13q-.39-8.76-.8-17.44l-.11-2.25c-.63-13.53-5.45-22.89-14.32-27.83-4.63-2.58-10.11-4.08-17.22-4.74-16.89-1.56-34.49.77-51.5,3-3.72.49-7.42,1-11.06,1.42l-2.69.32c-14.24,1.73-28.76,3.49-43.11,6q.12-12.91,0-25.88c13.78-7.79,30.31-11.44,43.6-14.37C337.74,102.26,400.8,90.7,463.4,81.53a2.5,2.5,0,1,0-.73-5C400,85.77,336.77,97.36,274.87,111c-12.86,2.84-28.69,6.33-42.58,13.59q-.22-21.47-1-42.95A758,758,0,0,0,401.5,60.25c14.93-3.63,32.82-9.78,38.7-25.16a2.5,2.5,0,0,0-4.68-1.78c-5,13.21-21.46,18.74-35.21,22.08A752.66,752.66,0,0,1,231.1,76.64q-.69-18.09-1.78-36.08a2.52,2.52,0,0,0,.22-1.39L229,34.9a2.5,2.5,0,0,0-5,.49c2.59,40.33,3.7,81.25,3.33,121.66-8.39,1.6-16.7,3.48-24.83,5.82L202,163c-9.16,2.66-16.37,7.24-21.53,13.59l-39-39.09a113.85,113.85,0,0,1-9-9.68,2.5,2.5,0,0,0-3.92,3.1,118.81,118.81,0,0,0,9.34,10.11l39.66,39.71c-4.12,6.77-6.33,15.12-6.54,24.93a456.61,456.61,0,0,0,5.7,79.48,955.45,955.45,0,0,0-140.8,14.18,2.5,2.5,0,0,0,.43,5,3.42,3.42,0,0,0,.44,0,949.19,949.19,0,0,1,140.74-14.13q1.92,11.6,4.38,23.41c1.36,6.47,2.89,12.72,6.61,18,4.51,6.36,12.13,10.86,21.45,12.66a159.79,159.79,0,0,0,17.84,2.41c-4.61,14.78-16.94,26.8-38.58,37.66-7.23,3.63-14.9,6.78-22.33,9.83-11.4,4.68-23.19,9.52-33.86,16.27-8,5.08-13.55,10.14-17.36,15.92-4.48,6.81-6.46,11.16-7.13,20.49a2.49,2.49,0,0,0,2.31,2.67H111a2.5,2.5,0,0,0,2.49-2.32c.63-8.63,2.41-12.14,6.33-18.1,3.4-5.17,8.44-9.76,15.86-14.45,10.3-6.51,21.88-11.26,33.08-15.86,7.51-3.09,15.28-6.28,22.68-10,14.88-7.47,35.18-19.88,41.44-41.79,3.94.21,7.87.31,11.76.31a350.24,350.24,0,0,0,35.46-2.08c1.57-.16,3.14-.31,4.72-.45v0l-.3,35.83c0,3.21-.06,7.21,1.86,10.69,1.79,3.22,5,5.65,9.66,7.24,6.54,2.24,13.62,2.34,20.46,2.42,9.18.12,17.85.23,24.32,5.42,4.68,3.75,7.73,10.24,8.37,17.79.6,7.11-.77,14.38-2.09,21.4a2.5,2.5,0,0,0,2,2.92,2.59,2.59,0,0,0,.47.05,2.49,2.49,0,0,0,2.45-2c1.39-7.36,2.82-15,2.16-22.75-.75-8.91-4.48-16.67-10.22-21.28-7.81-6.26-17.76-6.38-27.38-6.51-6.45-.08-13.13-.16-18.91-2.15-2.35-.8-5.45-2.32-6.9-4.93-1.29-2.33-1.26-5.46-1.24-8.23l.3-35.83a2.44,2.44,0,0,0-.05-.48c3.51-.29,7-.54,10.46-.79,8.48-.62,17.25-1.26,25.87-2.3l3.67-.42c8.3-.91,17.86-2,25.52-5.91a2.46,2.46,0,0,0,1.43.46h.1c35.87-1.32,72.23-3.2,108.08-5.59a2.5,2.5,0,1,0-.33-5ZM329.22,335.82c-1.28.14-2.52.28-3.72.43-8.5,1-17.21,1.65-25.64,2.27-6.64.48-13.51,1-20.27,1.67-20.76,2.12-45.16,3.67-68.71-.9-8-1.57-14.56-5.35-18.32-10.65-3.17-4.47-4.55-10.17-5.79-16.11C178.91,275,175.28,239.11,176,205.79c.42-20,9.63-32.82,27.47-38l.41-.12h0C227.09,161,252,158,276,155.08l2.7-.33c3.65-.44,7.36-.93,11.1-1.43,13-1.72,26.34-3.48,39.3-3.48,3.73,0,7.44.14,11.09.48,6.4.59,11.24,1.9,15.25,4.13,7.25,4,11.21,12,11.76,23.69l.11,2.26q.48,10.24.93,20.59a3.15,3.15,0,0,0-.06,2.39,2.53,2.53,0,0,0,.18.37c1.37,33.68,1.88,68-2.43,101.72-.76,5.88-1.64,11.56-4.09,16.4C356.3,332.83,341.28,334.49,329.22,335.82Z" fill="#fff"/><path d="M166.18,236.18a14.76,14.76,0,0,0-.49-20.08,10.86,10.86,0,1,0-20.42-.79,14.76,14.76,0,0,0-1.33,20.87,18.9,18.9,0,1,0,22.24,0Z" fill="#ffb149"/><line x1="155.62" y1="212.91" x2="155.62" y2="285.77" fill="none" stroke="#42353b" stroke-linecap="round" stroke-linejoin="round" stroke-width="0.93"/><polyline points="150.17 226.29 155.63 233.4 161.67 226.29" fill="none" stroke="#42353b" stroke-linecap="round" stroke-linejoin="round" stroke-width="0.93"/><line x1="155.92" y1="247.98" x2="163.45" y2="242.65" fill="none" stroke="#42353b" stroke-linecap="round" stroke-linejoin="round" stroke-width="0.93"/><line x1="148.28" y1="246.91" x2="155.62" y2="258.17" fill="none" stroke="#42353b" stroke-linecap="round" stroke-linejoin="round" stroke-width="0.93"/><line x1="155.92" y1="220.03" x2="159.68" y2="216.46" fill="none" stroke="#42353b" stroke-linecap="round" stroke-linejoin="round" stroke-width="0.93"/><circle cx="157.8" cy="386.74" r="14.42" transform="translate(-221.78 212.42) rotate(-43.14)" fill="#ffb149"/><line x1="157.8" y1="378.93" x2="157.8" y2="419.38" fill="none" stroke="#42353b" stroke-linecap="round" stroke-linejoin="round" stroke-width="0.93"/><polyline points="152.19 384.15 157.8 388.3 163.93 384.15" fill="none" stroke="#42353b" stroke-linecap="round" stroke-linejoin="round" stroke-width="0.93"/><polyline points="152.19 390.88 157.8 395.03 163.93 390.88" fill="none" stroke="#42353b" stroke-linecap="round" stroke-linejoin="round" stroke-width="0.93"/><circle cx="121.71" cy="386.77" r="14.42" fill="#7099ff"/><line x1="121.74" y1="378.9" x2="121.74" y2="419.35" fill="none" stroke="#42353b" stroke-linecap="round" stroke-linejoin="round" stroke-width="0.93"/><polyline points="116.13 384.12 121.74 388.27 127.87 384.12" fill="none" stroke="#42353b" stroke-linecap="round" stroke-linejoin="round" stroke-width="0.93"/><polyline points="116.13 390.86 121.74 395 127.87 390.86" fill="none" stroke="#42353b" stroke-linecap="round" stroke-linejoin="round" stroke-width="0.93"/><path d="M87.84,78.52a14.82,14.82,0,1,0-22.24,0,18.9,18.9,0,1,0,22.24,0Z" fill="#ee745f"/><line x1="77.29" y1="63.73" x2="77.29" y2="128.12" fill="none" stroke="#42353b" stroke-linecap="round" stroke-linejoin="round" stroke-width="0.93"/><polyline points="71.83 68.63 77.28 75.74 83.33 68.63" fill="none" stroke="#42353b" stroke-linecap="round" stroke-linejoin="round" stroke-width="0.93"/><line x1="77.58" y1="90.32" x2="85.11" y2="84.99" fill="none" stroke="#42353b" stroke-linecap="round" stroke-linejoin="round" stroke-width="0.93"/><line x1="69.94" y1="89.26" x2="77.29" y2="100.52" fill="none" stroke="#42353b" stroke-linecap="round" stroke-linejoin="round" stroke-width="0.93"/><circle cx="103.98" cy="128.12" r="14.42" transform="translate(-38.81 210.81) rotate(-81.01)" fill="#d88e87"/><line x1="103.98" y1="120.31" x2="103.98" y2="160.76" fill="none" stroke="#42353b" stroke-linecap="round" stroke-linejoin="round" stroke-width="0.93"/><polyline points="98.36 125.52 103.97 129.67 110.1 125.52" fill="none" stroke="#42353b" stroke-linecap="round" stroke-linejoin="round" stroke-width="0.93"/><polyline points="98.36 132.26 103.97 136.41 110.1 132.26" fill="none" stroke="#42353b" stroke-linecap="round" stroke-linejoin="round" stroke-width="0.93"/><circle cx="121.71" cy="91.86" r="14.42" transform="translate(-29.31 112.97) rotate(-45)" fill="#d16969"/><line x1="121.74" y1="83.99" x2="121.74" y2="124.44" fill="none" stroke="#42353b" stroke-linecap="round" stroke-linejoin="round" stroke-width="0.93"/><polyline points="116.13 89.21 121.74 93.36 127.87 89.21" fill="none" stroke="#42353b" stroke-linecap="round" stroke-linejoin="round" stroke-width="0.93"/><polyline points="116.13 95.94 121.74 100.09 127.87 95.94" fill="none" stroke="#42353b" stroke-linecap="round" stroke-linejoin="round" stroke-width="0.93"/><path d="M298.14,245.38a14.82,14.82,0,1,0-22.25,0,18.91,18.91,0,1,0,22.25,0Z" fill="#ee745f"/><line x1="287.58" y1="230.59" x2="287.58" y2="294.97" fill="none" stroke="#42353b" stroke-linecap="round" stroke-linejoin="round" stroke-width="0.93"/><polyline points="282.13 235.49 287.58 242.6 293.63 235.49" fill="none" stroke="#42353b" stroke-linecap="round" stroke-linejoin="round" stroke-width="0.93"/><line x1="287.88" y1="257.18" x2="295.4" y2="251.85" fill="none" stroke="#42353b" stroke-linecap="round" stroke-linejoin="round" stroke-width="0.93"/><line x1="280.23" y1="256.11" x2="287.58" y2="267.37" fill="none" stroke="#42353b" stroke-linecap="round" stroke-linejoin="round" stroke-width="0.93"/><circle cx="254.33" cy="289.42" r="14.42" fill="#d88e87"/><line x1="254.33" y1="281.61" x2="254.33" y2="322.06" fill="none" stroke="#42353b" stroke-linecap="round" stroke-linejoin="round" stroke-width="0.93"/><polyline points="248.72 286.82 254.33 290.97 260.45 286.82" fill="none" stroke="#42353b" stroke-linecap="round" stroke-linejoin="round" stroke-width="0.93"/><polyline points="248.72 293.56 254.33 297.71 260.45 293.56" fill="none" stroke="#42353b" stroke-linecap="round" stroke-linejoin="round" stroke-width="0.93"/><circle cx="236" cy="243.46" r="14.42" transform="translate(-43.17 435.91) rotate(-80.47)" fill="#d16969"/><line x1="236.03" y1="235.59" x2="236.03" y2="276.04" fill="none" stroke="#42353b" stroke-linecap="round" stroke-linejoin="round" stroke-width="0.93"/><polyline points="230.42 240.81 236.03 244.96 242.15 240.81" fill="none" stroke="#42353b" stroke-linecap="round" stroke-linejoin="round" stroke-width="0.93"/><polyline points="230.42 247.54 236.03 251.69 242.15 247.54" fill="none" stroke="#42353b" stroke-linecap="round" stroke-linejoin="round" stroke-width="0.93"/><circle cx="264.86" cy="214.64" r="11.22" fill="#7099ff"/><line x1="264.88" y1="208.51" x2="264.88" y2="239.98" fill="none" stroke="#42353b" stroke-linecap="round" stroke-linejoin="round" stroke-width="0.72"/><polyline points="260.52 212.57 264.88 215.8 269.64 212.57" fill="none" stroke="#42353b" stroke-linecap="round" stroke-linejoin="round" stroke-width="0.72"/><polyline points="260.52 217.81 264.88 221.04 269.64 217.81" fill="none" stroke="#42353b" stroke-linecap="round" stroke-linejoin="round" stroke-width="0.72"/><circle cx="452.91" cy="136.95" r="11.22" fill="#d88e87"/><line x1="452.91" y1="130.87" x2="452.91" y2="162.34" fill="none" stroke="#42353b" stroke-linecap="round" stroke-linejoin="round" stroke-width="0.72"/><polyline points="448.54 134.93 452.91 138.16 457.67 134.93" fill="none" stroke="#42353b" stroke-linecap="round" stroke-linejoin="round" stroke-width="0.72"/><polyline points="448.54 140.17 452.91 143.4 457.67 140.17" fill="none" stroke="#42353b" stroke-linecap="round" stroke-linejoin="round" stroke-width="0.72"/><circle cx="439.38" cy="93.05" r="11.22" fill="#7099ff"/><line x1="439.41" y1="86.93" x2="439.41" y2="118.39" fill="none" stroke="#42353b" stroke-linecap="round" stroke-linejoin="round" stroke-width="0.72"/><polyline points="435.04 90.98 439.41 94.21 444.17 90.98" fill="none" stroke="#42353b" stroke-linecap="round" stroke-linejoin="round" stroke-width="0.72"/><polyline points="435.04 96.22 439.41 99.45 444.17 96.22" fill="none" stroke="#42353b" stroke-linecap="round" stroke-linejoin="round" stroke-width="0.72"/><path d="M166.84,139.57A7.85,7.85,0,0,1,179,135a9,9,0,0,1,6.76-6.32c3.2-.52,6.79,1.58,7.4,4.77A6.61,6.61,0,0,1,203,135a4.29,4.29,0,0,1,7.83,2.46c0,.62.32,1.55-.29,1.55Z" fill="#ffb149"/><path d="M354.08,81.71a7.87,7.87,0,0,1,12.16-4.56A9,9,0,0,1,373,70.83c3.2-.52,6.78,1.58,7.4,4.77a6.62,6.62,0,0,1,9.88,1.52,4.29,4.29,0,0,1,7.83,2.46c0,.62.32,1.56-.29,1.56Z" fill="#d88e87"/><path d="M51.56,412.47a7.85,7.85,0,0,1,12.15-4.56,9,9,0,0,1,6.76-6.31c3.2-.52,6.79,1.58,7.4,4.76a6.62,6.62,0,0,1,9.88,1.52,4.29,4.29,0,0,1,7.83,2.46c0,.62.32,1.56-.29,1.56Z" fill="#d88e87"/><path d="M169.16,83.46a10,10,0,0,0-19.9.76,9.49,9.49,0,0,0,1.05,4.34h0l.05.08c.06.13.13.25.2.37l8.16,14.7a.57.57,0,0,0,1,0l7.64-13.9A9.49,9.49,0,0,0,169.16,83.46Zm-9.94,6.15a5.4,5.4,0,1,1,5.54-5.39A5.46,5.46,0,0,1,159.22,89.61Z" fill="#f37978"/><path d="M99.49,307.7a10,10,0,0,0-19.9.76,9.42,9.42,0,0,0,1.06,4.35h0l0,.08c.06.12.13.24.2.36L89.05,328a.58.58,0,0,0,1,0l7.64-13.9A9.47,9.47,0,0,0,99.49,307.7Zm-9.93,6.16a5.4,5.4,0,1,1,5.54-5.4A5.48,5.48,0,0,1,89.56,313.86Z" fill="#f37978"/><path d="M251.48,341.9a10,10,0,0,0-19.9.76,9.46,9.46,0,0,0,1,4.34h0l0,.08.21.37,8.16,14.7a.57.57,0,0,0,1,0l7.64-13.9A9.49,9.49,0,0,0,251.48,341.9Zm-9.94,6.15a5.4,5.4,0,1,1,5.54-5.39A5.46,5.46,0,0,1,241.54,348.05Z" fill="#f37978"/><path d="M315.14,57.12a10,10,0,0,0-19.9.75,9.39,9.39,0,0,0,1.06,4.35h0l0,.08c.06.13.13.25.2.37l8.16,14.7a.58.58,0,0,0,1,0l7.64-13.9A9.49,9.49,0,0,0,315.14,57.12Zm-9.93,6.15a5.4,5.4,0,1,1,5.54-5.4A5.47,5.47,0,0,1,305.21,63.27Z" fill="#f37978"/><path d="M305.65,77.28c.13.84.23,1.67.29,2.49" fill="none" stroke="#fff" stroke-linecap="round" stroke-linejoin="round" stroke-width="2"/><path d="M306,84.79c-2.25,28.93-44.81,41.67-68.5,32.25-10.88-4.33-20-12.27-30.95-16.5-18.35-7.12-42-2.66-54.77,12.79-5.74,6.93-9.43,15.36-12,24-11.88,40.09.19,82.45-10.31,122.31-1.91,7.28-5,14.6-10.65,19.5-10.08,8.65-24.36,6.79-36.4,10.23-6.87,2-13.61,6.14-15.44,13.52a13.43,13.43,0,0,0,6.47,15.34c3.18,1.76,6.75,2.69,10,4.31,13.36,6.67,17.79,22.72,18,36.54.15,10.7-2.75,21.26-1.32,31.92a53,53,0,0,0,13.85,29.31c9,9.47,23,15.3,35.84,16.85,12.09,1.45,25.12-2.26,31.52-13.34,6.77-11.71,3.66-26.85,4.85-39.65.76-8.14,3.66-16.7,10.4-21.33,11.17-7.66,25.29-1.27,38-.94" fill="none" stroke="#fff" stroke-linecap="round" stroke-linejoin="round" stroke-width="2" stroke-dasharray="5.02 5.02"/><path d="M237.06,361.87c.84,0,1.67-.11,2.49-.22" fill="none" stroke="#fff" stroke-linecap="round" stroke-linejoin="round" stroke-width="2"/><path d="M196.94,55.12c0,.27-.7.49-1.57.49s-1.56-.22-1.56-.49.7-.49,1.56-.49S196.94,54.85,196.94,55.12Z" fill="#42353b" opacity="0.62" style="mix-blend-mode:multiply"/><ellipse cx="197.58" cy="52.91" rx="1.56" ry="0.49" fill="#42353b" opacity="0.62" style="mix-blend-mode:multiply"/><path d="M202.28,55.12c0,.27-.7.49-1.57.49s-1.56-.22-1.56-.49.7-.49,1.56-.49S202.28,54.85,202.28,55.12Z" fill="#42353b" opacity="0.62" style="mix-blend-mode:multiply"/><path d="M62.49,343.76c0,.27-.7.49-1.56.49s-1.57-.22-1.57-.49.7-.49,1.57-.49S62.49,343.49,62.49,343.76Z" fill="#42353b" opacity="0.62" style="mix-blend-mode:multiply"/><path d="M64.7,341.55c0,.27-.7.49-1.56.49s-1.57-.22-1.57-.49.7-.49,1.57-.49S64.7,341.28,64.7,341.55Z" fill="#42353b" opacity="0.62" style="mix-blend-mode:multiply"/><path d="M67.83,343.76c0,.27-.7.49-1.56.49s-1.57-.22-1.57-.49.7-.49,1.57-.49S67.83,343.49,67.83,343.76Z" fill="#42353b" opacity="0.62" style="mix-blend-mode:multiply"/><path d="M203.84,215.29c0,.27-.7.49-1.56.49s-1.57-.22-1.57-.49.71-.49,1.57-.49S203.84,215,203.84,215.29Z" fill="#42353b" opacity="0.62" style="mix-blend-mode:multiply"/><ellipse cx="204.49" cy="213.08" rx="1.56" ry="0.49" fill="#42353b" opacity="0.62" style="mix-blend-mode:multiply"/><path d="M209.19,215.29c0,.27-.71.49-1.57.49s-1.56-.22-1.56-.49.7-.49,1.56-.49S209.19,215,209.19,215.29Z" fill="#42353b" opacity="0.62" style="mix-blend-mode:multiply"/><path d="M432.3,64c0,.27-.7.49-1.56.49s-1.57-.22-1.57-.49.7-.49,1.57-.49S432.3,63.75,432.3,64Z" fill="#42353b" opacity="0.62" style="mix-blend-mode:multiply"/><path d="M434.51,61.81c0,.27-.7.49-1.56.49s-1.57-.22-1.57-.49.7-.49,1.57-.49S434.51,61.54,434.51,61.81Z" fill="#42353b" opacity="0.62" style="mix-blend-mode:multiply"/><ellipse cx="436.08" cy="64.02" rx="1.56" ry="0.49" fill="#42353b" opacity="0.62" style="mix-blend-mode:multiply"/><path d="M448.8,363.55c0,.27-.7.49-1.56.49s-1.57-.22-1.57-.49.71-.49,1.57-.49S448.8,363.28,448.8,363.55Z" fill="#42353b" opacity="0.62" style="mix-blend-mode:multiply"/><path d="M451,361.34c0,.27-.7.49-1.57.49s-1.56-.22-1.56-.49.7-.49,1.56-.49S451,361.07,451,361.34Z" fill="#42353b" opacity="0.62" style="mix-blend-mode:multiply"/><path d="M454.15,363.55c0,.27-.7.49-1.57.49s-1.56-.22-1.56-.49.7-.49,1.56-.49S454.15,363.28,454.15,363.55Z" fill="#42353b" opacity="0.62" style="mix-blend-mode:multiply"/><path d="M273.81,317.16c0,.27-.7.49-1.57.49s-1.56-.22-1.56-.49.7-.49,1.56-.49S273.81,316.89,273.81,317.16Z" fill="#42353b" opacity="0.62" style="mix-blend-mode:multiply"/><path d="M276,315c0,.27-.7.49-1.56.49s-1.57-.22-1.57-.49.7-.49,1.57-.49S276,314.68,276,315Z" fill="#42353b" opacity="0.62" style="mix-blend-mode:multiply"/><path d="M279.15,317.16c0,.27-.7.49-1.56.49s-1.57-.22-1.57-.49.7-.49,1.57-.49S279.15,316.89,279.15,317.16Z" fill="#42353b" opacity="0.62" style="mix-blend-mode:multiply"/><ellipse cx="58.25" cy="157.71" rx="1.56" ry="0.49" fill="#42353b" opacity="0.62" style="mix-blend-mode:multiply"/><path d="M62,155.5c0,.27-.7.48-1.56.48s-1.57-.21-1.57-.48.7-.49,1.57-.49S62,155.23,62,155.5Z" fill="#42353b" opacity="0.62" style="mix-blend-mode:multiply"/><path d="M65.16,157.71c0,.27-.7.49-1.56.49S62,158,62,157.71s.7-.49,1.57-.49S65.16,157.44,65.16,157.71Z" fill="#42353b" opacity="0.62" style="mix-blend-mode:multiply"/><ellipse cx="250.53" cy="479.16" rx="224.81" ry="9.52" fill="#f0d9d3" opacity="0.47" style="mix-blend-mode:multiply"/><path d="M310.86,469.41c0,.18,0,.35,0,.51,0,.82-.08,1.53-.12,2.08a1.79,1.79,0,0,1-1.46,1.65c-8.87,1.69-49,4.23-50.09,3.76-.57-.24-.85-1.05-.86-2.1,0-.16,0-.33,0-.5a10,10,0,0,1,.85-3.36c.47-1.07,6.33-4.05,13.15-7.22l.48-.22c3.58-1.66,7.39-3.36,10.79-4.85l.58-.25,2.68-1.16.53-.23c.86-.38,1.67-.72,2.4-1,.18-.09.35-.16.52-.23,2.46-1.06,4-1.71,4-1.71l14.85-1a11.58,11.58,0,0,1,.56,1.51l.15.53h0C311,459.73,311,465.58,310.86,469.41Z" fill="url(#a)"/><path d="M294.33,447.86v6.7s8.55,2.72,14.84-1V447.2Z" fill="#ba625a"/><path d="M310.86,469.41c0,.18,0,.35,0,.51-2.18.49-4.51.94-6.93,1.35h-.05c-19.61,3.32-45.25,4-45.54,4h0a.25.25,0,0,1,0-.5h0c.43,0,9-.26,19.81-1.07l.51,0c7.88-.62,16.92-1.53,25-2.88l.5-.09c2.34-.4,4.58-.83,6.69-1.31Z" fill="#f0d9d3"/><path d="M278.39,474a.24.24,0,0,1-.24-.17c-2.18-6.74-5.72-9.42-5.75-9.45a.25.25,0,1,1,.3-.4c.15.11,3.69,2.81,5.93,9.7a.24.24,0,0,1-.17.31Z" fill="#f0d9d3"/><path d="M309.73,455a.26.26,0,0,0-.11.07c-.07.08-6.33,7.13-6,15.71,0,.07,0,.15,0,.22a.24.24,0,0,0,.24.24h.05a.26.26,0,0,0,.21-.25c0-.1,0-.19,0-.29-.26-7.71,4.93-14.17,5.77-15.15h0Z" fill="#f0d9d3"/><path d="M287.9,463.37a.33.33,0,0,1-.13,0,.26.26,0,0,1-.21-.12,12.67,12.67,0,0,0-4-4.13l.58-.25A13.66,13.66,0,0,1,288,463,.26.26,0,0,1,287.9,463.37Z" fill="#f0d9d3"/><path d="M290.42,461.46a.28.28,0,0,1-.13,0,.26.26,0,0,1-.21-.11,13.07,13.07,0,0,0-3.23-3.63l.53-.23a14.12,14.12,0,0,1,3.12,3.59A.25.25,0,0,1,290.42,461.46Z" fill="#f0d9d3"/><path d="M293,459.94a.28.28,0,0,1-.13,0,.25.25,0,0,1-.21-.12,13.37,13.37,0,0,0-2.9-3.37c.18-.09.35-.16.52-.23a14.77,14.77,0,0,1,2.8,3.33A.25.25,0,0,1,293,459.94Z" fill="#f0d9d3"/><path d="M361.79,469.41c-.5,2.24-2.53,3.78-9.53,6.59s-10.23,6.09-16,6.38-17.62-1.53-17.75-4.91a4.15,4.15,0,0,1,.42-1.93,1.24,1.24,0,0,1,.1-.2c1.23-2.34,4.48-4.2,7.65-6l.2-.12a6.31,6.31,0,0,0,.62-.45,52.79,52.79,0,0,0,6.56-7.05l.42-.5c.55-.68,1.1-1.36,1.63-2l.39-.49L338,456.8c.13-.17.25-.34.38-.5,2.3-3,4-5.32,4-5.32l14.85-1c0,.25.56,2.22,1.29,4.83.08.27.16.54.23.83,1.09,3.87,2.44,8.81,2.94,11.68,0,.18.06.35.08.52h0A5.08,5.08,0,0,1,361.79,469.41Z" fill="url(#b)"/><path d="M333,479.72c-7.51,0-14-4.15-14.09-4.2l.27-.42c.09.06,9.18,5.85,18.16,3.6s24.14-11.33,24.29-11.42l.26.42c-.15.1-15.31,9.2-24.43,11.48A18.13,18.13,0,0,1,333,479.72Z" fill="#fceeed"/><path d="M342.53,477.33l-.41.27-.25-.36c-4.75-6.91-12.6-7.91-15-8.05a6.31,6.31,0,0,0,.62-.45c3,.28,10.28,1.64,14.82,8.31C342.4,477.14,342.47,477.23,342.53,477.33Z" fill="#fceeed"/><path d="M357.37,469.74c0,.12,0,.24.05.36l-.49.08,0-.18a30.39,30.39,0,0,1,1.56-15.21c.08.27.16.54.23.83A29.89,29.89,0,0,0,357.37,469.74Z" fill="#fceeed"/><path d="M342,463.82a.25.25,0,0,1-.35.05c-2.2-1.68-5.39-2.11-7.59-2.18l.42-.5a13.72,13.72,0,0,1,7.47,2.28A.25.25,0,0,1,342,463.82Z" fill="#fceeed"/><path d="M343.56,461.26a.28.28,0,0,1-.2.1.25.25,0,0,1-.15-.05,13.27,13.27,0,0,0-7.08-2.16l.39-.49a13.37,13.37,0,0,1,7,2.25A.25.25,0,0,1,343.56,461.26Z" fill="#fceeed"/><path d="M345.89,458.93a.28.28,0,0,1-.2.1.27.27,0,0,1-.15,0c-2.2-1.67-5.37-2.11-7.57-2.18.13-.17.25-.34.38-.5a13.81,13.81,0,0,1,7.49,2.28A.25.25,0,0,1,345.89,458.93Z" fill="#fceeed"/><path d="M342.33,444.29V451s8.55,2.72,14.85-1v-6.33Z" fill="#ba625a"/><path d="M315.22,293.87s17.22,66.32,19.2,75.31c1.93,8.75,4.7,74.48,4.7,74.48s11.08,3.41,22.57,0c0,0,5-67.74,6.86-85.79s2.5-80,2.5-80l-57.45,3.42Z" fill="url(#c)"/><path d="M291.64,278.56s-7.66,74.55-6.29,93.27,6.29,74.55,6.29,74.55,5.8,5.45,19.84,0V373.19l33.78-97.41Z" fill="url(#d)"/><path d="M311.48,301.11l9.37,14,6,23.16s5.85,21.93,7.53,31.52c1.74,9.92,4.69,73.87,4.69,73.87" fill="none" stroke="#faf4e8" stroke-linecap="round" stroke-linejoin="round" stroke-width="0.5"/><path d="M357.18,444.68s4.59-78.3,4.51-97.36-2.26-65.62-2.26-65.62" stroke="#faf4e8" stroke-linecap="round" stroke-linejoin="round" stroke-width="0.5" fill="url(#e)"/><path d="M322.79,323.14S307,369.79,306.74,373.87s2.43,73.33,2.43,73.33" stroke="#faf4e8" stroke-linecap="round" stroke-linejoin="round" stroke-width="0.5" fill="url(#f)"/><path d="M246.67,175.7,199,168.17l-2.68,8.47s38,16.47,47,18Z" fill="url(#g)"/><path d="M199,168.17s-13-6.68-16.45-7.36-22.89-6-23.58-5.45-.34,2.38,3.49,4.09,17,9.53,17.88,10.89,7.78,6,16,6.3Z" fill="url(#h)"/><path d="M176,161.57s-8.51.77-9.45,2.64,2.64,7,6.47,7.92,10.64-1.19,11.57-2.13S176,161.57,176,161.57Z" fill="url(#i)"/><path d="M171,171.27a7,7,0,0,0,6.16,4.35c4.85.42,12.08-.17,12.42-.77s-1.27-5.36-2.38-5.19S172.44,168.55,171,171.27Z" fill="url(#j)"/><path d="M159,155.36s-1.07,1.7,1.66,3.11,8.45,4.08,10.4,5.1,8.7,3.77,10.74,5.3" fill="url(#k)"/><path d="M171.22,171s8.32.6,9.73,0,.58-4,.58-4" fill="url(#l)"/><path d="M172.77,164.41s-1.46,1.5,4.63,6.86" fill="url(#m)"/><path d="M169.13,162.62a3.28,3.28,0,0,0-.5,3.72c1.07,2.17,4.51,4.79,4.51,4.79" fill="url(#n)"/><polygon points="314.94 152.99 350.11 150.09 352.55 280.17 299.13 281.7 314.94 152.99" fill="url(#o)"/><path d="M343.06,142.12s-5.8,18.82-17,19.19-8.34-18-8.34-18a8.93,8.93,0,0,0,1.67-3.73,54.29,54.29,0,0,0,1.13-5.39c.07-.39.1-.62.1-.62l19.57-5.62c0,.58.21,1.64.45,2.92,0,.18.07.38.11.57C341.56,135.76,343.06,142.12,343.06,142.12Z" fill="url(#p)"/><path d="M341,130.81s-.1.22-.29.6c-1.29,2.6-6.83,12.85-13.62,13.2-4.07.21-6.42-2.46-7.74-5.06a54.29,54.29,0,0,0,1.13-5.39l9.72-2.58,10.4-.74Z" fill="#a06c44"/><path d="M346.56,127.34c.13-.4.2-.83.35-1.22A5.38,5.38,0,0,1,348.7,124c1.75-1.38,3.78-2.75,4.31-4.91.33-1.36,0-2.79.17-4.17.32-2.54,2.32-4.85,1.83-7.36-.25-1.29-1.16-2.39-1.4-3.69-.4-2.12.92-4.67-.53-6.26-1.1-1.22-3.09-.92-4.59-.26-5.74,2.54-9.16,8.77-10,15-.66,5,.11,10.13,1.19,15.06.43,2,.42,4.19,2.87,3.33C344.23,130.18,346,129.09,346.56,127.34Z" fill="#382b31"/><path d="M308.33,92.08c-.19,1.85.27,3.81-.47,5.5-.5,1.15-1.49,2-2.09,3.1a5.34,5.34,0,0,0-.21,4.66,15.12,15.12,0,0,1,1.1,2.3c.51,2-1.05,4-1.27,6-.31,3,2.3,5.59,5.16,6.46a2.17,2.17,0,0,0,1.85-.06,2,2,0,0,0,.62-.82c1.47-3,.25-6.63.26-10,0-4.21,2-8.13,3.29-12.14.83-2.54,2.71-10.3-.84-11.76S308.61,89.35,308.33,92.08Z" fill="#382b31"/><path d="M344.28,123.29c0,.25-.09.5-.15.74a15.59,15.59,0,0,1-2.43,5.38c-4.31,6.35-12.62,10.9-16.63,10.57-5.07-.41-7.13-2.61-10.06-8.11-.25-.47-.51-1-.77-1.47-.38-.74-.77-1.55-1.14-2.43a39.34,39.34,0,0,1-2.65-11.11c-.08-.67-.13-1.35-.18-2s-.08-1.32-.1-2,0-1.23-.05-1.85v-.08c0-1.31,0-2.64.07-4a84.68,84.68,0,0,1,1.25-11.16c2-11.15,17.74-10,17.74-10,2.16,0,10.12,2.36,13.94,8S345.77,114,344.28,123.29Z" fill="url(#q)"/><path d="M329,124.64a7.67,7.67,0,1,0,5.51-9.68A7.87,7.87,0,0,0,329,124.64Z" fill="url(#r)"/><path d="M315,131.87c-.25-.47-.51-1-.77-1.47-.38-.74-.77-1.55-1.14-2.43a39.34,39.34,0,0,1-2.65-11.11,8.92,8.92,0,0,1,6.7,6.65A9,9,0,0,1,315,131.87Z" fill="url(#s)"/><circle cx="314.98" cy="116.08" r="1.33" fill="#382b31"/><path d="M329.18,113.88a1.39,1.39,0,1,1-1.48,1.28A1.39,1.39,0,0,1,329.18,113.88Z" fill="#382b31"/><path d="M319,113.31a16.68,16.68,0,0,1,2,5.74,4.45,4.45,0,0,1-.27,3.34,7,7,0,0,0-.6.83,1.82,1.82,0,0,0,.25,1.82,3.74,3.74,0,0,0,1.55,1.1" fill="none" stroke="#42353b" stroke-linecap="round" stroke-linejoin="round" stroke-width="0.34"/><path d="M316.32,111.05c-.21.39-.75.44-1.2.47a17.24,17.24,0,0,0-5,1.34c0-1.32-.08-2.62,0-4a9.2,9.2,0,0,1,1.69-.53c1.11-.24,2.53-.83,3.53,0a3.1,3.1,0,0,1,1.05,2A1.14,1.14,0,0,1,316.32,111.05Z" fill="#382b31"/><path d="M328.19,106.7a4.35,4.35,0,0,0-2.26.78,1.68,1.68,0,0,0-.57,2,2.28,2.28,0,0,0,1.43,1,10.07,10.07,0,0,0,1.82.23,35.62,35.62,0,0,1,5.95,1.19,3.09,3.09,0,0,0,2.14,0,1.58,1.58,0,0,0,.46-2.23C335.73,107.35,330.8,106.39,328.19,106.7Z" fill="#382b31"/><path d="M319.89,129.28s5.58,1.59,8.63-2.71" fill="none" stroke="#42353b" stroke-linecap="round" stroke-linejoin="round" stroke-width="0.34"/><path d="M323.64,131.73a6.29,6.29,0,0,0,4.06-1.42" fill="none" stroke="#42353b" stroke-linecap="round" stroke-linejoin="round" stroke-width="0.17"/><path d="M311.37,92.81c-.75,2.25-.71,4.71-1.51,7-.52,1.46-1.4,2.81-1.61,4.35s.58,3.4,2.12,3.6a13,13,0,0,1,1.14-3.08,10.66,10.66,0,0,0,1-2c.53-2-.7-4.18-.05-6.13s3.21-3,4.24-5c.73-1.39.74-4.74-1.54-3.78C313.36,88.45,311.94,91.11,311.37,92.81Z" fill="none"/><path d="M321.39,94c1.9,0,4,.46,5.07,2a10.71,10.71,0,0,1,1.09,3.52c.6,2.45,2.58,4.93,5.09,4.73,1.47-.11,2.84-1.12,4.3-.91s2.61,1.78,3,3.32.3,3.16.7,4.69,1.47,3.09,3.05,3.27,3-.89,4.35-.33c.83.34,1.4,1.23,2.28,1.39,1.23.22,2.16-1,2.76-2.15a7.15,7.15,0,0,0,1.06-2.86,27.81,27.81,0,0,0-.37-3.13,13.26,13.26,0,0,1,.74-3.87,17.69,17.69,0,0,0,.32-7.06,9.15,9.15,0,0,0-3-5.84c-1-.83-2.36-1.3-3.36-2.2a12.16,12.16,0,0,1-2.3-3.49c-1.64-3.11-4.25-6.25-7.77-6.41-1.75-.09-3.45.61-5.2.72-4.08.27-8.21-2.59-12.07-1.23-3,1.06-5.85,5.3-6.14,8.46a9.89,9.89,0,0,0,1.22,5C317.37,93.8,319.13,94,321.39,94Z" fill="#382b31"/><path d="M312,91.08a5.14,5.14,0,0,0,1.67,4c2.79,2.38,7.69.54,10.33,3.09,1.42,1.38,1.66,3.61,3,5.1a4.59,4.59,0,0,0,4.6,1.38,6.54,6.54,0,0,0,4-4,11.93,11.93,0,0,0-1.23-11,13.43,13.43,0,0,0-9.57-5.69C320.09,83.42,312.08,85.28,312,91.08Z" fill="#382b31"/><path d="M341.4,115.3c.07.44.28,1,.73,1a.88.88,0,0,0,.6-.47,19.49,19.49,0,0,0,1.35-3.94,12.44,12.44,0,0,1,1.55-2.84c.63-.91,1.34-2,1-3a2.28,2.28,0,0,0-1.42-1.29,3.41,3.41,0,0,0-2.81.18c-1.63.93-1.41,2.44-1.41,4A45.11,45.11,0,0,0,341.4,115.3Z" fill="#382b31"/><path d="M343.06,113c-.4-.6,2.16-5.33,5.6-4.43s4.86,10.27.77,12.73-5.6,1.72-5.6,1.72Z" fill="#ba625a"/><path d="M343.83,114.83c.06-2.47,2.46-5.33,5.15-3.92a3.19,3.19,0,0,1,1.45,1.93,8.1,8.1,0,0,1-.14,4.92c-.67,1.79-3.94,4.83-5.73,2.53" fill="none" stroke="#42353b" stroke-linecap="round" stroke-linejoin="round" stroke-width="0.33"/><path d="M347.47,110.54s-2.68,6-1.49,10.56" fill="none" stroke="#42353b" stroke-linecap="round" stroke-linejoin="round" stroke-width="0.33"/><path d="M317.47,146.46s-4.65,57.63-6,90.31a579.48,579.48,0,0,1-6.38,62.81s-12.6-11.24-19.74-11.75c0,0,3.31-26.81,5.1-51.83s3-78.27,7-80.08C300.94,154.3,317.47,146.46,317.47,146.46Z" fill="url(#t)"/><path d="M334.73,152s2.69,4,2.44,11.28-2.69,51.55-3.64,75.39-3.32,62.4-3.32,62.4,29.58-9.17,48.5-9.7c0,0-1.22-122.44-2.23-127.61s-26.93-22.12-26.93-22.12Z" fill="url(#u)"/><path d="M333.57,151.54c1.84-2.47,4-4.61,5.47-7.35a18.61,18.61,0,0,0,2.52-8.76c0,.68,4.81,3.67,5.41,4.15,1.4,1.13,2.81,2.23,4.12,3.46.91.86,1.91,1.27,1.24,2.62q-2.43,4.83-4.84,9.67c-1.49,3-2.69,6.34-4.66,9.07.35-.48-2.85-4.8-3.22-5.34S333.67,151.4,333.57,151.54Z" fill="url(#v)"/><path d="M319.35,139.55s-2.09,5.5,1,12.49L316,166s-5.76-13.15-4-17S319.35,139.55,319.35,139.55Z" fill="url(#w)"/><path d="M300.94,154.54s-33.85,13.29-39.59,14.82c-4.12,1.1-1.54,30.9.25,31.66s32.94.51,32.94.51Z" fill="url(#x)"/><path d="M261.35,169.36l-38.81-2.67-4.09,23L261.6,201C265,201.92,261.35,169.36,261.35,169.36Z" fill="url(#y)"/><path d="M333.57,151.54s6.88,7.89,9.26,12.86A72.05,72.05,0,0,0,354.46,145" stroke="#42353b" stroke-linecap="round" stroke-linejoin="round" stroke-width="0.25" fill="url(#z)"/><path d="M338.27,157.36s-1.92,76.32-1.89,92.29-1.37,50-1.37,50" stroke="#42353b" stroke-linecap="round" stroke-linejoin="round" stroke-width="0.25" fill="url(#aa)"/><path d="M261.35,169.36s6.12,3,9.7,14.51" fill="none" stroke="#42353b" stroke-linecap="round" stroke-linejoin="round" stroke-width="0.25"/><path d="M320.4,152s-7.57,9.16-8.42,11.28c0,0-1-8.52,0-14.26" fill="none" stroke="#42353b" stroke-linecap="round" stroke-linejoin="round" stroke-width="0.25"/><path d="M285.35,287.83s4.41-38.54,5.32-55.13,2.85-51.59,2.85-51.59" fill="none" stroke="#42353b" stroke-linecap="round" stroke-linejoin="round" stroke-width="0.25"/><line x1="290.58" y1="183.87" x2="292.49" y2="199.74" fill="none" stroke="#42353b" stroke-linecap="round" stroke-linejoin="round" stroke-width="0.25"/><path d="M302.63,153.48s-6.66,8-8.23,16.94" fill="none" stroke="#42353b" stroke-linecap="round" stroke-linejoin="round" stroke-width="0.25"/><path d="M316.47,156.93s-2,8.26-2.19,10.9-9.55,119.81-11.16,130.08" fill="none" stroke="#42353b" stroke-linecap="round" stroke-linejoin="round" stroke-width="0.25"/><path d="M315.32,204.4c.12.2,3.47,8.64,3.47,8.64l2.73-1.11-3.75-7.87Z" fill="#fba186"/><path d="M374,248s-2,98.3-2.38,124.85S374,446.38,374,446.38h16.68l19.75-119.14,8.49-82.56Z" fill="url(#ab)"/><path d="M441.58,243.67s2.9,40.67,1.88,78.46-10.21,124.25-10.21,124.25H413.5s-12.9-118.8-12.9-133.44c0-12.16-7.21-65.82-7.21-65.82Z" fill="url(#ac)"/><line x1="374.18" y1="253.36" x2="437.31" y2="253.36" fill="none" stroke="#faf4e8" stroke-linecap="round" stroke-linejoin="round" stroke-width="0.5"/><polyline points="394.78 275.78 400.37 290.4 404.86 363.41 413.5 446.38" fill="none" stroke="#faf4e8" stroke-linecap="round" stroke-linejoin="round" stroke-width="0.5"/><path d="M438.36,293.74s-5.28,142.43-7.07,152.64" fill="none" stroke="#faf4e8" stroke-linecap="round" stroke-linejoin="round" stroke-width="0.5"/><line x1="387.17" y1="446.38" x2="402.39" y2="323.14" fill="none" stroke="#faf4e8" stroke-linecap="round" stroke-linejoin="round" stroke-width="0.5"/><line x1="391.11" y1="248" x2="391.11" y2="253.36" fill="none" stroke="#faf4e8" stroke-linecap="round" stroke-linejoin="round" stroke-width="0.5"/><path d="M396.34,250.68a1.48,1.48,0,1,1-1.48-1.47A1.48,1.48,0,0,1,396.34,250.68Z" fill="#faf4e8"/><rect x="418.22" y="446.38" width="12.26" height="9.7" fill="#fba186"/><path d="M433.29,478c-.18,1.82-1.66,2.23-5.34,2.8l-.5.08c-1.55.24-3.48.52-5.82,1-4.21.76-10.37,2-16,3l-.49.08-.15,0c-5.39.93-10.21,1.6-12.3,1.4-4.34-.43-4.07-3.13-3-5.26.46-1,4.84-4,9.78-7.26l.08-.05.42-.28h0c3.12-2.06,6.4-4.19,9.05-5.94l.49-.32,1.81-1.2.45-.31c1-.68,1.74-1.22,2.16-1.57L414,464a4,4,0,0,0,.37-.35c2.74-2.68,3.89-7.58,3.89-7.58h12.26s.6,3.75,1.24,8.17l.09.61C432.6,470.32,433.42,476.54,433.29,478Z" fill="url(#ad)"/><path d="M405.61,484.77l-.49.08a0,0,0,0,1,0,0,13.86,13.86,0,0,0-5.56-11,.13.13,0,0,1-.06-.07l.42-.28h0a14.28,14.28,0,0,1,5.54,9.65l.06.49Q405.58,484.16,405.61,484.77Z" fill="#faf4e8"/><path d="M428,480.76a24.44,24.44,0,0,1,3.86-15.89l-.09-.61a.19.19,0,0,0-.16.09A25.13,25.13,0,0,0,427.3,479c0,.16,0,.33,0,.5,0,.43.08.88.13,1.33h0Z" fill="#faf4e8"/><path d="M413.36,471.41a.25.25,0,0,1-.34-.07,10.84,10.84,0,0,0-4-3.85l.49-.32a11.78,11.78,0,0,1,4,3.89A.25.25,0,0,1,413.36,471.41Z" fill="#faf4e8"/><path d="M415.15,469.62a.33.33,0,0,1-.14,0,.24.24,0,0,1-.2-.11,11.53,11.53,0,0,0-3.54-3.58l.45-.31a12.37,12.37,0,0,1,3.5,3.61A.25.25,0,0,1,415.15,469.62Z" fill="#faf4e8"/><path d="M417.39,467.38a.24.24,0,0,1-.14.05.26.26,0,0,1-.21-.11A12.69,12.69,0,0,0,414,464a4,4,0,0,0,.37-.35,13.33,13.33,0,0,1,3.12,3.36A.25.25,0,0,1,417.39,467.38Z" fill="#faf4e8"/><path d="M405.36,483.59a.25.25,0,0,1-.24-.21.23.23,0,0,1,.2-.28c.17,0,16.47-2.58,22.15-4.15a.25.25,0,0,1,.31.18.24.24,0,0,1-.18.3c-5.71,1.58-22,4.13-22.2,4.16Z" fill="#faf4e8"/><rect x="376.05" y="446.38" width="12.26" height="9.7" fill="#fba186"/><path d="M391.11,478c-.17,1.82-1.65,2.23-5.33,2.8l-.5.08c-1.56.24-3.48.52-5.83,1-4.22.76-10.38,2-16,3l-.49.08c-5.45.94-10.34,1.63-12.45,1.43-4.34-.43-4.06-3.13-3-5.26.46-1,4.89-4,9.86-7.31l.42-.29c3.12-2.05,6.42-4.18,9.06-5.93l.5-.32,1.8-1.21.45-.31c1-.67,1.74-1.21,2.16-1.56l.08-.07.38-.35c2.74-2.69,3.89-7.58,3.89-7.58H388.3s.6,3.75,1.24,8.17l.09.61C390.42,470.32,391.24,476.54,391.11,478Z" fill="url(#ae)"/><path d="M363.43,484.77c0-.41,0-.81-.09-1.2a3.86,3.86,0,0,0-.06-.49,14.19,14.19,0,0,0-5.55-9.66l-.09-.06a.25.25,0,0,0-.34.08.24.24,0,0,0,0,.27.23.23,0,0,0,.07.07,13.89,13.89,0,0,1,5.55,11,0,0,0,0,0,0,0Z" fill="#faf4e8"/><path d="M385.78,480.76a24.46,24.46,0,0,1,3.85-15.89l-.09-.61a.19.19,0,0,0-.16.09A25.23,25.23,0,0,0,385.13,479c0,.17,0,.34,0,.51,0,.44.07.88.13,1.33h0Z" fill="#faf4e8"/><path d="M371.19,471.41a.27.27,0,0,1-.14,0,.26.26,0,0,1-.21-.11,10.84,10.84,0,0,0-4-3.85l.5-.32a11.77,11.77,0,0,1,4,3.89A.25.25,0,0,1,371.19,471.41Z" fill="#faf4e8"/><path d="M373,469.62a.33.33,0,0,1-.14,0,.26.26,0,0,1-.21-.11,11.7,11.7,0,0,0-3.54-3.59l.45-.31a12.43,12.43,0,0,1,3.5,3.62A.25.25,0,0,1,373,469.62Z" fill="#faf4e8"/><path d="M375.21,467.38a.24.24,0,0,1-.14.05.26.26,0,0,1-.21-.11,12.69,12.69,0,0,0-3.08-3.3l.38-.35a13.51,13.51,0,0,1,3.12,3.36A.25.25,0,0,1,375.21,467.38Z" fill="#faf4e8"/><path d="M363.19,483.59a.25.25,0,0,1-.25-.21.24.24,0,0,1,.21-.28c.16,0,16.46-2.58,22.15-4.15a.25.25,0,0,1,.13.48c-5.71,1.58-22,4.13-22.21,4.16Z" fill="#faf4e8"/><path d="M446.76,166c-.07,1.92-.09,3.87-.16,5.79h-9.24c-.71-3.82-2.1-10.76-3.36-13.7a122.63,122.63,0,0,1-.37,13.7H404.4l.12,3.52c-2.6-13.44-.22-27.42-2.39-40.93-1.3-8.11-4.2-16.51-1.62-24.31.82-2.46,2.05-4.85,4.8-5.09a22.35,22.35,0,0,1,9.91,1.56,28.65,28.65,0,0,1,6.32,4.1c3.17,2.48,6.49,5.16,7.81,9s.59,8.29,3.23,11.21a24.38,24.38,0,0,0,3.71,2.8,12.64,12.64,0,0,1,4.87,11.23c-.34,3.14-1.78,6.66.09,9.21.88,1.19,2.31,1.84,3.35,2.89C446.85,159.25,446.88,162.84,446.76,166Z" fill="#42353b"/><path d="M401.17,172.62q-13.53,1.75-27,4.15c-.72-2.65-2.51-10-1.89-15.46,0,0-1.81,8.2-.14,15.82l-3.07.57a1.8,1.8,0,0,1-.95,0c-.54-.2-.74-.85-.87-1.41A46.82,46.82,0,0,1,365.58,165c.06-3.82,1.14-7.76,3.74-10.56,1.3-1.4,3-2.54,3.72-4.3,1.28-3.09-.84-6.42-1.62-9.67a12.1,12.1,0,0,1,1.49-9.13c1.41-2.27,3.52-4,4.93-6.29,1.26-2,1-4.72,3.87-3.32a26.68,26.68,0,0,1,10.83,10.82,44.73,44.73,0,0,1,3.23,7.76A107.92,107.92,0,0,1,401.17,172.62Z" fill="#42353b"/><path d="M379.2,119.37c-.17,1.19-.06,2.4-.23,3.58-.33,2.23-1.59,4.19-2.44,6.28s-1.19,4.66.17,6.45c.39.52.91.94,1.25,1.49.82,1.32.5,3,.67,4.56a6.87,6.87,0,0,0,3.11,5c.63.4,1.53.67,2.07.16a2,2,0,0,0,.44-1.16c.32-2.16.63-4.31.94-6.47.79-5.47,1.59-11,1.83-16.49.12-2.83,1.21-12.33-4.2-8.88A8,8,0,0,0,379.2,119.37Z" fill="#42353b"/><polygon points="393.89 169.33 414.61 165.53 420.26 248 383.38 248 393.89 169.33" fill="url(#af)"/><path d="M413.74,164.38a19.25,19.25,0,0,1-4.42,7.41c-4.46,5.37-9.67,5.55-12.79,5a2.55,2.55,0,0,1-2-3.1,32.79,32.79,0,0,0,.58-3.9c.27-2.68.33-5.39.34-6.82,0-.64,0-1,0-1l17.68-11.36.07,1.43Z" fill="url(#ag)"/><path d="M413.17,152c-.29.58-10.06,19.27-15.34,18.51a9.72,9.72,0,0,1-2.75-.75c.27-2.68.33-5.39.34-6.82A35.59,35.59,0,0,0,413.17,152Z" fill="#a97c52"/><path d="M386.69,292.85s6.88-110,7.74-117.5.82-7.52.82-7.52-11.64.74-19.46,9.18-6,59.5-6,59.5l-3.06,57.19S382.37,296.94,386.69,292.85Z" fill="url(#ah)"/><path d="M446.14,284.25c-1.32-13.63-4.19-44.82-4.39-60.5-.25-20.43,0-43.41-5.11-50.3s-22.81-12.79-23-12.14a86.15,86.15,0,0,1-4.28,10.48,95.82,95.82,0,0,0-1.53,19c.22,8.71,4.4,76.09,5.62,95.74h0l0,.28c.2,3.22.32,5.09.32,5.09a38.45,38.45,0,0,0,33.05-1Z" fill="url(#ai)"/><path d="M428.39,167.83s-10,4.85-10.7,23.75-.64,19.91-.64,19.91h28.87S446,167.72,428.39,167.83Z" fill="url(#aj)"/><path d="M408.53,205.68h0a.13.13,0,0,1-.11-.14c.87-7.12,12.58-26.79,13.59-28.48l-5-2.56a.14.14,0,0,1-.07-.1.13.13,0,0,1,.05-.11l10.24-7.92a.12.12,0,0,1,.15.19l-10.08,7.8,4.94,2.54a.12.12,0,0,1,.07.07.12.12,0,0,1,0,.1c-.12.21-12.73,21.15-13.62,28.5A.12.12,0,0,1,408.53,205.68Z" fill="#42353b"/><path d="M392.21,208.91a.11.11,0,0,1-.12-.09l-7.88-25.21a.1.1,0,0,1,0-.09l2.79-5.68-6.43-2.37a.14.14,0,0,1-.08-.09.11.11,0,0,1,0-.11l4.43-4.81a.12.12,0,0,1,.17,0,.13.13,0,0,1,0,.18l-4.3,4.67,6.38,2.35a.16.16,0,0,1,.08.08.12.12,0,0,1,0,.1l-2.83,5.76,7.87,25.16a.14.14,0,0,1-.09.16Z" fill="#42353b"/><path d="M416,293a.13.13,0,0,1-.13-.12l-6-92.2a.14.14,0,0,1,.12-.14.13.13,0,0,1,.13.12l6,92.21a.12.12,0,0,1-.12.13Z" fill="#42353b"/><path d="M385.34,293.87h0a.14.14,0,0,1-.12-.14l5.85-88.18a.13.13,0,0,1,.13-.12h0a.12.12,0,0,1,.11.14l-5.85,88.18A.13.13,0,0,1,385.34,293.87Z" fill="#42353b"/><path d="M445.92,211.62H419a.14.14,0,0,1-.13-.12c-.25-4.42,0-21,0-21.2a.13.13,0,0,1,.13-.13h0a.13.13,0,0,1,.12.13c0,.17-.25,16.48,0,21.07h26.77a.12.12,0,0,1,.13.12A.13.13,0,0,1,445.92,211.62Z" fill="#42353b"/><path d="M445.87,208.91h-27a.12.12,0,0,1-.12-.12.12.12,0,0,1,.12-.13h27a.12.12,0,0,1,.12.13A.12.12,0,0,1,445.87,208.91Z" fill="#42353b"/><path d="M439.6,208.91h0a.12.12,0,0,1-.12-.13c.16-5,.1-14.64-1.21-15.8a.33.33,0,0,0-.26-.09c-.65.1-1.67,2.21-1.24,15.13,0,.81,0,.81,0,.85l-.09-.08v0l-.12,0s0-.35,0-.74c-.34-10.14.14-15.18,1.45-15.39a.61.61,0,0,1,.47.15c1.72,1.52,1.31,15.41,1.29,16A.12.12,0,0,1,439.6,208.91Z" fill="#42353b"/><circle cx="438.09" cy="198.66" r="0.83" fill="#42353b"/><path d="M432.88,171c-4.73.35-9.57,4.64-12.28,9.39a31.6,31.6,0,0,0-3.93,15.31c-.09,20.92-2.33,57.7-2.33,57.7H449c1.92,0-.09-43.26-.23-44.89-.26-3-.58-6.09-1-9.12A76.3,76.3,0,0,0,444,182.18C442.13,177.14,439.36,170.48,432.88,171Z" fill="none" stroke="#faf4e8" stroke-miterlimit="10"/><polygon points="303.67 175.6 325.63 179.15 353.71 175.35 378.61 166.69 406.51 232.4 379.73 238.38 354.23 241.11 335.33 239.83 303.67 175.6" fill="#dfe3f0"/><polygon points="325.63 179.15 354.23 241.11 376.66 238.71 353.71 175.35 325.63 179.15" fill="#c6c9d6"/><path d="M320.46,209.53s-1.21.09-1.81,3.58-1.67,5.55-.83,7.07,11.68,8.08,11.68,8.08Z" fill="#fba186"/><path d="M320.46,209.53s2.57-1.17,6.85,1.77,6.26,4.85,6.06,5.62-.76,2.36-2,2.42-9.7-1.15-9.7-1.15Z" fill="#fba186"/><path d="M321.72,218.56c.85-.77,8.55.73,9.61.78a2.47,2.47,0,0,0,2.06-3c-.42-1.44-7.84-6.68-10.65-7.08s-3.53,1.71-3.53,1.71l-.79,3.31s-1.24,4.19-.91,5.43" fill="none" stroke="#42353b" stroke-linecap="round" stroke-linejoin="round" stroke-width="0.25"/><path d="M320.46,212.77s7.89,1.84,12.42,5.41" fill="none" stroke="#42353b" stroke-linecap="round" stroke-linejoin="round" stroke-width="0.25"/><line x1="353.72" y1="175.35" x2="376.66" y2="238.71" fill="none" stroke="#42353b" stroke-linecap="round" stroke-linejoin="round" stroke-width="0.25"/><line x1="325.63" y1="179.15" x2="354.23" y2="241.11" fill="none" stroke="#42353b" stroke-linecap="round" stroke-linejoin="round" stroke-width="0.25"/><path d="M441,226.64c-.64,14.3-6.38,20.59-13.7,19.23-4.81-.89-5.71-15.76-5.76-25.84v-.41c0-5.06.18-8,.18-8h19.9S441.62,212.34,441,226.64Z" fill="url(#ak)"/><path d="M433.32,228.8,421.52,220v-.41c.71-.18,2.48-.31,5.33,1.4C430.68,223.32,433.32,228.8,433.32,228.8Z" fill="url(#al)"/><path d="M406.77,219.79s14,25.83,21.58,26.3,11.61-8.64,9.7-12.62-26.17-20.06-26.17-20.06Z" fill="url(#am)"/><path d="M406.77,219.79s-3,1.57-6-1.58-1.7-2.12-3.91-2.8-9-.6-9.36-2,.25-1.41,2.64-1.49,6.93-.43,6.93-.43-11.36-4-12.55-5.53-2.11-9-1.18-10.13,13.52,3.41,16.07,5.11,12.43,12.47,12.43,12.47" fill="url(#an)"/><path d="M383,198.69s10.31,2.17,12.41,3.13,3.19,1.53,3.19,1.53" fill="url(#ao)"/><path d="M383.71,202.63s8.52,2.1,11.14,3.12a17.25,17.25,0,0,1,4.08,2.17" fill="url(#ap)"/><path d="M421.52,220s9.37,6,13,9.73" fill="url(#aq)"/><path d="M415.91,142.88c-.27,2-.61,4-.84,6a25.23,25.23,0,0,1-10.94,11c-2.94,1.53-6.81,3.5-10.21,3.4-4.68-.13-7.42-5.1-9.13-9.19-.23-.55-.44-1.08-.64-1.59a52.85,52.85,0,0,1-3-11.62,51.14,51.14,0,0,1-.5-6.17c0-.79,0-1.58,0-2.36h0A22.49,22.49,0,0,1,384,121a17.64,17.64,0,0,1,11-7.57,16.75,16.75,0,0,1,13,2.68,20.44,20.44,0,0,1,7.63,12.2A40.8,40.8,0,0,1,415.91,142.88Z" fill="url(#ar)"/><path d="M399.32,148.13a7.82,7.82,0,1,0,4.89-10.25A8,8,0,0,0,399.32,148.13Z" fill="url(#as)"/><path d="M384.79,154.25c-.23-.55-.44-1.09-.64-1.6a52.56,52.56,0,0,1-3-11.62,7.5,7.5,0,0,1,3.66,13.22Z" fill="url(#at)"/><path d="M392.07,150.08a.14.14,0,0,0,0-.28,5.43,5.43,0,0,1-1.86-1.15,1.38,1.38,0,0,1-.36-.48,1.63,1.63,0,0,1,.35-1.29l.16-.3c.84-1.62.31-3.63-.25-5.21a46.1,46.1,0,0,0-2-4.81.16.16,0,0,0-.2-.07.15.15,0,0,0-.06.2,48.79,48.79,0,0,1,2,4.78c.57,1.61,1.05,3.46.27,5l-.16.29a1.85,1.85,0,0,0-.37,1.54,1.56,1.56,0,0,0,.43.59,5.53,5.53,0,0,0,2,1.22Z" fill="#42353b"/><path d="M399.63,150.09s-4.35,4-9.24,2.62" fill="none" stroke="#42353b" stroke-linecap="round" stroke-linejoin="round" stroke-width="0.31"/><path d="M397.39,153.48s-2.22,2.09-4.76,1.43" fill="none" stroke="#42353b" stroke-linecap="round" stroke-linejoin="round" stroke-width="0.16"/><path d="M406.1,133.75a7.86,7.86,0,0,0-2.72-2.44,8.75,8.75,0,0,0-3.56-1.12,7.77,7.77,0,0,0-3.73.52,7.61,7.61,0,0,0-3,2.06.33.33,0,0,0,0,.47.35.35,0,0,0,.31.07h0a27,27,0,0,1,3.16-.79,10.88,10.88,0,0,1,3-.1,18.35,18.35,0,0,1,6,1.84h0a.34.34,0,0,0,.46-.17A.34.34,0,0,0,406.1,133.75Z" fill="#42353b"/><path d="M380.63,134.87h0a8,8,0,0,1,2.54-.72A20.13,20.13,0,0,1,386,134h0a.27.27,0,0,0,.23-.16.35.35,0,0,0-.1-.45,6,6,0,0,0-3-1.17,5.86,5.86,0,0,0-2.52.23C380.63,133.29,380.61,134.08,380.63,134.87Z" fill="#42353b"/><circle cx="385.05" cy="140.34" r="1.23" fill="#382b31"/><circle cx="398.35" cy="138.69" r="1.29" fill="#382b31"/><path d="M414.6,140.32c.49-.75,1.9-6.24,5.88-5.8s5.36,9.86.8,12.78-6.94.85-6.94.85Z" fill="#fba186"/><path d="M417.06,139.1c.25-1,.65-2.26,1.68-2.57a2.37,2.37,0,0,1,2.15.63,6.1,6.1,0,0,1,1.55,6.27,4.67,4.67,0,0,1-1.48,2.45,2.52,2.52,0,0,1-2.72.31,3.1,3.1,0,0,1-1.19-1.54" fill="none" stroke="#42353b" stroke-linecap="round" stroke-linejoin="round" stroke-width="0.32"/><path d="M420,136.63s-2.46,2.83-2.33,9.09" fill="none" stroke="#42353b" stroke-linecap="round" stroke-linejoin="round" stroke-width="0.32"/><path d="M386.64,118.21a11.75,11.75,0,0,0,6.53,5.18c1.91.6,4.23.89,5.19,2.64.62,1.14.42,2.55.82,3.78.81,2.5,3.77,3.57,6.39,3.85,1.41.15,2.93.19,4.09,1,1.54,1.09,2,3.28,3.65,4.27a1.38,1.38,0,0,0,1.05.25c.48-.11.77-.59,1-1a13,13,0,0,1,4.29-4.26,10.27,10.27,0,0,0,2.36-1.64,4.7,4.7,0,0,0,1.11-2.52c.41-2.84-1.1-5.64-3-7.75s-4.33-3.78-6.28-5.89c-3.13-3.37-3.79-8.45-7.89-10.55-1.94-1-5.61-.82-7.79-.76a19.5,19.5,0,0,0-10.74,3.63c-1.66,1.19-2.38,1.8-2.37,3.9A11.71,11.71,0,0,0,386.64,118.21Z" fill="#42353b"/><path d="M413.22,140.93a2.45,2.45,0,0,0,.53.93.84.84,0,0,0,1,.17,1.25,1.25,0,0,0,.42-.87c.31-1.74.63-3.48.94-5.21a3.12,3.12,0,0,0-.21-2.39,2.58,2.58,0,0,0-4.6,1.53C411.16,137,412.58,139.26,413.22,140.93Z" fill="#42353b"/><path d="M410.38,152.85a11.2,11.2,0,0,0-3,5.82,10,10,0,0,1-.31,1.8,10.32,10.32,0,0,1-2.07,2.8,8,8,0,0,0-1.45,7,1,1,0,0,0,.3.54,1,1,0,0,0,.68.13c9.68-.43,19.38-1.92,29-1a41.6,41.6,0,0,0-.88-8.76,16.84,16.84,0,0,0-1.83-5.18,7.8,7.8,0,0,0-4.08-3.54c-2.43-.81-5.27-.08-7.51-1.33-1.21-.67-2.61-2.61-4.07-2.27S411.43,151.72,410.38,152.85Z" fill="#42353b"/><path d="M317.26,200.61s-2.89,2-1.62,4.51,9.11,4.43,9.79,3.24S320.83,199.93,317.26,200.61Z" fill="#fba186"/><path d="M317.65,206.85s6.42,2.76,7.56,1.7c.52-.48,0-3-3.3-5.82-3.53-3-4.65-2.12-4.65-2.12" fill="none" stroke="#42353b" stroke-linecap="round" stroke-linejoin="round" stroke-width="0.25"/><path d="M433,320.16l-.59.06c-35.76,2.95-25.62-66.86-25.62-66.86l44.7-1.18h0l.93,0S466.29,316.65,433,320.16Z" fill="url(#au)"/><path d="M408.4,253.36s-9.81,66.8,24,66.86" fill="none" stroke="#382b31" stroke-miterlimit="10" stroke-width="0.25"/><path d="M433,320.16c.39-3.2,3-5.66,4.22-8.65,1.11-2.77,1-5.88,1.81-8.74.88-3,2.8-5.63,4.26-8.43,2.83-5.46,3.89-11.67,4.38-17.8s.43-12.31,1.23-18.41a10.48,10.48,0,0,1,1.58-4.95,5.63,5.63,0,0,1,1-1h0l.93,0S466.29,316.65,433,320.16Z" fill="#faf4e8" style="mix-blend-mode:multiply"/><path d="M426.52,278.35c-1.13,4-2.29,8-1,12.19a10.67,10.67,0,0,0,5,6.13c1.3.75,5.55,3,7.05,2.26a1.24,1.24,0,0,0,.5-.68,30.19,30.19,0,0,0,2.49-11.56c-.16-8.14-7.07-13.05-11.71-18.93.24.3-.52,2.72-.62,3.27-.26,1.51-.57,3-.9,4.5C427.05,276.47,426.79,277.41,426.52,278.35Z" fill="none" stroke="#382b31" stroke-miterlimit="10" stroke-width="0.25"/><path d="M428.77,267.76s6.79,25.44,8.72,31.17" fill="none" stroke="#382b31" stroke-miterlimit="10" stroke-width="0.25"/><polyline points="428.4 277.3 432.39 281.12 433.82 276.28" fill="none" stroke="#382b31" stroke-linecap="round" stroke-linejoin="round" stroke-width="0.25"/><polyline points="427.29 283.77 434.51 288.79 437.31 281.38" fill="none" stroke="#382b31" stroke-linecap="round" stroke-linejoin="round" stroke-width="0.25"/><polyline points="427.29 290.15 436.14 294.51 438.95 287.68" fill="none" stroke="#382b31" stroke-linecap="round" stroke-linejoin="round" stroke-width="0.25"/><path d="M486.67,399.09a31.48,31.48,0,1,0-59.54,16.55h0l.14.26c.21.4.42.8.64,1.19l25.78,47.68a1.81,1.81,0,0,0,3.18,0L481,419.69A31.41,31.41,0,0,0,486.67,399.09Zm-31.39,20a17.51,17.51,0,1,1,17.5-17.51A17.51,17.51,0,0,1,455.28,419.05Z" fill="url(#av)"/><ellipse cx="454.4" cy="478.21" rx="10.72" ry="1.51" opacity="0.84" fill="url(#aw)" style="mix-blend-mode:multiply"/><path d="M99.15,449.75c.91-3.06,1.55-6.63-.29-9.23-1.57-2.22-4.58-3-7.28-2.69a20.32,20.32,0,0,0-7.49,3.07,58,58,0,0,0,5-33.74c-.75-4.89-2.76-10.37-7.44-12-3.56-1.22-7.6.34-10.32,2.94s-4.41,6.07-6,9.46a64.44,64.44,0,0,0-2.73-32.2c-1.48-4.21-3.63-8.5-7.48-10.73-5.92-3.43-14-.43-18,5.16s-4.49,12.94-3.62,19.74,3,13.37,3.86,20.16a25.26,25.26,0,0,0-18.23-2.13,12.18,12.18,0,0,0-6.45,3.68c-2.14,2.62-2.38,6.42-1.34,9.64a23.94,23.94,0,0,0,5.46,8.48,72.14,72.14,0,0,0,18.39,14.53c-4.62-.14-9.94,0-12.87,3.6-2.18,2.67-2.28,6.6-1,9.8s3.74,5.78,6.33,8.06c9.46,8.3,21.32,13.38,33.53,16,4.54,1,13,3.63,17.1,1.37,4.81-2.63,9.29-9.87,12.2-14.35A72.62,72.62,0,0,0,99.15,449.75Z" fill="url(#ax)"/><path d="M76.55,483.81h.06a.15.15,0,0,0,.07-.2c-.24-.58-25-59.14-30.63-119.93a.15.15,0,0,0-.16-.13.16.16,0,0,0-.14.16c5.69,60.84,30.41,119.43,30.66,120A.15.15,0,0,0,76.55,483.81Z" fill="#42353b"/><path d="M59,431.86a.14.14,0,0,0,.12-.06l23.88-36a.14.14,0,0,0,0-.2.14.14,0,0,0-.2,0L58.9,431.53,12.73,411.12a.14.14,0,0,0-.19.08.14.14,0,0,0,.07.19L58.9,431.85Z" fill="#42353b"/><path d="M71.41,470.6a.14.14,0,0,0,.12-.06l24.1-32.28a.15.15,0,1,0-.24-.18l-24,32.19L20.87,450.35a.15.15,0,1,0-.11.27l50.6,20Z" fill="#42353b"/><path d="M50.5,395.85h0a.14.14,0,0,0,.11-.06L63.82,379a.15.15,0,0,0,0-.21.15.15,0,0,0-.21,0L50.48,395.48,33.57,379.37a.15.15,0,0,0-.21,0,.14.14,0,0,0,0,.21l17,16.23A.13.13,0,0,0,50.5,395.85Z" fill="#42353b"/><path d="M217.11,487.12H35.68a17.26,17.26,0,0,1,8.71-9.72c5.35-2.68,11.55-3.07,17.53-3a6.46,6.46,0,0,0,3.13-.48,6.59,6.59,0,0,0,2.2-2.68C71.85,463.15,79,456.07,88,453.78s19.8,1.29,23.95,9.62c3.29-6.75,7.43-13.26,13.28-18s13.64-7.43,21-5.9a21,21,0,0,1,16.24,18.75c.05.82.12,1.78.81,2.22a2.52,2.52,0,0,0,1.8.09c5.66-1.15,11.47-2.42,17.18-1.49s11.38,4.59,12.8,10.19c.43,1.67.76,3.79,2.4,4.28a5,5,0,0,0,2.57-.27,13.61,13.61,0,0,1,17.05,13.81Z" fill="url(#ay)"/></g></svg>