<svg xmlns="http://www.w3.org/2000/svg" xmlns:xlink="http://www.w3.org/1999/xlink" viewBox="0 0 453.72 432.88"><defs><clipPath id="a" transform="translate(-21.85 -42.29)"><path d="M228.9,389.72a180.56,180.56,0,0,1,44.38.37c16.75,2.21,32.29,9.49,49.13,9.88,28.71.67,60.3-9,76.67-31.07,10.05-13.53,12.64-30.41,12.14-46.6s-3.82-32.22-4.44-48.4c-1-26.54,5.22-52.89,5.88-79.43.37-14.84-1.13-30.11-8.39-43.49-8.49-15.64-24.53-27.59-42.75-34s-38.48-7.57-57.89-5.09c-22.09,2.82-43.4,10.21-65.7,11-20,.69-39.64-4-59.43-6.45s-41.15-2.55-58.39,6.41C96.73,135,86.84,160.62,84.92,184.55c-3.13,39,9.91,78,7.39,117.05-1.07,16.73-5,33.71-.77,50,7.13,27.74,38.66,48,70.81,48.4,20.33.24,39.88-6.3,59.9-9.42C224.46,390.29,226.68,390,228.9,389.72Z" fill="none"/></clipPath><linearGradient id="b" x1="374.36" y1="358.79" x2="475.3" y2="358.79" gradientUnits="userSpaceOnUse"><stop offset="0" stop-color="#c2791f"/><stop offset="1" stop-color="#885717"/></linearGradient><linearGradient id="c" x1="374.09" y1="358.79" x2="475.57" y2="358.79" gradientUnits="userSpaceOnUse"><stop offset="0" stop-color="#cd8021"/><stop offset="1" stop-color="#4e1f1f"/></linearGradient><linearGradient id="d" x1="40.79" y1="386.42" x2="114.74" y2="386.42" gradientUnits="userSpaceOnUse"><stop offset="0" stop-color="#7391ee"/><stop offset="1" stop-color="#333571"/></linearGradient><linearGradient id="e" x1="26.54" y1="287.28" x2="128.11" y2="287.28" gradientUnits="userSpaceOnUse"><stop offset="0" stop-color="#c54242"/><stop offset="1" stop-color="#4e1f1f"/></linearGradient><linearGradient id="f" x1="56.66" y1="207" x2="94.81" y2="207" gradientUnits="userSpaceOnUse"><stop offset="0" stop-color="#c2791f"/><stop offset="1" stop-color="#513510"/></linearGradient></defs><title>save</title><path d="M297.39,429.31c-50,5.42-101.37,2.16-148.83-10.14-21.75-5.63-43.6-13.34-61.51-23.86-30.84-18.13-36.74-49.24-35.35-74.8A360.71,360.71,0,0,0,46,232.83c-5.93-31-6-71.45,22.15-100.56,51.89-53.72,124.1-69.7,236.65-41.72,97.45,24.22,157.64,52.93,148,121.69-4.14,29.54-5.15,59.27-1.95,88.86C460.8,393.05,436.77,414.24,297.39,429.31Z" transform="translate(-21.85 -42.29)" fill="#e0bfa0" opacity="0.5"/><path d="M438.76,218.93a245.59,245.59,0,0,1-11,118c-6.12,17.25-14.51,34.58-26,48.78-19.71,24.45-53.54,29.13-81.34,28a536,536,0,0,0-95.33,4.48c-33.7,4.71-77.7,4.73-109.35-17.56C57.34,359.53,40,302.27,70.39,213,96.73,135.75,127.94,88,202.72,95.67a536.8,536.8,0,0,0,96.62,1.55C399.33,89.35,422.37,108.4,438.76,218.93Z" transform="translate(-21.85 -42.29)" fill="#d6aa81"/><path d="M228.9,389.72a180.56,180.56,0,0,1,44.38.37c16.75,2.21,32.29,9.49,49.13,9.88,28.71.67,60.3-9,76.67-31.07,10.05-13.53,12.64-30.41,12.14-46.6s-3.82-32.22-4.44-48.4c-1-26.54,5.22-52.89,5.88-79.43.37-14.84-1.13-30.11-8.39-43.49-8.49-15.64-24.53-27.59-42.75-34s-38.48-7.57-57.89-5.09c-22.09,2.82-43.4,10.21-65.7,11-20,.69-39.64-4-59.43-6.45s-41.15-2.55-58.39,6.41C96.73,135,86.84,160.62,84.92,184.55c-3.13,39,9.91,78,7.39,117.05-1.07,16.73-5,33.71-.77,50,7.13,27.74,38.66,48,70.81,48.4,20.33.24,39.88-6.3,59.9-9.42C224.46,390.29,226.68,390,228.9,389.72Z" transform="translate(-21.85 -42.29)" fill="#d7e273"/><g clip-path="url(#a)"><path d="M203.67,205.11C87.5,180.07,57.07,201,57.07,201c-51,27-48.17,141.67,43.79,159.64,25.25,4.93,51.79,4.56,73.21-9.61,15.49-10.23,26.34-24.6,38.82-37.42A147.83,147.83,0,0,1,239.73,292c9.23-5.86,19.73-10.06,28.61-16.34,12.56-8.87,23.36-22.87,13.3-36.75C266.44,217.93,228.72,210.51,203.67,205.11Z" transform="translate(-21.85 -42.29)" fill="#c0ce61"/><path d="M356.72,78.51C275.86,33.93,246.93,43.06,246.93,43.06c-46.22,9.16-69.67,78.53-5.14,112.42S358.56,166,385,158.39,437.58,123.08,356.72,78.51Z" transform="translate(-21.85 -42.29)" fill="#c0ce61"/><path d="M333.94,324.21c68.3,6,83.71-8.08,83.71-8.08,26.55-19,16.68-70.39-37.22-74.08s-79.23,26.15-93.56,38.53S265.64,318.23,333.94,324.21Z" transform="translate(-21.85 -42.29)" fill="#c0ce61"/><line x1="221.82" y1="193.41" x2="226.72" y2="193.41" fill="none" stroke="#222221" stroke-linecap="round" stroke-linejoin="round" stroke-width="0.48"/><line x1="221.82" y1="202.99" x2="226.72" y2="202.99" fill="none" stroke="#222221" stroke-linecap="round" stroke-linejoin="round" stroke-width="0.48"/><line x1="221.82" y1="206.91" x2="226.72" y2="206.91" fill="none" stroke="#222221" stroke-linecap="round" stroke-linejoin="round" stroke-width="0.48"/><line x1="198.8" y1="179.85" x2="202.46" y2="179.85" fill="none" stroke="#222221" stroke-linecap="round" stroke-linejoin="round" stroke-width="0.48"/><line x1="198.8" y1="186.27" x2="202.46" y2="186.27" fill="none" stroke="#222221" stroke-linecap="round" stroke-linejoin="round" stroke-width="0.48"/><line x1="106.45" y1="192.99" x2="112.3" y2="192.99" fill="none" stroke="#222221" stroke-linecap="round" stroke-linejoin="round" stroke-width="0.48"/><line x1="106.45" y1="208.41" x2="112.3" y2="208.41" fill="none" stroke="#222221" stroke-linecap="round" stroke-linejoin="round" stroke-width="0.48"/><rect x="177.7" y="176.03" width="22.29" height="46.56" fill="#02bbbe"/><rect x="110.82" y="189.04" width="22.29" height="33.55" fill="#be7950"/><rect x="199.99" y="189.04" width="22.29" height="33.55" fill="#be7950"/><rect x="155.41" y="182.13" width="22.29" height="40.46" fill="#e46341"/><rect x="110.82" y="204.72" width="22.29" height="2.19" fill="#e46341"/><rect x="110.82" y="187.95" width="22.29" height="2.19" fill="#934b2a"/><path d="M137.3,244.65h0a2.17,2.17,0,0,0,2.29-2v-5.88a2.17,2.17,0,0,0-2.29-2h0a2.17,2.17,0,0,0-2.28,2v5.88A2.17,2.17,0,0,0,137.3,244.65Z" transform="translate(-21.85 -42.29)" fill="#f1d154"/><path d="M150.33,244.65h0a2.17,2.17,0,0,0,2.28-2v-5.88a2.17,2.17,0,0,0-2.28-2h0a2.17,2.17,0,0,0-2.28,2v5.88A2.17,2.17,0,0,0,150.33,244.65Z" transform="translate(-21.85 -42.29)" fill="#6d8e35"/><path d="M143.82,244.65h0a2.17,2.17,0,0,0,2.28-2v-5.88a2.17,2.17,0,0,0-2.28-2h0a2.17,2.17,0,0,0-2.29,2v5.88A2.17,2.17,0,0,0,143.82,244.65Z" transform="translate(-21.85 -42.29)" fill="#d7e273"/><rect x="113.17" y="213.3" width="4.56" height="5.88" rx="1.67" fill="#a8b942"/><rect x="126.2" y="213.3" width="4.56" height="5.88" rx="1.67" fill="#a8b942"/><path d="M141.53,264.88h4.57v-7.27a2.16,2.16,0,0,0-2.28-2h0a2.17,2.17,0,0,0-2.29,2Z" transform="translate(-21.85 -42.29)" fill="#934b2a"/><path d="M136.69,253.87h14.25a1.58,1.58,0,0,0,1.67-1.48h0a1.59,1.59,0,0,0-1.67-1.48H136.69a1.59,1.59,0,0,0-1.67,1.48h0A1.58,1.58,0,0,0,136.69,253.87Z" transform="translate(-21.85 -42.29)" fill="#f1d154"/><rect x="104.32" y="191.3" width="4.26" height="18.81" rx="1.31" fill="#02bbbe"/><path d="M183.94,255.59h0a2.22,2.22,0,0,0-2.34,2.07v7.22h4.68v-7.22A2.21,2.21,0,0,0,183.94,255.59Z" transform="translate(-21.85 -42.29)" fill="#934b2a"/><path d="M193,259.33h0a2,2,0,0,1-2.11-1.87h0a2,2,0,0,1,2.11-1.87h0a2,2,0,0,1,2.11,1.87h0A2,2,0,0,1,193,259.33Z" transform="translate(-21.85 -42.29)" fill="#934b2a"/><rect x="169" y="203.96" width="4.22" height="3.74" fill="#f1d154"/><rect x="169" y="194.61" width="4.22" height="3.74" fill="#f1d154"/><rect x="169" y="185.26" width="4.22" height="3.74" fill="#f1d154"/><rect x="159.98" y="203.96" width="4.22" height="3.74" fill="#f1d154"/><rect x="159.98" y="194.61" width="4.22" height="3.74" fill="#f1d154"/><rect x="159.98" y="185.26" width="4.22" height="3.74" fill="#f1d154"/><line x1="199.99" y1="206.91" x2="177.7" y2="206.91" fill="none" stroke="#6d8e35" stroke-miterlimit="10" stroke-width="1.03"/><line x1="177.7" y1="200.7" x2="199.99" y2="200.7" fill="none" stroke="#6d8e35" stroke-miterlimit="10" stroke-width="1.03"/><path d="M205.83,230.23h0a2.23,2.23,0,0,1-2.36-2.08v-3.92a2.24,2.24,0,0,1,2.36-2.09h0a2.24,2.24,0,0,1,2.36,2.09v3.92A2.23,2.23,0,0,1,205.83,230.23Z" transform="translate(-21.85 -42.29)" fill="#6d8e35"/><path d="M215.57,230.23h0a2.23,2.23,0,0,1-2.36-2.08v-3.92a2.23,2.23,0,0,1,2.36-2.09h0a2.23,2.23,0,0,1,2.35,2.09v3.92A2.23,2.23,0,0,1,215.57,230.23Z" transform="translate(-21.85 -42.29)" fill="#a8b942"/><path d="M205.83,240.66h0a2.24,2.24,0,0,1-2.36-2.09v-3.92a2.24,2.24,0,0,1,2.36-2.09h0a2.24,2.24,0,0,1,2.36,2.09v3.92A2.24,2.24,0,0,1,205.83,240.66Z" transform="translate(-21.85 -42.29)" fill="#a8b942"/><path d="M215.57,240.66h0a2.24,2.24,0,0,1-2.36-2.09v-3.92a2.24,2.24,0,0,1,2.36-2.09h0a2.23,2.23,0,0,1,2.35,2.09v3.92A2.23,2.23,0,0,1,215.57,240.66Z" transform="translate(-21.85 -42.29)" fill="#be7950"/><path d="M205.83,259.64h0a2.24,2.24,0,0,1-2.36-2.09v-3.92a2.24,2.24,0,0,1,2.36-2.09h0a2.24,2.24,0,0,1,2.36,2.09v3.92A2.24,2.24,0,0,1,205.83,259.64Z" transform="translate(-21.85 -42.29)" fill="#be7950"/><path d="M215.57,259.64h0a2.24,2.24,0,0,1-2.36-2.09v-3.92a2.24,2.24,0,0,1,2.36-2.09h0a2.23,2.23,0,0,1,2.35,2.09v3.92A2.23,2.23,0,0,1,215.57,259.64Z" transform="translate(-21.85 -42.29)" fill="#a8b942"/><rect x="177.7" y="219.83" width="22.29" height="2.76" fill="#934b2a"/><path d="M204.14,213.3h14a1.22,1.22,0,0,1,1.22,1.22v8.07a0,0,0,0,1,0,0H202.92a0,0,0,0,1,0,0v-8.07A1.22,1.22,0,0,1,204.14,213.3Z" fill="#02bbbe"/><rect x="199.99" y="189.04" width="22.29" height="2.25" fill="#934b2a"/><rect x="202.92" y="203.59" width="7.36" height="6.51" fill="#f1d154"/><rect x="211.99" y="203.59" width="7.36" height="6.51" fill="#f1d154"/><rect x="202.92" y="194.97" width="7.36" height="6.51" fill="#f1d154"/><rect x="211.99" y="194.97" width="7.36" height="6.51" fill="#d7e273"/><rect x="201.55" y="178.64" width="9.59" height="8.48" rx="0.87" fill="#f1d154"/><rect x="223.22" y="205.56" width="5.69" height="5.03" rx="1.34" fill="#934b2a"/><rect x="157.3" y="175.81" width="4.26" height="18.81" rx="0.84" fill="#934b2a"/><line x1="155.41" y1="176.94" x2="157.3" y2="176.94" fill="none" stroke="#222221" stroke-linecap="round" stroke-linejoin="round" stroke-width="0.48"/><line x1="155.41" y1="193.71" x2="157.3" y2="193.71" fill="none" stroke="#222221" stroke-linecap="round" stroke-linejoin="round" stroke-width="0.48"/><rect x="133.11" y="172.21" width="22.29" height="50.38" fill="#f1d154"/><rect x="136.85" y="176.03" width="4.32" height="3.82" fill="none" stroke="#a1a83c" stroke-miterlimit="10" stroke-width="1.03"/><rect x="147.35" y="176.03" width="4.32" height="3.82" fill="none" stroke="#02bbbe" stroke-miterlimit="10" stroke-width="1.03"/><rect x="136.85" y="185.22" width="4.32" height="3.82" fill="none" stroke="#02bbbe" stroke-miterlimit="10" stroke-width="1.03"/><rect x="147.35" y="185.22" width="4.32" height="3.82" fill="none" stroke="#e46341" stroke-miterlimit="10" stroke-width="1.03"/><rect x="136.85" y="194.41" width="4.32" height="3.82" fill="none" stroke="#e46341" stroke-miterlimit="10" stroke-width="1.03"/><rect x="147.35" y="194.41" width="4.32" height="3.82" fill="none" stroke="#02bbbe" stroke-miterlimit="10" stroke-width="1.03"/><rect x="136.85" y="203.59" width="4.32" height="3.82" fill="none" stroke="#02bbbe" stroke-miterlimit="10" stroke-width="1.03"/><rect x="147.35" y="203.59" width="4.32" height="3.82" fill="none" stroke="#a1a83c" stroke-miterlimit="10" stroke-width="1.03"/><path d="M140.51,213.3H148a1.5,1.5,0,0,1,1.5,1.5v7.78a0,0,0,0,1,0,0H139a0,0,0,0,1,0,0v-7.78A1.5,1.5,0,0,1,140.51,213.3Z" fill="#be7950"/><rect x="133.11" y="169.59" width="22.29" height="2.62" fill="#934b2a"/><rect x="224.68" y="192.45" width="5.69" height="11.44" rx="1.08" fill="#e46341"/><path d="M224.09,350.81c0,2.75,2.52,5,5.63,5s5.64-2.23,5.64-5-2.53-5-5.64-5S224.09,348.05,224.09,350.81Z" transform="translate(-21.85 -42.29)" fill="#a8b942"/><path d="M231.9,350.81c0,2.75,2.53,5,5.64,5s5.63-2.23,5.63-5-2.52-5-5.63-5S231.9,348.05,231.9,350.81Z" transform="translate(-21.85 -42.29)" fill="#a8b942"/><path d="M223.79,344c0,2.76,2.53,5,5.64,5s5.63-2.23,5.63-5-2.52-5-5.63-5S223.79,341.23,223.79,344Z" transform="translate(-21.85 -42.29)" fill="#a8b942"/><path d="M231.61,344c0,2.76,2.52,5,5.64,5s5.63-2.23,5.63-5-2.52-5-5.63-5S231.61,341.23,231.61,344Z" transform="translate(-21.85 -42.29)" fill="#a8b942"/><path d="M227.7,338.38c0,2.75,2.52,5,5.64,5s5.63-2.23,5.63-5-2.52-5-5.63-5S227.7,335.62,227.7,338.38Z" transform="translate(-21.85 -42.29)" fill="#a8b942"/><polyline points="208.66 312.51 211.63 315.14 214.6 312.51" fill="none" stroke="#222221" stroke-linecap="round" stroke-linejoin="round" stroke-width="0.52"/><line x1="211.63" y1="315.14" x2="211.63" y2="318.91" fill="none" stroke="#222221" stroke-linecap="round" stroke-linejoin="round" stroke-width="0.52"/><path d="M371.46,179.85c0,2.76,2.53,5,5.64,5s5.64-2.23,5.64-5-2.53-5-5.64-5S371.46,177.1,371.46,179.85Z" transform="translate(-21.85 -42.29)" fill="#a8b942"/><path d="M379.28,179.85c0,2.76,2.52,5,5.64,5s5.63-2.23,5.63-5-2.52-5-5.63-5S379.28,177.1,379.28,179.85Z" transform="translate(-21.85 -42.29)" fill="#a8b942"/><path d="M371.17,173c0,2.75,2.52,5,5.64,5s5.63-2.23,5.63-5-2.52-5-5.63-5S371.17,170.27,371.17,173Z" transform="translate(-21.85 -42.29)" fill="#a8b942"/><path d="M379,173c0,2.75,2.52,5,5.63,5s5.64-2.23,5.64-5-2.52-5-5.64-5S379,170.27,379,173Z" transform="translate(-21.85 -42.29)" fill="#a8b942"/><path d="M375.08,167.42c0,2.75,2.52,5,5.63,5s5.64-2.24,5.64-5-2.52-5-5.64-5S375.08,164.67,375.08,167.42Z" transform="translate(-21.85 -42.29)" fill="#a8b942"/><polyline points="356.04 141.55 359.01 144.18 361.98 141.55" fill="none" stroke="#222221" stroke-linecap="round" stroke-linejoin="round" stroke-width="0.52"/><line x1="359.01" y1="144.18" x2="359.01" y2="147.96" fill="none" stroke="#222221" stroke-linecap="round" stroke-linejoin="round" stroke-width="0.52"/><path d="M392.44,186a3.52,3.52,0,1,0,3.49-3.08A3.3,3.3,0,0,0,392.44,186Z" transform="translate(-21.85 -42.29)" fill="#a8b942"/><path d="M397.28,186a3.52,3.52,0,1,0,3.49-3.08A3.3,3.3,0,0,0,397.28,186Z" transform="translate(-21.85 -42.29)" fill="#a8b942"/><path d="M392.26,181.79a3.52,3.52,0,1,0,3.49-3.09A3.3,3.3,0,0,0,392.26,181.79Z" transform="translate(-21.85 -42.29)" fill="#a8b942"/><ellipse cx="378.74" cy="139.5" rx="3.49" ry="3.09" fill="#a8b942"/><path d="M394.68,178.32a3.52,3.52,0,1,0,3.49-3.09A3.31,3.31,0,0,0,394.68,178.32Z" transform="translate(-21.85 -42.29)" fill="#a8b942"/><polyline points="374.57 146.2 376.41 147.82 378.25 146.2" fill="none" stroke="#222221" stroke-linecap="round" stroke-linejoin="round" stroke-width="0.52"/><line x1="376.41" y1="147.82" x2="376.41" y2="150.16" fill="none" stroke="#222221" stroke-linecap="round" stroke-linejoin="round" stroke-width="0.52"/><path d="M219.67,142.23a3.52,3.52,0,1,0,3.49-3.09A3.31,3.31,0,0,0,219.67,142.23Z" transform="translate(-21.85 -42.29)" fill="#a8b942"/><ellipse cx="206.15" cy="99.94" rx="3.49" ry="3.09" fill="#a8b942"/><ellipse cx="201.13" cy="95.72" rx="3.49" ry="3.09" fill="#a8b942"/><ellipse cx="205.96" cy="95.72" rx="3.49" ry="3.09" fill="#a8b942"/><path d="M221.91,134.53a3.51,3.51,0,1,0,3.49-3.08A3.3,3.3,0,0,0,221.91,134.53Z" transform="translate(-21.85 -42.29)" fill="#a8b942"/><polyline points="201.8 102.41 203.63 104.04 205.47 102.41" fill="none" stroke="#222221" stroke-linecap="round" stroke-linejoin="round" stroke-width="0.52"/><line x1="203.64" y1="104.04" x2="203.64" y2="106.37" fill="none" stroke="#222221" stroke-linecap="round" stroke-linejoin="round" stroke-width="0.52"/><path d="M342.17,323.48a3.52,3.52,0,1,0,3.49-3.09A3.31,3.31,0,0,0,342.17,323.48Z" transform="translate(-21.85 -42.29)" fill="#a8b942"/><ellipse cx="328.65" cy="281.19" rx="3.49" ry="3.09" fill="#a8b942"/><path d="M342,319.25a3.52,3.52,0,1,0,3.49-3.08A3.31,3.31,0,0,0,342,319.25Z" transform="translate(-21.85 -42.29)" fill="#a8b942"/><ellipse cx="328.47" cy="276.97" rx="3.49" ry="3.09" fill="#a8b942"/><ellipse cx="326.05" cy="273.49" rx="3.49" ry="3.09" fill="#a8b942"/><polyline points="324.3 283.66 326.14 285.29 327.98 283.66" fill="none" stroke="#222221" stroke-linecap="round" stroke-linejoin="round" stroke-width="0.52"/><line x1="326.14" y1="285.29" x2="326.14" y2="287.62" fill="none" stroke="#222221" stroke-linecap="round" stroke-linejoin="round" stroke-width="0.52"/><path d="M134.2,337.74a3.51,3.51,0,1,0,3.49-3.08A3.3,3.3,0,0,0,134.2,337.74Z" transform="translate(-21.85 -42.29)" fill="#a8b942"/><path d="M139,337.74a3.51,3.51,0,1,0,3.48-3.08A3.3,3.3,0,0,0,139,337.74Z" transform="translate(-21.85 -42.29)" fill="#a8b942"/><ellipse cx="115.65" cy="291.23" rx="3.49" ry="3.09" fill="#a8b942"/><path d="M138.85,333.52a3.52,3.52,0,1,0,3.49-3.09A3.31,3.31,0,0,0,138.85,333.52Z" transform="translate(-21.85 -42.29)" fill="#a8b942"/><ellipse cx="118.07" cy="287.76" rx="3.49" ry="3.09" fill="#a8b942"/><polyline points="116.32 297.93 118.16 299.56 120 297.93" fill="none" stroke="#222221" stroke-linecap="round" stroke-linejoin="round" stroke-width="0.52"/><line x1="118.16" y1="299.55" x2="118.16" y2="301.89" fill="none" stroke="#222221" stroke-linecap="round" stroke-linejoin="round" stroke-width="0.52"/><polygon points="306.07 109.17 359.01 109.17 332.54 76.87 306.07 109.17" fill="#a1a83c"/><polygon points="324.78 86.34 328.48 90.94 333.12 86.56 336.5 90.17 340.01 85.99 332.54 76.87 324.78 86.34" fill="#fbe8c8"/><polygon points="257.85 111.24 310.79 111.24 284.32 78.95 257.85 111.24" fill="#a1a83c"/><polygon points="276.56 88.42 280.26 93.02 284.9 88.64 288.27 92.25 291.79 88.07 284.32 78.95 276.56 88.42" fill="#fbe8c8"/><polygon points="277.51 122.1 330.45 122.1 303.98 89.81 277.51 122.1" fill="#a8b942"/><polygon points="296.22 99.28 299.93 103.88 304.57 99.5 307.94 103.11 311.46 98.93 303.98 89.81 296.22 99.28" fill="#fbe8c8"/><polygon points="212.84 114.37 250.76 114.37 231.8 91.24 212.84 114.37" fill="#a1a83c"/><polygon points="226.24 98.02 228.9 101.32 232.22 98.18 234.63 100.77 237.15 97.77 231.8 91.24 226.24 98.02" fill="#fbe8c8"/><polygon points="233.29 120.89 271.21 120.89 252.25 97.77 233.29 120.89" fill="#a8b942"/><polygon points="246.69 104.55 249.35 107.84 252.67 104.7 255.09 107.29 257.61 104.3 252.25 97.77 246.69 104.55" fill="#fbe8c8"/><path d="M152,399.46s32.3-36.8,92.65-31.94c26.45,2.12,50.49-8.92,75.65-15,34.3-8.33,86,20,110.41-12.58,0,0,35.37,65.1-90.38,74.3S150.2,438.41,152,399.46Z" transform="translate(-21.85 -42.29)" fill="#f1d154"/><path d="M165.16,412.89s16.12-38.38,76.47-33.52,66.5-18.27,124.21-10.09c71.59,10.15,66.31-13.58,66.31-13.58s35.37,65.11-90.39,74.31S163.41,451.85,165.16,412.89Z" transform="translate(-21.85 -42.29)" fill="#02bbbe"/><path d="M368.42,225A210.57,210.57,0,0,1,318.15,219c-30.61-7.45-57.28-20.79-85.51-34.91-6.87-3.44-14-7-21.19-10.49-31.28-15.14-65.74-16.89-89.13-15.69a227.74,227.74,0,0,0-44.55,6.48l-6.4-17.81c.84-.24,20.77-5.78,49.09-7.3,37.75-2,72.72,4.18,101.13,17.93,7.34,3.55,14.51,7.14,21.45,10.61,56,28,100.27,50.16,178.45,32l5.37,18.08C406.26,222.63,387,225,368.42,225Z" transform="translate(-21.85 -42.29)" fill="#a8b942"/><path d="M368.42,229.06A210.57,210.57,0,0,1,318.15,223c-30.61-7.45-57.28-20.79-85.51-34.92-6.87-3.44-14-7-21.19-10.48-31.28-15.14-65.74-16.89-89.13-15.7a227.74,227.74,0,0,0-44.55,6.48l-6.4-17.81c.84-.23,20.77-5.78,49.09-7.29,37.75-2,72.72,4.18,101.13,17.92,7.34,3.55,14.51,7.14,21.45,10.61,56,28,100.27,50.17,178.45,32l5.37,18.07C406.26,226.67,387,229.06,368.42,229.06Z" transform="translate(-21.85 -42.29)" fill="#02bbbe"/><path d="M212.9,188.77c0,2.75,2.53,5,5.64,5s5.64-2.24,5.64-5-2.53-5-5.64-5S212.9,186,212.9,188.77Z" transform="translate(-21.85 -42.29)" fill="#a8b942"/><path d="M220.72,188.77c0,2.75,2.53,5,5.64,5s5.63-2.24,5.63-5-2.52-5-5.63-5S220.72,186,220.72,188.77Z" transform="translate(-21.85 -42.29)" fill="#a8b942"/><path d="M212.61,182c0,2.75,2.53,5,5.64,5s5.63-2.23,5.63-5-2.52-5-5.63-5S212.61,179.19,212.61,182Z" transform="translate(-21.85 -42.29)" fill="#a8b942"/><path d="M220.43,182c0,2.75,2.52,5,5.63,5s5.64-2.23,5.64-5-2.52-5-5.64-5S220.43,179.19,220.43,182Z" transform="translate(-21.85 -42.29)" fill="#a8b942"/><path d="M216.52,176.34c0,2.75,2.52,5,5.64,5s5.63-2.24,5.63-5-2.52-5-5.63-5S216.52,173.59,216.52,176.34Z" transform="translate(-21.85 -42.29)" fill="#a8b942"/><polyline points="197.48 150.47 200.45 153.1 203.42 150.47" fill="none" stroke="#222221" stroke-linecap="round" stroke-linejoin="round" stroke-width="0.52"/><line x1="200.45" y1="153.1" x2="200.45" y2="156.88" fill="none" stroke="#222221" stroke-linecap="round" stroke-linejoin="round" stroke-width="0.52"/><line x1="336.1" y1="192.76" x2="336.1" y2="196.54" fill="none" stroke="#222221" stroke-linecap="round" stroke-linejoin="round" stroke-width="0.52"/><polygon points="339.79 186.1 344.38 186.1 338.39 179.74 342.17 179.74 337.76 175.06 340.1 175.06 336.1 170.82 332.11 175.06 334.44 175.06 330.03 179.74 333.81 179.74 327.82 186.1 332.42 186.1 325.16 193.81 336.1 193.81 347.04 193.81 339.79 186.1" fill="#a8b942"/><line x1="317.87" y1="197.27" x2="317.87" y2="200.39" fill="none" stroke="#222221" stroke-linecap="round" stroke-linejoin="round" stroke-width="0.52"/><polygon points="320.91 191.77 324.71 191.77 319.76 186.52 322.88 186.52 319.24 182.66 321.17 182.66 317.87 179.15 314.57 182.66 316.5 182.66 312.86 186.52 315.98 186.52 311.03 191.77 314.83 191.77 308.83 198.14 317.87 198.14 326.9 198.14 320.91 191.77" fill="#a1a83c"/><line x1="98.83" y1="176.45" x2="98.83" y2="179.57" fill="none" stroke="#222221" stroke-linecap="round" stroke-linejoin="round" stroke-width="0.52"/><polygon points="101.87 170.95 105.67 170.95 100.72 165.7 103.84 165.7 100.2 161.84 102.13 161.84 98.83 158.33 95.53 161.84 97.45 161.84 93.82 165.7 96.93 165.7 91.99 170.95 95.78 170.95 89.79 177.32 98.83 177.32 107.86 177.32 101.87 170.95" fill="#a8b942"/><line x1="176.23" y1="144.81" x2="176.23" y2="148.59" fill="none" stroke="#222221" stroke-linecap="round" stroke-linejoin="round" stroke-width="0.52"/><polygon points="179.92 138.15 184.51 138.15 178.53 131.79 182.3 131.79 177.9 127.11 180.23 127.11 176.23 122.87 172.24 127.11 174.57 127.11 170.16 131.79 173.94 131.79 167.95 138.15 172.55 138.15 165.29 145.86 176.23 145.86 187.18 145.86 179.92 138.15" fill="#a1a83c"/><path d="M362.65,260.71c-19.14.2-27.65,7.16-39.93,18.59-8.55,7.95-25,11.62-30.29,21.92s15.83,20.32,51.69,4.87c13.37-5.77,41.44-11.41,47.65-24.72C399.51,264.77,375.64,260.58,362.65,260.71Z" transform="translate(-21.85 -42.29)" fill="#02bbbe"/><path d="M287.93,184.09C267.44,186.47,259.79,206,259.79,206l16.79,7.67c2.44-14.13,25.35-23.2,25.35-23.2Z" transform="translate(-21.85 -42.29)" fill="#934b2a"/><polygon points="333.6 124.3 343.47 124.3 338.54 121.53 333.6 124.3" fill="#934b2a"/><rect x="333.6" y="124.3" width="9.87" height="6.76" fill="#f1d154"/><rect x="337.01" y="126.96" width="3.06" height="4.1" fill="#934b2a"/><polygon points="226.96 284.09 236.83 284.09 231.9 281.32 226.96 284.09" fill="#934b2a"/><rect x="226.96" y="284.09" width="9.87" height="6.76" fill="#be7950"/><rect x="230.36" y="286.75" width="3.06" height="4.1" fill="#934b2a"/><polygon points="253.5 128.12 263.37 128.12 258.44 125.36 253.5 128.12" fill="#934b2a"/><rect x="253.51" y="128.12" width="9.87" height="6.76" fill="#be7950"/><rect x="257.33" y="130.52" width="2.23" height="1.97" fill="#934b2a"/><polygon points="131.61 143.77 141.48 143.77 136.55 141 131.61 143.77" fill="#934b2a"/><rect x="131.61" y="143.77" width="9.87" height="6.76" fill="#be7950"/><rect x="135.43" y="146.16" width="2.23" height="1.97" fill="#934b2a"/><polygon points="282.48 299.89 292.35 299.89 287.42 297.13 282.48 299.89" fill="#934b2a"/><rect x="282.48" y="299.9" width="9.87" height="6.76" fill="#02bbbe"/><rect x="286.3" y="302.29" width="2.23" height="1.97" fill="#934b2a"/><polygon points="322.1 141.8 339.3 141.8 330.7 136.86 322.1 141.8" fill="#934b2a"/><rect x="322.1" y="141.8" width="17.2" height="8.73" fill="#e46341"/><rect x="323.92" y="146.17" width="3.06" height="4.37" fill="#934b2a"/><rect x="329.21" y="144.85" width="2.97" height="2.63" fill="#934b2a"/><rect x="333.98" y="144.85" width="2.97" height="2.63" fill="#934b2a"/><polygon points="109.56 137.41 126.76 137.41 118.16 132.46 109.56 137.41" fill="#934b2a"/><rect x="109.57" y="137.4" width="17.2" height="8.73" fill="#02bbbe"/><rect x="111.38" y="141.77" width="3.06" height="4.37" fill="#934b2a"/><rect x="116.67" y="140.45" width="2.97" height="2.63" fill="#934b2a"/><rect x="121.44" y="140.45" width="2.97" height="2.63" fill="#934b2a"/><polygon points="210.87 269.9 228.06 269.9 219.47 264.96 210.87 269.9" fill="#934b2a"/><rect x="210.87" y="269.9" width="17.2" height="8.73" fill="#f1d154"/><rect x="212.68" y="274.27" width="3.06" height="4.37" fill="#934b2a"/><rect x="217.98" y="272.95" width="2.97" height="2.63" fill="#934b2a"/><rect x="222.74" y="272.95" width="2.97" height="2.63" fill="#934b2a"/><polygon points="136.61 287.94 154.61 287.94 149.67 285.17 141.54 285.17 136.61 287.94" fill="#934b2a"/><rect x="136.61" y="287.94" width="18" height="6.76" fill="#be7950"/><rect x="139.21" y="290.6" width="3.06" height="4.1" fill="#934b2a"/><rect x="144.76" y="290.01" width="2.97" height="2.63" fill="#934b2a"/><rect x="149.52" y="290.01" width="2.97" height="2.63" fill="#934b2a"/><polygon points="278.42 189.58 296.42 189.58 291.48 186.81 283.35 186.81 278.42 189.58" fill="#934b2a"/><rect x="278.42" y="189.58" width="18" height="6.76" fill="#02bbbe"/><rect x="281.02" y="192.24" width="3.06" height="4.1" fill="#934b2a"/><rect x="286.57" y="191.65" width="2.97" height="2.63" fill="#934b2a"/><rect x="291.33" y="191.65" width="2.97" height="2.63" fill="#934b2a"/><line x1="127.79" y1="278.99" x2="127.79" y2="282.76" fill="none" stroke="#222221" stroke-linecap="round" stroke-linejoin="round" stroke-width="0.52"/><polygon points="131.48 272.33 136.07 272.33 130.09 265.97 133.86 265.97 129.46 261.29 131.79 261.29 127.79 257.04 123.8 261.29 126.13 261.29 121.72 265.97 125.5 265.97 119.51 272.33 124.11 272.33 116.85 280.04 127.79 280.04 138.74 280.04 131.48 272.33" fill="#a1a83c"/><path d="M355.37,314.69c0,2.75,2.53,5,5.64,5s5.64-2.23,5.64-5-2.53-5-5.64-5S355.37,311.93,355.37,314.69Z" transform="translate(-21.85 -42.29)" fill="#a8b942"/><path d="M363.19,314.69c0,2.75,2.52,5,5.64,5s5.63-2.23,5.63-5-2.52-5-5.63-5S363.19,311.93,363.19,314.69Z" transform="translate(-21.85 -42.29)" fill="#a8b942"/><path d="M355.08,307.86c0,2.76,2.52,5,5.64,5s5.63-2.23,5.63-5-2.52-5-5.63-5S355.08,305.11,355.08,307.86Z" transform="translate(-21.85 -42.29)" fill="#a8b942"/><path d="M362.9,307.86c0,2.76,2.52,5,5.63,5s5.64-2.23,5.64-5-2.52-5-5.64-5S362.9,305.11,362.9,307.86Z" transform="translate(-21.85 -42.29)" fill="#a8b942"/><path d="M359,302.25c0,2.76,2.52,5,5.64,5s5.63-2.23,5.63-5-2.52-5-5.63-5S359,299.5,359,302.25Z" transform="translate(-21.85 -42.29)" fill="#a8b942"/><polyline points="339.95 276.39 342.92 279.02 345.89 276.39" fill="none" stroke="#222221" stroke-linecap="round" stroke-linejoin="round" stroke-width="0.52"/><line x1="342.92" y1="279.02" x2="342.92" y2="282.79" fill="none" stroke="#222221" stroke-linecap="round" stroke-linejoin="round" stroke-width="0.52"/><path d="M333.31,373.87s-10.47-61.15-108.8-92.62c0,0-31.29,29.94-31.29,86.77" transform="translate(-21.85 -42.29)" fill="none" stroke="#e46341" stroke-miterlimit="10" stroke-width="1.12" stroke-dasharray="2.23"/><path d="M310.38,290.68s-35-18.86-85.87-9.43c28.05-87.34,83.82-104.58,83.82-104.58" transform="translate(-21.85 -42.29)" fill="none" stroke="#e46341" stroke-miterlimit="10" stroke-width="1.12" stroke-dasharray="2.23"/><path d="M156.05,163.93s38.15,32.48,68.46,117.32c-101.4-25.89-169.86,10-169.86,10" transform="translate(-21.85 -42.29)" fill="none" stroke="#e46341" stroke-miterlimit="10" stroke-width="1.12" stroke-dasharray="2.23"/><ellipse cx="311.46" cy="331.02" rx="10.66" ry="9.43" fill="#e46341"/><path d="M333.31,332.12c-29.65,2.66,0,41.75,0,41.75S363,335.11,333.31,332.12Zm0,19.47c-4.67,0-8.46-3.35-8.46-7.49s3.79-7.48,8.46-7.48,8.45,3.35,8.45,7.48S338,351.59,333.31,351.59Z" transform="translate(-21.85 -42.29)" fill="#fff"/><ellipse cx="286.48" cy="133.82" rx="10.66" ry="9.43" fill="#e46341"/><path d="M308.33,134.92c-29.65,2.66,0,41.75,0,41.75S338,137.91,308.33,134.92Zm0,19.47c-4.67,0-8.45-3.35-8.45-7.49s3.78-7.48,8.45-7.48,8.46,3.35,8.46,7.48S313,154.39,308.33,154.39Z" transform="translate(-21.85 -42.29)" fill="#fff"/><ellipse cx="288.53" cy="247.84" rx="10.66" ry="9.43" fill="#e46341"/><path d="M310.38,248.94c-29.65,2.66,0,41.74,0,41.74S340,251.93,310.38,248.94Zm0,19.46c-4.67,0-8.45-3.34-8.45-7.48s3.78-7.48,8.45-7.48,8.46,3.35,8.46,7.48S315.05,268.4,310.38,268.4Z" transform="translate(-21.85 -42.29)" fill="#fff"/><ellipse cx="171.37" cy="325.17" rx="10.66" ry="9.43" fill="#e46341"/><path d="M193.22,326.27c-29.65,2.66,0,41.75,0,41.75S222.87,329.26,193.22,326.27Zm0,19.47c-4.67,0-8.46-3.35-8.46-7.48s3.79-7.48,8.46-7.48,8.46,3.34,8.46,7.48S197.89,345.74,193.22,345.74Z" transform="translate(-21.85 -42.29)" fill="#fff"/><ellipse cx="202.66" cy="238.41" rx="10.66" ry="9.43" fill="#e46341"/><path d="M224.51,239.5c-29.66,2.67,0,41.75,0,41.75S254.16,242.5,224.51,239.5Zm0,19.47c-4.67,0-8.46-3.35-8.46-7.48s3.79-7.48,8.46-7.48,8.45,3.35,8.45,7.48S229.18,259,224.51,259Z" transform="translate(-21.85 -42.29)" fill="#fff" stroke="#fff" stroke-linecap="round" stroke-linejoin="round" stroke-width="1.12"/><ellipse cx="134.2" cy="121.08" rx="10.66" ry="9.43" fill="#e46341"/><path d="M156.05,122.18c-29.65,2.67,0,41.75,0,41.75S185.7,125.17,156.05,122.18Zm0,19.47c-4.67,0-8.45-3.35-8.45-7.48s3.78-7.48,8.45-7.48,8.46,3.35,8.46,7.48S160.72,141.65,156.05,141.65Z" transform="translate(-21.85 -42.29)" fill="#fff"/></g><path d="M228.9,389.72a180.56,180.56,0,0,1,44.38.37c16.75,2.21,32.29,9.49,49.13,9.88,28.71.67,60.3-9,76.67-31.07,10.05-13.53,12.64-30.41,12.14-46.6s-3.82-32.22-4.44-48.4c-1-26.54,5.22-52.89,5.88-79.43.37-14.84-1.13-30.11-8.39-43.49-8.49-15.64-24.53-27.59-42.75-34s-38.48-7.57-57.89-5.09c-22.09,2.82-43.4,10.21-65.7,11-20,.69-39.64-4-59.43-6.45s-41.15-2.55-58.39,6.41C96.73,135,86.84,160.62,84.92,184.55c-3.13,39,9.91,78,7.39,117.05-1.07,16.73-5,33.71-.77,50,7.13,27.74,38.66,48,70.81,48.4,20.33.24,39.88-6.3,59.9-9.42C224.46,390.29,226.68,390,228.9,389.72Z" transform="translate(-21.85 -42.29)" fill="none" stroke="#222221" stroke-linecap="round" stroke-linejoin="round" stroke-width="0.56"/><path d="M394.89,321s-7.33,45.29-7.33,74.45c0,25,2.58,58.17,3.32,67.24a92.26,92.26,0,0,1-8.93,5.9c-2.35,1.08-7.15,1.17-7.15,4.33h14.95l10.07-3.41a17.7,17.7,0,0,0,.42-3.16A116.75,116.75,0,0,1,401.82,450c6.06-33.95,6.4-48.69,6.4-48.69l17.59-52.12V320Z" transform="translate(-21.85 -42.29)" fill="#cc9561"/><path d="M413.78,320,448.17,318a177.14,177.14,0,0,1,4.33,57.6l-2.23,25.14s4,14.93,6,60.3a47.56,47.56,0,0,1,0,11.81H442.32a3,3,0,0,1,2.25-3l2.62-8c-3.59-11-13-40.28-18.51-63C421.76,370.39,413.78,320,413.78,320Z" transform="translate(-21.85 -42.29)" fill="#cc9561"/><path d="M420.27,245.44c-15,18.93-28.73,58.31-28.73,58.31H396c12.26-35.4,32.69-58.31,32.69-58.31Z" transform="translate(-21.85 -42.29)" fill="#fff" stroke="#222221" stroke-linecap="round" stroke-linejoin="round" stroke-width="0.53"/><path d="M441.85,245.49s3.45-2.14,11.12,23.14-1.44,33.8-12.14,17.68C431.84,272.77,441.85,245.49,441.85,245.49Z" transform="translate(-21.85 -42.29)" fill="#cc9561"/><path d="M444.43,261.51c2.84,23.18,4.19,58.47,4.19,58.47s-33.07,6.83-53.73,1c12.69-24.9,5.15-51.08,1.26-54.27l6.13-22.7a60.73,60.73,0,0,1,42,2.47" transform="translate(-21.85 -42.29)" fill="#cc9561"/><path d="M475.3,441c-5.24-10.54-9.53-38.51-9.53-73.24,0-29.12-7-48.65-11.75-58.44A69.84,69.84,0,0,1,447.59,288c-.74-5.72-1.63-13.63-2.61-24.45a415.53,415.53,0,0,0-48.83,3.16,28.31,28.31,0,0,0,3.9,23.34s-12.79,90.7-25.69,156.39c0,0,10.35,7.6,38.48,7.6s28.16-7.21,43.82-5.77S475.3,441,475.3,441Z" transform="translate(-21.85 -42.29)" stroke-linecap="round" stroke-linejoin="round" stroke-width="0.53" fill="url(#b)" stroke="url(#c)"/><path d="M475.15,437.72" transform="translate(-21.85 -42.29)" fill="#f1d154" stroke="#222221" stroke-linecap="round" stroke-linejoin="round" stroke-width="0.53"/><path d="M413.78,242.19s-16.11-.39-21.82,9.34-10.5,27.89-10.5,27.89L373,261a7.83,7.83,0,0,0-1-5.87c-2.51-3.58-4.75-5.72-5.28-5.39s.76,2.28,2.08,4.45-.64.92-1.49-.17c-.7-.88-5.71-8.14-6.61-7.87s1.63,3.63,3,5.93c1,1.72.21,1.27-.57.27s-4.18-6.27-5-5.77,3,6.34,3.56,7,.24,1.19-.43.48-4.05-6-4.79-5.54,2.82,5.53,3.72,6.66c.45.58.45,1.51-.93-.24s-2.45-3.26-2.82-3,0,2.19,3.66,6.27a49.17,49.17,0,0,0,6.43,5.43,120.32,120.32,0,0,0,6.91,25.87c3.48,8.58,12,11.84,19-.16,3.92-6.69,9.9-19.39,13.47-27.51" transform="translate(-21.85 -42.29)" fill="#cc9561"/><path d="M400.05,290a180.16,180.16,0,0,0,47.4-3.16" transform="translate(-21.85 -42.29)" fill="none" stroke="#222221" stroke-linecap="round" stroke-linejoin="round" stroke-width="0.53"/><polygon points="407.77 205.65 390.75 206.78 389.08 187.16 406.1 186.03 407.77 205.65" fill="#e46341" stroke="#222221" stroke-linecap="round" stroke-linejoin="round" stroke-width="0.53"/><path d="M418.7,203.3h0c-7.31,0-12.33,3.76-13.86,9.57-.53,2-.14,4-1.06,5.94h0a20.79,20.79,0,0,1-4.33,4.25c-.67.48-1.09,1.15-.19,1.95a5.67,5.67,0,0,0,2.13,1.05c-.07,2.25.1,8,3.45,9.78,1.58.83,5,.81,8.58.48a17.62,17.62,0,0,0,5.28.82h0c8.74,0,15.88-6.32,15.88-14v-5.74C434.58,209.62,427.44,203.3,418.7,203.3Z" transform="translate(-21.85 -42.29)" fill="#cc9561"/><path d="M392.15,302S371,326.66,378.84,331.63s19.5,8.79,21.93,2.16,4.34-25.8,4.34-25.8l-9.1-4.24Z" transform="translate(-21.85 -42.29)" fill="#fff" stroke="#222221" stroke-linecap="round" stroke-linejoin="round" stroke-width="0.53"/><path d="M403.77,313s33.25-34,38.08-67.54l-4.06-.05s-.65,24.69-35.63,61.17a174,174,0,0,0-7.84,21.51,4.35,4.35,0,0,1-5.39,2.59c-8.65-2.47-11.34-5.75-11.34-5.75" transform="translate(-21.85 -42.29)" fill="#fff" stroke="#222221" stroke-linecap="round" stroke-linejoin="round" stroke-width="0.53"/><path d="M429.1,202.61a23.74,23.74,0,0,0-20.34,1.12,25.76,25.76,0,0,0-7.78,6.56c-4,5.12-1.8,7.32,1.87,8,2.93.54,2.54,2.65,2.06,5.46-1.88,11-6.65,9.54-5.06,21.19,7.48-1.13,8.28,8.15,8.28,13.74s2.19,13.21,12.14,13.21,14-5.41,15-11,10.4-7.69,11.39-18.09-8-15.91-8-26.15C438.73,209.92,435.07,205.12,429.1,202.61Z" transform="translate(-21.85 -42.29)" fill="#222221" stroke="#222221" stroke-linecap="round" stroke-linejoin="round" stroke-width="0.53"/><polygon points="361.04 425.77 364.14 430.6 371.54 428 366.83 421.93 361.04 425.77" fill="#222221" stroke="#222221" stroke-linecap="round" stroke-linejoin="round" stroke-width="0.53"/><polygon points="422.72 427.61 425.07 430.6 427.64 426.03 424.35 421.93 422.72 427.61" fill="#222221" stroke="#222221" stroke-linecap="round" stroke-linejoin="round" stroke-width="0.53"/><path d="M374.8,472.89v2h24.92l.21-5.92s-7.54-.48-13.18,3.18Z" transform="translate(-21.85 -42.29)" fill="#222221" stroke="#222221" stroke-linecap="round" stroke-linejoin="round" stroke-width="0.53"/><polygon points="420.47 430.6 420.47 432.6 434.81 432.6 434.79 425.49 426.65 426.11 425.26 430.1 420.47 430.6" fill="#222221" stroke="#222221" stroke-linecap="round" stroke-linejoin="round" stroke-width="0.53"/><path d="M407.06,347.5" transform="translate(-21.85 -42.29)" fill="#f1d154" stroke="#222221" stroke-linecap="round" stroke-linejoin="round" stroke-width="0.53"/><path d="M403.56,219.09a18.86,18.86,0,0,0-2.17,7" transform="translate(-21.85 -42.29)" fill="#cc9561"/><path d="M146.76,341.46c-1.07-1.06-2.06-3.18.17-1.42s4.2,3.46,4.72,3-1.42-3-5-6.24a10.11,10.11,0,0,0-4.89-2.22l-18.53-33.58s-5.12-37.88-11.78-54.78-17.24-15.4-17.24-15.4c-10.38,13,1.54,57,11.79,73.92,8,13.17,22.63,28,28.7,33.85A54.07,54.07,0,0,0,140,347c3.91,4.37,6.12,5.26,6.48,5s-1.15-1.66-2.87-3.37-.62-1.49,0-.92c1.12,1.11,6.2,5.7,6.93,5.12s-4.63-5-5.33-5.83,0-.93.68-.28,6.57,5.68,7.36,5.07-4.58-5.09-5.56-6.07-1.32-1.77.47-.45c2.35,1.89,5.68,5.06,6.23,4.31S147.62,342.33,146.76,341.46Z" transform="translate(-21.85 -42.29)" fill="#cc9561"/><path d="M53.81,234.83s9.9,1.45,8,19.27-15,54.16-15,54.16l8,33-7.1,2.34s-17-19.14-18.35-38.27S38.24,242.87,53.81,234.83Z" transform="translate(-21.85 -42.29)" fill="#cc9561"/><path d="M111.43,313.8H86.57l-36.94-2.08h0A190.36,190.36,0,0,0,45,373.61l2.4,27S43,412.11,40.79,460.85l11.47.28s10.86-31.88,18.3-62.52c2.69-11.07,5.52-25.22,8-38.77l13.93,41.29s-1.23,11.94,8.22,60H111.5s3.24-34.93,3.24-66.26S111.43,313.8,111.43,313.8Z" transform="translate(-21.85 -42.29)" fill="url(#d)"/><path d="M71.5,332.17l-23-4.84s-4.34,19.46,7.36,21.92S71.5,332.17,71.5,332.17Z" transform="translate(-21.85 -42.29)" fill="none" stroke="#10007f" stroke-linecap="round" stroke-linejoin="round" stroke-width="0.56"/><path d="M97.14,332.47l-23.56-1.38S73,350.91,85,351.62,97.14,332.47,97.14,332.47Z" transform="translate(-21.85 -42.29)" fill="none" stroke="#10007f" stroke-linecap="round" stroke-linejoin="round" stroke-width="0.56"/><path d="M98.92,232.17s-21-7.79-45.11,2.66c-9.92,18.38-4.67,79-4.67,79s40.09,6.27,62.29,0c-5.92-33.09-5.92-57.24-5.92-57.24Z" transform="translate(-21.85 -42.29)" fill="#e46341" stroke="#222221" stroke-linecap="round" stroke-linejoin="round" stroke-width="0.56"/><path d="M70.15,229.38s5.18,3.72,20,0c22.78,0,25.11,19.22,30.23,43.6s7.69,27.94,7.69,27.94l-16.68,9.88s5,35.64-37.78,34.34c-40.28-1.22-24-33.42-24-33.42L26.54,300.41S30.05,271.82,38,250.8,70.15,229.38,70.15,229.38Z" transform="translate(-21.85 -42.29)" fill="url(#e)"/><path d="M100,209.84a14.19,14.19,0,0,1-3.67-4.43l-.14-.31a34.53,34.53,0,0,1-2.2-6.37c-1.64-6.24-7-10.28-14.89-10.28h0c-9.38,0-17.06,6.79-17.06,15.09v6.16c0,5.61,3.51,10.52,8.68,13.13L69.55,236.4l18.29,1.22,1-12a28.43,28.43,0,0,0,6.7-.82c4.83-1.2,2.21-9.49,2.14-11.9a6,6,0,0,0,2.28-1.13A1.12,1.12,0,0,0,100,209.84Z" transform="translate(-21.85 -42.29)" fill="#cc9561"/><path d="M79.59,185.8a20.71,20.71,0,0,0-20.44,11.45c-7.07,13.37,3.17,14.66,3.17,23.66s12.92,8.37,21.43,5.56C91.34,224,94.19,219,94.19,212.12s-3.73-10.28-.21-13.39S89.26,184.36,79.59,185.8Z" transform="translate(-21.85 -42.29)" fill="url(#f)"/><path d="M88.63,228.32c-10.9,3.43-12.89,8.49-12.89,8.49l8.61,2.74C86.91,232.22,96.8,230,96.8,230Z" transform="translate(-21.85 -42.29)" fill="#222221" stroke="#222221" stroke-linecap="round" stroke-linejoin="round" stroke-width="0.56"/><path d="M59,232.55c-5.77,4.94-5.92,8.83-5.92,8.83l9.14.36c0-7.67,7.9-12.36,7.9-12.36l-3.53.26A12.92,12.92,0,0,0,59,232.55Z" transform="translate(-21.85 -42.29)" fill="#222221" stroke="#222221" stroke-linecap="round" stroke-linejoin="round" stroke-width="0.56"/><path d="M58,466.74l-4.58-5.67L55,454.44H40.79V459L38.2,474.88H69.13C69.13,469.28,63.24,467.35,58,466.74Z" transform="translate(-21.85 -42.29)" fill="#222221" stroke="#222221" stroke-linecap="round" stroke-linejoin="round" stroke-width="0.56"/><path d="M37.06,297.31s-9-5.31-10.44-4.63-5.76,9.24-4.13,10.76,14.65,3.81,14.65,3.81,8.09,3.35,8.9,2,4.05-7.4,3.42-8S37.06,297.31,37.06,297.31Z" transform="translate(-21.85 -42.29)" fill="#934b2a" stroke="#222221" stroke-linecap="round" stroke-linejoin="round" stroke-width="0.56"/><path d="M116.24,466.54l-4.42-5.47,1.6-6.63H99.25V459l-2.6,15.86h33.2C129.85,468.39,122,466.83,116.24,466.54Z" transform="translate(-21.85 -42.29)" fill="#222221" stroke="#222221" stroke-linecap="round" stroke-linejoin="round" stroke-width="0.56"/><path d="M108.37,305.67a5.78,5.78,0,0,1-4.65-1.64l-6.58,9.77a20.16,20.16,0,0,0,14.29,0A77.25,77.25,0,0,1,108.37,305.67Z" transform="translate(-21.85 -42.29)" fill="#222221" stroke="#222221" stroke-linecap="round" stroke-linejoin="round" stroke-width="0.56"/><path d="M115.29,299.11s-10.58,2.16-11,3.52,3.61,10.06,6,10.06,13.21-6.79,13.21-6.79,8.31-2.89,7.75-4.35-3.29-7.69-4.21-7.69S115.29,299.11,115.29,299.11Z" transform="translate(-21.85 -42.29)" fill="#934b2a" stroke="#222221" stroke-linecap="round" stroke-linejoin="round" stroke-width="0.56"/><path d="M69.24,231S52.51,232.77,45.82,243s-3.65,24.49-6.7,45.37S37.29,321,71.68,323s37.85-20.89,34.39-43.75S97.73,228.79,69.24,231Z" transform="translate(-21.85 -42.29)" fill="#222221" stroke="#222221" stroke-linecap="round" stroke-linejoin="round" stroke-width="0.56"/><line x1="56.76" y1="317.55" x2="45.81" y2="313.28" fill="none" stroke="#10007f" stroke-linecap="round" stroke-linejoin="round" stroke-width="0.56"/><polyline points="80.92 294.26 87.99 360 86.42 414.51" fill="none" stroke="#10007f" stroke-linecap="round" stroke-linejoin="round" stroke-width="0.56"/><polyline points="50.73 315.42 41.62 363.55 28.02 414.51" fill="none" stroke="#10007f" stroke-linecap="round" stroke-linejoin="round" stroke-width="0.56"/><path d="M112.52,332s.5,11.08-8.24,15.71" transform="translate(-21.85 -42.29)" fill="none" stroke="#222221" stroke-linecap="round" stroke-linejoin="round" stroke-width="0.56"/><line x1="93.43" y1="256.82" x2="86.13" y2="260.58" fill="none" stroke="#222221" stroke-linecap="round" stroke-linejoin="round" stroke-width="0.56"/><line x1="101.64" y1="263.61" x2="107.94" y2="259.28" fill="none" stroke="#222221" stroke-linecap="round" stroke-linejoin="round" stroke-width="0.56"/><line x1="15.21" y1="255.02" x2="6.18" y2="253.34" fill="none" stroke="#222221" stroke-linecap="round" stroke-linejoin="round" stroke-width="0.56"/><path d="M101.31,231.45a13.73,13.73,0,0,0-9.56,7" transform="translate(-21.85 -42.29)" fill="none" stroke="#222221" stroke-linecap="round" stroke-linejoin="round" stroke-width="0.56"/><path d="M48.42,241.16s5.95-9.1,23.16-6.33,24.77,23.67,26.93,40.32.82,26.42.82,26.42" transform="translate(-21.85 -42.29)" fill="none" stroke="#934b2a" stroke-linecap="round" stroke-linejoin="round" stroke-width="0.56"/><path d="M45,290.93c6.18,1.47,21.6,4.29,44.63,2.85a2.47,2.47,0,0,1,2.76,2.38c-.76,18.31-9.92,25.44-29.72,22.69-19-2.63-21.84-10.51-20.92-25.83A2.56,2.56,0,0,1,45,290.93Z" transform="translate(-21.85 -42.29)" fill="none" stroke="#934b2a" stroke-linecap="round" stroke-linejoin="round" stroke-width="0.56"/><path d="M48.4,286.33a4.68,4.68,0,0,1-4.16-4.42V261.14c0-8.74,1.76-13.29,14.35-13.29s24.5-.24,27.68,5.74c2.71,5.12,4.19,21.08,4.1,30.84a4.8,4.8,0,0,1-5,4.45A224.18,224.18,0,0,1,48.4,286.33Z" transform="translate(-21.85 -42.29)" fill="none" stroke="#934b2a" stroke-linecap="round" stroke-linejoin="round" stroke-width="0.56"/><path d="M76.41,248.54s5.57.71,8,11,2.52,23.42,1.84,26-2.84,3.32-6,3.32" transform="translate(-21.85 -42.29)" fill="none" stroke="#934b2a" stroke-linecap="round" stroke-linejoin="round" stroke-width="0.56"/><path d="M86.27,294s3.1.76,2.34,7.13-1.55,17.27-17.93,18.33" transform="translate(-21.85 -42.29)" fill="none" stroke="#934b2a" stroke-linecap="round" stroke-linejoin="round" stroke-width="0.56"/><path d="M41.61,295.63s15.29,6,47.12,3.48" transform="translate(-21.85 -42.29)" fill="none" stroke="#934b2a" stroke-linecap="round" stroke-linejoin="round" stroke-width="0.56"/><path d="M45.13,253.92s18.1,1.93,38.14,1.93" transform="translate(-21.85 -42.29)" fill="none" stroke="#934b2a" stroke-linecap="round" stroke-linejoin="round" stroke-width="0.56"/><path d="M95.25,202.89s1.59,5.51,2.45,10" transform="translate(-21.85 -42.29)" fill="none"/></svg>