<svg xmlns="http://www.w3.org/2000/svg" xmlns:xlink="http://www.w3.org/1999/xlink" viewBox="0 0 1080 1080"><defs><linearGradient id="a" x1="543.61" y1="679.3" x2="1040.96" y2="667.03" gradientUnits="userSpaceOnUse"><stop offset="0" stop-color="#a7d7db"/><stop offset="0.65" stop-color="#84abaf"/><stop offset="0.99" stop-color="#76989c"/></linearGradient><linearGradient id="b" x1="687.71" y1="658.19" x2="962.68" y2="651.41" gradientUnits="userSpaceOnUse"><stop offset="0" stop-color="#faa96a"/><stop offset="0.29" stop-color="#f39c49"/><stop offset="0.76" stop-color="#e9881a"/><stop offset="0.99" stop-color="#e58107"/></linearGradient><linearGradient id="c" x1="683.61" y1="656.49" x2="958.28" y2="656.49" gradientUnits="userSpaceOnUse"><stop offset="0" stop-color="#591919"/><stop offset="0.44" stop-color="#675759"/><stop offset="0.81" stop-color="#728689"/><stop offset="0.99" stop-color="#76989c"/></linearGradient><linearGradient id="d" x1="819.88" y1="382.49" x2="875.69" y2="382.49" gradientUnits="userSpaceOnUse"><stop offset="0" stop-color="#fff"/><stop offset="0.61" stop-color="#dadce6"/><stop offset="0.99" stop-color="#c7cbd9"/></linearGradient><linearGradient id="e" x1="830.75" y1="364.39" x2="863.88" y2="364.39" xlink:href="#a"/><linearGradient id="f" x1="775.37" y1="392.34" x2="814.23" y2="392.34" xlink:href="#d"/><linearGradient id="g" x1="783.28" y1="379.12" x2="806.85" y2="379.12" xlink:href="#a"/><linearGradient id="h" x1="845.31" y1="415.25" x2="899.64" y2="415.25" xlink:href="#d"/><linearGradient id="i" x1="867.66" y1="408.96" x2="891.17" y2="408.96" xlink:href="#a"/><clipPath id="j"><rect x="143.37" y="37.79" width="708.73" height="948.41" fill="none"/></clipPath><linearGradient id="k" x1="441.42" y1="617.02" x2="728.76" y2="617.02" xlink:href="#a"/><linearGradient id="l" x1="439.41" y1="617.02" x2="730.75" y2="617.02" xlink:href="#a"/><linearGradient id="m" x1="313.96" y1="268.42" x2="519.88" y2="268.42" gradientUnits="userSpaceOnUse"><stop offset="0" stop-color="#ba7d4e"/><stop offset="0.65" stop-color="#8d5e3b"/><stop offset="0.99" stop-color="#7a5233"/></linearGradient><linearGradient id="n" x1="356.9" y1="136.43" x2="383.34" y2="163.67" xlink:href="#m"/><linearGradient id="o" x1="391.47" y1="386.7" x2="519.27" y2="386.7" gradientUnits="userSpaceOnUse"><stop offset="0" stop-color="#e54040"/><stop offset="0.47" stop-color="#9c2c2c"/><stop offset="0.82" stop-color="#6c1e1e"/><stop offset="0.99" stop-color="#591919"/></linearGradient><linearGradient id="p" x1="353.44" y1="85.33" x2="367.84" y2="85.33" xlink:href="#m"/><linearGradient id="q" x1="367.25" y1="80.26" x2="384.06" y2="80.26" xlink:href="#m"/><linearGradient id="r" x1="415.19" y1="503.85" x2="554.89" y2="503.85" xlink:href="#a"/><linearGradient id="s" x1="468.14" y1="1004.98" x2="497.4" y2="774.23" gradientUnits="userSpaceOnUse"><stop offset="0" stop-color="#3a3e8c" stop-opacity="0"/><stop offset="0.07" stop-color="#3a3e8c" stop-opacity="0.26"/><stop offset="0.16" stop-color="#3a3e8c" stop-opacity="0.58"/><stop offset="0.24" stop-color="#3a3e8c" stop-opacity="0.81"/><stop offset="0.31" stop-color="#3a3e8c" stop-opacity="0.95"/><stop offset="0.36" stop-color="#3a3e8c"/><stop offset="0.77" stop-color="#272a60"/><stop offset="0.99" stop-color="#1f224d"/></linearGradient><linearGradient id="t" x1="360.85" y1="759.25" x2="590.69" y2="759.25" gradientUnits="userSpaceOnUse"><stop offset="0.36" stop-color="#3a3e8c"/><stop offset="0.53" stop-color="#383c88"/><stop offset="0.68" stop-color="#34377d"/><stop offset="0.83" stop-color="#2b2f6a"/><stop offset="0.98" stop-color="#202350"/><stop offset="0.99" stop-color="#1f224d"/></linearGradient><linearGradient id="u" x1="538.53" y1="885.74" x2="592.48" y2="827.33" gradientUnits="userSpaceOnUse"><stop offset="0.12" stop-color="#3a3e8c"/><stop offset="0.19" stop-color="#34387e"/><stop offset="0.35" stop-color="#2b2e69"/><stop offset="0.52" stop-color="#242759"/><stop offset="0.71" stop-color="#202350"/><stop offset="0.99" stop-color="#1f224d"/></linearGradient><linearGradient id="v" x1="421.93" y1="902.78" x2="474.66" y2="902.78" xlink:href="#u"/><linearGradient id="w" x1="337.64" y1="565" x2="738.94" y2="565" xlink:href="#o"/><linearGradient id="x" x1="586.12" y1="604.43" x2="710.68" y2="505.66" xlink:href="#a"/><linearGradient id="y" x1="593.71" y1="360.56" x2="667.71" y2="360.56" xlink:href="#m"/><linearGradient id="z" x1="584.36" y1="243.55" x2="725.04" y2="243.55" xlink:href="#m"/><linearGradient id="aa" x1="575.53" y1="211.75" x2="741.46" y2="211.75" gradientUnits="userSpaceOnUse"><stop offset="0.12" stop-color="#4d433c"/><stop offset="0.72" stop-color="#27221e"/></linearGradient><linearGradient id="ab" x1="604.87" y1="258.07" x2="627.86" y2="258.07" xlink:href="#aa"/><linearGradient id="ac" x1="613.16" y1="292.69" x2="645.63" y2="292.69" xlink:href="#aa"/><linearGradient id="ad" x1="652.25" y1="234.21" x2="669.9" y2="234.21" xlink:href="#aa"/><linearGradient id="ae" x1="603.94" y1="213.74" x2="623.06" y2="213.74" xlink:href="#aa"/><linearGradient id="af" x1="457.33" y1="99.09" x2="527.26" y2="99.09" xlink:href="#m"/><linearGradient id="ag" x1="469.92" y1="124.07" x2="518.85" y2="60.99" xlink:href="#m"/><linearGradient id="ah" x1="483.05" y1="132.16" x2="514.65" y2="79.13" xlink:href="#m"/><linearGradient id="ai" x1="433.65" y1="303.72" x2="738.39" y2="303.72" xlink:href="#m"/><linearGradient id="aj" x1="509.82" y1="232.9" x2="554.67" y2="232.9" gradientUnits="userSpaceOnUse"><stop offset="0" stop-color="#3a3e8c"/><stop offset="0.65" stop-color="#272a60"/><stop offset="0.99" stop-color="#1f224d"/></linearGradient><linearGradient id="ak" x1="614.83" y1="419.43" x2="736.96" y2="419.43" xlink:href="#o"/><linearGradient id="al" x1="381.5" y1="97.95" x2="465.8" y2="95.87" xlink:href="#a"/><linearGradient id="am" x1="383.07" y1="74.77" x2="399.59" y2="74.77" xlink:href="#m"/><linearGradient id="an" x1="396.17" y1="72.35" x2="412.99" y2="72.35" gradientTransform="translate(-0.79 9.78) rotate(-1.41)" xlink:href="#m"/><linearGradient id="ao" x1="471.74" y1="155.1" x2="524.42" y2="125.16" gradientUnits="userSpaceOnUse"><stop offset="0" stop-color="#ba7d4e"/><stop offset="0.6" stop-color="#91613d"/><stop offset="0.99" stop-color="#7a5233"/></linearGradient><linearGradient id="ap" x1="453.96" y1="585.31" x2="520.67" y2="611.17" gradientUnits="userSpaceOnUse"><stop offset="0" stop-color="#e54040"/><stop offset="0.16" stop-color="#d53c3c"/><stop offset="0.46" stop-color="#ad3030"/><stop offset="0.88" stop-color="#6c1e1e"/><stop offset="0.99" stop-color="#591919"/></linearGradient><linearGradient id="aq" x1="537.18" y1="391.9" x2="607.81" y2="391.9" xlink:href="#ap"/><linearGradient id="ar" x1="547.58" y1="441.07" x2="556.63" y2="441.07" xlink:href="#ap"/><linearGradient id="as" x1="558.08" y1="417.37" x2="566.86" y2="417.37" xlink:href="#ap"/><linearGradient id="at" x1="137.22" y1="434.1" x2="303.68" y2="434.1" xlink:href="#o"/><linearGradient id="au" x1="710.67" y1="619.4" x2="855.37" y2="619.4" xlink:href="#aj"/><linearGradient id="av" x1="674.47" y1="797" x2="975.65" y2="797" gradientUnits="userSpaceOnUse"><stop offset="0" stop-color="#6393f2"/><stop offset="0.31" stop-color="#557dce"/><stop offset="0.77" stop-color="#41609f"/><stop offset="0.99" stop-color="#3a558c"/></linearGradient><linearGradient id="aw" x1="672.47" y1="797" x2="977.65" y2="797" gradientUnits="userSpaceOnUse"><stop offset="0" stop-color="#6393f2"/><stop offset="0.2" stop-color="#6794de"/><stop offset="0.73" stop-color="#7297af"/><stop offset="0.99" stop-color="#76989c"/></linearGradient><linearGradient id="ax" x1="888.45" y1="823.96" x2="975.65" y2="823.96" xlink:href="#o"/><linearGradient id="ay" x1="674.47" y1="795.19" x2="805.06" y2="795.19" xlink:href="#o"/><linearGradient id="az" x1="49.01" y1="714.11" x2="312.75" y2="714.11" xlink:href="#aj"/><linearGradient id="ba" x1="73.32" y1="752.54" x2="155.53" y2="752.54" gradientUnits="userSpaceOnUse"><stop offset="0" stop-color="#3a3e8c"/><stop offset="0.23" stop-color="#33367b"/><stop offset="0.72" stop-color="#24285a"/><stop offset="0.99" stop-color="#1f224d"/></linearGradient><linearGradient id="bb" x1="87.63" y1="738.37" x2="127.42" y2="738.37" xlink:href="#ba"/><linearGradient id="bc" x1="94.53" y1="738.37" x2="120.53" y2="738.37" xlink:href="#ba"/><linearGradient id="bd" x1="91.19" y1="725.22" x2="111.06" y2="725.22" xlink:href="#ba"/><linearGradient id="be" x1="207.65" y1="674.86" x2="289.86" y2="674.86" gradientUnits="userSpaceOnUse"><stop offset="0" stop-color="#3a3e8c"/><stop offset="0.25" stop-color="#383c88"/><stop offset="0.5" stop-color="#33377c"/><stop offset="0.76" stop-color="#2a2e67"/><stop offset="0.99" stop-color="#1f224d"/></linearGradient><linearGradient id="bf" x1="221.96" y1="660.69" x2="261.76" y2="660.69" xlink:href="#be"/><linearGradient id="bg" x1="228.86" y1="660.69" x2="254.86" y2="660.69" xlink:href="#be"/><linearGradient id="bh" x1="225.52" y1="647.54" x2="245.4" y2="647.54" xlink:href="#be"/><linearGradient id="bi" x1="932.05" y1="588.62" x2="1036.38" y2="588.62" xlink:href="#d"/><linearGradient id="bj" x1="930.07" y1="588.62" x2="1038.36" y2="588.62" xlink:href="#d"/><linearGradient id="bk" x1="941.53" y1="588.62" x2="1026.9" y2="588.62" gradientTransform="translate(1308.2 -511.46) rotate(75.53)" xlink:href="#o"/><linearGradient id="bl" x1="959.87" y1="588.62" x2="1008.56" y2="588.62" gradientTransform="translate(1242.17 -528.79) rotate(72.12)" xlink:href="#d"/></defs><title>world</title><g style="isolation:isolate"><path d="M792.29,944.15A229.54,229.54,0,0,1,702,925.56c-61.67-26.19-110.36-76.95-137.11-142.92a291.29,291.29,0,0,1-4.25-207.88c1.59-4.43,3.24-8.7,5.05-13.06C583.78,518,612.24,480.24,648,452.51a243.43,243.43,0,0,1,58.84-33.75c7-2.79,14.16-5.27,21.3-7.35a227.74,227.74,0,0,1,106.78-5.21,235,235,0,0,1,47.75,14.57,244.64,244.64,0,0,1,76.64,51.61,266.8,266.8,0,0,1,43.14,55.94,291.9,291.9,0,0,1,35.92,184.08A292.08,292.08,0,0,1,1024,771.54c-2.59,7.25-5.49,14.45-8.62,21.39-19.23,42.64-48.58,79.12-84.87,105.49C889.35,928.34,841.55,944.15,792.29,944.15Z" fill="url(#a)"/><path d="M792.39,403.18a226.46,226.46,0,0,1,42.36,4,233.91,233.91,0,0,1,47.55,14.51,244.08,244.08,0,0,1,76.32,51.4,265.51,265.51,0,0,1,43,55.73,290.95,290.95,0,0,1,21.46,242.38q-3.91,10.95-8.59,21.32c-19.75,43.78-49.29,79.47-84.55,105.1C889.5,927,841.58,943.15,792.29,943.15a229.05,229.05,0,0,1-89.88-18.51c-63.55-27-111-79.4-136.57-142.38a291.39,291.39,0,0,1-4.23-207.17c1.58-4.41,3.25-8.73,5-13,18.6-45,47.3-81.89,82-108.79a242.33,242.33,0,0,1,58.59-33.61q10.46-4.19,21.21-7.32a227.89,227.89,0,0,1,63.95-9.19m0-2v0a230,230,0,0,0-64.51,9.27c-7.17,2.09-14.37,4.58-21.39,7.38a244.38,244.38,0,0,0-59.08,33.89c-35.92,27.84-64.49,65.74-82.63,109.6-1.81,4.37-3.46,8.65-5.06,13.1A293.42,293.42,0,0,0,564,783a272.74,272.74,0,0,0,54.44,85.3,246.56,246.56,0,0,0,83.21,58.16,229.41,229.41,0,0,0,163.43,6.82,242.58,242.58,0,0,0,66-34.07c36.43-26.48,65.89-63.09,85.19-105.89,3.14-7,6.05-14.19,8.65-21.46a293.55,293.55,0,0,0,14.44-59.34,292.87,292.87,0,0,0-36.05-184.72A267.6,267.6,0,0,0,960,471.67a245.58,245.58,0,0,0-76.95-51.82,235.55,235.55,0,0,0-48-14.63,229.22,229.22,0,0,0-42.74-4Z" fill="#465a5c"/><path d="M938,774.76c-5.9,6.17-14.7,7.4-22.88,8.28s-16.94,2.1-22.88,8.23c-6.82,7-8.34,19.13-16.2,24.72-8.07,5.77-19.74,2.3-27.57,8.44-6.61,5.19-8.27,15.5-14.57,21.09-11.72,10.39-31.58-1.17-43.56,8.94-3.38,2.86-5.69,7.24-9.58,9.31-4.27,2.33-9.42,1.2-14-.32s-9.3-3.5-14-2.72c-6,1-11.73,8.34-6.15,14.62a6.52,6.52,0,0,1,1.07,7c-2.06,4.3-6.92,1-10.59,2-3.93,1-5.26,6.39-5.27,10.77,0,4.87.38,10.45-3.52,13.43-3.3,2.53-7.8,1.48-10.6-1.7-4.26-4.85-4.17-11.85-3.22-18.16,5.21-34.2,30.14-60,49.84-87.16,7.61-10.54,14.83-24.91,8.78-36.56-2.86-5.52-8.12-9-12-13.69-8-9.75-9.49-23.78-10.57-36.83-2-24.19-3.21-51.37,11.38-69.72a54.8,54.8,0,0,1,18-14.23c4.28-2.18,3.93-9.11-.63-10.41h-.11c-6.08-1.71-12.57-.81-18.67-2.4s-12.24-7.23-11.3-14c.75-5.29,5.62-10,4-15-2.69-8.62-18.37-3-21-11.62-1.31-4.28,2.05-8.54,2.45-13,.73-8.41-8.51-13.4-16.18-14.63s-16.88-2.27-20.37-9.81c-2.45-5.28-.89-11.64,1.22-17.07s4.75-11,4.44-16.85-5.26-11.92-10.46-10.35c-2.52.75-4.81,3.1-7.51,1.11a6,6,0,0,1-2.1-5.62c3.39-25.77,15.21-50.11,32.8-67.7,3.11-3.1,7.09-6.86,11.64-10.95a227.23,227.23,0,0,1,153.83,9.32A243.71,243.71,0,0,1,958.28,473c-4.36,2.32-8.65,4.62-10.89,9.15-2.63,5.36-1.59,12.7-9.14,15a14.36,14.36,0,0,1-12.51-2.44c-6.31-4.56-17.46-11.6-23.8-4.91-2,2.05-2.89,5-4.73,7.1-6.33,7.31-18,1.34-24.78-4.38a27.08,27.08,0,0,0-9.61-5.34c-14.25-4.27-15.11,8-21.76,13.11-7.15,5.55-19.07,1.7-24.25,9.43-2.7,4-2.2,9.54-2.8,14.49s-3.9,10.6-8.42,9.8c-3.89-.69-5.74-5.71-5.87-10s.63-8.82-1.06-12.71c-2.29-5.25-8.23-7.28-13.56-7.43s-10.75,1-15.94-.33c-9.18-2.36-16.92-12.31-27.88-1.16a30.85,30.85,0,0,0-4.88,6.8c-4,7.33-10.13,16.3-4.93,25.27a15,15,0,0,0,9.64,6.91c7.17,1.62,13.86-.86,20.25-4.11a4,4,0,0,1,5.69,3.81c0,8.49-5.95,17.09-13.85,18.27l.23.13a32.83,32.83,0,0,1,15.9,24.82c0,.26.07.53.11.78.92,5.21,4.08,9.55,7.28,13.51,1.48,1.84,3,3.61,4.54,5.38,5.86,6.61,14.79,8,22.61,4.59a12.31,12.31,0,0,1,1.5-.55,17.81,17.81,0,0,1,19,5.87c5.68,6.93,7.67,18.61,15.92,20.87,5,1.36,10.46-1.54,15.3.39,8.18,3.3,7.44,16.39,12.77,23.93,6.25,8.86,19.89,8.6,25.38,18,6.1,10.43-2,25.48,3.72,36.18,4.82,9.13,17.36,10.65,22,19.89,2.73,5.4,2.51,13.09,7.39,16.31s12-.31,14.76,9.52A16.69,16.69,0,0,1,938,774.76Z" fill="url(#b)"/><path d="M792.05,404a227.62,227.62,0,0,1,89.5,18.44,242.22,242.22,0,0,1,75.06,50.26c-4,2.16-8,4.56-10.11,8.95a27.36,27.36,0,0,0-1.77,5.31c-1.08,4.15-2,7.72-6.77,9.17a11.87,11.87,0,0,1-3.41.5,14.07,14.07,0,0,1-8.23-2.79c-4.66-3.37-11.58-7.85-17.76-7.85a9.71,9.71,0,0,0-7.34,3.06,18.67,18.67,0,0,0-2.67,3.93,19.13,19.13,0,0,1-2.1,3.21,8.72,8.72,0,0,1-6.91,3c-5.56,0-12.15-3.89-16.47-7.53a27.86,27.86,0,0,0-10-5.54,19.86,19.86,0,0,0-5.67-.93c-6.52,0-9.43,4.32-12.25,8.51a23.55,23.55,0,0,1-4.74,5.7c-3,2.31-7,2.91-10.92,3.48-5.13.75-10.44,1.53-13.55,6.18-2.15,3.22-2.4,7.22-2.65,11.08-.08,1.28-.16,2.6-.31,3.84-.56,4.33-3.23,9-6.57,9a3.23,3.23,0,0,1-.69-.07c-3.29-.58-4.92-5.09-5-9.05,0-1.16,0-2.37,0-3.55.08-3.2.16-6.51-1.15-9.52-2.12-4.84-7.52-7.84-14.45-8l-1,0c-1.53,0-3.08.09-4.57.17s-3,.17-4.44.17a22.49,22.49,0,0,1-5.67-.62,36,36,0,0,1-7-2.9c-3.42-1.71-7-3.47-10.78-3.47s-7.48,1.79-11.11,5.48a31.52,31.52,0,0,0-5,7l-1.14,2c-3.92,6.94-8.8,15.58-3.78,24.22a15.86,15.86,0,0,0,10.28,7.38,21.58,21.58,0,0,0,4.82.54c6,0,11.5-2.39,16.1-4.73a2.7,2.7,0,0,1,1.24-.3,2.94,2.94,0,0,1,2.05.88,3.27,3.27,0,0,1,.95,2.33c0,8.47-5.87,16.23-13,17.3l-2.86.42,2.51,1.43.12.07.1.06a31.77,31.77,0,0,1,15.4,24.07c0,.28.08.56.13.84,1,5.52,4.37,10.1,7.48,14,1.5,1.86,3.06,3.66,4.58,5.42a19.71,19.71,0,0,0,14.91,6.74,21.65,21.65,0,0,0,8.84-1.91,14.89,14.89,0,0,1,1.41-.51,15.26,15.26,0,0,1,4.77-.75,17.17,17.17,0,0,1,13.15,6.31,46.43,46.43,0,0,1,5,8.39c2.8,5.52,5.69,11.23,11.42,12.81a12.6,12.6,0,0,0,3.37.41,35,35,0,0,0,4.24-.35,32.85,32.85,0,0,1,4-.33,9.41,9.41,0,0,1,3.61.62c4.51,1.81,6.11,7.1,7.79,12.71,1.15,3.81,2.34,7.76,4.54,10.86,3.17,4.5,8.1,6.74,12.87,8.91,5,2.28,9.79,4.44,12.47,9,2.93,5,2.41,11.18,1.86,17.69s-1.09,12.93,1.84,18.46c2.51,4.76,7,7.54,11.31,10.22s8.47,5.24,10.7,9.65a33.75,33.75,0,0,1,2.11,6.25c1.08,4,2.19,8.18,5.61,10.44a14.33,14.33,0,0,0,5.77,1.86c3.71.63,6.91,1.17,8.59,7.1a15.67,15.67,0,0,1-3.4,14.86c-5.49,5.75-13.67,7.06-22.27,8-7.19.79-17,1.87-23.49,8.52-3.18,3.28-5.24,7.6-7.23,11.77-2.43,5.1-4.72,9.91-8.84,12.83-3.74,2.69-8.29,3.26-13.11,3.87-5.05.64-10.28,1.3-14.49,4.61-3.59,2.81-5.77,7-7.88,11.12-1.88,3.65-3.83,7.42-6.74,10-4.45,4-10.27,4.48-15.38,4.48-1.89,0-3.85-.08-5.75-.16s-3.9-.16-5.84-.16c-5.4,0-11.58.57-16.56,4.77a34.07,34.07,0,0,0-3.84,4c-1.75,2-3.41,4-5.57,5.15a10.47,10.47,0,0,1-5.16,1.21,26.57,26.57,0,0,1-8-1.59l-1.53-.53c-3.43-1.19-7-2.42-10.59-2.42a14.16,14.16,0,0,0-2.38.19,11.57,11.57,0,0,0-8.75,7.19,8.79,8.79,0,0,0,2,9.07,5.53,5.53,0,0,1,.91,5.93,2.78,2.78,0,0,1-2.92,1.71,17.65,17.65,0,0,1-2.38-.23,19.82,19.82,0,0,0-2.79-.26,7.19,7.19,0,0,0-1.86.22c-4.41,1.18-6,6.84-6,11.73,0,.48,0,1,0,1.46,0,4.32,0,8.8-3.11,11.19a5.88,5.88,0,0,1-3.56,1.2,7.85,7.85,0,0,1-5.69-2.77c-4.28-4.88-3.75-12.23-3-17.35,4.16-27.28,21.22-49.46,37.73-70.9,4-5.17,8.09-10.51,11.93-15.82,10.8-15,13.86-28,8.86-37.61-1.88-3.62-4.74-6.38-7.5-9.06a59.81,59.81,0,0,1-4.61-4.81c-7.55-9.15-9.15-21.84-10.35-36.27-2.09-25.18-2.95-51.25,11.18-69a53.33,53.33,0,0,1,17.62-14,6.76,6.76,0,0,0,3.52-6.77,6.14,6.14,0,0,0-4.32-5.49l-.21,0a45.79,45.79,0,0,0-9.67-1.26,46,46,0,0,1-8.93-1.12c-5.87-1.53-11.42-6.76-10.57-12.86a21.28,21.28,0,0,1,2.11-5.82c1.45-3.06,3-6.22,1.89-9.62-1.53-4.9-6.73-5.75-11.32-6.5-4.4-.71-8.55-1.39-9.69-5.11-.69-2.28.16-4.67,1.06-7.19a22.06,22.06,0,0,0,1.44-5.44c.76-8.79-8.29-14.3-17-15.7l-1.45-.23c-7.09-1.14-15.12-2.43-18.18-9-1.88-4.07-1.49-9.25,1.25-16.29.31-.82.64-1.63,1-2.45,1.88-4.72,3.82-9.6,3.55-14.81-.29-5.47-4.37-11.55-9.77-11.55a7.08,7.08,0,0,0-2,.29,15.13,15.13,0,0,0-2.18.91,7,7,0,0,1-2.82.94,2.7,2.7,0,0,1-1.63-.59,5,5,0,0,1-1.7-4.68c3.38-25.7,14.93-49.54,32.52-67.12,3.14-3.14,7.09-6.86,11.43-10.76a226.6,226.6,0,0,1,63.44-9.1m0-1a227.72,227.72,0,0,0-63.94,9.2c-4.55,4.09-8.53,7.85-11.64,10.95-17.59,17.59-29.41,41.93-32.8,67.7a6,6,0,0,0,2.1,5.62,3.64,3.64,0,0,0,2.22.78c1.8,0,3.49-1.36,5.29-1.89a5.87,5.87,0,0,1,1.69-.25c4.54,0,8.49,5.36,8.77,10.6.31,5.88-2.36,11.41-4.44,16.85s-3.67,11.79-1.22,17.07c3.49,7.54,12.71,8.55,20.37,9.81s16.91,6.22,16.18,14.63c-.4,4.46-3.76,8.72-2.45,13,2.63,8.62,18.31,3,21,11.62,1.59,5-3.28,9.71-4,15-.94,6.74,5.21,12.38,11.3,14s12.59.69,18.67,2.4h.11c4.56,1.3,4.91,8.23.63,10.41a54.8,54.8,0,0,0-18,14.23c-14.59,18.35-13.39,45.53-11.38,69.72,1.08,13,2.53,27.08,10.57,36.83,3.87,4.7,9.13,8.17,12,13.69,6,11.65-1.17,26-8.78,36.56-19.7,27.2-44.63,53-49.84,87.16-1,6.31-1,13.31,3.22,18.16a8.77,8.77,0,0,0,6.44,3.11,6.72,6.72,0,0,0,4.16-1.41c3.9-3,3.47-8.56,3.52-13.43,0-4.38,1.34-9.72,5.27-10.77a6,6,0,0,1,1.6-.19c1.71,0,3.55.49,5.17.49a3.78,3.78,0,0,0,3.82-2.28,6.52,6.52,0,0,0-1.07-7c-5.58-6.28.16-13.65,6.15-14.62a13.83,13.83,0,0,1,2.22-.17c4,0,7.94,1.58,11.8,2.89a26.94,26.94,0,0,0,8.36,1.65,11.56,11.56,0,0,0,5.63-1.33c3.89-2.07,6.2-6.45,9.58-9.31,4.49-3.78,10.07-4.53,15.92-4.53,3.83,0,7.77.32,11.59.32,5.94,0,11.58-.77,16-4.73,6.3-5.59,8-15.9,14.57-21.09,7.83-6.14,19.5-2.67,27.57-8.44,7.86-5.59,9.38-17.69,16.2-24.72,5.94-6.13,14.73-7.33,22.88-8.23s17-2.11,22.88-8.28a16.69,16.69,0,0,0,3.64-15.83c-2.78-9.83-9.94-6.33-14.76-9.52s-4.66-10.91-7.39-16.31c-4.66-9.24-17.2-10.76-22-19.89-5.67-10.7,2.38-25.75-3.72-36.18-5.49-9.42-19.13-9.16-25.38-18-5.33-7.54-4.59-20.63-12.77-23.93a10.72,10.72,0,0,0-4-.69c-2.7,0-5.49.68-8.21.68a11.55,11.55,0,0,1-3.1-.38c-8.25-2.26-10.24-13.94-15.92-20.87a18.17,18.17,0,0,0-13.93-6.67,16.3,16.3,0,0,0-5.08.8,12.31,12.31,0,0,0-1.5.55,20.9,20.9,0,0,1-8.44,1.82,18.71,18.71,0,0,1-14.17-6.41c-1.53-1.77-3.06-3.54-4.54-5.38-3.2-4-6.36-8.3-7.28-13.51,0-.25-.08-.52-.11-.78a32.83,32.83,0,0,0-15.9-24.82l-.23-.13c7.9-1.18,13.81-9.78,13.85-18.27a4.13,4.13,0,0,0-4-4.22,3.69,3.69,0,0,0-1.69.41c-5,2.54-10.19,4.62-15.65,4.62a20.85,20.85,0,0,1-4.6-.51,15,15,0,0,1-9.64-6.91c-5.2-9,.89-17.94,4.93-25.27a30.85,30.85,0,0,1,4.88-6.8c3.78-3.85,7.18-5.18,10.39-5.18,6.08,0,11.48,4.8,17.49,6.34a23.67,23.67,0,0,0,5.92.65c3,0,6-.34,9-.34l1,0c5.33.15,11.27,2.19,13.56,7.43,1.69,3.89.9,8.43,1.06,12.71s2,9.31,5.87,10a5.1,5.1,0,0,0,.86.08c4.07,0,7-5.24,7.56-9.88.6-4.95.1-10.46,2.8-14.49,5.18-7.73,17.1-3.88,24.25-9.43,5.69-4.4,7.14-14,16.38-14a18.62,18.62,0,0,1,5.38.89,27.08,27.08,0,0,1,9.61,5.34c4.53,3.83,11.26,7.77,17.11,7.77a9.73,9.73,0,0,0,7.67-3.39c1.84-2.12,2.78-5.05,4.73-7.1a8.75,8.75,0,0,1,6.62-2.75c5.88,0,12.73,4.45,17.18,7.66a15.15,15.15,0,0,0,8.81,3,12.7,12.7,0,0,0,3.7-.54c7.55-2.3,6.51-9.64,9.14-15,2.24-4.53,6.53-6.83,10.89-9.15a243.71,243.71,0,0,0-76.34-51.42A229.11,229.11,0,0,0,792.05,403Z" fill="url(#c)"/><path d="M672.55,709.62c-5.9,6.18-14.71,7.41-22.88,8.3s-16.93,2.08-22.88,8.22c-6.82,7-8.35,19.13-16.2,24.72-8.07,5.78-19.73,2.3-27.57,8.45-6.61,5.19-8.26,15.5-14.58,21.08a14.12,14.12,0,0,1-2.61,1.88,291.48,291.48,0,0,1-4.22-207.18c1.58-4.41,3.25-8.73,5-13,2.07,3.54,4.51,6.45,8.22,7.47,5,1.38,10.47-1.54,15.31.39,8.18,3.3,7.44,16.39,12.76,23.93,6.25,8.86,19.9,8.6,25.38,18,6.1,10.43-1.94,25.48,3.73,36.18,4.81,9.12,17.35,10.66,22,19.89,2.72,5.41,2.51,13.09,7.38,16.32s12-.32,14.76,9.51A16.61,16.61,0,0,1,672.55,709.62Z" fill="none" stroke="#ffbe00" stroke-miterlimit="10" stroke-width="2"/><path d="M828.1,432.48a3.33,3.33,0,0,1-3.25-3.05c-2.34-18.62-7.39-63.32-3.62-76s14.38-20.95,26.51-20.95a26,26,0,0,1,8.65,1.5c14.62,5.18,22.67,22.3,17.94,38.18-3.77,12.67-31.94,45.62-43.87,59.2A3.14,3.14,0,0,1,828.1,432.48Z" fill="url(#d)"/><path d="M847.74,333a25.49,25.49,0,0,1,8.48,1.47c14.4,5.1,22.3,21.92,17.64,37.57-3.8,12.75-33,46.79-43.78,59a2.61,2.61,0,0,1-2,.93,2.84,2.84,0,0,1-2.75-2.61c-2.11-16.76-7.43-63-3.64-75.78,3.75-12.59,14.48-20.59,26-20.59m0-1h0c-12.35,0-23.19,8.56-27,21.31s1.26,57.53,3.61,76.19A3.82,3.82,0,0,0,828.1,433a3.6,3.6,0,0,0,2.73-1.27c12-13.61,40.18-46.62,44-59.38,4.81-16.13-3.38-33.54-18.25-38.8a26.53,26.53,0,0,0-8.82-1.53Z" fill="#001e0e"/><path d="M847.34,382.32a15.46,15.46,0,0,1-5.15-.89c-8.66-3.07-13.43-13.19-10.64-22.57,2.21-7.42,8.54-12.41,15.74-12.41a15.18,15.18,0,0,1,5.15.9c8.66,3.06,13.44,13.18,10.64,22.56C860.87,377.33,854.55,382.32,847.34,382.32Z" fill="url(#e)"/><path d="M847.29,347.45a14.31,14.31,0,0,1,4.82.84c8.18,2.89,12.66,12.45,10,21.34-2.12,7.15-8.22,11.69-14.78,11.69a14.35,14.35,0,0,1-4.82-.84c-8.18-2.89-12.66-12.44-10-21.33,2.13-7.15,8.22-11.7,14.78-11.7m0-2h0c-7.65,0-14.36,5.28-16.7,13.13-2.94,9.88,2.11,20.55,11.27,23.79a16.37,16.37,0,0,0,5.48.95c7.65,0,14.36-5.27,16.7-13.12,2.94-9.88-2.11-20.56-11.26-23.8a16.43,16.43,0,0,0-5.49-.95Z" fill="#465a5c"/><path d="M803.5,427.83a2.34,2.34,0,0,1-1.93-1.05c-7.21-10.4-24.16-35.57-25.82-44.64-2.09-11.43,4.77-22.58,15.3-24.87a17.94,17.94,0,0,1,3.85-.42c9.25,0,17.27,7.15,19.07,17,1.67,9.07-5.12,39.4-8.12,52A2.42,2.42,0,0,1,803.5,427.83Z" fill="url(#f)"/><path d="M794.9,357.35c8.87,0,16.79,6.78,18.58,16.6,1.67,9.1-5.42,40.47-8.12,51.82a1.93,1.93,0,0,1-1.86,1.56,1.84,1.84,0,0,1-1.52-.83c-6.48-9.35-24.07-35.35-25.74-44.45-2-11.18,4.63-22.06,14.91-24.3a17.92,17.92,0,0,1,3.75-.4m0-1h0a18.33,18.33,0,0,0-4,.43c-10.79,2.34-17.82,13.76-15.68,25.45,1.67,9.17,18.67,34.41,25.9,44.84a2.84,2.84,0,0,0,2.34,1.26,3,3,0,0,0,2.84-2.33c3-12.65,9.8-43.07,8.13-52.23-1.85-10.1-10.08-17.42-19.57-17.42Z" fill="#001e0e"/><path d="M795,391.85c-5.6,0-10.45-4.31-11.53-10.25-1.26-6.87,2.89-13.58,9.24-15a11.56,11.56,0,0,1,2.34-.25c5.6,0,10.45,4.31,11.54,10.25,1.25,6.86-2.89,13.57-9.25,14.95A10.9,10.9,0,0,1,795,391.85Z" fill="url(#g)"/><path d="M795.09,367.39c5,0,9.53,3.85,10.55,9.43,1.17,6.35-2.63,12.53-8.47,13.8a10.36,10.36,0,0,1-2.13.23c-5,0-9.53-3.86-10.55-9.43-1.16-6.35,2.63-12.53,8.47-13.8a10.43,10.43,0,0,1,2.13-.23m0-2h0a11.58,11.58,0,0,0-2.55.28c-6.88,1.49-11.37,8.72-10,16.11,1.18,6.41,6.44,11.07,12.52,11.07a12.31,12.31,0,0,0,2.56-.28c6.87-1.49,11.36-8.72,10-16.11-1.17-6.41-6.44-11.07-12.52-11.07Z" fill="#465a5c"/><path d="M847.71,443.48a2.39,2.39,0,0,1-1.92-1,2.69,2.69,0,0,1-.31-2.48c4.37-12.14,15.22-41,21.46-47.32A18.5,18.5,0,0,1,880.13,387a18.88,18.88,0,0,1,14.34,6.83c7.28,8.58,6.81,22-1,29.89-6.24,6.29-33.54,15.81-45,19.62A2.28,2.28,0,0,1,847.71,443.48Z" fill="url(#h)"/><path d="M880.13,387.52a18.27,18.27,0,0,1,14,6.66,22,22,0,0,1-1,29.21c-6.25,6.3-34.5,16.08-44.78,19.49a1.73,1.73,0,0,1-.58.1,2.07,2.07,0,0,1-1.76-2.86c3.93-10.9,15.09-40.83,21.35-47.13a18,18,0,0,1,12.83-5.47m0-1a19,19,0,0,0-13.54,5.76c-6.31,6.36-17.2,35.34-21.58,47.51a3.2,3.2,0,0,0,.38,2.94,2.87,2.87,0,0,0,2.32,1.25,2.73,2.73,0,0,0,.89-.15c11.48-3.81,38.86-13.37,45.18-19.74,8-8.08,8.51-21.79,1.08-30.56a19.37,19.37,0,0,0-14.73-7Z" fill="#001e0e"/><path d="M879.45,421.71a11.45,11.45,0,0,1-8.7-4.14,13.53,13.53,0,0,1,.63-17.94,11.22,11.22,0,0,1,8-3.41,11.45,11.45,0,0,1,8.7,4.14,13.53,13.53,0,0,1-.63,17.94,11.22,11.22,0,0,1-8,3.41Z" fill="url(#i)"/><path d="M879.38,397.22a10.33,10.33,0,0,1,7.93,3.79,12.49,12.49,0,0,1-.57,16.59,10.24,10.24,0,0,1-7.29,3.11,10.38,10.38,0,0,1-7.93-3.79,12.49,12.49,0,0,1,.57-16.59,10.24,10.24,0,0,1,7.29-3.11m0-2a12.23,12.23,0,0,0-8.7,3.7,14.56,14.56,0,0,0-.69,19.3,12.46,12.46,0,0,0,9.46,4.49,12.27,12.27,0,0,0,8.71-3.7,14.57,14.57,0,0,0,.68-19.3,12.46,12.46,0,0,0-9.46-4.49Z" fill="#465a5c"/><path d="M875.48,332.47c14.59-1.22,29.48,7.7,36.37,21.78s5.37,32.52-3.69,45.05" fill="none" stroke="#31c9c6" stroke-linecap="round" stroke-linejoin="round" stroke-width="2" stroke-dasharray="5"/><path d="M838.84,319.5c-11.16-10.32-28-12.64-41.17-5.65s-21.88,22.88-21.3,38.82" fill="none" stroke="#31c9c6" stroke-linecap="round" stroke-linejoin="round" stroke-width="2" stroke-dasharray="5"/><g clip-path="url(#j)"><path d="M727,469.76c-3.14,18.37-6.3,36.74-9.6,55.09q-3.44,19.24-7.19,38.45C699.71,617.35,687,670.81,668.61,722.22c-9.14,25.47-20.72,51.75-41.74,66.68-14.81,10.52-33,14.3-50.69,13.25s-34.82-6.62-51.29-13.59c-21.24-9-42.18-20.79-57.17-39.48-24.53-30.59-29.28-74.83-24.79-115.18,5.16-46.41,21.39-91.89,49.29-127.4s67.83-60.45,110.53-64.89l118.93-9.88C730.82,440.72,729.3,456.54,727,469.76Z" fill="url(#k)"/><path d="M721.68,431.73c9.14,9,7.62,24.81,5.36,38-3.14,18.37-6.3,36.74-9.6,55.09q-3.44,19.24-7.19,38.45C699.71,617.35,687,670.81,668.61,722.22c-9.14,25.47-20.72,51.75-41.74,66.68-13.23,9.4-29.2,13.42-45,13.42-1.89,0-3.77-.06-5.65-.17-17.65-1-34.82-6.62-51.29-13.59-21.24-9-42.18-20.79-57.17-39.48-24.53-30.59-29.28-74.83-24.79-115.18,5.16-46.41,21.39-91.89,49.29-127.4s67.83-60.45,110.53-64.89l118.93-9.88m0-2h-.16l-118.93,9.89c-41.79,4.34-82.58,28.27-112,65.65a227.33,227.33,0,0,0-33.47,60.14,280.41,280.41,0,0,0-16.23,68.27c-2.47,22.21-1.95,43,1.54,61.83,4,21.82,12,40.26,23.68,54.82,16.93,21.1,41.18,33,57.95,40.07,20,8.46,36.5,12.83,51.95,13.75,1.92.11,3.87.17,5.77.17,17.52,0,33.49-4.77,46.19-13.79,21.46-15.23,33.1-41.51,42.47-67.64,16-44.6,29.24-95.19,41.73-159.2,2.38-12.2,4.8-25.15,7.19-38.49,3.12-17.33,6.09-34.57,9.6-55.1,2.46-14.38,3.68-30.35-5.93-39.8a2,2,0,0,0-1.4-.57Z" fill="url(#l)"/><path d="M694.41,601.29l-20.67-6.61a1.2,1.2,0,1,0-2.33-.6l-13.17,45.5Q655,651,651.66,662.33c-2,6.87-4.32,14.07-3.35,21.37.75,5.64,4,11,8.94,13.24,4.63,2.08,9.55.27,12.62-3.88,3.33-4.48,4.61-10.3,6-15.72q3-11.48,6-22.93l13.4-51.5A1.36,1.36,0,0,0,694.41,601.29Z" fill="#ffbe00"/><path d="M717.44,525.57Q714,544.81,710.25,564q-15.22-3.79-30.45-7.55a308.27,308.27,0,0,0,4.34-41.5A152.72,152.72,0,0,0,717.44,525.57Z" fill="#ffbe00"/><path d="M683.59,480.75c1.83-10.7,3.06-23.51-4.35-30.81l-96.35,8c-34.6,3.59-67,23.79-89.56,52.57s-35.75,65.6-39.93,103.21c-3.62,32.68.21,68.53,20.09,93.32,12.15,15.15,29.11,24.7,46.32,32,13.35,5.65,27.26,10.17,41.55,11s29.08-2.21,41.07-10.73c17-12.11,26.41-33.39,33.81-54C659.76,619.69,671.73,550,683.59,480.75Z" fill="#355bb7"/><path d="M429.86,416.85l-38.68-26.56-53-36.4c-13-8.92-21.3-23.5-22.88-40-4.39-45.77,2.54-91.84,10.57-145.17l0-.16c-.69-2-8.78-27.17,8.49-60.39.41-.88,10.52-22,18.71-28.93l.14-.12L409,81.33l-.09.56c-3.29,19.15-12.17,34.33-27.16,46.4l2.74,4.57c1.22-2.4,5.21-8.86,12.83-8.86a16.7,16.7,0,0,1,6,1.21,1.88,1.88,0,0,1,.82.6,8.94,8.94,0,0,1-.36,11.26l-19.12,21.24c-.47.56-11.81,13.95-19.44,13.95h-.17l-.66,37.14a233.64,233.64,0,0,0,3.24,43.38l5.4,31.77c11.61,11.41,27.84,22.89,44.55,31.53a166.26,166.26,0,0,0,30.86,12.42c10.87,3.05,19.89,3.86,27.85,4.58,14.21,1.29,26.48,2.4,43.27,15.27l.3.23L475.46,457.73Z" fill="url(#m)"/><path d="M353.44,79.62l55,2.18c-3.11,18.14-11.62,33.86-27.32,46.37l3.45,5.76s3.7-9.43,12.78-9.43a16.25,16.25,0,0,1,5.81,1.17,1.45,1.45,0,0,1,.61.45,8.46,8.46,0,0,1-.34,10.62L384.31,158s-11.58,13.78-19.07,13.78a4.78,4.78,0,0,1-.66,0l-.67,37.67a234.2,234.2,0,0,0,3.25,43.47l5.43,31.94c11.52,11.35,27.58,22.84,44.78,31.72a167.93,167.93,0,0,0,31,12.46c30.09,8.44,44.8-.29,70.94,19.77l-44,108.13-45.07-40.4-38.72-26.6-53-36.4c-12.71-8.75-21.1-23.34-22.67-39.64-4.39-45.79,2.58-92,10.61-145.32,0,0-9.59-25.45,8.42-60.12,0,0,10.39-21.79,18.59-28.78m-.35-1-.3.25c-8.26,7-18.42,28.22-18.84,29.11-9.39,18.07-11.2,33.63-11.06,43.5.13,9.7,2.06,15.84,2.52,17.15v0c-8,53.37-15,99.46-10.57,145.3,1.6,16.64,10,31.36,23.09,40.36l53,36.41,38.68,26.56,45,40.35,1,.95.54-1.31,44-108.14.28-.7-.6-.47c-16.9-13-29.24-14.08-43.53-15.37-7.94-.72-16.93-1.53-27.75-4.56a165.69,165.69,0,0,1-30.78-12.39c-16.61-8.58-32.74-20-44.3-31.32l-5.37-31.62a232.57,232.57,0,0,1-3.24-43.28l.65-36.66c7.86-.36,19-13.56,19.51-14.13l19.1-21.21a9.19,9.19,0,0,0,2.31-6.19,9.29,9.29,0,0,0-1.93-5.72,2.48,2.48,0,0,0-1.05-.77,17.26,17.26,0,0,0-6.15-1.23c-7.25,0-11.26,5.45-12.87,8.33l-2.05-3.43c14.88-12.1,23.72-27.3,27-46.43l.19-1.12-1.14,0-55-2.19Z" fill="#591919"/><path d="M384.57,133.93s-22.66-6.69-37.06,23.83" fill="url(#n)"/><path d="M519.27,348.75l-44,108.13-45.07-40.4-38.72-26.6,25.9-73.36a167.93,167.93,0,0,0,31,12.46C478.42,337.42,493.13,328.69,519.27,348.75Z" fill="url(#o)"/><path d="M499.35,399c-1.25-1.36-3.91-1.69-5.11,0a247.05,247.05,0,0,0-36.52,76.53q-3.25,11.61-5.38,23.55a4.11,4.11,0,0,0,2.53,4.85,3.63,3.63,0,0,0,4.45-2.75,243,243,0,0,1,27.87-77.48,224.87,224.87,0,0,1,12.16-19.12A4.35,4.35,0,0,0,499.35,399Z" fill="#ff604d" style="mix-blend-mode:screen"/><path d="M353.44,79.63l7.1-8.61,6.1.76,1.19,24.15a3.2,3.2,0,0,1-2,3.25c-3.26,1.11-9,1.23-8.75-12Z" fill="url(#p)"/><path d="M371.09,66.7c-1.61,5.63-4.29,16.53-3.77,25.22.19,3.23,2,6.23,4.88,7,2.47.7,5.49-.24,7.74-6.78l4-21.68a7.9,7.9,0,0,0-1-5.56,6.84,6.84,0,0,0-4.77-3.5C375,61,372.05,63.36,371.09,66.7Z" fill="url(#q)"/><path d="M439.37,697.55a1,1,0,0,1-.93-.72c-21.65-75.54-28.09-140.79-19.7-199.46,4.63-32.38,17.65-72.94,34-105.84,14.44-29.11,38.41-66.54,70.55-79.6a24.74,24.74,0,0,1,9.26-1.79c8.42,0,15.85,4,19.86,10.67a15.3,15.3,0,0,1,2.31,10.51c-1,5.15-5.14,8.72-8.51,11.58-70.72,60.18-110.54,158.15-103.92,255.69.47,6.81,1.15,13.82,1.81,20.6,2.55,26.16,5.18,53.21-3.74,77.7a1,1,0,0,1-.94.66Z" fill="url(#r)"/><path d="M532.53,311.14c7.48,0,15,3.45,19,10.19a14.39,14.39,0,0,1,2.17,9.81c-.86,4.73-4.68,8-8.17,11-70.43,59.93-110.86,159.39-104.27,256.51,2.24,32.89,9.3,67.25-1.87,97.9C421,632.29,410.21,564,419.73,497.51c8.32-58.2,47.41-161.69,103.91-184.66a23.75,23.75,0,0,1,8.89-1.71m0-2a25.53,25.53,0,0,0-9.64,1.86c-32.43,13.18-56.55,50.82-71.06,80.08-16.38,33-29.44,73.67-34.08,106.15-8.42,58.82-2,124.2,19.73,199.87a2,2,0,0,0,1.85,1.45h.08a2,2,0,0,0,1.87-1.31c9-24.71,6.35-51.88,3.79-78.14-.66-6.78-1.34-13.78-1.8-20.58-6.5-95.76,34.15-195.79,103.57-254.85,3.49-3,7.83-6.67,8.84-12.17a16.26,16.26,0,0,0-2.43-11.2c-4.2-7-11.94-11.16-20.72-11.16Z" fill="#465a5c"/><path d="M258.43,1122H360s32-157.09,64-207.18c3-10.46,13.28-16.07,24.8-13.46,40.42,32.76,70.26,126.41,100,220.64H652.07l-31.41-104.89A180.35,180.35,0,0,1,613.4,976c-2.47-41.58-9.63-138.4-26.13-213.12L348,722.51C291.69,823.06,267.18,981.12,258.43,1122Z" fill="url(#s)"/><path d="M588.05,803q-16.34-2.6-32.53-6.16,1.85-8,3.7-16.08c.46-2-.59-4.37-2.53-4.85a3.65,3.65,0,0,0-4.45,2.75l-3.8,16.56q-16.63-3.88-33-8.78c.71-2.34,1.44-4.67,2.25-7,.32-.92.65-1.85,1-2.76.15-.4.29-.79.44-1.18l.3-.79c-.12.29-.09.22.09-.23q1.07-2.73,2.23-5.41c.8-1.86.53-4.34-1.3-5.39a3.49,3.49,0,0,0-4.95,1.41,181.38,181.38,0,0,0-7,19.22c-3.58-1.12-7.16-2.25-10.72-3.44q-17.93-6-35.46-13.18a56.29,56.29,0,0,1,7.29-21.8,4.18,4.18,0,0,0-1.29-5.4,3.53,3.53,0,0,0-4.95,1.42,63.68,63.68,0,0,0-7.94,22.93q-11.06-4.7-21.94-9.85a141.82,141.82,0,0,0,10.42-24.3,4.05,4.05,0,0,0-2.53-4.86,3.68,3.68,0,0,0-4.45,2.76A128.37,128.37,0,0,1,426.8,751.8q-7.49-3.66-14.89-7.53c-2.81-1.48-5.59-3-8.38-4.54a205.17,205.17,0,0,1,10.91-26,4.22,4.22,0,0,0-1.3-5.39,3.48,3.48,0,0,0-4.94,1.41,216.79,216.79,0,0,0-11.13,26.39c-6.21-3.5-12.35-7.16-18.45-10.89.89-1.65,1.84-3.27,2.87-4.82l.51-.75.12-.16,0,0c.38-.52.76-1,1.15-1.53.8-1,1.64-2,2.5-3a4.24,4.24,0,0,0,0-5.57,3.45,3.45,0,0,0-5.11,0,63.78,63.78,0,0,0-8.34,12c-2-1.28-4.09-2.52-6.11-3.82-4-2.6-7.66,4.21-3.65,6.81a594.34,594.34,0,0,0,83.57,45.05,573.08,573.08,0,0,0,62,23.09,3.09,3.09,0,0,0,1.59,1,3.66,3.66,0,0,0,1.71,0Q523,797,534.65,800q25.51,6.54,51.48,10.64a3.71,3.71,0,0,0,4.45-2.75C591,806,590,803.33,588.05,803Z" fill="url(#t)"/><path d="M595.75,884.82c-11,1.5-21.86-1.93-31.31-8.08-9.92-6.45-18-15.71-25.07-25.51-4.08-5.62-7.85-11.49-11.63-17.35-1.12-1.74-3.16-2.55-5-1.41a4.18,4.18,0,0,0-1.3,5.39c14,21.71,29.54,44.83,54,52.81a45.71,45.71,0,0,0,20.25,2,3.91,3.91,0,0,0,3.62-3.94C599.37,886.84,597.7,884.56,595.75,884.82Z" fill="url(#u)"/><path d="M468.22,914.61a180.07,180.07,0,0,0-31.75-32.79c-3.33-2.66-6.76-5.2-10.26-7.6a2.79,2.79,0,0,0-3.9,1.08,3.17,3.17,0,0,0,1,4.12,223.19,223.19,0,0,1,36.43,32.14c2.59,2.9,14.76,20.2,14.76,20.2C475.71,930.5,469.18,915.89,468.22,914.61Z" fill="url(#v)"/><path d="M337.64,713.58s28.8,52.76,72,54.87l28-30.83,6.43,47.43a446.54,446.54,0,0,0,63.16-8.9,123.69,123.69,0,0,1,83.85,11.05l1.24.65s18.17-47.5,31-87.78l22.42-105c4.9-23,24.41-44.58,37.29-63.49,8.49-12.47,19.07-26.42,30.7-38.14,0,0,72.81-75-28.8-119.15L545.54,342.14s-45.88,33.11-62.49,75.48l-52.6,134.16C388.72,610.23,351.55,666.78,337.64,713.58Z" stroke="#591919" stroke-miterlimit="10" fill="url(#w)"/><path d="M621,757.06a.92.92,0,0,1-.36-.07,1,1,0,0,1-.56-.55c-29.62-72.26-43-136.24-41-195.58,1.13-32.75,9.7-74.69,22.39-109.45,11.21-30.74,31-71,61.5-88a25,25,0,0,1,12.23-3.16,21.94,21.94,0,0,1,17.66,8.28,15.08,15.08,0,0,1,3.42,10.14c-.38,5.24-4.16,9.31-7.2,12.59-35.78,38.59-49.64,106.44-55,156.57-6.17,58.12-4.26,124.37,5.13,177.21a1.34,1.34,0,0,1,0,.2c0,1-.87,23.83-17.83,31.76A1.07,1.07,0,0,1,621,757.06Z" fill="url(#x)"/><path d="M675.18,361.22a21,21,0,0,1,16.87,7.89,14.17,14.17,0,0,1,3.21,9.46c-.35,4.81-3.78,8.58-6.93,12-63.51,68.49-67.07,239-50.1,334.63,0,0-.65,23.12-17.26,30.88-25.19-61.47-43.22-127.89-40.91-195.16,2-58.87,29.72-166.63,83.38-196.65a24.21,24.21,0,0,1,11.74-3m0-2a26.19,26.19,0,0,0-12.72,3.28c-30.78,17.22-50.68,57.67-62,88.57-12.72,34.85-21.32,76.91-22.45,109.76-2,59.49,11.39,123.59,41.06,196a2,2,0,0,0,1.13,1.1,2,2,0,0,0,.72.14,2,2,0,0,0,.85-.19c17.52-8.18,18.38-31.63,18.41-32.63a1.35,1.35,0,0,0,0-.4c-9.36-52.76-11.28-118.9-5.11-176.93,5.31-50,19.11-117.61,54.71-156,3.14-3.39,7.05-7.61,7.46-13.19a16.07,16.07,0,0,0-3.63-10.83,22.92,22.92,0,0,0-18.45-8.67Z" fill="#465a5c"/><path d="M620.29,405.16a22.35,22.35,0,0,1-3.23-.22A26.55,26.55,0,0,1,598.3,392.4a31,31,0,0,1-2.95-26.24l.12-.46.3-.7.4-1.22,2.93-8.14,9.77-32.45c.27-.73,1.27-.82,2.11-.82,4.94,0,18.72,3.87,20.36,4.33l13.7-4.08,20.83-6.25,1.84-.42-2.07,5.89-10.78,39.44-2.45,9.47-2.94,10.68c-3.22,11.82-12.52,20.93-23.69,23.21A31,31,0,0,1,620.29,405.16Z" fill="url(#y)"/><path d="M666.93,316.64l-1.76,5-10.79,39.48-2.45,9.48L649,381.3c-3.18,11.68-12.26,20.6-23.31,22.85a30.32,30.32,0,0,1-5.39.51,21.73,21.73,0,0,1-3.15-.22c-16-2.19-27.26-20.08-21.32-38.13l.14-.47.27-.64.41-1.26,2.93-8.13,9.78-32.47c.12-.33.71-.47,1.63-.47,5.13,0,20.36,4.35,20.36,4.35l13.84-4.13L666,316.85l.92-.21m1.55-1.37-1.77.4-.92.21h-.06l-20.84,6.25-13.55,4c-2.18-.61-15.48-4.31-20.36-4.31-.59,0-2.15,0-2.57,1.12v.06l-9.77,32.45-2.92,8.1-.4,1.25-.26.59,0,.06,0,.07-.13.47a31.51,31.51,0,0,0,3,26.63A27.09,27.09,0,0,0,617,405.44a23.2,23.2,0,0,0,3.29.22,31.63,31.63,0,0,0,5.56-.52c11.39-2.33,20.84-11.58,24.1-23.58l2.94-10.67,2.46-9.49L666.13,322l1.75-5,.6-1.7Z" fill="#591919"/><path d="M615,342.9a74.32,74.32,0,0,1-10.25-.66l-.53-.08,4.6-18.94a7,7,0,0,1,5.13-4.61l.16,0,17.23,8.11L645,322.62l8-1.6-.2.77c-4.68,18.36-25.7,21.11-37.81,21.11Z" fill="#591919"/><path d="M614.08,319.1l17.26,8.12,13.84-4.13,7.19-1.42c-4.56,17.85-24.79,20.73-37.33,20.73a73.9,73.9,0,0,1-10.17-.65l4.48-18.41a6.48,6.48,0,0,1,4.73-4.24m.14-1-.32.06a7.42,7.42,0,0,0-5.49,4.87l0,.05,0,.06-4.47,18.41-.26,1.06,1.08.17a73.85,73.85,0,0,0,10.32.66c12.25,0,33.53-2.8,38.3-21.48l.39-1.54-1.56.31L645,322.11h0l-.05,0-13.47,4-16.91-8-.29-.14Z" fill="#591919"/><path d="M595.8,211.5c2.46-14.74,14-29.33,22.34-38.26a66.46,66.46,0,0,1,20.23-15.12c45.06-20.94,75.63,19,75.63,19,23.62,20.27,2,67,2,67-.87,2.71-1.74,5.3-2.61,7.83a11.33,11.33,0,0,1,4.86,2c7.32,5.44,7.51,19,.44,30.31-6.57,10.5-17.06,15.23-24.39,11.5-12,19.46-30.34,33.68-51.62,38.27-1.27.27-2.51.5-3.71.7a33.83,33.83,0,0,1-10.33-.11c-26.68-4.06-45.53-30.89-44.21-60.23C585.35,253.78,589.52,232.78,595.8,211.5Z" fill="url(#z)"/><path d="M733.86,274.44c-4.2,4.47-10.42,8.78-9.5,15.09-2.92.13-5-3.37-5.07-6.55s1.19-6.2,1.81-9.33.46-6.8-1.81-8.83c-3.27-3-8.51,0-10.56,4.05s-2.31,9-4.07,13.22c-3.35,8.07-12.59,12.59-20.35,9.94a20.41,20.41,0,0,0,10.17-16.14,14.32,14.32,0,0,1-12.37,8.8,14.17,14.17,0,0,1-12.73-8.2,27.68,27.68,0,0,0,12.92-12,6.11,6.11,0,0,1-5.59-2.21c7.33.55,13.82-8.36,11.65-16-2-7.1-9.12-10.62-14.09-15.75-7.21-7.46-10-19.58-6.89-29.85a73.09,73.09,0,0,1-28.58,25.94c4.34-4.37,6.27-11,6.44-17.48S644,196.3,642.56,190a40.08,40.08,0,0,1-11.3,25.71c2.53-3.73.62-9.28-2.56-12.33s-7.36-4.6-10.88-7.17c-3.3-2.42-6.19-6.44-5.76-10.62-3.23,19.79-19.31,35.85-19.68,56-3.35-6.15-3.28-14.14-.36-20.48-4.41,4.29-10.75,6.26-16.49,4.63,5.21-.13,9.79-5.49,9.55-11.15-.22-5.23-3.81-9.46-5.52-14.35-3.28-9.35.91-20.26,7.69-27S603,163,611.6,159.66a15.8,15.8,0,0,1-9.81-6.89c9.33,3,19.36-.5,28-5.36s16.64-11.2,25.85-14.56,26.58-4.68,33.18,10.72c2.54.5,5,1.05,7.55,1.71,13.07,3.44,25.56,10.65,34.2,21.9s13,26.75,9.79,41C738.92,214.72,736,221,736,227.68c0,8,4.17,15.27,5.2,23.21A29.32,29.32,0,0,1,733.86,274.44Z" fill="url(#aa)"/><path d="M606.39,264.64c5.57-9.87,11.87-19.35,17.79-29,1.38-2.26,4.74-.11,3.34,2.16l-14.39,23.43c-1.79,2.92-6.2,7.66-3.44,11.11,2.53,3.16,7.12,4.47,10.78,4.83,2.48.25,2.5,4.49,0,4.24C612.9,280.68,600.56,275,606.39,264.64Z" fill="url(#ab)"/><path d="M615.55,293.47A29.75,29.75,0,0,0,642.68,287a1.87,1.87,0,0,1,2.67.73,2.29,2.29,0,0,1-.67,2.91,33.18,33.18,0,0,1-30.12,6.92C612.13,296.91,613.12,292.81,615.55,293.47Z" fill="url(#ac)"/><path d="M649.52,259.46a2.7,2.7,0,0,1-1-.18c-2.29-.87-3.12-4.65-1.83-8.41,1.08-3.13,3.38-5.4,5.49-5.4a2.87,2.87,0,0,1,1,.17c2.3.88,3.12,4.66,1.83,8.42C653.93,257.19,651.63,259.46,649.52,259.46Z"/><path d="M652.2,246h0a2.4,2.4,0,0,1,.8.14c2,.77,2.71,4.34,1.53,7.79-1,2.93-3.11,5.06-5,5.06a2.36,2.36,0,0,1-.8-.14c-2-.77-2.71-4.34-1.53-7.79,1-2.93,3.11-5.06,5-5.06m0-1c-2.29,0-4.78,2.3-6,5.74-1.38,4-.42,8.07,2.12,9a3.35,3.35,0,0,0,1.16.21c2.29,0,4.78-2.3,6-5.74,1.38-4,.43-8.07-2.12-9a3,3,0,0,0-1.15-.21Z"/><path d="M607.47,245.2a2.7,2.7,0,0,1-1-.18c-2.3-.87-3.12-4.65-1.83-8.41,1.07-3.13,3.38-5.4,5.48-5.4a2.93,2.93,0,0,1,1,.17c2.3.88,3.12,4.66,1.83,8.42C611.88,242.93,609.57,245.2,607.47,245.2Z"/><path d="M610.15,231.71h0a2.35,2.35,0,0,1,.79.14c2,.77,2.72,4.34,1.54,7.79-1,2.93-3.11,5.06-5,5.06a2.36,2.36,0,0,1-.8-.14c-2-.77-2.72-4.34-1.54-7.79,1-2.93,3.12-5.06,5-5.06m0-1c-2.3,0-4.79,2.3-6,5.74-1.38,4-.43,8.07,2.12,9a3.35,3.35,0,0,0,1.16.21c2.29,0,4.78-2.3,5.95-5.74,1.38-4,.43-8.07-2.12-9a3,3,0,0,0-1.15-.21Z"/><path d="M669.27,244.57h0a1.59,1.59,0,0,1,.6.09c-.45-8.14-4.9-16-11.54-19.81a6.32,6.32,0,0,0-3.37-1.06,2.91,2.91,0,0,0-2.68,2.13c-.3,1.4.59,2.75,1.55,3.74a34.79,34.79,0,0,0,6.77,4.95,24.09,24.09,0,0,1,6.49,5.33A11.76,11.76,0,0,1,669.27,244.57Z" fill="url(#ad)"/><path d="M622.08,211.41a5,5,0,0,0-2.58-1.51c-6-1.71-12.18,1.63-15.56,8.12a7.31,7.31,0,0,1,2.33-1.86l.15,0a6.24,6.24,0,0,1,1.58-.68,13.16,13.16,0,0,1,6.24.38,19.77,19.77,0,0,0,6.27.86,2.54,2.54,0,0,0,2.45-1.79A4.15,4.15,0,0,0,622.08,211.41Z" fill="url(#ae)"/><path d="M527.26,125.81v-6a12.49,12.49,0,0,0-4.52-9.74L494.86,87.7l-32.3-19a3.36,3.36,0,0,0-4.91,1.94c-1.35,4.1.72,11.78,23.61,22.12L516.66,130h10.6Z" fill="url(#af)"/><path d="M523.66,127.16l-1.4-9.81-33.2-24.64L448.25,79.63s-9,12.11,13,19.46l20.61,6L505.46,130Z" fill="url(#ag)"/><path d="M519.06,130l-23.27-27.69H474.46l-18.61,17.22s2.87,10.47,21.41-3.38h15L497.86,130Z" fill="url(#ah)"/><path d="M694.58,488.8c-11.7,0-22.73-5.05-31.06-14.24l-48.13-53-19.95-22a192.33,192.33,0,0,1-27.92-40.16c-13.12-25.15-31.52-62.19-44.63-95.8a306,306,0,0,1-12.63-38.34c-.06-.17-.1-.37-.15-.56h0c-1.57-1.76-23.64-26.66-31.77-40.19a29.51,29.51,0,0,1-2.63-5.22,95.85,95.85,0,0,1-4.81-20.89c-1.24-1.52-14.6-17.49-30.92-23.73a9.8,9.8,0,0,1-6.32-9.51c.15-3,1.79-6.49,8.77-6.49.47,0,1,0,1.5.05a30,30,0,0,1,12.87,4l29.64,16.53,10-13.2h32.2l2.42,73,3.54,4.52L556,230.82l58.5,74.8a298.7,298.7,0,0,0,44.27,45.92,249.23,249.23,0,0,0,43,29,85.89,85.89,0,0,1,12,7.56c16.2,12.27,25.42,32.94,24.67,55.3l-.07,1.58C736.72,473.43,714.6,488.8,694.58,488.8Z" fill="url(#ai)"/><path d="M442.43,119.13c.46,0,.95,0,1.47.05a29.49,29.49,0,0,1,12.66,3.92l30,16.74,10.13-13.35h31.47l2.41,72.65,3.64,4.65,21.36,27.34,58.5,74.8a299.33,299.33,0,0,0,44.35,46,249.86,249.86,0,0,0,43,29,85.81,85.81,0,0,1,11.89,7.51c16.28,12.33,25.2,33.3,24.47,54.88,0,.53,0,1.06-.07,1.58-1.45,26.61-21.95,43.38-43.19,43.38-10.85,0-21.9-4.38-30.69-14.07l-48.13-53-20-22A191.64,191.64,0,0,1,568,359.13c-12.27-23.52-31.22-61.45-44.61-95.75a310.89,310.89,0,0,1-12.61-38.27c-.07-.24-.12-.48-.17-.69,0,0-23.34-26.12-31.8-40.21a27.49,27.49,0,0,1-2.58-5.13,92.63,92.63,0,0,1-4.8-20.92s-13.84-17.35-31.23-24a9.31,9.31,0,0,1-6-9c.15-3.14,2-6,8.27-6m0-1c-7.38,0-9.11,3.79-9.27,7a10.32,10.32,0,0,0,6.65,10c15.85,6.06,28.91,21.4,30.61,23.46a94.58,94.58,0,0,0,4.82,20.86,29.09,29.09,0,0,0,2.67,5.31c8,13.36,29.59,37.74,31.74,40.17,0,.15.08.31.13.47a308.18,308.18,0,0,0,12.64,38.37c13.13,33.64,31.53,70.69,44.66,95.85a192.72,192.72,0,0,0,28,40.27l19.95,22,48.13,53c8.42,9.29,19.59,14.4,31.43,14.4a43.17,43.17,0,0,0,29.7-12A47.65,47.65,0,0,0,738.77,445l.07-1.59A72.19,72.19,0,0,0,732.9,412,61.55,61.55,0,0,0,714,387.67a85.86,85.86,0,0,0-12-7.61,248.83,248.83,0,0,1-42.87-28.9,298.25,298.25,0,0,1-44.2-45.85l-58.5-74.8L535,203.17l-3.44-4.39-2.41-72.33,0-1H496.21l-.3.39-9.6,12.66L457,122.22a30.37,30.37,0,0,0-13.08-4c-.53,0-1-.05-1.53-.05Z" fill="#591919"/><path d="M554.67,230.44c-5.26,10.73-13.6,19.58-23,26.31a97.81,97.81,0,0,1-9.28,5.94,309.2,309.2,0,0,1-12.61-38.27,86,86,0,0,0,23.49-21.31Z" fill="url(#aj)"/><path d="M736.92,442.66c0,.53,0,1-.07,1.58-2.19,40.21-47.89,57.95-73.89,29.3l-48.13-53,42.69-69.26a249.09,249.09,0,0,0,43,29,85.89,85.89,0,0,1,11.89,7.52C728.72,400.11,737.65,421.08,736.92,442.66Z" fill="url(#ak)"/><path d="M389.72,79.45l-.83,46.45c-.05,2.82,2.07,5.07,4.55,4.85L466,124.32a4.56,4.56,0,0,0,3.89-4.75V67.83c0-2.91-2.28-5.13-4.82-4.72l-71.7,11.72A4.61,4.61,0,0,0,389.72,79.45Z" fill="#93bec2"/><path d="M387.38,130.61a5,5,0,0,1-3.59-1.54,5.81,5.81,0,0,1-1.62-4.17L383,80a5.47,5.47,0,0,1,4.46-5.43l71.7-11.33a5,5,0,0,1,.77-.06,5.43,5.43,0,0,1,5.21,5.61v50a5.49,5.49,0,0,1-4.81,5.59L387.8,130.6Z" fill="url(#al)"/><path d="M459.92,64.21a4.43,4.43,0,0,1,4.21,4.61v50a4.46,4.46,0,0,1-3.89,4.59l-72.52,6.21h-.34a4.42,4.42,0,0,1-4.21-4.69L384,80.05a4.5,4.5,0,0,1,3.62-4.47L459.3,64.26a4.32,4.32,0,0,1,.62-.05m0-2a5.84,5.84,0,0,0-.93.08l-71.7,11.32A6.47,6.47,0,0,0,382,80l-.82,44.87a6.78,6.78,0,0,0,1.91,4.89,6,6,0,0,0,4.3,1.84,4.35,4.35,0,0,0,.51,0l72.52-6.21a6.48,6.48,0,0,0,5.72-6.58v-50a6.43,6.43,0,0,0-6.21-6.61Z" fill="#465a5c"/><path d="M385,68.92c-.63,3-1.42,7.12-1.92,11.21a6.33,6.33,0,0,0,4.92,7.1h0a5.73,5.73,0,0,0,6-3.08,69.32,69.32,0,0,0,5.16-11.76,8.77,8.77,0,0,0-1.13-7.52,6.31,6.31,0,0,0-6.75-2.49A8.16,8.16,0,0,0,385,68.92Z" fill="url(#am)"/><path d="M400.32,61.32l-2.93,22c-.48,3.6,1.93,6.92,5.25,7.24h0a5.73,5.73,0,0,0,5.87-4.09c1.67-5,4.09-13.23,4.48-20.44,2.17-9-1.89-13.39-6.94-12C403,54.81,400.79,57.87,400.32,61.32Z" fill="url(#an)"/><path d="M513.66,170.64s16.2-40.33-4.8-48.62l-20.2-3.92s-21.61-4.36-28.41,5.45c0,0-9.2,7.41,24.31,7.41l5.1.87,8.2,15s-10,15.69-5.6,29.87" fill="url(#ao)"/><path d="M523.91,469a2.79,2.79,0,0,0-4.26,1.36q-18.31,47.22-34.44,95.73-16.05,48.31-29.84,97.74-7.75,27.81-14.78,55.94c-1.22,4.85,4.73,7,5.94,2.18q12.41-49.66,27.09-98.34t31.56-96.11q9.54-26.75,19.75-53.09C525.68,472.47,525.42,470.14,523.91,469Z" fill="url(#ap)"/><path d="M604.15,415.27a3.81,3.81,0,0,0-3.62,3.94,4.44,4.44,0,0,1,0,.63h0l-.06.14,0,0h0l0,0v0c.26-.19-.29.28-.38.36.45-.44-.27.16-.4.24l-.19.13-.27.06-.6.15H598c-.09,0-.1,0-.09,0l-.19-.1a10,10,0,0,1-1.25-.75A11.27,11.27,0,0,1,595,418.4a28.92,28.92,0,0,1-2.54-4.84c-4-9.05-8-18.16-11.94-27.24a3.48,3.48,0,0,0-4.29-1.73,3.82,3.82,0,0,0-3.38-2.58l-24.67-1.56a138.91,138.91,0,0,1,17.7-18.7c1.53-1.33,1.28-4.18,0-5.57-1.5-1.65-3.58-1.34-5.11,0a144.44,144.44,0,0,0-22.94,25.76c-1.8,2.56.7,5.78,3.12,5.93l31.9,2a2.72,2.72,0,0,0,1.2-.21,4.57,4.57,0,0,0,.22.62l7.26,16.54c2.17,5,4,10.37,6.85,15,2.59,4.21,6.48,7.56,11.37,6.85,4.23-.61,8.55-4.33,8-9.43C607.56,417.1,606.25,415.27,604.15,415.27Z" fill="url(#aq)"/><path d="M556.6,440.07c-.05-.41-.08-.83-.16-1.24a2.75,2.75,0,0,0-.13-.47,3,3,0,0,0-.64-1.34,2.9,2.9,0,0,0-1-1l-.86-.4a2.56,2.56,0,0,0-1.45-.07,1.67,1.67,0,0,0-.91.27l-.16.08a2.3,2.3,0,0,0-.45.05,1.64,1.64,0,0,0-.91.27,1.73,1.73,0,0,0-.8.5,2,2,0,0,0-.65.71,3.06,3.06,0,0,0-.65,1.34,3.1,3.1,0,0,0-.08.42,9.35,9.35,0,0,0-.15,1.44,9.78,9.78,0,0,0,.16,1.43,3.43,3.43,0,0,0,.09.44l.07.19c.14.37.27.74.43,1.1a2,2,0,0,0,.19.36c.21.33.44.65.67.95l.13.16a9.46,9.46,0,0,0,1,.89l.86.39a2.48,2.48,0,0,0,1.45.07,1.67,1.67,0,0,0,.91-.27,2.64,2.64,0,0,0,1.16-.81,9.91,9.91,0,0,0,.84-1.12.16.16,0,0,1,0-.07l.4-.57a4.16,4.16,0,0,0,.43-1.51v0c0-.07,0-.14,0-.22,0-.41.11-.82.15-1.24a3.53,3.53,0,0,0,0-.46A1.94,1.94,0,0,0,556.6,440.07Z" fill="url(#ar)"/><path d="M566.85,417.21v0l-.13-1.05v0a.53.53,0,0,0,0-.12v0c0-.15-.31-.81-.37-1l0-.06a3.82,3.82,0,0,0-.68-.95l0,0c-.1-.1-.63-.54-.73-.63h0l-.09-.06,0,0c-.21-.1-.66-.31-.88-.4h0l-.1,0h-.06l-1-.14h-.2l-1,.15h-.06a.6.6,0,0,0-.19.06l-.88.4,0,0,0,0-.09.07a7.48,7.48,0,0,0-.81.68l-.08.09-.29.41s-.21.28-.3.42a.17.17,0,0,0,0,.05l0,0c-.07.15-.17.46-.19.49l-.19.49,0,.12a7.35,7.35,0,0,0-.13,1.16,3.12,3.12,0,0,0,.31,1.52s0,.06,0,.1v0a4,4,0,0,0,.93,1.74,5.73,5.73,0,0,0,.81.68l.09.06.88.41h0l.05,0h.08l1,.14h.13a6.44,6.44,0,0,0,1.06-.15l.1,0,.05,0h0c.24-.1.65-.29.88-.41a.88.88,0,0,0,.21-.12l.76-.64,0,0,.09-.1c.22-.28.42-.57.62-.87l.06-.11c.08-.17.14-.37.2-.52s.14-.34.2-.52l0-.11v0c0-.16.12-.9.13-1.06s0,0,0-.06A.13.13,0,0,0,566.85,417.21Z" fill="url(#as)"/></g><polygon points="303.68 398.16 220.45 378.27 230.91 406.12 137.22 447.93 153 489.93 246.68 448.12 257.64 477.29 303.68 398.16" stroke="#591919" stroke-miterlimit="10" fill="url(#at)"/><path d="M790.45,698.72l-77.37-34.19a4.24,4.24,0,0,1-2-5.76l58.53-125.1a4.45,4.45,0,0,1,5.74-2.35l77.37,34.18c5,2.19,7,8.2,4.56,13.43l-53.47,114.3C801.41,698.45,795.41,700.91,790.45,698.72Z" fill="#ffbe00"/><path d="M787.74,706.46,713,664.9a4.76,4.76,0,0,1-1.82-6.13l58.53-125.1a4,4,0,0,1,5.61-2l74.78,41.57c4.8,2.66,6.7,9,4.26,14.28l-53.47,114.3C798.39,707.05,792.53,709.12,787.74,706.46Z" fill="url(#au)"/><polygon points="975.65 811.77 946.91 849.3 944.62 852.3 942.81 852.07 892.02 845.25 889.17 844.86 888.65 845.7 888.04 846.63 866.23 881.33 864.83 883.52 861.96 883.4 810.92 881.51 807.67 881.37 806.92 882.53 784.77 916.36 783.86 917.76 780.88 917.82 722.79 918.86 696.85 844.25 674.47 779.99 725.25 789.57 729.22 790.33 729.79 789.58 762.36 744.93 762.36 744.89 763.31 743.62 766.45 744.21 805.05 751.34 808.16 751.9 810.64 752.36 812.56 750.04 843.75 712.36 845.67 710.05 847.45 710.38 891.36 718.67 895.08 719.36 896.18 717.77 925.25 675.14 969.72 795.61 975.65 811.77" fill="url(#av)"/><path d="M925.25,675.14l44.47,120.47,5.93,16.16L946.91,849.3l-2.29,3-1.81-.23L892,845.25l-2.85-.39-.52.84-.61.93-21.81,34.7-1.4,2.19L862,883.4l-51-1.89-3.25-.14-.75,1.16-22.15,33.83-.91,1.4-3,.06-58.09,1-25.94-74.6L674.47,780l50.78,9.58,4,.76.57-.75,32.57-44.65v0l.95-1.27,3.14.59,38.61,7.13,3.1.56,2.48.46,1.92-2.32,31.19-37.68,1.92-2.31,1.78.33,43.9,8.29,3.73.69,1.1-1.59,29.07-42.63m0-2a2,2,0,0,0-1.65.87l-29.08,42.64-.35.51-2.45-.46-43.9-8.29-1.79-.33a2.19,2.19,0,0,0-.36,0,2,2,0,0,0-1.54.72l-1.92,2.31L811,748.77l-1.17,1.41-1.33-.25-3.11-.56-38.59-7.12-3.14-.6a2.31,2.31,0,0,0-.37,0,2,2,0,0,0-1.6.8l-1,1.27a1.37,1.37,0,0,0-.19.3l-32.2,44.14-2.74-.53L674.84,778a2.31,2.31,0,0,0-.37,0,1.94,1.94,0,0,0-1.51.69,2,2,0,0,0-.38,2L695,844.91l25.94,74.6a2,2,0,0,0,1.89,1.34h0l58.09-1,3-.06a2,2,0,0,0,1.63-.92l.91-1.4,22.14-33.81.14-.22,2.1.1,51.06,1.88,2.86.13h.08a2,2,0,0,0,1.69-.93l1.39-2.19,21.83-34.7.44-.68,1.57.21,50.79,6.82,1.82.24h.26a2,2,0,0,0,1.59-.79l2.29-3L977.24,813a2,2,0,0,0,.29-1.9l-5.94-16.17L927.13,674.45a2,2,0,0,0-1.64-1.29l-.24,0Z" fill="url(#aw)"/><path d="M975.65,811.77,946.91,849.3l-2.29,3-1.81-.23L892,845.25l-2.85-.39-.52.84a23.73,23.73,0,0,1,.2-7.47c.09-.54.22-1,.32-1.58a52.16,52.16,0,0,1,3.7-9.26c2.52-5.39,5.09-10.78,7.65-16.18,2.05-4.37,4.34-9,8.29-11.43a11.14,11.14,0,0,1,11.47,0,14.64,14.64,0,0,1,3.57,3.11,68.79,68.79,0,0,1,5,7.3,22.05,22.05,0,0,0,5.2,5.86,9.41,9.41,0,0,0,5,2.08,10,10,0,0,0,6-1.69,16.84,16.84,0,0,0,2.86-2.33,51.06,51.06,0,0,0,4.14-5c.76-1,1.57-2.07,2.41-3.07a35.47,35.47,0,0,1,15.23-10.42Z" fill="url(#ax)"/><path d="M805.06,751.34a31.72,31.72,0,0,1-6.87,15c-5.36,6.7-12.27,11.22-19.87,14.53-1.24.57-2.52,1.1-3.8,1.59a147.84,147.84,0,0,1-19.3,5.56c-4.57,1.11-9.61,2.47-12.2,6.7-2.7,4.47-1.93,10.93-4.44,15.21a9.27,9.27,0,0,1-1.49,1.88A11.34,11.34,0,0,1,735.4,813c-4.26,2.24-10.3,1.13-13.39,5.21-3.27,4.42-.41,11-1.08,16.63-.91,7.79-9,12.61-16.21,11.83a22,22,0,0,1-7.87-2.42L674.47,780l50.78,9.58,4,.76.57-.75,32.57-44.65v0l.95-1.27,3.14.59Z" fill="url(#ay)"/><path d="M955.36,791.11c-12.18,3.42-21.21-11.18-29.1-18.67-4-3.79-8.68-7.21-14-8.08a18.5,18.5,0,0,0-14.14,3.74c-9.9,7.43-12.55,20.61-12.91,32.94-.19,6.35,1.37,14.88-2.62,20.19-4.14,5.5-10.57.49-15.83.77-11.09.59-9.36,15.74-14.67,22.77a16.3,16.3,0,0,1-12.55,6.54c-5.52.09-9.88-3.71-14.43-6.59-4-2.53-8.47-4.35-13.09-2.83-3.68,1.2-6.42,4.35-8.58,7.66-4.67,7.18-8.6,18.65-18.62,14.67-6-2.4-10.91-6.31-17.6-6.5-6.13-.18-12.23,2.23-17.32,5.86-11.44,8.18-17.08,22.5-22.16,35.75-1,2.64,2.64,4.66,3.65,2C736,889.25,741,875.86,751.16,868c4.62-3.55,10.19-6,15.91-5.87,6,.11,10.68,3.94,16.14,6.16,4.25,1.73,8.78,1.8,12.67-1,3.19-2.26,5.36-5.86,7.35-9.29s3.93-7.5,7-10.13c4-3.5,8.63-2,12.73.58,4.37,2.73,8.52,6.26,13.65,7a19.38,19.38,0,0,0,13.08-2.84,20.73,20.73,0,0,0,8.64-11c1.44-4.25,1.84-10.17,4.94-13.48,4-4.25,10.48.51,15.21.12,5.11-.42,8.6-4.92,9.95-10,1.73-6.49.6-13.76,1-20.43s1.59-13.56,5-19.21,8.74-10.07,15-10.1,11.58,4.48,16,8.93c8.64,8.78,18,21.59,31.39,17.84C959.23,794.61,957.9,790.4,955.36,791.11Z" fill="#fff"/><polygon points="784.77 916.36 783.86 917.76 780.88 917.82 757.62 864.19 755.88 860.16 745.13 835.43 735.4 813 725.25 789.57 729.22 790.33 729.79 789.58 738.58 809.88 749.34 834.7 759.77 858.74 761.56 862.82 784.77 916.36" fill="#355bb7"/><polygon points="866.23 881.33 864.83 883.52 861.96 883.4 849.45 852.8 847.79 848.76 834.42 816.13 825.7 794.79 808.16 751.9 810.64 752.36 812.56 750.04 830.05 792.85 838.4 813.27 851.53 845.39 853.33 849.73 853.33 849.78 866.23 881.33" fill="#355bb7"/><polygon points="946.91 849.3 944.62 852.3 942.81 852.07 923.85 802.84 910.64 768.63 910.64 768.59 908.92 764.2 900.4 742.04 900.35 742 897.91 735.64 897.91 735.6 891.36 718.67 895.08 719.36 896.18 717.77 914.36 764.86 914.36 764.91 916.52 770.48 934.08 816 946.91 849.3" fill="#355bb7"/><polygon points="892.02 845.25 889.17 844.86 888.65 845.7 888.04 846.63 881.69 827.41 880.31 823.22 869.57 790.63 843.75 712.36 845.67 710.05 847.45 710.38 872.37 785.81 883.55 819.61 885.18 824.59 885.18 824.64 889.17 836.65 892.02 845.25" fill="#355bb7"/><polygon points="810.92 881.51 807.67 881.37 806.92 882.53 800.44 862.52 798.76 857.41 774.52 782.42 762.36 744.93 762.36 744.89 763.31 743.62 766.45 744.21 778.32 780.83 783.46 796.69 785.64 803.42 801.57 852.63 803.29 857.91 803.3 857.96 810.92 881.51" fill="#355bb7"/><path d="M850.55,769.77l-1.95-1.13c.76-1.64,1.52-3.27,2.29-4.91a2.35,2.35,0,0,0-.91-3,2,2,0,0,0-2.74,1q-1.12,2.41-2.26,4.83l-3.16-1.83a2,2,0,0,0-2.75,1,2.36,2.36,0,0,0,.9,3l3.16,1.83-1.23,2.64a2.36,2.36,0,0,0,.9,3,2,2,0,0,0,2.75-1c.4-.85.8-1.7,1.19-2.56l2,1.14a2,2,0,0,0,2.75-1A2.39,2.39,0,0,0,850.55,769.77Z" fill="#fff"/><path d="M757.3,902.16c-.42-.33-.88-.56-1.31-.86.17-.32.34-.64.5-1a2.33,2.33,0,0,0-.9-3,2,2,0,0,0-2.74,1l-.38.72a30.46,30.46,0,0,0-4.34-1.89,2.07,2.07,0,0,0-2.42,1.72,2.29,2.29,0,0,0,1.58,2.64l.53.19c.12,0,.74.23.17,0a10.44,10.44,0,0,1,1,.44c.48.21,1,.45,1.42.69l-1.14,2.16a2.35,2.35,0,0,0,.91,3,2,2,0,0,0,2.74-1c.35-.67.7-1.34,1.06-2l.11.09.46.36a2.11,2.11,0,0,0,1.48.56,2,2,0,0,0,1.4-.75A2.4,2.4,0,0,0,757.3,902.16Z" fill="#fff"/><path d="M760.48,808.38a17.57,17.57,0,0,0-1.88-1.57c.36-.73.71-1.46,1.07-2.18a2.35,2.35,0,0,0-.9-3,2,2,0,0,0-2.75,1l-1.08,2.2a15.81,15.81,0,0,0-3.19-1,2.1,2.1,0,0,0-2.43,1.72,2.27,2.27,0,0,0,1.58,2.64,13.63,13.63,0,0,1,2.07.52h0L751.89,811a2.35,2.35,0,0,0,.9,3,2,2,0,0,0,2.75-1c.37-.76.75-1.52,1.12-2.29l.24.2q.45.38.87.78a2,2,0,0,0,2.88-.19A2.43,2.43,0,0,0,760.48,808.38Z" fill="#fff"/><path d="M952.93,809.51c-.67-.29-1.32-.66-2-1l1.82-4.64a2.37,2.37,0,0,0-.9-3,2,2,0,0,0-2.75,1c-.6,1.54-1.21,3.08-1.81,4.61-.69-.43-1.4-.84-2.07-1.32a1.93,1.93,0,0,0-1.59-.12,2.15,2.15,0,0,0-1.16,1.1,2.46,2.46,0,0,0-.11,1.73,2.54,2.54,0,0,0,1,1.27c.74.53,1.53,1,2.3,1.47-.39,1-.79,2-1.19,3a2.37,2.37,0,0,0,.9,3,2,2,0,0,0,2.75-1c.4-1,.8-2,1.19-3,.59.29,1.15.61,1.75.86a2,2,0,0,0,1.58.12,2.13,2.13,0,0,0,1.17-1.1A2.35,2.35,0,0,0,952.93,809.51Z" fill="#fff"/><path d="M810.94,780.89a12.7,12.7,0,0,0-5-2.87,5.92,5.92,0,0,0-5.6,1.7,16.77,16.77,0,0,0-2.93,4.6,32.09,32.09,0,0,0-1.56,4.06c-.52-.35-1-.73-1.56-1.08a5.59,5.59,0,0,0-3.41-1.07,5.29,5.29,0,0,0-3.32,1.74,16.48,16.48,0,0,0-3.35,6.09,26.09,26.09,0,0,0-1.37,7.46,2.15,2.15,0,0,0,2.17,2.09,2.21,2.21,0,0,0,1.91-2.36c.14-3.34,1.29-7.48,3.36-10a2.07,2.07,0,0,1,.64-.54l.16-.06h.14a5.64,5.64,0,0,1,2,1.14l5.39,3.75a2,2,0,0,0,2.74-1,2.37,2.37,0,0,0-.9-3l-1.11-.77s0-.05,0-.08a25.46,25.46,0,0,1,1.47-4,16.24,16.24,0,0,1,2-3.48l.27-.32a.41.41,0,0,0,.08-.1l0,0a3.91,3.91,0,0,1,.41-.3.25.25,0,0,1,.08,0l.29-.11.37-.06h.32l.29.05a4.39,4.39,0,0,1,.52.13l.21.06c-.13,0-.13,0,0,0a8.71,8.71,0,0,1,.91.48,13.59,13.59,0,0,1,1.64,1.19,2,2,0,0,0,2.88-.19A2.4,2.4,0,0,0,810.94,780.89Z" fill="#355bb7"/><path d="M902.33,738.3a12.84,12.84,0,0,0-5-2.87,5.93,5.93,0,0,0-5.61,1.7,16.74,16.74,0,0,0-2.92,4.6,30.16,30.16,0,0,0-1.57,4.06c-.52-.36-1-.73-1.56-1.08a5.57,5.57,0,0,0-3.41-1.07,5.26,5.26,0,0,0-3.32,1.74,16.46,16.46,0,0,0-3.34,6.09,25.75,25.75,0,0,0-1.37,7.46,2.13,2.13,0,0,0,2.16,2.09,2.23,2.23,0,0,0,1.92-2.36c.13-3.35,1.28-7.48,3.35-10a2.2,2.2,0,0,1,.64-.54l.17-.06h.13a5.59,5.59,0,0,1,2,1.14L890,753a2,2,0,0,0,2.75-1,2.38,2.38,0,0,0-.9-3l-1.11-.77a.79.79,0,0,0,0-.09,26.14,26.14,0,0,1,1.46-4,16.77,16.77,0,0,1,2-3.47l.27-.32.09-.1,0,0a3.79,3.79,0,0,1,.4-.3.2.2,0,0,1,.09-.05l.28-.11.37-.06h.33l.29,0c.17,0,.34.08.52.13l.2.06c-.13-.05-.13-.05,0,0,.31.14.61.31.91.48a14.34,14.34,0,0,1,1.63,1.19,2,2,0,0,0,2.88-.19A2.4,2.4,0,0,0,902.33,738.3Z" fill="#355bb7"/><path d="M720.72,853.05a19.44,19.44,0,0,1,1.84-4.19" fill="none" stroke="#355bb7" stroke-linecap="round" stroke-linejoin="round" stroke-width="2"/><path d="M728.19,842.42a30.38,30.38,0,0,1,8.4-4.72c6.94-2.59,14.37-3.06,21.62-4.29a49.25,49.25,0,0,0,13.11-3.84" fill="none" stroke="#355bb7" stroke-linecap="round" stroke-linejoin="round" stroke-width="2" stroke-dasharray="2.88 2.88"/><path d="M775,827.5a25.06,25.06,0,0,0,3.44-2.76" fill="none" stroke="#355bb7" stroke-linecap="round" stroke-linejoin="round" stroke-width="2"/><path d="M814.67,813.46a17.73,17.73,0,0,0,3.55,2.57" fill="none" stroke="#355bb7" stroke-linecap="round" stroke-linejoin="round" stroke-width="2"/><path d="M826.72,818.19a16.38,16.38,0,0,0,4.44-.64A19.18,19.18,0,0,0,843.55,805c.84-2.58,1.24-5.48,3-7.44,2.74-3.09,7.3-2.45,11.24-2.45,5,0,10.34-1.75,13.16-6.21,1.84-2.92,2.33-6.56,3-10s1.84-7.08,4.44-9.19c2.1-1.69,4.78-2.12,7.35-2.7" fill="none" stroke="#355bb7" stroke-linecap="round" stroke-linejoin="round" stroke-width="2" stroke-dasharray="3.09 3.09"/><path d="M890,765.56a7.21,7.21,0,0,0,3.14-3.07" fill="none" stroke="#355bb7" stroke-linecap="round" stroke-linejoin="round" stroke-width="2"/><path d="M812.77,801a6.28,6.28,0,0,0,4,1.39" fill="none" stroke="#355bb7" stroke-linecap="round" stroke-linejoin="round" stroke-width="2"/><path d="M823.68,797.33a11.86,11.86,0,0,1,2.64-3.06c2.45-1.84,5.67-1.56,8.63-1.83l.25,0" fill="none" stroke="#355bb7" stroke-linecap="round" stroke-linejoin="round" stroke-width="2" stroke-dasharray="3.05 3.05"/><path d="M839.35,791.1a5.31,5.31,0,0,0,2.62-3.5" fill="none" stroke="#355bb7" stroke-linecap="round" stroke-linejoin="round" stroke-width="2"/><path d="M289.75,720.64,124.79,816c-12.82,7.41-28.72,2.09-35.52-11.88L43,709.17c-6.8-14-1.92-31.31,10.9-38.72l165-95.38c12.82-7.42,28.73-2.1,35.53,11.87l46.22,95C307.44,695.89,302.56,713.23,289.75,720.64Z" fill="#1f224d"/><path d="M298.78,739.21,133.83,834.59c-12.82,7.42-28.72,2.1-35.52-11.88l-46.23-95c-6.8-14-1.92-31.31,10.9-38.72l165-95.39c12.82-7.41,28.72-2.09,35.53,11.88l46.22,95C316.48,714.46,311.6,731.8,298.78,739.21Z" fill="url(#az)"/><path d="M154.23,590.31c-6.51-4.9-14.8-5.74-22.54-3.29-14.89,4.72-27.13,19.23-27.89,36-.41,9.25,2.52,18.49,8.45,25.08,3.4,3.78,9.17-2,5.76-5.77-8.27-9.19-8.37-23.9-1.2-34.64,6.58-9.86,20.9-18,31.49-11.44,6.92,4.29,10.58,12.3,14.06,19.66,2.21,4.7,9.15.71,6.93-4C165.46,603.8,161.32,595.64,154.23,590.31Z" fill="#1f224d"/><polygon points="155.53 822.05 144.17 828.61 73.32 683.04 84.67 676.47 155.53 822.05" fill="url(#ba)"/><polygon points="127.42 745.02 101.42 760.06 87.63 731.72 113.63 716.68 127.42 745.02" fill="url(#bb)"/><line x1="94.53" y1="745.89" x2="120.53" y2="730.85" fill="url(#bc)"/><polygon points="111.06 730.69 99.71 737.26 91.19 719.75 102.54 713.18 111.06 730.69" fill="url(#bd)"/><polygon points="289.86 744.37 278.5 750.94 207.65 605.36 219.01 598.79 289.86 744.37" fill="url(#be)"/><polygon points="261.76 667.35 235.76 682.38 221.96 654.04 247.97 639.01 261.76 667.35" fill="url(#bf)"/><line x1="228.86" y1="668.21" x2="254.86" y2="653.18" fill="url(#bg)"/><polygon points="245.4 653.01 234.04 659.58 225.52 642.07 236.88 635.5 245.4 653.01" fill="url(#bh)"/><ellipse cx="984.22" cy="588.62" rx="52.15" ry="56.84" fill="url(#bi)"/><path d="M984.22,531.76a48.07,48.07,0,0,1,17.63,3.37c27.1,10.61,41.18,43.16,31.44,72.71-7.64,23.2-27.69,37.64-49.08,37.64a48.27,48.27,0,0,1-17.63-3.36c-27.1-10.61-41.18-43.17-31.44-72.72,7.64-23.19,27.7-37.64,49.08-37.64m0-2v0h0c-22.81,0-43.29,15.68-51,39-10,30.49,4.58,64.22,32.61,75.2a50.26,50.26,0,0,0,18.36,3.5c22.81,0,43.29-15.68,51-39,10-30.49-4.58-64.23-32.61-75.21a50.26,50.26,0,0,0-18.36-3.5Z" fill="url(#bj)"/><ellipse cx="984.22" cy="588.62" rx="56.43" ry="41.6" transform="matrix(0.25, -0.97, 0.97, 0.25, 168.31, 1394.51)" fill="url(#bk)"/><ellipse cx="984.22" cy="588.62" rx="56.34" ry="17.99" transform="translate(121.8 1344.53) rotate(-72.12)" fill="url(#bl)"/></g></svg>